G04 #@! TF.GenerationSoftware,KiCad,Pcbnew,5.1.5+dfsg1-2build2*
G04 #@! TF.CreationDate,2020-07-02T19:51:55+02:00*
G04 #@! TF.ProjectId,BaSe_SATA_Adapter_Carriage_V1_1,42615365-5f53-4415-9441-5f4164617074,rev?*
G04 #@! TF.SameCoordinates,Original*
G04 #@! TF.FileFunction,Soldermask,Top*
G04 #@! TF.FilePolarity,Negative*
%FSLAX46Y46*%
G04 Gerber Fmt 4.6, Leading zero omitted, Abs format (unit mm)*
G04 Created by KiCad (PCBNEW 5.1.5+dfsg1-2build2) date 2020-07-02 19:51:55*
%MOMM*%
%LPD*%
G04 APERTURE LIST*
%ADD10C,0.100000*%
%ADD11C,0.150000*%
%ADD12C,0.300000*%
%ADD13C,0.400000*%
G04 APERTURE END LIST*
D10*
D11*
X177002200Y-166007200D02*
X177002200Y-198007200D01*
X285002200Y-198007200D01*
X285002200Y-166007200D01*
X177002200Y-166007200D01*
D10*
D11*
X10000000Y-10000000D02*
X10000000Y-200007200D01*
X287002200Y-200007200D01*
X287002200Y-10000000D01*
X10000000Y-10000000D01*
D10*
D11*
X12000000Y-12000000D02*
X12000000Y-198007200D01*
X285002200Y-198007200D01*
X285002200Y-12000000D01*
X12000000Y-12000000D01*
D10*
D11*
X60000000Y-12000000D02*
X60000000Y-10000000D01*
D10*
D11*
X110000000Y-12000000D02*
X110000000Y-10000000D01*
D10*
D11*
X160000000Y-12000000D02*
X160000000Y-10000000D01*
D10*
D11*
X210000000Y-12000000D02*
X210000000Y-10000000D01*
D10*
D11*
X260000000Y-12000000D02*
X260000000Y-10000000D01*
D10*
D11*
X36065476Y-11588095D02*
X35322619Y-11588095D01*
X35694047Y-11588095D02*
X35694047Y-10288095D01*
X35570238Y-10473809D01*
X35446428Y-10597619D01*
X35322619Y-10659523D01*
D10*
D11*
X85322619Y-10411904D02*
X85384523Y-10350000D01*
X85508333Y-10288095D01*
X85817857Y-10288095D01*
X85941666Y-10350000D01*
X86003571Y-10411904D01*
X86065476Y-10535714D01*
X86065476Y-10659523D01*
X86003571Y-10845238D01*
X85260714Y-11588095D01*
X86065476Y-11588095D01*
D10*
D11*
X135260714Y-10288095D02*
X136065476Y-10288095D01*
X135632142Y-10783333D01*
X135817857Y-10783333D01*
X135941666Y-10845238D01*
X136003571Y-10907142D01*
X136065476Y-11030952D01*
X136065476Y-11340476D01*
X136003571Y-11464285D01*
X135941666Y-11526190D01*
X135817857Y-11588095D01*
X135446428Y-11588095D01*
X135322619Y-11526190D01*
X135260714Y-11464285D01*
D10*
D11*
X185941666Y-10721428D02*
X185941666Y-11588095D01*
X185632142Y-10226190D02*
X185322619Y-11154761D01*
X186127380Y-11154761D01*
D10*
D11*
X236003571Y-10288095D02*
X235384523Y-10288095D01*
X235322619Y-10907142D01*
X235384523Y-10845238D01*
X235508333Y-10783333D01*
X235817857Y-10783333D01*
X235941666Y-10845238D01*
X236003571Y-10907142D01*
X236065476Y-11030952D01*
X236065476Y-11340476D01*
X236003571Y-11464285D01*
X235941666Y-11526190D01*
X235817857Y-11588095D01*
X235508333Y-11588095D01*
X235384523Y-11526190D01*
X235322619Y-11464285D01*
D10*
D11*
X285941666Y-10288095D02*
X285694047Y-10288095D01*
X285570238Y-10350000D01*
X285508333Y-10411904D01*
X285384523Y-10597619D01*
X285322619Y-10845238D01*
X285322619Y-11340476D01*
X285384523Y-11464285D01*
X285446428Y-11526190D01*
X285570238Y-11588095D01*
X285817857Y-11588095D01*
X285941666Y-11526190D01*
X286003571Y-11464285D01*
X286065476Y-11340476D01*
X286065476Y-11030952D01*
X286003571Y-10907142D01*
X285941666Y-10845238D01*
X285817857Y-10783333D01*
X285570238Y-10783333D01*
X285446428Y-10845238D01*
X285384523Y-10907142D01*
X285322619Y-11030952D01*
D10*
D11*
X60000000Y-198007200D02*
X60000000Y-200007200D01*
D10*
D11*
X110000000Y-198007200D02*
X110000000Y-200007200D01*
D10*
D11*
X160000000Y-198007200D02*
X160000000Y-200007200D01*
D10*
D11*
X210000000Y-198007200D02*
X210000000Y-200007200D01*
D10*
D11*
X260000000Y-198007200D02*
X260000000Y-200007200D01*
D10*
D11*
X36065476Y-199595295D02*
X35322619Y-199595295D01*
X35694047Y-199595295D02*
X35694047Y-198295295D01*
X35570238Y-198481009D01*
X35446428Y-198604819D01*
X35322619Y-198666723D01*
D10*
D11*
X85322619Y-198419104D02*
X85384523Y-198357200D01*
X85508333Y-198295295D01*
X85817857Y-198295295D01*
X85941666Y-198357200D01*
X86003571Y-198419104D01*
X86065476Y-198542914D01*
X86065476Y-198666723D01*
X86003571Y-198852438D01*
X85260714Y-199595295D01*
X86065476Y-199595295D01*
D10*
D11*
X135260714Y-198295295D02*
X136065476Y-198295295D01*
X135632142Y-198790533D01*
X135817857Y-198790533D01*
X135941666Y-198852438D01*
X136003571Y-198914342D01*
X136065476Y-199038152D01*
X136065476Y-199347676D01*
X136003571Y-199471485D01*
X135941666Y-199533390D01*
X135817857Y-199595295D01*
X135446428Y-199595295D01*
X135322619Y-199533390D01*
X135260714Y-199471485D01*
D10*
D11*
X185941666Y-198728628D02*
X185941666Y-199595295D01*
X185632142Y-198233390D02*
X185322619Y-199161961D01*
X186127380Y-199161961D01*
D10*
D11*
X236003571Y-198295295D02*
X235384523Y-198295295D01*
X235322619Y-198914342D01*
X235384523Y-198852438D01*
X235508333Y-198790533D01*
X235817857Y-198790533D01*
X235941666Y-198852438D01*
X236003571Y-198914342D01*
X236065476Y-199038152D01*
X236065476Y-199347676D01*
X236003571Y-199471485D01*
X235941666Y-199533390D01*
X235817857Y-199595295D01*
X235508333Y-199595295D01*
X235384523Y-199533390D01*
X235322619Y-199471485D01*
D10*
D11*
X285941666Y-198295295D02*
X285694047Y-198295295D01*
X285570238Y-198357200D01*
X285508333Y-198419104D01*
X285384523Y-198604819D01*
X285322619Y-198852438D01*
X285322619Y-199347676D01*
X285384523Y-199471485D01*
X285446428Y-199533390D01*
X285570238Y-199595295D01*
X285817857Y-199595295D01*
X285941666Y-199533390D01*
X286003571Y-199471485D01*
X286065476Y-199347676D01*
X286065476Y-199038152D01*
X286003571Y-198914342D01*
X285941666Y-198852438D01*
X285817857Y-198790533D01*
X285570238Y-198790533D01*
X285446428Y-198852438D01*
X285384523Y-198914342D01*
X285322619Y-199038152D01*
D10*
D11*
X10000000Y-60000000D02*
X12000000Y-60000000D01*
D10*
D11*
X10000000Y-110000000D02*
X12000000Y-110000000D01*
D10*
D11*
X10000000Y-160000000D02*
X12000000Y-160000000D01*
D10*
D11*
X10690476Y-35216666D02*
X11309523Y-35216666D01*
X10566666Y-35588095D02*
X11000000Y-34288095D01*
X11433333Y-35588095D01*
D10*
D11*
X11092857Y-84907142D02*
X11278571Y-84969047D01*
X11340476Y-85030952D01*
X11402380Y-85154761D01*
X11402380Y-85340476D01*
X11340476Y-85464285D01*
X11278571Y-85526190D01*
X11154761Y-85588095D01*
X10659523Y-85588095D01*
X10659523Y-84288095D01*
X11092857Y-84288095D01*
X11216666Y-84350000D01*
X11278571Y-84411904D01*
X11340476Y-84535714D01*
X11340476Y-84659523D01*
X11278571Y-84783333D01*
X11216666Y-84845238D01*
X11092857Y-84907142D01*
X10659523Y-84907142D01*
D10*
D11*
X11402380Y-135464285D02*
X11340476Y-135526190D01*
X11154761Y-135588095D01*
X11030952Y-135588095D01*
X10845238Y-135526190D01*
X10721428Y-135402380D01*
X10659523Y-135278571D01*
X10597619Y-135030952D01*
X10597619Y-134845238D01*
X10659523Y-134597619D01*
X10721428Y-134473809D01*
X10845238Y-134350000D01*
X11030952Y-134288095D01*
X11154761Y-134288095D01*
X11340476Y-134350000D01*
X11402380Y-134411904D01*
D10*
D11*
X10659523Y-185588095D02*
X10659523Y-184288095D01*
X10969047Y-184288095D01*
X11154761Y-184350000D01*
X11278571Y-184473809D01*
X11340476Y-184597619D01*
X11402380Y-184845238D01*
X11402380Y-185030952D01*
X11340476Y-185278571D01*
X11278571Y-185402380D01*
X11154761Y-185526190D01*
X10969047Y-185588095D01*
X10659523Y-185588095D01*
D10*
D11*
X287002200Y-60000000D02*
X285002200Y-60000000D01*
D10*
D11*
X287002200Y-110000000D02*
X285002200Y-110000000D01*
D10*
D11*
X287002200Y-160000000D02*
X285002200Y-160000000D01*
D10*
D11*
X285692676Y-35216666D02*
X286311723Y-35216666D01*
X285568866Y-35588095D02*
X286002200Y-34288095D01*
X286435533Y-35588095D01*
D10*
D11*
X286095057Y-84907142D02*
X286280771Y-84969047D01*
X286342676Y-85030952D01*
X286404580Y-85154761D01*
X286404580Y-85340476D01*
X286342676Y-85464285D01*
X286280771Y-85526190D01*
X286156961Y-85588095D01*
X285661723Y-85588095D01*
X285661723Y-84288095D01*
X286095057Y-84288095D01*
X286218866Y-84350000D01*
X286280771Y-84411904D01*
X286342676Y-84535714D01*
X286342676Y-84659523D01*
X286280771Y-84783333D01*
X286218866Y-84845238D01*
X286095057Y-84907142D01*
X285661723Y-84907142D01*
D10*
D11*
X286404580Y-135464285D02*
X286342676Y-135526190D01*
X286156961Y-135588095D01*
X286033152Y-135588095D01*
X285847438Y-135526190D01*
X285723628Y-135402380D01*
X285661723Y-135278571D01*
X285599819Y-135030952D01*
X285599819Y-134845238D01*
X285661723Y-134597619D01*
X285723628Y-134473809D01*
X285847438Y-134350000D01*
X286033152Y-134288095D01*
X286156961Y-134288095D01*
X286342676Y-134350000D01*
X286404580Y-134411904D01*
D10*
D11*
X285661723Y-185588095D02*
X285661723Y-184288095D01*
X285971247Y-184288095D01*
X286156961Y-184350000D01*
X286280771Y-184473809D01*
X286342676Y-184597619D01*
X286404580Y-184845238D01*
X286404580Y-185030952D01*
X286342676Y-185278571D01*
X286280771Y-185402380D01*
X286156961Y-185526190D01*
X285971247Y-185588095D01*
X285661723Y-185588095D01*
D10*
D11*
X200434342Y-193785771D02*
X200434342Y-192285771D01*
X200791485Y-192285771D01*
X201005771Y-192357200D01*
X201148628Y-192500057D01*
X201220057Y-192642914D01*
X201291485Y-192928628D01*
X201291485Y-193142914D01*
X201220057Y-193428628D01*
X201148628Y-193571485D01*
X201005771Y-193714342D01*
X200791485Y-193785771D01*
X200434342Y-193785771D01*
X202577200Y-193785771D02*
X202577200Y-193000057D01*
X202505771Y-192857200D01*
X202362914Y-192785771D01*
X202077200Y-192785771D01*
X201934342Y-192857200D01*
X202577200Y-193714342D02*
X202434342Y-193785771D01*
X202077200Y-193785771D01*
X201934342Y-193714342D01*
X201862914Y-193571485D01*
X201862914Y-193428628D01*
X201934342Y-193285771D01*
X202077200Y-193214342D01*
X202434342Y-193214342D01*
X202577200Y-193142914D01*
X203077200Y-192785771D02*
X203648628Y-192785771D01*
X203291485Y-192285771D02*
X203291485Y-193571485D01*
X203362914Y-193714342D01*
X203505771Y-193785771D01*
X203648628Y-193785771D01*
X204720057Y-193714342D02*
X204577200Y-193785771D01*
X204291485Y-193785771D01*
X204148628Y-193714342D01*
X204077200Y-193571485D01*
X204077200Y-193000057D01*
X204148628Y-192857200D01*
X204291485Y-192785771D01*
X204577200Y-192785771D01*
X204720057Y-192857200D01*
X204791485Y-193000057D01*
X204791485Y-193142914D01*
X204077200Y-193285771D01*
X205434342Y-193642914D02*
X205505771Y-193714342D01*
X205434342Y-193785771D01*
X205362914Y-193714342D01*
X205434342Y-193642914D01*
X205434342Y-193785771D01*
X205434342Y-192857200D02*
X205505771Y-192928628D01*
X205434342Y-193000057D01*
X205362914Y-192928628D01*
X205434342Y-192857200D01*
X205434342Y-193000057D01*
D10*
D11*
X177002200Y-194507200D02*
X285002200Y-194507200D01*
D10*
D11*
X178434342Y-196585771D02*
X178434342Y-195085771D01*
X179291485Y-196585771D02*
X178648628Y-195728628D01*
X179291485Y-195085771D02*
X178434342Y-195942914D01*
X179934342Y-196585771D02*
X179934342Y-195585771D01*
X179934342Y-195085771D02*
X179862914Y-195157200D01*
X179934342Y-195228628D01*
X180005771Y-195157200D01*
X179934342Y-195085771D01*
X179934342Y-195228628D01*
X181505771Y-196442914D02*
X181434342Y-196514342D01*
X181220057Y-196585771D01*
X181077200Y-196585771D01*
X180862914Y-196514342D01*
X180720057Y-196371485D01*
X180648628Y-196228628D01*
X180577200Y-195942914D01*
X180577200Y-195728628D01*
X180648628Y-195442914D01*
X180720057Y-195300057D01*
X180862914Y-195157200D01*
X181077200Y-195085771D01*
X181220057Y-195085771D01*
X181434342Y-195157200D01*
X181505771Y-195228628D01*
X182791485Y-196585771D02*
X182791485Y-195800057D01*
X182720057Y-195657200D01*
X182577200Y-195585771D01*
X182291485Y-195585771D01*
X182148628Y-195657200D01*
X182791485Y-196514342D02*
X182648628Y-196585771D01*
X182291485Y-196585771D01*
X182148628Y-196514342D01*
X182077200Y-196371485D01*
X182077200Y-196228628D01*
X182148628Y-196085771D01*
X182291485Y-196014342D01*
X182648628Y-196014342D01*
X182791485Y-195942914D01*
X184148628Y-196585771D02*
X184148628Y-195085771D01*
X184148628Y-196514342D02*
X184005771Y-196585771D01*
X183720057Y-196585771D01*
X183577200Y-196514342D01*
X183505771Y-196442914D01*
X183434342Y-196300057D01*
X183434342Y-195871485D01*
X183505771Y-195728628D01*
X183577200Y-195657200D01*
X183720057Y-195585771D01*
X184005771Y-195585771D01*
X184148628Y-195657200D01*
X186005771Y-195800057D02*
X186505771Y-195800057D01*
X186720057Y-196585771D02*
X186005771Y-196585771D01*
X186005771Y-195085771D01*
X186720057Y-195085771D01*
X187362914Y-196442914D02*
X187434342Y-196514342D01*
X187362914Y-196585771D01*
X187291485Y-196514342D01*
X187362914Y-196442914D01*
X187362914Y-196585771D01*
X188077200Y-196585771D02*
X188077200Y-195085771D01*
X188434342Y-195085771D01*
X188648628Y-195157200D01*
X188791485Y-195300057D01*
X188862914Y-195442914D01*
X188934342Y-195728628D01*
X188934342Y-195942914D01*
X188862914Y-196228628D01*
X188791485Y-196371485D01*
X188648628Y-196514342D01*
X188434342Y-196585771D01*
X188077200Y-196585771D01*
X189577200Y-196442914D02*
X189648628Y-196514342D01*
X189577200Y-196585771D01*
X189505771Y-196514342D01*
X189577200Y-196442914D01*
X189577200Y-196585771D01*
X190220057Y-196157200D02*
X190934342Y-196157200D01*
X190077200Y-196585771D02*
X190577200Y-195085771D01*
X191077200Y-196585771D01*
X191577200Y-196442914D02*
X191648628Y-196514342D01*
X191577200Y-196585771D01*
X191505771Y-196514342D01*
X191577200Y-196442914D01*
X191577200Y-196585771D01*
X194577200Y-196585771D02*
X194577200Y-195085771D01*
X194720057Y-196014342D02*
X195148628Y-196585771D01*
X195148628Y-195585771D02*
X194577200Y-196157200D01*
X195791485Y-196585771D02*
X195791485Y-195585771D01*
X195791485Y-195085771D02*
X195720057Y-195157200D01*
X195791485Y-195228628D01*
X195862914Y-195157200D01*
X195791485Y-195085771D01*
X195791485Y-195228628D01*
X197148628Y-196514342D02*
X197005771Y-196585771D01*
X196720057Y-196585771D01*
X196577200Y-196514342D01*
X196505771Y-196442914D01*
X196434342Y-196300057D01*
X196434342Y-195871485D01*
X196505771Y-195728628D01*
X196577200Y-195657200D01*
X196720057Y-195585771D01*
X197005771Y-195585771D01*
X197148628Y-195657200D01*
X198434342Y-196585771D02*
X198434342Y-195800057D01*
X198362914Y-195657200D01*
X198220057Y-195585771D01*
X197934342Y-195585771D01*
X197791485Y-195657200D01*
X198434342Y-196514342D02*
X198291485Y-196585771D01*
X197934342Y-196585771D01*
X197791485Y-196514342D01*
X197720057Y-196371485D01*
X197720057Y-196228628D01*
X197791485Y-196085771D01*
X197934342Y-196014342D01*
X198291485Y-196014342D01*
X198434342Y-195942914D01*
X199791485Y-196585771D02*
X199791485Y-195085771D01*
X199791485Y-196514342D02*
X199648628Y-196585771D01*
X199362914Y-196585771D01*
X199220057Y-196514342D01*
X199148628Y-196442914D01*
X199077200Y-196300057D01*
X199077200Y-195871485D01*
X199148628Y-195728628D01*
X199220057Y-195657200D01*
X199362914Y-195585771D01*
X199648628Y-195585771D01*
X199791485Y-195657200D01*
X202362914Y-195085771D02*
X201648628Y-195085771D01*
X201577200Y-195800057D01*
X201648628Y-195728628D01*
X201791485Y-195657200D01*
X202148628Y-195657200D01*
X202291485Y-195728628D01*
X202362914Y-195800057D01*
X202434342Y-195942914D01*
X202434342Y-196300057D01*
X202362914Y-196442914D01*
X202291485Y-196514342D01*
X202148628Y-196585771D01*
X201791485Y-196585771D01*
X201648628Y-196514342D01*
X201577200Y-196442914D01*
X203077200Y-196442914D02*
X203148628Y-196514342D01*
X203077200Y-196585771D01*
X203005771Y-196514342D01*
X203077200Y-196442914D01*
X203077200Y-196585771D01*
X204577200Y-196585771D02*
X203720057Y-196585771D01*
X204148628Y-196585771D02*
X204148628Y-195085771D01*
X204005771Y-195300057D01*
X203862914Y-195442914D01*
X203720057Y-195514342D01*
X205220057Y-196442914D02*
X205291485Y-196514342D01*
X205220057Y-196585771D01*
X205148628Y-196514342D01*
X205220057Y-196442914D01*
X205220057Y-196585771D01*
X206648628Y-195085771D02*
X205934342Y-195085771D01*
X205862914Y-195800057D01*
X205934342Y-195728628D01*
X206077200Y-195657200D01*
X206434342Y-195657200D01*
X206577200Y-195728628D01*
X206648628Y-195800057D01*
X206720057Y-195942914D01*
X206720057Y-196300057D01*
X206648628Y-196442914D01*
X206577200Y-196514342D01*
X206434342Y-196585771D01*
X206077200Y-196585771D01*
X205934342Y-196514342D01*
X205862914Y-196442914D01*
X207362914Y-196014342D02*
X208505771Y-196014342D01*
X207934342Y-196585771D02*
X207934342Y-195442914D01*
X209862914Y-196585771D02*
X209862914Y-195085771D01*
X209862914Y-196514342D02*
X209720057Y-196585771D01*
X209434342Y-196585771D01*
X209291485Y-196514342D01*
X209220057Y-196442914D01*
X209148628Y-196300057D01*
X209148628Y-195871485D01*
X209220057Y-195728628D01*
X209291485Y-195657200D01*
X209434342Y-195585771D01*
X209720057Y-195585771D01*
X209862914Y-195657200D01*
X210362914Y-195585771D02*
X210934342Y-195585771D01*
X210577200Y-196585771D02*
X210577200Y-195300057D01*
X210648628Y-195157200D01*
X210791485Y-195085771D01*
X210934342Y-195085771D01*
X211362914Y-196514342D02*
X211505771Y-196585771D01*
X211791485Y-196585771D01*
X211934342Y-196514342D01*
X212005771Y-196371485D01*
X212005771Y-196300057D01*
X211934342Y-196157200D01*
X211791485Y-196085771D01*
X211577200Y-196085771D01*
X211434342Y-196014342D01*
X211362914Y-195871485D01*
X211362914Y-195800057D01*
X211434342Y-195657200D01*
X211577200Y-195585771D01*
X211791485Y-195585771D01*
X211934342Y-195657200D01*
X213291485Y-195585771D02*
X213291485Y-196800057D01*
X213220057Y-196942914D01*
X213148628Y-197014342D01*
X213005771Y-197085771D01*
X212791485Y-197085771D01*
X212648628Y-197014342D01*
X213291485Y-196514342D02*
X213148628Y-196585771D01*
X212862914Y-196585771D01*
X212720057Y-196514342D01*
X212648628Y-196442914D01*
X212577200Y-196300057D01*
X212577200Y-195871485D01*
X212648628Y-195728628D01*
X212720057Y-195657200D01*
X212862914Y-195585771D01*
X213148628Y-195585771D01*
X213291485Y-195657200D01*
X214791485Y-196585771D02*
X213934342Y-196585771D01*
X214362914Y-196585771D02*
X214362914Y-195085771D01*
X214220057Y-195300057D01*
X214077200Y-195442914D01*
X213934342Y-195514342D01*
X215434342Y-196014342D02*
X216577200Y-196014342D01*
X217220057Y-195228628D02*
X217291485Y-195157200D01*
X217434342Y-195085771D01*
X217791485Y-195085771D01*
X217934342Y-195157200D01*
X218005771Y-195228628D01*
X218077200Y-195371485D01*
X218077200Y-195514342D01*
X218005771Y-195728628D01*
X217148628Y-196585771D01*
X218077200Y-196585771D01*
X218720057Y-196585771D02*
X218720057Y-195085771D01*
X218720057Y-195657200D02*
X218862914Y-195585771D01*
X219148628Y-195585771D01*
X219291485Y-195657200D01*
X219362914Y-195728628D01*
X219434342Y-195871485D01*
X219434342Y-196300057D01*
X219362914Y-196442914D01*
X219291485Y-196514342D01*
X219148628Y-196585771D01*
X218862914Y-196585771D01*
X218720057Y-196514342D01*
X220720057Y-195585771D02*
X220720057Y-196585771D01*
X220077200Y-195585771D02*
X220077200Y-196371485D01*
X220148628Y-196514342D01*
X220291485Y-196585771D01*
X220505771Y-196585771D01*
X220648628Y-196514342D01*
X220720057Y-196442914D01*
X221434342Y-196585771D02*
X221434342Y-195585771D01*
X221434342Y-195085771D02*
X221362914Y-195157200D01*
X221434342Y-195228628D01*
X221505771Y-195157200D01*
X221434342Y-195085771D01*
X221434342Y-195228628D01*
X222362914Y-196585771D02*
X222220057Y-196514342D01*
X222148628Y-196371485D01*
X222148628Y-195085771D01*
X223577200Y-196585771D02*
X223577200Y-195085771D01*
X223577200Y-196514342D02*
X223434342Y-196585771D01*
X223148628Y-196585771D01*
X223005771Y-196514342D01*
X222934342Y-196442914D01*
X222862914Y-196300057D01*
X222862914Y-195871485D01*
X222934342Y-195728628D01*
X223005771Y-195657200D01*
X223148628Y-195585771D01*
X223434342Y-195585771D01*
X223577200Y-195657200D01*
X224220057Y-195228628D02*
X224291485Y-195157200D01*
X224434342Y-195085771D01*
X224791485Y-195085771D01*
X224934342Y-195157200D01*
X225005771Y-195228628D01*
X225077200Y-195371485D01*
X225077200Y-195514342D01*
X225005771Y-195728628D01*
X224148628Y-196585771D01*
X225077200Y-196585771D01*
D10*
D11*
X177002200Y-191507200D02*
X285002200Y-191507200D01*
D10*
D12*
X264411485Y-193785771D02*
X263911485Y-193071485D01*
X263554342Y-193785771D02*
X263554342Y-192285771D01*
X264125771Y-192285771D01*
X264268628Y-192357200D01*
X264340057Y-192428628D01*
X264411485Y-192571485D01*
X264411485Y-192785771D01*
X264340057Y-192928628D01*
X264268628Y-193000057D01*
X264125771Y-193071485D01*
X263554342Y-193071485D01*
X265625771Y-193714342D02*
X265482914Y-193785771D01*
X265197200Y-193785771D01*
X265054342Y-193714342D01*
X264982914Y-193571485D01*
X264982914Y-193000057D01*
X265054342Y-192857200D01*
X265197200Y-192785771D01*
X265482914Y-192785771D01*
X265625771Y-192857200D01*
X265697200Y-193000057D01*
X265697200Y-193142914D01*
X264982914Y-193285771D01*
X266197200Y-192785771D02*
X266554342Y-193785771D01*
X266911485Y-192785771D01*
X267482914Y-193642914D02*
X267554342Y-193714342D01*
X267482914Y-193785771D01*
X267411485Y-193714342D01*
X267482914Y-193642914D01*
X267482914Y-193785771D01*
X267482914Y-192857200D02*
X267554342Y-192928628D01*
X267482914Y-193000057D01*
X267411485Y-192928628D01*
X267482914Y-192857200D01*
X267482914Y-193000057D01*
D10*
D11*
X178362914Y-193714342D02*
X178577200Y-193785771D01*
X178934342Y-193785771D01*
X179077200Y-193714342D01*
X179148628Y-193642914D01*
X179220057Y-193500057D01*
X179220057Y-193357200D01*
X179148628Y-193214342D01*
X179077200Y-193142914D01*
X178934342Y-193071485D01*
X178648628Y-193000057D01*
X178505771Y-192928628D01*
X178434342Y-192857200D01*
X178362914Y-192714342D01*
X178362914Y-192571485D01*
X178434342Y-192428628D01*
X178505771Y-192357200D01*
X178648628Y-192285771D01*
X179005771Y-192285771D01*
X179220057Y-192357200D01*
X179862914Y-193785771D02*
X179862914Y-192785771D01*
X179862914Y-192285771D02*
X179791485Y-192357200D01*
X179862914Y-192428628D01*
X179934342Y-192357200D01*
X179862914Y-192285771D01*
X179862914Y-192428628D01*
X180434342Y-192785771D02*
X181220057Y-192785771D01*
X180434342Y-193785771D01*
X181220057Y-193785771D01*
X182362914Y-193714342D02*
X182220057Y-193785771D01*
X181934342Y-193785771D01*
X181791485Y-193714342D01*
X181720057Y-193571485D01*
X181720057Y-193000057D01*
X181791485Y-192857200D01*
X181934342Y-192785771D01*
X182220057Y-192785771D01*
X182362914Y-192857200D01*
X182434342Y-193000057D01*
X182434342Y-193142914D01*
X181720057Y-193285771D01*
X183077200Y-193642914D02*
X183148628Y-193714342D01*
X183077200Y-193785771D01*
X183005771Y-193714342D01*
X183077200Y-193642914D01*
X183077200Y-193785771D01*
X183077200Y-192857200D02*
X183148628Y-192928628D01*
X183077200Y-193000057D01*
X183005771Y-192928628D01*
X183077200Y-192857200D01*
X183077200Y-193000057D01*
X184862914Y-193357200D02*
X185577200Y-193357200D01*
X184720057Y-193785771D02*
X185220057Y-192285771D01*
X185720057Y-193785771D01*
X186862914Y-192785771D02*
X186862914Y-193785771D01*
X186505771Y-192214342D02*
X186148628Y-193285771D01*
X187077200Y-193285771D01*
D10*
D11*
X263434342Y-196585771D02*
X263434342Y-195085771D01*
X264791485Y-196585771D02*
X264791485Y-195085771D01*
X264791485Y-196514342D02*
X264648628Y-196585771D01*
X264362914Y-196585771D01*
X264220057Y-196514342D01*
X264148628Y-196442914D01*
X264077200Y-196300057D01*
X264077200Y-195871485D01*
X264148628Y-195728628D01*
X264220057Y-195657200D01*
X264362914Y-195585771D01*
X264648628Y-195585771D01*
X264791485Y-195657200D01*
X265505771Y-196442914D02*
X265577200Y-196514342D01*
X265505771Y-196585771D01*
X265434342Y-196514342D01*
X265505771Y-196442914D01*
X265505771Y-196585771D01*
X265505771Y-195657200D02*
X265577200Y-195728628D01*
X265505771Y-195800057D01*
X265434342Y-195728628D01*
X265505771Y-195657200D01*
X265505771Y-195800057D01*
X268148628Y-196585771D02*
X267291485Y-196585771D01*
X267720057Y-196585771D02*
X267720057Y-195085771D01*
X267577200Y-195300057D01*
X267434342Y-195442914D01*
X267291485Y-195514342D01*
X269862914Y-195014342D02*
X268577200Y-196942914D01*
X271148628Y-196585771D02*
X270291485Y-196585771D01*
X270720057Y-196585771D02*
X270720057Y-195085771D01*
X270577200Y-195300057D01*
X270434342Y-195442914D01*
X270291485Y-195514342D01*
D10*
D11*
X177002200Y-187507200D02*
X285002200Y-187507200D01*
D10*
D13*
X178714580Y-188211961D02*
X179857438Y-188211961D01*
X179036009Y-190211961D02*
X179286009Y-188211961D01*
X180274104Y-190211961D02*
X180440771Y-188878628D01*
X180524104Y-188211961D02*
X180416961Y-188307200D01*
X180500295Y-188402438D01*
X180607438Y-188307200D01*
X180524104Y-188211961D01*
X180500295Y-188402438D01*
X181107438Y-188878628D02*
X181869342Y-188878628D01*
X181476485Y-188211961D02*
X181262200Y-189926247D01*
X181333628Y-190116723D01*
X181512200Y-190211961D01*
X181702676Y-190211961D01*
X182655057Y-190211961D02*
X182476485Y-190116723D01*
X182405057Y-189926247D01*
X182619342Y-188211961D01*
X184190771Y-190116723D02*
X183988390Y-190211961D01*
X183607438Y-190211961D01*
X183428866Y-190116723D01*
X183357438Y-189926247D01*
X183452676Y-189164342D01*
X183571723Y-188973866D01*
X183774104Y-188878628D01*
X184155057Y-188878628D01*
X184333628Y-188973866D01*
X184405057Y-189164342D01*
X184381247Y-189354819D01*
X183405057Y-189545295D01*
X185155057Y-190021485D02*
X185238390Y-190116723D01*
X185131247Y-190211961D01*
X185047914Y-190116723D01*
X185155057Y-190021485D01*
X185131247Y-190211961D01*
X185286009Y-188973866D02*
X185369342Y-189069104D01*
X185262200Y-189164342D01*
X185178866Y-189069104D01*
X185286009Y-188973866D01*
X185262200Y-189164342D01*
D10*
D11*
X178934342Y-185600057D02*
X178434342Y-185600057D01*
X178434342Y-186385771D02*
X178434342Y-184885771D01*
X179148628Y-184885771D01*
X179720057Y-186385771D02*
X179720057Y-185385771D01*
X179720057Y-184885771D02*
X179648628Y-184957200D01*
X179720057Y-185028628D01*
X179791485Y-184957200D01*
X179720057Y-184885771D01*
X179720057Y-185028628D01*
X180648628Y-186385771D02*
X180505771Y-186314342D01*
X180434342Y-186171485D01*
X180434342Y-184885771D01*
X181791485Y-186314342D02*
X181648628Y-186385771D01*
X181362914Y-186385771D01*
X181220057Y-186314342D01*
X181148628Y-186171485D01*
X181148628Y-185600057D01*
X181220057Y-185457200D01*
X181362914Y-185385771D01*
X181648628Y-185385771D01*
X181791485Y-185457200D01*
X181862914Y-185600057D01*
X181862914Y-185742914D01*
X181148628Y-185885771D01*
X182505771Y-186242914D02*
X182577200Y-186314342D01*
X182505771Y-186385771D01*
X182434342Y-186314342D01*
X182505771Y-186242914D01*
X182505771Y-186385771D01*
X182505771Y-185457200D02*
X182577200Y-185528628D01*
X182505771Y-185600057D01*
X182434342Y-185528628D01*
X182505771Y-185457200D01*
X182505771Y-185600057D01*
X184862914Y-185600057D02*
X185077200Y-185671485D01*
X185148628Y-185742914D01*
X185220057Y-185885771D01*
X185220057Y-186100057D01*
X185148628Y-186242914D01*
X185077200Y-186314342D01*
X184934342Y-186385771D01*
X184362914Y-186385771D01*
X184362914Y-184885771D01*
X184862914Y-184885771D01*
X185005771Y-184957200D01*
X185077200Y-185028628D01*
X185148628Y-185171485D01*
X185148628Y-185314342D01*
X185077200Y-185457200D01*
X185005771Y-185528628D01*
X184862914Y-185600057D01*
X184362914Y-185600057D01*
X186505771Y-186385771D02*
X186505771Y-185600057D01*
X186434342Y-185457200D01*
X186291485Y-185385771D01*
X186005771Y-185385771D01*
X185862914Y-185457200D01*
X186505771Y-186314342D02*
X186362914Y-186385771D01*
X186005771Y-186385771D01*
X185862914Y-186314342D01*
X185791485Y-186171485D01*
X185791485Y-186028628D01*
X185862914Y-185885771D01*
X186005771Y-185814342D01*
X186362914Y-185814342D01*
X186505771Y-185742914D01*
X187148628Y-186314342D02*
X187362914Y-186385771D01*
X187720057Y-186385771D01*
X187862914Y-186314342D01*
X187934342Y-186242914D01*
X188005771Y-186100057D01*
X188005771Y-185957200D01*
X187934342Y-185814342D01*
X187862914Y-185742914D01*
X187720057Y-185671485D01*
X187434342Y-185600057D01*
X187291485Y-185528628D01*
X187220057Y-185457200D01*
X187148628Y-185314342D01*
X187148628Y-185171485D01*
X187220057Y-185028628D01*
X187291485Y-184957200D01*
X187434342Y-184885771D01*
X187791485Y-184885771D01*
X188005771Y-184957200D01*
X189220057Y-186314342D02*
X189077200Y-186385771D01*
X188791485Y-186385771D01*
X188648628Y-186314342D01*
X188577200Y-186171485D01*
X188577200Y-185600057D01*
X188648628Y-185457200D01*
X188791485Y-185385771D01*
X189077200Y-185385771D01*
X189220057Y-185457200D01*
X189291485Y-185600057D01*
X189291485Y-185742914D01*
X188577200Y-185885771D01*
X189577200Y-186528628D02*
X190720057Y-186528628D01*
X191005771Y-186314342D02*
X191220057Y-186385771D01*
X191577200Y-186385771D01*
X191720057Y-186314342D01*
X191791485Y-186242914D01*
X191862914Y-186100057D01*
X191862914Y-185957200D01*
X191791485Y-185814342D01*
X191720057Y-185742914D01*
X191577200Y-185671485D01*
X191291485Y-185600057D01*
X191148628Y-185528628D01*
X191077200Y-185457200D01*
X191005771Y-185314342D01*
X191005771Y-185171485D01*
X191077200Y-185028628D01*
X191148628Y-184957200D01*
X191291485Y-184885771D01*
X191648628Y-184885771D01*
X191862914Y-184957200D01*
X192434342Y-185957200D02*
X193148628Y-185957200D01*
X192291485Y-186385771D02*
X192791485Y-184885771D01*
X193291485Y-186385771D01*
X193577200Y-184885771D02*
X194434342Y-184885771D01*
X194005771Y-186385771D02*
X194005771Y-184885771D01*
X194862914Y-185957200D02*
X195577200Y-185957200D01*
X194720057Y-186385771D02*
X195220057Y-184885771D01*
X195720057Y-186385771D01*
X195862914Y-186528628D02*
X197005771Y-186528628D01*
X197291485Y-185957200D02*
X198005771Y-185957200D01*
X197148628Y-186385771D02*
X197648628Y-184885771D01*
X198148628Y-186385771D01*
X199291485Y-186385771D02*
X199291485Y-184885771D01*
X199291485Y-186314342D02*
X199148628Y-186385771D01*
X198862914Y-186385771D01*
X198720057Y-186314342D01*
X198648628Y-186242914D01*
X198577200Y-186100057D01*
X198577200Y-185671485D01*
X198648628Y-185528628D01*
X198720057Y-185457200D01*
X198862914Y-185385771D01*
X199148628Y-185385771D01*
X199291485Y-185457200D01*
X200648628Y-186385771D02*
X200648628Y-185600057D01*
X200577200Y-185457200D01*
X200434342Y-185385771D01*
X200148628Y-185385771D01*
X200005771Y-185457200D01*
X200648628Y-186314342D02*
X200505771Y-186385771D01*
X200148628Y-186385771D01*
X200005771Y-186314342D01*
X199934342Y-186171485D01*
X199934342Y-186028628D01*
X200005771Y-185885771D01*
X200148628Y-185814342D01*
X200505771Y-185814342D01*
X200648628Y-185742914D01*
X201362914Y-185385771D02*
X201362914Y-186885771D01*
X201362914Y-185457200D02*
X201505771Y-185385771D01*
X201791485Y-185385771D01*
X201934342Y-185457200D01*
X202005771Y-185528628D01*
X202077200Y-185671485D01*
X202077200Y-186100057D01*
X202005771Y-186242914D01*
X201934342Y-186314342D01*
X201791485Y-186385771D01*
X201505771Y-186385771D01*
X201362914Y-186314342D01*
X202505771Y-185385771D02*
X203077200Y-185385771D01*
X202720057Y-184885771D02*
X202720057Y-186171485D01*
X202791485Y-186314342D01*
X202934342Y-186385771D01*
X203077200Y-186385771D01*
X204148628Y-186314342D02*
X204005771Y-186385771D01*
X203720057Y-186385771D01*
X203577200Y-186314342D01*
X203505771Y-186171485D01*
X203505771Y-185600057D01*
X203577200Y-185457200D01*
X203720057Y-185385771D01*
X204005771Y-185385771D01*
X204148628Y-185457200D01*
X204220057Y-185600057D01*
X204220057Y-185742914D01*
X203505771Y-185885771D01*
X204862914Y-186385771D02*
X204862914Y-185385771D01*
X204862914Y-185671485D02*
X204934342Y-185528628D01*
X205005771Y-185457200D01*
X205148628Y-185385771D01*
X205291485Y-185385771D01*
X205434342Y-186528628D02*
X206577200Y-186528628D01*
X207791485Y-186242914D02*
X207720057Y-186314342D01*
X207505771Y-186385771D01*
X207362914Y-186385771D01*
X207148628Y-186314342D01*
X207005771Y-186171485D01*
X206934342Y-186028628D01*
X206862914Y-185742914D01*
X206862914Y-185528628D01*
X206934342Y-185242914D01*
X207005771Y-185100057D01*
X207148628Y-184957200D01*
X207362914Y-184885771D01*
X207505771Y-184885771D01*
X207720057Y-184957200D01*
X207791485Y-185028628D01*
X209077200Y-186385771D02*
X209077200Y-185600057D01*
X209005771Y-185457200D01*
X208862914Y-185385771D01*
X208577200Y-185385771D01*
X208434342Y-185457200D01*
X209077200Y-186314342D02*
X208934342Y-186385771D01*
X208577200Y-186385771D01*
X208434342Y-186314342D01*
X208362914Y-186171485D01*
X208362914Y-186028628D01*
X208434342Y-185885771D01*
X208577200Y-185814342D01*
X208934342Y-185814342D01*
X209077200Y-185742914D01*
X209791485Y-186385771D02*
X209791485Y-185385771D01*
X209791485Y-185671485D02*
X209862914Y-185528628D01*
X209934342Y-185457200D01*
X210077200Y-185385771D01*
X210220057Y-185385771D01*
X210720057Y-186385771D02*
X210720057Y-185385771D01*
X210720057Y-185671485D02*
X210791485Y-185528628D01*
X210862914Y-185457200D01*
X211005771Y-185385771D01*
X211148628Y-185385771D01*
X211648628Y-186385771D02*
X211648628Y-185385771D01*
X211648628Y-184885771D02*
X211577200Y-184957200D01*
X211648628Y-185028628D01*
X211720057Y-184957200D01*
X211648628Y-184885771D01*
X211648628Y-185028628D01*
X213005771Y-186385771D02*
X213005771Y-185600057D01*
X212934342Y-185457200D01*
X212791485Y-185385771D01*
X212505771Y-185385771D01*
X212362914Y-185457200D01*
X213005771Y-186314342D02*
X212862914Y-186385771D01*
X212505771Y-186385771D01*
X212362914Y-186314342D01*
X212291485Y-186171485D01*
X212291485Y-186028628D01*
X212362914Y-185885771D01*
X212505771Y-185814342D01*
X212862914Y-185814342D01*
X213005771Y-185742914D01*
X214362914Y-185385771D02*
X214362914Y-186600057D01*
X214291485Y-186742914D01*
X214220057Y-186814342D01*
X214077200Y-186885771D01*
X213862914Y-186885771D01*
X213720057Y-186814342D01*
X214362914Y-186314342D02*
X214220057Y-186385771D01*
X213934342Y-186385771D01*
X213791485Y-186314342D01*
X213720057Y-186242914D01*
X213648628Y-186100057D01*
X213648628Y-185671485D01*
X213720057Y-185528628D01*
X213791485Y-185457200D01*
X213934342Y-185385771D01*
X214220057Y-185385771D01*
X214362914Y-185457200D01*
X215648628Y-186314342D02*
X215505771Y-186385771D01*
X215220057Y-186385771D01*
X215077200Y-186314342D01*
X215005771Y-186171485D01*
X215005771Y-185600057D01*
X215077200Y-185457200D01*
X215220057Y-185385771D01*
X215505771Y-185385771D01*
X215648628Y-185457200D01*
X215720057Y-185600057D01*
X215720057Y-185742914D01*
X215005771Y-185885771D01*
X216005771Y-186528628D02*
X217148628Y-186528628D01*
X217291485Y-184885771D02*
X217791485Y-186385771D01*
X218291485Y-184885771D01*
X219577200Y-186385771D02*
X218720057Y-186385771D01*
X219148628Y-186385771D02*
X219148628Y-184885771D01*
X219005771Y-185100057D01*
X218862914Y-185242914D01*
X218720057Y-185314342D01*
X219862914Y-186528628D02*
X221005771Y-186528628D01*
X222148628Y-186385771D02*
X221291485Y-186385771D01*
X221720057Y-186385771D02*
X221720057Y-184885771D01*
X221577200Y-185100057D01*
X221434342Y-185242914D01*
X221291485Y-185314342D01*
X222791485Y-186242914D02*
X222862914Y-186314342D01*
X222791485Y-186385771D01*
X222720057Y-186314342D01*
X222791485Y-186242914D01*
X222791485Y-186385771D01*
X223505771Y-186385771D02*
X223505771Y-184885771D01*
X223648628Y-185814342D02*
X224077200Y-186385771D01*
X224077200Y-185385771D02*
X223505771Y-185957200D01*
X224720057Y-186385771D02*
X224720057Y-185385771D01*
X224720057Y-184885771D02*
X224648628Y-184957200D01*
X224720057Y-185028628D01*
X224791485Y-184957200D01*
X224720057Y-184885771D01*
X224720057Y-185028628D01*
X226077200Y-186314342D02*
X225934342Y-186385771D01*
X225648628Y-186385771D01*
X225505771Y-186314342D01*
X225434342Y-186242914D01*
X225362914Y-186100057D01*
X225362914Y-185671485D01*
X225434342Y-185528628D01*
X225505771Y-185457200D01*
X225648628Y-185385771D01*
X225934342Y-185385771D01*
X226077200Y-185457200D01*
X227362914Y-186385771D02*
X227362914Y-185600057D01*
X227291485Y-185457200D01*
X227148628Y-185385771D01*
X226862914Y-185385771D01*
X226720057Y-185457200D01*
X227362914Y-186314342D02*
X227220057Y-186385771D01*
X226862914Y-186385771D01*
X226720057Y-186314342D01*
X226648628Y-186171485D01*
X226648628Y-186028628D01*
X226720057Y-185885771D01*
X226862914Y-185814342D01*
X227220057Y-185814342D01*
X227362914Y-185742914D01*
X228720057Y-186385771D02*
X228720057Y-184885771D01*
X228720057Y-186314342D02*
X228577200Y-186385771D01*
X228291485Y-186385771D01*
X228148628Y-186314342D01*
X228077200Y-186242914D01*
X228005771Y-186100057D01*
X228005771Y-185671485D01*
X228077200Y-185528628D01*
X228148628Y-185457200D01*
X228291485Y-185385771D01*
X228577200Y-185385771D01*
X228720057Y-185457200D01*
X229077200Y-186528628D02*
X230220057Y-186528628D01*
X230577200Y-185385771D02*
X230577200Y-186885771D01*
X230577200Y-185457200D02*
X230720057Y-185385771D01*
X231005771Y-185385771D01*
X231148628Y-185457200D01*
X231220057Y-185528628D01*
X231291485Y-185671485D01*
X231291485Y-186100057D01*
X231220057Y-186242914D01*
X231148628Y-186314342D01*
X231005771Y-186385771D01*
X230720057Y-186385771D01*
X230577200Y-186314342D01*
X232577200Y-186314342D02*
X232434342Y-186385771D01*
X232148628Y-186385771D01*
X232005771Y-186314342D01*
X231934342Y-186242914D01*
X231862914Y-186100057D01*
X231862914Y-185671485D01*
X231934342Y-185528628D01*
X232005771Y-185457200D01*
X232148628Y-185385771D01*
X232434342Y-185385771D01*
X232577200Y-185457200D01*
X233220057Y-186385771D02*
X233220057Y-184885771D01*
X233220057Y-185457200D02*
X233362914Y-185385771D01*
X233648628Y-185385771D01*
X233791485Y-185457200D01*
X233862914Y-185528628D01*
X233934342Y-185671485D01*
X233934342Y-186100057D01*
X233862914Y-186242914D01*
X233791485Y-186314342D01*
X233648628Y-186385771D01*
X233362914Y-186385771D01*
X233220057Y-186314342D01*
D10*
D11*
X177002200Y-181507200D02*
X285002200Y-181507200D01*
D10*
D11*
X178362914Y-183614342D02*
X178577200Y-183685771D01*
X178934342Y-183685771D01*
X179077200Y-183614342D01*
X179148628Y-183542914D01*
X179220057Y-183400057D01*
X179220057Y-183257200D01*
X179148628Y-183114342D01*
X179077200Y-183042914D01*
X178934342Y-182971485D01*
X178648628Y-182900057D01*
X178505771Y-182828628D01*
X178434342Y-182757200D01*
X178362914Y-182614342D01*
X178362914Y-182471485D01*
X178434342Y-182328628D01*
X178505771Y-182257200D01*
X178648628Y-182185771D01*
X179005771Y-182185771D01*
X179220057Y-182257200D01*
X179862914Y-183685771D02*
X179862914Y-182185771D01*
X180505771Y-183685771D02*
X180505771Y-182900057D01*
X180434342Y-182757200D01*
X180291485Y-182685771D01*
X180077200Y-182685771D01*
X179934342Y-182757200D01*
X179862914Y-182828628D01*
X181791485Y-183614342D02*
X181648628Y-183685771D01*
X181362914Y-183685771D01*
X181220057Y-183614342D01*
X181148628Y-183471485D01*
X181148628Y-182900057D01*
X181220057Y-182757200D01*
X181362914Y-182685771D01*
X181648628Y-182685771D01*
X181791485Y-182757200D01*
X181862914Y-182900057D01*
X181862914Y-183042914D01*
X181148628Y-183185771D01*
X183077200Y-183614342D02*
X182934342Y-183685771D01*
X182648628Y-183685771D01*
X182505771Y-183614342D01*
X182434342Y-183471485D01*
X182434342Y-182900057D01*
X182505771Y-182757200D01*
X182648628Y-182685771D01*
X182934342Y-182685771D01*
X183077200Y-182757200D01*
X183148628Y-182900057D01*
X183148628Y-183042914D01*
X182434342Y-183185771D01*
X183577200Y-182685771D02*
X184148628Y-182685771D01*
X183791485Y-182185771D02*
X183791485Y-183471485D01*
X183862914Y-183614342D01*
X184005771Y-183685771D01*
X184148628Y-183685771D01*
X184648628Y-183542914D02*
X184720057Y-183614342D01*
X184648628Y-183685771D01*
X184577200Y-183614342D01*
X184648628Y-183542914D01*
X184648628Y-183685771D01*
X184648628Y-182757200D02*
X184720057Y-182828628D01*
X184648628Y-182900057D01*
X184577200Y-182828628D01*
X184648628Y-182757200D01*
X184648628Y-182900057D01*
D10*
D11*
X197002200Y-191507200D02*
X197002200Y-194507200D01*
D10*
D11*
X261002200Y-191507200D02*
X261002200Y-198007200D01*
D10*
G36*
X148399890Y-65294017D02*
G01*
X148518364Y-65343091D01*
X148624988Y-65414335D01*
X148715665Y-65505012D01*
X148786910Y-65611638D01*
X148794516Y-65630000D01*
X148806067Y-65651611D01*
X148821613Y-65670553D01*
X148840555Y-65686098D01*
X148862165Y-65697649D01*
X148885614Y-65704762D01*
X148910000Y-65707164D01*
X148934387Y-65704762D01*
X148957835Y-65697649D01*
X148979446Y-65686098D01*
X148998388Y-65670552D01*
X149013933Y-65651610D01*
X149025484Y-65630000D01*
X149033090Y-65611638D01*
X149104335Y-65505012D01*
X149195012Y-65414335D01*
X149301636Y-65343091D01*
X149420110Y-65294017D01*
X149545881Y-65269000D01*
X149674119Y-65269000D01*
X149799890Y-65294017D01*
X149918364Y-65343091D01*
X150024988Y-65414335D01*
X150115665Y-65505012D01*
X150186910Y-65611638D01*
X150194516Y-65630000D01*
X150206067Y-65651611D01*
X150221613Y-65670553D01*
X150240555Y-65686098D01*
X150262165Y-65697649D01*
X150285614Y-65704762D01*
X150310000Y-65707164D01*
X150334387Y-65704762D01*
X150357835Y-65697649D01*
X150379446Y-65686098D01*
X150398388Y-65670552D01*
X150413933Y-65651610D01*
X150425484Y-65630000D01*
X150433090Y-65611638D01*
X150504335Y-65505012D01*
X150595012Y-65414335D01*
X150701636Y-65343091D01*
X150820110Y-65294017D01*
X150945881Y-65269000D01*
X151074119Y-65269000D01*
X151199890Y-65294017D01*
X151318364Y-65343091D01*
X151424988Y-65414335D01*
X151515665Y-65505012D01*
X151586910Y-65611638D01*
X151594516Y-65630000D01*
X151606067Y-65651611D01*
X151621613Y-65670553D01*
X151640555Y-65686098D01*
X151662165Y-65697649D01*
X151685614Y-65704762D01*
X151710000Y-65707164D01*
X151734387Y-65704762D01*
X151757835Y-65697649D01*
X151779446Y-65686098D01*
X151798388Y-65670552D01*
X151813933Y-65651610D01*
X151825484Y-65630000D01*
X151833090Y-65611638D01*
X151904335Y-65505012D01*
X151995012Y-65414335D01*
X152101636Y-65343091D01*
X152220110Y-65294017D01*
X152345881Y-65269000D01*
X152474119Y-65269000D01*
X152599890Y-65294017D01*
X152718364Y-65343091D01*
X152824988Y-65414335D01*
X152915665Y-65505012D01*
X152986910Y-65611638D01*
X152994516Y-65630000D01*
X153006067Y-65651611D01*
X153021613Y-65670553D01*
X153040555Y-65686098D01*
X153062165Y-65697649D01*
X153085614Y-65704762D01*
X153110000Y-65707164D01*
X153134387Y-65704762D01*
X153157835Y-65697649D01*
X153179446Y-65686098D01*
X153198388Y-65670552D01*
X153213933Y-65651610D01*
X153225484Y-65630000D01*
X153233090Y-65611638D01*
X153304335Y-65505012D01*
X153395012Y-65414335D01*
X153501636Y-65343091D01*
X153620110Y-65294017D01*
X153745881Y-65269000D01*
X153874119Y-65269000D01*
X153999890Y-65294017D01*
X154118364Y-65343091D01*
X154224988Y-65414335D01*
X154315665Y-65505012D01*
X154386910Y-65611638D01*
X154394516Y-65630000D01*
X154406067Y-65651611D01*
X154421613Y-65670553D01*
X154440555Y-65686098D01*
X154462165Y-65697649D01*
X154485614Y-65704762D01*
X154510000Y-65707164D01*
X154534387Y-65704762D01*
X154557835Y-65697649D01*
X154579446Y-65686098D01*
X154598388Y-65670552D01*
X154613933Y-65651610D01*
X154625484Y-65630000D01*
X154633090Y-65611638D01*
X154704335Y-65505012D01*
X154795012Y-65414335D01*
X154901636Y-65343091D01*
X155020110Y-65294017D01*
X155145881Y-65269000D01*
X155274119Y-65269000D01*
X155399890Y-65294017D01*
X155518364Y-65343091D01*
X155624988Y-65414335D01*
X155715665Y-65505012D01*
X155786910Y-65611638D01*
X155794516Y-65630000D01*
X155806067Y-65651611D01*
X155821613Y-65670553D01*
X155840555Y-65686098D01*
X155862165Y-65697649D01*
X155885614Y-65704762D01*
X155910000Y-65707164D01*
X155934387Y-65704762D01*
X155957835Y-65697649D01*
X155979446Y-65686098D01*
X155998388Y-65670552D01*
X156013933Y-65651610D01*
X156025484Y-65630000D01*
X156033090Y-65611638D01*
X156104335Y-65505012D01*
X156195012Y-65414335D01*
X156301636Y-65343091D01*
X156420110Y-65294017D01*
X156545881Y-65269000D01*
X156674119Y-65269000D01*
X156799890Y-65294017D01*
X156918364Y-65343091D01*
X157024988Y-65414335D01*
X157115665Y-65505012D01*
X157186910Y-65611638D01*
X157235983Y-65730110D01*
X157261000Y-65855881D01*
X157261000Y-65984119D01*
X157235983Y-66109890D01*
X157211314Y-66169447D01*
X157186909Y-66228364D01*
X157115665Y-66334988D01*
X157024988Y-66425665D01*
X156918364Y-66496909D01*
X156918363Y-66496910D01*
X156918362Y-66496910D01*
X156799890Y-66545983D01*
X156674119Y-66571000D01*
X156545881Y-66571000D01*
X156420110Y-66545983D01*
X156301638Y-66496910D01*
X156301637Y-66496910D01*
X156301636Y-66496909D01*
X156195012Y-66425665D01*
X156104335Y-66334988D01*
X156033091Y-66228364D01*
X156025484Y-66210000D01*
X156013933Y-66188389D01*
X155998387Y-66169447D01*
X155979445Y-66153902D01*
X155957835Y-66142351D01*
X155934386Y-66135238D01*
X155910000Y-66132836D01*
X155885613Y-66135238D01*
X155862165Y-66142351D01*
X155840554Y-66153902D01*
X155821612Y-66169448D01*
X155806067Y-66188390D01*
X155794516Y-66210000D01*
X155786909Y-66228364D01*
X155715665Y-66334988D01*
X155624988Y-66425665D01*
X155518364Y-66496909D01*
X155518363Y-66496910D01*
X155518362Y-66496910D01*
X155399890Y-66545983D01*
X155274119Y-66571000D01*
X155145881Y-66571000D01*
X155020110Y-66545983D01*
X154901638Y-66496910D01*
X154901637Y-66496910D01*
X154901636Y-66496909D01*
X154795012Y-66425665D01*
X154704335Y-66334988D01*
X154633091Y-66228364D01*
X154625484Y-66210000D01*
X154613933Y-66188389D01*
X154598387Y-66169447D01*
X154579445Y-66153902D01*
X154557835Y-66142351D01*
X154534386Y-66135238D01*
X154510000Y-66132836D01*
X154485613Y-66135238D01*
X154462165Y-66142351D01*
X154440554Y-66153902D01*
X154421612Y-66169448D01*
X154406067Y-66188390D01*
X154394516Y-66210000D01*
X154386909Y-66228364D01*
X154315665Y-66334988D01*
X154224988Y-66425665D01*
X154118364Y-66496909D01*
X154118363Y-66496910D01*
X154118362Y-66496910D01*
X153999890Y-66545983D01*
X153874119Y-66571000D01*
X153745881Y-66571000D01*
X153620110Y-66545983D01*
X153501638Y-66496910D01*
X153501637Y-66496910D01*
X153501636Y-66496909D01*
X153395012Y-66425665D01*
X153304335Y-66334988D01*
X153233091Y-66228364D01*
X153225484Y-66210000D01*
X153213933Y-66188389D01*
X153198387Y-66169447D01*
X153179445Y-66153902D01*
X153157835Y-66142351D01*
X153134386Y-66135238D01*
X153110000Y-66132836D01*
X153085613Y-66135238D01*
X153062165Y-66142351D01*
X153040554Y-66153902D01*
X153021612Y-66169448D01*
X153006067Y-66188390D01*
X152994516Y-66210000D01*
X152986909Y-66228364D01*
X152915665Y-66334988D01*
X152824988Y-66425665D01*
X152718364Y-66496909D01*
X152718363Y-66496910D01*
X152718362Y-66496910D01*
X152599890Y-66545983D01*
X152474119Y-66571000D01*
X152345881Y-66571000D01*
X152220110Y-66545983D01*
X152101638Y-66496910D01*
X152101637Y-66496910D01*
X152101636Y-66496909D01*
X151995012Y-66425665D01*
X151904335Y-66334988D01*
X151833091Y-66228364D01*
X151825484Y-66210000D01*
X151813933Y-66188389D01*
X151798387Y-66169447D01*
X151779445Y-66153902D01*
X151757835Y-66142351D01*
X151734386Y-66135238D01*
X151710000Y-66132836D01*
X151685613Y-66135238D01*
X151662165Y-66142351D01*
X151640554Y-66153902D01*
X151621612Y-66169448D01*
X151606067Y-66188390D01*
X151594516Y-66210000D01*
X151586909Y-66228364D01*
X151515665Y-66334988D01*
X151424988Y-66425665D01*
X151318364Y-66496909D01*
X151318363Y-66496910D01*
X151318362Y-66496910D01*
X151199890Y-66545983D01*
X151074119Y-66571000D01*
X150945881Y-66571000D01*
X150820110Y-66545983D01*
X150701638Y-66496910D01*
X150701637Y-66496910D01*
X150701636Y-66496909D01*
X150595012Y-66425665D01*
X150504335Y-66334988D01*
X150433091Y-66228364D01*
X150425484Y-66210000D01*
X150413933Y-66188389D01*
X150398387Y-66169447D01*
X150379445Y-66153902D01*
X150357835Y-66142351D01*
X150334386Y-66135238D01*
X150310000Y-66132836D01*
X150285613Y-66135238D01*
X150262165Y-66142351D01*
X150240554Y-66153902D01*
X150221612Y-66169448D01*
X150206067Y-66188390D01*
X150194516Y-66210000D01*
X150186909Y-66228364D01*
X150115665Y-66334988D01*
X150024988Y-66425665D01*
X149918364Y-66496909D01*
X149918363Y-66496910D01*
X149918362Y-66496910D01*
X149799890Y-66545983D01*
X149674119Y-66571000D01*
X149545881Y-66571000D01*
X149420110Y-66545983D01*
X149301638Y-66496910D01*
X149301637Y-66496910D01*
X149301636Y-66496909D01*
X149195012Y-66425665D01*
X149104335Y-66334988D01*
X149033091Y-66228364D01*
X149025484Y-66210000D01*
X149013933Y-66188389D01*
X148998387Y-66169447D01*
X148979445Y-66153902D01*
X148957835Y-66142351D01*
X148934386Y-66135238D01*
X148910000Y-66132836D01*
X148885613Y-66135238D01*
X148862165Y-66142351D01*
X148840554Y-66153902D01*
X148821612Y-66169448D01*
X148806067Y-66188390D01*
X148794516Y-66210000D01*
X148786909Y-66228364D01*
X148715665Y-66334988D01*
X148624988Y-66425665D01*
X148518364Y-66496909D01*
X148518363Y-66496910D01*
X148518362Y-66496910D01*
X148399890Y-66545983D01*
X148274119Y-66571000D01*
X148145881Y-66571000D01*
X148020110Y-66545983D01*
X147901638Y-66496910D01*
X147901637Y-66496910D01*
X147901636Y-66496909D01*
X147795012Y-66425665D01*
X147704335Y-66334988D01*
X147633091Y-66228364D01*
X147608687Y-66169447D01*
X147584017Y-66109890D01*
X147559000Y-65984119D01*
X147559000Y-65855881D01*
X147584017Y-65730110D01*
X147633090Y-65611638D01*
X147704335Y-65505012D01*
X147795012Y-65414335D01*
X147901636Y-65343091D01*
X148020110Y-65294017D01*
X148145881Y-65269000D01*
X148274119Y-65269000D01*
X148399890Y-65294017D01*
G37*
G36*
X152648228Y-61411703D02*
G01*
X152803100Y-61475853D01*
X152942481Y-61568985D01*
X153061015Y-61687519D01*
X153154147Y-61826900D01*
X153218297Y-61981772D01*
X153251000Y-62146184D01*
X153251000Y-62313816D01*
X153218297Y-62478228D01*
X153154147Y-62633100D01*
X153061015Y-62772481D01*
X152942481Y-62891015D01*
X152803100Y-62984147D01*
X152648228Y-63048297D01*
X152483816Y-63081000D01*
X152316184Y-63081000D01*
X152151772Y-63048297D01*
X151996900Y-62984147D01*
X151857519Y-62891015D01*
X151738985Y-62772481D01*
X151645853Y-62633100D01*
X151581703Y-62478228D01*
X151549000Y-62313816D01*
X151549000Y-62146184D01*
X151581703Y-61981772D01*
X151645853Y-61826900D01*
X151738985Y-61687519D01*
X151857519Y-61568985D01*
X151996900Y-61475853D01*
X152151772Y-61411703D01*
X152316184Y-61379000D01*
X152483816Y-61379000D01*
X152648228Y-61411703D01*
G37*
G36*
X160268228Y-61411703D02*
G01*
X160423100Y-61475853D01*
X160562481Y-61568985D01*
X160681015Y-61687519D01*
X160774147Y-61826900D01*
X160838297Y-61981772D01*
X160871000Y-62146184D01*
X160871000Y-62313816D01*
X160838297Y-62478228D01*
X160774147Y-62633100D01*
X160681015Y-62772481D01*
X160562481Y-62891015D01*
X160423100Y-62984147D01*
X160268228Y-63048297D01*
X160103816Y-63081000D01*
X159936184Y-63081000D01*
X159771772Y-63048297D01*
X159616900Y-62984147D01*
X159477519Y-62891015D01*
X159358985Y-62772481D01*
X159265853Y-62633100D01*
X159201703Y-62478228D01*
X159169000Y-62313816D01*
X159169000Y-62146184D01*
X159201703Y-61981772D01*
X159265853Y-61826900D01*
X159358985Y-61687519D01*
X159477519Y-61568985D01*
X159616900Y-61475853D01*
X159771772Y-61411703D01*
X159936184Y-61379000D01*
X160103816Y-61379000D01*
X160268228Y-61411703D01*
G37*
G36*
X162808228Y-61411703D02*
G01*
X162963100Y-61475853D01*
X163102481Y-61568985D01*
X163221015Y-61687519D01*
X163314147Y-61826900D01*
X163378297Y-61981772D01*
X163411000Y-62146184D01*
X163411000Y-62313816D01*
X163378297Y-62478228D01*
X163314147Y-62633100D01*
X163221015Y-62772481D01*
X163102481Y-62891015D01*
X162963100Y-62984147D01*
X162808228Y-63048297D01*
X162643816Y-63081000D01*
X162476184Y-63081000D01*
X162311772Y-63048297D01*
X162156900Y-62984147D01*
X162017519Y-62891015D01*
X161898985Y-62772481D01*
X161805853Y-62633100D01*
X161741703Y-62478228D01*
X161709000Y-62313816D01*
X161709000Y-62146184D01*
X161741703Y-61981772D01*
X161805853Y-61826900D01*
X161898985Y-61687519D01*
X162017519Y-61568985D01*
X162156900Y-61475853D01*
X162311772Y-61411703D01*
X162476184Y-61379000D01*
X162643816Y-61379000D01*
X162808228Y-61411703D01*
G37*
G36*
X157728228Y-61411703D02*
G01*
X157883100Y-61475853D01*
X158022481Y-61568985D01*
X158141015Y-61687519D01*
X158234147Y-61826900D01*
X158298297Y-61981772D01*
X158331000Y-62146184D01*
X158331000Y-62313816D01*
X158298297Y-62478228D01*
X158234147Y-62633100D01*
X158141015Y-62772481D01*
X158022481Y-62891015D01*
X157883100Y-62984147D01*
X157728228Y-63048297D01*
X157563816Y-63081000D01*
X157396184Y-63081000D01*
X157231772Y-63048297D01*
X157076900Y-62984147D01*
X156937519Y-62891015D01*
X156818985Y-62772481D01*
X156725853Y-62633100D01*
X156661703Y-62478228D01*
X156629000Y-62313816D01*
X156629000Y-62146184D01*
X156661703Y-61981772D01*
X156725853Y-61826900D01*
X156818985Y-61687519D01*
X156937519Y-61568985D01*
X157076900Y-61475853D01*
X157231772Y-61411703D01*
X157396184Y-61379000D01*
X157563816Y-61379000D01*
X157728228Y-61411703D01*
G37*
G36*
X155188228Y-61411703D02*
G01*
X155343100Y-61475853D01*
X155482481Y-61568985D01*
X155601015Y-61687519D01*
X155694147Y-61826900D01*
X155758297Y-61981772D01*
X155791000Y-62146184D01*
X155791000Y-62313816D01*
X155758297Y-62478228D01*
X155694147Y-62633100D01*
X155601015Y-62772481D01*
X155482481Y-62891015D01*
X155343100Y-62984147D01*
X155188228Y-63048297D01*
X155023816Y-63081000D01*
X154856184Y-63081000D01*
X154691772Y-63048297D01*
X154536900Y-62984147D01*
X154397519Y-62891015D01*
X154278985Y-62772481D01*
X154185853Y-62633100D01*
X154121703Y-62478228D01*
X154089000Y-62313816D01*
X154089000Y-62146184D01*
X154121703Y-61981772D01*
X154185853Y-61826900D01*
X154278985Y-61687519D01*
X154397519Y-61568985D01*
X154536900Y-61475853D01*
X154691772Y-61411703D01*
X154856184Y-61379000D01*
X155023816Y-61379000D01*
X155188228Y-61411703D01*
G37*
G36*
X150108228Y-61411703D02*
G01*
X150263100Y-61475853D01*
X150402481Y-61568985D01*
X150521015Y-61687519D01*
X150614147Y-61826900D01*
X150678297Y-61981772D01*
X150711000Y-62146184D01*
X150711000Y-62313816D01*
X150678297Y-62478228D01*
X150614147Y-62633100D01*
X150521015Y-62772481D01*
X150402481Y-62891015D01*
X150263100Y-62984147D01*
X150108228Y-63048297D01*
X149943816Y-63081000D01*
X149776184Y-63081000D01*
X149611772Y-63048297D01*
X149456900Y-62984147D01*
X149317519Y-62891015D01*
X149198985Y-62772481D01*
X149105853Y-62633100D01*
X149041703Y-62478228D01*
X149009000Y-62313816D01*
X149009000Y-62146184D01*
X149041703Y-61981772D01*
X149105853Y-61826900D01*
X149198985Y-61687519D01*
X149317519Y-61568985D01*
X149456900Y-61475853D01*
X149611772Y-61411703D01*
X149776184Y-61379000D01*
X149943816Y-61379000D01*
X150108228Y-61411703D01*
G37*
G36*
X147568228Y-61411703D02*
G01*
X147723100Y-61475853D01*
X147862481Y-61568985D01*
X147981015Y-61687519D01*
X148074147Y-61826900D01*
X148138297Y-61981772D01*
X148171000Y-62146184D01*
X148171000Y-62313816D01*
X148138297Y-62478228D01*
X148074147Y-62633100D01*
X147981015Y-62772481D01*
X147862481Y-62891015D01*
X147723100Y-62984147D01*
X147568228Y-63048297D01*
X147403816Y-63081000D01*
X147236184Y-63081000D01*
X147071772Y-63048297D01*
X146916900Y-62984147D01*
X146777519Y-62891015D01*
X146658985Y-62772481D01*
X146565853Y-62633100D01*
X146501703Y-62478228D01*
X146469000Y-62313816D01*
X146469000Y-62146184D01*
X146501703Y-61981772D01*
X146565853Y-61826900D01*
X146658985Y-61687519D01*
X146777519Y-61568985D01*
X146916900Y-61475853D01*
X147071772Y-61411703D01*
X147236184Y-61379000D01*
X147403816Y-61379000D01*
X147568228Y-61411703D01*
G37*
G36*
X145028228Y-61411703D02*
G01*
X145183100Y-61475853D01*
X145322481Y-61568985D01*
X145441015Y-61687519D01*
X145534147Y-61826900D01*
X145598297Y-61981772D01*
X145631000Y-62146184D01*
X145631000Y-62313816D01*
X145598297Y-62478228D01*
X145534147Y-62633100D01*
X145441015Y-62772481D01*
X145322481Y-62891015D01*
X145183100Y-62984147D01*
X145028228Y-63048297D01*
X144863816Y-63081000D01*
X144696184Y-63081000D01*
X144531772Y-63048297D01*
X144376900Y-62984147D01*
X144237519Y-62891015D01*
X144118985Y-62772481D01*
X144025853Y-62633100D01*
X143961703Y-62478228D01*
X143929000Y-62313816D01*
X143929000Y-62146184D01*
X143961703Y-61981772D01*
X144025853Y-61826900D01*
X144118985Y-61687519D01*
X144237519Y-61568985D01*
X144376900Y-61475853D01*
X144531772Y-61411703D01*
X144696184Y-61379000D01*
X144863816Y-61379000D01*
X145028228Y-61411703D01*
G37*
G36*
X163411000Y-60541000D02*
G01*
X161709000Y-60541000D01*
X161709000Y-58839000D01*
X163411000Y-58839000D01*
X163411000Y-60541000D01*
G37*
G36*
X145028228Y-58871703D02*
G01*
X145183100Y-58935853D01*
X145322481Y-59028985D01*
X145441015Y-59147519D01*
X145534147Y-59286900D01*
X145598297Y-59441772D01*
X145631000Y-59606184D01*
X145631000Y-59773816D01*
X145598297Y-59938228D01*
X145534147Y-60093100D01*
X145441015Y-60232481D01*
X145322481Y-60351015D01*
X145183100Y-60444147D01*
X145028228Y-60508297D01*
X144863816Y-60541000D01*
X144696184Y-60541000D01*
X144531772Y-60508297D01*
X144376900Y-60444147D01*
X144237519Y-60351015D01*
X144118985Y-60232481D01*
X144025853Y-60093100D01*
X143961703Y-59938228D01*
X143929000Y-59773816D01*
X143929000Y-59606184D01*
X143961703Y-59441772D01*
X144025853Y-59286900D01*
X144118985Y-59147519D01*
X144237519Y-59028985D01*
X144376900Y-58935853D01*
X144531772Y-58871703D01*
X144696184Y-58839000D01*
X144863816Y-58839000D01*
X145028228Y-58871703D01*
G37*
G36*
X147568228Y-58871703D02*
G01*
X147723100Y-58935853D01*
X147862481Y-59028985D01*
X147981015Y-59147519D01*
X148074147Y-59286900D01*
X148138297Y-59441772D01*
X148171000Y-59606184D01*
X148171000Y-59773816D01*
X148138297Y-59938228D01*
X148074147Y-60093100D01*
X147981015Y-60232481D01*
X147862481Y-60351015D01*
X147723100Y-60444147D01*
X147568228Y-60508297D01*
X147403816Y-60541000D01*
X147236184Y-60541000D01*
X147071772Y-60508297D01*
X146916900Y-60444147D01*
X146777519Y-60351015D01*
X146658985Y-60232481D01*
X146565853Y-60093100D01*
X146501703Y-59938228D01*
X146469000Y-59773816D01*
X146469000Y-59606184D01*
X146501703Y-59441772D01*
X146565853Y-59286900D01*
X146658985Y-59147519D01*
X146777519Y-59028985D01*
X146916900Y-58935853D01*
X147071772Y-58871703D01*
X147236184Y-58839000D01*
X147403816Y-58839000D01*
X147568228Y-58871703D01*
G37*
G36*
X155188228Y-58871703D02*
G01*
X155343100Y-58935853D01*
X155482481Y-59028985D01*
X155601015Y-59147519D01*
X155694147Y-59286900D01*
X155758297Y-59441772D01*
X155791000Y-59606184D01*
X155791000Y-59773816D01*
X155758297Y-59938228D01*
X155694147Y-60093100D01*
X155601015Y-60232481D01*
X155482481Y-60351015D01*
X155343100Y-60444147D01*
X155188228Y-60508297D01*
X155023816Y-60541000D01*
X154856184Y-60541000D01*
X154691772Y-60508297D01*
X154536900Y-60444147D01*
X154397519Y-60351015D01*
X154278985Y-60232481D01*
X154185853Y-60093100D01*
X154121703Y-59938228D01*
X154089000Y-59773816D01*
X154089000Y-59606184D01*
X154121703Y-59441772D01*
X154185853Y-59286900D01*
X154278985Y-59147519D01*
X154397519Y-59028985D01*
X154536900Y-58935853D01*
X154691772Y-58871703D01*
X154856184Y-58839000D01*
X155023816Y-58839000D01*
X155188228Y-58871703D01*
G37*
G36*
X152648228Y-58871703D02*
G01*
X152803100Y-58935853D01*
X152942481Y-59028985D01*
X153061015Y-59147519D01*
X153154147Y-59286900D01*
X153218297Y-59441772D01*
X153251000Y-59606184D01*
X153251000Y-59773816D01*
X153218297Y-59938228D01*
X153154147Y-60093100D01*
X153061015Y-60232481D01*
X152942481Y-60351015D01*
X152803100Y-60444147D01*
X152648228Y-60508297D01*
X152483816Y-60541000D01*
X152316184Y-60541000D01*
X152151772Y-60508297D01*
X151996900Y-60444147D01*
X151857519Y-60351015D01*
X151738985Y-60232481D01*
X151645853Y-60093100D01*
X151581703Y-59938228D01*
X151549000Y-59773816D01*
X151549000Y-59606184D01*
X151581703Y-59441772D01*
X151645853Y-59286900D01*
X151738985Y-59147519D01*
X151857519Y-59028985D01*
X151996900Y-58935853D01*
X152151772Y-58871703D01*
X152316184Y-58839000D01*
X152483816Y-58839000D01*
X152648228Y-58871703D01*
G37*
G36*
X160268228Y-58871703D02*
G01*
X160423100Y-58935853D01*
X160562481Y-59028985D01*
X160681015Y-59147519D01*
X160774147Y-59286900D01*
X160838297Y-59441772D01*
X160871000Y-59606184D01*
X160871000Y-59773816D01*
X160838297Y-59938228D01*
X160774147Y-60093100D01*
X160681015Y-60232481D01*
X160562481Y-60351015D01*
X160423100Y-60444147D01*
X160268228Y-60508297D01*
X160103816Y-60541000D01*
X159936184Y-60541000D01*
X159771772Y-60508297D01*
X159616900Y-60444147D01*
X159477519Y-60351015D01*
X159358985Y-60232481D01*
X159265853Y-60093100D01*
X159201703Y-59938228D01*
X159169000Y-59773816D01*
X159169000Y-59606184D01*
X159201703Y-59441772D01*
X159265853Y-59286900D01*
X159358985Y-59147519D01*
X159477519Y-59028985D01*
X159616900Y-58935853D01*
X159771772Y-58871703D01*
X159936184Y-58839000D01*
X160103816Y-58839000D01*
X160268228Y-58871703D01*
G37*
G36*
X150108228Y-58871703D02*
G01*
X150263100Y-58935853D01*
X150402481Y-59028985D01*
X150521015Y-59147519D01*
X150614147Y-59286900D01*
X150678297Y-59441772D01*
X150711000Y-59606184D01*
X150711000Y-59773816D01*
X150678297Y-59938228D01*
X150614147Y-60093100D01*
X150521015Y-60232481D01*
X150402481Y-60351015D01*
X150263100Y-60444147D01*
X150108228Y-60508297D01*
X149943816Y-60541000D01*
X149776184Y-60541000D01*
X149611772Y-60508297D01*
X149456900Y-60444147D01*
X149317519Y-60351015D01*
X149198985Y-60232481D01*
X149105853Y-60093100D01*
X149041703Y-59938228D01*
X149009000Y-59773816D01*
X149009000Y-59606184D01*
X149041703Y-59441772D01*
X149105853Y-59286900D01*
X149198985Y-59147519D01*
X149317519Y-59028985D01*
X149456900Y-58935853D01*
X149611772Y-58871703D01*
X149776184Y-58839000D01*
X149943816Y-58839000D01*
X150108228Y-58871703D01*
G37*
G36*
X157728228Y-58871703D02*
G01*
X157883100Y-58935853D01*
X158022481Y-59028985D01*
X158141015Y-59147519D01*
X158234147Y-59286900D01*
X158298297Y-59441772D01*
X158331000Y-59606184D01*
X158331000Y-59773816D01*
X158298297Y-59938228D01*
X158234147Y-60093100D01*
X158141015Y-60232481D01*
X158022481Y-60351015D01*
X157883100Y-60444147D01*
X157728228Y-60508297D01*
X157563816Y-60541000D01*
X157396184Y-60541000D01*
X157231772Y-60508297D01*
X157076900Y-60444147D01*
X156937519Y-60351015D01*
X156818985Y-60232481D01*
X156725853Y-60093100D01*
X156661703Y-59938228D01*
X156629000Y-59773816D01*
X156629000Y-59606184D01*
X156661703Y-59441772D01*
X156725853Y-59286900D01*
X156818985Y-59147519D01*
X156937519Y-59028985D01*
X157076900Y-58935853D01*
X157231772Y-58871703D01*
X157396184Y-58839000D01*
X157563816Y-58839000D01*
X157728228Y-58871703D01*
G37*
G36*
X140891202Y-54018781D02*
G01*
X141166606Y-54073562D01*
X141685455Y-54288476D01*
X142152407Y-54600484D01*
X142549516Y-54997593D01*
X142861524Y-55464545D01*
X143076438Y-55983394D01*
X143076438Y-55983395D01*
X143172917Y-56468425D01*
X143186000Y-56534201D01*
X143186000Y-57095799D01*
X143076438Y-57646606D01*
X142861524Y-58165455D01*
X142549516Y-58632407D01*
X142152407Y-59029516D01*
X141685455Y-59341524D01*
X141166606Y-59556438D01*
X140916515Y-59606184D01*
X140615800Y-59666000D01*
X140054200Y-59666000D01*
X139753485Y-59606184D01*
X139503394Y-59556438D01*
X138984545Y-59341524D01*
X138517593Y-59029516D01*
X138120484Y-58632407D01*
X137808476Y-58165455D01*
X137593562Y-57646606D01*
X137484000Y-57095799D01*
X137484000Y-56534201D01*
X137497084Y-56468425D01*
X137593562Y-55983395D01*
X137593562Y-55983394D01*
X137808476Y-55464545D01*
X138120484Y-54997593D01*
X138517593Y-54600484D01*
X138984545Y-54288476D01*
X139503394Y-54073562D01*
X139778798Y-54018781D01*
X140054200Y-53964000D01*
X140615800Y-53964000D01*
X140891202Y-54018781D01*
G37*
G36*
X151777618Y-54913420D02*
G01*
X151858400Y-54937925D01*
X151900336Y-54950646D01*
X152013425Y-55011094D01*
X152112554Y-55092446D01*
X152193906Y-55191575D01*
X152254354Y-55304664D01*
X152254355Y-55304668D01*
X152291580Y-55427382D01*
X152301000Y-55523027D01*
X152301000Y-56136973D01*
X152291580Y-56232618D01*
X152264040Y-56323404D01*
X152254354Y-56355336D01*
X152193906Y-56468425D01*
X152112554Y-56567553D01*
X152013424Y-56648906D01*
X151900335Y-56709354D01*
X151868403Y-56719040D01*
X151777617Y-56746580D01*
X151650000Y-56759149D01*
X151522382Y-56746580D01*
X151431596Y-56719040D01*
X151399664Y-56709354D01*
X151286575Y-56648906D01*
X151187447Y-56567554D01*
X151106094Y-56468424D01*
X151045646Y-56355335D01*
X151035960Y-56323403D01*
X151008420Y-56232617D01*
X150999000Y-56136972D01*
X150999000Y-55523027D01*
X151008420Y-55427382D01*
X151045645Y-55304668D01*
X151045645Y-55304667D01*
X151077957Y-55244217D01*
X151106095Y-55191574D01*
X151119493Y-55175249D01*
X151187447Y-55092446D01*
X151286576Y-55011094D01*
X151399665Y-54950646D01*
X151441601Y-54937925D01*
X151522383Y-54913420D01*
X151650000Y-54900851D01*
X151777618Y-54913420D01*
G37*
G36*
X145777618Y-54913420D02*
G01*
X145858400Y-54937925D01*
X145900336Y-54950646D01*
X146013425Y-55011094D01*
X146112554Y-55092446D01*
X146193906Y-55191575D01*
X146254354Y-55304664D01*
X146254355Y-55304668D01*
X146291580Y-55427382D01*
X146301000Y-55523027D01*
X146301000Y-56136973D01*
X146291580Y-56232618D01*
X146264040Y-56323404D01*
X146254354Y-56355336D01*
X146193906Y-56468425D01*
X146112554Y-56567553D01*
X146013424Y-56648906D01*
X145900335Y-56709354D01*
X145868403Y-56719040D01*
X145777617Y-56746580D01*
X145650000Y-56759149D01*
X145522382Y-56746580D01*
X145431596Y-56719040D01*
X145399664Y-56709354D01*
X145286575Y-56648906D01*
X145187447Y-56567554D01*
X145106094Y-56468424D01*
X145045646Y-56355335D01*
X145035960Y-56323403D01*
X145008420Y-56232617D01*
X144999000Y-56136972D01*
X144999000Y-55523027D01*
X145008420Y-55427382D01*
X145045645Y-55304668D01*
X145045645Y-55304667D01*
X145077957Y-55244217D01*
X145106095Y-55191574D01*
X145119493Y-55175249D01*
X145187447Y-55092446D01*
X145286576Y-55011094D01*
X145399665Y-54950646D01*
X145441601Y-54937925D01*
X145522383Y-54913420D01*
X145650000Y-54900851D01*
X145777618Y-54913420D01*
G37*
G36*
X147777618Y-54913420D02*
G01*
X147858400Y-54937925D01*
X147900336Y-54950646D01*
X148013425Y-55011094D01*
X148112554Y-55092446D01*
X148193906Y-55191575D01*
X148254354Y-55304664D01*
X148254355Y-55304668D01*
X148291580Y-55427382D01*
X148301000Y-55523027D01*
X148301000Y-56136973D01*
X148291580Y-56232618D01*
X148264040Y-56323404D01*
X148254354Y-56355336D01*
X148193906Y-56468425D01*
X148112554Y-56567553D01*
X148013424Y-56648906D01*
X147900335Y-56709354D01*
X147868403Y-56719040D01*
X147777617Y-56746580D01*
X147650000Y-56759149D01*
X147522382Y-56746580D01*
X147431596Y-56719040D01*
X147399664Y-56709354D01*
X147286575Y-56648906D01*
X147187447Y-56567554D01*
X147106094Y-56468424D01*
X147045646Y-56355335D01*
X147035960Y-56323403D01*
X147008420Y-56232617D01*
X146999000Y-56136972D01*
X146999000Y-55523027D01*
X147008420Y-55427382D01*
X147045645Y-55304668D01*
X147045645Y-55304667D01*
X147077957Y-55244217D01*
X147106095Y-55191574D01*
X147119493Y-55175249D01*
X147187447Y-55092446D01*
X147286576Y-55011094D01*
X147399665Y-54950646D01*
X147441601Y-54937925D01*
X147522383Y-54913420D01*
X147650000Y-54900851D01*
X147777618Y-54913420D01*
G37*
G36*
X149777618Y-54913420D02*
G01*
X149858400Y-54937925D01*
X149900336Y-54950646D01*
X150013425Y-55011094D01*
X150112554Y-55092446D01*
X150193906Y-55191575D01*
X150254354Y-55304664D01*
X150254355Y-55304668D01*
X150291580Y-55427382D01*
X150301000Y-55523027D01*
X150301000Y-56136973D01*
X150291580Y-56232618D01*
X150264040Y-56323404D01*
X150254354Y-56355336D01*
X150193906Y-56468425D01*
X150112554Y-56567553D01*
X150013424Y-56648906D01*
X149900335Y-56709354D01*
X149868403Y-56719040D01*
X149777617Y-56746580D01*
X149650000Y-56759149D01*
X149522382Y-56746580D01*
X149431596Y-56719040D01*
X149399664Y-56709354D01*
X149286575Y-56648906D01*
X149187447Y-56567554D01*
X149106094Y-56468424D01*
X149045646Y-56355335D01*
X149035960Y-56323403D01*
X149008420Y-56232617D01*
X148999000Y-56136972D01*
X148999000Y-55523027D01*
X149008420Y-55427382D01*
X149045645Y-55304668D01*
X149045645Y-55304667D01*
X149077957Y-55244217D01*
X149106095Y-55191574D01*
X149119493Y-55175249D01*
X149187447Y-55092446D01*
X149286576Y-55011094D01*
X149399665Y-54950646D01*
X149441601Y-54937925D01*
X149522383Y-54913420D01*
X149650000Y-54900851D01*
X149777618Y-54913420D01*
G37*
G36*
X153777618Y-54913420D02*
G01*
X153858400Y-54937925D01*
X153900336Y-54950646D01*
X154013425Y-55011094D01*
X154112554Y-55092446D01*
X154193906Y-55191575D01*
X154254354Y-55304664D01*
X154254355Y-55304668D01*
X154291580Y-55427382D01*
X154301000Y-55523027D01*
X154301000Y-56136973D01*
X154291580Y-56232618D01*
X154264040Y-56323404D01*
X154254354Y-56355336D01*
X154193906Y-56468425D01*
X154112554Y-56567553D01*
X154013424Y-56648906D01*
X153900335Y-56709354D01*
X153868403Y-56719040D01*
X153777617Y-56746580D01*
X153650000Y-56759149D01*
X153522382Y-56746580D01*
X153431596Y-56719040D01*
X153399664Y-56709354D01*
X153286575Y-56648906D01*
X153187447Y-56567554D01*
X153106094Y-56468424D01*
X153045646Y-56355335D01*
X153035960Y-56323403D01*
X153008420Y-56232617D01*
X152999000Y-56136972D01*
X152999000Y-55523027D01*
X153008420Y-55427382D01*
X153045645Y-55304668D01*
X153045645Y-55304667D01*
X153077957Y-55244217D01*
X153106095Y-55191574D01*
X153119493Y-55175249D01*
X153187447Y-55092446D01*
X153286576Y-55011094D01*
X153399665Y-54950646D01*
X153441601Y-54937925D01*
X153522383Y-54913420D01*
X153650000Y-54900851D01*
X153777618Y-54913420D01*
G37*
G36*
X155777618Y-54913420D02*
G01*
X155858400Y-54937925D01*
X155900336Y-54950646D01*
X156013425Y-55011094D01*
X156112554Y-55092446D01*
X156193906Y-55191575D01*
X156254354Y-55304664D01*
X156254355Y-55304668D01*
X156291580Y-55427382D01*
X156301000Y-55523027D01*
X156301000Y-56136973D01*
X156291580Y-56232618D01*
X156264040Y-56323404D01*
X156254354Y-56355336D01*
X156193906Y-56468425D01*
X156112554Y-56567553D01*
X156013424Y-56648906D01*
X155900335Y-56709354D01*
X155868403Y-56719040D01*
X155777617Y-56746580D01*
X155650000Y-56759149D01*
X155522382Y-56746580D01*
X155431596Y-56719040D01*
X155399664Y-56709354D01*
X155286575Y-56648906D01*
X155187447Y-56567554D01*
X155106094Y-56468424D01*
X155045646Y-56355335D01*
X155035960Y-56323403D01*
X155008420Y-56232617D01*
X154999000Y-56136972D01*
X154999000Y-55523027D01*
X155008420Y-55427382D01*
X155045645Y-55304668D01*
X155045645Y-55304667D01*
X155077957Y-55244217D01*
X155106095Y-55191574D01*
X155119493Y-55175249D01*
X155187447Y-55092446D01*
X155286576Y-55011094D01*
X155399665Y-54950646D01*
X155441601Y-54937925D01*
X155522383Y-54913420D01*
X155650000Y-54900851D01*
X155777618Y-54913420D01*
G37*
G36*
X157777618Y-54913420D02*
G01*
X157858400Y-54937925D01*
X157900336Y-54950646D01*
X158013425Y-55011094D01*
X158112554Y-55092446D01*
X158193906Y-55191575D01*
X158254354Y-55304664D01*
X158254355Y-55304668D01*
X158291580Y-55427382D01*
X158301000Y-55523027D01*
X158301000Y-56136973D01*
X158291580Y-56232618D01*
X158264040Y-56323404D01*
X158254354Y-56355336D01*
X158193906Y-56468425D01*
X158112554Y-56567553D01*
X158013424Y-56648906D01*
X157900335Y-56709354D01*
X157868403Y-56719040D01*
X157777617Y-56746580D01*
X157650000Y-56759149D01*
X157522382Y-56746580D01*
X157431596Y-56719040D01*
X157399664Y-56709354D01*
X157286575Y-56648906D01*
X157187447Y-56567554D01*
X157106094Y-56468424D01*
X157045646Y-56355335D01*
X157035960Y-56323403D01*
X157008420Y-56232617D01*
X156999000Y-56136972D01*
X156999000Y-55523027D01*
X157008420Y-55427382D01*
X157045645Y-55304668D01*
X157045645Y-55304667D01*
X157077957Y-55244217D01*
X157106095Y-55191574D01*
X157119493Y-55175249D01*
X157187447Y-55092446D01*
X157286576Y-55011094D01*
X157399665Y-54950646D01*
X157441601Y-54937925D01*
X157522383Y-54913420D01*
X157650000Y-54900851D01*
X157777618Y-54913420D01*
G37*
G36*
X159777618Y-54913420D02*
G01*
X159858400Y-54937925D01*
X159900336Y-54950646D01*
X160013425Y-55011094D01*
X160112554Y-55092446D01*
X160193906Y-55191575D01*
X160254354Y-55304664D01*
X160254355Y-55304668D01*
X160291580Y-55427382D01*
X160301000Y-55523027D01*
X160301000Y-56136973D01*
X160291580Y-56232618D01*
X160264040Y-56323404D01*
X160254354Y-56355336D01*
X160193906Y-56468425D01*
X160112554Y-56567553D01*
X160013424Y-56648906D01*
X159900335Y-56709354D01*
X159868403Y-56719040D01*
X159777617Y-56746580D01*
X159650000Y-56759149D01*
X159522382Y-56746580D01*
X159431596Y-56719040D01*
X159399664Y-56709354D01*
X159286575Y-56648906D01*
X159187447Y-56567554D01*
X159106094Y-56468424D01*
X159045646Y-56355335D01*
X159035960Y-56323403D01*
X159008420Y-56232617D01*
X158999000Y-56136972D01*
X158999000Y-55523027D01*
X159008420Y-55427382D01*
X159045645Y-55304668D01*
X159045645Y-55304667D01*
X159077957Y-55244217D01*
X159106095Y-55191574D01*
X159119493Y-55175249D01*
X159187447Y-55092446D01*
X159286576Y-55011094D01*
X159399665Y-54950646D01*
X159441601Y-54937925D01*
X159522383Y-54913420D01*
X159650000Y-54900851D01*
X159777618Y-54913420D01*
G37*
G36*
X162141242Y-54908404D02*
G01*
X162178337Y-54919657D01*
X162212515Y-54937925D01*
X162242481Y-54962519D01*
X162267075Y-54992485D01*
X162285343Y-55026663D01*
X162296596Y-55063758D01*
X162301000Y-55108474D01*
X162301000Y-56551526D01*
X162296596Y-56596242D01*
X162285343Y-56633337D01*
X162267075Y-56667515D01*
X162242481Y-56697481D01*
X162212515Y-56722075D01*
X162178337Y-56740343D01*
X162141242Y-56751596D01*
X162096526Y-56756000D01*
X161203474Y-56756000D01*
X161158758Y-56751596D01*
X161121663Y-56740343D01*
X161087485Y-56722075D01*
X161057519Y-56697481D01*
X161032925Y-56667515D01*
X161014657Y-56633337D01*
X161003404Y-56596242D01*
X160999000Y-56551526D01*
X160999000Y-55108474D01*
X161003404Y-55063758D01*
X161014657Y-55026663D01*
X161032925Y-54992485D01*
X161057519Y-54962519D01*
X161087485Y-54937925D01*
X161121663Y-54919657D01*
X161158758Y-54908404D01*
X161203474Y-54904000D01*
X162096526Y-54904000D01*
X162141242Y-54908404D01*
G37*
G36*
X168093146Y-50187082D02*
G01*
X168611995Y-50401996D01*
X169078947Y-50714004D01*
X169476056Y-51111113D01*
X169788064Y-51578065D01*
X170002978Y-52096914D01*
X170112540Y-52647721D01*
X170112540Y-53209319D01*
X170002978Y-53760126D01*
X169788064Y-54278975D01*
X169573239Y-54600483D01*
X169476057Y-54745926D01*
X169078946Y-55143037D01*
X168986064Y-55205099D01*
X168611995Y-55455044D01*
X168093146Y-55669958D01*
X167542340Y-55779520D01*
X166980740Y-55779520D01*
X166429934Y-55669958D01*
X165911085Y-55455044D01*
X165537016Y-55205099D01*
X165444134Y-55143037D01*
X165047023Y-54745926D01*
X164949841Y-54600483D01*
X164735016Y-54278975D01*
X164520102Y-53760126D01*
X164410540Y-53209319D01*
X164410540Y-52647721D01*
X164520102Y-52096914D01*
X164735016Y-51578065D01*
X165047024Y-51111113D01*
X165444133Y-50714004D01*
X165911085Y-50401996D01*
X166429934Y-50187082D01*
X166980740Y-50077520D01*
X167542340Y-50077520D01*
X168093146Y-50187082D01*
G37*
G36*
X145797618Y-49113420D02*
G01*
X145878400Y-49137925D01*
X145920336Y-49150646D01*
X146033425Y-49211094D01*
X146132554Y-49292446D01*
X146213906Y-49391575D01*
X146274354Y-49504664D01*
X146274355Y-49504668D01*
X146311580Y-49627382D01*
X146321000Y-49723027D01*
X146321000Y-50336973D01*
X146311580Y-50432618D01*
X146284040Y-50523404D01*
X146274354Y-50555336D01*
X146213906Y-50668425D01*
X146132554Y-50767553D01*
X146033424Y-50848906D01*
X145920335Y-50909354D01*
X145888403Y-50919040D01*
X145797617Y-50946580D01*
X145670000Y-50959149D01*
X145542382Y-50946580D01*
X145451596Y-50919040D01*
X145419664Y-50909354D01*
X145306575Y-50848906D01*
X145207447Y-50767554D01*
X145126094Y-50668424D01*
X145065646Y-50555335D01*
X145055960Y-50523403D01*
X145028420Y-50432617D01*
X145019000Y-50336972D01*
X145019000Y-49723027D01*
X145028420Y-49627382D01*
X145065645Y-49504668D01*
X145065645Y-49504667D01*
X145097957Y-49444217D01*
X145126095Y-49391574D01*
X145139493Y-49375249D01*
X145207447Y-49292446D01*
X145306576Y-49211094D01*
X145419665Y-49150646D01*
X145461601Y-49137925D01*
X145542383Y-49113420D01*
X145670000Y-49100851D01*
X145797618Y-49113420D01*
G37*
G36*
X147797618Y-49113420D02*
G01*
X147878400Y-49137925D01*
X147920336Y-49150646D01*
X148033425Y-49211094D01*
X148132554Y-49292446D01*
X148213906Y-49391575D01*
X148274354Y-49504664D01*
X148274355Y-49504668D01*
X148311580Y-49627382D01*
X148321000Y-49723027D01*
X148321000Y-50336973D01*
X148311580Y-50432618D01*
X148284040Y-50523404D01*
X148274354Y-50555336D01*
X148213906Y-50668425D01*
X148132554Y-50767553D01*
X148033424Y-50848906D01*
X147920335Y-50909354D01*
X147888403Y-50919040D01*
X147797617Y-50946580D01*
X147670000Y-50959149D01*
X147542382Y-50946580D01*
X147451596Y-50919040D01*
X147419664Y-50909354D01*
X147306575Y-50848906D01*
X147207447Y-50767554D01*
X147126094Y-50668424D01*
X147065646Y-50555335D01*
X147055960Y-50523403D01*
X147028420Y-50432617D01*
X147019000Y-50336972D01*
X147019000Y-49723027D01*
X147028420Y-49627382D01*
X147065645Y-49504668D01*
X147065645Y-49504667D01*
X147097957Y-49444217D01*
X147126095Y-49391574D01*
X147139493Y-49375249D01*
X147207447Y-49292446D01*
X147306576Y-49211094D01*
X147419665Y-49150646D01*
X147461601Y-49137925D01*
X147542383Y-49113420D01*
X147670000Y-49100851D01*
X147797618Y-49113420D01*
G37*
G36*
X150161242Y-49108404D02*
G01*
X150198337Y-49119657D01*
X150232515Y-49137925D01*
X150262481Y-49162519D01*
X150287075Y-49192485D01*
X150305343Y-49226663D01*
X150316596Y-49263758D01*
X150321000Y-49308474D01*
X150321000Y-50751526D01*
X150316596Y-50796242D01*
X150305343Y-50833337D01*
X150287075Y-50867515D01*
X150262481Y-50897481D01*
X150232515Y-50922075D01*
X150198337Y-50940343D01*
X150161242Y-50951596D01*
X150116526Y-50956000D01*
X149223474Y-50956000D01*
X149178758Y-50951596D01*
X149141663Y-50940343D01*
X149107485Y-50922075D01*
X149077519Y-50897481D01*
X149052925Y-50867515D01*
X149034657Y-50833337D01*
X149023404Y-50796242D01*
X149019000Y-50751526D01*
X149019000Y-49308474D01*
X149023404Y-49263758D01*
X149034657Y-49226663D01*
X149052925Y-49192485D01*
X149077519Y-49162519D01*
X149107485Y-49137925D01*
X149141663Y-49119657D01*
X149178758Y-49108404D01*
X149223474Y-49104000D01*
X150116526Y-49104000D01*
X150161242Y-49108404D01*
G37*
M02*
