M48
; DRILL file {KiCad 5.1.5+dfsg1-2build2} date Do 02 Jul 2020 19:51:59 CEST
; FORMAT={-:-/ absolute / metric / decimal}
; #@! TF.CreationDate,2020-07-02T19:51:59+02:00
; #@! TF.GenerationSoftware,Kicad,Pcbnew,5.1.5+dfsg1-2build2
; #@! TF.FileFunction,Plated,1,2,PTH
FMAT,2
METRIC
T1C0.600
T2C0.750
T3C0.800
T4C3.200
%
G90
G05
T1
X148.21Y-65.92
X149.61Y-65.92
X151.01Y-65.92
X153.81Y-65.92
X155.21Y-65.92
X156.61Y-65.92
T2
X145.65Y-55.83
X147.65Y-55.83
X149.65Y-55.83
X151.65Y-55.83
X153.65Y-55.83
X155.65Y-55.83
X157.65Y-55.83
X159.65Y-55.83
X161.65Y-55.83
X145.67Y-50.03
X147.67Y-50.03
X149.67Y-50.03
T3
X138.47Y-52.45
X138.57Y-49.83
X141.23Y-52.37
X141.26Y-49.83
X146.36Y-64.37
X151.25Y-64.0
X152.28Y-50.01
X153.42Y-64.02
X154.58Y-50.01
X157.1Y-50.05
X158.47Y-64.32
X159.71Y-50.09
X160.59Y-65.71
X162.21Y-50.11
X163.1Y-65.75
X165.34Y-65.71
X144.78Y-59.69
X144.78Y-62.23
X147.32Y-59.69
X147.32Y-62.23
X149.86Y-59.69
X149.86Y-62.23
X152.4Y-59.69
X152.4Y-62.23
X154.94Y-59.69
X154.94Y-62.23
X157.48Y-59.69
X157.48Y-62.23
X160.02Y-59.69
X160.02Y-62.23
X162.56Y-59.69
X162.56Y-62.23
X152.41Y-65.92
T4
X140.335Y-56.815
X167.262Y-52.929
T0
M30
