M48
; DRILL file {KiCad 5.1.5+dfsg1-2build2} date Mi 01 Jul 2020 21:38:59 CEST
; FORMAT={-:-/ absolute / metric / decimal}
; #@! TF.CreationDate,2020-07-01T21:38:59+02:00
; #@! TF.GenerationSoftware,Kicad,Pcbnew,5.1.5+dfsg1-2build2
; #@! TF.FileFunction,Plated,1,2,PTH
FMAT,2
METRIC
T1C0.400
T2C0.750
T3C0.900
T4C1.000
T5C1.100
T6C1.200
T7C1.300
T8C2.500
%
G90
G05
T1
X40.386Y-45.529
X42.429Y-45.529
X44.471Y-45.529
X45.148Y-51.689
X46.514Y-45.529
X48.556Y-45.529
X50.599Y-45.529
X52.642Y-45.529
X93.34Y-51.7
X96.87Y-51.7
X99.67Y-48.91
X102.616Y-48.895
X106.362Y-48.959
X110.109Y-48.959
X113.157Y-50.419
X113.665Y-48.895
X121.793Y-53.404
X121.793Y-82.677
X123.83Y-54.44
X123.888Y-82.677
X126.047Y-82.677
X126.301Y-53.404
X128.079Y-53.404
X128.207Y-82.677
X129.667Y-53.404
X130.365Y-82.677
X132.651Y-45.72
X134.874Y-45.72
X137.096Y-45.72
X137.605Y-61.023
X137.668Y-59.309
X139.255Y-45.72
X139.636Y-59.309
X141.415Y-45.72
X143.446Y-45.72
X145.288Y-45.657
X145.669Y-67.945
X146.113Y-82.74
T2
X130.81Y-58.166
X130.81Y-59.436
X130.81Y-60.706
X122.77Y-58.42
X122.77Y-59.69
X122.77Y-60.96
T3
X124.833Y-56.959
X127.373Y-56.959
T4
X48.0Y-50.0
X50.54Y-50.0
X53.08Y-50.0
X55.62Y-50.0
X58.16Y-50.0
X60.7Y-50.0
X63.24Y-50.0
X65.78Y-50.0
X68.32Y-50.0
X70.86Y-50.0
X73.4Y-50.0
X75.94Y-50.0
X78.48Y-50.0
X81.02Y-50.0
X83.56Y-50.0
X86.1Y-50.0
T5
X122.855Y-71.455
X122.855Y-75.955
X129.355Y-71.455
X129.355Y-75.955
X122.855Y-63.078
X122.855Y-67.578
X129.355Y-63.078
X129.355Y-67.578
T6
X48.0Y-50.0
X50.54Y-50.0
X53.08Y-50.0
X55.62Y-50.0
X58.16Y-50.0
X60.7Y-50.0
X63.24Y-50.0
X65.78Y-50.0
X68.32Y-50.0
X70.86Y-50.0
X73.4Y-50.0
X75.94Y-50.0
X78.48Y-50.0
X81.02Y-50.0
X83.56Y-50.0
X86.1Y-50.0
T7
X136.986Y-55.118
X139.486Y-65.118
X141.986Y-55.118
T8
X42.501Y-50.0
X117.499Y-81.001
X117.5Y-50.0
T0
M30
