G04 #@! TF.GenerationSoftware,KiCad,Pcbnew,5.1.5+dfsg1-2build2*
G04 #@! TF.CreationDate,2020-07-01T21:43:33+02:00*
G04 #@! TF.ProjectId,BaSe_HMI_V1_1,42615365-5f48-44d4-995f-56315f312e6b,V1_0*
G04 #@! TF.SameCoordinates,Original*
G04 #@! TF.FileFunction,Copper,L2,Bot*
G04 #@! TF.FilePolarity,Positive*
%FSLAX46Y46*%
G04 Gerber Fmt 4.6, Leading zero omitted, Abs format (unit mm)*
G04 Created by KiCad (PCBNEW 5.1.5+dfsg1-2build2) date 2020-07-01 21:43:33*
%MOMM*%
%LPD*%
G04 APERTURE LIST*
%ADD10C,0.200000*%
%ADD11O,1.700000X1.700000*%
%ADD12R,1.700000X1.700000*%
%ADD13R,0.400000X0.400000*%
%ADD14C,3.000000*%
%ADD15O,1.800000X2.600000*%
%ADD16R,1.800000X2.600000*%
%ADD17C,1.800000*%
%ADD18R,1.800000X1.800000*%
%ADD19R,1.500000X1.050000*%
%ADD20O,1.500000X1.050000*%
%ADD21C,2.340000*%
%ADD22C,2.000000*%
%ADD23C,0.800000*%
%ADD24C,0.400000*%
%ADD25C,0.254000*%
G04 APERTURE END LIST*
D10*
X130524285Y-80978571D02*
X130410000Y-81026190D01*
X130371904Y-81073809D01*
X130333809Y-81169047D01*
X130333809Y-81311904D01*
X130371904Y-81407142D01*
X130410000Y-81454761D01*
X130486190Y-81502380D01*
X130790952Y-81502380D01*
X130790952Y-80502380D01*
X130524285Y-80502380D01*
X130448095Y-80550000D01*
X130410000Y-80597619D01*
X130371904Y-80692857D01*
X130371904Y-80788095D01*
X130410000Y-80883333D01*
X130448095Y-80930952D01*
X130524285Y-80978571D01*
X130790952Y-80978571D01*
X129648095Y-81502380D02*
X129648095Y-80978571D01*
X129686190Y-80883333D01*
X129762380Y-80835714D01*
X129914761Y-80835714D01*
X129990952Y-80883333D01*
X129648095Y-81454761D02*
X129724285Y-81502380D01*
X129914761Y-81502380D01*
X129990952Y-81454761D01*
X130029047Y-81359523D01*
X130029047Y-81264285D01*
X129990952Y-81169047D01*
X129914761Y-81121428D01*
X129724285Y-81121428D01*
X129648095Y-81073809D01*
X129305238Y-81454761D02*
X129190952Y-81502380D01*
X129000476Y-81502380D01*
X128924285Y-81454761D01*
X128886190Y-81407142D01*
X128848095Y-81311904D01*
X128848095Y-81216666D01*
X128886190Y-81121428D01*
X128924285Y-81073809D01*
X129000476Y-81026190D01*
X129152857Y-80978571D01*
X129229047Y-80930952D01*
X129267142Y-80883333D01*
X129305238Y-80788095D01*
X129305238Y-80692857D01*
X129267142Y-80597619D01*
X129229047Y-80550000D01*
X129152857Y-80502380D01*
X128962380Y-80502380D01*
X128848095Y-80550000D01*
X128200476Y-81454761D02*
X128276666Y-81502380D01*
X128429047Y-81502380D01*
X128505238Y-81454761D01*
X128543333Y-81359523D01*
X128543333Y-80978571D01*
X128505238Y-80883333D01*
X128429047Y-80835714D01*
X128276666Y-80835714D01*
X128200476Y-80883333D01*
X128162380Y-80978571D01*
X128162380Y-81073809D01*
X128543333Y-81169047D01*
X128010000Y-81597619D02*
X127400476Y-81597619D01*
X127210000Y-81502380D02*
X127210000Y-80502380D01*
X127210000Y-80978571D02*
X126752857Y-80978571D01*
X126752857Y-81502380D02*
X126752857Y-80502380D01*
X126371904Y-81502380D02*
X126371904Y-80502380D01*
X126105238Y-81216666D01*
X125838571Y-80502380D01*
X125838571Y-81502380D01*
X125457619Y-81502380D02*
X125457619Y-80502380D01*
X125267142Y-81597619D02*
X124657619Y-81597619D01*
X124581428Y-80502380D02*
X124314761Y-81502380D01*
X124048095Y-80502380D01*
X123362380Y-81502380D02*
X123819523Y-81502380D01*
X123590952Y-81502380D02*
X123590952Y-80502380D01*
X123667142Y-80645238D01*
X123743333Y-80740476D01*
X123819523Y-80788095D01*
X123210000Y-81597619D02*
X122600476Y-81597619D01*
X121990952Y-81502380D02*
X122448095Y-81502380D01*
X122219523Y-81502380D02*
X122219523Y-80502380D01*
X122295714Y-80645238D01*
X122371904Y-80740476D01*
X122448095Y-80788095D01*
D11*
X86100000Y-50000000D03*
X83560000Y-50000000D03*
X81020000Y-50000000D03*
X78480000Y-50000000D03*
X75940000Y-50000000D03*
X73400000Y-50000000D03*
X70860000Y-50000000D03*
X68320000Y-50000000D03*
X65780000Y-50000000D03*
X63240000Y-50000000D03*
X60700000Y-50000000D03*
X58160000Y-50000000D03*
X55620000Y-50000000D03*
X53080000Y-50000000D03*
X50540000Y-50000000D03*
D12*
X48000000Y-50000000D03*
D13*
X143656000Y-69063500D03*
X141656000Y-69063500D03*
X140856000Y-69063500D03*
X140456000Y-69063500D03*
X138456000Y-69063500D03*
X138056000Y-69063500D03*
X137256000Y-69063500D03*
X136856000Y-69063500D03*
X136056000Y-69063500D03*
X135256000Y-69063500D03*
X134856000Y-69063500D03*
X134456000Y-69063500D03*
X134056000Y-69063500D03*
X133656000Y-69063500D03*
X133256000Y-69063500D03*
X132856000Y-69063500D03*
X145656000Y-69463500D03*
X144856000Y-69463500D03*
X144056000Y-69463500D03*
X143656000Y-69463500D03*
X143256000Y-69463500D03*
X141656000Y-69463500D03*
X140856000Y-69463500D03*
X140056000Y-69463500D03*
X139656000Y-69463500D03*
X138056000Y-69463500D03*
X137256000Y-69463500D03*
X136856000Y-69463500D03*
X135256000Y-69463500D03*
X132856000Y-69463500D03*
X142856000Y-69863500D03*
X142456000Y-69863500D03*
X142056000Y-69863500D03*
X141256000Y-69863500D03*
X140856000Y-69863500D03*
X140056000Y-69863500D03*
X139256000Y-69863500D03*
X138856000Y-69863500D03*
X138456000Y-69863500D03*
X138056000Y-69863500D03*
X137656000Y-69863500D03*
X137256000Y-69863500D03*
X136856000Y-69863500D03*
X136456000Y-69863500D03*
X136056000Y-69863500D03*
X135256000Y-69863500D03*
X134456000Y-69863500D03*
X134056000Y-69863500D03*
X133656000Y-69863500D03*
X132856000Y-69863500D03*
X145256000Y-70263500D03*
X144856000Y-70263500D03*
X144456000Y-70263500D03*
X144056000Y-70263500D03*
X142456000Y-70263500D03*
X141656000Y-70263500D03*
X140456000Y-70263500D03*
X139256000Y-70263500D03*
X138456000Y-70263500D03*
X137656000Y-70263500D03*
X136856000Y-70263500D03*
X136056000Y-70263500D03*
X135256000Y-70263500D03*
X134456000Y-70263500D03*
X134056000Y-70263500D03*
X133656000Y-70263500D03*
X132856000Y-70263500D03*
X145656000Y-70663500D03*
X144056000Y-70663500D03*
X143656000Y-70663500D03*
X143256000Y-70663500D03*
X142856000Y-70663500D03*
X142456000Y-70663500D03*
X142056000Y-70663500D03*
X141656000Y-70663500D03*
X140456000Y-70663500D03*
X140056000Y-70663500D03*
X139656000Y-70663500D03*
X139256000Y-70663500D03*
X138856000Y-70663500D03*
X137656000Y-70663500D03*
X137256000Y-70663500D03*
X135256000Y-70663500D03*
X134456000Y-70663500D03*
X134056000Y-70663500D03*
X133656000Y-70663500D03*
X132856000Y-70663500D03*
X145256000Y-71063500D03*
X144856000Y-71063500D03*
X144456000Y-71063500D03*
X144056000Y-71063500D03*
X142456000Y-71063500D03*
X140856000Y-71063500D03*
X140456000Y-71063500D03*
X140056000Y-71063500D03*
X139656000Y-71063500D03*
X139256000Y-71063500D03*
X138456000Y-71063500D03*
X138056000Y-71063500D03*
X137656000Y-71063500D03*
X136056000Y-71063500D03*
X135256000Y-71063500D03*
X132856000Y-71063500D03*
X145256000Y-71463500D03*
X144456000Y-71463500D03*
X144056000Y-71463500D03*
X143256000Y-71463500D03*
X142456000Y-71463500D03*
X142056000Y-71463500D03*
X141256000Y-71463500D03*
X140056000Y-71463500D03*
X139656000Y-71463500D03*
X139256000Y-71463500D03*
X138856000Y-71463500D03*
X138456000Y-71463500D03*
X138056000Y-71463500D03*
X137256000Y-71463500D03*
X136456000Y-71463500D03*
X136056000Y-71463500D03*
X135256000Y-71463500D03*
X134856000Y-71463500D03*
X134456000Y-71463500D03*
X134056000Y-71463500D03*
X133656000Y-71463500D03*
X133256000Y-71463500D03*
X132856000Y-71463500D03*
X145656000Y-71863500D03*
X145256000Y-71863500D03*
X144056000Y-71863500D03*
X142456000Y-71863500D03*
X141256000Y-71863500D03*
X139256000Y-71863500D03*
X138456000Y-71863500D03*
X138056000Y-71863500D03*
X137656000Y-71863500D03*
X136456000Y-71863500D03*
X136056000Y-71863500D03*
X145656000Y-72263500D03*
X145256000Y-72263500D03*
X144856000Y-72263500D03*
X144456000Y-72263500D03*
X144056000Y-72263500D03*
X143656000Y-72263500D03*
X143256000Y-72263500D03*
X142856000Y-72263500D03*
X142456000Y-72263500D03*
X142056000Y-72263500D03*
X141656000Y-72263500D03*
X141256000Y-72263500D03*
X140456000Y-72263500D03*
X138456000Y-72263500D03*
X138056000Y-72263500D03*
X137656000Y-72263500D03*
X135656000Y-72263500D03*
X135256000Y-72263500D03*
X134856000Y-72263500D03*
X134456000Y-72263500D03*
X132856000Y-72263500D03*
X144056000Y-72663500D03*
X143256000Y-72663500D03*
X142456000Y-72663500D03*
X142056000Y-72663500D03*
X141656000Y-72663500D03*
X141256000Y-72663500D03*
X140856000Y-72663500D03*
X139656000Y-72663500D03*
X138856000Y-72663500D03*
X138456000Y-72663500D03*
X138056000Y-72663500D03*
X137256000Y-72663500D03*
X136856000Y-72663500D03*
X136456000Y-72663500D03*
X134856000Y-72663500D03*
X134456000Y-72663500D03*
X133256000Y-72663500D03*
X145656000Y-73063500D03*
X145256000Y-73063500D03*
X143656000Y-73063500D03*
X142856000Y-73063500D03*
X141656000Y-73063500D03*
X141256000Y-73063500D03*
X140856000Y-73063500D03*
X140456000Y-73063500D03*
X140056000Y-73063500D03*
X138856000Y-73063500D03*
X138056000Y-73063500D03*
X137656000Y-73063500D03*
X136456000Y-73063500D03*
X136056000Y-73063500D03*
X135256000Y-73063500D03*
X134056000Y-73063500D03*
X133656000Y-73063500D03*
X144856000Y-73463500D03*
X143656000Y-73463500D03*
X141656000Y-73463500D03*
X140856000Y-73463500D03*
X139656000Y-73463500D03*
X139256000Y-73463500D03*
X138856000Y-73463500D03*
X135656000Y-73463500D03*
X134856000Y-73463500D03*
X134056000Y-73463500D03*
X133656000Y-73463500D03*
X132856000Y-73463500D03*
X145656000Y-73863500D03*
X144856000Y-73863500D03*
X144056000Y-73863500D03*
X143656000Y-73863500D03*
X143256000Y-73863500D03*
X141656000Y-73863500D03*
X140456000Y-73863500D03*
X139256000Y-73863500D03*
X138056000Y-73863500D03*
X137656000Y-73863500D03*
X136456000Y-73863500D03*
X136056000Y-73863500D03*
X135656000Y-73863500D03*
X135256000Y-73863500D03*
X134056000Y-73863500D03*
X133656000Y-73863500D03*
X133256000Y-73863500D03*
X132856000Y-73863500D03*
X144056000Y-74263500D03*
X142056000Y-74263500D03*
X141656000Y-74263500D03*
X140856000Y-74263500D03*
X140056000Y-74263500D03*
X139656000Y-74263500D03*
X137656000Y-74263500D03*
X136856000Y-74263500D03*
X136456000Y-74263500D03*
X136056000Y-74263500D03*
X133656000Y-74263500D03*
X133256000Y-74263500D03*
X132856000Y-74263500D03*
X145656000Y-74663500D03*
X145256000Y-74663500D03*
X144456000Y-74663500D03*
X143656000Y-74663500D03*
X143256000Y-74663500D03*
X142856000Y-74663500D03*
X141256000Y-74663500D03*
X140856000Y-74663500D03*
X140056000Y-74663500D03*
X139256000Y-74663500D03*
X138856000Y-74663500D03*
X138456000Y-74663500D03*
X138056000Y-74663500D03*
X137256000Y-74663500D03*
X136856000Y-74663500D03*
X135256000Y-74663500D03*
X134856000Y-74663500D03*
X134456000Y-74663500D03*
X133256000Y-74663500D03*
X132856000Y-74663500D03*
X145256000Y-75063500D03*
X144056000Y-75063500D03*
X143656000Y-75063500D03*
X142456000Y-75063500D03*
X140456000Y-75063500D03*
X140056000Y-75063500D03*
X139256000Y-75063500D03*
X138456000Y-75063500D03*
X138056000Y-75063500D03*
X134856000Y-75063500D03*
X134456000Y-75063500D03*
X133656000Y-75063500D03*
X133256000Y-75063500D03*
X145656000Y-75463500D03*
X144456000Y-75463500D03*
X143256000Y-75463500D03*
X142856000Y-75463500D03*
X142456000Y-75463500D03*
X142056000Y-75463500D03*
X139656000Y-75463500D03*
X139256000Y-75463500D03*
X137656000Y-75463500D03*
X136856000Y-75463500D03*
X136456000Y-75463500D03*
X136056000Y-75463500D03*
X135256000Y-75463500D03*
X134856000Y-75463500D03*
X133656000Y-75463500D03*
X132856000Y-75463500D03*
X145656000Y-75863500D03*
X144456000Y-75863500D03*
X144056000Y-75863500D03*
X142856000Y-75863500D03*
X142456000Y-75863500D03*
X141656000Y-75863500D03*
X141256000Y-75863500D03*
X138856000Y-75863500D03*
X137256000Y-75863500D03*
X136056000Y-75863500D03*
X135656000Y-75863500D03*
X134456000Y-75863500D03*
X134056000Y-75863500D03*
X133656000Y-75863500D03*
X144856000Y-76263500D03*
X143256000Y-76263500D03*
X142856000Y-76263500D03*
X142456000Y-76263500D03*
X141656000Y-76263500D03*
X140856000Y-76263500D03*
X140456000Y-76263500D03*
X138456000Y-76263500D03*
X138056000Y-76263500D03*
X137656000Y-76263500D03*
X137256000Y-76263500D03*
X136856000Y-76263500D03*
X136456000Y-76263500D03*
X136056000Y-76263500D03*
X135256000Y-76263500D03*
X133256000Y-76263500D03*
X144856000Y-76663500D03*
X144056000Y-76663500D03*
X143656000Y-76663500D03*
X143256000Y-76663500D03*
X142856000Y-76663500D03*
X142056000Y-76663500D03*
X140856000Y-76663500D03*
X139656000Y-76663500D03*
X138456000Y-76663500D03*
X137256000Y-76663500D03*
X134056000Y-76663500D03*
X133656000Y-76663500D03*
X144856000Y-77063500D03*
X144456000Y-77063500D03*
X143656000Y-77063500D03*
X142056000Y-77063500D03*
X141656000Y-77063500D03*
X141256000Y-77063500D03*
X140856000Y-77063500D03*
X140456000Y-77063500D03*
X139256000Y-77063500D03*
X138456000Y-77063500D03*
X137256000Y-77063500D03*
X136456000Y-77063500D03*
X135256000Y-77063500D03*
X134856000Y-77063500D03*
X133256000Y-77063500D03*
X132856000Y-77063500D03*
X144456000Y-77463500D03*
X143656000Y-77463500D03*
X142456000Y-77463500D03*
X142056000Y-77463500D03*
X141656000Y-77463500D03*
X141256000Y-77463500D03*
X140856000Y-77463500D03*
X139656000Y-77463500D03*
X138856000Y-77463500D03*
X137256000Y-77463500D03*
X136456000Y-77463500D03*
X135656000Y-77463500D03*
X134856000Y-77463500D03*
X134456000Y-77463500D03*
X134056000Y-77463500D03*
X133256000Y-77463500D03*
X145656000Y-77863500D03*
X143656000Y-77863500D03*
X143256000Y-77863500D03*
X142456000Y-77863500D03*
X142056000Y-77863500D03*
X141656000Y-77863500D03*
X141256000Y-77863500D03*
X140856000Y-77863500D03*
X140456000Y-77863500D03*
X140056000Y-77863500D03*
X138856000Y-77863500D03*
X138056000Y-77863500D03*
X137656000Y-77863500D03*
X136856000Y-77863500D03*
X136456000Y-77863500D03*
X136056000Y-77863500D03*
X135256000Y-77863500D03*
X134856000Y-77863500D03*
X134056000Y-77863500D03*
X133656000Y-77863500D03*
X132856000Y-77863500D03*
X145256000Y-78263500D03*
X144856000Y-78263500D03*
X142456000Y-78263500D03*
X142056000Y-78263500D03*
X140856000Y-78263500D03*
X140056000Y-78263500D03*
X139656000Y-78263500D03*
X139256000Y-78263500D03*
X138856000Y-78263500D03*
X138056000Y-78263500D03*
X137656000Y-78263500D03*
X137256000Y-78263500D03*
X136856000Y-78263500D03*
X136456000Y-78263500D03*
X135656000Y-78263500D03*
X134856000Y-78263500D03*
X134056000Y-78263500D03*
X133656000Y-78263500D03*
X133256000Y-78263500D03*
X145656000Y-78663500D03*
X145256000Y-78663500D03*
X144456000Y-78663500D03*
X143256000Y-78663500D03*
X142456000Y-78663500D03*
X142056000Y-78663500D03*
X140056000Y-78663500D03*
X139256000Y-78663500D03*
X138856000Y-78663500D03*
X138456000Y-78663500D03*
X138056000Y-78663500D03*
X136456000Y-78663500D03*
X135656000Y-78663500D03*
X135256000Y-78663500D03*
X134856000Y-78663500D03*
X134056000Y-78663500D03*
X133656000Y-78663500D03*
X132856000Y-78663500D03*
X142456000Y-79063500D03*
X141256000Y-79063500D03*
X140456000Y-79063500D03*
X139256000Y-79063500D03*
X138856000Y-79063500D03*
X138456000Y-79063500D03*
X138056000Y-79063500D03*
X136856000Y-79063500D03*
X136456000Y-79063500D03*
X136056000Y-79063500D03*
X145656000Y-79463500D03*
X145256000Y-79463500D03*
X144856000Y-79463500D03*
X144456000Y-79463500D03*
X144056000Y-79463500D03*
X143656000Y-79463500D03*
X143256000Y-79463500D03*
X142456000Y-79463500D03*
X141656000Y-79463500D03*
X140856000Y-79463500D03*
X140056000Y-79463500D03*
X139256000Y-79463500D03*
X138456000Y-79463500D03*
X137656000Y-79463500D03*
X136856000Y-79463500D03*
X136056000Y-79463500D03*
X135256000Y-79463500D03*
X134856000Y-79463500D03*
X134456000Y-79463500D03*
X134056000Y-79463500D03*
X133656000Y-79463500D03*
X133256000Y-79463500D03*
X132856000Y-79463500D03*
X145656000Y-79863500D03*
X143256000Y-79863500D03*
X142056000Y-79863500D03*
X141256000Y-79863500D03*
X140056000Y-79863500D03*
X139656000Y-79863500D03*
X139256000Y-79863500D03*
X138856000Y-79863500D03*
X138456000Y-79863500D03*
X137656000Y-79863500D03*
X136856000Y-79863500D03*
X136456000Y-79863500D03*
X135256000Y-79863500D03*
X132856000Y-79863500D03*
X145656000Y-80263500D03*
X144856000Y-80263500D03*
X144456000Y-80263500D03*
X144056000Y-80263500D03*
X143256000Y-80263500D03*
X142456000Y-80263500D03*
X142056000Y-80263500D03*
X141656000Y-80263500D03*
X141256000Y-80263500D03*
X140056000Y-80263500D03*
X139256000Y-80263500D03*
X138056000Y-80263500D03*
X136456000Y-80263500D03*
X135256000Y-80263500D03*
X134456000Y-80263500D03*
X134056000Y-80263500D03*
X133656000Y-80263500D03*
X132856000Y-80263500D03*
X145656000Y-80663500D03*
X144856000Y-80663500D03*
X144456000Y-80663500D03*
X144056000Y-80663500D03*
X143256000Y-80663500D03*
X142456000Y-80663500D03*
X141256000Y-80663500D03*
X140056000Y-80663500D03*
X138856000Y-80663500D03*
X137256000Y-80663500D03*
X136456000Y-80663500D03*
X136056000Y-80663500D03*
X135256000Y-80663500D03*
X134456000Y-80663500D03*
X134056000Y-80663500D03*
X133656000Y-80663500D03*
X132856000Y-80663500D03*
X145656000Y-81063500D03*
X144856000Y-81063500D03*
X144456000Y-81063500D03*
X144056000Y-81063500D03*
X143256000Y-81063500D03*
X140456000Y-81063500D03*
X140056000Y-81063500D03*
X139256000Y-81063500D03*
X138456000Y-81063500D03*
X138056000Y-81063500D03*
X137256000Y-81063500D03*
X136856000Y-81063500D03*
X136456000Y-81063500D03*
X135256000Y-81063500D03*
X134456000Y-81063500D03*
X134056000Y-81063500D03*
X133656000Y-81063500D03*
X132856000Y-81063500D03*
X145656000Y-81463500D03*
X143256000Y-81463500D03*
X142456000Y-81463500D03*
X142056000Y-81463500D03*
X139656000Y-81463500D03*
X139256000Y-81463500D03*
X138456000Y-81463500D03*
X137256000Y-81463500D03*
X136856000Y-81463500D03*
X136056000Y-81463500D03*
X135256000Y-81463500D03*
X132856000Y-81463500D03*
X145656000Y-81863500D03*
X145256000Y-81863500D03*
X144856000Y-81863500D03*
X144456000Y-81863500D03*
X144056000Y-81863500D03*
X143656000Y-81863500D03*
X143256000Y-81863500D03*
X142456000Y-81863500D03*
X141256000Y-81863500D03*
X138856000Y-81863500D03*
X138456000Y-81863500D03*
X136856000Y-81863500D03*
X136456000Y-81863500D03*
X136056000Y-81863500D03*
X135256000Y-81863500D03*
X134856000Y-81863500D03*
X134456000Y-81863500D03*
X134056000Y-81863500D03*
X133656000Y-81863500D03*
X133256000Y-81863500D03*
X132856000Y-81863500D03*
D14*
X117500000Y-50000000D03*
X117499480Y-81000700D03*
X42500900Y-50000000D03*
D15*
X86100000Y-50000000D03*
X83560000Y-50000000D03*
X81020000Y-50000000D03*
X78480000Y-50000000D03*
X75940000Y-50000000D03*
X73400000Y-50000000D03*
X70860000Y-50000000D03*
X68320000Y-50000000D03*
X65780000Y-50000000D03*
X63240000Y-50000000D03*
X60700000Y-50000000D03*
X58160000Y-50000000D03*
X55620000Y-50000000D03*
X53080000Y-50000000D03*
X50540000Y-50000000D03*
D16*
X48000000Y-50000000D03*
D17*
X127373380Y-56959500D03*
D18*
X124833380Y-56959500D03*
D19*
X130810000Y-60706000D03*
D20*
X130810000Y-58166000D03*
X130810000Y-59436000D03*
D19*
X122770000Y-60960000D03*
D20*
X122770000Y-58420000D03*
X122770000Y-59690000D03*
D21*
X141986000Y-55118000D03*
X139486000Y-65118000D03*
X136986000Y-55118000D03*
D22*
X129354720Y-63078360D03*
X129354720Y-67578360D03*
X122854720Y-63078360D03*
X122854720Y-67578360D03*
X129354720Y-71455360D03*
X129354720Y-75955360D03*
X122854720Y-71455360D03*
X122854720Y-75955360D03*
D23*
X93340000Y-51700000D03*
X96870000Y-51700000D03*
X123830000Y-54440000D03*
X129667000Y-53403500D03*
X128079500Y-53403500D03*
X126301500Y-53403500D03*
X40386000Y-45529500D03*
X42428583Y-45529500D03*
X44471166Y-45529500D03*
X46513749Y-45529500D03*
X48556332Y-45529500D03*
X50598915Y-45529500D03*
X52641500Y-45529500D03*
X45148500Y-51689000D03*
X99670000Y-48910000D03*
X102616000Y-48895000D03*
X106362500Y-48958500D03*
X110109000Y-48958500D03*
X113665000Y-48895000D03*
X145288000Y-45656500D03*
X143446500Y-45720000D03*
X141414500Y-45720000D03*
X139255500Y-45720000D03*
X137096500Y-45720000D03*
X134874000Y-45720000D03*
X132651500Y-45720000D03*
X137668000Y-59309000D03*
X139636500Y-59309000D03*
X137604500Y-61023500D03*
X145669000Y-67945000D03*
X121793000Y-82677000D03*
X123888500Y-82677000D03*
X126047500Y-82677000D03*
X128206500Y-82677000D03*
X130365500Y-82677000D03*
X146113500Y-82740500D03*
X113157000Y-50419000D03*
X121793000Y-53403500D03*
D24*
X121793000Y-52837815D02*
X121025185Y-52070000D01*
X121793000Y-53403500D02*
X121793000Y-52837815D01*
X114808000Y-52070000D02*
X113157000Y-50419000D01*
X121025185Y-52070000D02*
X114808000Y-52070000D01*
D25*
G36*
X146660001Y-82969500D02*
G01*
X120510671Y-82969500D01*
X120448452Y-79645000D01*
X121103572Y-79645000D01*
X121103572Y-82615000D01*
X131716429Y-82615000D01*
X131716429Y-79645000D01*
X121103572Y-79645000D01*
X120448452Y-79645000D01*
X120433638Y-78853512D01*
X120523823Y-78780442D01*
X120566399Y-78738433D01*
X120609568Y-78697014D01*
X120615514Y-78689974D01*
X120737910Y-78542990D01*
X120771537Y-78493482D01*
X120805819Y-78444493D01*
X120810285Y-78436432D01*
X120901800Y-78268473D01*
X120925159Y-78213399D01*
X120949282Y-78158666D01*
X120952097Y-78149891D01*
X121009246Y-77967356D01*
X121021461Y-77908807D01*
X121034496Y-77850416D01*
X121035553Y-77841262D01*
X121049507Y-77712493D01*
X121050450Y-77709383D01*
X121060000Y-77612419D01*
X121060000Y-77090773D01*
X121898912Y-77090773D01*
X121994676Y-77355174D01*
X122284291Y-77496064D01*
X122595828Y-77577744D01*
X122917315Y-77597078D01*
X123236395Y-77553321D01*
X123540808Y-77448155D01*
X123714764Y-77355174D01*
X123810528Y-77090773D01*
X128398912Y-77090773D01*
X128494676Y-77355174D01*
X128784291Y-77496064D01*
X129095828Y-77577744D01*
X129417315Y-77597078D01*
X129736395Y-77553321D01*
X130040808Y-77448155D01*
X130214764Y-77355174D01*
X130310528Y-77090773D01*
X129354720Y-76134965D01*
X128398912Y-77090773D01*
X123810528Y-77090773D01*
X122854720Y-76134965D01*
X121898912Y-77090773D01*
X121060000Y-77090773D01*
X121060000Y-76017955D01*
X121213002Y-76017955D01*
X121256759Y-76337035D01*
X121361925Y-76641448D01*
X121454906Y-76815404D01*
X121719307Y-76911168D01*
X122675115Y-75955360D01*
X123034325Y-75955360D01*
X123990133Y-76911168D01*
X124254534Y-76815404D01*
X124395424Y-76525789D01*
X124477104Y-76214252D01*
X124488909Y-76017955D01*
X127713002Y-76017955D01*
X127756759Y-76337035D01*
X127861925Y-76641448D01*
X127954906Y-76815404D01*
X128219307Y-76911168D01*
X129175115Y-75955360D01*
X129534325Y-75955360D01*
X130490133Y-76911168D01*
X130754534Y-76815404D01*
X130895424Y-76525789D01*
X130977104Y-76214252D01*
X130996438Y-75892765D01*
X130952681Y-75573685D01*
X130847515Y-75269272D01*
X130754534Y-75095316D01*
X130490133Y-74999552D01*
X129534325Y-75955360D01*
X129175115Y-75955360D01*
X128219307Y-74999552D01*
X127954906Y-75095316D01*
X127814016Y-75384931D01*
X127732336Y-75696468D01*
X127713002Y-76017955D01*
X124488909Y-76017955D01*
X124496438Y-75892765D01*
X124452681Y-75573685D01*
X124347515Y-75269272D01*
X124254534Y-75095316D01*
X123990133Y-74999552D01*
X123034325Y-75955360D01*
X122675115Y-75955360D01*
X121719307Y-74999552D01*
X121454906Y-75095316D01*
X121314016Y-75384931D01*
X121232336Y-75696468D01*
X121213002Y-76017955D01*
X121060000Y-76017955D01*
X121060000Y-74819947D01*
X121898912Y-74819947D01*
X122854720Y-75775755D01*
X123810528Y-74819947D01*
X128398912Y-74819947D01*
X129354720Y-75775755D01*
X130310528Y-74819947D01*
X130214764Y-74555546D01*
X129925149Y-74414656D01*
X129613612Y-74332976D01*
X129292125Y-74313642D01*
X128973045Y-74357399D01*
X128668632Y-74462565D01*
X128494676Y-74555546D01*
X128398912Y-74819947D01*
X123810528Y-74819947D01*
X123714764Y-74555546D01*
X123425149Y-74414656D01*
X123113612Y-74332976D01*
X122792125Y-74313642D01*
X122473045Y-74357399D01*
X122168632Y-74462565D01*
X121994676Y-74555546D01*
X121898912Y-74819947D01*
X121060000Y-74819947D01*
X121060000Y-71294327D01*
X121219720Y-71294327D01*
X121219720Y-71616393D01*
X121282552Y-71932272D01*
X121405802Y-72229823D01*
X121584733Y-72497612D01*
X121812468Y-72725347D01*
X122080257Y-72904278D01*
X122377808Y-73027528D01*
X122693687Y-73090360D01*
X123015753Y-73090360D01*
X123331632Y-73027528D01*
X123629183Y-72904278D01*
X123896972Y-72725347D01*
X124124707Y-72497612D01*
X124303638Y-72229823D01*
X124426888Y-71932272D01*
X124489720Y-71616393D01*
X124489720Y-71294327D01*
X127719720Y-71294327D01*
X127719720Y-71616393D01*
X127782552Y-71932272D01*
X127905802Y-72229823D01*
X128084733Y-72497612D01*
X128312468Y-72725347D01*
X128580257Y-72904278D01*
X128877808Y-73027528D01*
X129193687Y-73090360D01*
X129515753Y-73090360D01*
X129831632Y-73027528D01*
X130129183Y-72904278D01*
X130396972Y-72725347D01*
X130624707Y-72497612D01*
X130803638Y-72229823D01*
X130926888Y-71932272D01*
X130989720Y-71616393D01*
X130989720Y-71294327D01*
X130926888Y-70978448D01*
X130803638Y-70680897D01*
X130624707Y-70413108D01*
X130396972Y-70185373D01*
X130129183Y-70006442D01*
X129831632Y-69883192D01*
X129515753Y-69820360D01*
X129193687Y-69820360D01*
X128877808Y-69883192D01*
X128580257Y-70006442D01*
X128312468Y-70185373D01*
X128084733Y-70413108D01*
X127905802Y-70680897D01*
X127782552Y-70978448D01*
X127719720Y-71294327D01*
X124489720Y-71294327D01*
X124426888Y-70978448D01*
X124303638Y-70680897D01*
X124124707Y-70413108D01*
X123896972Y-70185373D01*
X123629183Y-70006442D01*
X123331632Y-69883192D01*
X123015753Y-69820360D01*
X122693687Y-69820360D01*
X122377808Y-69883192D01*
X122080257Y-70006442D01*
X121812468Y-70185373D01*
X121584733Y-70413108D01*
X121405802Y-70680897D01*
X121282552Y-70978448D01*
X121219720Y-71294327D01*
X121060000Y-71294327D01*
X121060000Y-68713773D01*
X121898912Y-68713773D01*
X121994676Y-68978174D01*
X122284291Y-69119064D01*
X122595828Y-69200744D01*
X122917315Y-69220078D01*
X123236395Y-69176321D01*
X123540808Y-69071155D01*
X123714764Y-68978174D01*
X123810528Y-68713773D01*
X128398912Y-68713773D01*
X128494676Y-68978174D01*
X128784291Y-69119064D01*
X129095828Y-69200744D01*
X129417315Y-69220078D01*
X129736395Y-69176321D01*
X130040808Y-69071155D01*
X130214764Y-68978174D01*
X130256298Y-68863500D01*
X132017928Y-68863500D01*
X132017928Y-71663500D01*
X132030188Y-71787982D01*
X132053096Y-71863500D01*
X132030188Y-71939018D01*
X132017928Y-72063500D01*
X132017928Y-72463500D01*
X132030188Y-72587982D01*
X132066498Y-72707680D01*
X132125463Y-72817994D01*
X132162809Y-72863500D01*
X132125463Y-72909006D01*
X132066498Y-73019320D01*
X132030188Y-73139018D01*
X132017928Y-73263500D01*
X132017928Y-74863500D01*
X132030188Y-74987982D01*
X132053096Y-75063500D01*
X132030188Y-75139018D01*
X132017928Y-75263500D01*
X132017928Y-75663500D01*
X132030188Y-75787982D01*
X132066498Y-75907680D01*
X132125463Y-76017994D01*
X132204815Y-76114685D01*
X132301506Y-76194037D01*
X132411820Y-76253002D01*
X132417928Y-76254855D01*
X132417928Y-76272145D01*
X132411820Y-76273998D01*
X132301506Y-76332963D01*
X132204815Y-76412315D01*
X132125463Y-76509006D01*
X132066498Y-76619320D01*
X132030188Y-76739018D01*
X132017928Y-76863500D01*
X132017928Y-77263500D01*
X132030188Y-77387982D01*
X132053096Y-77463500D01*
X132030188Y-77539018D01*
X132017928Y-77663500D01*
X132017928Y-78063500D01*
X132030188Y-78187982D01*
X132053096Y-78263500D01*
X132030188Y-78339018D01*
X132017928Y-78463500D01*
X132017928Y-78863500D01*
X132030188Y-78987982D01*
X132053096Y-79063500D01*
X132030188Y-79139018D01*
X132017928Y-79263500D01*
X132017928Y-82063500D01*
X132030188Y-82187982D01*
X132066498Y-82307680D01*
X132125463Y-82417994D01*
X132204815Y-82514685D01*
X132301506Y-82594037D01*
X132411820Y-82653002D01*
X132531518Y-82689312D01*
X132656000Y-82701572D01*
X135456000Y-82701572D01*
X135580482Y-82689312D01*
X135656000Y-82666404D01*
X135731518Y-82689312D01*
X135856000Y-82701572D01*
X137056000Y-82701572D01*
X137180482Y-82689312D01*
X137300180Y-82653002D01*
X137410494Y-82594037D01*
X137507185Y-82514685D01*
X137586537Y-82417994D01*
X137645502Y-82307680D01*
X137656000Y-82273073D01*
X137666498Y-82307680D01*
X137725463Y-82417994D01*
X137804815Y-82514685D01*
X137901506Y-82594037D01*
X138011820Y-82653002D01*
X138131518Y-82689312D01*
X138256000Y-82701572D01*
X139056000Y-82701572D01*
X139180482Y-82689312D01*
X139300180Y-82653002D01*
X139410494Y-82594037D01*
X139507185Y-82514685D01*
X139586537Y-82417994D01*
X139645502Y-82307680D01*
X139647355Y-82301572D01*
X139856000Y-82301572D01*
X139980482Y-82289312D01*
X140100180Y-82253002D01*
X140210494Y-82194037D01*
X140307185Y-82114685D01*
X140386537Y-82017994D01*
X140417928Y-81959267D01*
X140417928Y-82063500D01*
X140430188Y-82187982D01*
X140466498Y-82307680D01*
X140525463Y-82417994D01*
X140604815Y-82514685D01*
X140701506Y-82594037D01*
X140811820Y-82653002D01*
X140931518Y-82689312D01*
X141056000Y-82701572D01*
X141456000Y-82701572D01*
X141580482Y-82689312D01*
X141700180Y-82653002D01*
X141810494Y-82594037D01*
X141856000Y-82556691D01*
X141901506Y-82594037D01*
X142011820Y-82653002D01*
X142131518Y-82689312D01*
X142256000Y-82701572D01*
X142656000Y-82701572D01*
X142780482Y-82689312D01*
X142856000Y-82666404D01*
X142931518Y-82689312D01*
X143056000Y-82701572D01*
X145856000Y-82701572D01*
X145980482Y-82689312D01*
X146100180Y-82653002D01*
X146210494Y-82594037D01*
X146307185Y-82514685D01*
X146386537Y-82417994D01*
X146445502Y-82307680D01*
X146481812Y-82187982D01*
X146494072Y-82063500D01*
X146494072Y-79263500D01*
X146481812Y-79139018D01*
X146458904Y-79063500D01*
X146481812Y-78987982D01*
X146494072Y-78863500D01*
X146494072Y-78463500D01*
X146481812Y-78339018D01*
X146458904Y-78263500D01*
X146481812Y-78187982D01*
X146494072Y-78063500D01*
X146494072Y-77663500D01*
X146481812Y-77539018D01*
X146445502Y-77419320D01*
X146386537Y-77309006D01*
X146307185Y-77212315D01*
X146210494Y-77132963D01*
X146100180Y-77073998D01*
X145980482Y-77037688D01*
X145856000Y-77025428D01*
X145694072Y-77025428D01*
X145694072Y-76701572D01*
X145856000Y-76701572D01*
X145980482Y-76689312D01*
X146100180Y-76653002D01*
X146210494Y-76594037D01*
X146307185Y-76514685D01*
X146386537Y-76417994D01*
X146445502Y-76307680D01*
X146481812Y-76187982D01*
X146494072Y-76063500D01*
X146494072Y-75263500D01*
X146481812Y-75139018D01*
X146458904Y-75063500D01*
X146481812Y-74987982D01*
X146494072Y-74863500D01*
X146494072Y-74463500D01*
X146481812Y-74339018D01*
X146458904Y-74263500D01*
X146481812Y-74187982D01*
X146494072Y-74063500D01*
X146494072Y-73663500D01*
X146481812Y-73539018D01*
X146458904Y-73463500D01*
X146481812Y-73387982D01*
X146494072Y-73263500D01*
X146494072Y-72863500D01*
X146481812Y-72739018D01*
X146458904Y-72663500D01*
X146481812Y-72587982D01*
X146494072Y-72463500D01*
X146494072Y-71663500D01*
X146481812Y-71539018D01*
X146445502Y-71419320D01*
X146386537Y-71309006D01*
X146349191Y-71263500D01*
X146386537Y-71217994D01*
X146445502Y-71107680D01*
X146481812Y-70987982D01*
X146494072Y-70863500D01*
X146494072Y-70463500D01*
X146481812Y-70339018D01*
X146445502Y-70219320D01*
X146386537Y-70109006D01*
X146349191Y-70063500D01*
X146386537Y-70017994D01*
X146445502Y-69907680D01*
X146481812Y-69787982D01*
X146494072Y-69663500D01*
X146494072Y-69263500D01*
X146481812Y-69139018D01*
X146445502Y-69019320D01*
X146386537Y-68909006D01*
X146307185Y-68812315D01*
X146210494Y-68732963D01*
X146100180Y-68673998D01*
X145980482Y-68637688D01*
X145856000Y-68625428D01*
X145456000Y-68625428D01*
X145331518Y-68637688D01*
X145256000Y-68660596D01*
X145180482Y-68637688D01*
X145056000Y-68625428D01*
X144656000Y-68625428D01*
X144531518Y-68637688D01*
X144457853Y-68660034D01*
X144445502Y-68619320D01*
X144386537Y-68509006D01*
X144307185Y-68412315D01*
X144210494Y-68332963D01*
X144100180Y-68273998D01*
X143980482Y-68237688D01*
X143856000Y-68225428D01*
X143456000Y-68225428D01*
X143331518Y-68237688D01*
X143211820Y-68273998D01*
X143101506Y-68332963D01*
X143004815Y-68412315D01*
X142925463Y-68509006D01*
X142866498Y-68619320D01*
X142853772Y-68661272D01*
X142811820Y-68673998D01*
X142701506Y-68732963D01*
X142604815Y-68812315D01*
X142525463Y-68909006D01*
X142494072Y-68967733D01*
X142494072Y-68863500D01*
X142481812Y-68739018D01*
X142445502Y-68619320D01*
X142386537Y-68509006D01*
X142307185Y-68412315D01*
X142210494Y-68332963D01*
X142100180Y-68273998D01*
X141980482Y-68237688D01*
X141856000Y-68225428D01*
X141456000Y-68225428D01*
X141331518Y-68237688D01*
X141256000Y-68260596D01*
X141180482Y-68237688D01*
X141056000Y-68225428D01*
X140256000Y-68225428D01*
X140131518Y-68237688D01*
X140011820Y-68273998D01*
X139901506Y-68332963D01*
X139804815Y-68412315D01*
X139725463Y-68509006D01*
X139666498Y-68619320D01*
X139664645Y-68625428D01*
X139456000Y-68625428D01*
X139331518Y-68637688D01*
X139257853Y-68660034D01*
X139245502Y-68619320D01*
X139186537Y-68509006D01*
X139107185Y-68412315D01*
X139010494Y-68332963D01*
X138900180Y-68273998D01*
X138780482Y-68237688D01*
X138656000Y-68225428D01*
X137856000Y-68225428D01*
X137731518Y-68237688D01*
X137656000Y-68260596D01*
X137580482Y-68237688D01*
X137456000Y-68225428D01*
X136656000Y-68225428D01*
X136531518Y-68237688D01*
X136456000Y-68260596D01*
X136380482Y-68237688D01*
X136256000Y-68225428D01*
X135856000Y-68225428D01*
X135731518Y-68237688D01*
X135656000Y-68260596D01*
X135580482Y-68237688D01*
X135456000Y-68225428D01*
X132656000Y-68225428D01*
X132531518Y-68237688D01*
X132411820Y-68273998D01*
X132301506Y-68332963D01*
X132204815Y-68412315D01*
X132125463Y-68509006D01*
X132066498Y-68619320D01*
X132030188Y-68739018D01*
X132017928Y-68863500D01*
X130256298Y-68863500D01*
X130310528Y-68713773D01*
X129354720Y-67757965D01*
X128398912Y-68713773D01*
X123810528Y-68713773D01*
X122854720Y-67757965D01*
X121898912Y-68713773D01*
X121060000Y-68713773D01*
X121060000Y-67640955D01*
X121213002Y-67640955D01*
X121256759Y-67960035D01*
X121361925Y-68264448D01*
X121454906Y-68438404D01*
X121719307Y-68534168D01*
X122675115Y-67578360D01*
X123034325Y-67578360D01*
X123990133Y-68534168D01*
X124254534Y-68438404D01*
X124395424Y-68148789D01*
X124477104Y-67837252D01*
X124488909Y-67640955D01*
X127713002Y-67640955D01*
X127756759Y-67960035D01*
X127861925Y-68264448D01*
X127954906Y-68438404D01*
X128219307Y-68534168D01*
X129175115Y-67578360D01*
X129534325Y-67578360D01*
X130490133Y-68534168D01*
X130754534Y-68438404D01*
X130895424Y-68148789D01*
X130977104Y-67837252D01*
X130996438Y-67515765D01*
X130952681Y-67196685D01*
X130847515Y-66892272D01*
X130754534Y-66718316D01*
X130490133Y-66622552D01*
X129534325Y-67578360D01*
X129175115Y-67578360D01*
X128219307Y-66622552D01*
X127954906Y-66718316D01*
X127814016Y-67007931D01*
X127732336Y-67319468D01*
X127713002Y-67640955D01*
X124488909Y-67640955D01*
X124496438Y-67515765D01*
X124452681Y-67196685D01*
X124347515Y-66892272D01*
X124254534Y-66718316D01*
X123990133Y-66622552D01*
X123034325Y-67578360D01*
X122675115Y-67578360D01*
X121719307Y-66622552D01*
X121454906Y-66718316D01*
X121314016Y-67007931D01*
X121232336Y-67319468D01*
X121213002Y-67640955D01*
X121060000Y-67640955D01*
X121060000Y-66442947D01*
X121898912Y-66442947D01*
X122854720Y-67398755D01*
X123810528Y-66442947D01*
X128398912Y-66442947D01*
X129354720Y-67398755D01*
X130310528Y-66442947D01*
X130214764Y-66178546D01*
X129925149Y-66037656D01*
X129613612Y-65955976D01*
X129292125Y-65936642D01*
X128973045Y-65980399D01*
X128668632Y-66085565D01*
X128494676Y-66178546D01*
X128398912Y-66442947D01*
X123810528Y-66442947D01*
X123714764Y-66178546D01*
X123425149Y-66037656D01*
X123113612Y-65955976D01*
X122792125Y-65936642D01*
X122473045Y-65980399D01*
X122168632Y-66085565D01*
X121994676Y-66178546D01*
X121898912Y-66442947D01*
X121060000Y-66442947D01*
X121060000Y-64940223D01*
X137681000Y-64940223D01*
X137681000Y-65295777D01*
X137750365Y-65644499D01*
X137886429Y-65972988D01*
X138083965Y-66268621D01*
X138335379Y-66520035D01*
X138631012Y-66717571D01*
X138959501Y-66853635D01*
X139308223Y-66923000D01*
X139663777Y-66923000D01*
X140012499Y-66853635D01*
X140340988Y-66717571D01*
X140636621Y-66520035D01*
X140888035Y-66268621D01*
X141085571Y-65972988D01*
X141221635Y-65644499D01*
X141291000Y-65295777D01*
X141291000Y-64940223D01*
X141221635Y-64591501D01*
X141085571Y-64263012D01*
X140888035Y-63967379D01*
X140636621Y-63715965D01*
X140340988Y-63518429D01*
X140012499Y-63382365D01*
X139663777Y-63313000D01*
X139308223Y-63313000D01*
X138959501Y-63382365D01*
X138631012Y-63518429D01*
X138335379Y-63715965D01*
X138083965Y-63967379D01*
X137886429Y-64263012D01*
X137750365Y-64591501D01*
X137681000Y-64940223D01*
X121060000Y-64940223D01*
X121060000Y-62917327D01*
X121219720Y-62917327D01*
X121219720Y-63239393D01*
X121282552Y-63555272D01*
X121405802Y-63852823D01*
X121584733Y-64120612D01*
X121812468Y-64348347D01*
X122080257Y-64527278D01*
X122377808Y-64650528D01*
X122693687Y-64713360D01*
X123015753Y-64713360D01*
X123331632Y-64650528D01*
X123629183Y-64527278D01*
X123896972Y-64348347D01*
X124124707Y-64120612D01*
X124303638Y-63852823D01*
X124426888Y-63555272D01*
X124489720Y-63239393D01*
X124489720Y-62917327D01*
X127719720Y-62917327D01*
X127719720Y-63239393D01*
X127782552Y-63555272D01*
X127905802Y-63852823D01*
X128084733Y-64120612D01*
X128312468Y-64348347D01*
X128580257Y-64527278D01*
X128877808Y-64650528D01*
X129193687Y-64713360D01*
X129515753Y-64713360D01*
X129831632Y-64650528D01*
X130129183Y-64527278D01*
X130396972Y-64348347D01*
X130624707Y-64120612D01*
X130803638Y-63852823D01*
X130926888Y-63555272D01*
X130989720Y-63239393D01*
X130989720Y-62917327D01*
X130926888Y-62601448D01*
X130803638Y-62303897D01*
X130624707Y-62036108D01*
X130457671Y-61869072D01*
X131560000Y-61869072D01*
X131684482Y-61856812D01*
X131804180Y-61820502D01*
X131914494Y-61761537D01*
X132011185Y-61682185D01*
X132090537Y-61585494D01*
X132149502Y-61475180D01*
X132185812Y-61355482D01*
X132198072Y-61231000D01*
X132198072Y-60181000D01*
X132185812Y-60056518D01*
X132149502Y-59936820D01*
X132114907Y-59872098D01*
X132178215Y-59663400D01*
X132200612Y-59436000D01*
X132178215Y-59208600D01*
X132111885Y-58989940D01*
X132011071Y-58801331D01*
X132052275Y-58742882D01*
X132145272Y-58533337D01*
X132153964Y-58471810D01*
X132028163Y-58293000D01*
X131263109Y-58293000D01*
X131262400Y-58292785D01*
X131091979Y-58276000D01*
X130528021Y-58276000D01*
X130357600Y-58292785D01*
X130356891Y-58293000D01*
X129591837Y-58293000D01*
X129466036Y-58471810D01*
X129474728Y-58533337D01*
X129567725Y-58742882D01*
X129608929Y-58801331D01*
X129508115Y-58989940D01*
X129441785Y-59208600D01*
X129419388Y-59436000D01*
X129441785Y-59663400D01*
X129505093Y-59872098D01*
X129470498Y-59936820D01*
X129434188Y-60056518D01*
X129421928Y-60181000D01*
X129421928Y-61231000D01*
X129434188Y-61355482D01*
X129460846Y-61443360D01*
X129193687Y-61443360D01*
X128877808Y-61506192D01*
X128580257Y-61629442D01*
X128312468Y-61808373D01*
X128084733Y-62036108D01*
X127905802Y-62303897D01*
X127782552Y-62601448D01*
X127719720Y-62917327D01*
X124489720Y-62917327D01*
X124426888Y-62601448D01*
X124303638Y-62303897D01*
X124124707Y-62036108D01*
X123995345Y-61906746D01*
X124050537Y-61839494D01*
X124109502Y-61729180D01*
X124145812Y-61609482D01*
X124158072Y-61485000D01*
X124158072Y-60435000D01*
X124145812Y-60310518D01*
X124109502Y-60190820D01*
X124074907Y-60126098D01*
X124138215Y-59917400D01*
X124160612Y-59690000D01*
X124138215Y-59462600D01*
X124071885Y-59243940D01*
X123971071Y-59055331D01*
X124012275Y-58996882D01*
X124105272Y-58787337D01*
X124113964Y-58725810D01*
X123988164Y-58547002D01*
X124155000Y-58547002D01*
X124155000Y-58497572D01*
X125733380Y-58497572D01*
X125857862Y-58485312D01*
X125977560Y-58449002D01*
X126087874Y-58390037D01*
X126184565Y-58310685D01*
X126263917Y-58213994D01*
X126322882Y-58103680D01*
X126328436Y-58085373D01*
X126394875Y-58151812D01*
X126646285Y-58319799D01*
X126925637Y-58435511D01*
X127222196Y-58494500D01*
X127524564Y-58494500D01*
X127821123Y-58435511D01*
X128100475Y-58319799D01*
X128351885Y-58151812D01*
X128565692Y-57938005D01*
X128617686Y-57860190D01*
X129466036Y-57860190D01*
X129591837Y-58039000D01*
X130683000Y-58039000D01*
X130683000Y-57159402D01*
X130937000Y-57159402D01*
X130937000Y-58039000D01*
X132028163Y-58039000D01*
X132153964Y-57860190D01*
X132145272Y-57798663D01*
X132052275Y-57589118D01*
X131920184Y-57401742D01*
X131754076Y-57243736D01*
X131560334Y-57121172D01*
X131346404Y-57038761D01*
X131120507Y-56999669D01*
X130937000Y-57159402D01*
X130683000Y-57159402D01*
X130499493Y-56999669D01*
X130273596Y-57038761D01*
X130059666Y-57121172D01*
X129865924Y-57243736D01*
X129699816Y-57401742D01*
X129567725Y-57589118D01*
X129474728Y-57798663D01*
X129466036Y-57860190D01*
X128617686Y-57860190D01*
X128733679Y-57686595D01*
X128849391Y-57407243D01*
X128908380Y-57110684D01*
X128908380Y-56808316D01*
X128849391Y-56511757D01*
X128792580Y-56374602D01*
X135909003Y-56374602D01*
X136025275Y-56656389D01*
X136343860Y-56814257D01*
X136687122Y-56906938D01*
X137041869Y-56930873D01*
X137394470Y-56885139D01*
X137731373Y-56771495D01*
X137946725Y-56656389D01*
X138062997Y-56374602D01*
X136986000Y-55297605D01*
X135909003Y-56374602D01*
X128792580Y-56374602D01*
X128733679Y-56232405D01*
X128565692Y-55980995D01*
X128351885Y-55767188D01*
X128100475Y-55599201D01*
X127821123Y-55483489D01*
X127524564Y-55424500D01*
X127222196Y-55424500D01*
X126925637Y-55483489D01*
X126646285Y-55599201D01*
X126394875Y-55767188D01*
X126328436Y-55833627D01*
X126322882Y-55815320D01*
X126263917Y-55705006D01*
X126184565Y-55608315D01*
X126087874Y-55528963D01*
X125977560Y-55469998D01*
X125857862Y-55433688D01*
X125733380Y-55421428D01*
X123933380Y-55421428D01*
X123808898Y-55433688D01*
X123689200Y-55469998D01*
X123578886Y-55528963D01*
X123482195Y-55608315D01*
X123402843Y-55705006D01*
X123343878Y-55815320D01*
X123307568Y-55935018D01*
X123295308Y-56059500D01*
X123295308Y-57290841D01*
X123080507Y-57253669D01*
X122897000Y-57413402D01*
X122897000Y-58293000D01*
X122917000Y-58293000D01*
X122917000Y-58530000D01*
X122488021Y-58530000D01*
X122317600Y-58546785D01*
X122316891Y-58547000D01*
X121551837Y-58547000D01*
X121426036Y-58725810D01*
X121434728Y-58787337D01*
X121527725Y-58996882D01*
X121568929Y-59055331D01*
X121468115Y-59243940D01*
X121401785Y-59462600D01*
X121379388Y-59690000D01*
X121401785Y-59917400D01*
X121465093Y-60126098D01*
X121430498Y-60190820D01*
X121394188Y-60310518D01*
X121381928Y-60435000D01*
X121381928Y-61485000D01*
X121394188Y-61609482D01*
X121430498Y-61729180D01*
X121489463Y-61839494D01*
X121568815Y-61936185D01*
X121632440Y-61988401D01*
X121584733Y-62036108D01*
X121405802Y-62303897D01*
X121282552Y-62601448D01*
X121219720Y-62917327D01*
X121060000Y-62917327D01*
X121060000Y-58114190D01*
X121426036Y-58114190D01*
X121551837Y-58293000D01*
X122643000Y-58293000D01*
X122643000Y-57413402D01*
X122459493Y-57253669D01*
X122233596Y-57292761D01*
X122019666Y-57375172D01*
X121825924Y-57497736D01*
X121659816Y-57655742D01*
X121527725Y-57843118D01*
X121434728Y-58052663D01*
X121426036Y-58114190D01*
X121060000Y-58114190D01*
X121060000Y-55173869D01*
X135173127Y-55173869D01*
X135218861Y-55526470D01*
X135332505Y-55863373D01*
X135447611Y-56078725D01*
X135729398Y-56194997D01*
X136806395Y-55118000D01*
X137165605Y-55118000D01*
X138242602Y-56194997D01*
X138524389Y-56078725D01*
X138682257Y-55760140D01*
X138774938Y-55416878D01*
X138798873Y-55062131D01*
X138783061Y-54940223D01*
X140181000Y-54940223D01*
X140181000Y-55295777D01*
X140250365Y-55644499D01*
X140386429Y-55972988D01*
X140583965Y-56268621D01*
X140835379Y-56520035D01*
X141131012Y-56717571D01*
X141459501Y-56853635D01*
X141808223Y-56923000D01*
X142163777Y-56923000D01*
X142512499Y-56853635D01*
X142840988Y-56717571D01*
X143136621Y-56520035D01*
X143388035Y-56268621D01*
X143585571Y-55972988D01*
X143721635Y-55644499D01*
X143791000Y-55295777D01*
X143791000Y-54940223D01*
X143721635Y-54591501D01*
X143585571Y-54263012D01*
X143388035Y-53967379D01*
X143136621Y-53715965D01*
X142840988Y-53518429D01*
X142512499Y-53382365D01*
X142163777Y-53313000D01*
X141808223Y-53313000D01*
X141459501Y-53382365D01*
X141131012Y-53518429D01*
X140835379Y-53715965D01*
X140583965Y-53967379D01*
X140386429Y-54263012D01*
X140250365Y-54591501D01*
X140181000Y-54940223D01*
X138783061Y-54940223D01*
X138753139Y-54709530D01*
X138639495Y-54372627D01*
X138524389Y-54157275D01*
X138242602Y-54041003D01*
X137165605Y-55118000D01*
X136806395Y-55118000D01*
X135729398Y-54041003D01*
X135447611Y-54157275D01*
X135289743Y-54475860D01*
X135197062Y-54819122D01*
X135173127Y-55173869D01*
X121060000Y-55173869D01*
X121060000Y-54134211D01*
X121133226Y-54207437D01*
X121302744Y-54320705D01*
X121491102Y-54398726D01*
X121691061Y-54438500D01*
X121894939Y-54438500D01*
X122094898Y-54398726D01*
X122283256Y-54320705D01*
X122452774Y-54207437D01*
X122596937Y-54063274D01*
X122710205Y-53893756D01*
X122723608Y-53861398D01*
X135909003Y-53861398D01*
X136986000Y-54938395D01*
X138062997Y-53861398D01*
X137946725Y-53579611D01*
X137628140Y-53421743D01*
X137284878Y-53329062D01*
X136930131Y-53305127D01*
X136577530Y-53350861D01*
X136240627Y-53464505D01*
X136025275Y-53579611D01*
X135909003Y-53861398D01*
X122723608Y-53861398D01*
X122788226Y-53705398D01*
X122828000Y-53505439D01*
X122828000Y-53301561D01*
X122788226Y-53101602D01*
X122710205Y-52913244D01*
X122627240Y-52789077D01*
X122615918Y-52674126D01*
X122568172Y-52516728D01*
X122490636Y-52371669D01*
X122386291Y-52244524D01*
X122354426Y-52218373D01*
X121644631Y-51508579D01*
X121618476Y-51476709D01*
X121491331Y-51372364D01*
X121346272Y-51294828D01*
X121188874Y-51247082D01*
X121066204Y-51235000D01*
X121066203Y-51235000D01*
X121025185Y-51230960D01*
X120984167Y-51235000D01*
X119242542Y-51235000D01*
X119392012Y-51011302D01*
X119552953Y-50622756D01*
X119635000Y-50210279D01*
X119635000Y-49789721D01*
X119552953Y-49377244D01*
X119392012Y-48988698D01*
X119158363Y-48639017D01*
X118860983Y-48341637D01*
X118511302Y-48107988D01*
X118122756Y-47947047D01*
X117710279Y-47865000D01*
X117289721Y-47865000D01*
X116877244Y-47947047D01*
X116488698Y-48107988D01*
X116139017Y-48341637D01*
X115841637Y-48639017D01*
X115607988Y-48988698D01*
X115447047Y-49377244D01*
X115365000Y-49789721D01*
X115365000Y-50210279D01*
X115447047Y-50622756D01*
X115607988Y-51011302D01*
X115757458Y-51235000D01*
X115153869Y-51235000D01*
X114181093Y-50262225D01*
X114152226Y-50117102D01*
X114074205Y-49928744D01*
X113960937Y-49759226D01*
X113816774Y-49615063D01*
X113647256Y-49501795D01*
X113458898Y-49423774D01*
X113258939Y-49384000D01*
X113055061Y-49384000D01*
X112855102Y-49423774D01*
X112666744Y-49501795D01*
X112497226Y-49615063D01*
X112353063Y-49759226D01*
X112239795Y-49928744D01*
X112161774Y-50117102D01*
X112122000Y-50317061D01*
X112122000Y-50520939D01*
X112161774Y-50720898D01*
X112239795Y-50909256D01*
X112353063Y-51078774D01*
X112497226Y-51222937D01*
X112666744Y-51336205D01*
X112855102Y-51414226D01*
X113000225Y-51443093D01*
X113897131Y-52340000D01*
X39660000Y-52340000D01*
X39660000Y-49789721D01*
X40365900Y-49789721D01*
X40365900Y-50210279D01*
X40447947Y-50622756D01*
X40608888Y-51011302D01*
X40842537Y-51360983D01*
X41139917Y-51658363D01*
X41489598Y-51892012D01*
X41878144Y-52052953D01*
X42290621Y-52135000D01*
X42711179Y-52135000D01*
X43123656Y-52052953D01*
X43512202Y-51892012D01*
X43861883Y-51658363D01*
X44159263Y-51360983D01*
X44392912Y-51011302D01*
X44553853Y-50622756D01*
X44635900Y-50210279D01*
X44635900Y-49789721D01*
X44553853Y-49377244D01*
X44392912Y-48988698D01*
X44200011Y-48700000D01*
X46461928Y-48700000D01*
X46465000Y-49714250D01*
X46473000Y-49722250D01*
X46473000Y-50277750D01*
X46465000Y-50285750D01*
X46461928Y-51300000D01*
X46473000Y-51412420D01*
X46473000Y-51792500D01*
X46475294Y-51816530D01*
X46482378Y-51840397D01*
X46493983Y-51862424D01*
X46509661Y-51881763D01*
X46528812Y-51897672D01*
X46550697Y-51909540D01*
X46574478Y-51916909D01*
X46599240Y-51919498D01*
X46961862Y-51921669D01*
X46975518Y-51925812D01*
X47100000Y-51938072D01*
X47714250Y-51935000D01*
X47723023Y-51926227D01*
X48280314Y-51929564D01*
X48285750Y-51935000D01*
X48900000Y-51938072D01*
X48945915Y-51933550D01*
X49104240Y-51934498D01*
X49129776Y-51932060D01*
X49153601Y-51924833D01*
X49175557Y-51913097D01*
X49194803Y-51897303D01*
X49210597Y-51878057D01*
X49222333Y-51856101D01*
X49225364Y-51846107D01*
X49254494Y-51830537D01*
X49351185Y-51751185D01*
X49430537Y-51654494D01*
X49489502Y-51544180D01*
X49494495Y-51527720D01*
X49683074Y-51682481D01*
X49949740Y-51825017D01*
X50239088Y-51912790D01*
X50540000Y-51942427D01*
X50840913Y-51912790D01*
X51130261Y-51825017D01*
X51396927Y-51682481D01*
X51630661Y-51490661D01*
X51810000Y-51272135D01*
X51989339Y-51490661D01*
X52223074Y-51682481D01*
X52489740Y-51825017D01*
X52779088Y-51912790D01*
X53080000Y-51942427D01*
X53380913Y-51912790D01*
X53670261Y-51825017D01*
X53936927Y-51682481D01*
X54170661Y-51490661D01*
X54350000Y-51272135D01*
X54529339Y-51490661D01*
X54763074Y-51682481D01*
X55029740Y-51825017D01*
X55319088Y-51912790D01*
X55620000Y-51942427D01*
X55920913Y-51912790D01*
X56210261Y-51825017D01*
X56476927Y-51682481D01*
X56710661Y-51490661D01*
X56894781Y-51266309D01*
X56954252Y-51358396D01*
X57164394Y-51575210D01*
X57412796Y-51746862D01*
X57689913Y-51866755D01*
X57795260Y-51891036D01*
X58033000Y-51770378D01*
X58033000Y-50127000D01*
X58013000Y-50127000D01*
X58013000Y-49873000D01*
X58033000Y-49873000D01*
X58033000Y-48229622D01*
X58287000Y-48229622D01*
X58287000Y-49873000D01*
X58307000Y-49873000D01*
X58307000Y-50127000D01*
X58287000Y-50127000D01*
X58287000Y-51770378D01*
X58524740Y-51891036D01*
X58630087Y-51866755D01*
X58907204Y-51746862D01*
X59155606Y-51575210D01*
X59365748Y-51358396D01*
X59425219Y-51266309D01*
X59609339Y-51490661D01*
X59843074Y-51682481D01*
X60109740Y-51825017D01*
X60399088Y-51912790D01*
X60700000Y-51942427D01*
X61000913Y-51912790D01*
X61290261Y-51825017D01*
X61556927Y-51682481D01*
X61790661Y-51490661D01*
X61970000Y-51272135D01*
X62149339Y-51490661D01*
X62383074Y-51682481D01*
X62649740Y-51825017D01*
X62939088Y-51912790D01*
X63240000Y-51942427D01*
X63540913Y-51912790D01*
X63830261Y-51825017D01*
X64096927Y-51682481D01*
X64330661Y-51490661D01*
X64510000Y-51272135D01*
X64689339Y-51490661D01*
X64923074Y-51682481D01*
X65189740Y-51825017D01*
X65479088Y-51912790D01*
X65780000Y-51942427D01*
X66080913Y-51912790D01*
X66370261Y-51825017D01*
X66636927Y-51682481D01*
X66870661Y-51490661D01*
X67050000Y-51272135D01*
X67229339Y-51490661D01*
X67463074Y-51682481D01*
X67729740Y-51825017D01*
X68019088Y-51912790D01*
X68320000Y-51942427D01*
X68620913Y-51912790D01*
X68910261Y-51825017D01*
X69176927Y-51682481D01*
X69410661Y-51490661D01*
X69590000Y-51272135D01*
X69769339Y-51490661D01*
X70003074Y-51682481D01*
X70269740Y-51825017D01*
X70559088Y-51912790D01*
X70860000Y-51942427D01*
X71160913Y-51912790D01*
X71450261Y-51825017D01*
X71716927Y-51682481D01*
X71950661Y-51490661D01*
X72130000Y-51272135D01*
X72309339Y-51490661D01*
X72543074Y-51682481D01*
X72809740Y-51825017D01*
X73099088Y-51912790D01*
X73400000Y-51942427D01*
X73700913Y-51912790D01*
X73990261Y-51825017D01*
X74256927Y-51682481D01*
X74490661Y-51490661D01*
X74670000Y-51272135D01*
X74849339Y-51490661D01*
X75083074Y-51682481D01*
X75349740Y-51825017D01*
X75639088Y-51912790D01*
X75940000Y-51942427D01*
X76240913Y-51912790D01*
X76530261Y-51825017D01*
X76796927Y-51682481D01*
X77030661Y-51490661D01*
X77210000Y-51272135D01*
X77389339Y-51490661D01*
X77623074Y-51682481D01*
X77889740Y-51825017D01*
X78179088Y-51912790D01*
X78480000Y-51942427D01*
X78780913Y-51912790D01*
X79070261Y-51825017D01*
X79336927Y-51682481D01*
X79570661Y-51490661D01*
X79750000Y-51272135D01*
X79929339Y-51490661D01*
X80163074Y-51682481D01*
X80429740Y-51825017D01*
X80719088Y-51912790D01*
X81020000Y-51942427D01*
X81320913Y-51912790D01*
X81610261Y-51825017D01*
X81876927Y-51682481D01*
X82110661Y-51490661D01*
X82290000Y-51272135D01*
X82469339Y-51490661D01*
X82703074Y-51682481D01*
X82969740Y-51825017D01*
X83259088Y-51912790D01*
X83560000Y-51942427D01*
X83860913Y-51912790D01*
X84150261Y-51825017D01*
X84416927Y-51682481D01*
X84650661Y-51490661D01*
X84830000Y-51272135D01*
X85009339Y-51490661D01*
X85243074Y-51682481D01*
X85509740Y-51825017D01*
X85799088Y-51912790D01*
X86100000Y-51942427D01*
X86400913Y-51912790D01*
X86690261Y-51825017D01*
X86956927Y-51682481D01*
X87190661Y-51490661D01*
X87382481Y-51256927D01*
X87525017Y-50990261D01*
X87612790Y-50700913D01*
X87635000Y-50475407D01*
X87635000Y-49524592D01*
X87612790Y-49299087D01*
X87525017Y-49009739D01*
X87382481Y-48743073D01*
X87190661Y-48509339D01*
X86956926Y-48317519D01*
X86690260Y-48174983D01*
X86400912Y-48087210D01*
X86100000Y-48057573D01*
X85799087Y-48087210D01*
X85509739Y-48174983D01*
X85243073Y-48317519D01*
X85009339Y-48509339D01*
X84830000Y-48727865D01*
X84650661Y-48509339D01*
X84416926Y-48317519D01*
X84150260Y-48174983D01*
X83860912Y-48087210D01*
X83560000Y-48057573D01*
X83259087Y-48087210D01*
X82969739Y-48174983D01*
X82703073Y-48317519D01*
X82469339Y-48509339D01*
X82290000Y-48727865D01*
X82110661Y-48509339D01*
X81876926Y-48317519D01*
X81610260Y-48174983D01*
X81320912Y-48087210D01*
X81020000Y-48057573D01*
X80719087Y-48087210D01*
X80429739Y-48174983D01*
X80163073Y-48317519D01*
X79929339Y-48509339D01*
X79750000Y-48727865D01*
X79570661Y-48509339D01*
X79336926Y-48317519D01*
X79070260Y-48174983D01*
X78780912Y-48087210D01*
X78480000Y-48057573D01*
X78179087Y-48087210D01*
X77889739Y-48174983D01*
X77623073Y-48317519D01*
X77389339Y-48509339D01*
X77210000Y-48727865D01*
X77030661Y-48509339D01*
X76796926Y-48317519D01*
X76530260Y-48174983D01*
X76240912Y-48087210D01*
X75940000Y-48057573D01*
X75639087Y-48087210D01*
X75349739Y-48174983D01*
X75083073Y-48317519D01*
X74849339Y-48509339D01*
X74670000Y-48727865D01*
X74490661Y-48509339D01*
X74256926Y-48317519D01*
X73990260Y-48174983D01*
X73700912Y-48087210D01*
X73400000Y-48057573D01*
X73099087Y-48087210D01*
X72809739Y-48174983D01*
X72543073Y-48317519D01*
X72309339Y-48509339D01*
X72130000Y-48727865D01*
X71950661Y-48509339D01*
X71716926Y-48317519D01*
X71450260Y-48174983D01*
X71160912Y-48087210D01*
X70860000Y-48057573D01*
X70559087Y-48087210D01*
X70269739Y-48174983D01*
X70003073Y-48317519D01*
X69769339Y-48509339D01*
X69590000Y-48727865D01*
X69410661Y-48509339D01*
X69176926Y-48317519D01*
X68910260Y-48174983D01*
X68620912Y-48087210D01*
X68320000Y-48057573D01*
X68019087Y-48087210D01*
X67729739Y-48174983D01*
X67463073Y-48317519D01*
X67229339Y-48509339D01*
X67050000Y-48727865D01*
X66870661Y-48509339D01*
X66636926Y-48317519D01*
X66370260Y-48174983D01*
X66080912Y-48087210D01*
X65780000Y-48057573D01*
X65479087Y-48087210D01*
X65189739Y-48174983D01*
X64923073Y-48317519D01*
X64689339Y-48509339D01*
X64510000Y-48727865D01*
X64330661Y-48509339D01*
X64096926Y-48317519D01*
X63830260Y-48174983D01*
X63540912Y-48087210D01*
X63240000Y-48057573D01*
X62939087Y-48087210D01*
X62649739Y-48174983D01*
X62383073Y-48317519D01*
X62149339Y-48509339D01*
X61970000Y-48727865D01*
X61790661Y-48509339D01*
X61556926Y-48317519D01*
X61290260Y-48174983D01*
X61000912Y-48087210D01*
X60700000Y-48057573D01*
X60399087Y-48087210D01*
X60109739Y-48174983D01*
X59843073Y-48317519D01*
X59609339Y-48509339D01*
X59425219Y-48733692D01*
X59365748Y-48641604D01*
X59155606Y-48424790D01*
X58907204Y-48253138D01*
X58630087Y-48133245D01*
X58524740Y-48108964D01*
X58287000Y-48229622D01*
X58033000Y-48229622D01*
X57795260Y-48108964D01*
X57689913Y-48133245D01*
X57412796Y-48253138D01*
X57164394Y-48424790D01*
X56954252Y-48641604D01*
X56894781Y-48733691D01*
X56710661Y-48509339D01*
X56476926Y-48317519D01*
X56210260Y-48174983D01*
X55920912Y-48087210D01*
X55620000Y-48057573D01*
X55319087Y-48087210D01*
X55029739Y-48174983D01*
X54763073Y-48317519D01*
X54529339Y-48509339D01*
X54350000Y-48727865D01*
X54170661Y-48509339D01*
X53936926Y-48317519D01*
X53670260Y-48174983D01*
X53380912Y-48087210D01*
X53080000Y-48057573D01*
X52779087Y-48087210D01*
X52489739Y-48174983D01*
X52223073Y-48317519D01*
X51989339Y-48509339D01*
X51810000Y-48727865D01*
X51630661Y-48509339D01*
X51396926Y-48317519D01*
X51130260Y-48174983D01*
X50840912Y-48087210D01*
X50540000Y-48057573D01*
X50239087Y-48087210D01*
X49949739Y-48174983D01*
X49683073Y-48317519D01*
X49494495Y-48472280D01*
X49489502Y-48455820D01*
X49430537Y-48345506D01*
X49351185Y-48248815D01*
X49254494Y-48169463D01*
X49144180Y-48110498D01*
X49024482Y-48074188D01*
X48900000Y-48061928D01*
X48285750Y-48065000D01*
X48127000Y-48223750D01*
X48127000Y-48375733D01*
X47873000Y-48373198D01*
X47873000Y-48223750D01*
X47714250Y-48065000D01*
X47100000Y-48061928D01*
X46975518Y-48074188D01*
X46855820Y-48110498D01*
X46745506Y-48169463D01*
X46648815Y-48248815D01*
X46569463Y-48345506D01*
X46557226Y-48368399D01*
X46551399Y-48370167D01*
X46529443Y-48381903D01*
X46510197Y-48397697D01*
X46494403Y-48416943D01*
X46482667Y-48438899D01*
X46475440Y-48462724D01*
X46473000Y-48487500D01*
X46473000Y-48587580D01*
X46461928Y-48700000D01*
X44200011Y-48700000D01*
X44159263Y-48639017D01*
X43861883Y-48341637D01*
X43512202Y-48107988D01*
X43123656Y-47947047D01*
X42711179Y-47865000D01*
X42290621Y-47865000D01*
X41878144Y-47947047D01*
X41489598Y-48107988D01*
X41139917Y-48341637D01*
X40842537Y-48639017D01*
X40608888Y-48988698D01*
X40447947Y-49377244D01*
X40365900Y-49789721D01*
X39660000Y-49789721D01*
X39660000Y-45040000D01*
X146660000Y-45040000D01*
X146660001Y-82969500D01*
G37*
X146660001Y-82969500D02*
X120510671Y-82969500D01*
X120448452Y-79645000D01*
X121103572Y-79645000D01*
X121103572Y-82615000D01*
X131716429Y-82615000D01*
X131716429Y-79645000D01*
X121103572Y-79645000D01*
X120448452Y-79645000D01*
X120433638Y-78853512D01*
X120523823Y-78780442D01*
X120566399Y-78738433D01*
X120609568Y-78697014D01*
X120615514Y-78689974D01*
X120737910Y-78542990D01*
X120771537Y-78493482D01*
X120805819Y-78444493D01*
X120810285Y-78436432D01*
X120901800Y-78268473D01*
X120925159Y-78213399D01*
X120949282Y-78158666D01*
X120952097Y-78149891D01*
X121009246Y-77967356D01*
X121021461Y-77908807D01*
X121034496Y-77850416D01*
X121035553Y-77841262D01*
X121049507Y-77712493D01*
X121050450Y-77709383D01*
X121060000Y-77612419D01*
X121060000Y-77090773D01*
X121898912Y-77090773D01*
X121994676Y-77355174D01*
X122284291Y-77496064D01*
X122595828Y-77577744D01*
X122917315Y-77597078D01*
X123236395Y-77553321D01*
X123540808Y-77448155D01*
X123714764Y-77355174D01*
X123810528Y-77090773D01*
X128398912Y-77090773D01*
X128494676Y-77355174D01*
X128784291Y-77496064D01*
X129095828Y-77577744D01*
X129417315Y-77597078D01*
X129736395Y-77553321D01*
X130040808Y-77448155D01*
X130214764Y-77355174D01*
X130310528Y-77090773D01*
X129354720Y-76134965D01*
X128398912Y-77090773D01*
X123810528Y-77090773D01*
X122854720Y-76134965D01*
X121898912Y-77090773D01*
X121060000Y-77090773D01*
X121060000Y-76017955D01*
X121213002Y-76017955D01*
X121256759Y-76337035D01*
X121361925Y-76641448D01*
X121454906Y-76815404D01*
X121719307Y-76911168D01*
X122675115Y-75955360D01*
X123034325Y-75955360D01*
X123990133Y-76911168D01*
X124254534Y-76815404D01*
X124395424Y-76525789D01*
X124477104Y-76214252D01*
X124488909Y-76017955D01*
X127713002Y-76017955D01*
X127756759Y-76337035D01*
X127861925Y-76641448D01*
X127954906Y-76815404D01*
X128219307Y-76911168D01*
X129175115Y-75955360D01*
X129534325Y-75955360D01*
X130490133Y-76911168D01*
X130754534Y-76815404D01*
X130895424Y-76525789D01*
X130977104Y-76214252D01*
X130996438Y-75892765D01*
X130952681Y-75573685D01*
X130847515Y-75269272D01*
X130754534Y-75095316D01*
X130490133Y-74999552D01*
X129534325Y-75955360D01*
X129175115Y-75955360D01*
X128219307Y-74999552D01*
X127954906Y-75095316D01*
X127814016Y-75384931D01*
X127732336Y-75696468D01*
X127713002Y-76017955D01*
X124488909Y-76017955D01*
X124496438Y-75892765D01*
X124452681Y-75573685D01*
X124347515Y-75269272D01*
X124254534Y-75095316D01*
X123990133Y-74999552D01*
X123034325Y-75955360D01*
X122675115Y-75955360D01*
X121719307Y-74999552D01*
X121454906Y-75095316D01*
X121314016Y-75384931D01*
X121232336Y-75696468D01*
X121213002Y-76017955D01*
X121060000Y-76017955D01*
X121060000Y-74819947D01*
X121898912Y-74819947D01*
X122854720Y-75775755D01*
X123810528Y-74819947D01*
X128398912Y-74819947D01*
X129354720Y-75775755D01*
X130310528Y-74819947D01*
X130214764Y-74555546D01*
X129925149Y-74414656D01*
X129613612Y-74332976D01*
X129292125Y-74313642D01*
X128973045Y-74357399D01*
X128668632Y-74462565D01*
X128494676Y-74555546D01*
X128398912Y-74819947D01*
X123810528Y-74819947D01*
X123714764Y-74555546D01*
X123425149Y-74414656D01*
X123113612Y-74332976D01*
X122792125Y-74313642D01*
X122473045Y-74357399D01*
X122168632Y-74462565D01*
X121994676Y-74555546D01*
X121898912Y-74819947D01*
X121060000Y-74819947D01*
X121060000Y-71294327D01*
X121219720Y-71294327D01*
X121219720Y-71616393D01*
X121282552Y-71932272D01*
X121405802Y-72229823D01*
X121584733Y-72497612D01*
X121812468Y-72725347D01*
X122080257Y-72904278D01*
X122377808Y-73027528D01*
X122693687Y-73090360D01*
X123015753Y-73090360D01*
X123331632Y-73027528D01*
X123629183Y-72904278D01*
X123896972Y-72725347D01*
X124124707Y-72497612D01*
X124303638Y-72229823D01*
X124426888Y-71932272D01*
X124489720Y-71616393D01*
X124489720Y-71294327D01*
X127719720Y-71294327D01*
X127719720Y-71616393D01*
X127782552Y-71932272D01*
X127905802Y-72229823D01*
X128084733Y-72497612D01*
X128312468Y-72725347D01*
X128580257Y-72904278D01*
X128877808Y-73027528D01*
X129193687Y-73090360D01*
X129515753Y-73090360D01*
X129831632Y-73027528D01*
X130129183Y-72904278D01*
X130396972Y-72725347D01*
X130624707Y-72497612D01*
X130803638Y-72229823D01*
X130926888Y-71932272D01*
X130989720Y-71616393D01*
X130989720Y-71294327D01*
X130926888Y-70978448D01*
X130803638Y-70680897D01*
X130624707Y-70413108D01*
X130396972Y-70185373D01*
X130129183Y-70006442D01*
X129831632Y-69883192D01*
X129515753Y-69820360D01*
X129193687Y-69820360D01*
X128877808Y-69883192D01*
X128580257Y-70006442D01*
X128312468Y-70185373D01*
X128084733Y-70413108D01*
X127905802Y-70680897D01*
X127782552Y-70978448D01*
X127719720Y-71294327D01*
X124489720Y-71294327D01*
X124426888Y-70978448D01*
X124303638Y-70680897D01*
X124124707Y-70413108D01*
X123896972Y-70185373D01*
X123629183Y-70006442D01*
X123331632Y-69883192D01*
X123015753Y-69820360D01*
X122693687Y-69820360D01*
X122377808Y-69883192D01*
X122080257Y-70006442D01*
X121812468Y-70185373D01*
X121584733Y-70413108D01*
X121405802Y-70680897D01*
X121282552Y-70978448D01*
X121219720Y-71294327D01*
X121060000Y-71294327D01*
X121060000Y-68713773D01*
X121898912Y-68713773D01*
X121994676Y-68978174D01*
X122284291Y-69119064D01*
X122595828Y-69200744D01*
X122917315Y-69220078D01*
X123236395Y-69176321D01*
X123540808Y-69071155D01*
X123714764Y-68978174D01*
X123810528Y-68713773D01*
X128398912Y-68713773D01*
X128494676Y-68978174D01*
X128784291Y-69119064D01*
X129095828Y-69200744D01*
X129417315Y-69220078D01*
X129736395Y-69176321D01*
X130040808Y-69071155D01*
X130214764Y-68978174D01*
X130256298Y-68863500D01*
X132017928Y-68863500D01*
X132017928Y-71663500D01*
X132030188Y-71787982D01*
X132053096Y-71863500D01*
X132030188Y-71939018D01*
X132017928Y-72063500D01*
X132017928Y-72463500D01*
X132030188Y-72587982D01*
X132066498Y-72707680D01*
X132125463Y-72817994D01*
X132162809Y-72863500D01*
X132125463Y-72909006D01*
X132066498Y-73019320D01*
X132030188Y-73139018D01*
X132017928Y-73263500D01*
X132017928Y-74863500D01*
X132030188Y-74987982D01*
X132053096Y-75063500D01*
X132030188Y-75139018D01*
X132017928Y-75263500D01*
X132017928Y-75663500D01*
X132030188Y-75787982D01*
X132066498Y-75907680D01*
X132125463Y-76017994D01*
X132204815Y-76114685D01*
X132301506Y-76194037D01*
X132411820Y-76253002D01*
X132417928Y-76254855D01*
X132417928Y-76272145D01*
X132411820Y-76273998D01*
X132301506Y-76332963D01*
X132204815Y-76412315D01*
X132125463Y-76509006D01*
X132066498Y-76619320D01*
X132030188Y-76739018D01*
X132017928Y-76863500D01*
X132017928Y-77263500D01*
X132030188Y-77387982D01*
X132053096Y-77463500D01*
X132030188Y-77539018D01*
X132017928Y-77663500D01*
X132017928Y-78063500D01*
X132030188Y-78187982D01*
X132053096Y-78263500D01*
X132030188Y-78339018D01*
X132017928Y-78463500D01*
X132017928Y-78863500D01*
X132030188Y-78987982D01*
X132053096Y-79063500D01*
X132030188Y-79139018D01*
X132017928Y-79263500D01*
X132017928Y-82063500D01*
X132030188Y-82187982D01*
X132066498Y-82307680D01*
X132125463Y-82417994D01*
X132204815Y-82514685D01*
X132301506Y-82594037D01*
X132411820Y-82653002D01*
X132531518Y-82689312D01*
X132656000Y-82701572D01*
X135456000Y-82701572D01*
X135580482Y-82689312D01*
X135656000Y-82666404D01*
X135731518Y-82689312D01*
X135856000Y-82701572D01*
X137056000Y-82701572D01*
X137180482Y-82689312D01*
X137300180Y-82653002D01*
X137410494Y-82594037D01*
X137507185Y-82514685D01*
X137586537Y-82417994D01*
X137645502Y-82307680D01*
X137656000Y-82273073D01*
X137666498Y-82307680D01*
X137725463Y-82417994D01*
X137804815Y-82514685D01*
X137901506Y-82594037D01*
X138011820Y-82653002D01*
X138131518Y-82689312D01*
X138256000Y-82701572D01*
X139056000Y-82701572D01*
X139180482Y-82689312D01*
X139300180Y-82653002D01*
X139410494Y-82594037D01*
X139507185Y-82514685D01*
X139586537Y-82417994D01*
X139645502Y-82307680D01*
X139647355Y-82301572D01*
X139856000Y-82301572D01*
X139980482Y-82289312D01*
X140100180Y-82253002D01*
X140210494Y-82194037D01*
X140307185Y-82114685D01*
X140386537Y-82017994D01*
X140417928Y-81959267D01*
X140417928Y-82063500D01*
X140430188Y-82187982D01*
X140466498Y-82307680D01*
X140525463Y-82417994D01*
X140604815Y-82514685D01*
X140701506Y-82594037D01*
X140811820Y-82653002D01*
X140931518Y-82689312D01*
X141056000Y-82701572D01*
X141456000Y-82701572D01*
X141580482Y-82689312D01*
X141700180Y-82653002D01*
X141810494Y-82594037D01*
X141856000Y-82556691D01*
X141901506Y-82594037D01*
X142011820Y-82653002D01*
X142131518Y-82689312D01*
X142256000Y-82701572D01*
X142656000Y-82701572D01*
X142780482Y-82689312D01*
X142856000Y-82666404D01*
X142931518Y-82689312D01*
X143056000Y-82701572D01*
X145856000Y-82701572D01*
X145980482Y-82689312D01*
X146100180Y-82653002D01*
X146210494Y-82594037D01*
X146307185Y-82514685D01*
X146386537Y-82417994D01*
X146445502Y-82307680D01*
X146481812Y-82187982D01*
X146494072Y-82063500D01*
X146494072Y-79263500D01*
X146481812Y-79139018D01*
X146458904Y-79063500D01*
X146481812Y-78987982D01*
X146494072Y-78863500D01*
X146494072Y-78463500D01*
X146481812Y-78339018D01*
X146458904Y-78263500D01*
X146481812Y-78187982D01*
X146494072Y-78063500D01*
X146494072Y-77663500D01*
X146481812Y-77539018D01*
X146445502Y-77419320D01*
X146386537Y-77309006D01*
X146307185Y-77212315D01*
X146210494Y-77132963D01*
X146100180Y-77073998D01*
X145980482Y-77037688D01*
X145856000Y-77025428D01*
X145694072Y-77025428D01*
X145694072Y-76701572D01*
X145856000Y-76701572D01*
X145980482Y-76689312D01*
X146100180Y-76653002D01*
X146210494Y-76594037D01*
X146307185Y-76514685D01*
X146386537Y-76417994D01*
X146445502Y-76307680D01*
X146481812Y-76187982D01*
X146494072Y-76063500D01*
X146494072Y-75263500D01*
X146481812Y-75139018D01*
X146458904Y-75063500D01*
X146481812Y-74987982D01*
X146494072Y-74863500D01*
X146494072Y-74463500D01*
X146481812Y-74339018D01*
X146458904Y-74263500D01*
X146481812Y-74187982D01*
X146494072Y-74063500D01*
X146494072Y-73663500D01*
X146481812Y-73539018D01*
X146458904Y-73463500D01*
X146481812Y-73387982D01*
X146494072Y-73263500D01*
X146494072Y-72863500D01*
X146481812Y-72739018D01*
X146458904Y-72663500D01*
X146481812Y-72587982D01*
X146494072Y-72463500D01*
X146494072Y-71663500D01*
X146481812Y-71539018D01*
X146445502Y-71419320D01*
X146386537Y-71309006D01*
X146349191Y-71263500D01*
X146386537Y-71217994D01*
X146445502Y-71107680D01*
X146481812Y-70987982D01*
X146494072Y-70863500D01*
X146494072Y-70463500D01*
X146481812Y-70339018D01*
X146445502Y-70219320D01*
X146386537Y-70109006D01*
X146349191Y-70063500D01*
X146386537Y-70017994D01*
X146445502Y-69907680D01*
X146481812Y-69787982D01*
X146494072Y-69663500D01*
X146494072Y-69263500D01*
X146481812Y-69139018D01*
X146445502Y-69019320D01*
X146386537Y-68909006D01*
X146307185Y-68812315D01*
X146210494Y-68732963D01*
X146100180Y-68673998D01*
X145980482Y-68637688D01*
X145856000Y-68625428D01*
X145456000Y-68625428D01*
X145331518Y-68637688D01*
X145256000Y-68660596D01*
X145180482Y-68637688D01*
X145056000Y-68625428D01*
X144656000Y-68625428D01*
X144531518Y-68637688D01*
X144457853Y-68660034D01*
X144445502Y-68619320D01*
X144386537Y-68509006D01*
X144307185Y-68412315D01*
X144210494Y-68332963D01*
X144100180Y-68273998D01*
X143980482Y-68237688D01*
X143856000Y-68225428D01*
X143456000Y-68225428D01*
X143331518Y-68237688D01*
X143211820Y-68273998D01*
X143101506Y-68332963D01*
X143004815Y-68412315D01*
X142925463Y-68509006D01*
X142866498Y-68619320D01*
X142853772Y-68661272D01*
X142811820Y-68673998D01*
X142701506Y-68732963D01*
X142604815Y-68812315D01*
X142525463Y-68909006D01*
X142494072Y-68967733D01*
X142494072Y-68863500D01*
X142481812Y-68739018D01*
X142445502Y-68619320D01*
X142386537Y-68509006D01*
X142307185Y-68412315D01*
X142210494Y-68332963D01*
X142100180Y-68273998D01*
X141980482Y-68237688D01*
X141856000Y-68225428D01*
X141456000Y-68225428D01*
X141331518Y-68237688D01*
X141256000Y-68260596D01*
X141180482Y-68237688D01*
X141056000Y-68225428D01*
X140256000Y-68225428D01*
X140131518Y-68237688D01*
X140011820Y-68273998D01*
X139901506Y-68332963D01*
X139804815Y-68412315D01*
X139725463Y-68509006D01*
X139666498Y-68619320D01*
X139664645Y-68625428D01*
X139456000Y-68625428D01*
X139331518Y-68637688D01*
X139257853Y-68660034D01*
X139245502Y-68619320D01*
X139186537Y-68509006D01*
X139107185Y-68412315D01*
X139010494Y-68332963D01*
X138900180Y-68273998D01*
X138780482Y-68237688D01*
X138656000Y-68225428D01*
X137856000Y-68225428D01*
X137731518Y-68237688D01*
X137656000Y-68260596D01*
X137580482Y-68237688D01*
X137456000Y-68225428D01*
X136656000Y-68225428D01*
X136531518Y-68237688D01*
X136456000Y-68260596D01*
X136380482Y-68237688D01*
X136256000Y-68225428D01*
X135856000Y-68225428D01*
X135731518Y-68237688D01*
X135656000Y-68260596D01*
X135580482Y-68237688D01*
X135456000Y-68225428D01*
X132656000Y-68225428D01*
X132531518Y-68237688D01*
X132411820Y-68273998D01*
X132301506Y-68332963D01*
X132204815Y-68412315D01*
X132125463Y-68509006D01*
X132066498Y-68619320D01*
X132030188Y-68739018D01*
X132017928Y-68863500D01*
X130256298Y-68863500D01*
X130310528Y-68713773D01*
X129354720Y-67757965D01*
X128398912Y-68713773D01*
X123810528Y-68713773D01*
X122854720Y-67757965D01*
X121898912Y-68713773D01*
X121060000Y-68713773D01*
X121060000Y-67640955D01*
X121213002Y-67640955D01*
X121256759Y-67960035D01*
X121361925Y-68264448D01*
X121454906Y-68438404D01*
X121719307Y-68534168D01*
X122675115Y-67578360D01*
X123034325Y-67578360D01*
X123990133Y-68534168D01*
X124254534Y-68438404D01*
X124395424Y-68148789D01*
X124477104Y-67837252D01*
X124488909Y-67640955D01*
X127713002Y-67640955D01*
X127756759Y-67960035D01*
X127861925Y-68264448D01*
X127954906Y-68438404D01*
X128219307Y-68534168D01*
X129175115Y-67578360D01*
X129534325Y-67578360D01*
X130490133Y-68534168D01*
X130754534Y-68438404D01*
X130895424Y-68148789D01*
X130977104Y-67837252D01*
X130996438Y-67515765D01*
X130952681Y-67196685D01*
X130847515Y-66892272D01*
X130754534Y-66718316D01*
X130490133Y-66622552D01*
X129534325Y-67578360D01*
X129175115Y-67578360D01*
X128219307Y-66622552D01*
X127954906Y-66718316D01*
X127814016Y-67007931D01*
X127732336Y-67319468D01*
X127713002Y-67640955D01*
X124488909Y-67640955D01*
X124496438Y-67515765D01*
X124452681Y-67196685D01*
X124347515Y-66892272D01*
X124254534Y-66718316D01*
X123990133Y-66622552D01*
X123034325Y-67578360D01*
X122675115Y-67578360D01*
X121719307Y-66622552D01*
X121454906Y-66718316D01*
X121314016Y-67007931D01*
X121232336Y-67319468D01*
X121213002Y-67640955D01*
X121060000Y-67640955D01*
X121060000Y-66442947D01*
X121898912Y-66442947D01*
X122854720Y-67398755D01*
X123810528Y-66442947D01*
X128398912Y-66442947D01*
X129354720Y-67398755D01*
X130310528Y-66442947D01*
X130214764Y-66178546D01*
X129925149Y-66037656D01*
X129613612Y-65955976D01*
X129292125Y-65936642D01*
X128973045Y-65980399D01*
X128668632Y-66085565D01*
X128494676Y-66178546D01*
X128398912Y-66442947D01*
X123810528Y-66442947D01*
X123714764Y-66178546D01*
X123425149Y-66037656D01*
X123113612Y-65955976D01*
X122792125Y-65936642D01*
X122473045Y-65980399D01*
X122168632Y-66085565D01*
X121994676Y-66178546D01*
X121898912Y-66442947D01*
X121060000Y-66442947D01*
X121060000Y-64940223D01*
X137681000Y-64940223D01*
X137681000Y-65295777D01*
X137750365Y-65644499D01*
X137886429Y-65972988D01*
X138083965Y-66268621D01*
X138335379Y-66520035D01*
X138631012Y-66717571D01*
X138959501Y-66853635D01*
X139308223Y-66923000D01*
X139663777Y-66923000D01*
X140012499Y-66853635D01*
X140340988Y-66717571D01*
X140636621Y-66520035D01*
X140888035Y-66268621D01*
X141085571Y-65972988D01*
X141221635Y-65644499D01*
X141291000Y-65295777D01*
X141291000Y-64940223D01*
X141221635Y-64591501D01*
X141085571Y-64263012D01*
X140888035Y-63967379D01*
X140636621Y-63715965D01*
X140340988Y-63518429D01*
X140012499Y-63382365D01*
X139663777Y-63313000D01*
X139308223Y-63313000D01*
X138959501Y-63382365D01*
X138631012Y-63518429D01*
X138335379Y-63715965D01*
X138083965Y-63967379D01*
X137886429Y-64263012D01*
X137750365Y-64591501D01*
X137681000Y-64940223D01*
X121060000Y-64940223D01*
X121060000Y-62917327D01*
X121219720Y-62917327D01*
X121219720Y-63239393D01*
X121282552Y-63555272D01*
X121405802Y-63852823D01*
X121584733Y-64120612D01*
X121812468Y-64348347D01*
X122080257Y-64527278D01*
X122377808Y-64650528D01*
X122693687Y-64713360D01*
X123015753Y-64713360D01*
X123331632Y-64650528D01*
X123629183Y-64527278D01*
X123896972Y-64348347D01*
X124124707Y-64120612D01*
X124303638Y-63852823D01*
X124426888Y-63555272D01*
X124489720Y-63239393D01*
X124489720Y-62917327D01*
X127719720Y-62917327D01*
X127719720Y-63239393D01*
X127782552Y-63555272D01*
X127905802Y-63852823D01*
X128084733Y-64120612D01*
X128312468Y-64348347D01*
X128580257Y-64527278D01*
X128877808Y-64650528D01*
X129193687Y-64713360D01*
X129515753Y-64713360D01*
X129831632Y-64650528D01*
X130129183Y-64527278D01*
X130396972Y-64348347D01*
X130624707Y-64120612D01*
X130803638Y-63852823D01*
X130926888Y-63555272D01*
X130989720Y-63239393D01*
X130989720Y-62917327D01*
X130926888Y-62601448D01*
X130803638Y-62303897D01*
X130624707Y-62036108D01*
X130457671Y-61869072D01*
X131560000Y-61869072D01*
X131684482Y-61856812D01*
X131804180Y-61820502D01*
X131914494Y-61761537D01*
X132011185Y-61682185D01*
X132090537Y-61585494D01*
X132149502Y-61475180D01*
X132185812Y-61355482D01*
X132198072Y-61231000D01*
X132198072Y-60181000D01*
X132185812Y-60056518D01*
X132149502Y-59936820D01*
X132114907Y-59872098D01*
X132178215Y-59663400D01*
X132200612Y-59436000D01*
X132178215Y-59208600D01*
X132111885Y-58989940D01*
X132011071Y-58801331D01*
X132052275Y-58742882D01*
X132145272Y-58533337D01*
X132153964Y-58471810D01*
X132028163Y-58293000D01*
X131263109Y-58293000D01*
X131262400Y-58292785D01*
X131091979Y-58276000D01*
X130528021Y-58276000D01*
X130357600Y-58292785D01*
X130356891Y-58293000D01*
X129591837Y-58293000D01*
X129466036Y-58471810D01*
X129474728Y-58533337D01*
X129567725Y-58742882D01*
X129608929Y-58801331D01*
X129508115Y-58989940D01*
X129441785Y-59208600D01*
X129419388Y-59436000D01*
X129441785Y-59663400D01*
X129505093Y-59872098D01*
X129470498Y-59936820D01*
X129434188Y-60056518D01*
X129421928Y-60181000D01*
X129421928Y-61231000D01*
X129434188Y-61355482D01*
X129460846Y-61443360D01*
X129193687Y-61443360D01*
X128877808Y-61506192D01*
X128580257Y-61629442D01*
X128312468Y-61808373D01*
X128084733Y-62036108D01*
X127905802Y-62303897D01*
X127782552Y-62601448D01*
X127719720Y-62917327D01*
X124489720Y-62917327D01*
X124426888Y-62601448D01*
X124303638Y-62303897D01*
X124124707Y-62036108D01*
X123995345Y-61906746D01*
X124050537Y-61839494D01*
X124109502Y-61729180D01*
X124145812Y-61609482D01*
X124158072Y-61485000D01*
X124158072Y-60435000D01*
X124145812Y-60310518D01*
X124109502Y-60190820D01*
X124074907Y-60126098D01*
X124138215Y-59917400D01*
X124160612Y-59690000D01*
X124138215Y-59462600D01*
X124071885Y-59243940D01*
X123971071Y-59055331D01*
X124012275Y-58996882D01*
X124105272Y-58787337D01*
X124113964Y-58725810D01*
X123988164Y-58547002D01*
X124155000Y-58547002D01*
X124155000Y-58497572D01*
X125733380Y-58497572D01*
X125857862Y-58485312D01*
X125977560Y-58449002D01*
X126087874Y-58390037D01*
X126184565Y-58310685D01*
X126263917Y-58213994D01*
X126322882Y-58103680D01*
X126328436Y-58085373D01*
X126394875Y-58151812D01*
X126646285Y-58319799D01*
X126925637Y-58435511D01*
X127222196Y-58494500D01*
X127524564Y-58494500D01*
X127821123Y-58435511D01*
X128100475Y-58319799D01*
X128351885Y-58151812D01*
X128565692Y-57938005D01*
X128617686Y-57860190D01*
X129466036Y-57860190D01*
X129591837Y-58039000D01*
X130683000Y-58039000D01*
X130683000Y-57159402D01*
X130937000Y-57159402D01*
X130937000Y-58039000D01*
X132028163Y-58039000D01*
X132153964Y-57860190D01*
X132145272Y-57798663D01*
X132052275Y-57589118D01*
X131920184Y-57401742D01*
X131754076Y-57243736D01*
X131560334Y-57121172D01*
X131346404Y-57038761D01*
X131120507Y-56999669D01*
X130937000Y-57159402D01*
X130683000Y-57159402D01*
X130499493Y-56999669D01*
X130273596Y-57038761D01*
X130059666Y-57121172D01*
X129865924Y-57243736D01*
X129699816Y-57401742D01*
X129567725Y-57589118D01*
X129474728Y-57798663D01*
X129466036Y-57860190D01*
X128617686Y-57860190D01*
X128733679Y-57686595D01*
X128849391Y-57407243D01*
X128908380Y-57110684D01*
X128908380Y-56808316D01*
X128849391Y-56511757D01*
X128792580Y-56374602D01*
X135909003Y-56374602D01*
X136025275Y-56656389D01*
X136343860Y-56814257D01*
X136687122Y-56906938D01*
X137041869Y-56930873D01*
X137394470Y-56885139D01*
X137731373Y-56771495D01*
X137946725Y-56656389D01*
X138062997Y-56374602D01*
X136986000Y-55297605D01*
X135909003Y-56374602D01*
X128792580Y-56374602D01*
X128733679Y-56232405D01*
X128565692Y-55980995D01*
X128351885Y-55767188D01*
X128100475Y-55599201D01*
X127821123Y-55483489D01*
X127524564Y-55424500D01*
X127222196Y-55424500D01*
X126925637Y-55483489D01*
X126646285Y-55599201D01*
X126394875Y-55767188D01*
X126328436Y-55833627D01*
X126322882Y-55815320D01*
X126263917Y-55705006D01*
X126184565Y-55608315D01*
X126087874Y-55528963D01*
X125977560Y-55469998D01*
X125857862Y-55433688D01*
X125733380Y-55421428D01*
X123933380Y-55421428D01*
X123808898Y-55433688D01*
X123689200Y-55469998D01*
X123578886Y-55528963D01*
X123482195Y-55608315D01*
X123402843Y-55705006D01*
X123343878Y-55815320D01*
X123307568Y-55935018D01*
X123295308Y-56059500D01*
X123295308Y-57290841D01*
X123080507Y-57253669D01*
X122897000Y-57413402D01*
X122897000Y-58293000D01*
X122917000Y-58293000D01*
X122917000Y-58530000D01*
X122488021Y-58530000D01*
X122317600Y-58546785D01*
X122316891Y-58547000D01*
X121551837Y-58547000D01*
X121426036Y-58725810D01*
X121434728Y-58787337D01*
X121527725Y-58996882D01*
X121568929Y-59055331D01*
X121468115Y-59243940D01*
X121401785Y-59462600D01*
X121379388Y-59690000D01*
X121401785Y-59917400D01*
X121465093Y-60126098D01*
X121430498Y-60190820D01*
X121394188Y-60310518D01*
X121381928Y-60435000D01*
X121381928Y-61485000D01*
X121394188Y-61609482D01*
X121430498Y-61729180D01*
X121489463Y-61839494D01*
X121568815Y-61936185D01*
X121632440Y-61988401D01*
X121584733Y-62036108D01*
X121405802Y-62303897D01*
X121282552Y-62601448D01*
X121219720Y-62917327D01*
X121060000Y-62917327D01*
X121060000Y-58114190D01*
X121426036Y-58114190D01*
X121551837Y-58293000D01*
X122643000Y-58293000D01*
X122643000Y-57413402D01*
X122459493Y-57253669D01*
X122233596Y-57292761D01*
X122019666Y-57375172D01*
X121825924Y-57497736D01*
X121659816Y-57655742D01*
X121527725Y-57843118D01*
X121434728Y-58052663D01*
X121426036Y-58114190D01*
X121060000Y-58114190D01*
X121060000Y-55173869D01*
X135173127Y-55173869D01*
X135218861Y-55526470D01*
X135332505Y-55863373D01*
X135447611Y-56078725D01*
X135729398Y-56194997D01*
X136806395Y-55118000D01*
X137165605Y-55118000D01*
X138242602Y-56194997D01*
X138524389Y-56078725D01*
X138682257Y-55760140D01*
X138774938Y-55416878D01*
X138798873Y-55062131D01*
X138783061Y-54940223D01*
X140181000Y-54940223D01*
X140181000Y-55295777D01*
X140250365Y-55644499D01*
X140386429Y-55972988D01*
X140583965Y-56268621D01*
X140835379Y-56520035D01*
X141131012Y-56717571D01*
X141459501Y-56853635D01*
X141808223Y-56923000D01*
X142163777Y-56923000D01*
X142512499Y-56853635D01*
X142840988Y-56717571D01*
X143136621Y-56520035D01*
X143388035Y-56268621D01*
X143585571Y-55972988D01*
X143721635Y-55644499D01*
X143791000Y-55295777D01*
X143791000Y-54940223D01*
X143721635Y-54591501D01*
X143585571Y-54263012D01*
X143388035Y-53967379D01*
X143136621Y-53715965D01*
X142840988Y-53518429D01*
X142512499Y-53382365D01*
X142163777Y-53313000D01*
X141808223Y-53313000D01*
X141459501Y-53382365D01*
X141131012Y-53518429D01*
X140835379Y-53715965D01*
X140583965Y-53967379D01*
X140386429Y-54263012D01*
X140250365Y-54591501D01*
X140181000Y-54940223D01*
X138783061Y-54940223D01*
X138753139Y-54709530D01*
X138639495Y-54372627D01*
X138524389Y-54157275D01*
X138242602Y-54041003D01*
X137165605Y-55118000D01*
X136806395Y-55118000D01*
X135729398Y-54041003D01*
X135447611Y-54157275D01*
X135289743Y-54475860D01*
X135197062Y-54819122D01*
X135173127Y-55173869D01*
X121060000Y-55173869D01*
X121060000Y-54134211D01*
X121133226Y-54207437D01*
X121302744Y-54320705D01*
X121491102Y-54398726D01*
X121691061Y-54438500D01*
X121894939Y-54438500D01*
X122094898Y-54398726D01*
X122283256Y-54320705D01*
X122452774Y-54207437D01*
X122596937Y-54063274D01*
X122710205Y-53893756D01*
X122723608Y-53861398D01*
X135909003Y-53861398D01*
X136986000Y-54938395D01*
X138062997Y-53861398D01*
X137946725Y-53579611D01*
X137628140Y-53421743D01*
X137284878Y-53329062D01*
X136930131Y-53305127D01*
X136577530Y-53350861D01*
X136240627Y-53464505D01*
X136025275Y-53579611D01*
X135909003Y-53861398D01*
X122723608Y-53861398D01*
X122788226Y-53705398D01*
X122828000Y-53505439D01*
X122828000Y-53301561D01*
X122788226Y-53101602D01*
X122710205Y-52913244D01*
X122627240Y-52789077D01*
X122615918Y-52674126D01*
X122568172Y-52516728D01*
X122490636Y-52371669D01*
X122386291Y-52244524D01*
X122354426Y-52218373D01*
X121644631Y-51508579D01*
X121618476Y-51476709D01*
X121491331Y-51372364D01*
X121346272Y-51294828D01*
X121188874Y-51247082D01*
X121066204Y-51235000D01*
X121066203Y-51235000D01*
X121025185Y-51230960D01*
X120984167Y-51235000D01*
X119242542Y-51235000D01*
X119392012Y-51011302D01*
X119552953Y-50622756D01*
X119635000Y-50210279D01*
X119635000Y-49789721D01*
X119552953Y-49377244D01*
X119392012Y-48988698D01*
X119158363Y-48639017D01*
X118860983Y-48341637D01*
X118511302Y-48107988D01*
X118122756Y-47947047D01*
X117710279Y-47865000D01*
X117289721Y-47865000D01*
X116877244Y-47947047D01*
X116488698Y-48107988D01*
X116139017Y-48341637D01*
X115841637Y-48639017D01*
X115607988Y-48988698D01*
X115447047Y-49377244D01*
X115365000Y-49789721D01*
X115365000Y-50210279D01*
X115447047Y-50622756D01*
X115607988Y-51011302D01*
X115757458Y-51235000D01*
X115153869Y-51235000D01*
X114181093Y-50262225D01*
X114152226Y-50117102D01*
X114074205Y-49928744D01*
X113960937Y-49759226D01*
X113816774Y-49615063D01*
X113647256Y-49501795D01*
X113458898Y-49423774D01*
X113258939Y-49384000D01*
X113055061Y-49384000D01*
X112855102Y-49423774D01*
X112666744Y-49501795D01*
X112497226Y-49615063D01*
X112353063Y-49759226D01*
X112239795Y-49928744D01*
X112161774Y-50117102D01*
X112122000Y-50317061D01*
X112122000Y-50520939D01*
X112161774Y-50720898D01*
X112239795Y-50909256D01*
X112353063Y-51078774D01*
X112497226Y-51222937D01*
X112666744Y-51336205D01*
X112855102Y-51414226D01*
X113000225Y-51443093D01*
X113897131Y-52340000D01*
X39660000Y-52340000D01*
X39660000Y-49789721D01*
X40365900Y-49789721D01*
X40365900Y-50210279D01*
X40447947Y-50622756D01*
X40608888Y-51011302D01*
X40842537Y-51360983D01*
X41139917Y-51658363D01*
X41489598Y-51892012D01*
X41878144Y-52052953D01*
X42290621Y-52135000D01*
X42711179Y-52135000D01*
X43123656Y-52052953D01*
X43512202Y-51892012D01*
X43861883Y-51658363D01*
X44159263Y-51360983D01*
X44392912Y-51011302D01*
X44553853Y-50622756D01*
X44635900Y-50210279D01*
X44635900Y-49789721D01*
X44553853Y-49377244D01*
X44392912Y-48988698D01*
X44200011Y-48700000D01*
X46461928Y-48700000D01*
X46465000Y-49714250D01*
X46473000Y-49722250D01*
X46473000Y-50277750D01*
X46465000Y-50285750D01*
X46461928Y-51300000D01*
X46473000Y-51412420D01*
X46473000Y-51792500D01*
X46475294Y-51816530D01*
X46482378Y-51840397D01*
X46493983Y-51862424D01*
X46509661Y-51881763D01*
X46528812Y-51897672D01*
X46550697Y-51909540D01*
X46574478Y-51916909D01*
X46599240Y-51919498D01*
X46961862Y-51921669D01*
X46975518Y-51925812D01*
X47100000Y-51938072D01*
X47714250Y-51935000D01*
X47723023Y-51926227D01*
X48280314Y-51929564D01*
X48285750Y-51935000D01*
X48900000Y-51938072D01*
X48945915Y-51933550D01*
X49104240Y-51934498D01*
X49129776Y-51932060D01*
X49153601Y-51924833D01*
X49175557Y-51913097D01*
X49194803Y-51897303D01*
X49210597Y-51878057D01*
X49222333Y-51856101D01*
X49225364Y-51846107D01*
X49254494Y-51830537D01*
X49351185Y-51751185D01*
X49430537Y-51654494D01*
X49489502Y-51544180D01*
X49494495Y-51527720D01*
X49683074Y-51682481D01*
X49949740Y-51825017D01*
X50239088Y-51912790D01*
X50540000Y-51942427D01*
X50840913Y-51912790D01*
X51130261Y-51825017D01*
X51396927Y-51682481D01*
X51630661Y-51490661D01*
X51810000Y-51272135D01*
X51989339Y-51490661D01*
X52223074Y-51682481D01*
X52489740Y-51825017D01*
X52779088Y-51912790D01*
X53080000Y-51942427D01*
X53380913Y-51912790D01*
X53670261Y-51825017D01*
X53936927Y-51682481D01*
X54170661Y-51490661D01*
X54350000Y-51272135D01*
X54529339Y-51490661D01*
X54763074Y-51682481D01*
X55029740Y-51825017D01*
X55319088Y-51912790D01*
X55620000Y-51942427D01*
X55920913Y-51912790D01*
X56210261Y-51825017D01*
X56476927Y-51682481D01*
X56710661Y-51490661D01*
X56894781Y-51266309D01*
X56954252Y-51358396D01*
X57164394Y-51575210D01*
X57412796Y-51746862D01*
X57689913Y-51866755D01*
X57795260Y-51891036D01*
X58033000Y-51770378D01*
X58033000Y-50127000D01*
X58013000Y-50127000D01*
X58013000Y-49873000D01*
X58033000Y-49873000D01*
X58033000Y-48229622D01*
X58287000Y-48229622D01*
X58287000Y-49873000D01*
X58307000Y-49873000D01*
X58307000Y-50127000D01*
X58287000Y-50127000D01*
X58287000Y-51770378D01*
X58524740Y-51891036D01*
X58630087Y-51866755D01*
X58907204Y-51746862D01*
X59155606Y-51575210D01*
X59365748Y-51358396D01*
X59425219Y-51266309D01*
X59609339Y-51490661D01*
X59843074Y-51682481D01*
X60109740Y-51825017D01*
X60399088Y-51912790D01*
X60700000Y-51942427D01*
X61000913Y-51912790D01*
X61290261Y-51825017D01*
X61556927Y-51682481D01*
X61790661Y-51490661D01*
X61970000Y-51272135D01*
X62149339Y-51490661D01*
X62383074Y-51682481D01*
X62649740Y-51825017D01*
X62939088Y-51912790D01*
X63240000Y-51942427D01*
X63540913Y-51912790D01*
X63830261Y-51825017D01*
X64096927Y-51682481D01*
X64330661Y-51490661D01*
X64510000Y-51272135D01*
X64689339Y-51490661D01*
X64923074Y-51682481D01*
X65189740Y-51825017D01*
X65479088Y-51912790D01*
X65780000Y-51942427D01*
X66080913Y-51912790D01*
X66370261Y-51825017D01*
X66636927Y-51682481D01*
X66870661Y-51490661D01*
X67050000Y-51272135D01*
X67229339Y-51490661D01*
X67463074Y-51682481D01*
X67729740Y-51825017D01*
X68019088Y-51912790D01*
X68320000Y-51942427D01*
X68620913Y-51912790D01*
X68910261Y-51825017D01*
X69176927Y-51682481D01*
X69410661Y-51490661D01*
X69590000Y-51272135D01*
X69769339Y-51490661D01*
X70003074Y-51682481D01*
X70269740Y-51825017D01*
X70559088Y-51912790D01*
X70860000Y-51942427D01*
X71160913Y-51912790D01*
X71450261Y-51825017D01*
X71716927Y-51682481D01*
X71950661Y-51490661D01*
X72130000Y-51272135D01*
X72309339Y-51490661D01*
X72543074Y-51682481D01*
X72809740Y-51825017D01*
X73099088Y-51912790D01*
X73400000Y-51942427D01*
X73700913Y-51912790D01*
X73990261Y-51825017D01*
X74256927Y-51682481D01*
X74490661Y-51490661D01*
X74670000Y-51272135D01*
X74849339Y-51490661D01*
X75083074Y-51682481D01*
X75349740Y-51825017D01*
X75639088Y-51912790D01*
X75940000Y-51942427D01*
X76240913Y-51912790D01*
X76530261Y-51825017D01*
X76796927Y-51682481D01*
X77030661Y-51490661D01*
X77210000Y-51272135D01*
X77389339Y-51490661D01*
X77623074Y-51682481D01*
X77889740Y-51825017D01*
X78179088Y-51912790D01*
X78480000Y-51942427D01*
X78780913Y-51912790D01*
X79070261Y-51825017D01*
X79336927Y-51682481D01*
X79570661Y-51490661D01*
X79750000Y-51272135D01*
X79929339Y-51490661D01*
X80163074Y-51682481D01*
X80429740Y-51825017D01*
X80719088Y-51912790D01*
X81020000Y-51942427D01*
X81320913Y-51912790D01*
X81610261Y-51825017D01*
X81876927Y-51682481D01*
X82110661Y-51490661D01*
X82290000Y-51272135D01*
X82469339Y-51490661D01*
X82703074Y-51682481D01*
X82969740Y-51825017D01*
X83259088Y-51912790D01*
X83560000Y-51942427D01*
X83860913Y-51912790D01*
X84150261Y-51825017D01*
X84416927Y-51682481D01*
X84650661Y-51490661D01*
X84830000Y-51272135D01*
X85009339Y-51490661D01*
X85243074Y-51682481D01*
X85509740Y-51825017D01*
X85799088Y-51912790D01*
X86100000Y-51942427D01*
X86400913Y-51912790D01*
X86690261Y-51825017D01*
X86956927Y-51682481D01*
X87190661Y-51490661D01*
X87382481Y-51256927D01*
X87525017Y-50990261D01*
X87612790Y-50700913D01*
X87635000Y-50475407D01*
X87635000Y-49524592D01*
X87612790Y-49299087D01*
X87525017Y-49009739D01*
X87382481Y-48743073D01*
X87190661Y-48509339D01*
X86956926Y-48317519D01*
X86690260Y-48174983D01*
X86400912Y-48087210D01*
X86100000Y-48057573D01*
X85799087Y-48087210D01*
X85509739Y-48174983D01*
X85243073Y-48317519D01*
X85009339Y-48509339D01*
X84830000Y-48727865D01*
X84650661Y-48509339D01*
X84416926Y-48317519D01*
X84150260Y-48174983D01*
X83860912Y-48087210D01*
X83560000Y-48057573D01*
X83259087Y-48087210D01*
X82969739Y-48174983D01*
X82703073Y-48317519D01*
X82469339Y-48509339D01*
X82290000Y-48727865D01*
X82110661Y-48509339D01*
X81876926Y-48317519D01*
X81610260Y-48174983D01*
X81320912Y-48087210D01*
X81020000Y-48057573D01*
X80719087Y-48087210D01*
X80429739Y-48174983D01*
X80163073Y-48317519D01*
X79929339Y-48509339D01*
X79750000Y-48727865D01*
X79570661Y-48509339D01*
X79336926Y-48317519D01*
X79070260Y-48174983D01*
X78780912Y-48087210D01*
X78480000Y-48057573D01*
X78179087Y-48087210D01*
X77889739Y-48174983D01*
X77623073Y-48317519D01*
X77389339Y-48509339D01*
X77210000Y-48727865D01*
X77030661Y-48509339D01*
X76796926Y-48317519D01*
X76530260Y-48174983D01*
X76240912Y-48087210D01*
X75940000Y-48057573D01*
X75639087Y-48087210D01*
X75349739Y-48174983D01*
X75083073Y-48317519D01*
X74849339Y-48509339D01*
X74670000Y-48727865D01*
X74490661Y-48509339D01*
X74256926Y-48317519D01*
X73990260Y-48174983D01*
X73700912Y-48087210D01*
X73400000Y-48057573D01*
X73099087Y-48087210D01*
X72809739Y-48174983D01*
X72543073Y-48317519D01*
X72309339Y-48509339D01*
X72130000Y-48727865D01*
X71950661Y-48509339D01*
X71716926Y-48317519D01*
X71450260Y-48174983D01*
X71160912Y-48087210D01*
X70860000Y-48057573D01*
X70559087Y-48087210D01*
X70269739Y-48174983D01*
X70003073Y-48317519D01*
X69769339Y-48509339D01*
X69590000Y-48727865D01*
X69410661Y-48509339D01*
X69176926Y-48317519D01*
X68910260Y-48174983D01*
X68620912Y-48087210D01*
X68320000Y-48057573D01*
X68019087Y-48087210D01*
X67729739Y-48174983D01*
X67463073Y-48317519D01*
X67229339Y-48509339D01*
X67050000Y-48727865D01*
X66870661Y-48509339D01*
X66636926Y-48317519D01*
X66370260Y-48174983D01*
X66080912Y-48087210D01*
X65780000Y-48057573D01*
X65479087Y-48087210D01*
X65189739Y-48174983D01*
X64923073Y-48317519D01*
X64689339Y-48509339D01*
X64510000Y-48727865D01*
X64330661Y-48509339D01*
X64096926Y-48317519D01*
X63830260Y-48174983D01*
X63540912Y-48087210D01*
X63240000Y-48057573D01*
X62939087Y-48087210D01*
X62649739Y-48174983D01*
X62383073Y-48317519D01*
X62149339Y-48509339D01*
X61970000Y-48727865D01*
X61790661Y-48509339D01*
X61556926Y-48317519D01*
X61290260Y-48174983D01*
X61000912Y-48087210D01*
X60700000Y-48057573D01*
X60399087Y-48087210D01*
X60109739Y-48174983D01*
X59843073Y-48317519D01*
X59609339Y-48509339D01*
X59425219Y-48733692D01*
X59365748Y-48641604D01*
X59155606Y-48424790D01*
X58907204Y-48253138D01*
X58630087Y-48133245D01*
X58524740Y-48108964D01*
X58287000Y-48229622D01*
X58033000Y-48229622D01*
X57795260Y-48108964D01*
X57689913Y-48133245D01*
X57412796Y-48253138D01*
X57164394Y-48424790D01*
X56954252Y-48641604D01*
X56894781Y-48733691D01*
X56710661Y-48509339D01*
X56476926Y-48317519D01*
X56210260Y-48174983D01*
X55920912Y-48087210D01*
X55620000Y-48057573D01*
X55319087Y-48087210D01*
X55029739Y-48174983D01*
X54763073Y-48317519D01*
X54529339Y-48509339D01*
X54350000Y-48727865D01*
X54170661Y-48509339D01*
X53936926Y-48317519D01*
X53670260Y-48174983D01*
X53380912Y-48087210D01*
X53080000Y-48057573D01*
X52779087Y-48087210D01*
X52489739Y-48174983D01*
X52223073Y-48317519D01*
X51989339Y-48509339D01*
X51810000Y-48727865D01*
X51630661Y-48509339D01*
X51396926Y-48317519D01*
X51130260Y-48174983D01*
X50840912Y-48087210D01*
X50540000Y-48057573D01*
X50239087Y-48087210D01*
X49949739Y-48174983D01*
X49683073Y-48317519D01*
X49494495Y-48472280D01*
X49489502Y-48455820D01*
X49430537Y-48345506D01*
X49351185Y-48248815D01*
X49254494Y-48169463D01*
X49144180Y-48110498D01*
X49024482Y-48074188D01*
X48900000Y-48061928D01*
X48285750Y-48065000D01*
X48127000Y-48223750D01*
X48127000Y-48375733D01*
X47873000Y-48373198D01*
X47873000Y-48223750D01*
X47714250Y-48065000D01*
X47100000Y-48061928D01*
X46975518Y-48074188D01*
X46855820Y-48110498D01*
X46745506Y-48169463D01*
X46648815Y-48248815D01*
X46569463Y-48345506D01*
X46557226Y-48368399D01*
X46551399Y-48370167D01*
X46529443Y-48381903D01*
X46510197Y-48397697D01*
X46494403Y-48416943D01*
X46482667Y-48438899D01*
X46475440Y-48462724D01*
X46473000Y-48487500D01*
X46473000Y-48587580D01*
X46461928Y-48700000D01*
X44200011Y-48700000D01*
X44159263Y-48639017D01*
X43861883Y-48341637D01*
X43512202Y-48107988D01*
X43123656Y-47947047D01*
X42711179Y-47865000D01*
X42290621Y-47865000D01*
X41878144Y-47947047D01*
X41489598Y-48107988D01*
X41139917Y-48341637D01*
X40842537Y-48639017D01*
X40608888Y-48988698D01*
X40447947Y-49377244D01*
X40365900Y-49789721D01*
X39660000Y-49789721D01*
X39660000Y-45040000D01*
X146660000Y-45040000D01*
X146660001Y-82969500D01*
G36*
X118073000Y-79152490D02*
G01*
X118061565Y-79147753D01*
X117689273Y-79073700D01*
X117309687Y-79073700D01*
X116937395Y-79147753D01*
X116586703Y-79293015D01*
X116271089Y-79503901D01*
X116002681Y-79772309D01*
X115791795Y-80087923D01*
X115646533Y-80438615D01*
X115572480Y-80810907D01*
X115572480Y-81190493D01*
X115646533Y-81562785D01*
X115791795Y-81913477D01*
X116002681Y-82229091D01*
X116271089Y-82497499D01*
X116586703Y-82708385D01*
X116937395Y-82853647D01*
X117309687Y-82927700D01*
X117689273Y-82927700D01*
X118061565Y-82853647D01*
X118073000Y-82848910D01*
X118073000Y-83177500D01*
X40202000Y-83177500D01*
X40202000Y-80835530D01*
X40823900Y-80835530D01*
X40823900Y-81165870D01*
X40888346Y-81489863D01*
X41014762Y-81795057D01*
X41198289Y-82069725D01*
X41431875Y-82303311D01*
X41706543Y-82486838D01*
X42011737Y-82613254D01*
X42335730Y-82677700D01*
X42666070Y-82677700D01*
X42990063Y-82613254D01*
X43295257Y-82486838D01*
X43569925Y-82303311D01*
X43803511Y-82069725D01*
X43987038Y-81795057D01*
X44113454Y-81489863D01*
X44177900Y-81165870D01*
X44177900Y-80835530D01*
X44113454Y-80511537D01*
X43987038Y-80206343D01*
X43803511Y-79931675D01*
X43569925Y-79698089D01*
X43295257Y-79514562D01*
X42990063Y-79388146D01*
X42666070Y-79323700D01*
X42335730Y-79323700D01*
X42011737Y-79388146D01*
X41706543Y-79514562D01*
X41431875Y-79698089D01*
X41198289Y-79931675D01*
X41014762Y-80206343D01*
X40888346Y-80511537D01*
X40823900Y-80835530D01*
X40202000Y-80835530D01*
X40202000Y-79002000D01*
X118073000Y-79002000D01*
X118073000Y-79152490D01*
G37*
X118073000Y-79152490D02*
X118061565Y-79147753D01*
X117689273Y-79073700D01*
X117309687Y-79073700D01*
X116937395Y-79147753D01*
X116586703Y-79293015D01*
X116271089Y-79503901D01*
X116002681Y-79772309D01*
X115791795Y-80087923D01*
X115646533Y-80438615D01*
X115572480Y-80810907D01*
X115572480Y-81190493D01*
X115646533Y-81562785D01*
X115791795Y-81913477D01*
X116002681Y-82229091D01*
X116271089Y-82497499D01*
X116586703Y-82708385D01*
X116937395Y-82853647D01*
X117309687Y-82927700D01*
X117689273Y-82927700D01*
X118061565Y-82853647D01*
X118073000Y-82848910D01*
X118073000Y-83177500D01*
X40202000Y-83177500D01*
X40202000Y-80835530D01*
X40823900Y-80835530D01*
X40823900Y-81165870D01*
X40888346Y-81489863D01*
X41014762Y-81795057D01*
X41198289Y-82069725D01*
X41431875Y-82303311D01*
X41706543Y-82486838D01*
X42011737Y-82613254D01*
X42335730Y-82677700D01*
X42666070Y-82677700D01*
X42990063Y-82613254D01*
X43295257Y-82486838D01*
X43569925Y-82303311D01*
X43803511Y-82069725D01*
X43987038Y-81795057D01*
X44113454Y-81489863D01*
X44177900Y-81165870D01*
X44177900Y-80835530D01*
X44113454Y-80511537D01*
X43987038Y-80206343D01*
X43803511Y-79931675D01*
X43569925Y-79698089D01*
X43295257Y-79514562D01*
X42990063Y-79388146D01*
X42666070Y-79323700D01*
X42335730Y-79323700D01*
X42011737Y-79388146D01*
X41706543Y-79514562D01*
X41431875Y-79698089D01*
X41198289Y-79931675D01*
X41014762Y-80206343D01*
X40888346Y-80511537D01*
X40823900Y-80835530D01*
X40202000Y-80835530D01*
X40202000Y-79002000D01*
X118073000Y-79002000D01*
X118073000Y-79152490D01*
M02*
