G04 #@! TF.GenerationSoftware,KiCad,Pcbnew,5.1.5+dfsg1-2build2*
G04 #@! TF.CreationDate,2020-07-01T21:43:33+02:00*
G04 #@! TF.ProjectId,BaSe_HMI_V1_1,42615365-5f48-44d4-995f-56315f312e6b,V1_0*
G04 #@! TF.SameCoordinates,Original*
G04 #@! TF.FileFunction,Soldermask,Bot*
G04 #@! TF.FilePolarity,Negative*
%FSLAX46Y46*%
G04 Gerber Fmt 4.6, Leading zero omitted, Abs format (unit mm)*
G04 Created by KiCad (PCBNEW 5.1.5+dfsg1-2build2) date 2020-07-01 21:43:33*
%MOMM*%
%LPD*%
G04 APERTURE LIST*
%ADD10C,0.100000*%
G04 APERTURE END LIST*
D10*
G36*
X146106000Y-68613500D02*
G01*
X146106000Y-81913500D01*
X132806000Y-81913500D01*
X132806000Y-68613500D01*
X146106000Y-68613500D01*
G37*
G36*
X117802065Y-79479502D02*
G01*
X117951890Y-79509304D01*
X118234154Y-79626221D01*
X118488185Y-79795959D01*
X118704221Y-80011995D01*
X118873959Y-80266026D01*
X118990876Y-80548290D01*
X119050480Y-80847940D01*
X119050480Y-81153460D01*
X118990876Y-81453110D01*
X118873959Y-81735374D01*
X118704221Y-81989405D01*
X118488185Y-82205441D01*
X118234154Y-82375179D01*
X117951890Y-82492096D01*
X117802065Y-82521898D01*
X117652241Y-82551700D01*
X117346719Y-82551700D01*
X117196895Y-82521898D01*
X117047070Y-82492096D01*
X116764806Y-82375179D01*
X116510775Y-82205441D01*
X116294739Y-81989405D01*
X116125001Y-81735374D01*
X116008084Y-81453110D01*
X115948480Y-81153460D01*
X115948480Y-80847940D01*
X116008084Y-80548290D01*
X116125001Y-80266026D01*
X116294739Y-80011995D01*
X116510775Y-79795959D01*
X116764806Y-79626221D01*
X117047070Y-79509304D01*
X117196895Y-79479502D01*
X117346719Y-79449700D01*
X117652241Y-79449700D01*
X117802065Y-79479502D01*
G37*
G36*
X42880387Y-79749696D02*
G01*
X43117153Y-79847768D01*
X43117155Y-79847769D01*
X43186243Y-79893932D01*
X43330239Y-79990147D01*
X43511453Y-80171361D01*
X43653832Y-80384447D01*
X43751904Y-80621213D01*
X43801900Y-80872561D01*
X43801900Y-81128839D01*
X43751904Y-81380187D01*
X43721698Y-81453110D01*
X43653831Y-81616955D01*
X43511453Y-81830039D01*
X43330239Y-82011253D01*
X43117155Y-82153631D01*
X43117154Y-82153632D01*
X43117153Y-82153632D01*
X42880387Y-82251704D01*
X42629039Y-82301700D01*
X42372761Y-82301700D01*
X42121413Y-82251704D01*
X41884647Y-82153632D01*
X41884646Y-82153632D01*
X41884645Y-82153631D01*
X41671561Y-82011253D01*
X41490347Y-81830039D01*
X41347969Y-81616955D01*
X41280102Y-81453110D01*
X41249896Y-81380187D01*
X41199900Y-81128839D01*
X41199900Y-80872561D01*
X41249896Y-80621213D01*
X41347968Y-80384447D01*
X41490347Y-80171361D01*
X41671561Y-79990147D01*
X41815557Y-79893932D01*
X41884645Y-79847769D01*
X41884647Y-79847768D01*
X42121413Y-79749696D01*
X42372761Y-79699700D01*
X42629039Y-79699700D01*
X42880387Y-79749696D01*
G37*
G36*
X123161284Y-74944749D02*
G01*
X123352553Y-75023975D01*
X123352555Y-75023976D01*
X123524693Y-75138995D01*
X123671085Y-75285387D01*
X123786105Y-75457527D01*
X123865331Y-75648796D01*
X123905720Y-75851844D01*
X123905720Y-76058876D01*
X123865331Y-76261924D01*
X123786105Y-76453193D01*
X123786104Y-76453195D01*
X123671085Y-76625333D01*
X123524693Y-76771725D01*
X123352555Y-76886744D01*
X123352554Y-76886745D01*
X123352553Y-76886745D01*
X123161284Y-76965971D01*
X122958236Y-77006360D01*
X122751204Y-77006360D01*
X122548156Y-76965971D01*
X122356887Y-76886745D01*
X122356886Y-76886745D01*
X122356885Y-76886744D01*
X122184747Y-76771725D01*
X122038355Y-76625333D01*
X121923336Y-76453195D01*
X121923335Y-76453193D01*
X121844109Y-76261924D01*
X121803720Y-76058876D01*
X121803720Y-75851844D01*
X121844109Y-75648796D01*
X121923335Y-75457527D01*
X122038355Y-75285387D01*
X122184747Y-75138995D01*
X122356885Y-75023976D01*
X122356887Y-75023975D01*
X122548156Y-74944749D01*
X122751204Y-74904360D01*
X122958236Y-74904360D01*
X123161284Y-74944749D01*
G37*
G36*
X129661284Y-74944749D02*
G01*
X129852553Y-75023975D01*
X129852555Y-75023976D01*
X130024693Y-75138995D01*
X130171085Y-75285387D01*
X130286105Y-75457527D01*
X130365331Y-75648796D01*
X130405720Y-75851844D01*
X130405720Y-76058876D01*
X130365331Y-76261924D01*
X130286105Y-76453193D01*
X130286104Y-76453195D01*
X130171085Y-76625333D01*
X130024693Y-76771725D01*
X129852555Y-76886744D01*
X129852554Y-76886745D01*
X129852553Y-76886745D01*
X129661284Y-76965971D01*
X129458236Y-77006360D01*
X129251204Y-77006360D01*
X129048156Y-76965971D01*
X128856887Y-76886745D01*
X128856886Y-76886745D01*
X128856885Y-76886744D01*
X128684747Y-76771725D01*
X128538355Y-76625333D01*
X128423336Y-76453195D01*
X128423335Y-76453193D01*
X128344109Y-76261924D01*
X128303720Y-76058876D01*
X128303720Y-75851844D01*
X128344109Y-75648796D01*
X128423335Y-75457527D01*
X128538355Y-75285387D01*
X128684747Y-75138995D01*
X128856885Y-75023976D01*
X128856887Y-75023975D01*
X129048156Y-74944749D01*
X129251204Y-74904360D01*
X129458236Y-74904360D01*
X129661284Y-74944749D01*
G37*
G36*
X123161284Y-70444749D02*
G01*
X123352553Y-70523975D01*
X123352555Y-70523976D01*
X123524693Y-70638995D01*
X123671085Y-70785387D01*
X123786105Y-70957527D01*
X123865331Y-71148796D01*
X123905720Y-71351844D01*
X123905720Y-71558876D01*
X123865331Y-71761924D01*
X123786105Y-71953193D01*
X123786104Y-71953195D01*
X123671085Y-72125333D01*
X123524693Y-72271725D01*
X123352555Y-72386744D01*
X123352554Y-72386745D01*
X123352553Y-72386745D01*
X123161284Y-72465971D01*
X122958236Y-72506360D01*
X122751204Y-72506360D01*
X122548156Y-72465971D01*
X122356887Y-72386745D01*
X122356886Y-72386745D01*
X122356885Y-72386744D01*
X122184747Y-72271725D01*
X122038355Y-72125333D01*
X121923336Y-71953195D01*
X121923335Y-71953193D01*
X121844109Y-71761924D01*
X121803720Y-71558876D01*
X121803720Y-71351844D01*
X121844109Y-71148796D01*
X121923335Y-70957527D01*
X122038355Y-70785387D01*
X122184747Y-70638995D01*
X122356885Y-70523976D01*
X122356887Y-70523975D01*
X122548156Y-70444749D01*
X122751204Y-70404360D01*
X122958236Y-70404360D01*
X123161284Y-70444749D01*
G37*
G36*
X129661284Y-70444749D02*
G01*
X129852553Y-70523975D01*
X129852555Y-70523976D01*
X130024693Y-70638995D01*
X130171085Y-70785387D01*
X130286105Y-70957527D01*
X130365331Y-71148796D01*
X130405720Y-71351844D01*
X130405720Y-71558876D01*
X130365331Y-71761924D01*
X130286105Y-71953193D01*
X130286104Y-71953195D01*
X130171085Y-72125333D01*
X130024693Y-72271725D01*
X129852555Y-72386744D01*
X129852554Y-72386745D01*
X129852553Y-72386745D01*
X129661284Y-72465971D01*
X129458236Y-72506360D01*
X129251204Y-72506360D01*
X129048156Y-72465971D01*
X128856887Y-72386745D01*
X128856886Y-72386745D01*
X128856885Y-72386744D01*
X128684747Y-72271725D01*
X128538355Y-72125333D01*
X128423336Y-71953195D01*
X128423335Y-71953193D01*
X128344109Y-71761924D01*
X128303720Y-71558876D01*
X128303720Y-71351844D01*
X128344109Y-71148796D01*
X128423335Y-70957527D01*
X128538355Y-70785387D01*
X128684747Y-70638995D01*
X128856885Y-70523976D01*
X128856887Y-70523975D01*
X129048156Y-70444749D01*
X129251204Y-70404360D01*
X129458236Y-70404360D01*
X129661284Y-70444749D01*
G37*
G36*
X123161284Y-66567749D02*
G01*
X123352553Y-66646975D01*
X123352555Y-66646976D01*
X123524693Y-66761995D01*
X123671085Y-66908387D01*
X123786105Y-67080527D01*
X123865331Y-67271796D01*
X123905720Y-67474844D01*
X123905720Y-67681876D01*
X123865331Y-67884924D01*
X123786105Y-68076193D01*
X123786104Y-68076195D01*
X123671085Y-68248333D01*
X123524693Y-68394725D01*
X123352555Y-68509744D01*
X123352554Y-68509745D01*
X123352553Y-68509745D01*
X123161284Y-68588971D01*
X122958236Y-68629360D01*
X122751204Y-68629360D01*
X122548156Y-68588971D01*
X122356887Y-68509745D01*
X122356886Y-68509745D01*
X122356885Y-68509744D01*
X122184747Y-68394725D01*
X122038355Y-68248333D01*
X121923336Y-68076195D01*
X121923335Y-68076193D01*
X121844109Y-67884924D01*
X121803720Y-67681876D01*
X121803720Y-67474844D01*
X121844109Y-67271796D01*
X121923335Y-67080527D01*
X122038355Y-66908387D01*
X122184747Y-66761995D01*
X122356885Y-66646976D01*
X122356887Y-66646975D01*
X122548156Y-66567749D01*
X122751204Y-66527360D01*
X122958236Y-66527360D01*
X123161284Y-66567749D01*
G37*
G36*
X129661284Y-66567749D02*
G01*
X129852553Y-66646975D01*
X129852555Y-66646976D01*
X130024693Y-66761995D01*
X130171085Y-66908387D01*
X130286105Y-67080527D01*
X130365331Y-67271796D01*
X130405720Y-67474844D01*
X130405720Y-67681876D01*
X130365331Y-67884924D01*
X130286105Y-68076193D01*
X130286104Y-68076195D01*
X130171085Y-68248333D01*
X130024693Y-68394725D01*
X129852555Y-68509744D01*
X129852554Y-68509745D01*
X129852553Y-68509745D01*
X129661284Y-68588971D01*
X129458236Y-68629360D01*
X129251204Y-68629360D01*
X129048156Y-68588971D01*
X128856887Y-68509745D01*
X128856886Y-68509745D01*
X128856885Y-68509744D01*
X128684747Y-68394725D01*
X128538355Y-68248333D01*
X128423336Y-68076195D01*
X128423335Y-68076193D01*
X128344109Y-67884924D01*
X128303720Y-67681876D01*
X128303720Y-67474844D01*
X128344109Y-67271796D01*
X128423335Y-67080527D01*
X128538355Y-66908387D01*
X128684747Y-66761995D01*
X128856885Y-66646976D01*
X128856887Y-66646975D01*
X129048156Y-66567749D01*
X129251204Y-66527360D01*
X129458236Y-66527360D01*
X129661284Y-66567749D01*
G37*
G36*
X139724205Y-63920461D02*
G01*
X139842153Y-63943922D01*
X139934194Y-63982047D01*
X140064359Y-64035963D01*
X140264342Y-64169587D01*
X140434413Y-64339658D01*
X140568037Y-64539641D01*
X140660078Y-64761848D01*
X140707000Y-64997741D01*
X140707000Y-65238259D01*
X140660078Y-65474152D01*
X140568037Y-65696359D01*
X140434413Y-65896342D01*
X140264342Y-66066413D01*
X140064359Y-66200037D01*
X139934194Y-66253953D01*
X139842153Y-66292078D01*
X139724205Y-66315539D01*
X139606259Y-66339000D01*
X139365741Y-66339000D01*
X139247795Y-66315539D01*
X139129847Y-66292078D01*
X139037806Y-66253953D01*
X138907641Y-66200037D01*
X138707658Y-66066413D01*
X138537587Y-65896342D01*
X138403963Y-65696359D01*
X138311922Y-65474152D01*
X138265000Y-65238259D01*
X138265000Y-64997741D01*
X138311922Y-64761848D01*
X138403963Y-64539641D01*
X138537587Y-64339658D01*
X138707658Y-64169587D01*
X138907641Y-64035963D01*
X139037806Y-63982047D01*
X139129847Y-63943922D01*
X139247795Y-63920461D01*
X139365741Y-63897000D01*
X139606259Y-63897000D01*
X139724205Y-63920461D01*
G37*
G36*
X129661284Y-62067749D02*
G01*
X129852553Y-62146975D01*
X129852555Y-62146976D01*
X130024693Y-62261995D01*
X130171085Y-62408387D01*
X130286105Y-62580527D01*
X130365331Y-62771796D01*
X130405720Y-62974844D01*
X130405720Y-63181876D01*
X130365331Y-63384924D01*
X130286105Y-63576193D01*
X130286104Y-63576195D01*
X130171085Y-63748333D01*
X130024693Y-63894725D01*
X129852555Y-64009744D01*
X129852554Y-64009745D01*
X129852553Y-64009745D01*
X129661284Y-64088971D01*
X129458236Y-64129360D01*
X129251204Y-64129360D01*
X129048156Y-64088971D01*
X128856887Y-64009745D01*
X128856886Y-64009745D01*
X128856885Y-64009744D01*
X128684747Y-63894725D01*
X128538355Y-63748333D01*
X128423336Y-63576195D01*
X128423335Y-63576193D01*
X128344109Y-63384924D01*
X128303720Y-63181876D01*
X128303720Y-62974844D01*
X128344109Y-62771796D01*
X128423335Y-62580527D01*
X128538355Y-62408387D01*
X128684747Y-62261995D01*
X128856885Y-62146976D01*
X128856887Y-62146975D01*
X129048156Y-62067749D01*
X129251204Y-62027360D01*
X129458236Y-62027360D01*
X129661284Y-62067749D01*
G37*
G36*
X123161284Y-62067749D02*
G01*
X123352553Y-62146975D01*
X123352555Y-62146976D01*
X123524693Y-62261995D01*
X123671085Y-62408387D01*
X123786105Y-62580527D01*
X123865331Y-62771796D01*
X123905720Y-62974844D01*
X123905720Y-63181876D01*
X123865331Y-63384924D01*
X123786105Y-63576193D01*
X123786104Y-63576195D01*
X123671085Y-63748333D01*
X123524693Y-63894725D01*
X123352555Y-64009744D01*
X123352554Y-64009745D01*
X123352553Y-64009745D01*
X123161284Y-64088971D01*
X122958236Y-64129360D01*
X122751204Y-64129360D01*
X122548156Y-64088971D01*
X122356887Y-64009745D01*
X122356886Y-64009745D01*
X122356885Y-64009744D01*
X122184747Y-63894725D01*
X122038355Y-63748333D01*
X121923336Y-63576195D01*
X121923335Y-63576193D01*
X121844109Y-63384924D01*
X121803720Y-63181876D01*
X121803720Y-62974844D01*
X121844109Y-62771796D01*
X121923335Y-62580527D01*
X122038355Y-62408387D01*
X122184747Y-62261995D01*
X122356885Y-62146976D01*
X122356887Y-62146975D01*
X122548156Y-62067749D01*
X122751204Y-62027360D01*
X122958236Y-62027360D01*
X123161284Y-62067749D01*
G37*
G36*
X123107916Y-57852334D02*
G01*
X123216492Y-57885271D01*
X123216495Y-57885272D01*
X123252601Y-57904571D01*
X123316557Y-57938756D01*
X123404264Y-58010736D01*
X123476244Y-58098443D01*
X123510429Y-58162399D01*
X123529728Y-58198505D01*
X123529729Y-58198508D01*
X123562666Y-58307084D01*
X123573787Y-58420000D01*
X123562666Y-58532916D01*
X123529729Y-58641492D01*
X123529728Y-58641495D01*
X123526655Y-58647244D01*
X123476244Y-58741557D01*
X123404264Y-58829264D01*
X123316557Y-58901244D01*
X123235141Y-58944761D01*
X123214766Y-58958375D01*
X123197439Y-58975702D01*
X123183826Y-58996076D01*
X123174448Y-59018715D01*
X123169668Y-59042748D01*
X123169668Y-59067252D01*
X123174448Y-59091285D01*
X123183826Y-59113924D01*
X123197440Y-59134299D01*
X123214767Y-59151626D01*
X123235141Y-59165239D01*
X123316557Y-59208756D01*
X123404264Y-59280736D01*
X123476244Y-59368443D01*
X123510429Y-59432399D01*
X123529728Y-59468505D01*
X123529729Y-59468508D01*
X123562666Y-59577084D01*
X123573787Y-59690000D01*
X123562666Y-59802916D01*
X123529729Y-59911492D01*
X123529728Y-59911495D01*
X123526992Y-59916613D01*
X123476244Y-60011557D01*
X123404264Y-60099264D01*
X123327354Y-60162383D01*
X123310035Y-60179702D01*
X123296421Y-60200077D01*
X123287043Y-60222716D01*
X123282263Y-60246749D01*
X123282263Y-60271253D01*
X123287043Y-60295286D01*
X123296421Y-60317925D01*
X123310034Y-60338299D01*
X123327361Y-60355626D01*
X123347736Y-60369240D01*
X123370375Y-60378618D01*
X123394408Y-60383398D01*
X123406660Y-60384000D01*
X123571000Y-60384000D01*
X123571000Y-61536000D01*
X121969000Y-61536000D01*
X121969000Y-60384000D01*
X122133340Y-60384000D01*
X122157726Y-60381598D01*
X122181175Y-60374485D01*
X122202786Y-60362934D01*
X122221728Y-60347389D01*
X122237273Y-60328447D01*
X122248824Y-60306836D01*
X122255937Y-60283387D01*
X122258339Y-60259001D01*
X122255937Y-60234615D01*
X122248824Y-60211166D01*
X122237273Y-60189555D01*
X122221728Y-60170613D01*
X122212655Y-60162391D01*
X122135736Y-60099264D01*
X122063756Y-60011557D01*
X122013008Y-59916613D01*
X122010272Y-59911495D01*
X122010271Y-59911492D01*
X121977334Y-59802916D01*
X121966213Y-59690000D01*
X121977334Y-59577084D01*
X122010271Y-59468508D01*
X122010272Y-59468505D01*
X122029571Y-59432399D01*
X122063756Y-59368443D01*
X122135736Y-59280736D01*
X122223443Y-59208756D01*
X122304859Y-59165239D01*
X122325234Y-59151625D01*
X122342561Y-59134298D01*
X122356174Y-59113924D01*
X122365552Y-59091285D01*
X122370332Y-59067252D01*
X122370332Y-59042748D01*
X122365552Y-59018715D01*
X122356174Y-58996076D01*
X122342560Y-58975701D01*
X122325233Y-58958374D01*
X122304859Y-58944761D01*
X122223443Y-58901244D01*
X122135736Y-58829264D01*
X122063756Y-58741557D01*
X122013345Y-58647244D01*
X122010272Y-58641495D01*
X122010271Y-58641492D01*
X121977334Y-58532916D01*
X121966213Y-58420000D01*
X121977334Y-58307084D01*
X122010271Y-58198508D01*
X122010272Y-58198505D01*
X122029571Y-58162399D01*
X122063756Y-58098443D01*
X122135736Y-58010736D01*
X122223443Y-57938756D01*
X122287399Y-57904571D01*
X122323505Y-57885272D01*
X122323508Y-57885271D01*
X122432084Y-57852334D01*
X122516702Y-57844000D01*
X123023298Y-57844000D01*
X123107916Y-57852334D01*
G37*
G36*
X131147916Y-57598334D02*
G01*
X131256492Y-57631271D01*
X131256495Y-57631272D01*
X131292601Y-57650571D01*
X131356557Y-57684756D01*
X131444264Y-57756736D01*
X131516244Y-57844443D01*
X131538067Y-57885272D01*
X131569728Y-57944505D01*
X131569729Y-57944508D01*
X131602666Y-58053084D01*
X131613787Y-58166000D01*
X131602666Y-58278916D01*
X131569729Y-58387492D01*
X131569728Y-58387495D01*
X131552353Y-58420000D01*
X131516244Y-58487557D01*
X131444264Y-58575264D01*
X131356557Y-58647244D01*
X131275141Y-58690761D01*
X131254766Y-58704375D01*
X131237439Y-58721702D01*
X131223826Y-58742076D01*
X131214448Y-58764715D01*
X131209668Y-58788748D01*
X131209668Y-58813252D01*
X131214448Y-58837285D01*
X131223826Y-58859924D01*
X131237440Y-58880299D01*
X131254767Y-58897626D01*
X131275141Y-58911239D01*
X131356557Y-58954756D01*
X131444264Y-59026736D01*
X131516244Y-59114443D01*
X131550429Y-59178399D01*
X131569728Y-59214505D01*
X131569729Y-59214508D01*
X131602666Y-59323084D01*
X131613787Y-59436000D01*
X131602666Y-59548916D01*
X131569729Y-59657492D01*
X131569728Y-59657495D01*
X131552353Y-59690000D01*
X131516244Y-59757557D01*
X131444264Y-59845264D01*
X131367354Y-59908383D01*
X131350035Y-59925702D01*
X131336421Y-59946077D01*
X131327043Y-59968716D01*
X131322263Y-59992749D01*
X131322263Y-60017253D01*
X131327043Y-60041286D01*
X131336421Y-60063925D01*
X131350034Y-60084299D01*
X131367361Y-60101626D01*
X131387736Y-60115240D01*
X131410375Y-60124618D01*
X131434408Y-60129398D01*
X131446660Y-60130000D01*
X131611000Y-60130000D01*
X131611000Y-61282000D01*
X130009000Y-61282000D01*
X130009000Y-60130000D01*
X130173340Y-60130000D01*
X130197726Y-60127598D01*
X130221175Y-60120485D01*
X130242786Y-60108934D01*
X130261728Y-60093389D01*
X130277273Y-60074447D01*
X130288824Y-60052836D01*
X130295937Y-60029387D01*
X130298339Y-60005001D01*
X130295937Y-59980615D01*
X130288824Y-59957166D01*
X130277273Y-59935555D01*
X130261728Y-59916613D01*
X130252655Y-59908391D01*
X130175736Y-59845264D01*
X130103756Y-59757557D01*
X130067647Y-59690000D01*
X130050272Y-59657495D01*
X130050271Y-59657492D01*
X130017334Y-59548916D01*
X130006213Y-59436000D01*
X130017334Y-59323084D01*
X130050271Y-59214508D01*
X130050272Y-59214505D01*
X130069571Y-59178399D01*
X130103756Y-59114443D01*
X130175736Y-59026736D01*
X130263443Y-58954756D01*
X130344859Y-58911239D01*
X130365234Y-58897625D01*
X130382561Y-58880298D01*
X130396174Y-58859924D01*
X130405552Y-58837285D01*
X130410332Y-58813252D01*
X130410332Y-58788748D01*
X130405552Y-58764715D01*
X130396174Y-58742076D01*
X130382560Y-58721701D01*
X130365233Y-58704374D01*
X130344859Y-58690761D01*
X130263443Y-58647244D01*
X130175736Y-58575264D01*
X130103756Y-58487557D01*
X130067647Y-58420000D01*
X130050272Y-58387495D01*
X130050271Y-58387492D01*
X130017334Y-58278916D01*
X130006213Y-58166000D01*
X130017334Y-58053084D01*
X130050271Y-57944508D01*
X130050272Y-57944505D01*
X130081933Y-57885272D01*
X130103756Y-57844443D01*
X130175736Y-57756736D01*
X130263443Y-57684756D01*
X130327399Y-57650571D01*
X130363505Y-57631272D01*
X130363508Y-57631271D01*
X130472084Y-57598334D01*
X130556702Y-57590000D01*
X131063298Y-57590000D01*
X131147916Y-57598334D01*
G37*
G36*
X125784380Y-57910500D02*
G01*
X123882380Y-57910500D01*
X123882380Y-56008500D01*
X125784380Y-56008500D01*
X125784380Y-57910500D01*
G37*
G36*
X127650775Y-56045046D02*
G01*
X127823846Y-56116734D01*
X127823847Y-56116735D01*
X127979607Y-56220810D01*
X128112070Y-56353273D01*
X128112071Y-56353275D01*
X128216146Y-56509034D01*
X128287834Y-56682105D01*
X128324380Y-56865833D01*
X128324380Y-57053167D01*
X128287834Y-57236895D01*
X128216146Y-57409966D01*
X128216145Y-57409967D01*
X128112070Y-57565727D01*
X127979607Y-57698190D01*
X127901198Y-57750581D01*
X127823846Y-57802266D01*
X127650775Y-57873954D01*
X127467047Y-57910500D01*
X127279713Y-57910500D01*
X127095985Y-57873954D01*
X126922914Y-57802266D01*
X126845562Y-57750581D01*
X126767153Y-57698190D01*
X126634690Y-57565727D01*
X126530615Y-57409967D01*
X126530614Y-57409966D01*
X126458926Y-57236895D01*
X126422380Y-57053167D01*
X126422380Y-56865833D01*
X126458926Y-56682105D01*
X126530614Y-56509034D01*
X126634689Y-56353275D01*
X126634690Y-56353273D01*
X126767153Y-56220810D01*
X126922913Y-56116735D01*
X126922914Y-56116734D01*
X127095985Y-56045046D01*
X127279713Y-56008500D01*
X127467047Y-56008500D01*
X127650775Y-56045046D01*
G37*
G36*
X137224205Y-53920461D02*
G01*
X137342153Y-53943922D01*
X137434194Y-53982047D01*
X137564359Y-54035963D01*
X137764342Y-54169587D01*
X137934413Y-54339658D01*
X138068037Y-54539641D01*
X138160078Y-54761848D01*
X138207000Y-54997741D01*
X138207000Y-55238259D01*
X138160078Y-55474152D01*
X138068037Y-55696359D01*
X137934413Y-55896342D01*
X137764342Y-56066413D01*
X137564359Y-56200037D01*
X137514208Y-56220810D01*
X137342153Y-56292078D01*
X137224205Y-56315539D01*
X137106259Y-56339000D01*
X136865741Y-56339000D01*
X136747795Y-56315539D01*
X136629847Y-56292078D01*
X136457792Y-56220810D01*
X136407641Y-56200037D01*
X136207658Y-56066413D01*
X136037587Y-55896342D01*
X135903963Y-55696359D01*
X135811922Y-55474152D01*
X135765000Y-55238259D01*
X135765000Y-54997741D01*
X135811922Y-54761848D01*
X135903963Y-54539641D01*
X136037587Y-54339658D01*
X136207658Y-54169587D01*
X136407641Y-54035963D01*
X136537806Y-53982047D01*
X136629847Y-53943922D01*
X136747795Y-53920461D01*
X136865741Y-53897000D01*
X137106259Y-53897000D01*
X137224205Y-53920461D01*
G37*
G36*
X142224205Y-53920461D02*
G01*
X142342153Y-53943922D01*
X142434194Y-53982047D01*
X142564359Y-54035963D01*
X142764342Y-54169587D01*
X142934413Y-54339658D01*
X143068037Y-54539641D01*
X143160078Y-54761848D01*
X143207000Y-54997741D01*
X143207000Y-55238259D01*
X143160078Y-55474152D01*
X143068037Y-55696359D01*
X142934413Y-55896342D01*
X142764342Y-56066413D01*
X142564359Y-56200037D01*
X142514208Y-56220810D01*
X142342153Y-56292078D01*
X142224205Y-56315539D01*
X142106259Y-56339000D01*
X141865741Y-56339000D01*
X141747795Y-56315539D01*
X141629847Y-56292078D01*
X141457792Y-56220810D01*
X141407641Y-56200037D01*
X141207658Y-56066413D01*
X141037587Y-55896342D01*
X140903963Y-55696359D01*
X140811922Y-55474152D01*
X140765000Y-55238259D01*
X140765000Y-54997741D01*
X140811922Y-54761848D01*
X140903963Y-54539641D01*
X141037587Y-54339658D01*
X141207658Y-54169587D01*
X141407641Y-54035963D01*
X141537806Y-53982047D01*
X141629847Y-53943922D01*
X141747795Y-53920461D01*
X141865741Y-53897000D01*
X142106259Y-53897000D01*
X142224205Y-53920461D01*
G37*
G36*
X42803485Y-48478802D02*
G01*
X42953310Y-48508604D01*
X43235574Y-48625521D01*
X43489605Y-48795259D01*
X43705641Y-49011295D01*
X43875379Y-49265326D01*
X43992296Y-49547590D01*
X44051900Y-49847240D01*
X44051900Y-50152760D01*
X43992296Y-50452410D01*
X43875379Y-50734674D01*
X43705641Y-50988705D01*
X43489605Y-51204741D01*
X43235574Y-51374479D01*
X42953310Y-51491396D01*
X42803485Y-51521198D01*
X42653661Y-51551000D01*
X42348139Y-51551000D01*
X42198315Y-51521198D01*
X42048490Y-51491396D01*
X41766226Y-51374479D01*
X41512195Y-51204741D01*
X41296159Y-50988705D01*
X41126421Y-50734674D01*
X41009504Y-50452410D01*
X40949900Y-50152760D01*
X40949900Y-49847240D01*
X41009504Y-49547590D01*
X41126421Y-49265326D01*
X41296159Y-49011295D01*
X41512195Y-48795259D01*
X41766226Y-48625521D01*
X42048490Y-48508604D01*
X42198315Y-48478802D01*
X42348139Y-48449000D01*
X42653661Y-48449000D01*
X42803485Y-48478802D01*
G37*
G36*
X117802585Y-48478802D02*
G01*
X117952410Y-48508604D01*
X118234674Y-48625521D01*
X118488705Y-48795259D01*
X118704741Y-49011295D01*
X118874479Y-49265326D01*
X118991396Y-49547590D01*
X119051000Y-49847240D01*
X119051000Y-50152760D01*
X118991396Y-50452410D01*
X118874479Y-50734674D01*
X118704741Y-50988705D01*
X118488705Y-51204741D01*
X118234674Y-51374479D01*
X117952410Y-51491396D01*
X117802585Y-51521198D01*
X117652761Y-51551000D01*
X117347239Y-51551000D01*
X117197415Y-51521198D01*
X117047590Y-51491396D01*
X116765326Y-51374479D01*
X116511295Y-51204741D01*
X116295259Y-50988705D01*
X116125521Y-50734674D01*
X116008604Y-50452410D01*
X115949000Y-50152760D01*
X115949000Y-49847240D01*
X116008604Y-49547590D01*
X116125521Y-49265326D01*
X116295259Y-49011295D01*
X116511295Y-48795259D01*
X116765326Y-48625521D01*
X117047590Y-48508604D01*
X117197415Y-48478802D01*
X117347239Y-48449000D01*
X117652761Y-48449000D01*
X117802585Y-48478802D01*
G37*
G36*
X78666424Y-48662760D02*
G01*
X78666427Y-48662761D01*
X78666428Y-48662761D01*
X78845692Y-48717140D01*
X78845695Y-48717142D01*
X78845696Y-48717142D01*
X79010903Y-48805446D01*
X79155712Y-48924288D01*
X79274554Y-49069097D01*
X79309044Y-49133624D01*
X79362860Y-49234307D01*
X79382832Y-49300147D01*
X79417240Y-49413575D01*
X79431000Y-49553282D01*
X79431000Y-50446717D01*
X79417240Y-50586426D01*
X79362859Y-50765695D01*
X79274554Y-50930903D01*
X79155712Y-51075712D01*
X79010903Y-51194554D01*
X78845697Y-51282858D01*
X78845693Y-51282860D01*
X78666429Y-51337239D01*
X78666428Y-51337239D01*
X78666425Y-51337240D01*
X78480000Y-51355601D01*
X78293576Y-51337240D01*
X78293573Y-51337239D01*
X78293572Y-51337239D01*
X78114308Y-51282860D01*
X78114304Y-51282858D01*
X77949098Y-51194554D01*
X77804289Y-51075712D01*
X77685447Y-50930903D01*
X77597140Y-50765692D01*
X77542760Y-50586430D01*
X77529000Y-50446718D01*
X77529000Y-49553283D01*
X77542760Y-49413576D01*
X77542761Y-49413572D01*
X77597140Y-49234308D01*
X77597143Y-49234303D01*
X77685446Y-49069097D01*
X77804288Y-48924288D01*
X77949097Y-48805446D01*
X78114303Y-48717142D01*
X78114304Y-48717142D01*
X78114307Y-48717140D01*
X78293571Y-48662761D01*
X78293572Y-48662761D01*
X78293575Y-48662760D01*
X78480000Y-48644399D01*
X78666424Y-48662760D01*
G37*
G36*
X86286424Y-48662760D02*
G01*
X86286427Y-48662761D01*
X86286428Y-48662761D01*
X86465692Y-48717140D01*
X86465695Y-48717142D01*
X86465696Y-48717142D01*
X86630903Y-48805446D01*
X86775712Y-48924288D01*
X86894554Y-49069097D01*
X86929044Y-49133624D01*
X86982860Y-49234307D01*
X87002832Y-49300147D01*
X87037240Y-49413575D01*
X87051000Y-49553282D01*
X87051000Y-50446717D01*
X87037240Y-50586426D01*
X86982859Y-50765695D01*
X86894554Y-50930903D01*
X86775712Y-51075712D01*
X86630903Y-51194554D01*
X86465697Y-51282858D01*
X86465693Y-51282860D01*
X86286429Y-51337239D01*
X86286428Y-51337239D01*
X86286425Y-51337240D01*
X86100000Y-51355601D01*
X85913576Y-51337240D01*
X85913573Y-51337239D01*
X85913572Y-51337239D01*
X85734308Y-51282860D01*
X85734304Y-51282858D01*
X85569098Y-51194554D01*
X85424289Y-51075712D01*
X85305447Y-50930903D01*
X85217140Y-50765692D01*
X85162760Y-50586430D01*
X85149000Y-50446718D01*
X85149000Y-49553283D01*
X85162760Y-49413576D01*
X85162761Y-49413572D01*
X85217140Y-49234308D01*
X85217143Y-49234303D01*
X85305446Y-49069097D01*
X85424288Y-48924288D01*
X85569097Y-48805446D01*
X85734303Y-48717142D01*
X85734304Y-48717142D01*
X85734307Y-48717140D01*
X85913571Y-48662761D01*
X85913572Y-48662761D01*
X85913575Y-48662760D01*
X86100000Y-48644399D01*
X86286424Y-48662760D01*
G37*
G36*
X83746424Y-48662760D02*
G01*
X83746427Y-48662761D01*
X83746428Y-48662761D01*
X83925692Y-48717140D01*
X83925695Y-48717142D01*
X83925696Y-48717142D01*
X84090903Y-48805446D01*
X84235712Y-48924288D01*
X84354554Y-49069097D01*
X84389044Y-49133624D01*
X84442860Y-49234307D01*
X84462832Y-49300147D01*
X84497240Y-49413575D01*
X84511000Y-49553282D01*
X84511000Y-50446717D01*
X84497240Y-50586426D01*
X84442859Y-50765695D01*
X84354554Y-50930903D01*
X84235712Y-51075712D01*
X84090903Y-51194554D01*
X83925697Y-51282858D01*
X83925693Y-51282860D01*
X83746429Y-51337239D01*
X83746428Y-51337239D01*
X83746425Y-51337240D01*
X83560000Y-51355601D01*
X83373576Y-51337240D01*
X83373573Y-51337239D01*
X83373572Y-51337239D01*
X83194308Y-51282860D01*
X83194304Y-51282858D01*
X83029098Y-51194554D01*
X82884289Y-51075712D01*
X82765447Y-50930903D01*
X82677140Y-50765692D01*
X82622760Y-50586430D01*
X82609000Y-50446718D01*
X82609000Y-49553283D01*
X82622760Y-49413576D01*
X82622761Y-49413572D01*
X82677140Y-49234308D01*
X82677143Y-49234303D01*
X82765446Y-49069097D01*
X82884288Y-48924288D01*
X83029097Y-48805446D01*
X83194303Y-48717142D01*
X83194304Y-48717142D01*
X83194307Y-48717140D01*
X83373571Y-48662761D01*
X83373572Y-48662761D01*
X83373575Y-48662760D01*
X83560000Y-48644399D01*
X83746424Y-48662760D01*
G37*
G36*
X81206424Y-48662760D02*
G01*
X81206427Y-48662761D01*
X81206428Y-48662761D01*
X81385692Y-48717140D01*
X81385695Y-48717142D01*
X81385696Y-48717142D01*
X81550903Y-48805446D01*
X81695712Y-48924288D01*
X81814554Y-49069097D01*
X81849044Y-49133624D01*
X81902860Y-49234307D01*
X81922832Y-49300147D01*
X81957240Y-49413575D01*
X81971000Y-49553282D01*
X81971000Y-50446717D01*
X81957240Y-50586426D01*
X81902859Y-50765695D01*
X81814554Y-50930903D01*
X81695712Y-51075712D01*
X81550903Y-51194554D01*
X81385697Y-51282858D01*
X81385693Y-51282860D01*
X81206429Y-51337239D01*
X81206428Y-51337239D01*
X81206425Y-51337240D01*
X81020000Y-51355601D01*
X80833576Y-51337240D01*
X80833573Y-51337239D01*
X80833572Y-51337239D01*
X80654308Y-51282860D01*
X80654304Y-51282858D01*
X80489098Y-51194554D01*
X80344289Y-51075712D01*
X80225447Y-50930903D01*
X80137140Y-50765692D01*
X80082760Y-50586430D01*
X80069000Y-50446718D01*
X80069000Y-49553283D01*
X80082760Y-49413576D01*
X80082761Y-49413572D01*
X80137140Y-49234308D01*
X80137143Y-49234303D01*
X80225446Y-49069097D01*
X80344288Y-48924288D01*
X80489097Y-48805446D01*
X80654303Y-48717142D01*
X80654304Y-48717142D01*
X80654307Y-48717140D01*
X80833571Y-48662761D01*
X80833572Y-48662761D01*
X80833575Y-48662760D01*
X81020000Y-48644399D01*
X81206424Y-48662760D01*
G37*
G36*
X50726424Y-48662760D02*
G01*
X50726427Y-48662761D01*
X50726428Y-48662761D01*
X50905692Y-48717140D01*
X50905695Y-48717142D01*
X50905696Y-48717142D01*
X51070903Y-48805446D01*
X51215712Y-48924288D01*
X51334554Y-49069097D01*
X51369044Y-49133624D01*
X51422860Y-49234307D01*
X51442832Y-49300147D01*
X51477240Y-49413575D01*
X51491000Y-49553282D01*
X51491000Y-50446717D01*
X51477240Y-50586426D01*
X51422859Y-50765695D01*
X51334554Y-50930903D01*
X51215712Y-51075712D01*
X51070903Y-51194554D01*
X50905697Y-51282858D01*
X50905693Y-51282860D01*
X50726429Y-51337239D01*
X50726428Y-51337239D01*
X50726425Y-51337240D01*
X50540000Y-51355601D01*
X50353576Y-51337240D01*
X50353573Y-51337239D01*
X50353572Y-51337239D01*
X50174308Y-51282860D01*
X50174304Y-51282858D01*
X50009098Y-51194554D01*
X49864289Y-51075712D01*
X49745447Y-50930903D01*
X49657140Y-50765692D01*
X49602760Y-50586430D01*
X49589000Y-50446718D01*
X49589000Y-49553283D01*
X49602760Y-49413576D01*
X49602761Y-49413572D01*
X49657140Y-49234308D01*
X49657143Y-49234303D01*
X49745446Y-49069097D01*
X49864288Y-48924288D01*
X50009097Y-48805446D01*
X50174303Y-48717142D01*
X50174304Y-48717142D01*
X50174307Y-48717140D01*
X50353571Y-48662761D01*
X50353572Y-48662761D01*
X50353575Y-48662760D01*
X50540000Y-48644399D01*
X50726424Y-48662760D01*
G37*
G36*
X53266424Y-48662760D02*
G01*
X53266427Y-48662761D01*
X53266428Y-48662761D01*
X53445692Y-48717140D01*
X53445695Y-48717142D01*
X53445696Y-48717142D01*
X53610903Y-48805446D01*
X53755712Y-48924288D01*
X53874554Y-49069097D01*
X53909044Y-49133624D01*
X53962860Y-49234307D01*
X53982832Y-49300147D01*
X54017240Y-49413575D01*
X54031000Y-49553282D01*
X54031000Y-50446717D01*
X54017240Y-50586426D01*
X53962859Y-50765695D01*
X53874554Y-50930903D01*
X53755712Y-51075712D01*
X53610903Y-51194554D01*
X53445697Y-51282858D01*
X53445693Y-51282860D01*
X53266429Y-51337239D01*
X53266428Y-51337239D01*
X53266425Y-51337240D01*
X53080000Y-51355601D01*
X52893576Y-51337240D01*
X52893573Y-51337239D01*
X52893572Y-51337239D01*
X52714308Y-51282860D01*
X52714304Y-51282858D01*
X52549098Y-51194554D01*
X52404289Y-51075712D01*
X52285447Y-50930903D01*
X52197140Y-50765692D01*
X52142760Y-50586430D01*
X52129000Y-50446718D01*
X52129000Y-49553283D01*
X52142760Y-49413576D01*
X52142761Y-49413572D01*
X52197140Y-49234308D01*
X52197143Y-49234303D01*
X52285446Y-49069097D01*
X52404288Y-48924288D01*
X52549097Y-48805446D01*
X52714303Y-48717142D01*
X52714304Y-48717142D01*
X52714307Y-48717140D01*
X52893571Y-48662761D01*
X52893572Y-48662761D01*
X52893575Y-48662760D01*
X53080000Y-48644399D01*
X53266424Y-48662760D01*
G37*
G36*
X55806424Y-48662760D02*
G01*
X55806427Y-48662761D01*
X55806428Y-48662761D01*
X55985692Y-48717140D01*
X55985695Y-48717142D01*
X55985696Y-48717142D01*
X56150903Y-48805446D01*
X56295712Y-48924288D01*
X56414554Y-49069097D01*
X56449044Y-49133624D01*
X56502860Y-49234307D01*
X56522832Y-49300147D01*
X56557240Y-49413575D01*
X56571000Y-49553282D01*
X56571000Y-50446717D01*
X56557240Y-50586426D01*
X56502859Y-50765695D01*
X56414554Y-50930903D01*
X56295712Y-51075712D01*
X56150903Y-51194554D01*
X55985697Y-51282858D01*
X55985693Y-51282860D01*
X55806429Y-51337239D01*
X55806428Y-51337239D01*
X55806425Y-51337240D01*
X55620000Y-51355601D01*
X55433576Y-51337240D01*
X55433573Y-51337239D01*
X55433572Y-51337239D01*
X55254308Y-51282860D01*
X55254304Y-51282858D01*
X55089098Y-51194554D01*
X54944289Y-51075712D01*
X54825447Y-50930903D01*
X54737140Y-50765692D01*
X54682760Y-50586430D01*
X54669000Y-50446718D01*
X54669000Y-49553283D01*
X54682760Y-49413576D01*
X54682761Y-49413572D01*
X54737140Y-49234308D01*
X54737143Y-49234303D01*
X54825446Y-49069097D01*
X54944288Y-48924288D01*
X55089097Y-48805446D01*
X55254303Y-48717142D01*
X55254304Y-48717142D01*
X55254307Y-48717140D01*
X55433571Y-48662761D01*
X55433572Y-48662761D01*
X55433575Y-48662760D01*
X55620000Y-48644399D01*
X55806424Y-48662760D01*
G37*
G36*
X58346424Y-48662760D02*
G01*
X58346427Y-48662761D01*
X58346428Y-48662761D01*
X58525692Y-48717140D01*
X58525695Y-48717142D01*
X58525696Y-48717142D01*
X58690903Y-48805446D01*
X58835712Y-48924288D01*
X58954554Y-49069097D01*
X58989044Y-49133624D01*
X59042860Y-49234307D01*
X59062832Y-49300147D01*
X59097240Y-49413575D01*
X59111000Y-49553282D01*
X59111000Y-50446717D01*
X59097240Y-50586426D01*
X59042859Y-50765695D01*
X58954554Y-50930903D01*
X58835712Y-51075712D01*
X58690903Y-51194554D01*
X58525697Y-51282858D01*
X58525693Y-51282860D01*
X58346429Y-51337239D01*
X58346428Y-51337239D01*
X58346425Y-51337240D01*
X58160000Y-51355601D01*
X57973576Y-51337240D01*
X57973573Y-51337239D01*
X57973572Y-51337239D01*
X57794308Y-51282860D01*
X57794304Y-51282858D01*
X57629098Y-51194554D01*
X57484289Y-51075712D01*
X57365447Y-50930903D01*
X57277140Y-50765692D01*
X57222760Y-50586430D01*
X57209000Y-50446718D01*
X57209000Y-49553283D01*
X57222760Y-49413576D01*
X57222761Y-49413572D01*
X57277140Y-49234308D01*
X57277143Y-49234303D01*
X57365446Y-49069097D01*
X57484288Y-48924288D01*
X57629097Y-48805446D01*
X57794303Y-48717142D01*
X57794304Y-48717142D01*
X57794307Y-48717140D01*
X57973571Y-48662761D01*
X57973572Y-48662761D01*
X57973575Y-48662760D01*
X58160000Y-48644399D01*
X58346424Y-48662760D01*
G37*
G36*
X60886424Y-48662760D02*
G01*
X60886427Y-48662761D01*
X60886428Y-48662761D01*
X61065692Y-48717140D01*
X61065695Y-48717142D01*
X61065696Y-48717142D01*
X61230903Y-48805446D01*
X61375712Y-48924288D01*
X61494554Y-49069097D01*
X61529044Y-49133624D01*
X61582860Y-49234307D01*
X61602832Y-49300147D01*
X61637240Y-49413575D01*
X61651000Y-49553282D01*
X61651000Y-50446717D01*
X61637240Y-50586426D01*
X61582859Y-50765695D01*
X61494554Y-50930903D01*
X61375712Y-51075712D01*
X61230903Y-51194554D01*
X61065697Y-51282858D01*
X61065693Y-51282860D01*
X60886429Y-51337239D01*
X60886428Y-51337239D01*
X60886425Y-51337240D01*
X60700000Y-51355601D01*
X60513576Y-51337240D01*
X60513573Y-51337239D01*
X60513572Y-51337239D01*
X60334308Y-51282860D01*
X60334304Y-51282858D01*
X60169098Y-51194554D01*
X60024289Y-51075712D01*
X59905447Y-50930903D01*
X59817140Y-50765692D01*
X59762760Y-50586430D01*
X59749000Y-50446718D01*
X59749000Y-49553283D01*
X59762760Y-49413576D01*
X59762761Y-49413572D01*
X59817140Y-49234308D01*
X59817143Y-49234303D01*
X59905446Y-49069097D01*
X60024288Y-48924288D01*
X60169097Y-48805446D01*
X60334303Y-48717142D01*
X60334304Y-48717142D01*
X60334307Y-48717140D01*
X60513571Y-48662761D01*
X60513572Y-48662761D01*
X60513575Y-48662760D01*
X60700000Y-48644399D01*
X60886424Y-48662760D01*
G37*
G36*
X63426424Y-48662760D02*
G01*
X63426427Y-48662761D01*
X63426428Y-48662761D01*
X63605692Y-48717140D01*
X63605695Y-48717142D01*
X63605696Y-48717142D01*
X63770903Y-48805446D01*
X63915712Y-48924288D01*
X64034554Y-49069097D01*
X64069044Y-49133624D01*
X64122860Y-49234307D01*
X64142832Y-49300147D01*
X64177240Y-49413575D01*
X64191000Y-49553282D01*
X64191000Y-50446717D01*
X64177240Y-50586426D01*
X64122859Y-50765695D01*
X64034554Y-50930903D01*
X63915712Y-51075712D01*
X63770903Y-51194554D01*
X63605697Y-51282858D01*
X63605693Y-51282860D01*
X63426429Y-51337239D01*
X63426428Y-51337239D01*
X63426425Y-51337240D01*
X63240000Y-51355601D01*
X63053576Y-51337240D01*
X63053573Y-51337239D01*
X63053572Y-51337239D01*
X62874308Y-51282860D01*
X62874304Y-51282858D01*
X62709098Y-51194554D01*
X62564289Y-51075712D01*
X62445447Y-50930903D01*
X62357140Y-50765692D01*
X62302760Y-50586430D01*
X62289000Y-50446718D01*
X62289000Y-49553283D01*
X62302760Y-49413576D01*
X62302761Y-49413572D01*
X62357140Y-49234308D01*
X62357143Y-49234303D01*
X62445446Y-49069097D01*
X62564288Y-48924288D01*
X62709097Y-48805446D01*
X62874303Y-48717142D01*
X62874304Y-48717142D01*
X62874307Y-48717140D01*
X63053571Y-48662761D01*
X63053572Y-48662761D01*
X63053575Y-48662760D01*
X63240000Y-48644399D01*
X63426424Y-48662760D01*
G37*
G36*
X65966424Y-48662760D02*
G01*
X65966427Y-48662761D01*
X65966428Y-48662761D01*
X66145692Y-48717140D01*
X66145695Y-48717142D01*
X66145696Y-48717142D01*
X66310903Y-48805446D01*
X66455712Y-48924288D01*
X66574554Y-49069097D01*
X66609044Y-49133624D01*
X66662860Y-49234307D01*
X66682832Y-49300147D01*
X66717240Y-49413575D01*
X66731000Y-49553282D01*
X66731000Y-50446717D01*
X66717240Y-50586426D01*
X66662859Y-50765695D01*
X66574554Y-50930903D01*
X66455712Y-51075712D01*
X66310903Y-51194554D01*
X66145697Y-51282858D01*
X66145693Y-51282860D01*
X65966429Y-51337239D01*
X65966428Y-51337239D01*
X65966425Y-51337240D01*
X65780000Y-51355601D01*
X65593576Y-51337240D01*
X65593573Y-51337239D01*
X65593572Y-51337239D01*
X65414308Y-51282860D01*
X65414304Y-51282858D01*
X65249098Y-51194554D01*
X65104289Y-51075712D01*
X64985447Y-50930903D01*
X64897140Y-50765692D01*
X64842760Y-50586430D01*
X64829000Y-50446718D01*
X64829000Y-49553283D01*
X64842760Y-49413576D01*
X64842761Y-49413572D01*
X64897140Y-49234308D01*
X64897143Y-49234303D01*
X64985446Y-49069097D01*
X65104288Y-48924288D01*
X65249097Y-48805446D01*
X65414303Y-48717142D01*
X65414304Y-48717142D01*
X65414307Y-48717140D01*
X65593571Y-48662761D01*
X65593572Y-48662761D01*
X65593575Y-48662760D01*
X65780000Y-48644399D01*
X65966424Y-48662760D01*
G37*
G36*
X68506424Y-48662760D02*
G01*
X68506427Y-48662761D01*
X68506428Y-48662761D01*
X68685692Y-48717140D01*
X68685695Y-48717142D01*
X68685696Y-48717142D01*
X68850903Y-48805446D01*
X68995712Y-48924288D01*
X69114554Y-49069097D01*
X69149044Y-49133624D01*
X69202860Y-49234307D01*
X69222832Y-49300147D01*
X69257240Y-49413575D01*
X69271000Y-49553282D01*
X69271000Y-50446717D01*
X69257240Y-50586426D01*
X69202859Y-50765695D01*
X69114554Y-50930903D01*
X68995712Y-51075712D01*
X68850903Y-51194554D01*
X68685697Y-51282858D01*
X68685693Y-51282860D01*
X68506429Y-51337239D01*
X68506428Y-51337239D01*
X68506425Y-51337240D01*
X68320000Y-51355601D01*
X68133576Y-51337240D01*
X68133573Y-51337239D01*
X68133572Y-51337239D01*
X67954308Y-51282860D01*
X67954304Y-51282858D01*
X67789098Y-51194554D01*
X67644289Y-51075712D01*
X67525447Y-50930903D01*
X67437140Y-50765692D01*
X67382760Y-50586430D01*
X67369000Y-50446718D01*
X67369000Y-49553283D01*
X67382760Y-49413576D01*
X67382761Y-49413572D01*
X67437140Y-49234308D01*
X67437143Y-49234303D01*
X67525446Y-49069097D01*
X67644288Y-48924288D01*
X67789097Y-48805446D01*
X67954303Y-48717142D01*
X67954304Y-48717142D01*
X67954307Y-48717140D01*
X68133571Y-48662761D01*
X68133572Y-48662761D01*
X68133575Y-48662760D01*
X68320000Y-48644399D01*
X68506424Y-48662760D01*
G37*
G36*
X71046424Y-48662760D02*
G01*
X71046427Y-48662761D01*
X71046428Y-48662761D01*
X71225692Y-48717140D01*
X71225695Y-48717142D01*
X71225696Y-48717142D01*
X71390903Y-48805446D01*
X71535712Y-48924288D01*
X71654554Y-49069097D01*
X71689044Y-49133624D01*
X71742860Y-49234307D01*
X71762832Y-49300147D01*
X71797240Y-49413575D01*
X71811000Y-49553282D01*
X71811000Y-50446717D01*
X71797240Y-50586426D01*
X71742859Y-50765695D01*
X71654554Y-50930903D01*
X71535712Y-51075712D01*
X71390903Y-51194554D01*
X71225697Y-51282858D01*
X71225693Y-51282860D01*
X71046429Y-51337239D01*
X71046428Y-51337239D01*
X71046425Y-51337240D01*
X70860000Y-51355601D01*
X70673576Y-51337240D01*
X70673573Y-51337239D01*
X70673572Y-51337239D01*
X70494308Y-51282860D01*
X70494304Y-51282858D01*
X70329098Y-51194554D01*
X70184289Y-51075712D01*
X70065447Y-50930903D01*
X69977140Y-50765692D01*
X69922760Y-50586430D01*
X69909000Y-50446718D01*
X69909000Y-49553283D01*
X69922760Y-49413576D01*
X69922761Y-49413572D01*
X69977140Y-49234308D01*
X69977143Y-49234303D01*
X70065446Y-49069097D01*
X70184288Y-48924288D01*
X70329097Y-48805446D01*
X70494303Y-48717142D01*
X70494304Y-48717142D01*
X70494307Y-48717140D01*
X70673571Y-48662761D01*
X70673572Y-48662761D01*
X70673575Y-48662760D01*
X70860000Y-48644399D01*
X71046424Y-48662760D01*
G37*
G36*
X73586424Y-48662760D02*
G01*
X73586427Y-48662761D01*
X73586428Y-48662761D01*
X73765692Y-48717140D01*
X73765695Y-48717142D01*
X73765696Y-48717142D01*
X73930903Y-48805446D01*
X74075712Y-48924288D01*
X74194554Y-49069097D01*
X74229044Y-49133624D01*
X74282860Y-49234307D01*
X74302832Y-49300147D01*
X74337240Y-49413575D01*
X74351000Y-49553282D01*
X74351000Y-50446717D01*
X74337240Y-50586426D01*
X74282859Y-50765695D01*
X74194554Y-50930903D01*
X74075712Y-51075712D01*
X73930903Y-51194554D01*
X73765697Y-51282858D01*
X73765693Y-51282860D01*
X73586429Y-51337239D01*
X73586428Y-51337239D01*
X73586425Y-51337240D01*
X73400000Y-51355601D01*
X73213576Y-51337240D01*
X73213573Y-51337239D01*
X73213572Y-51337239D01*
X73034308Y-51282860D01*
X73034304Y-51282858D01*
X72869098Y-51194554D01*
X72724289Y-51075712D01*
X72605447Y-50930903D01*
X72517140Y-50765692D01*
X72462760Y-50586430D01*
X72449000Y-50446718D01*
X72449000Y-49553283D01*
X72462760Y-49413576D01*
X72462761Y-49413572D01*
X72517140Y-49234308D01*
X72517143Y-49234303D01*
X72605446Y-49069097D01*
X72724288Y-48924288D01*
X72869097Y-48805446D01*
X73034303Y-48717142D01*
X73034304Y-48717142D01*
X73034307Y-48717140D01*
X73213571Y-48662761D01*
X73213572Y-48662761D01*
X73213575Y-48662760D01*
X73400000Y-48644399D01*
X73586424Y-48662760D01*
G37*
G36*
X76126424Y-48662760D02*
G01*
X76126427Y-48662761D01*
X76126428Y-48662761D01*
X76305692Y-48717140D01*
X76305695Y-48717142D01*
X76305696Y-48717142D01*
X76470903Y-48805446D01*
X76615712Y-48924288D01*
X76734554Y-49069097D01*
X76769044Y-49133624D01*
X76822860Y-49234307D01*
X76842832Y-49300147D01*
X76877240Y-49413575D01*
X76891000Y-49553282D01*
X76891000Y-50446717D01*
X76877240Y-50586426D01*
X76822859Y-50765695D01*
X76734554Y-50930903D01*
X76615712Y-51075712D01*
X76470903Y-51194554D01*
X76305697Y-51282858D01*
X76305693Y-51282860D01*
X76126429Y-51337239D01*
X76126428Y-51337239D01*
X76126425Y-51337240D01*
X75940000Y-51355601D01*
X75753576Y-51337240D01*
X75753573Y-51337239D01*
X75753572Y-51337239D01*
X75574308Y-51282860D01*
X75574304Y-51282858D01*
X75409098Y-51194554D01*
X75264289Y-51075712D01*
X75145447Y-50930903D01*
X75057140Y-50765692D01*
X75002760Y-50586430D01*
X74989000Y-50446718D01*
X74989000Y-49553283D01*
X75002760Y-49413576D01*
X75002761Y-49413572D01*
X75057140Y-49234308D01*
X75057143Y-49234303D01*
X75145446Y-49069097D01*
X75264288Y-48924288D01*
X75409097Y-48805446D01*
X75574303Y-48717142D01*
X75574304Y-48717142D01*
X75574307Y-48717140D01*
X75753571Y-48662761D01*
X75753572Y-48662761D01*
X75753575Y-48662760D01*
X75940000Y-48644399D01*
X76126424Y-48662760D01*
G37*
G36*
X48951000Y-51351000D02*
G01*
X47049000Y-51351000D01*
X47049000Y-48649000D01*
X48951000Y-48649000D01*
X48951000Y-51351000D01*
G37*
M02*
