G04 #@! TF.GenerationSoftware,KiCad,Pcbnew,5.1.5+dfsg1-2build2*
G04 #@! TF.CreationDate,2020-07-01T21:43:33+02:00*
G04 #@! TF.ProjectId,BaSe_HMI_V1_1,42615365-5f48-44d4-995f-56315f312e6b,V1_0*
G04 #@! TF.SameCoordinates,Original*
G04 #@! TF.FileFunction,Copper,L1,Top*
G04 #@! TF.FilePolarity,Positive*
%FSLAX46Y46*%
G04 Gerber Fmt 4.6, Leading zero omitted, Abs format (unit mm)*
G04 Created by KiCad (PCBNEW 5.1.5+dfsg1-2build2) date 2020-07-01 21:43:33*
%MOMM*%
%LPD*%
G04 APERTURE LIST*
%ADD10C,0.200000*%
%ADD11O,1.700000X1.700000*%
%ADD12R,1.700000X1.700000*%
%ADD13C,0.100000*%
%ADD14C,3.000000*%
%ADD15O,1.800000X2.600000*%
%ADD16R,1.800000X2.600000*%
%ADD17R,3.000000X2.800000*%
%ADD18R,0.600000X1.900000*%
%ADD19C,1.800000*%
%ADD20R,1.800000X1.800000*%
%ADD21R,1.500000X1.050000*%
%ADD22O,1.500000X1.050000*%
%ADD23C,2.340000*%
%ADD24C,2.000000*%
%ADD25C,0.800000*%
%ADD26C,0.400000*%
%ADD27C,0.250000*%
%ADD28C,0.254000*%
G04 APERTURE END LIST*
D10*
X122295714Y-80938571D02*
X122410000Y-80986190D01*
X122448095Y-81033809D01*
X122486190Y-81129047D01*
X122486190Y-81271904D01*
X122448095Y-81367142D01*
X122410000Y-81414761D01*
X122333809Y-81462380D01*
X122029047Y-81462380D01*
X122029047Y-80462380D01*
X122295714Y-80462380D01*
X122371904Y-80510000D01*
X122410000Y-80557619D01*
X122448095Y-80652857D01*
X122448095Y-80748095D01*
X122410000Y-80843333D01*
X122371904Y-80890952D01*
X122295714Y-80938571D01*
X122029047Y-80938571D01*
X123171904Y-81462380D02*
X123171904Y-80938571D01*
X123133809Y-80843333D01*
X123057619Y-80795714D01*
X122905238Y-80795714D01*
X122829047Y-80843333D01*
X123171904Y-81414761D02*
X123095714Y-81462380D01*
X122905238Y-81462380D01*
X122829047Y-81414761D01*
X122790952Y-81319523D01*
X122790952Y-81224285D01*
X122829047Y-81129047D01*
X122905238Y-81081428D01*
X123095714Y-81081428D01*
X123171904Y-81033809D01*
X123514761Y-81414761D02*
X123629047Y-81462380D01*
X123819523Y-81462380D01*
X123895714Y-81414761D01*
X123933809Y-81367142D01*
X123971904Y-81271904D01*
X123971904Y-81176666D01*
X123933809Y-81081428D01*
X123895714Y-81033809D01*
X123819523Y-80986190D01*
X123667142Y-80938571D01*
X123590952Y-80890952D01*
X123552857Y-80843333D01*
X123514761Y-80748095D01*
X123514761Y-80652857D01*
X123552857Y-80557619D01*
X123590952Y-80510000D01*
X123667142Y-80462380D01*
X123857619Y-80462380D01*
X123971904Y-80510000D01*
X124619523Y-81414761D02*
X124543333Y-81462380D01*
X124390952Y-81462380D01*
X124314761Y-81414761D01*
X124276666Y-81319523D01*
X124276666Y-80938571D01*
X124314761Y-80843333D01*
X124390952Y-80795714D01*
X124543333Y-80795714D01*
X124619523Y-80843333D01*
X124657619Y-80938571D01*
X124657619Y-81033809D01*
X124276666Y-81129047D01*
X124810000Y-81557619D02*
X125419523Y-81557619D01*
X125610000Y-81462380D02*
X125610000Y-80462380D01*
X125610000Y-80938571D02*
X126067142Y-80938571D01*
X126067142Y-81462380D02*
X126067142Y-80462380D01*
X126448095Y-81462380D02*
X126448095Y-80462380D01*
X126714761Y-81176666D01*
X126981428Y-80462380D01*
X126981428Y-81462380D01*
X127362380Y-81462380D02*
X127362380Y-80462380D01*
X127552857Y-81557619D02*
X128162380Y-81557619D01*
X128238571Y-80462380D02*
X128505238Y-81462380D01*
X128771904Y-80462380D01*
X129457619Y-81462380D02*
X129000476Y-81462380D01*
X129229047Y-81462380D02*
X129229047Y-80462380D01*
X129152857Y-80605238D01*
X129076666Y-80700476D01*
X129000476Y-80748095D01*
X129610000Y-81557619D02*
X130219523Y-81557619D01*
X130829047Y-81462380D02*
X130371904Y-81462380D01*
X130600476Y-81462380D02*
X130600476Y-80462380D01*
X130524285Y-80605238D01*
X130448095Y-80700476D01*
X130371904Y-80748095D01*
X129781571Y-73729857D02*
X129895857Y-73767952D01*
X129933952Y-73806047D01*
X129972047Y-73882238D01*
X129972047Y-73996523D01*
X129933952Y-74072714D01*
X129895857Y-74110809D01*
X129819666Y-74148904D01*
X129514904Y-74148904D01*
X129514904Y-73348904D01*
X129781571Y-73348904D01*
X129857761Y-73387000D01*
X129895857Y-73425095D01*
X129933952Y-73501285D01*
X129933952Y-73577476D01*
X129895857Y-73653666D01*
X129857761Y-73691761D01*
X129781571Y-73729857D01*
X129514904Y-73729857D01*
X130657761Y-73615571D02*
X130657761Y-74148904D01*
X130314904Y-73615571D02*
X130314904Y-74034619D01*
X130353000Y-74110809D01*
X130429190Y-74148904D01*
X130543476Y-74148904D01*
X130619666Y-74110809D01*
X130657761Y-74072714D01*
X130924428Y-73615571D02*
X131229190Y-73615571D01*
X131038714Y-73348904D02*
X131038714Y-74034619D01*
X131076809Y-74110809D01*
X131153000Y-74148904D01*
X131229190Y-74148904D01*
X131381571Y-73615571D02*
X131686333Y-73615571D01*
X131495857Y-73348904D02*
X131495857Y-74034619D01*
X131533952Y-74110809D01*
X131610142Y-74148904D01*
X131686333Y-74148904D01*
X132067285Y-74148904D02*
X131991095Y-74110809D01*
X131953000Y-74072714D01*
X131914904Y-73996523D01*
X131914904Y-73767952D01*
X131953000Y-73691761D01*
X131991095Y-73653666D01*
X132067285Y-73615571D01*
X132181571Y-73615571D01*
X132257761Y-73653666D01*
X132295857Y-73691761D01*
X132333952Y-73767952D01*
X132333952Y-73996523D01*
X132295857Y-74072714D01*
X132257761Y-74110809D01*
X132181571Y-74148904D01*
X132067285Y-74148904D01*
X132676809Y-73615571D02*
X132676809Y-74148904D01*
X132676809Y-73691761D02*
X132714904Y-73653666D01*
X132791095Y-73615571D01*
X132905380Y-73615571D01*
X132981571Y-73653666D01*
X133019666Y-73729857D01*
X133019666Y-74148904D01*
X134429190Y-74148904D02*
X133972047Y-74148904D01*
X134200619Y-74148904D02*
X134200619Y-73348904D01*
X134124428Y-73463190D01*
X134048238Y-73539380D01*
X133972047Y-73577476D01*
X129781571Y-65284357D02*
X129895857Y-65322452D01*
X129933952Y-65360547D01*
X129972047Y-65436738D01*
X129972047Y-65551023D01*
X129933952Y-65627214D01*
X129895857Y-65665309D01*
X129819666Y-65703404D01*
X129514904Y-65703404D01*
X129514904Y-64903404D01*
X129781571Y-64903404D01*
X129857761Y-64941500D01*
X129895857Y-64979595D01*
X129933952Y-65055785D01*
X129933952Y-65131976D01*
X129895857Y-65208166D01*
X129857761Y-65246261D01*
X129781571Y-65284357D01*
X129514904Y-65284357D01*
X130657761Y-65170071D02*
X130657761Y-65703404D01*
X130314904Y-65170071D02*
X130314904Y-65589119D01*
X130353000Y-65665309D01*
X130429190Y-65703404D01*
X130543476Y-65703404D01*
X130619666Y-65665309D01*
X130657761Y-65627214D01*
X130924428Y-65170071D02*
X131229190Y-65170071D01*
X131038714Y-64903404D02*
X131038714Y-65589119D01*
X131076809Y-65665309D01*
X131153000Y-65703404D01*
X131229190Y-65703404D01*
X131381571Y-65170071D02*
X131686333Y-65170071D01*
X131495857Y-64903404D02*
X131495857Y-65589119D01*
X131533952Y-65665309D01*
X131610142Y-65703404D01*
X131686333Y-65703404D01*
X132067285Y-65703404D02*
X131991095Y-65665309D01*
X131953000Y-65627214D01*
X131914904Y-65551023D01*
X131914904Y-65322452D01*
X131953000Y-65246261D01*
X131991095Y-65208166D01*
X132067285Y-65170071D01*
X132181571Y-65170071D01*
X132257761Y-65208166D01*
X132295857Y-65246261D01*
X132333952Y-65322452D01*
X132333952Y-65551023D01*
X132295857Y-65627214D01*
X132257761Y-65665309D01*
X132181571Y-65703404D01*
X132067285Y-65703404D01*
X132676809Y-65170071D02*
X132676809Y-65703404D01*
X132676809Y-65246261D02*
X132714904Y-65208166D01*
X132791095Y-65170071D01*
X132905380Y-65170071D01*
X132981571Y-65208166D01*
X133019666Y-65284357D01*
X133019666Y-65703404D01*
X134162523Y-64903404D02*
X134238714Y-64903404D01*
X134314904Y-64941500D01*
X134353000Y-64979595D01*
X134391095Y-65055785D01*
X134429190Y-65208166D01*
X134429190Y-65398642D01*
X134391095Y-65551023D01*
X134353000Y-65627214D01*
X134314904Y-65665309D01*
X134238714Y-65703404D01*
X134162523Y-65703404D01*
X134086333Y-65665309D01*
X134048238Y-65627214D01*
X134010142Y-65551023D01*
X133972047Y-65398642D01*
X133972047Y-65208166D01*
X134010142Y-65055785D01*
X134048238Y-64979595D01*
X134086333Y-64941500D01*
X134162523Y-64903404D01*
D11*
X86100000Y-50000000D03*
X83560000Y-50000000D03*
X81020000Y-50000000D03*
X78480000Y-50000000D03*
X75940000Y-50000000D03*
X73400000Y-50000000D03*
X70860000Y-50000000D03*
X68320000Y-50000000D03*
X65780000Y-50000000D03*
X63240000Y-50000000D03*
X60700000Y-50000000D03*
X58160000Y-50000000D03*
X55620000Y-50000000D03*
X53080000Y-50000000D03*
X50540000Y-50000000D03*
D12*
X48000000Y-50000000D03*
G04 #@! TA.AperFunction,SMDPad,CuDef*
D13*
G36*
X97444504Y-49036204D02*
G01*
X97468773Y-49039804D01*
X97492571Y-49045765D01*
X97515671Y-49054030D01*
X97537849Y-49064520D01*
X97558893Y-49077133D01*
X97578598Y-49091747D01*
X97596777Y-49108223D01*
X97613253Y-49126402D01*
X97627867Y-49146107D01*
X97640480Y-49167151D01*
X97650970Y-49189329D01*
X97659235Y-49212429D01*
X97665196Y-49236227D01*
X97668796Y-49260496D01*
X97670000Y-49285000D01*
X97670000Y-50535000D01*
X97668796Y-50559504D01*
X97665196Y-50583773D01*
X97659235Y-50607571D01*
X97650970Y-50630671D01*
X97640480Y-50652849D01*
X97627867Y-50673893D01*
X97613253Y-50693598D01*
X97596777Y-50711777D01*
X97578598Y-50728253D01*
X97558893Y-50742867D01*
X97537849Y-50755480D01*
X97515671Y-50765970D01*
X97492571Y-50774235D01*
X97468773Y-50780196D01*
X97444504Y-50783796D01*
X97420000Y-50785000D01*
X96495000Y-50785000D01*
X96470496Y-50783796D01*
X96446227Y-50780196D01*
X96422429Y-50774235D01*
X96399329Y-50765970D01*
X96377151Y-50755480D01*
X96356107Y-50742867D01*
X96336402Y-50728253D01*
X96318223Y-50711777D01*
X96301747Y-50693598D01*
X96287133Y-50673893D01*
X96274520Y-50652849D01*
X96264030Y-50630671D01*
X96255765Y-50607571D01*
X96249804Y-50583773D01*
X96246204Y-50559504D01*
X96245000Y-50535000D01*
X96245000Y-49285000D01*
X96246204Y-49260496D01*
X96249804Y-49236227D01*
X96255765Y-49212429D01*
X96264030Y-49189329D01*
X96274520Y-49167151D01*
X96287133Y-49146107D01*
X96301747Y-49126402D01*
X96318223Y-49108223D01*
X96336402Y-49091747D01*
X96356107Y-49077133D01*
X96377151Y-49064520D01*
X96399329Y-49054030D01*
X96422429Y-49045765D01*
X96446227Y-49039804D01*
X96470496Y-49036204D01*
X96495000Y-49035000D01*
X97420000Y-49035000D01*
X97444504Y-49036204D01*
G37*
G04 #@! TD.AperFunction*
G04 #@! TA.AperFunction,SMDPad,CuDef*
G36*
X94469504Y-49036204D02*
G01*
X94493773Y-49039804D01*
X94517571Y-49045765D01*
X94540671Y-49054030D01*
X94562849Y-49064520D01*
X94583893Y-49077133D01*
X94603598Y-49091747D01*
X94621777Y-49108223D01*
X94638253Y-49126402D01*
X94652867Y-49146107D01*
X94665480Y-49167151D01*
X94675970Y-49189329D01*
X94684235Y-49212429D01*
X94690196Y-49236227D01*
X94693796Y-49260496D01*
X94695000Y-49285000D01*
X94695000Y-50535000D01*
X94693796Y-50559504D01*
X94690196Y-50583773D01*
X94684235Y-50607571D01*
X94675970Y-50630671D01*
X94665480Y-50652849D01*
X94652867Y-50673893D01*
X94638253Y-50693598D01*
X94621777Y-50711777D01*
X94603598Y-50728253D01*
X94583893Y-50742867D01*
X94562849Y-50755480D01*
X94540671Y-50765970D01*
X94517571Y-50774235D01*
X94493773Y-50780196D01*
X94469504Y-50783796D01*
X94445000Y-50785000D01*
X93520000Y-50785000D01*
X93495496Y-50783796D01*
X93471227Y-50780196D01*
X93447429Y-50774235D01*
X93424329Y-50765970D01*
X93402151Y-50755480D01*
X93381107Y-50742867D01*
X93361402Y-50728253D01*
X93343223Y-50711777D01*
X93326747Y-50693598D01*
X93312133Y-50673893D01*
X93299520Y-50652849D01*
X93289030Y-50630671D01*
X93280765Y-50607571D01*
X93274804Y-50583773D01*
X93271204Y-50559504D01*
X93270000Y-50535000D01*
X93270000Y-49285000D01*
X93271204Y-49260496D01*
X93274804Y-49236227D01*
X93280765Y-49212429D01*
X93289030Y-49189329D01*
X93299520Y-49167151D01*
X93312133Y-49146107D01*
X93326747Y-49126402D01*
X93343223Y-49108223D01*
X93361402Y-49091747D01*
X93381107Y-49077133D01*
X93402151Y-49064520D01*
X93424329Y-49054030D01*
X93447429Y-49045765D01*
X93471227Y-49039804D01*
X93495496Y-49036204D01*
X93520000Y-49035000D01*
X94445000Y-49035000D01*
X94469504Y-49036204D01*
G37*
G04 #@! TD.AperFunction*
G04 #@! TA.AperFunction,SMDPad,CuDef*
G36*
X142246779Y-60450144D02*
G01*
X142269834Y-60453563D01*
X142292443Y-60459227D01*
X142314387Y-60467079D01*
X142335457Y-60477044D01*
X142355448Y-60489026D01*
X142374168Y-60502910D01*
X142391438Y-60518562D01*
X142407090Y-60535832D01*
X142420974Y-60554552D01*
X142432956Y-60574543D01*
X142442921Y-60595613D01*
X142450773Y-60617557D01*
X142456437Y-60640166D01*
X142459856Y-60663221D01*
X142461000Y-60686500D01*
X142461000Y-61261500D01*
X142459856Y-61284779D01*
X142456437Y-61307834D01*
X142450773Y-61330443D01*
X142442921Y-61352387D01*
X142432956Y-61373457D01*
X142420974Y-61393448D01*
X142407090Y-61412168D01*
X142391438Y-61429438D01*
X142374168Y-61445090D01*
X142355448Y-61458974D01*
X142335457Y-61470956D01*
X142314387Y-61480921D01*
X142292443Y-61488773D01*
X142269834Y-61494437D01*
X142246779Y-61497856D01*
X142223500Y-61499000D01*
X141748500Y-61499000D01*
X141725221Y-61497856D01*
X141702166Y-61494437D01*
X141679557Y-61488773D01*
X141657613Y-61480921D01*
X141636543Y-61470956D01*
X141616552Y-61458974D01*
X141597832Y-61445090D01*
X141580562Y-61429438D01*
X141564910Y-61412168D01*
X141551026Y-61393448D01*
X141539044Y-61373457D01*
X141529079Y-61352387D01*
X141521227Y-61330443D01*
X141515563Y-61307834D01*
X141512144Y-61284779D01*
X141511000Y-61261500D01*
X141511000Y-60686500D01*
X141512144Y-60663221D01*
X141515563Y-60640166D01*
X141521227Y-60617557D01*
X141529079Y-60595613D01*
X141539044Y-60574543D01*
X141551026Y-60554552D01*
X141564910Y-60535832D01*
X141580562Y-60518562D01*
X141597832Y-60502910D01*
X141616552Y-60489026D01*
X141636543Y-60477044D01*
X141657613Y-60467079D01*
X141679557Y-60459227D01*
X141702166Y-60453563D01*
X141725221Y-60450144D01*
X141748500Y-60449000D01*
X142223500Y-60449000D01*
X142246779Y-60450144D01*
G37*
G04 #@! TD.AperFunction*
G04 #@! TA.AperFunction,SMDPad,CuDef*
G36*
X142246779Y-62200144D02*
G01*
X142269834Y-62203563D01*
X142292443Y-62209227D01*
X142314387Y-62217079D01*
X142335457Y-62227044D01*
X142355448Y-62239026D01*
X142374168Y-62252910D01*
X142391438Y-62268562D01*
X142407090Y-62285832D01*
X142420974Y-62304552D01*
X142432956Y-62324543D01*
X142442921Y-62345613D01*
X142450773Y-62367557D01*
X142456437Y-62390166D01*
X142459856Y-62413221D01*
X142461000Y-62436500D01*
X142461000Y-63011500D01*
X142459856Y-63034779D01*
X142456437Y-63057834D01*
X142450773Y-63080443D01*
X142442921Y-63102387D01*
X142432956Y-63123457D01*
X142420974Y-63143448D01*
X142407090Y-63162168D01*
X142391438Y-63179438D01*
X142374168Y-63195090D01*
X142355448Y-63208974D01*
X142335457Y-63220956D01*
X142314387Y-63230921D01*
X142292443Y-63238773D01*
X142269834Y-63244437D01*
X142246779Y-63247856D01*
X142223500Y-63249000D01*
X141748500Y-63249000D01*
X141725221Y-63247856D01*
X141702166Y-63244437D01*
X141679557Y-63238773D01*
X141657613Y-63230921D01*
X141636543Y-63220956D01*
X141616552Y-63208974D01*
X141597832Y-63195090D01*
X141580562Y-63179438D01*
X141564910Y-63162168D01*
X141551026Y-63143448D01*
X141539044Y-63123457D01*
X141529079Y-63102387D01*
X141521227Y-63080443D01*
X141515563Y-63057834D01*
X141512144Y-63034779D01*
X141511000Y-63011500D01*
X141511000Y-62436500D01*
X141512144Y-62413221D01*
X141515563Y-62390166D01*
X141521227Y-62367557D01*
X141529079Y-62345613D01*
X141539044Y-62324543D01*
X141551026Y-62304552D01*
X141564910Y-62285832D01*
X141580562Y-62268562D01*
X141597832Y-62252910D01*
X141616552Y-62239026D01*
X141636543Y-62227044D01*
X141657613Y-62217079D01*
X141679557Y-62209227D01*
X141702166Y-62203563D01*
X141725221Y-62200144D01*
X141748500Y-62199000D01*
X142223500Y-62199000D01*
X142246779Y-62200144D01*
G37*
G04 #@! TD.AperFunction*
G04 #@! TA.AperFunction,SMDPad,CuDef*
G36*
X142246779Y-57021144D02*
G01*
X142269834Y-57024563D01*
X142292443Y-57030227D01*
X142314387Y-57038079D01*
X142335457Y-57048044D01*
X142355448Y-57060026D01*
X142374168Y-57073910D01*
X142391438Y-57089562D01*
X142407090Y-57106832D01*
X142420974Y-57125552D01*
X142432956Y-57145543D01*
X142442921Y-57166613D01*
X142450773Y-57188557D01*
X142456437Y-57211166D01*
X142459856Y-57234221D01*
X142461000Y-57257500D01*
X142461000Y-57832500D01*
X142459856Y-57855779D01*
X142456437Y-57878834D01*
X142450773Y-57901443D01*
X142442921Y-57923387D01*
X142432956Y-57944457D01*
X142420974Y-57964448D01*
X142407090Y-57983168D01*
X142391438Y-58000438D01*
X142374168Y-58016090D01*
X142355448Y-58029974D01*
X142335457Y-58041956D01*
X142314387Y-58051921D01*
X142292443Y-58059773D01*
X142269834Y-58065437D01*
X142246779Y-58068856D01*
X142223500Y-58070000D01*
X141748500Y-58070000D01*
X141725221Y-58068856D01*
X141702166Y-58065437D01*
X141679557Y-58059773D01*
X141657613Y-58051921D01*
X141636543Y-58041956D01*
X141616552Y-58029974D01*
X141597832Y-58016090D01*
X141580562Y-58000438D01*
X141564910Y-57983168D01*
X141551026Y-57964448D01*
X141539044Y-57944457D01*
X141529079Y-57923387D01*
X141521227Y-57901443D01*
X141515563Y-57878834D01*
X141512144Y-57855779D01*
X141511000Y-57832500D01*
X141511000Y-57257500D01*
X141512144Y-57234221D01*
X141515563Y-57211166D01*
X141521227Y-57188557D01*
X141529079Y-57166613D01*
X141539044Y-57145543D01*
X141551026Y-57125552D01*
X141564910Y-57106832D01*
X141580562Y-57089562D01*
X141597832Y-57073910D01*
X141616552Y-57060026D01*
X141636543Y-57048044D01*
X141657613Y-57038079D01*
X141679557Y-57030227D01*
X141702166Y-57024563D01*
X141725221Y-57021144D01*
X141748500Y-57020000D01*
X142223500Y-57020000D01*
X142246779Y-57021144D01*
G37*
G04 #@! TD.AperFunction*
G04 #@! TA.AperFunction,SMDPad,CuDef*
G36*
X142246779Y-58771144D02*
G01*
X142269834Y-58774563D01*
X142292443Y-58780227D01*
X142314387Y-58788079D01*
X142335457Y-58798044D01*
X142355448Y-58810026D01*
X142374168Y-58823910D01*
X142391438Y-58839562D01*
X142407090Y-58856832D01*
X142420974Y-58875552D01*
X142432956Y-58895543D01*
X142442921Y-58916613D01*
X142450773Y-58938557D01*
X142456437Y-58961166D01*
X142459856Y-58984221D01*
X142461000Y-59007500D01*
X142461000Y-59582500D01*
X142459856Y-59605779D01*
X142456437Y-59628834D01*
X142450773Y-59651443D01*
X142442921Y-59673387D01*
X142432956Y-59694457D01*
X142420974Y-59714448D01*
X142407090Y-59733168D01*
X142391438Y-59750438D01*
X142374168Y-59766090D01*
X142355448Y-59779974D01*
X142335457Y-59791956D01*
X142314387Y-59801921D01*
X142292443Y-59809773D01*
X142269834Y-59815437D01*
X142246779Y-59818856D01*
X142223500Y-59820000D01*
X141748500Y-59820000D01*
X141725221Y-59818856D01*
X141702166Y-59815437D01*
X141679557Y-59809773D01*
X141657613Y-59801921D01*
X141636543Y-59791956D01*
X141616552Y-59779974D01*
X141597832Y-59766090D01*
X141580562Y-59750438D01*
X141564910Y-59733168D01*
X141551026Y-59714448D01*
X141539044Y-59694457D01*
X141529079Y-59673387D01*
X141521227Y-59651443D01*
X141515563Y-59628834D01*
X141512144Y-59605779D01*
X141511000Y-59582500D01*
X141511000Y-59007500D01*
X141512144Y-58984221D01*
X141515563Y-58961166D01*
X141521227Y-58938557D01*
X141529079Y-58916613D01*
X141539044Y-58895543D01*
X141551026Y-58875552D01*
X141564910Y-58856832D01*
X141580562Y-58839562D01*
X141597832Y-58823910D01*
X141616552Y-58810026D01*
X141636543Y-58798044D01*
X141657613Y-58788079D01*
X141679557Y-58780227D01*
X141702166Y-58774563D01*
X141725221Y-58771144D01*
X141748500Y-58770000D01*
X142223500Y-58770000D01*
X142246779Y-58771144D01*
G37*
G04 #@! TD.AperFunction*
G04 #@! TA.AperFunction,SMDPad,CuDef*
G36*
X131815779Y-53036144D02*
G01*
X131838834Y-53039563D01*
X131861443Y-53045227D01*
X131883387Y-53053079D01*
X131904457Y-53063044D01*
X131924448Y-53075026D01*
X131943168Y-53088910D01*
X131960438Y-53104562D01*
X131976090Y-53121832D01*
X131989974Y-53140552D01*
X132001956Y-53160543D01*
X132011921Y-53181613D01*
X132019773Y-53203557D01*
X132025437Y-53226166D01*
X132028856Y-53249221D01*
X132030000Y-53272500D01*
X132030000Y-53747500D01*
X132028856Y-53770779D01*
X132025437Y-53793834D01*
X132019773Y-53816443D01*
X132011921Y-53838387D01*
X132001956Y-53859457D01*
X131989974Y-53879448D01*
X131976090Y-53898168D01*
X131960438Y-53915438D01*
X131943168Y-53931090D01*
X131924448Y-53944974D01*
X131904457Y-53956956D01*
X131883387Y-53966921D01*
X131861443Y-53974773D01*
X131838834Y-53980437D01*
X131815779Y-53983856D01*
X131792500Y-53985000D01*
X131217500Y-53985000D01*
X131194221Y-53983856D01*
X131171166Y-53980437D01*
X131148557Y-53974773D01*
X131126613Y-53966921D01*
X131105543Y-53956956D01*
X131085552Y-53944974D01*
X131066832Y-53931090D01*
X131049562Y-53915438D01*
X131033910Y-53898168D01*
X131020026Y-53879448D01*
X131008044Y-53859457D01*
X130998079Y-53838387D01*
X130990227Y-53816443D01*
X130984563Y-53793834D01*
X130981144Y-53770779D01*
X130980000Y-53747500D01*
X130980000Y-53272500D01*
X130981144Y-53249221D01*
X130984563Y-53226166D01*
X130990227Y-53203557D01*
X130998079Y-53181613D01*
X131008044Y-53160543D01*
X131020026Y-53140552D01*
X131033910Y-53121832D01*
X131049562Y-53104562D01*
X131066832Y-53088910D01*
X131085552Y-53075026D01*
X131105543Y-53063044D01*
X131126613Y-53053079D01*
X131148557Y-53045227D01*
X131171166Y-53039563D01*
X131194221Y-53036144D01*
X131217500Y-53035000D01*
X131792500Y-53035000D01*
X131815779Y-53036144D01*
G37*
G04 #@! TD.AperFunction*
G04 #@! TA.AperFunction,SMDPad,CuDef*
G36*
X133565779Y-53036144D02*
G01*
X133588834Y-53039563D01*
X133611443Y-53045227D01*
X133633387Y-53053079D01*
X133654457Y-53063044D01*
X133674448Y-53075026D01*
X133693168Y-53088910D01*
X133710438Y-53104562D01*
X133726090Y-53121832D01*
X133739974Y-53140552D01*
X133751956Y-53160543D01*
X133761921Y-53181613D01*
X133769773Y-53203557D01*
X133775437Y-53226166D01*
X133778856Y-53249221D01*
X133780000Y-53272500D01*
X133780000Y-53747500D01*
X133778856Y-53770779D01*
X133775437Y-53793834D01*
X133769773Y-53816443D01*
X133761921Y-53838387D01*
X133751956Y-53859457D01*
X133739974Y-53879448D01*
X133726090Y-53898168D01*
X133710438Y-53915438D01*
X133693168Y-53931090D01*
X133674448Y-53944974D01*
X133654457Y-53956956D01*
X133633387Y-53966921D01*
X133611443Y-53974773D01*
X133588834Y-53980437D01*
X133565779Y-53983856D01*
X133542500Y-53985000D01*
X132967500Y-53985000D01*
X132944221Y-53983856D01*
X132921166Y-53980437D01*
X132898557Y-53974773D01*
X132876613Y-53966921D01*
X132855543Y-53956956D01*
X132835552Y-53944974D01*
X132816832Y-53931090D01*
X132799562Y-53915438D01*
X132783910Y-53898168D01*
X132770026Y-53879448D01*
X132758044Y-53859457D01*
X132748079Y-53838387D01*
X132740227Y-53816443D01*
X132734563Y-53793834D01*
X132731144Y-53770779D01*
X132730000Y-53747500D01*
X132730000Y-53272500D01*
X132731144Y-53249221D01*
X132734563Y-53226166D01*
X132740227Y-53203557D01*
X132748079Y-53181613D01*
X132758044Y-53160543D01*
X132770026Y-53140552D01*
X132783910Y-53121832D01*
X132799562Y-53104562D01*
X132816832Y-53088910D01*
X132835552Y-53075026D01*
X132855543Y-53063044D01*
X132876613Y-53053079D01*
X132898557Y-53045227D01*
X132921166Y-53039563D01*
X132944221Y-53036144D01*
X132967500Y-53035000D01*
X133542500Y-53035000D01*
X133565779Y-53036144D01*
G37*
G04 #@! TD.AperFunction*
D14*
X117500000Y-50000000D03*
X117499480Y-81000700D03*
X42500900Y-50000000D03*
D15*
X86100000Y-50000000D03*
X83560000Y-50000000D03*
X81020000Y-50000000D03*
X78480000Y-50000000D03*
X75940000Y-50000000D03*
X73400000Y-50000000D03*
X70860000Y-50000000D03*
X68320000Y-50000000D03*
X65780000Y-50000000D03*
X63240000Y-50000000D03*
X60700000Y-50000000D03*
X58160000Y-50000000D03*
X55620000Y-50000000D03*
X53080000Y-50000000D03*
X50540000Y-50000000D03*
D16*
X48000000Y-50000000D03*
G04 #@! TA.AperFunction,SMDPad,CuDef*
D13*
G36*
X131815779Y-54596144D02*
G01*
X131838834Y-54599563D01*
X131861443Y-54605227D01*
X131883387Y-54613079D01*
X131904457Y-54623044D01*
X131924448Y-54635026D01*
X131943168Y-54648910D01*
X131960438Y-54664562D01*
X131976090Y-54681832D01*
X131989974Y-54700552D01*
X132001956Y-54720543D01*
X132011921Y-54741613D01*
X132019773Y-54763557D01*
X132025437Y-54786166D01*
X132028856Y-54809221D01*
X132030000Y-54832500D01*
X132030000Y-55307500D01*
X132028856Y-55330779D01*
X132025437Y-55353834D01*
X132019773Y-55376443D01*
X132011921Y-55398387D01*
X132001956Y-55419457D01*
X131989974Y-55439448D01*
X131976090Y-55458168D01*
X131960438Y-55475438D01*
X131943168Y-55491090D01*
X131924448Y-55504974D01*
X131904457Y-55516956D01*
X131883387Y-55526921D01*
X131861443Y-55534773D01*
X131838834Y-55540437D01*
X131815779Y-55543856D01*
X131792500Y-55545000D01*
X131217500Y-55545000D01*
X131194221Y-55543856D01*
X131171166Y-55540437D01*
X131148557Y-55534773D01*
X131126613Y-55526921D01*
X131105543Y-55516956D01*
X131085552Y-55504974D01*
X131066832Y-55491090D01*
X131049562Y-55475438D01*
X131033910Y-55458168D01*
X131020026Y-55439448D01*
X131008044Y-55419457D01*
X130998079Y-55398387D01*
X130990227Y-55376443D01*
X130984563Y-55353834D01*
X130981144Y-55330779D01*
X130980000Y-55307500D01*
X130980000Y-54832500D01*
X130981144Y-54809221D01*
X130984563Y-54786166D01*
X130990227Y-54763557D01*
X130998079Y-54741613D01*
X131008044Y-54720543D01*
X131020026Y-54700552D01*
X131033910Y-54681832D01*
X131049562Y-54664562D01*
X131066832Y-54648910D01*
X131085552Y-54635026D01*
X131105543Y-54623044D01*
X131126613Y-54613079D01*
X131148557Y-54605227D01*
X131171166Y-54599563D01*
X131194221Y-54596144D01*
X131217500Y-54595000D01*
X131792500Y-54595000D01*
X131815779Y-54596144D01*
G37*
G04 #@! TD.AperFunction*
G04 #@! TA.AperFunction,SMDPad,CuDef*
G36*
X133565779Y-54596144D02*
G01*
X133588834Y-54599563D01*
X133611443Y-54605227D01*
X133633387Y-54613079D01*
X133654457Y-54623044D01*
X133674448Y-54635026D01*
X133693168Y-54648910D01*
X133710438Y-54664562D01*
X133726090Y-54681832D01*
X133739974Y-54700552D01*
X133751956Y-54720543D01*
X133761921Y-54741613D01*
X133769773Y-54763557D01*
X133775437Y-54786166D01*
X133778856Y-54809221D01*
X133780000Y-54832500D01*
X133780000Y-55307500D01*
X133778856Y-55330779D01*
X133775437Y-55353834D01*
X133769773Y-55376443D01*
X133761921Y-55398387D01*
X133751956Y-55419457D01*
X133739974Y-55439448D01*
X133726090Y-55458168D01*
X133710438Y-55475438D01*
X133693168Y-55491090D01*
X133674448Y-55504974D01*
X133654457Y-55516956D01*
X133633387Y-55526921D01*
X133611443Y-55534773D01*
X133588834Y-55540437D01*
X133565779Y-55543856D01*
X133542500Y-55545000D01*
X132967500Y-55545000D01*
X132944221Y-55543856D01*
X132921166Y-55540437D01*
X132898557Y-55534773D01*
X132876613Y-55526921D01*
X132855543Y-55516956D01*
X132835552Y-55504974D01*
X132816832Y-55491090D01*
X132799562Y-55475438D01*
X132783910Y-55458168D01*
X132770026Y-55439448D01*
X132758044Y-55419457D01*
X132748079Y-55398387D01*
X132740227Y-55376443D01*
X132734563Y-55353834D01*
X132731144Y-55330779D01*
X132730000Y-55307500D01*
X132730000Y-54832500D01*
X132731144Y-54809221D01*
X132734563Y-54786166D01*
X132740227Y-54763557D01*
X132748079Y-54741613D01*
X132758044Y-54720543D01*
X132770026Y-54700552D01*
X132783910Y-54681832D01*
X132799562Y-54664562D01*
X132816832Y-54648910D01*
X132835552Y-54635026D01*
X132855543Y-54623044D01*
X132876613Y-54613079D01*
X132898557Y-54605227D01*
X132921166Y-54599563D01*
X132944221Y-54596144D01*
X132967500Y-54595000D01*
X133542500Y-54595000D01*
X133565779Y-54596144D01*
G37*
G04 #@! TD.AperFunction*
D17*
X123026400Y-48793400D03*
X145378400Y-48793400D03*
D18*
X125702400Y-51333400D03*
X126702400Y-51333400D03*
X127702400Y-51333400D03*
X128702400Y-51333400D03*
X129702400Y-51333400D03*
X130702400Y-51333400D03*
X131702400Y-51333400D03*
X132702400Y-51333400D03*
X133702400Y-51333400D03*
X134702400Y-51333400D03*
X135702400Y-51333400D03*
X136702400Y-51333400D03*
X137702400Y-51333400D03*
X138702400Y-51333400D03*
X139702400Y-51333400D03*
X140702400Y-51333400D03*
X141702400Y-51333400D03*
X142702400Y-51333400D03*
G04 #@! TA.AperFunction,SMDPad,CuDef*
D13*
G36*
X92330004Y-48573704D02*
G01*
X92354273Y-48577304D01*
X92378071Y-48583265D01*
X92401171Y-48591530D01*
X92423349Y-48602020D01*
X92444393Y-48614633D01*
X92464098Y-48629247D01*
X92482277Y-48645723D01*
X92498753Y-48663902D01*
X92513367Y-48683607D01*
X92525980Y-48704651D01*
X92536470Y-48726829D01*
X92544735Y-48749929D01*
X92550696Y-48773727D01*
X92554296Y-48797996D01*
X92555500Y-48822500D01*
X92555500Y-50972500D01*
X92554296Y-50997004D01*
X92550696Y-51021273D01*
X92544735Y-51045071D01*
X92536470Y-51068171D01*
X92525980Y-51090349D01*
X92513367Y-51111393D01*
X92498753Y-51131098D01*
X92482277Y-51149277D01*
X92464098Y-51165753D01*
X92444393Y-51180367D01*
X92423349Y-51192980D01*
X92401171Y-51203470D01*
X92378071Y-51211735D01*
X92354273Y-51217696D01*
X92330004Y-51221296D01*
X92305500Y-51222500D01*
X91380500Y-51222500D01*
X91355996Y-51221296D01*
X91331727Y-51217696D01*
X91307929Y-51211735D01*
X91284829Y-51203470D01*
X91262651Y-51192980D01*
X91241607Y-51180367D01*
X91221902Y-51165753D01*
X91203723Y-51149277D01*
X91187247Y-51131098D01*
X91172633Y-51111393D01*
X91160020Y-51090349D01*
X91149530Y-51068171D01*
X91141265Y-51045071D01*
X91135304Y-51021273D01*
X91131704Y-50997004D01*
X91130500Y-50972500D01*
X91130500Y-48822500D01*
X91131704Y-48797996D01*
X91135304Y-48773727D01*
X91141265Y-48749929D01*
X91149530Y-48726829D01*
X91160020Y-48704651D01*
X91172633Y-48683607D01*
X91187247Y-48663902D01*
X91203723Y-48645723D01*
X91221902Y-48629247D01*
X91241607Y-48614633D01*
X91262651Y-48602020D01*
X91284829Y-48591530D01*
X91307929Y-48583265D01*
X91331727Y-48577304D01*
X91355996Y-48573704D01*
X91380500Y-48572500D01*
X92305500Y-48572500D01*
X92330004Y-48573704D01*
G37*
G04 #@! TD.AperFunction*
G04 #@! TA.AperFunction,SMDPad,CuDef*
G36*
X89355004Y-48573704D02*
G01*
X89379273Y-48577304D01*
X89403071Y-48583265D01*
X89426171Y-48591530D01*
X89448349Y-48602020D01*
X89469393Y-48614633D01*
X89489098Y-48629247D01*
X89507277Y-48645723D01*
X89523753Y-48663902D01*
X89538367Y-48683607D01*
X89550980Y-48704651D01*
X89561470Y-48726829D01*
X89569735Y-48749929D01*
X89575696Y-48773727D01*
X89579296Y-48797996D01*
X89580500Y-48822500D01*
X89580500Y-50972500D01*
X89579296Y-50997004D01*
X89575696Y-51021273D01*
X89569735Y-51045071D01*
X89561470Y-51068171D01*
X89550980Y-51090349D01*
X89538367Y-51111393D01*
X89523753Y-51131098D01*
X89507277Y-51149277D01*
X89489098Y-51165753D01*
X89469393Y-51180367D01*
X89448349Y-51192980D01*
X89426171Y-51203470D01*
X89403071Y-51211735D01*
X89379273Y-51217696D01*
X89355004Y-51221296D01*
X89330500Y-51222500D01*
X88405500Y-51222500D01*
X88380996Y-51221296D01*
X88356727Y-51217696D01*
X88332929Y-51211735D01*
X88309829Y-51203470D01*
X88287651Y-51192980D01*
X88266607Y-51180367D01*
X88246902Y-51165753D01*
X88228723Y-51149277D01*
X88212247Y-51131098D01*
X88197633Y-51111393D01*
X88185020Y-51090349D01*
X88174530Y-51068171D01*
X88166265Y-51045071D01*
X88160304Y-51021273D01*
X88156704Y-50997004D01*
X88155500Y-50972500D01*
X88155500Y-48822500D01*
X88156704Y-48797996D01*
X88160304Y-48773727D01*
X88166265Y-48749929D01*
X88174530Y-48726829D01*
X88185020Y-48704651D01*
X88197633Y-48683607D01*
X88212247Y-48663902D01*
X88228723Y-48645723D01*
X88246902Y-48629247D01*
X88266607Y-48614633D01*
X88287651Y-48602020D01*
X88309829Y-48591530D01*
X88332929Y-48583265D01*
X88356727Y-48577304D01*
X88380996Y-48573704D01*
X88405500Y-48572500D01*
X89330500Y-48572500D01*
X89355004Y-48573704D01*
G37*
G04 #@! TD.AperFunction*
D19*
X127373380Y-56959500D03*
D20*
X124833380Y-56959500D03*
G04 #@! TA.AperFunction,SMDPad,CuDef*
D13*
G36*
X133565779Y-56156144D02*
G01*
X133588834Y-56159563D01*
X133611443Y-56165227D01*
X133633387Y-56173079D01*
X133654457Y-56183044D01*
X133674448Y-56195026D01*
X133693168Y-56208910D01*
X133710438Y-56224562D01*
X133726090Y-56241832D01*
X133739974Y-56260552D01*
X133751956Y-56280543D01*
X133761921Y-56301613D01*
X133769773Y-56323557D01*
X133775437Y-56346166D01*
X133778856Y-56369221D01*
X133780000Y-56392500D01*
X133780000Y-56867500D01*
X133778856Y-56890779D01*
X133775437Y-56913834D01*
X133769773Y-56936443D01*
X133761921Y-56958387D01*
X133751956Y-56979457D01*
X133739974Y-56999448D01*
X133726090Y-57018168D01*
X133710438Y-57035438D01*
X133693168Y-57051090D01*
X133674448Y-57064974D01*
X133654457Y-57076956D01*
X133633387Y-57086921D01*
X133611443Y-57094773D01*
X133588834Y-57100437D01*
X133565779Y-57103856D01*
X133542500Y-57105000D01*
X132967500Y-57105000D01*
X132944221Y-57103856D01*
X132921166Y-57100437D01*
X132898557Y-57094773D01*
X132876613Y-57086921D01*
X132855543Y-57076956D01*
X132835552Y-57064974D01*
X132816832Y-57051090D01*
X132799562Y-57035438D01*
X132783910Y-57018168D01*
X132770026Y-56999448D01*
X132758044Y-56979457D01*
X132748079Y-56958387D01*
X132740227Y-56936443D01*
X132734563Y-56913834D01*
X132731144Y-56890779D01*
X132730000Y-56867500D01*
X132730000Y-56392500D01*
X132731144Y-56369221D01*
X132734563Y-56346166D01*
X132740227Y-56323557D01*
X132748079Y-56301613D01*
X132758044Y-56280543D01*
X132770026Y-56260552D01*
X132783910Y-56241832D01*
X132799562Y-56224562D01*
X132816832Y-56208910D01*
X132835552Y-56195026D01*
X132855543Y-56183044D01*
X132876613Y-56173079D01*
X132898557Y-56165227D01*
X132921166Y-56159563D01*
X132944221Y-56156144D01*
X132967500Y-56155000D01*
X133542500Y-56155000D01*
X133565779Y-56156144D01*
G37*
G04 #@! TD.AperFunction*
G04 #@! TA.AperFunction,SMDPad,CuDef*
G36*
X131815779Y-56156144D02*
G01*
X131838834Y-56159563D01*
X131861443Y-56165227D01*
X131883387Y-56173079D01*
X131904457Y-56183044D01*
X131924448Y-56195026D01*
X131943168Y-56208910D01*
X131960438Y-56224562D01*
X131976090Y-56241832D01*
X131989974Y-56260552D01*
X132001956Y-56280543D01*
X132011921Y-56301613D01*
X132019773Y-56323557D01*
X132025437Y-56346166D01*
X132028856Y-56369221D01*
X132030000Y-56392500D01*
X132030000Y-56867500D01*
X132028856Y-56890779D01*
X132025437Y-56913834D01*
X132019773Y-56936443D01*
X132011921Y-56958387D01*
X132001956Y-56979457D01*
X131989974Y-56999448D01*
X131976090Y-57018168D01*
X131960438Y-57035438D01*
X131943168Y-57051090D01*
X131924448Y-57064974D01*
X131904457Y-57076956D01*
X131883387Y-57086921D01*
X131861443Y-57094773D01*
X131838834Y-57100437D01*
X131815779Y-57103856D01*
X131792500Y-57105000D01*
X131217500Y-57105000D01*
X131194221Y-57103856D01*
X131171166Y-57100437D01*
X131148557Y-57094773D01*
X131126613Y-57086921D01*
X131105543Y-57076956D01*
X131085552Y-57064974D01*
X131066832Y-57051090D01*
X131049562Y-57035438D01*
X131033910Y-57018168D01*
X131020026Y-56999448D01*
X131008044Y-56979457D01*
X130998079Y-56958387D01*
X130990227Y-56936443D01*
X130984563Y-56913834D01*
X130981144Y-56890779D01*
X130980000Y-56867500D01*
X130980000Y-56392500D01*
X130981144Y-56369221D01*
X130984563Y-56346166D01*
X130990227Y-56323557D01*
X130998079Y-56301613D01*
X131008044Y-56280543D01*
X131020026Y-56260552D01*
X131033910Y-56241832D01*
X131049562Y-56224562D01*
X131066832Y-56208910D01*
X131085552Y-56195026D01*
X131105543Y-56183044D01*
X131126613Y-56173079D01*
X131148557Y-56165227D01*
X131171166Y-56159563D01*
X131194221Y-56156144D01*
X131217500Y-56155000D01*
X131792500Y-56155000D01*
X131815779Y-56156144D01*
G37*
G04 #@! TD.AperFunction*
D21*
X130810000Y-60706000D03*
D22*
X130810000Y-58166000D03*
X130810000Y-59436000D03*
G04 #@! TA.AperFunction,SMDPad,CuDef*
D13*
G36*
X48661779Y-47038144D02*
G01*
X48684834Y-47041563D01*
X48707443Y-47047227D01*
X48729387Y-47055079D01*
X48750457Y-47065044D01*
X48770448Y-47077026D01*
X48789168Y-47090910D01*
X48806438Y-47106562D01*
X48822090Y-47123832D01*
X48835974Y-47142552D01*
X48847956Y-47162543D01*
X48857921Y-47183613D01*
X48865773Y-47205557D01*
X48871437Y-47228166D01*
X48874856Y-47251221D01*
X48876000Y-47274500D01*
X48876000Y-47749500D01*
X48874856Y-47772779D01*
X48871437Y-47795834D01*
X48865773Y-47818443D01*
X48857921Y-47840387D01*
X48847956Y-47861457D01*
X48835974Y-47881448D01*
X48822090Y-47900168D01*
X48806438Y-47917438D01*
X48789168Y-47933090D01*
X48770448Y-47946974D01*
X48750457Y-47958956D01*
X48729387Y-47968921D01*
X48707443Y-47976773D01*
X48684834Y-47982437D01*
X48661779Y-47985856D01*
X48638500Y-47987000D01*
X48063500Y-47987000D01*
X48040221Y-47985856D01*
X48017166Y-47982437D01*
X47994557Y-47976773D01*
X47972613Y-47968921D01*
X47951543Y-47958956D01*
X47931552Y-47946974D01*
X47912832Y-47933090D01*
X47895562Y-47917438D01*
X47879910Y-47900168D01*
X47866026Y-47881448D01*
X47854044Y-47861457D01*
X47844079Y-47840387D01*
X47836227Y-47818443D01*
X47830563Y-47795834D01*
X47827144Y-47772779D01*
X47826000Y-47749500D01*
X47826000Y-47274500D01*
X47827144Y-47251221D01*
X47830563Y-47228166D01*
X47836227Y-47205557D01*
X47844079Y-47183613D01*
X47854044Y-47162543D01*
X47866026Y-47142552D01*
X47879910Y-47123832D01*
X47895562Y-47106562D01*
X47912832Y-47090910D01*
X47931552Y-47077026D01*
X47951543Y-47065044D01*
X47972613Y-47055079D01*
X47994557Y-47047227D01*
X48017166Y-47041563D01*
X48040221Y-47038144D01*
X48063500Y-47037000D01*
X48638500Y-47037000D01*
X48661779Y-47038144D01*
G37*
G04 #@! TD.AperFunction*
G04 #@! TA.AperFunction,SMDPad,CuDef*
G36*
X50411779Y-47038144D02*
G01*
X50434834Y-47041563D01*
X50457443Y-47047227D01*
X50479387Y-47055079D01*
X50500457Y-47065044D01*
X50520448Y-47077026D01*
X50539168Y-47090910D01*
X50556438Y-47106562D01*
X50572090Y-47123832D01*
X50585974Y-47142552D01*
X50597956Y-47162543D01*
X50607921Y-47183613D01*
X50615773Y-47205557D01*
X50621437Y-47228166D01*
X50624856Y-47251221D01*
X50626000Y-47274500D01*
X50626000Y-47749500D01*
X50624856Y-47772779D01*
X50621437Y-47795834D01*
X50615773Y-47818443D01*
X50607921Y-47840387D01*
X50597956Y-47861457D01*
X50585974Y-47881448D01*
X50572090Y-47900168D01*
X50556438Y-47917438D01*
X50539168Y-47933090D01*
X50520448Y-47946974D01*
X50500457Y-47958956D01*
X50479387Y-47968921D01*
X50457443Y-47976773D01*
X50434834Y-47982437D01*
X50411779Y-47985856D01*
X50388500Y-47987000D01*
X49813500Y-47987000D01*
X49790221Y-47985856D01*
X49767166Y-47982437D01*
X49744557Y-47976773D01*
X49722613Y-47968921D01*
X49701543Y-47958956D01*
X49681552Y-47946974D01*
X49662832Y-47933090D01*
X49645562Y-47917438D01*
X49629910Y-47900168D01*
X49616026Y-47881448D01*
X49604044Y-47861457D01*
X49594079Y-47840387D01*
X49586227Y-47818443D01*
X49580563Y-47795834D01*
X49577144Y-47772779D01*
X49576000Y-47749500D01*
X49576000Y-47274500D01*
X49577144Y-47251221D01*
X49580563Y-47228166D01*
X49586227Y-47205557D01*
X49594079Y-47183613D01*
X49604044Y-47162543D01*
X49616026Y-47142552D01*
X49629910Y-47123832D01*
X49645562Y-47106562D01*
X49662832Y-47090910D01*
X49681552Y-47077026D01*
X49701543Y-47065044D01*
X49722613Y-47055079D01*
X49744557Y-47047227D01*
X49767166Y-47041563D01*
X49790221Y-47038144D01*
X49813500Y-47037000D01*
X50388500Y-47037000D01*
X50411779Y-47038144D01*
G37*
G04 #@! TD.AperFunction*
G04 #@! TA.AperFunction,SMDPad,CuDef*
G36*
X52145779Y-47036144D02*
G01*
X52168834Y-47039563D01*
X52191443Y-47045227D01*
X52213387Y-47053079D01*
X52234457Y-47063044D01*
X52254448Y-47075026D01*
X52273168Y-47088910D01*
X52290438Y-47104562D01*
X52306090Y-47121832D01*
X52319974Y-47140552D01*
X52331956Y-47160543D01*
X52341921Y-47181613D01*
X52349773Y-47203557D01*
X52355437Y-47226166D01*
X52358856Y-47249221D01*
X52360000Y-47272500D01*
X52360000Y-47747500D01*
X52358856Y-47770779D01*
X52355437Y-47793834D01*
X52349773Y-47816443D01*
X52341921Y-47838387D01*
X52331956Y-47859457D01*
X52319974Y-47879448D01*
X52306090Y-47898168D01*
X52290438Y-47915438D01*
X52273168Y-47931090D01*
X52254448Y-47944974D01*
X52234457Y-47956956D01*
X52213387Y-47966921D01*
X52191443Y-47974773D01*
X52168834Y-47980437D01*
X52145779Y-47983856D01*
X52122500Y-47985000D01*
X51547500Y-47985000D01*
X51524221Y-47983856D01*
X51501166Y-47980437D01*
X51478557Y-47974773D01*
X51456613Y-47966921D01*
X51435543Y-47956956D01*
X51415552Y-47944974D01*
X51396832Y-47931090D01*
X51379562Y-47915438D01*
X51363910Y-47898168D01*
X51350026Y-47879448D01*
X51338044Y-47859457D01*
X51328079Y-47838387D01*
X51320227Y-47816443D01*
X51314563Y-47793834D01*
X51311144Y-47770779D01*
X51310000Y-47747500D01*
X51310000Y-47272500D01*
X51311144Y-47249221D01*
X51314563Y-47226166D01*
X51320227Y-47203557D01*
X51328079Y-47181613D01*
X51338044Y-47160543D01*
X51350026Y-47140552D01*
X51363910Y-47121832D01*
X51379562Y-47104562D01*
X51396832Y-47088910D01*
X51415552Y-47075026D01*
X51435543Y-47063044D01*
X51456613Y-47053079D01*
X51478557Y-47045227D01*
X51501166Y-47039563D01*
X51524221Y-47036144D01*
X51547500Y-47035000D01*
X52122500Y-47035000D01*
X52145779Y-47036144D01*
G37*
G04 #@! TD.AperFunction*
G04 #@! TA.AperFunction,SMDPad,CuDef*
G36*
X53895779Y-47036144D02*
G01*
X53918834Y-47039563D01*
X53941443Y-47045227D01*
X53963387Y-47053079D01*
X53984457Y-47063044D01*
X54004448Y-47075026D01*
X54023168Y-47088910D01*
X54040438Y-47104562D01*
X54056090Y-47121832D01*
X54069974Y-47140552D01*
X54081956Y-47160543D01*
X54091921Y-47181613D01*
X54099773Y-47203557D01*
X54105437Y-47226166D01*
X54108856Y-47249221D01*
X54110000Y-47272500D01*
X54110000Y-47747500D01*
X54108856Y-47770779D01*
X54105437Y-47793834D01*
X54099773Y-47816443D01*
X54091921Y-47838387D01*
X54081956Y-47859457D01*
X54069974Y-47879448D01*
X54056090Y-47898168D01*
X54040438Y-47915438D01*
X54023168Y-47931090D01*
X54004448Y-47944974D01*
X53984457Y-47956956D01*
X53963387Y-47966921D01*
X53941443Y-47974773D01*
X53918834Y-47980437D01*
X53895779Y-47983856D01*
X53872500Y-47985000D01*
X53297500Y-47985000D01*
X53274221Y-47983856D01*
X53251166Y-47980437D01*
X53228557Y-47974773D01*
X53206613Y-47966921D01*
X53185543Y-47956956D01*
X53165552Y-47944974D01*
X53146832Y-47931090D01*
X53129562Y-47915438D01*
X53113910Y-47898168D01*
X53100026Y-47879448D01*
X53088044Y-47859457D01*
X53078079Y-47838387D01*
X53070227Y-47816443D01*
X53064563Y-47793834D01*
X53061144Y-47770779D01*
X53060000Y-47747500D01*
X53060000Y-47272500D01*
X53061144Y-47249221D01*
X53064563Y-47226166D01*
X53070227Y-47203557D01*
X53078079Y-47181613D01*
X53088044Y-47160543D01*
X53100026Y-47140552D01*
X53113910Y-47121832D01*
X53129562Y-47104562D01*
X53146832Y-47088910D01*
X53165552Y-47075026D01*
X53185543Y-47063044D01*
X53206613Y-47053079D01*
X53228557Y-47045227D01*
X53251166Y-47039563D01*
X53274221Y-47036144D01*
X53297500Y-47035000D01*
X53872500Y-47035000D01*
X53895779Y-47036144D01*
G37*
G04 #@! TD.AperFunction*
D21*
X122770000Y-60960000D03*
D22*
X122770000Y-58420000D03*
X122770000Y-59690000D03*
G04 #@! TA.AperFunction,SMDPad,CuDef*
D13*
G36*
X61270779Y-47278144D02*
G01*
X61293834Y-47281563D01*
X61316443Y-47287227D01*
X61338387Y-47295079D01*
X61359457Y-47305044D01*
X61379448Y-47317026D01*
X61398168Y-47330910D01*
X61415438Y-47346562D01*
X61431090Y-47363832D01*
X61444974Y-47382552D01*
X61456956Y-47402543D01*
X61466921Y-47423613D01*
X61474773Y-47445557D01*
X61480437Y-47468166D01*
X61483856Y-47491221D01*
X61485000Y-47514500D01*
X61485000Y-47989500D01*
X61483856Y-48012779D01*
X61480437Y-48035834D01*
X61474773Y-48058443D01*
X61466921Y-48080387D01*
X61456956Y-48101457D01*
X61444974Y-48121448D01*
X61431090Y-48140168D01*
X61415438Y-48157438D01*
X61398168Y-48173090D01*
X61379448Y-48186974D01*
X61359457Y-48198956D01*
X61338387Y-48208921D01*
X61316443Y-48216773D01*
X61293834Y-48222437D01*
X61270779Y-48225856D01*
X61247500Y-48227000D01*
X60672500Y-48227000D01*
X60649221Y-48225856D01*
X60626166Y-48222437D01*
X60603557Y-48216773D01*
X60581613Y-48208921D01*
X60560543Y-48198956D01*
X60540552Y-48186974D01*
X60521832Y-48173090D01*
X60504562Y-48157438D01*
X60488910Y-48140168D01*
X60475026Y-48121448D01*
X60463044Y-48101457D01*
X60453079Y-48080387D01*
X60445227Y-48058443D01*
X60439563Y-48035834D01*
X60436144Y-48012779D01*
X60435000Y-47989500D01*
X60435000Y-47514500D01*
X60436144Y-47491221D01*
X60439563Y-47468166D01*
X60445227Y-47445557D01*
X60453079Y-47423613D01*
X60463044Y-47402543D01*
X60475026Y-47382552D01*
X60488910Y-47363832D01*
X60504562Y-47346562D01*
X60521832Y-47330910D01*
X60540552Y-47317026D01*
X60560543Y-47305044D01*
X60581613Y-47295079D01*
X60603557Y-47287227D01*
X60626166Y-47281563D01*
X60649221Y-47278144D01*
X60672500Y-47277000D01*
X61247500Y-47277000D01*
X61270779Y-47278144D01*
G37*
G04 #@! TD.AperFunction*
G04 #@! TA.AperFunction,SMDPad,CuDef*
G36*
X63020779Y-47278144D02*
G01*
X63043834Y-47281563D01*
X63066443Y-47287227D01*
X63088387Y-47295079D01*
X63109457Y-47305044D01*
X63129448Y-47317026D01*
X63148168Y-47330910D01*
X63165438Y-47346562D01*
X63181090Y-47363832D01*
X63194974Y-47382552D01*
X63206956Y-47402543D01*
X63216921Y-47423613D01*
X63224773Y-47445557D01*
X63230437Y-47468166D01*
X63233856Y-47491221D01*
X63235000Y-47514500D01*
X63235000Y-47989500D01*
X63233856Y-48012779D01*
X63230437Y-48035834D01*
X63224773Y-48058443D01*
X63216921Y-48080387D01*
X63206956Y-48101457D01*
X63194974Y-48121448D01*
X63181090Y-48140168D01*
X63165438Y-48157438D01*
X63148168Y-48173090D01*
X63129448Y-48186974D01*
X63109457Y-48198956D01*
X63088387Y-48208921D01*
X63066443Y-48216773D01*
X63043834Y-48222437D01*
X63020779Y-48225856D01*
X62997500Y-48227000D01*
X62422500Y-48227000D01*
X62399221Y-48225856D01*
X62376166Y-48222437D01*
X62353557Y-48216773D01*
X62331613Y-48208921D01*
X62310543Y-48198956D01*
X62290552Y-48186974D01*
X62271832Y-48173090D01*
X62254562Y-48157438D01*
X62238910Y-48140168D01*
X62225026Y-48121448D01*
X62213044Y-48101457D01*
X62203079Y-48080387D01*
X62195227Y-48058443D01*
X62189563Y-48035834D01*
X62186144Y-48012779D01*
X62185000Y-47989500D01*
X62185000Y-47514500D01*
X62186144Y-47491221D01*
X62189563Y-47468166D01*
X62195227Y-47445557D01*
X62203079Y-47423613D01*
X62213044Y-47402543D01*
X62225026Y-47382552D01*
X62238910Y-47363832D01*
X62254562Y-47346562D01*
X62271832Y-47330910D01*
X62290552Y-47317026D01*
X62310543Y-47305044D01*
X62331613Y-47295079D01*
X62353557Y-47287227D01*
X62376166Y-47281563D01*
X62399221Y-47278144D01*
X62422500Y-47277000D01*
X62997500Y-47277000D01*
X63020779Y-47278144D01*
G37*
G04 #@! TD.AperFunction*
G04 #@! TA.AperFunction,SMDPad,CuDef*
G36*
X64826779Y-47278144D02*
G01*
X64849834Y-47281563D01*
X64872443Y-47287227D01*
X64894387Y-47295079D01*
X64915457Y-47305044D01*
X64935448Y-47317026D01*
X64954168Y-47330910D01*
X64971438Y-47346562D01*
X64987090Y-47363832D01*
X65000974Y-47382552D01*
X65012956Y-47402543D01*
X65022921Y-47423613D01*
X65030773Y-47445557D01*
X65036437Y-47468166D01*
X65039856Y-47491221D01*
X65041000Y-47514500D01*
X65041000Y-47989500D01*
X65039856Y-48012779D01*
X65036437Y-48035834D01*
X65030773Y-48058443D01*
X65022921Y-48080387D01*
X65012956Y-48101457D01*
X65000974Y-48121448D01*
X64987090Y-48140168D01*
X64971438Y-48157438D01*
X64954168Y-48173090D01*
X64935448Y-48186974D01*
X64915457Y-48198956D01*
X64894387Y-48208921D01*
X64872443Y-48216773D01*
X64849834Y-48222437D01*
X64826779Y-48225856D01*
X64803500Y-48227000D01*
X64228500Y-48227000D01*
X64205221Y-48225856D01*
X64182166Y-48222437D01*
X64159557Y-48216773D01*
X64137613Y-48208921D01*
X64116543Y-48198956D01*
X64096552Y-48186974D01*
X64077832Y-48173090D01*
X64060562Y-48157438D01*
X64044910Y-48140168D01*
X64031026Y-48121448D01*
X64019044Y-48101457D01*
X64009079Y-48080387D01*
X64001227Y-48058443D01*
X63995563Y-48035834D01*
X63992144Y-48012779D01*
X63991000Y-47989500D01*
X63991000Y-47514500D01*
X63992144Y-47491221D01*
X63995563Y-47468166D01*
X64001227Y-47445557D01*
X64009079Y-47423613D01*
X64019044Y-47402543D01*
X64031026Y-47382552D01*
X64044910Y-47363832D01*
X64060562Y-47346562D01*
X64077832Y-47330910D01*
X64096552Y-47317026D01*
X64116543Y-47305044D01*
X64137613Y-47295079D01*
X64159557Y-47287227D01*
X64182166Y-47281563D01*
X64205221Y-47278144D01*
X64228500Y-47277000D01*
X64803500Y-47277000D01*
X64826779Y-47278144D01*
G37*
G04 #@! TD.AperFunction*
G04 #@! TA.AperFunction,SMDPad,CuDef*
G36*
X66576779Y-47278144D02*
G01*
X66599834Y-47281563D01*
X66622443Y-47287227D01*
X66644387Y-47295079D01*
X66665457Y-47305044D01*
X66685448Y-47317026D01*
X66704168Y-47330910D01*
X66721438Y-47346562D01*
X66737090Y-47363832D01*
X66750974Y-47382552D01*
X66762956Y-47402543D01*
X66772921Y-47423613D01*
X66780773Y-47445557D01*
X66786437Y-47468166D01*
X66789856Y-47491221D01*
X66791000Y-47514500D01*
X66791000Y-47989500D01*
X66789856Y-48012779D01*
X66786437Y-48035834D01*
X66780773Y-48058443D01*
X66772921Y-48080387D01*
X66762956Y-48101457D01*
X66750974Y-48121448D01*
X66737090Y-48140168D01*
X66721438Y-48157438D01*
X66704168Y-48173090D01*
X66685448Y-48186974D01*
X66665457Y-48198956D01*
X66644387Y-48208921D01*
X66622443Y-48216773D01*
X66599834Y-48222437D01*
X66576779Y-48225856D01*
X66553500Y-48227000D01*
X65978500Y-48227000D01*
X65955221Y-48225856D01*
X65932166Y-48222437D01*
X65909557Y-48216773D01*
X65887613Y-48208921D01*
X65866543Y-48198956D01*
X65846552Y-48186974D01*
X65827832Y-48173090D01*
X65810562Y-48157438D01*
X65794910Y-48140168D01*
X65781026Y-48121448D01*
X65769044Y-48101457D01*
X65759079Y-48080387D01*
X65751227Y-48058443D01*
X65745563Y-48035834D01*
X65742144Y-48012779D01*
X65741000Y-47989500D01*
X65741000Y-47514500D01*
X65742144Y-47491221D01*
X65745563Y-47468166D01*
X65751227Y-47445557D01*
X65759079Y-47423613D01*
X65769044Y-47402543D01*
X65781026Y-47382552D01*
X65794910Y-47363832D01*
X65810562Y-47346562D01*
X65827832Y-47330910D01*
X65846552Y-47317026D01*
X65866543Y-47305044D01*
X65887613Y-47295079D01*
X65909557Y-47287227D01*
X65932166Y-47281563D01*
X65955221Y-47278144D01*
X65978500Y-47277000D01*
X66553500Y-47277000D01*
X66576779Y-47278144D01*
G37*
G04 #@! TD.AperFunction*
G04 #@! TA.AperFunction,SMDPad,CuDef*
G36*
X70414779Y-47278144D02*
G01*
X70437834Y-47281563D01*
X70460443Y-47287227D01*
X70482387Y-47295079D01*
X70503457Y-47305044D01*
X70523448Y-47317026D01*
X70542168Y-47330910D01*
X70559438Y-47346562D01*
X70575090Y-47363832D01*
X70588974Y-47382552D01*
X70600956Y-47402543D01*
X70610921Y-47423613D01*
X70618773Y-47445557D01*
X70624437Y-47468166D01*
X70627856Y-47491221D01*
X70629000Y-47514500D01*
X70629000Y-47989500D01*
X70627856Y-48012779D01*
X70624437Y-48035834D01*
X70618773Y-48058443D01*
X70610921Y-48080387D01*
X70600956Y-48101457D01*
X70588974Y-48121448D01*
X70575090Y-48140168D01*
X70559438Y-48157438D01*
X70542168Y-48173090D01*
X70523448Y-48186974D01*
X70503457Y-48198956D01*
X70482387Y-48208921D01*
X70460443Y-48216773D01*
X70437834Y-48222437D01*
X70414779Y-48225856D01*
X70391500Y-48227000D01*
X69816500Y-48227000D01*
X69793221Y-48225856D01*
X69770166Y-48222437D01*
X69747557Y-48216773D01*
X69725613Y-48208921D01*
X69704543Y-48198956D01*
X69684552Y-48186974D01*
X69665832Y-48173090D01*
X69648562Y-48157438D01*
X69632910Y-48140168D01*
X69619026Y-48121448D01*
X69607044Y-48101457D01*
X69597079Y-48080387D01*
X69589227Y-48058443D01*
X69583563Y-48035834D01*
X69580144Y-48012779D01*
X69579000Y-47989500D01*
X69579000Y-47514500D01*
X69580144Y-47491221D01*
X69583563Y-47468166D01*
X69589227Y-47445557D01*
X69597079Y-47423613D01*
X69607044Y-47402543D01*
X69619026Y-47382552D01*
X69632910Y-47363832D01*
X69648562Y-47346562D01*
X69665832Y-47330910D01*
X69684552Y-47317026D01*
X69704543Y-47305044D01*
X69725613Y-47295079D01*
X69747557Y-47287227D01*
X69770166Y-47281563D01*
X69793221Y-47278144D01*
X69816500Y-47277000D01*
X70391500Y-47277000D01*
X70414779Y-47278144D01*
G37*
G04 #@! TD.AperFunction*
G04 #@! TA.AperFunction,SMDPad,CuDef*
G36*
X68664779Y-47278144D02*
G01*
X68687834Y-47281563D01*
X68710443Y-47287227D01*
X68732387Y-47295079D01*
X68753457Y-47305044D01*
X68773448Y-47317026D01*
X68792168Y-47330910D01*
X68809438Y-47346562D01*
X68825090Y-47363832D01*
X68838974Y-47382552D01*
X68850956Y-47402543D01*
X68860921Y-47423613D01*
X68868773Y-47445557D01*
X68874437Y-47468166D01*
X68877856Y-47491221D01*
X68879000Y-47514500D01*
X68879000Y-47989500D01*
X68877856Y-48012779D01*
X68874437Y-48035834D01*
X68868773Y-48058443D01*
X68860921Y-48080387D01*
X68850956Y-48101457D01*
X68838974Y-48121448D01*
X68825090Y-48140168D01*
X68809438Y-48157438D01*
X68792168Y-48173090D01*
X68773448Y-48186974D01*
X68753457Y-48198956D01*
X68732387Y-48208921D01*
X68710443Y-48216773D01*
X68687834Y-48222437D01*
X68664779Y-48225856D01*
X68641500Y-48227000D01*
X68066500Y-48227000D01*
X68043221Y-48225856D01*
X68020166Y-48222437D01*
X67997557Y-48216773D01*
X67975613Y-48208921D01*
X67954543Y-48198956D01*
X67934552Y-48186974D01*
X67915832Y-48173090D01*
X67898562Y-48157438D01*
X67882910Y-48140168D01*
X67869026Y-48121448D01*
X67857044Y-48101457D01*
X67847079Y-48080387D01*
X67839227Y-48058443D01*
X67833563Y-48035834D01*
X67830144Y-48012779D01*
X67829000Y-47989500D01*
X67829000Y-47514500D01*
X67830144Y-47491221D01*
X67833563Y-47468166D01*
X67839227Y-47445557D01*
X67847079Y-47423613D01*
X67857044Y-47402543D01*
X67869026Y-47382552D01*
X67882910Y-47363832D01*
X67898562Y-47346562D01*
X67915832Y-47330910D01*
X67934552Y-47317026D01*
X67954543Y-47305044D01*
X67975613Y-47295079D01*
X67997557Y-47287227D01*
X68020166Y-47281563D01*
X68043221Y-47278144D01*
X68066500Y-47277000D01*
X68641500Y-47277000D01*
X68664779Y-47278144D01*
G37*
G04 #@! TD.AperFunction*
G04 #@! TA.AperFunction,SMDPad,CuDef*
G36*
X73970779Y-47278144D02*
G01*
X73993834Y-47281563D01*
X74016443Y-47287227D01*
X74038387Y-47295079D01*
X74059457Y-47305044D01*
X74079448Y-47317026D01*
X74098168Y-47330910D01*
X74115438Y-47346562D01*
X74131090Y-47363832D01*
X74144974Y-47382552D01*
X74156956Y-47402543D01*
X74166921Y-47423613D01*
X74174773Y-47445557D01*
X74180437Y-47468166D01*
X74183856Y-47491221D01*
X74185000Y-47514500D01*
X74185000Y-47989500D01*
X74183856Y-48012779D01*
X74180437Y-48035834D01*
X74174773Y-48058443D01*
X74166921Y-48080387D01*
X74156956Y-48101457D01*
X74144974Y-48121448D01*
X74131090Y-48140168D01*
X74115438Y-48157438D01*
X74098168Y-48173090D01*
X74079448Y-48186974D01*
X74059457Y-48198956D01*
X74038387Y-48208921D01*
X74016443Y-48216773D01*
X73993834Y-48222437D01*
X73970779Y-48225856D01*
X73947500Y-48227000D01*
X73372500Y-48227000D01*
X73349221Y-48225856D01*
X73326166Y-48222437D01*
X73303557Y-48216773D01*
X73281613Y-48208921D01*
X73260543Y-48198956D01*
X73240552Y-48186974D01*
X73221832Y-48173090D01*
X73204562Y-48157438D01*
X73188910Y-48140168D01*
X73175026Y-48121448D01*
X73163044Y-48101457D01*
X73153079Y-48080387D01*
X73145227Y-48058443D01*
X73139563Y-48035834D01*
X73136144Y-48012779D01*
X73135000Y-47989500D01*
X73135000Y-47514500D01*
X73136144Y-47491221D01*
X73139563Y-47468166D01*
X73145227Y-47445557D01*
X73153079Y-47423613D01*
X73163044Y-47402543D01*
X73175026Y-47382552D01*
X73188910Y-47363832D01*
X73204562Y-47346562D01*
X73221832Y-47330910D01*
X73240552Y-47317026D01*
X73260543Y-47305044D01*
X73281613Y-47295079D01*
X73303557Y-47287227D01*
X73326166Y-47281563D01*
X73349221Y-47278144D01*
X73372500Y-47277000D01*
X73947500Y-47277000D01*
X73970779Y-47278144D01*
G37*
G04 #@! TD.AperFunction*
G04 #@! TA.AperFunction,SMDPad,CuDef*
G36*
X72220779Y-47278144D02*
G01*
X72243834Y-47281563D01*
X72266443Y-47287227D01*
X72288387Y-47295079D01*
X72309457Y-47305044D01*
X72329448Y-47317026D01*
X72348168Y-47330910D01*
X72365438Y-47346562D01*
X72381090Y-47363832D01*
X72394974Y-47382552D01*
X72406956Y-47402543D01*
X72416921Y-47423613D01*
X72424773Y-47445557D01*
X72430437Y-47468166D01*
X72433856Y-47491221D01*
X72435000Y-47514500D01*
X72435000Y-47989500D01*
X72433856Y-48012779D01*
X72430437Y-48035834D01*
X72424773Y-48058443D01*
X72416921Y-48080387D01*
X72406956Y-48101457D01*
X72394974Y-48121448D01*
X72381090Y-48140168D01*
X72365438Y-48157438D01*
X72348168Y-48173090D01*
X72329448Y-48186974D01*
X72309457Y-48198956D01*
X72288387Y-48208921D01*
X72266443Y-48216773D01*
X72243834Y-48222437D01*
X72220779Y-48225856D01*
X72197500Y-48227000D01*
X71622500Y-48227000D01*
X71599221Y-48225856D01*
X71576166Y-48222437D01*
X71553557Y-48216773D01*
X71531613Y-48208921D01*
X71510543Y-48198956D01*
X71490552Y-48186974D01*
X71471832Y-48173090D01*
X71454562Y-48157438D01*
X71438910Y-48140168D01*
X71425026Y-48121448D01*
X71413044Y-48101457D01*
X71403079Y-48080387D01*
X71395227Y-48058443D01*
X71389563Y-48035834D01*
X71386144Y-48012779D01*
X71385000Y-47989500D01*
X71385000Y-47514500D01*
X71386144Y-47491221D01*
X71389563Y-47468166D01*
X71395227Y-47445557D01*
X71403079Y-47423613D01*
X71413044Y-47402543D01*
X71425026Y-47382552D01*
X71438910Y-47363832D01*
X71454562Y-47346562D01*
X71471832Y-47330910D01*
X71490552Y-47317026D01*
X71510543Y-47305044D01*
X71531613Y-47295079D01*
X71553557Y-47287227D01*
X71576166Y-47281563D01*
X71599221Y-47278144D01*
X71622500Y-47277000D01*
X72197500Y-47277000D01*
X72220779Y-47278144D01*
G37*
G04 #@! TD.AperFunction*
G04 #@! TA.AperFunction,SMDPad,CuDef*
G36*
X125175779Y-59906144D02*
G01*
X125198834Y-59909563D01*
X125221443Y-59915227D01*
X125243387Y-59923079D01*
X125264457Y-59933044D01*
X125284448Y-59945026D01*
X125303168Y-59958910D01*
X125320438Y-59974562D01*
X125336090Y-59991832D01*
X125349974Y-60010552D01*
X125361956Y-60030543D01*
X125371921Y-60051613D01*
X125379773Y-60073557D01*
X125385437Y-60096166D01*
X125388856Y-60119221D01*
X125390000Y-60142500D01*
X125390000Y-60617500D01*
X125388856Y-60640779D01*
X125385437Y-60663834D01*
X125379773Y-60686443D01*
X125371921Y-60708387D01*
X125361956Y-60729457D01*
X125349974Y-60749448D01*
X125336090Y-60768168D01*
X125320438Y-60785438D01*
X125303168Y-60801090D01*
X125284448Y-60814974D01*
X125264457Y-60826956D01*
X125243387Y-60836921D01*
X125221443Y-60844773D01*
X125198834Y-60850437D01*
X125175779Y-60853856D01*
X125152500Y-60855000D01*
X124577500Y-60855000D01*
X124554221Y-60853856D01*
X124531166Y-60850437D01*
X124508557Y-60844773D01*
X124486613Y-60836921D01*
X124465543Y-60826956D01*
X124445552Y-60814974D01*
X124426832Y-60801090D01*
X124409562Y-60785438D01*
X124393910Y-60768168D01*
X124380026Y-60749448D01*
X124368044Y-60729457D01*
X124358079Y-60708387D01*
X124350227Y-60686443D01*
X124344563Y-60663834D01*
X124341144Y-60640779D01*
X124340000Y-60617500D01*
X124340000Y-60142500D01*
X124341144Y-60119221D01*
X124344563Y-60096166D01*
X124350227Y-60073557D01*
X124358079Y-60051613D01*
X124368044Y-60030543D01*
X124380026Y-60010552D01*
X124393910Y-59991832D01*
X124409562Y-59974562D01*
X124426832Y-59958910D01*
X124445552Y-59945026D01*
X124465543Y-59933044D01*
X124486613Y-59923079D01*
X124508557Y-59915227D01*
X124531166Y-59909563D01*
X124554221Y-59906144D01*
X124577500Y-59905000D01*
X125152500Y-59905000D01*
X125175779Y-59906144D01*
G37*
G04 #@! TD.AperFunction*
G04 #@! TA.AperFunction,SMDPad,CuDef*
G36*
X126925779Y-59906144D02*
G01*
X126948834Y-59909563D01*
X126971443Y-59915227D01*
X126993387Y-59923079D01*
X127014457Y-59933044D01*
X127034448Y-59945026D01*
X127053168Y-59958910D01*
X127070438Y-59974562D01*
X127086090Y-59991832D01*
X127099974Y-60010552D01*
X127111956Y-60030543D01*
X127121921Y-60051613D01*
X127129773Y-60073557D01*
X127135437Y-60096166D01*
X127138856Y-60119221D01*
X127140000Y-60142500D01*
X127140000Y-60617500D01*
X127138856Y-60640779D01*
X127135437Y-60663834D01*
X127129773Y-60686443D01*
X127121921Y-60708387D01*
X127111956Y-60729457D01*
X127099974Y-60749448D01*
X127086090Y-60768168D01*
X127070438Y-60785438D01*
X127053168Y-60801090D01*
X127034448Y-60814974D01*
X127014457Y-60826956D01*
X126993387Y-60836921D01*
X126971443Y-60844773D01*
X126948834Y-60850437D01*
X126925779Y-60853856D01*
X126902500Y-60855000D01*
X126327500Y-60855000D01*
X126304221Y-60853856D01*
X126281166Y-60850437D01*
X126258557Y-60844773D01*
X126236613Y-60836921D01*
X126215543Y-60826956D01*
X126195552Y-60814974D01*
X126176832Y-60801090D01*
X126159562Y-60785438D01*
X126143910Y-60768168D01*
X126130026Y-60749448D01*
X126118044Y-60729457D01*
X126108079Y-60708387D01*
X126100227Y-60686443D01*
X126094563Y-60663834D01*
X126091144Y-60640779D01*
X126090000Y-60617500D01*
X126090000Y-60142500D01*
X126091144Y-60119221D01*
X126094563Y-60096166D01*
X126100227Y-60073557D01*
X126108079Y-60051613D01*
X126118044Y-60030543D01*
X126130026Y-60010552D01*
X126143910Y-59991832D01*
X126159562Y-59974562D01*
X126176832Y-59958910D01*
X126195552Y-59945026D01*
X126215543Y-59933044D01*
X126236613Y-59923079D01*
X126258557Y-59915227D01*
X126281166Y-59909563D01*
X126304221Y-59906144D01*
X126327500Y-59905000D01*
X126902500Y-59905000D01*
X126925779Y-59906144D01*
G37*
G04 #@! TD.AperFunction*
D23*
X141986000Y-55118000D03*
X139486000Y-65118000D03*
X136986000Y-55118000D03*
D24*
X129354720Y-63078360D03*
X129354720Y-67578360D03*
X122854720Y-63078360D03*
X122854720Y-67578360D03*
X129354720Y-71455360D03*
X129354720Y-75955360D03*
X122854720Y-71455360D03*
X122854720Y-75955360D03*
D25*
X93340000Y-51700000D03*
X96870000Y-51700000D03*
X123830000Y-54440000D03*
X129667000Y-53403500D03*
X128079500Y-53403500D03*
X126301500Y-53403500D03*
X40386000Y-45529500D03*
X42428583Y-45529500D03*
X44471166Y-45529500D03*
X46513749Y-45529500D03*
X48556332Y-45529500D03*
X50598915Y-45529500D03*
X52641500Y-45529500D03*
X45148500Y-51689000D03*
X99670000Y-48910000D03*
X102616000Y-48895000D03*
X106362500Y-48958500D03*
X110109000Y-48958500D03*
X113665000Y-48895000D03*
X145288000Y-45656500D03*
X143446500Y-45720000D03*
X141414500Y-45720000D03*
X139255500Y-45720000D03*
X137096500Y-45720000D03*
X134874000Y-45720000D03*
X132651500Y-45720000D03*
X137668000Y-59309000D03*
X139636500Y-59309000D03*
X137604500Y-61023500D03*
X145669000Y-67945000D03*
X121793000Y-82677000D03*
X123888500Y-82677000D03*
X126047500Y-82677000D03*
X128206500Y-82677000D03*
X130365500Y-82677000D03*
X146113500Y-82740500D03*
X113157000Y-50419000D03*
X121793000Y-53403500D03*
D26*
X61785500Y-46863000D02*
X60960000Y-47752000D01*
X63261566Y-46876990D02*
X61785500Y-46863000D01*
X64516000Y-47752000D02*
X64136576Y-47752000D01*
X64136576Y-47752000D02*
X63261566Y-46876990D01*
X69780576Y-47752000D02*
X68905566Y-46876990D01*
X70104000Y-47752000D02*
X69780576Y-47752000D01*
X68905566Y-46876990D02*
X67232510Y-46876990D01*
X65468500Y-46876990D02*
X64516000Y-47752000D01*
X67232510Y-46876990D02*
X65468500Y-46876990D01*
X71247000Y-46863000D02*
X70104000Y-47752000D01*
X72461566Y-46876990D02*
X71247000Y-46863000D01*
X73660000Y-47752000D02*
X73336576Y-47752000D01*
X73336576Y-47752000D02*
X72461566Y-46876990D01*
D10*
X60960000Y-47752000D02*
X61485000Y-47752000D01*
X61900010Y-48167010D02*
X61900010Y-50939490D01*
X61485000Y-47752000D02*
X61900010Y-48167010D01*
X60202940Y-51600010D02*
X59499500Y-50896570D01*
X61900010Y-50939490D02*
X61239490Y-51600010D01*
X61239490Y-51600010D02*
X60202940Y-51600010D01*
X59260000Y-50000000D02*
X58160000Y-50000000D01*
X59499500Y-50239500D02*
X59260000Y-50000000D01*
X59499500Y-50896570D02*
X59499500Y-50239500D01*
D26*
X131702400Y-53343400D02*
X131762500Y-53403500D01*
X131702400Y-51333400D02*
X131702400Y-53343400D01*
X132702400Y-52463600D02*
X131762500Y-53403500D01*
X132702400Y-51333400D02*
X132702400Y-52463600D01*
X137702400Y-54401600D02*
X136986000Y-55118000D01*
X48000000Y-47863000D02*
X48351000Y-47512000D01*
X48000000Y-50000000D02*
X48000000Y-47863000D01*
X124295000Y-58795000D02*
X125260000Y-58795000D01*
X123920000Y-58420000D02*
X124295000Y-58795000D01*
X122770000Y-58420000D02*
X123920000Y-58420000D01*
X126615000Y-59905000D02*
X126615000Y-60380000D01*
X125130000Y-58420000D02*
X126615000Y-59905000D01*
X122770000Y-58420000D02*
X125130000Y-58420000D01*
X133702400Y-51333400D02*
X134702400Y-51333400D01*
X141986000Y-55118000D02*
X141986000Y-57545000D01*
D10*
X143302401Y-50143399D02*
X142371502Y-49212500D01*
X143302401Y-53801599D02*
X143302401Y-50143399D01*
X141986000Y-55118000D02*
X143302401Y-53801599D01*
X142371502Y-49212500D02*
X135255000Y-49212500D01*
X134702400Y-49765100D02*
X134702400Y-51333400D01*
X135255000Y-49212500D02*
X134702400Y-49765100D01*
D26*
X133235000Y-53441000D02*
X133272500Y-53403500D01*
X133235000Y-56100000D02*
X133235000Y-53441000D01*
X133702400Y-52973600D02*
X133272500Y-53403500D01*
X133702400Y-51333400D02*
X133702400Y-52973600D01*
X53585000Y-47035000D02*
X53585000Y-47510000D01*
X55650011Y-44969989D02*
X53585000Y-47035000D01*
X71128305Y-44969989D02*
X55650011Y-44969989D01*
X71178316Y-44919978D02*
X71128305Y-44969989D01*
X76241500Y-44919978D02*
X71178316Y-44919978D01*
X76271544Y-44889934D02*
X76241500Y-44919978D01*
X128269934Y-44889934D02*
X76271544Y-44889934D01*
X133702400Y-50322400D02*
X128269934Y-44889934D01*
X133702400Y-51333400D02*
X133702400Y-50322400D01*
X133255000Y-56630000D02*
X133255000Y-53510000D01*
D10*
X124175000Y-59690000D02*
X124865000Y-60380000D01*
X122936000Y-59690000D02*
X124175000Y-59690000D01*
X131820001Y-61556001D02*
X126146001Y-61556001D01*
X134937500Y-58420000D02*
X131820001Y-61556001D01*
X126146001Y-61556001D02*
X124970000Y-60380000D01*
X134937500Y-54292500D02*
X134937500Y-58420000D01*
X124970000Y-60380000D02*
X124865000Y-60380000D01*
X136702400Y-52533400D02*
X134937500Y-54292500D01*
X136702400Y-51333400D02*
X136702400Y-52533400D01*
D27*
X129354720Y-71455360D02*
X122854720Y-71455360D01*
X135255000Y-59698012D02*
X135255000Y-65555080D01*
X142056022Y-52896990D02*
X135255000Y-59698012D01*
X135255000Y-65555080D02*
X129354720Y-71455360D01*
X142702400Y-51333400D02*
X142702400Y-52896990D01*
X142702400Y-52896990D02*
X142056022Y-52896990D01*
D26*
X141986000Y-59295000D02*
X141986000Y-60974000D01*
X139486000Y-63463371D02*
X139486000Y-65118000D01*
X139486000Y-62761500D02*
X139486000Y-63463371D01*
X141273500Y-60974000D02*
X139486000Y-62761500D01*
X141986000Y-60974000D02*
X141273500Y-60974000D01*
D10*
X53080000Y-51500000D02*
X53080000Y-50000000D01*
X54254990Y-52674990D02*
X53080000Y-51500000D01*
X120530623Y-52674990D02*
X54254990Y-52674990D01*
X120721010Y-52865377D02*
X120530623Y-52674990D01*
X121031000Y-71555642D02*
X121031000Y-58601000D01*
X122230719Y-72755361D02*
X121031000Y-71555642D01*
X121031000Y-58601000D02*
X120721010Y-58291010D01*
X131848639Y-72755361D02*
X122230719Y-72755361D01*
X120721010Y-58291010D02*
X120721010Y-52865377D01*
X139486000Y-65118000D02*
X131848639Y-72755361D01*
D27*
X62710000Y-49470000D02*
X63240000Y-50000000D01*
X62710000Y-47752000D02*
X62710000Y-49470000D01*
X65780000Y-48238000D02*
X66266000Y-47752000D01*
X65780000Y-50000000D02*
X65780000Y-48238000D01*
X68320000Y-47786000D02*
X68354000Y-47752000D01*
X68320000Y-50000000D02*
X68320000Y-47786000D01*
X70860000Y-48450000D02*
X71558000Y-47752000D01*
X71558000Y-47752000D02*
X71910000Y-47752000D01*
X70860000Y-50000000D02*
X70860000Y-48450000D01*
D26*
X127702880Y-56630000D02*
X127373380Y-56959500D01*
X131505000Y-56630000D02*
X127702880Y-56630000D01*
D27*
X129810000Y-60706000D02*
X130810000Y-60706000D01*
X128726000Y-60706000D02*
X129810000Y-60706000D01*
X124979500Y-56959500D02*
X128726000Y-60706000D01*
X124833380Y-56959500D02*
X124979500Y-56959500D01*
D10*
X121120710Y-50893411D02*
X125613411Y-50893411D01*
X120826389Y-50599090D02*
X121120710Y-50893411D01*
X120826388Y-48626388D02*
X120826389Y-50599090D01*
X82080000Y-47390000D02*
X119590000Y-47390000D01*
X81020000Y-48450000D02*
X82080000Y-47390000D01*
X125613411Y-50893411D02*
X125710000Y-50990000D01*
X119590000Y-47390000D02*
X120826388Y-48626388D01*
X81020000Y-50000000D02*
X81020000Y-48450000D01*
X126702400Y-50183400D02*
X126702400Y-51333400D01*
X79870011Y-46989989D02*
X119755689Y-46989989D01*
X121226399Y-50433401D02*
X121286399Y-50493401D01*
X119755689Y-46989989D02*
X121226399Y-48460699D01*
X125246403Y-50058399D02*
X126577399Y-50058399D01*
X78480000Y-48380000D02*
X79870011Y-46989989D01*
X121286399Y-50493401D02*
X124811402Y-50493400D01*
X124811402Y-50493400D02*
X125246403Y-50058399D01*
X121226399Y-48460699D02*
X121226399Y-50433401D01*
X126577399Y-50058399D02*
X126702400Y-50183400D01*
X78480000Y-50000000D02*
X78480000Y-48380000D01*
X126419978Y-46589978D02*
X77850022Y-46589978D01*
X127702400Y-47872400D02*
X126419978Y-46589978D01*
X77850022Y-46589978D02*
X75940000Y-48500000D01*
X127702400Y-51333400D02*
X127702400Y-47872400D01*
X75940000Y-48500000D02*
X75940000Y-50000000D01*
X76810033Y-46189967D02*
X73400000Y-49600000D01*
X128702400Y-51333400D02*
X128702400Y-48306700D01*
X73400000Y-49600000D02*
X73400000Y-50000000D01*
X128702400Y-48306700D02*
X126585667Y-46189967D01*
X126585667Y-46189967D02*
X76810033Y-46189967D01*
X59550000Y-47841490D02*
X61055969Y-46335521D01*
X126892778Y-45789956D02*
X129702400Y-48599578D01*
X71551116Y-45820000D02*
X76614300Y-45820000D01*
X60700000Y-50000000D02*
X60700000Y-49600000D01*
X76644344Y-45789956D02*
X126892778Y-45789956D01*
X59550000Y-48450000D02*
X59550000Y-47841490D01*
X129702400Y-50183400D02*
X129702400Y-51333400D01*
X61055969Y-46335521D02*
X71035595Y-46335521D01*
X129702400Y-48599578D02*
X129702400Y-50183400D01*
X60700000Y-49600000D02*
X59550000Y-48450000D01*
X71035595Y-46335521D02*
X71551116Y-45820000D01*
X76614300Y-45820000D02*
X76644344Y-45789956D01*
X130702400Y-48792400D02*
X130702400Y-50183400D01*
X76478655Y-45389945D02*
X127299945Y-45389945D01*
X76448611Y-45419989D02*
X76478655Y-45389945D01*
X130702400Y-50183400D02*
X130702400Y-51333400D01*
X70919905Y-45885511D02*
X71385427Y-45419989D01*
X127299945Y-45389945D02*
X130702400Y-48792400D01*
X71385427Y-45419989D02*
X76448611Y-45419989D01*
X58184489Y-45885511D02*
X70919905Y-45885511D01*
X55620000Y-48450000D02*
X58184489Y-45885511D01*
X55620000Y-50000000D02*
X55620000Y-48450000D01*
D26*
X93735000Y-49897500D02*
X91843000Y-49897500D01*
X91843000Y-50517000D02*
X91843000Y-49897500D01*
X90659990Y-51700010D02*
X91843000Y-50517000D01*
X84518500Y-51117500D02*
X85101010Y-51700010D01*
X84518500Y-50958500D02*
X84518500Y-51117500D01*
X85101010Y-51700010D02*
X90659990Y-51700010D01*
X83560000Y-50000000D02*
X84518500Y-50958500D01*
X121620000Y-60960000D02*
X121602500Y-60942500D01*
X122770000Y-60960000D02*
X121620000Y-60960000D01*
X121620000Y-60960000D02*
X121620000Y-53640000D01*
X121793000Y-53467000D02*
X121793000Y-53403500D01*
X121620000Y-53640000D02*
X121793000Y-53467000D01*
X88765500Y-50000000D02*
X88868000Y-49897500D01*
X86100000Y-50000000D02*
X88765500Y-50000000D01*
X88868000Y-49342000D02*
X88868000Y-49897500D01*
X97372490Y-48172490D02*
X90037510Y-48172490D01*
X90037510Y-48172490D02*
X88868000Y-49342000D01*
X99809500Y-50609500D02*
X97372490Y-48172490D01*
X112966500Y-50609500D02*
X99809500Y-50609500D01*
X113157000Y-50419000D02*
X112966500Y-50609500D01*
D27*
X131238242Y-63078360D02*
X129354720Y-63078360D01*
X141702400Y-51333400D02*
X141702400Y-52614202D01*
X141702400Y-52614202D02*
X131238242Y-63078360D01*
X129354720Y-63078360D02*
X122854720Y-63078360D01*
X135699500Y-52514500D02*
X135702400Y-52533400D01*
X134366000Y-53848000D02*
X135699500Y-52514500D01*
X135702400Y-52533400D02*
X135702400Y-51333400D01*
X134366000Y-57975500D02*
X134366000Y-53848000D01*
X130810000Y-59436000D02*
X132905500Y-59436000D01*
X132905500Y-59436000D02*
X134366000Y-57975500D01*
X50151000Y-49611000D02*
X50540000Y-50000000D01*
D26*
X50151000Y-47752000D02*
X50151000Y-49611000D01*
X51883000Y-47752000D02*
X51885000Y-47750000D01*
X50060000Y-47510000D02*
X51792000Y-47510000D01*
X126783998Y-55070000D02*
X131505000Y-55070000D01*
X123463998Y-51750000D02*
X126783998Y-55070000D01*
X120326380Y-50816380D02*
X121260000Y-51750000D01*
X120326380Y-49936380D02*
X120326380Y-50816380D01*
X118489999Y-48099999D02*
X120326380Y-49936380D01*
X115599999Y-49380001D02*
X115599999Y-49087999D01*
X115599999Y-49087999D02*
X116587999Y-48099999D01*
X113760999Y-51219001D02*
X115599999Y-49380001D01*
X98109001Y-51219001D02*
X113760999Y-51219001D01*
X96957500Y-50067500D02*
X98109001Y-51219001D01*
X121260000Y-51750000D02*
X123463998Y-51750000D01*
X116587999Y-48099999D02*
X118489999Y-48099999D01*
X96957500Y-49910000D02*
X96957500Y-50067500D01*
D28*
G36*
X143878400Y-50622466D02*
G01*
X146868000Y-50622466D01*
X146868001Y-83177500D01*
X40202000Y-83177500D01*
X40202000Y-80835530D01*
X40823900Y-80835530D01*
X40823900Y-81165870D01*
X40888346Y-81489863D01*
X41014762Y-81795057D01*
X41198289Y-82069725D01*
X41431875Y-82303311D01*
X41706543Y-82486838D01*
X42011737Y-82613254D01*
X42335730Y-82677700D01*
X42666070Y-82677700D01*
X42990063Y-82613254D01*
X43295257Y-82486838D01*
X43569925Y-82303311D01*
X43803511Y-82069725D01*
X43987038Y-81795057D01*
X44113454Y-81489863D01*
X44177900Y-81165870D01*
X44177900Y-80835530D01*
X44173003Y-80810907D01*
X115572480Y-80810907D01*
X115572480Y-81190493D01*
X115646533Y-81562785D01*
X115791795Y-81913477D01*
X116002681Y-82229091D01*
X116271089Y-82497499D01*
X116586703Y-82708385D01*
X116937395Y-82853647D01*
X117309687Y-82927700D01*
X117689273Y-82927700D01*
X118061565Y-82853647D01*
X118412257Y-82708385D01*
X118727871Y-82497499D01*
X118996279Y-82229091D01*
X119207165Y-81913477D01*
X119352427Y-81562785D01*
X119426480Y-81190493D01*
X119426480Y-80810907D01*
X119352427Y-80438615D01*
X119207165Y-80087923D01*
X119023468Y-79813000D01*
X121311572Y-79813000D01*
X121311572Y-82367000D01*
X131508429Y-82367000D01*
X131508429Y-79813000D01*
X121311572Y-79813000D01*
X119023468Y-79813000D01*
X118996279Y-79772309D01*
X118727871Y-79503901D01*
X118412257Y-79293015D01*
X118061565Y-79147753D01*
X117689273Y-79073700D01*
X117309687Y-79073700D01*
X116937395Y-79147753D01*
X116586703Y-79293015D01*
X116271089Y-79503901D01*
X116002681Y-79772309D01*
X115791795Y-80087923D01*
X115646533Y-80438615D01*
X115572480Y-80810907D01*
X44173003Y-80810907D01*
X44113454Y-80511537D01*
X43987038Y-80206343D01*
X43803511Y-79931675D01*
X43569925Y-79698089D01*
X43295257Y-79514562D01*
X42990063Y-79388146D01*
X42666070Y-79323700D01*
X42335730Y-79323700D01*
X42011737Y-79388146D01*
X41706543Y-79514562D01*
X41431875Y-79698089D01*
X41198289Y-79931675D01*
X41014762Y-80206343D01*
X40888346Y-80511537D01*
X40823900Y-80835530D01*
X40202000Y-80835530D01*
X40202000Y-79002000D01*
X119408450Y-79002000D01*
X119413805Y-79002036D01*
X119414199Y-79002000D01*
X119432207Y-79002000D01*
X119447603Y-79000484D01*
X119453216Y-79000580D01*
X119459503Y-79000028D01*
X119649921Y-78981976D01*
X119690098Y-78974155D01*
X119730448Y-78966884D01*
X119736502Y-78965123D01*
X119736511Y-78965121D01*
X119736519Y-78965118D01*
X119919794Y-78910429D01*
X119957756Y-78894925D01*
X119995861Y-78879980D01*
X120001452Y-78877080D01*
X120001461Y-78877076D01*
X120001468Y-78877071D01*
X120170636Y-78787821D01*
X120204842Y-78765254D01*
X120239335Y-78743181D01*
X120244267Y-78739242D01*
X120244269Y-78739241D01*
X120244273Y-78739238D01*
X120382799Y-78627000D01*
X120396000Y-78627000D01*
X120420776Y-78624560D01*
X120444601Y-78617333D01*
X120466557Y-78605597D01*
X120485803Y-78589803D01*
X120501597Y-78570557D01*
X120513333Y-78548601D01*
X120520560Y-78524776D01*
X120523000Y-78500000D01*
X120523000Y-78476024D01*
X120578071Y-78409890D01*
X120601068Y-78376032D01*
X120624579Y-78342435D01*
X120627637Y-78336914D01*
X120719152Y-78168955D01*
X120735154Y-78131230D01*
X120751670Y-78093754D01*
X120753596Y-78087750D01*
X120753599Y-78087743D01*
X120753600Y-78087736D01*
X120810747Y-77905209D01*
X120819111Y-77865119D01*
X120828040Y-77825123D01*
X120828762Y-77818865D01*
X120828764Y-77818854D01*
X120828764Y-77818844D01*
X120844813Y-77670740D01*
X120845460Y-77668607D01*
X120852000Y-77602205D01*
X120852000Y-77090773D01*
X121898912Y-77090773D01*
X121994676Y-77355174D01*
X122284291Y-77496064D01*
X122595828Y-77577744D01*
X122917315Y-77597078D01*
X123236395Y-77553321D01*
X123540808Y-77448155D01*
X123714764Y-77355174D01*
X123810528Y-77090773D01*
X128398912Y-77090773D01*
X128494676Y-77355174D01*
X128784291Y-77496064D01*
X129095828Y-77577744D01*
X129417315Y-77597078D01*
X129736395Y-77553321D01*
X130040808Y-77448155D01*
X130214764Y-77355174D01*
X130310528Y-77090773D01*
X129354720Y-76134965D01*
X128398912Y-77090773D01*
X123810528Y-77090773D01*
X122854720Y-76134965D01*
X121898912Y-77090773D01*
X120852000Y-77090773D01*
X120852000Y-76017955D01*
X121213002Y-76017955D01*
X121256759Y-76337035D01*
X121361925Y-76641448D01*
X121454906Y-76815404D01*
X121719307Y-76911168D01*
X122675115Y-75955360D01*
X123034325Y-75955360D01*
X123990133Y-76911168D01*
X124254534Y-76815404D01*
X124395424Y-76525789D01*
X124477104Y-76214252D01*
X124488909Y-76017955D01*
X127713002Y-76017955D01*
X127756759Y-76337035D01*
X127861925Y-76641448D01*
X127954906Y-76815404D01*
X128219307Y-76911168D01*
X129175115Y-75955360D01*
X128219307Y-74999552D01*
X127954906Y-75095316D01*
X127814016Y-75384931D01*
X127732336Y-75696468D01*
X127713002Y-76017955D01*
X124488909Y-76017955D01*
X124496438Y-75892765D01*
X124452681Y-75573685D01*
X124347515Y-75269272D01*
X124254534Y-75095316D01*
X123990133Y-74999552D01*
X123034325Y-75955360D01*
X122675115Y-75955360D01*
X121719307Y-74999552D01*
X121454906Y-75095316D01*
X121314016Y-75384931D01*
X121232336Y-75696468D01*
X121213002Y-76017955D01*
X120852000Y-76017955D01*
X120852000Y-74819947D01*
X121898912Y-74819947D01*
X122854720Y-75775755D01*
X123810528Y-74819947D01*
X123714764Y-74555546D01*
X123425149Y-74414656D01*
X123113612Y-74332976D01*
X122792125Y-74313642D01*
X122473045Y-74357399D01*
X122168632Y-74462565D01*
X121994676Y-74555546D01*
X121898912Y-74819947D01*
X120852000Y-74819947D01*
X120852000Y-72121931D01*
X121839768Y-73109700D01*
X121856271Y-73129809D01*
X121936517Y-73195665D01*
X122028069Y-73244600D01*
X122127409Y-73274735D01*
X122230719Y-73284910D01*
X122256600Y-73282361D01*
X128797429Y-73282361D01*
X128797429Y-74418069D01*
X128668632Y-74462565D01*
X128494676Y-74555546D01*
X128398912Y-74819947D01*
X129354720Y-75775755D01*
X129368863Y-75761613D01*
X129548468Y-75941218D01*
X129534325Y-75955360D01*
X130490133Y-76911168D01*
X130754534Y-76815404D01*
X130895424Y-76525789D01*
X130977104Y-76214252D01*
X130996438Y-75892765D01*
X130952681Y-75573685D01*
X130847515Y-75269272D01*
X130754534Y-75095316D01*
X130490135Y-74999553D01*
X130501688Y-74988000D01*
X135108572Y-74988000D01*
X135108572Y-72734000D01*
X132615289Y-72734000D01*
X138790709Y-66558581D01*
X139020172Y-66653628D01*
X139328709Y-66715000D01*
X139643291Y-66715000D01*
X139951828Y-66653628D01*
X140242463Y-66533243D01*
X140504028Y-66358471D01*
X140726471Y-66136028D01*
X140901243Y-65874463D01*
X141021628Y-65583828D01*
X141083000Y-65275291D01*
X141083000Y-64960709D01*
X141021628Y-64652172D01*
X140901243Y-64361537D01*
X140726471Y-64099972D01*
X140504028Y-63877529D01*
X140242463Y-63702757D01*
X140113000Y-63649132D01*
X140113000Y-63249000D01*
X140872928Y-63249000D01*
X140885188Y-63373482D01*
X140921498Y-63493180D01*
X140980463Y-63603494D01*
X141059815Y-63700185D01*
X141156506Y-63779537D01*
X141266820Y-63838502D01*
X141386518Y-63874812D01*
X141511000Y-63887072D01*
X141700250Y-63884000D01*
X141859000Y-63725250D01*
X141859000Y-62851000D01*
X142113000Y-62851000D01*
X142113000Y-63725250D01*
X142271750Y-63884000D01*
X142461000Y-63887072D01*
X142585482Y-63874812D01*
X142705180Y-63838502D01*
X142815494Y-63779537D01*
X142912185Y-63700185D01*
X142991537Y-63603494D01*
X143050502Y-63493180D01*
X143086812Y-63373482D01*
X143099072Y-63249000D01*
X143096000Y-63009750D01*
X142937250Y-62851000D01*
X142113000Y-62851000D01*
X141859000Y-62851000D01*
X141034750Y-62851000D01*
X140876000Y-63009750D01*
X140872928Y-63249000D01*
X140113000Y-63249000D01*
X140113000Y-63021211D01*
X140873718Y-62260494D01*
X140876000Y-62438250D01*
X141034750Y-62597000D01*
X141859000Y-62597000D01*
X141859000Y-62577000D01*
X142113000Y-62577000D01*
X142113000Y-62597000D01*
X142937250Y-62597000D01*
X143096000Y-62438250D01*
X143099072Y-62199000D01*
X143086812Y-62074518D01*
X143050502Y-61954820D01*
X142991537Y-61844506D01*
X142912185Y-61747815D01*
X142815494Y-61668463D01*
X142768344Y-61643260D01*
X142777729Y-61631824D01*
X142839327Y-61516584D01*
X142877258Y-61391541D01*
X142890066Y-61261500D01*
X142890066Y-60686500D01*
X142877258Y-60556459D01*
X142839327Y-60431416D01*
X142777729Y-60316176D01*
X142694833Y-60215167D01*
X142613000Y-60148008D01*
X142613000Y-60120992D01*
X142694833Y-60053833D01*
X142777729Y-59952824D01*
X142839327Y-59837584D01*
X142877258Y-59712541D01*
X142890066Y-59582500D01*
X142890066Y-59007500D01*
X142877258Y-58877459D01*
X142839327Y-58752416D01*
X142777729Y-58637176D01*
X142694833Y-58536167D01*
X142593824Y-58453271D01*
X142531579Y-58420000D01*
X142593824Y-58386729D01*
X142694833Y-58303833D01*
X142777729Y-58202824D01*
X142839327Y-58087584D01*
X142877258Y-57962541D01*
X142890066Y-57832500D01*
X142890066Y-57257500D01*
X142877258Y-57127459D01*
X142839327Y-57002416D01*
X142777729Y-56887176D01*
X142694833Y-56786167D01*
X142613000Y-56719008D01*
X142613000Y-56586868D01*
X142742463Y-56533243D01*
X143004028Y-56358471D01*
X143226471Y-56136028D01*
X143401243Y-55874463D01*
X143521628Y-55583828D01*
X143583000Y-55275291D01*
X143583000Y-54960709D01*
X143521628Y-54652172D01*
X143426581Y-54422709D01*
X143656740Y-54192550D01*
X143676849Y-54176047D01*
X143742705Y-54095801D01*
X143791640Y-54004249D01*
X143821775Y-53904909D01*
X143826967Y-53852196D01*
X143831950Y-53801600D01*
X143829401Y-53775719D01*
X143829401Y-50617640D01*
X143878400Y-50622466D01*
G37*
X143878400Y-50622466D02*
X146868000Y-50622466D01*
X146868001Y-83177500D01*
X40202000Y-83177500D01*
X40202000Y-80835530D01*
X40823900Y-80835530D01*
X40823900Y-81165870D01*
X40888346Y-81489863D01*
X41014762Y-81795057D01*
X41198289Y-82069725D01*
X41431875Y-82303311D01*
X41706543Y-82486838D01*
X42011737Y-82613254D01*
X42335730Y-82677700D01*
X42666070Y-82677700D01*
X42990063Y-82613254D01*
X43295257Y-82486838D01*
X43569925Y-82303311D01*
X43803511Y-82069725D01*
X43987038Y-81795057D01*
X44113454Y-81489863D01*
X44177900Y-81165870D01*
X44177900Y-80835530D01*
X44173003Y-80810907D01*
X115572480Y-80810907D01*
X115572480Y-81190493D01*
X115646533Y-81562785D01*
X115791795Y-81913477D01*
X116002681Y-82229091D01*
X116271089Y-82497499D01*
X116586703Y-82708385D01*
X116937395Y-82853647D01*
X117309687Y-82927700D01*
X117689273Y-82927700D01*
X118061565Y-82853647D01*
X118412257Y-82708385D01*
X118727871Y-82497499D01*
X118996279Y-82229091D01*
X119207165Y-81913477D01*
X119352427Y-81562785D01*
X119426480Y-81190493D01*
X119426480Y-80810907D01*
X119352427Y-80438615D01*
X119207165Y-80087923D01*
X119023468Y-79813000D01*
X121311572Y-79813000D01*
X121311572Y-82367000D01*
X131508429Y-82367000D01*
X131508429Y-79813000D01*
X121311572Y-79813000D01*
X119023468Y-79813000D01*
X118996279Y-79772309D01*
X118727871Y-79503901D01*
X118412257Y-79293015D01*
X118061565Y-79147753D01*
X117689273Y-79073700D01*
X117309687Y-79073700D01*
X116937395Y-79147753D01*
X116586703Y-79293015D01*
X116271089Y-79503901D01*
X116002681Y-79772309D01*
X115791795Y-80087923D01*
X115646533Y-80438615D01*
X115572480Y-80810907D01*
X44173003Y-80810907D01*
X44113454Y-80511537D01*
X43987038Y-80206343D01*
X43803511Y-79931675D01*
X43569925Y-79698089D01*
X43295257Y-79514562D01*
X42990063Y-79388146D01*
X42666070Y-79323700D01*
X42335730Y-79323700D01*
X42011737Y-79388146D01*
X41706543Y-79514562D01*
X41431875Y-79698089D01*
X41198289Y-79931675D01*
X41014762Y-80206343D01*
X40888346Y-80511537D01*
X40823900Y-80835530D01*
X40202000Y-80835530D01*
X40202000Y-79002000D01*
X119408450Y-79002000D01*
X119413805Y-79002036D01*
X119414199Y-79002000D01*
X119432207Y-79002000D01*
X119447603Y-79000484D01*
X119453216Y-79000580D01*
X119459503Y-79000028D01*
X119649921Y-78981976D01*
X119690098Y-78974155D01*
X119730448Y-78966884D01*
X119736502Y-78965123D01*
X119736511Y-78965121D01*
X119736519Y-78965118D01*
X119919794Y-78910429D01*
X119957756Y-78894925D01*
X119995861Y-78879980D01*
X120001452Y-78877080D01*
X120001461Y-78877076D01*
X120001468Y-78877071D01*
X120170636Y-78787821D01*
X120204842Y-78765254D01*
X120239335Y-78743181D01*
X120244267Y-78739242D01*
X120244269Y-78739241D01*
X120244273Y-78739238D01*
X120382799Y-78627000D01*
X120396000Y-78627000D01*
X120420776Y-78624560D01*
X120444601Y-78617333D01*
X120466557Y-78605597D01*
X120485803Y-78589803D01*
X120501597Y-78570557D01*
X120513333Y-78548601D01*
X120520560Y-78524776D01*
X120523000Y-78500000D01*
X120523000Y-78476024D01*
X120578071Y-78409890D01*
X120601068Y-78376032D01*
X120624579Y-78342435D01*
X120627637Y-78336914D01*
X120719152Y-78168955D01*
X120735154Y-78131230D01*
X120751670Y-78093754D01*
X120753596Y-78087750D01*
X120753599Y-78087743D01*
X120753600Y-78087736D01*
X120810747Y-77905209D01*
X120819111Y-77865119D01*
X120828040Y-77825123D01*
X120828762Y-77818865D01*
X120828764Y-77818854D01*
X120828764Y-77818844D01*
X120844813Y-77670740D01*
X120845460Y-77668607D01*
X120852000Y-77602205D01*
X120852000Y-77090773D01*
X121898912Y-77090773D01*
X121994676Y-77355174D01*
X122284291Y-77496064D01*
X122595828Y-77577744D01*
X122917315Y-77597078D01*
X123236395Y-77553321D01*
X123540808Y-77448155D01*
X123714764Y-77355174D01*
X123810528Y-77090773D01*
X128398912Y-77090773D01*
X128494676Y-77355174D01*
X128784291Y-77496064D01*
X129095828Y-77577744D01*
X129417315Y-77597078D01*
X129736395Y-77553321D01*
X130040808Y-77448155D01*
X130214764Y-77355174D01*
X130310528Y-77090773D01*
X129354720Y-76134965D01*
X128398912Y-77090773D01*
X123810528Y-77090773D01*
X122854720Y-76134965D01*
X121898912Y-77090773D01*
X120852000Y-77090773D01*
X120852000Y-76017955D01*
X121213002Y-76017955D01*
X121256759Y-76337035D01*
X121361925Y-76641448D01*
X121454906Y-76815404D01*
X121719307Y-76911168D01*
X122675115Y-75955360D01*
X123034325Y-75955360D01*
X123990133Y-76911168D01*
X124254534Y-76815404D01*
X124395424Y-76525789D01*
X124477104Y-76214252D01*
X124488909Y-76017955D01*
X127713002Y-76017955D01*
X127756759Y-76337035D01*
X127861925Y-76641448D01*
X127954906Y-76815404D01*
X128219307Y-76911168D01*
X129175115Y-75955360D01*
X128219307Y-74999552D01*
X127954906Y-75095316D01*
X127814016Y-75384931D01*
X127732336Y-75696468D01*
X127713002Y-76017955D01*
X124488909Y-76017955D01*
X124496438Y-75892765D01*
X124452681Y-75573685D01*
X124347515Y-75269272D01*
X124254534Y-75095316D01*
X123990133Y-74999552D01*
X123034325Y-75955360D01*
X122675115Y-75955360D01*
X121719307Y-74999552D01*
X121454906Y-75095316D01*
X121314016Y-75384931D01*
X121232336Y-75696468D01*
X121213002Y-76017955D01*
X120852000Y-76017955D01*
X120852000Y-74819947D01*
X121898912Y-74819947D01*
X122854720Y-75775755D01*
X123810528Y-74819947D01*
X123714764Y-74555546D01*
X123425149Y-74414656D01*
X123113612Y-74332976D01*
X122792125Y-74313642D01*
X122473045Y-74357399D01*
X122168632Y-74462565D01*
X121994676Y-74555546D01*
X121898912Y-74819947D01*
X120852000Y-74819947D01*
X120852000Y-72121931D01*
X121839768Y-73109700D01*
X121856271Y-73129809D01*
X121936517Y-73195665D01*
X122028069Y-73244600D01*
X122127409Y-73274735D01*
X122230719Y-73284910D01*
X122256600Y-73282361D01*
X128797429Y-73282361D01*
X128797429Y-74418069D01*
X128668632Y-74462565D01*
X128494676Y-74555546D01*
X128398912Y-74819947D01*
X129354720Y-75775755D01*
X129368863Y-75761613D01*
X129548468Y-75941218D01*
X129534325Y-75955360D01*
X130490133Y-76911168D01*
X130754534Y-76815404D01*
X130895424Y-76525789D01*
X130977104Y-76214252D01*
X130996438Y-75892765D01*
X130952681Y-75573685D01*
X130847515Y-75269272D01*
X130754534Y-75095316D01*
X130490135Y-74999553D01*
X130501688Y-74988000D01*
X135108572Y-74988000D01*
X135108572Y-72734000D01*
X132615289Y-72734000D01*
X138790709Y-66558581D01*
X139020172Y-66653628D01*
X139328709Y-66715000D01*
X139643291Y-66715000D01*
X139951828Y-66653628D01*
X140242463Y-66533243D01*
X140504028Y-66358471D01*
X140726471Y-66136028D01*
X140901243Y-65874463D01*
X141021628Y-65583828D01*
X141083000Y-65275291D01*
X141083000Y-64960709D01*
X141021628Y-64652172D01*
X140901243Y-64361537D01*
X140726471Y-64099972D01*
X140504028Y-63877529D01*
X140242463Y-63702757D01*
X140113000Y-63649132D01*
X140113000Y-63249000D01*
X140872928Y-63249000D01*
X140885188Y-63373482D01*
X140921498Y-63493180D01*
X140980463Y-63603494D01*
X141059815Y-63700185D01*
X141156506Y-63779537D01*
X141266820Y-63838502D01*
X141386518Y-63874812D01*
X141511000Y-63887072D01*
X141700250Y-63884000D01*
X141859000Y-63725250D01*
X141859000Y-62851000D01*
X142113000Y-62851000D01*
X142113000Y-63725250D01*
X142271750Y-63884000D01*
X142461000Y-63887072D01*
X142585482Y-63874812D01*
X142705180Y-63838502D01*
X142815494Y-63779537D01*
X142912185Y-63700185D01*
X142991537Y-63603494D01*
X143050502Y-63493180D01*
X143086812Y-63373482D01*
X143099072Y-63249000D01*
X143096000Y-63009750D01*
X142937250Y-62851000D01*
X142113000Y-62851000D01*
X141859000Y-62851000D01*
X141034750Y-62851000D01*
X140876000Y-63009750D01*
X140872928Y-63249000D01*
X140113000Y-63249000D01*
X140113000Y-63021211D01*
X140873718Y-62260494D01*
X140876000Y-62438250D01*
X141034750Y-62597000D01*
X141859000Y-62597000D01*
X141859000Y-62577000D01*
X142113000Y-62577000D01*
X142113000Y-62597000D01*
X142937250Y-62597000D01*
X143096000Y-62438250D01*
X143099072Y-62199000D01*
X143086812Y-62074518D01*
X143050502Y-61954820D01*
X142991537Y-61844506D01*
X142912185Y-61747815D01*
X142815494Y-61668463D01*
X142768344Y-61643260D01*
X142777729Y-61631824D01*
X142839327Y-61516584D01*
X142877258Y-61391541D01*
X142890066Y-61261500D01*
X142890066Y-60686500D01*
X142877258Y-60556459D01*
X142839327Y-60431416D01*
X142777729Y-60316176D01*
X142694833Y-60215167D01*
X142613000Y-60148008D01*
X142613000Y-60120992D01*
X142694833Y-60053833D01*
X142777729Y-59952824D01*
X142839327Y-59837584D01*
X142877258Y-59712541D01*
X142890066Y-59582500D01*
X142890066Y-59007500D01*
X142877258Y-58877459D01*
X142839327Y-58752416D01*
X142777729Y-58637176D01*
X142694833Y-58536167D01*
X142593824Y-58453271D01*
X142531579Y-58420000D01*
X142593824Y-58386729D01*
X142694833Y-58303833D01*
X142777729Y-58202824D01*
X142839327Y-58087584D01*
X142877258Y-57962541D01*
X142890066Y-57832500D01*
X142890066Y-57257500D01*
X142877258Y-57127459D01*
X142839327Y-57002416D01*
X142777729Y-56887176D01*
X142694833Y-56786167D01*
X142613000Y-56719008D01*
X142613000Y-56586868D01*
X142742463Y-56533243D01*
X143004028Y-56358471D01*
X143226471Y-56136028D01*
X143401243Y-55874463D01*
X143521628Y-55583828D01*
X143583000Y-55275291D01*
X143583000Y-54960709D01*
X143521628Y-54652172D01*
X143426581Y-54422709D01*
X143656740Y-54192550D01*
X143676849Y-54176047D01*
X143742705Y-54095801D01*
X143791640Y-54004249D01*
X143821775Y-53904909D01*
X143826967Y-53852196D01*
X143831950Y-53801600D01*
X143829401Y-53775719D01*
X143829401Y-50617640D01*
X143878400Y-50622466D01*
G36*
X140450372Y-55583828D02*
G01*
X140570757Y-55874463D01*
X140745529Y-56136028D01*
X140967972Y-56358471D01*
X141229537Y-56533243D01*
X141359001Y-56586869D01*
X141359001Y-56719008D01*
X141277167Y-56786167D01*
X141194271Y-56887176D01*
X141132673Y-57002416D01*
X141094742Y-57127459D01*
X141081934Y-57257500D01*
X141081934Y-57832500D01*
X141094742Y-57962541D01*
X141132673Y-58087584D01*
X141194271Y-58202824D01*
X141277167Y-58303833D01*
X141378176Y-58386729D01*
X141440421Y-58420000D01*
X141378176Y-58453271D01*
X141277167Y-58536167D01*
X141194271Y-58637176D01*
X141132673Y-58752416D01*
X141094742Y-58877459D01*
X141081934Y-59007500D01*
X141081934Y-59582500D01*
X141094742Y-59712541D01*
X141132673Y-59837584D01*
X141194271Y-59952824D01*
X141277167Y-60053833D01*
X141359000Y-60120992D01*
X141359001Y-60148008D01*
X141277167Y-60215167D01*
X141194271Y-60316176D01*
X141174188Y-60353749D01*
X141150587Y-60356073D01*
X141032397Y-60391925D01*
X140923472Y-60450147D01*
X140827999Y-60528499D01*
X140808366Y-60552422D01*
X139064427Y-62296362D01*
X139040499Y-62315999D01*
X138962147Y-62411473D01*
X138903925Y-62520398D01*
X138874570Y-62617169D01*
X138868073Y-62638588D01*
X138855967Y-62761500D01*
X138859000Y-62792294D01*
X138859000Y-63649132D01*
X138729537Y-63702757D01*
X138467972Y-63877529D01*
X138245529Y-64099972D01*
X138070757Y-64361537D01*
X137950372Y-64652172D01*
X137889000Y-64960709D01*
X137889000Y-65275291D01*
X137950372Y-65583828D01*
X138045419Y-65813291D01*
X131630350Y-72228361D01*
X130554456Y-72228361D01*
X130619311Y-72131298D01*
X130726882Y-71871601D01*
X130781720Y-71595907D01*
X130781720Y-71314813D01*
X130726882Y-71039119D01*
X130675544Y-70915180D01*
X135048225Y-66542500D01*
X135108572Y-66542500D01*
X135108572Y-66482153D01*
X135626149Y-65964576D01*
X135647211Y-65947291D01*
X135716191Y-65863238D01*
X135767448Y-65767343D01*
X135799012Y-65663291D01*
X135807000Y-65582189D01*
X135807000Y-65582186D01*
X135809670Y-65555080D01*
X135807000Y-65527974D01*
X135807000Y-59926656D01*
X140400509Y-55333149D01*
X140450372Y-55583828D01*
G37*
X140450372Y-55583828D02*
X140570757Y-55874463D01*
X140745529Y-56136028D01*
X140967972Y-56358471D01*
X141229537Y-56533243D01*
X141359001Y-56586869D01*
X141359001Y-56719008D01*
X141277167Y-56786167D01*
X141194271Y-56887176D01*
X141132673Y-57002416D01*
X141094742Y-57127459D01*
X141081934Y-57257500D01*
X141081934Y-57832500D01*
X141094742Y-57962541D01*
X141132673Y-58087584D01*
X141194271Y-58202824D01*
X141277167Y-58303833D01*
X141378176Y-58386729D01*
X141440421Y-58420000D01*
X141378176Y-58453271D01*
X141277167Y-58536167D01*
X141194271Y-58637176D01*
X141132673Y-58752416D01*
X141094742Y-58877459D01*
X141081934Y-59007500D01*
X141081934Y-59582500D01*
X141094742Y-59712541D01*
X141132673Y-59837584D01*
X141194271Y-59952824D01*
X141277167Y-60053833D01*
X141359000Y-60120992D01*
X141359001Y-60148008D01*
X141277167Y-60215167D01*
X141194271Y-60316176D01*
X141174188Y-60353749D01*
X141150587Y-60356073D01*
X141032397Y-60391925D01*
X140923472Y-60450147D01*
X140827999Y-60528499D01*
X140808366Y-60552422D01*
X139064427Y-62296362D01*
X139040499Y-62315999D01*
X138962147Y-62411473D01*
X138903925Y-62520398D01*
X138874570Y-62617169D01*
X138868073Y-62638588D01*
X138855967Y-62761500D01*
X138859000Y-62792294D01*
X138859000Y-63649132D01*
X138729537Y-63702757D01*
X138467972Y-63877529D01*
X138245529Y-64099972D01*
X138070757Y-64361537D01*
X137950372Y-64652172D01*
X137889000Y-64960709D01*
X137889000Y-65275291D01*
X137950372Y-65583828D01*
X138045419Y-65813291D01*
X131630350Y-72228361D01*
X130554456Y-72228361D01*
X130619311Y-72131298D01*
X130726882Y-71871601D01*
X130781720Y-71595907D01*
X130781720Y-71314813D01*
X130726882Y-71039119D01*
X130675544Y-70915180D01*
X135048225Y-66542500D01*
X135108572Y-66542500D01*
X135108572Y-66482153D01*
X135626149Y-65964576D01*
X135647211Y-65947291D01*
X135716191Y-65863238D01*
X135767448Y-65767343D01*
X135799012Y-65663291D01*
X135807000Y-65582189D01*
X135807000Y-65582186D01*
X135809670Y-65555080D01*
X135807000Y-65527974D01*
X135807000Y-59926656D01*
X140400509Y-55333149D01*
X140450372Y-55583828D01*
G36*
X128090129Y-63754298D02*
G01*
X128246296Y-63988020D01*
X128445060Y-64186784D01*
X128678782Y-64342951D01*
X128797429Y-64392097D01*
X128797429Y-66041069D01*
X128668632Y-66085565D01*
X128494676Y-66178546D01*
X128398912Y-66442947D01*
X129354720Y-67398755D01*
X129368863Y-67384613D01*
X129548468Y-67564218D01*
X129534325Y-67578360D01*
X130490133Y-68534168D01*
X130754534Y-68438404D01*
X130895424Y-68148789D01*
X130977104Y-67837252D01*
X130996438Y-67515765D01*
X130952681Y-67196685D01*
X130847515Y-66892272D01*
X130754534Y-66718316D01*
X130490135Y-66622553D01*
X130570188Y-66542500D01*
X133486935Y-66542500D01*
X129894900Y-70134536D01*
X129770961Y-70083198D01*
X129495267Y-70028360D01*
X129214173Y-70028360D01*
X128938479Y-70083198D01*
X128678782Y-70190769D01*
X128445060Y-70346936D01*
X128246296Y-70545700D01*
X128090129Y-70779422D01*
X128038792Y-70903360D01*
X124170648Y-70903360D01*
X124119311Y-70779422D01*
X123963144Y-70545700D01*
X123764380Y-70346936D01*
X123530658Y-70190769D01*
X123270961Y-70083198D01*
X122995267Y-70028360D01*
X122714173Y-70028360D01*
X122438479Y-70083198D01*
X122178782Y-70190769D01*
X121945060Y-70346936D01*
X121746296Y-70545700D01*
X121590129Y-70779422D01*
X121558000Y-70856988D01*
X121558000Y-68713773D01*
X121898912Y-68713773D01*
X121994676Y-68978174D01*
X122284291Y-69119064D01*
X122595828Y-69200744D01*
X122917315Y-69220078D01*
X123236395Y-69176321D01*
X123540808Y-69071155D01*
X123714764Y-68978174D01*
X123810528Y-68713773D01*
X128398912Y-68713773D01*
X128494676Y-68978174D01*
X128784291Y-69119064D01*
X129095828Y-69200744D01*
X129417315Y-69220078D01*
X129736395Y-69176321D01*
X130040808Y-69071155D01*
X130214764Y-68978174D01*
X130310528Y-68713773D01*
X129354720Y-67757965D01*
X128398912Y-68713773D01*
X123810528Y-68713773D01*
X122854720Y-67757965D01*
X121898912Y-68713773D01*
X121558000Y-68713773D01*
X121558000Y-68475744D01*
X121719307Y-68534168D01*
X122675115Y-67578360D01*
X123034325Y-67578360D01*
X123990133Y-68534168D01*
X124254534Y-68438404D01*
X124395424Y-68148789D01*
X124477104Y-67837252D01*
X124488909Y-67640955D01*
X127713002Y-67640955D01*
X127756759Y-67960035D01*
X127861925Y-68264448D01*
X127954906Y-68438404D01*
X128219307Y-68534168D01*
X129175115Y-67578360D01*
X128219307Y-66622552D01*
X127954906Y-66718316D01*
X127814016Y-67007931D01*
X127732336Y-67319468D01*
X127713002Y-67640955D01*
X124488909Y-67640955D01*
X124496438Y-67515765D01*
X124452681Y-67196685D01*
X124347515Y-66892272D01*
X124254534Y-66718316D01*
X123990133Y-66622552D01*
X123034325Y-67578360D01*
X122675115Y-67578360D01*
X121719307Y-66622552D01*
X121558000Y-66680976D01*
X121558000Y-66442947D01*
X121898912Y-66442947D01*
X122854720Y-67398755D01*
X123810528Y-66442947D01*
X123714764Y-66178546D01*
X123425149Y-66037656D01*
X123113612Y-65955976D01*
X122792125Y-65936642D01*
X122473045Y-65980399D01*
X122168632Y-66085565D01*
X121994676Y-66178546D01*
X121898912Y-66442947D01*
X121558000Y-66442947D01*
X121558000Y-63676732D01*
X121590129Y-63754298D01*
X121746296Y-63988020D01*
X121945060Y-64186784D01*
X122178782Y-64342951D01*
X122438479Y-64450522D01*
X122714173Y-64505360D01*
X122995267Y-64505360D01*
X123270961Y-64450522D01*
X123530658Y-64342951D01*
X123764380Y-64186784D01*
X123963144Y-63988020D01*
X124119311Y-63754298D01*
X124170648Y-63630360D01*
X128038792Y-63630360D01*
X128090129Y-63754298D01*
G37*
X128090129Y-63754298D02*
X128246296Y-63988020D01*
X128445060Y-64186784D01*
X128678782Y-64342951D01*
X128797429Y-64392097D01*
X128797429Y-66041069D01*
X128668632Y-66085565D01*
X128494676Y-66178546D01*
X128398912Y-66442947D01*
X129354720Y-67398755D01*
X129368863Y-67384613D01*
X129548468Y-67564218D01*
X129534325Y-67578360D01*
X130490133Y-68534168D01*
X130754534Y-68438404D01*
X130895424Y-68148789D01*
X130977104Y-67837252D01*
X130996438Y-67515765D01*
X130952681Y-67196685D01*
X130847515Y-66892272D01*
X130754534Y-66718316D01*
X130490135Y-66622553D01*
X130570188Y-66542500D01*
X133486935Y-66542500D01*
X129894900Y-70134536D01*
X129770961Y-70083198D01*
X129495267Y-70028360D01*
X129214173Y-70028360D01*
X128938479Y-70083198D01*
X128678782Y-70190769D01*
X128445060Y-70346936D01*
X128246296Y-70545700D01*
X128090129Y-70779422D01*
X128038792Y-70903360D01*
X124170648Y-70903360D01*
X124119311Y-70779422D01*
X123963144Y-70545700D01*
X123764380Y-70346936D01*
X123530658Y-70190769D01*
X123270961Y-70083198D01*
X122995267Y-70028360D01*
X122714173Y-70028360D01*
X122438479Y-70083198D01*
X122178782Y-70190769D01*
X121945060Y-70346936D01*
X121746296Y-70545700D01*
X121590129Y-70779422D01*
X121558000Y-70856988D01*
X121558000Y-68713773D01*
X121898912Y-68713773D01*
X121994676Y-68978174D01*
X122284291Y-69119064D01*
X122595828Y-69200744D01*
X122917315Y-69220078D01*
X123236395Y-69176321D01*
X123540808Y-69071155D01*
X123714764Y-68978174D01*
X123810528Y-68713773D01*
X128398912Y-68713773D01*
X128494676Y-68978174D01*
X128784291Y-69119064D01*
X129095828Y-69200744D01*
X129417315Y-69220078D01*
X129736395Y-69176321D01*
X130040808Y-69071155D01*
X130214764Y-68978174D01*
X130310528Y-68713773D01*
X129354720Y-67757965D01*
X128398912Y-68713773D01*
X123810528Y-68713773D01*
X122854720Y-67757965D01*
X121898912Y-68713773D01*
X121558000Y-68713773D01*
X121558000Y-68475744D01*
X121719307Y-68534168D01*
X122675115Y-67578360D01*
X123034325Y-67578360D01*
X123990133Y-68534168D01*
X124254534Y-68438404D01*
X124395424Y-68148789D01*
X124477104Y-67837252D01*
X124488909Y-67640955D01*
X127713002Y-67640955D01*
X127756759Y-67960035D01*
X127861925Y-68264448D01*
X127954906Y-68438404D01*
X128219307Y-68534168D01*
X129175115Y-67578360D01*
X128219307Y-66622552D01*
X127954906Y-66718316D01*
X127814016Y-67007931D01*
X127732336Y-67319468D01*
X127713002Y-67640955D01*
X124488909Y-67640955D01*
X124496438Y-67515765D01*
X124452681Y-67196685D01*
X124347515Y-66892272D01*
X124254534Y-66718316D01*
X123990133Y-66622552D01*
X123034325Y-67578360D01*
X122675115Y-67578360D01*
X121719307Y-66622552D01*
X121558000Y-66680976D01*
X121558000Y-66442947D01*
X121898912Y-66442947D01*
X122854720Y-67398755D01*
X123810528Y-66442947D01*
X123714764Y-66178546D01*
X123425149Y-66037656D01*
X123113612Y-65955976D01*
X122792125Y-65936642D01*
X122473045Y-65980399D01*
X122168632Y-66085565D01*
X121994676Y-66178546D01*
X121898912Y-66442947D01*
X121558000Y-66442947D01*
X121558000Y-63676732D01*
X121590129Y-63754298D01*
X121746296Y-63988020D01*
X121945060Y-64186784D01*
X122178782Y-64342951D01*
X122438479Y-64450522D01*
X122714173Y-64505360D01*
X122995267Y-64505360D01*
X123270961Y-64450522D01*
X123530658Y-64342951D01*
X123764380Y-64186784D01*
X123963144Y-63988020D01*
X124119311Y-63754298D01*
X124170648Y-63630360D01*
X128038792Y-63630360D01*
X128090129Y-63754298D01*
G36*
X126742000Y-60253000D02*
G01*
X126762000Y-60253000D01*
X126762000Y-60507000D01*
X126742000Y-60507000D01*
X126742000Y-60527000D01*
X126488000Y-60527000D01*
X126488000Y-60507000D01*
X126468000Y-60507000D01*
X126468000Y-60253000D01*
X126488000Y-60253000D01*
X126488000Y-60233000D01*
X126742000Y-60233000D01*
X126742000Y-60253000D01*
G37*
X126742000Y-60253000D02*
X126762000Y-60253000D01*
X126762000Y-60507000D01*
X126742000Y-60507000D01*
X126742000Y-60527000D01*
X126488000Y-60527000D01*
X126488000Y-60507000D01*
X126468000Y-60507000D01*
X126468000Y-60253000D01*
X126488000Y-60253000D01*
X126488000Y-60233000D01*
X126742000Y-60233000D01*
X126742000Y-60253000D01*
G36*
X132413271Y-57237824D02*
G01*
X132496167Y-57338833D01*
X132597176Y-57421729D01*
X132712416Y-57483327D01*
X132837459Y-57521258D01*
X132967500Y-57534066D01*
X133542500Y-57534066D01*
X133672541Y-57521258D01*
X133797584Y-57483327D01*
X133814000Y-57474552D01*
X133814000Y-57746855D01*
X132676856Y-58884000D01*
X131952794Y-58884000D01*
X132052275Y-58742882D01*
X132145272Y-58533337D01*
X132153964Y-58471810D01*
X132028163Y-58293000D01*
X130937000Y-58293000D01*
X130937000Y-58313000D01*
X130683000Y-58313000D01*
X130683000Y-58293000D01*
X129591837Y-58293000D01*
X129466036Y-58471810D01*
X129474728Y-58533337D01*
X129567725Y-58742882D01*
X129699816Y-58930258D01*
X129750231Y-58978214D01*
X129701211Y-59069923D01*
X129646775Y-59249375D01*
X129628394Y-59436000D01*
X129646775Y-59622625D01*
X129701211Y-59802077D01*
X129747507Y-59888691D01*
X129703245Y-59942624D01*
X129663595Y-60016804D01*
X129639178Y-60097293D01*
X129633593Y-60154000D01*
X128954646Y-60154000D01*
X127048525Y-58247880D01*
X127242682Y-58286500D01*
X127504078Y-58286500D01*
X127760452Y-58235504D01*
X128001950Y-58135472D01*
X128219293Y-57990248D01*
X128404128Y-57805413D01*
X128549352Y-57588070D01*
X128649384Y-57346572D01*
X128667201Y-57257000D01*
X129851980Y-57257000D01*
X129699816Y-57401742D01*
X129567725Y-57589118D01*
X129474728Y-57798663D01*
X129466036Y-57860190D01*
X129591837Y-58039000D01*
X130683000Y-58039000D01*
X130683000Y-58019000D01*
X130937000Y-58019000D01*
X130937000Y-58039000D01*
X132028163Y-58039000D01*
X132153964Y-57860190D01*
X132145272Y-57798663D01*
X132052275Y-57589118D01*
X131990009Y-57500792D01*
X132047584Y-57483327D01*
X132162824Y-57421729D01*
X132263833Y-57338833D01*
X132346729Y-57237824D01*
X132380000Y-57175579D01*
X132413271Y-57237824D01*
G37*
X132413271Y-57237824D02*
X132496167Y-57338833D01*
X132597176Y-57421729D01*
X132712416Y-57483327D01*
X132837459Y-57521258D01*
X132967500Y-57534066D01*
X133542500Y-57534066D01*
X133672541Y-57521258D01*
X133797584Y-57483327D01*
X133814000Y-57474552D01*
X133814000Y-57746855D01*
X132676856Y-58884000D01*
X131952794Y-58884000D01*
X132052275Y-58742882D01*
X132145272Y-58533337D01*
X132153964Y-58471810D01*
X132028163Y-58293000D01*
X130937000Y-58293000D01*
X130937000Y-58313000D01*
X130683000Y-58313000D01*
X130683000Y-58293000D01*
X129591837Y-58293000D01*
X129466036Y-58471810D01*
X129474728Y-58533337D01*
X129567725Y-58742882D01*
X129699816Y-58930258D01*
X129750231Y-58978214D01*
X129701211Y-59069923D01*
X129646775Y-59249375D01*
X129628394Y-59436000D01*
X129646775Y-59622625D01*
X129701211Y-59802077D01*
X129747507Y-59888691D01*
X129703245Y-59942624D01*
X129663595Y-60016804D01*
X129639178Y-60097293D01*
X129633593Y-60154000D01*
X128954646Y-60154000D01*
X127048525Y-58247880D01*
X127242682Y-58286500D01*
X127504078Y-58286500D01*
X127760452Y-58235504D01*
X128001950Y-58135472D01*
X128219293Y-57990248D01*
X128404128Y-57805413D01*
X128549352Y-57588070D01*
X128649384Y-57346572D01*
X128667201Y-57257000D01*
X129851980Y-57257000D01*
X129699816Y-57401742D01*
X129567725Y-57589118D01*
X129474728Y-57798663D01*
X129466036Y-57860190D01*
X129591837Y-58039000D01*
X130683000Y-58039000D01*
X130683000Y-58019000D01*
X130937000Y-58019000D01*
X130937000Y-58039000D01*
X132028163Y-58039000D01*
X132153964Y-57860190D01*
X132145272Y-57798663D01*
X132052275Y-57589118D01*
X131990009Y-57500792D01*
X132047584Y-57483327D01*
X132162824Y-57421729D01*
X132263833Y-57338833D01*
X132346729Y-57237824D01*
X132380000Y-57175579D01*
X132413271Y-57237824D01*
G36*
X96014828Y-48804828D02*
G01*
X95930377Y-48907731D01*
X95867625Y-49025133D01*
X95828982Y-49152521D01*
X95815934Y-49285000D01*
X95815934Y-50535000D01*
X95828982Y-50667479D01*
X95867625Y-50794867D01*
X95930377Y-50912269D01*
X96014828Y-51015172D01*
X96117731Y-51099623D01*
X96235133Y-51162375D01*
X96362521Y-51201018D01*
X96495000Y-51214066D01*
X97217354Y-51214066D01*
X97643867Y-51640579D01*
X97663500Y-51664502D01*
X97758973Y-51742854D01*
X97867898Y-51801076D01*
X97986088Y-51836928D01*
X98078207Y-51846001D01*
X98078208Y-51846001D01*
X98109000Y-51849034D01*
X98139792Y-51846001D01*
X113730205Y-51846001D01*
X113760999Y-51849034D01*
X113791793Y-51846001D01*
X113883912Y-51836928D01*
X114002102Y-51801076D01*
X114111027Y-51742854D01*
X114206500Y-51664502D01*
X114226137Y-51640574D01*
X115590241Y-50276471D01*
X115647053Y-50562085D01*
X115792315Y-50912777D01*
X116003201Y-51228391D01*
X116271609Y-51496799D01*
X116587223Y-51707685D01*
X116937915Y-51852947D01*
X117310207Y-51927000D01*
X117689793Y-51927000D01*
X118062085Y-51852947D01*
X118412777Y-51707685D01*
X118728391Y-51496799D01*
X118996799Y-51228391D01*
X119207685Y-50912777D01*
X119352947Y-50562085D01*
X119427000Y-50189793D01*
X119427000Y-49923712D01*
X119699380Y-50196092D01*
X119699380Y-50785586D01*
X119696347Y-50816380D01*
X119708453Y-50939292D01*
X119738819Y-51039394D01*
X119744306Y-51057483D01*
X119802528Y-51166408D01*
X119880880Y-51261881D01*
X119904802Y-51281513D01*
X120794866Y-52171578D01*
X120814499Y-52195501D01*
X120909972Y-52273853D01*
X121018897Y-52332075D01*
X121096694Y-52355674D01*
X121137087Y-52367927D01*
X121259999Y-52380033D01*
X121290793Y-52377000D01*
X123204287Y-52377000D01*
X126318864Y-55491578D01*
X126338497Y-55515501D01*
X126433970Y-55593853D01*
X126542895Y-55652075D01*
X126646478Y-55683496D01*
X126661085Y-55687927D01*
X126783997Y-55700033D01*
X126814791Y-55697000D01*
X126953707Y-55697000D01*
X126744810Y-55783528D01*
X126527467Y-55928752D01*
X126342632Y-56113587D01*
X126197408Y-56330930D01*
X126162446Y-56415336D01*
X126162446Y-56059500D01*
X126154202Y-55975793D01*
X126129785Y-55895304D01*
X126090135Y-55821124D01*
X126036775Y-55756105D01*
X125971756Y-55702745D01*
X125897576Y-55663095D01*
X125817087Y-55638678D01*
X125733380Y-55630434D01*
X123933380Y-55630434D01*
X123849673Y-55638678D01*
X123769184Y-55663095D01*
X123695004Y-55702745D01*
X123629985Y-55756105D01*
X123576625Y-55821124D01*
X123536975Y-55895304D01*
X123512558Y-55975793D01*
X123504314Y-56059500D01*
X123504314Y-57369001D01*
X123306404Y-57292761D01*
X123080507Y-57253669D01*
X122897000Y-57413402D01*
X122897000Y-58293000D01*
X123988163Y-58293000D01*
X123991283Y-58288566D01*
X125527921Y-58288566D01*
X126509355Y-59270000D01*
X126487998Y-59270000D01*
X126487998Y-59428748D01*
X126329250Y-59270000D01*
X126090000Y-59266928D01*
X125965518Y-59279188D01*
X125845820Y-59315498D01*
X125735506Y-59374463D01*
X125638815Y-59453815D01*
X125559463Y-59550506D01*
X125534260Y-59597656D01*
X125522824Y-59588271D01*
X125407584Y-59526673D01*
X125282541Y-59488742D01*
X125152500Y-59475934D01*
X124706223Y-59475934D01*
X124565955Y-59335666D01*
X124549448Y-59315552D01*
X124469202Y-59249696D01*
X124377650Y-59200761D01*
X124278310Y-59170626D01*
X124200881Y-59163000D01*
X124175000Y-59160451D01*
X124149119Y-59163000D01*
X123895170Y-59163000D01*
X124012275Y-58996882D01*
X124105272Y-58787337D01*
X124113964Y-58725810D01*
X123988163Y-58547000D01*
X122897000Y-58547000D01*
X122897000Y-58567000D01*
X122643000Y-58567000D01*
X122643000Y-58547000D01*
X122623000Y-58547000D01*
X122623000Y-58293000D01*
X122643000Y-58293000D01*
X122643000Y-57413402D01*
X122459493Y-57253669D01*
X122247000Y-57290441D01*
X122247000Y-54094770D01*
X122320181Y-54045872D01*
X122435372Y-53930681D01*
X122525877Y-53795231D01*
X122588218Y-53644727D01*
X122620000Y-53484952D01*
X122620000Y-53322048D01*
X122588218Y-53162273D01*
X122525877Y-53011769D01*
X122435372Y-52876319D01*
X122320181Y-52761128D01*
X122184731Y-52670623D01*
X122034227Y-52608282D01*
X121874452Y-52576500D01*
X121711548Y-52576500D01*
X121551773Y-52608282D01*
X121401269Y-52670623D01*
X121265819Y-52761128D01*
X121242580Y-52784367D01*
X121240384Y-52762067D01*
X121235408Y-52745663D01*
X121210249Y-52662727D01*
X121161314Y-52571175D01*
X121095458Y-52490929D01*
X121075344Y-52474422D01*
X120921578Y-52320656D01*
X120905071Y-52300542D01*
X120824825Y-52234686D01*
X120733273Y-52185751D01*
X120633933Y-52155616D01*
X120556504Y-52147990D01*
X120530623Y-52145441D01*
X120504742Y-52147990D01*
X91102470Y-52147990D01*
X91105491Y-52145511D01*
X91125128Y-52121583D01*
X91595145Y-51651566D01*
X92305500Y-51651566D01*
X92437979Y-51638518D01*
X92565367Y-51599875D01*
X92682769Y-51537123D01*
X92785672Y-51452672D01*
X92870123Y-51349769D01*
X92932875Y-51232367D01*
X92971518Y-51104979D01*
X92984566Y-50972500D01*
X92984566Y-50947836D01*
X93039828Y-51015172D01*
X93142731Y-51099623D01*
X93260133Y-51162375D01*
X93387521Y-51201018D01*
X93520000Y-51214066D01*
X94445000Y-51214066D01*
X94577479Y-51201018D01*
X94704867Y-51162375D01*
X94822269Y-51099623D01*
X94925172Y-51015172D01*
X95009623Y-50912269D01*
X95072375Y-50794867D01*
X95111018Y-50667479D01*
X95124066Y-50535000D01*
X95124066Y-49285000D01*
X95111018Y-49152521D01*
X95072375Y-49025133D01*
X95009623Y-48907731D01*
X94925172Y-48804828D01*
X94918668Y-48799490D01*
X96021332Y-48799490D01*
X96014828Y-48804828D01*
G37*
X96014828Y-48804828D02*
X95930377Y-48907731D01*
X95867625Y-49025133D01*
X95828982Y-49152521D01*
X95815934Y-49285000D01*
X95815934Y-50535000D01*
X95828982Y-50667479D01*
X95867625Y-50794867D01*
X95930377Y-50912269D01*
X96014828Y-51015172D01*
X96117731Y-51099623D01*
X96235133Y-51162375D01*
X96362521Y-51201018D01*
X96495000Y-51214066D01*
X97217354Y-51214066D01*
X97643867Y-51640579D01*
X97663500Y-51664502D01*
X97758973Y-51742854D01*
X97867898Y-51801076D01*
X97986088Y-51836928D01*
X98078207Y-51846001D01*
X98078208Y-51846001D01*
X98109000Y-51849034D01*
X98139792Y-51846001D01*
X113730205Y-51846001D01*
X113760999Y-51849034D01*
X113791793Y-51846001D01*
X113883912Y-51836928D01*
X114002102Y-51801076D01*
X114111027Y-51742854D01*
X114206500Y-51664502D01*
X114226137Y-51640574D01*
X115590241Y-50276471D01*
X115647053Y-50562085D01*
X115792315Y-50912777D01*
X116003201Y-51228391D01*
X116271609Y-51496799D01*
X116587223Y-51707685D01*
X116937915Y-51852947D01*
X117310207Y-51927000D01*
X117689793Y-51927000D01*
X118062085Y-51852947D01*
X118412777Y-51707685D01*
X118728391Y-51496799D01*
X118996799Y-51228391D01*
X119207685Y-50912777D01*
X119352947Y-50562085D01*
X119427000Y-50189793D01*
X119427000Y-49923712D01*
X119699380Y-50196092D01*
X119699380Y-50785586D01*
X119696347Y-50816380D01*
X119708453Y-50939292D01*
X119738819Y-51039394D01*
X119744306Y-51057483D01*
X119802528Y-51166408D01*
X119880880Y-51261881D01*
X119904802Y-51281513D01*
X120794866Y-52171578D01*
X120814499Y-52195501D01*
X120909972Y-52273853D01*
X121018897Y-52332075D01*
X121096694Y-52355674D01*
X121137087Y-52367927D01*
X121259999Y-52380033D01*
X121290793Y-52377000D01*
X123204287Y-52377000D01*
X126318864Y-55491578D01*
X126338497Y-55515501D01*
X126433970Y-55593853D01*
X126542895Y-55652075D01*
X126646478Y-55683496D01*
X126661085Y-55687927D01*
X126783997Y-55700033D01*
X126814791Y-55697000D01*
X126953707Y-55697000D01*
X126744810Y-55783528D01*
X126527467Y-55928752D01*
X126342632Y-56113587D01*
X126197408Y-56330930D01*
X126162446Y-56415336D01*
X126162446Y-56059500D01*
X126154202Y-55975793D01*
X126129785Y-55895304D01*
X126090135Y-55821124D01*
X126036775Y-55756105D01*
X125971756Y-55702745D01*
X125897576Y-55663095D01*
X125817087Y-55638678D01*
X125733380Y-55630434D01*
X123933380Y-55630434D01*
X123849673Y-55638678D01*
X123769184Y-55663095D01*
X123695004Y-55702745D01*
X123629985Y-55756105D01*
X123576625Y-55821124D01*
X123536975Y-55895304D01*
X123512558Y-55975793D01*
X123504314Y-56059500D01*
X123504314Y-57369001D01*
X123306404Y-57292761D01*
X123080507Y-57253669D01*
X122897000Y-57413402D01*
X122897000Y-58293000D01*
X123988163Y-58293000D01*
X123991283Y-58288566D01*
X125527921Y-58288566D01*
X126509355Y-59270000D01*
X126487998Y-59270000D01*
X126487998Y-59428748D01*
X126329250Y-59270000D01*
X126090000Y-59266928D01*
X125965518Y-59279188D01*
X125845820Y-59315498D01*
X125735506Y-59374463D01*
X125638815Y-59453815D01*
X125559463Y-59550506D01*
X125534260Y-59597656D01*
X125522824Y-59588271D01*
X125407584Y-59526673D01*
X125282541Y-59488742D01*
X125152500Y-59475934D01*
X124706223Y-59475934D01*
X124565955Y-59335666D01*
X124549448Y-59315552D01*
X124469202Y-59249696D01*
X124377650Y-59200761D01*
X124278310Y-59170626D01*
X124200881Y-59163000D01*
X124175000Y-59160451D01*
X124149119Y-59163000D01*
X123895170Y-59163000D01*
X124012275Y-58996882D01*
X124105272Y-58787337D01*
X124113964Y-58725810D01*
X123988163Y-58547000D01*
X122897000Y-58547000D01*
X122897000Y-58567000D01*
X122643000Y-58567000D01*
X122643000Y-58547000D01*
X122623000Y-58547000D01*
X122623000Y-58293000D01*
X122643000Y-58293000D01*
X122643000Y-57413402D01*
X122459493Y-57253669D01*
X122247000Y-57290441D01*
X122247000Y-54094770D01*
X122320181Y-54045872D01*
X122435372Y-53930681D01*
X122525877Y-53795231D01*
X122588218Y-53644727D01*
X122620000Y-53484952D01*
X122620000Y-53322048D01*
X122588218Y-53162273D01*
X122525877Y-53011769D01*
X122435372Y-52876319D01*
X122320181Y-52761128D01*
X122184731Y-52670623D01*
X122034227Y-52608282D01*
X121874452Y-52576500D01*
X121711548Y-52576500D01*
X121551773Y-52608282D01*
X121401269Y-52670623D01*
X121265819Y-52761128D01*
X121242580Y-52784367D01*
X121240384Y-52762067D01*
X121235408Y-52745663D01*
X121210249Y-52662727D01*
X121161314Y-52571175D01*
X121095458Y-52490929D01*
X121075344Y-52474422D01*
X120921578Y-52320656D01*
X120905071Y-52300542D01*
X120824825Y-52234686D01*
X120733273Y-52185751D01*
X120633933Y-52155616D01*
X120556504Y-52147990D01*
X120530623Y-52145441D01*
X120504742Y-52147990D01*
X91102470Y-52147990D01*
X91105491Y-52145511D01*
X91125128Y-52121583D01*
X91595145Y-51651566D01*
X92305500Y-51651566D01*
X92437979Y-51638518D01*
X92565367Y-51599875D01*
X92682769Y-51537123D01*
X92785672Y-51452672D01*
X92870123Y-51349769D01*
X92932875Y-51232367D01*
X92971518Y-51104979D01*
X92984566Y-50972500D01*
X92984566Y-50947836D01*
X93039828Y-51015172D01*
X93142731Y-51099623D01*
X93260133Y-51162375D01*
X93387521Y-51201018D01*
X93520000Y-51214066D01*
X94445000Y-51214066D01*
X94577479Y-51201018D01*
X94704867Y-51162375D01*
X94822269Y-51099623D01*
X94925172Y-51015172D01*
X95009623Y-50912269D01*
X95072375Y-50794867D01*
X95111018Y-50667479D01*
X95124066Y-50535000D01*
X95124066Y-49285000D01*
X95111018Y-49152521D01*
X95072375Y-49025133D01*
X95009623Y-48907731D01*
X94925172Y-48804828D01*
X94918668Y-48799490D01*
X96021332Y-48799490D01*
X96014828Y-48804828D01*
G36*
X130238204Y-52679805D02*
G01*
X130318693Y-52704222D01*
X130402400Y-52712466D01*
X130432380Y-52712466D01*
X130390498Y-52790820D01*
X130354188Y-52910518D01*
X130341928Y-53035000D01*
X130345000Y-53224250D01*
X130503750Y-53383000D01*
X131378000Y-53383000D01*
X131378000Y-53363000D01*
X131632000Y-53363000D01*
X131632000Y-53383000D01*
X131652000Y-53383000D01*
X131652000Y-53637000D01*
X131632000Y-53637000D01*
X131632000Y-53657000D01*
X131378000Y-53657000D01*
X131378000Y-53637000D01*
X130503750Y-53637000D01*
X130345000Y-53795750D01*
X130341928Y-53985000D01*
X130354188Y-54109482D01*
X130390498Y-54229180D01*
X130449463Y-54339494D01*
X130528815Y-54436185D01*
X130537119Y-54443000D01*
X127043710Y-54443000D01*
X125298939Y-52698229D01*
X125318693Y-52704222D01*
X125402400Y-52712466D01*
X126002400Y-52712466D01*
X126086107Y-52704222D01*
X126166596Y-52679805D01*
X126202400Y-52660667D01*
X126238204Y-52679805D01*
X126318693Y-52704222D01*
X126402400Y-52712466D01*
X127002400Y-52712466D01*
X127086107Y-52704222D01*
X127166596Y-52679805D01*
X127202400Y-52660667D01*
X127238204Y-52679805D01*
X127318693Y-52704222D01*
X127402400Y-52712466D01*
X128002400Y-52712466D01*
X128086107Y-52704222D01*
X128166596Y-52679805D01*
X128202400Y-52660667D01*
X128238204Y-52679805D01*
X128318693Y-52704222D01*
X128402400Y-52712466D01*
X129002400Y-52712466D01*
X129086107Y-52704222D01*
X129166596Y-52679805D01*
X129202400Y-52660667D01*
X129238204Y-52679805D01*
X129318693Y-52704222D01*
X129402400Y-52712466D01*
X130002400Y-52712466D01*
X130086107Y-52704222D01*
X130166596Y-52679805D01*
X130202400Y-52660667D01*
X130238204Y-52679805D01*
G37*
X130238204Y-52679805D02*
X130318693Y-52704222D01*
X130402400Y-52712466D01*
X130432380Y-52712466D01*
X130390498Y-52790820D01*
X130354188Y-52910518D01*
X130341928Y-53035000D01*
X130345000Y-53224250D01*
X130503750Y-53383000D01*
X131378000Y-53383000D01*
X131378000Y-53363000D01*
X131632000Y-53363000D01*
X131632000Y-53383000D01*
X131652000Y-53383000D01*
X131652000Y-53637000D01*
X131632000Y-53637000D01*
X131632000Y-53657000D01*
X131378000Y-53657000D01*
X131378000Y-53637000D01*
X130503750Y-53637000D01*
X130345000Y-53795750D01*
X130341928Y-53985000D01*
X130354188Y-54109482D01*
X130390498Y-54229180D01*
X130449463Y-54339494D01*
X130528815Y-54436185D01*
X130537119Y-54443000D01*
X127043710Y-54443000D01*
X125298939Y-52698229D01*
X125318693Y-52704222D01*
X125402400Y-52712466D01*
X126002400Y-52712466D01*
X126086107Y-52704222D01*
X126166596Y-52679805D01*
X126202400Y-52660667D01*
X126238204Y-52679805D01*
X126318693Y-52704222D01*
X126402400Y-52712466D01*
X127002400Y-52712466D01*
X127086107Y-52704222D01*
X127166596Y-52679805D01*
X127202400Y-52660667D01*
X127238204Y-52679805D01*
X127318693Y-52704222D01*
X127402400Y-52712466D01*
X128002400Y-52712466D01*
X128086107Y-52704222D01*
X128166596Y-52679805D01*
X128202400Y-52660667D01*
X128238204Y-52679805D01*
X128318693Y-52704222D01*
X128402400Y-52712466D01*
X129002400Y-52712466D01*
X129086107Y-52704222D01*
X129166596Y-52679805D01*
X129202400Y-52660667D01*
X129238204Y-52679805D01*
X129318693Y-52704222D01*
X129402400Y-52712466D01*
X130002400Y-52712466D01*
X130086107Y-52704222D01*
X130166596Y-52679805D01*
X130202400Y-52660667D01*
X130238204Y-52679805D01*
G36*
X53163427Y-46569862D02*
G01*
X53139499Y-46589499D01*
X53098278Y-46639728D01*
X53042416Y-46656673D01*
X52927176Y-46718271D01*
X52826167Y-46801167D01*
X52743271Y-46902176D01*
X52710000Y-46964421D01*
X52676729Y-46902176D01*
X52593833Y-46801167D01*
X52492824Y-46718271D01*
X52377584Y-46656673D01*
X52252541Y-46618742D01*
X52122500Y-46605934D01*
X51547500Y-46605934D01*
X51417459Y-46618742D01*
X51292416Y-46656673D01*
X51177176Y-46718271D01*
X51076167Y-46801167D01*
X51009008Y-46883000D01*
X50925350Y-46883000D01*
X50859833Y-46803167D01*
X50758824Y-46720271D01*
X50643584Y-46658673D01*
X50518541Y-46620742D01*
X50388500Y-46607934D01*
X49813500Y-46607934D01*
X49683459Y-46620742D01*
X49558416Y-46658673D01*
X49443176Y-46720271D01*
X49431740Y-46729656D01*
X49406537Y-46682506D01*
X49327185Y-46585815D01*
X49230494Y-46506463D01*
X49120180Y-46447498D01*
X49000482Y-46411188D01*
X48876000Y-46398928D01*
X48636750Y-46402000D01*
X48478000Y-46560750D01*
X48478000Y-47385000D01*
X48498000Y-47385000D01*
X48498000Y-47639000D01*
X48478000Y-47639000D01*
X48478000Y-47659000D01*
X48224000Y-47659000D01*
X48224000Y-47639000D01*
X47349750Y-47639000D01*
X47191000Y-47797750D01*
X47187928Y-47987000D01*
X47195354Y-48062405D01*
X47100000Y-48061928D01*
X46975518Y-48074188D01*
X46855820Y-48110498D01*
X46745506Y-48169463D01*
X46648815Y-48248815D01*
X46569463Y-48345506D01*
X46557226Y-48368399D01*
X46551399Y-48370167D01*
X46529443Y-48381903D01*
X46510197Y-48397697D01*
X46494403Y-48416943D01*
X46482667Y-48438899D01*
X46475440Y-48462724D01*
X46473000Y-48487500D01*
X46473000Y-48587580D01*
X46461928Y-48700000D01*
X46465000Y-49714250D01*
X46473000Y-49722250D01*
X46473000Y-50277750D01*
X46465000Y-50285750D01*
X46461928Y-51300000D01*
X46473000Y-51412420D01*
X46473000Y-51792500D01*
X46475294Y-51816530D01*
X46482378Y-51840397D01*
X46493983Y-51862424D01*
X46509661Y-51881763D01*
X46528812Y-51897672D01*
X46550697Y-51909540D01*
X46574478Y-51916909D01*
X46599240Y-51919498D01*
X46961862Y-51921669D01*
X46975518Y-51925812D01*
X47100000Y-51938072D01*
X47714250Y-51935000D01*
X47723023Y-51926227D01*
X48280314Y-51929564D01*
X48285750Y-51935000D01*
X48900000Y-51938072D01*
X48945915Y-51933550D01*
X49104240Y-51934498D01*
X49129776Y-51932060D01*
X49153601Y-51924833D01*
X49175557Y-51913097D01*
X49194803Y-51897303D01*
X49210597Y-51878057D01*
X49222333Y-51856101D01*
X49225364Y-51846107D01*
X49254494Y-51830537D01*
X49351185Y-51751185D01*
X49430537Y-51654494D01*
X49489502Y-51544180D01*
X49525812Y-51424482D01*
X49538072Y-51300000D01*
X49537984Y-51270799D01*
X49597131Y-51342870D01*
X49799193Y-51508698D01*
X50029723Y-51631919D01*
X50279864Y-51707799D01*
X50540000Y-51733420D01*
X50800137Y-51707799D01*
X51050278Y-51631919D01*
X51280808Y-51508698D01*
X51482870Y-51342870D01*
X51648698Y-51140808D01*
X51771919Y-50910278D01*
X51810000Y-50784743D01*
X51848081Y-50910278D01*
X51971302Y-51140808D01*
X52137131Y-51342870D01*
X52339193Y-51508698D01*
X52569224Y-51631652D01*
X52590761Y-51702649D01*
X52639696Y-51794202D01*
X52705552Y-51874448D01*
X52725666Y-51890955D01*
X53382710Y-52548000D01*
X39452000Y-52548000D01*
X39452000Y-49810207D01*
X40573900Y-49810207D01*
X40573900Y-50189793D01*
X40647953Y-50562085D01*
X40793215Y-50912777D01*
X41004101Y-51228391D01*
X41272509Y-51496799D01*
X41588123Y-51707685D01*
X41938815Y-51852947D01*
X42311107Y-51927000D01*
X42690693Y-51927000D01*
X43062985Y-51852947D01*
X43413677Y-51707685D01*
X43729291Y-51496799D01*
X43997699Y-51228391D01*
X44208585Y-50912777D01*
X44353847Y-50562085D01*
X44427900Y-50189793D01*
X44427900Y-49810207D01*
X44353847Y-49437915D01*
X44208585Y-49087223D01*
X43997699Y-48771609D01*
X43729291Y-48503201D01*
X43413677Y-48292315D01*
X43062985Y-48147053D01*
X42690693Y-48073000D01*
X42311107Y-48073000D01*
X41938815Y-48147053D01*
X41588123Y-48292315D01*
X41272509Y-48503201D01*
X41004101Y-48771609D01*
X40793215Y-49087223D01*
X40647953Y-49437915D01*
X40573900Y-49810207D01*
X39452000Y-49810207D01*
X39452000Y-47037000D01*
X47187928Y-47037000D01*
X47191000Y-47226250D01*
X47349750Y-47385000D01*
X48224000Y-47385000D01*
X48224000Y-46560750D01*
X48065250Y-46402000D01*
X47826000Y-46398928D01*
X47701518Y-46411188D01*
X47581820Y-46447498D01*
X47471506Y-46506463D01*
X47374815Y-46585815D01*
X47295463Y-46682506D01*
X47236498Y-46792820D01*
X47200188Y-46912518D01*
X47187928Y-47037000D01*
X39452000Y-47037000D01*
X39452000Y-44832000D01*
X54901289Y-44832000D01*
X53163427Y-46569862D01*
G37*
X53163427Y-46569862D02*
X53139499Y-46589499D01*
X53098278Y-46639728D01*
X53042416Y-46656673D01*
X52927176Y-46718271D01*
X52826167Y-46801167D01*
X52743271Y-46902176D01*
X52710000Y-46964421D01*
X52676729Y-46902176D01*
X52593833Y-46801167D01*
X52492824Y-46718271D01*
X52377584Y-46656673D01*
X52252541Y-46618742D01*
X52122500Y-46605934D01*
X51547500Y-46605934D01*
X51417459Y-46618742D01*
X51292416Y-46656673D01*
X51177176Y-46718271D01*
X51076167Y-46801167D01*
X51009008Y-46883000D01*
X50925350Y-46883000D01*
X50859833Y-46803167D01*
X50758824Y-46720271D01*
X50643584Y-46658673D01*
X50518541Y-46620742D01*
X50388500Y-46607934D01*
X49813500Y-46607934D01*
X49683459Y-46620742D01*
X49558416Y-46658673D01*
X49443176Y-46720271D01*
X49431740Y-46729656D01*
X49406537Y-46682506D01*
X49327185Y-46585815D01*
X49230494Y-46506463D01*
X49120180Y-46447498D01*
X49000482Y-46411188D01*
X48876000Y-46398928D01*
X48636750Y-46402000D01*
X48478000Y-46560750D01*
X48478000Y-47385000D01*
X48498000Y-47385000D01*
X48498000Y-47639000D01*
X48478000Y-47639000D01*
X48478000Y-47659000D01*
X48224000Y-47659000D01*
X48224000Y-47639000D01*
X47349750Y-47639000D01*
X47191000Y-47797750D01*
X47187928Y-47987000D01*
X47195354Y-48062405D01*
X47100000Y-48061928D01*
X46975518Y-48074188D01*
X46855820Y-48110498D01*
X46745506Y-48169463D01*
X46648815Y-48248815D01*
X46569463Y-48345506D01*
X46557226Y-48368399D01*
X46551399Y-48370167D01*
X46529443Y-48381903D01*
X46510197Y-48397697D01*
X46494403Y-48416943D01*
X46482667Y-48438899D01*
X46475440Y-48462724D01*
X46473000Y-48487500D01*
X46473000Y-48587580D01*
X46461928Y-48700000D01*
X46465000Y-49714250D01*
X46473000Y-49722250D01*
X46473000Y-50277750D01*
X46465000Y-50285750D01*
X46461928Y-51300000D01*
X46473000Y-51412420D01*
X46473000Y-51792500D01*
X46475294Y-51816530D01*
X46482378Y-51840397D01*
X46493983Y-51862424D01*
X46509661Y-51881763D01*
X46528812Y-51897672D01*
X46550697Y-51909540D01*
X46574478Y-51916909D01*
X46599240Y-51919498D01*
X46961862Y-51921669D01*
X46975518Y-51925812D01*
X47100000Y-51938072D01*
X47714250Y-51935000D01*
X47723023Y-51926227D01*
X48280314Y-51929564D01*
X48285750Y-51935000D01*
X48900000Y-51938072D01*
X48945915Y-51933550D01*
X49104240Y-51934498D01*
X49129776Y-51932060D01*
X49153601Y-51924833D01*
X49175557Y-51913097D01*
X49194803Y-51897303D01*
X49210597Y-51878057D01*
X49222333Y-51856101D01*
X49225364Y-51846107D01*
X49254494Y-51830537D01*
X49351185Y-51751185D01*
X49430537Y-51654494D01*
X49489502Y-51544180D01*
X49525812Y-51424482D01*
X49538072Y-51300000D01*
X49537984Y-51270799D01*
X49597131Y-51342870D01*
X49799193Y-51508698D01*
X50029723Y-51631919D01*
X50279864Y-51707799D01*
X50540000Y-51733420D01*
X50800137Y-51707799D01*
X51050278Y-51631919D01*
X51280808Y-51508698D01*
X51482870Y-51342870D01*
X51648698Y-51140808D01*
X51771919Y-50910278D01*
X51810000Y-50784743D01*
X51848081Y-50910278D01*
X51971302Y-51140808D01*
X52137131Y-51342870D01*
X52339193Y-51508698D01*
X52569224Y-51631652D01*
X52590761Y-51702649D01*
X52639696Y-51794202D01*
X52705552Y-51874448D01*
X52725666Y-51890955D01*
X53382710Y-52548000D01*
X39452000Y-52548000D01*
X39452000Y-49810207D01*
X40573900Y-49810207D01*
X40573900Y-50189793D01*
X40647953Y-50562085D01*
X40793215Y-50912777D01*
X41004101Y-51228391D01*
X41272509Y-51496799D01*
X41588123Y-51707685D01*
X41938815Y-51852947D01*
X42311107Y-51927000D01*
X42690693Y-51927000D01*
X43062985Y-51852947D01*
X43413677Y-51707685D01*
X43729291Y-51496799D01*
X43997699Y-51228391D01*
X44208585Y-50912777D01*
X44353847Y-50562085D01*
X44427900Y-50189793D01*
X44427900Y-49810207D01*
X44353847Y-49437915D01*
X44208585Y-49087223D01*
X43997699Y-48771609D01*
X43729291Y-48503201D01*
X43413677Y-48292315D01*
X43062985Y-48147053D01*
X42690693Y-48073000D01*
X42311107Y-48073000D01*
X41938815Y-48147053D01*
X41588123Y-48292315D01*
X41272509Y-48503201D01*
X41004101Y-48771609D01*
X40793215Y-49087223D01*
X40647953Y-49437915D01*
X40573900Y-49810207D01*
X39452000Y-49810207D01*
X39452000Y-47037000D01*
X47187928Y-47037000D01*
X47191000Y-47226250D01*
X47349750Y-47385000D01*
X48224000Y-47385000D01*
X48224000Y-46560750D01*
X48065250Y-46402000D01*
X47826000Y-46398928D01*
X47701518Y-46411188D01*
X47581820Y-46447498D01*
X47471506Y-46506463D01*
X47374815Y-46585815D01*
X47295463Y-46682506D01*
X47236498Y-46792820D01*
X47200188Y-46912518D01*
X47187928Y-47037000D01*
X39452000Y-47037000D01*
X39452000Y-44832000D01*
X54901289Y-44832000D01*
X53163427Y-46569862D01*
G36*
X59195662Y-47450539D02*
G01*
X59175553Y-47467042D01*
X59133795Y-47517925D01*
X59109696Y-47547289D01*
X59060761Y-47638841D01*
X59030626Y-47738181D01*
X59020451Y-47841490D01*
X59023000Y-47867371D01*
X59023000Y-48333156D01*
X58907204Y-48253138D01*
X58630087Y-48133245D01*
X58524740Y-48108964D01*
X58287000Y-48229622D01*
X58287000Y-49873000D01*
X58307000Y-49873000D01*
X58307000Y-50127000D01*
X58287000Y-50127000D01*
X58287000Y-51770378D01*
X58524740Y-51891036D01*
X58630087Y-51866755D01*
X58907204Y-51746862D01*
X59155606Y-51575210D01*
X59365748Y-51358396D01*
X59529554Y-51104751D01*
X59547631Y-51059105D01*
X59591302Y-51140808D01*
X59757131Y-51342870D01*
X59959193Y-51508698D01*
X60189723Y-51631919D01*
X60439864Y-51707799D01*
X60700000Y-51733420D01*
X60960137Y-51707799D01*
X61210278Y-51631919D01*
X61440808Y-51508698D01*
X61642870Y-51342870D01*
X61808698Y-51140808D01*
X61931919Y-50910278D01*
X61970000Y-50784743D01*
X62008081Y-50910278D01*
X62131302Y-51140808D01*
X62297131Y-51342870D01*
X62499193Y-51508698D01*
X62729723Y-51631919D01*
X62979864Y-51707799D01*
X63240000Y-51733420D01*
X63500137Y-51707799D01*
X63750278Y-51631919D01*
X63980808Y-51508698D01*
X64182870Y-51342870D01*
X64348698Y-51140808D01*
X64471919Y-50910278D01*
X64510000Y-50784743D01*
X64548081Y-50910278D01*
X64671302Y-51140808D01*
X64837131Y-51342870D01*
X65039193Y-51508698D01*
X65269723Y-51631919D01*
X65519864Y-51707799D01*
X65780000Y-51733420D01*
X66040137Y-51707799D01*
X66290278Y-51631919D01*
X66520808Y-51508698D01*
X66722870Y-51342870D01*
X66888698Y-51140808D01*
X67011919Y-50910278D01*
X67050000Y-50784743D01*
X67088081Y-50910278D01*
X67211302Y-51140808D01*
X67377131Y-51342870D01*
X67579193Y-51508698D01*
X67809723Y-51631919D01*
X68059864Y-51707799D01*
X68320000Y-51733420D01*
X68580137Y-51707799D01*
X68830278Y-51631919D01*
X69060808Y-51508698D01*
X69262870Y-51342870D01*
X69428698Y-51140808D01*
X69551919Y-50910278D01*
X69590000Y-50784743D01*
X69628081Y-50910278D01*
X69751302Y-51140808D01*
X69917131Y-51342870D01*
X70119193Y-51508698D01*
X70349723Y-51631919D01*
X70599864Y-51707799D01*
X70860000Y-51733420D01*
X71120137Y-51707799D01*
X71370278Y-51631919D01*
X71600808Y-51508698D01*
X71802870Y-51342870D01*
X71968698Y-51140808D01*
X72091919Y-50910278D01*
X72130000Y-50784743D01*
X72168081Y-50910278D01*
X72291302Y-51140808D01*
X72457131Y-51342870D01*
X72659193Y-51508698D01*
X72889723Y-51631919D01*
X73139864Y-51707799D01*
X73400000Y-51733420D01*
X73660137Y-51707799D01*
X73910278Y-51631919D01*
X74140808Y-51508698D01*
X74342870Y-51342870D01*
X74508698Y-51140808D01*
X74631919Y-50910278D01*
X74670000Y-50784743D01*
X74708081Y-50910278D01*
X74831302Y-51140808D01*
X74997131Y-51342870D01*
X75199193Y-51508698D01*
X75429723Y-51631919D01*
X75679864Y-51707799D01*
X75940000Y-51733420D01*
X76200137Y-51707799D01*
X76450278Y-51631919D01*
X76680808Y-51508698D01*
X76882870Y-51342870D01*
X77048698Y-51140808D01*
X77171919Y-50910278D01*
X77210000Y-50784743D01*
X77248081Y-50910278D01*
X77371302Y-51140808D01*
X77537131Y-51342870D01*
X77739193Y-51508698D01*
X77969723Y-51631919D01*
X78219864Y-51707799D01*
X78480000Y-51733420D01*
X78740137Y-51707799D01*
X78990278Y-51631919D01*
X79220808Y-51508698D01*
X79422870Y-51342870D01*
X79588698Y-51140808D01*
X79711919Y-50910278D01*
X79750000Y-50784743D01*
X79788081Y-50910278D01*
X79911302Y-51140808D01*
X80077131Y-51342870D01*
X80279193Y-51508698D01*
X80509723Y-51631919D01*
X80759864Y-51707799D01*
X81020000Y-51733420D01*
X81280137Y-51707799D01*
X81530278Y-51631919D01*
X81760808Y-51508698D01*
X81962870Y-51342870D01*
X82128698Y-51140808D01*
X82251919Y-50910278D01*
X82290000Y-50784743D01*
X82328081Y-50910278D01*
X82451302Y-51140808D01*
X82617131Y-51342870D01*
X82819193Y-51508698D01*
X83049723Y-51631919D01*
X83299864Y-51707799D01*
X83560000Y-51733420D01*
X83820137Y-51707799D01*
X84070278Y-51631919D01*
X84119760Y-51605471D01*
X84635872Y-52121583D01*
X84655509Y-52145511D01*
X84658530Y-52147990D01*
X54473281Y-52147990D01*
X53828047Y-51502757D01*
X54022870Y-51342870D01*
X54188698Y-51140808D01*
X54311919Y-50910278D01*
X54350000Y-50784743D01*
X54388081Y-50910278D01*
X54511302Y-51140808D01*
X54677131Y-51342870D01*
X54879193Y-51508698D01*
X55109723Y-51631919D01*
X55359864Y-51707799D01*
X55620000Y-51733420D01*
X55880137Y-51707799D01*
X56130278Y-51631919D01*
X56360808Y-51508698D01*
X56562870Y-51342870D01*
X56728698Y-51140808D01*
X56772369Y-51059105D01*
X56790446Y-51104751D01*
X56954252Y-51358396D01*
X57164394Y-51575210D01*
X57412796Y-51746862D01*
X57689913Y-51866755D01*
X57795260Y-51891036D01*
X58033000Y-51770378D01*
X58033000Y-50127000D01*
X58013000Y-50127000D01*
X58013000Y-49873000D01*
X58033000Y-49873000D01*
X58033000Y-48229622D01*
X57795260Y-48108964D01*
X57689913Y-48133245D01*
X57412796Y-48253138D01*
X57164394Y-48424790D01*
X56954252Y-48641604D01*
X56790446Y-48895249D01*
X56772369Y-48940895D01*
X56728698Y-48859192D01*
X56562870Y-48657130D01*
X56360807Y-48491302D01*
X56336812Y-48478477D01*
X58402779Y-46412511D01*
X60233689Y-46412511D01*
X59195662Y-47450539D01*
G37*
X59195662Y-47450539D02*
X59175553Y-47467042D01*
X59133795Y-47517925D01*
X59109696Y-47547289D01*
X59060761Y-47638841D01*
X59030626Y-47738181D01*
X59020451Y-47841490D01*
X59023000Y-47867371D01*
X59023000Y-48333156D01*
X58907204Y-48253138D01*
X58630087Y-48133245D01*
X58524740Y-48108964D01*
X58287000Y-48229622D01*
X58287000Y-49873000D01*
X58307000Y-49873000D01*
X58307000Y-50127000D01*
X58287000Y-50127000D01*
X58287000Y-51770378D01*
X58524740Y-51891036D01*
X58630087Y-51866755D01*
X58907204Y-51746862D01*
X59155606Y-51575210D01*
X59365748Y-51358396D01*
X59529554Y-51104751D01*
X59547631Y-51059105D01*
X59591302Y-51140808D01*
X59757131Y-51342870D01*
X59959193Y-51508698D01*
X60189723Y-51631919D01*
X60439864Y-51707799D01*
X60700000Y-51733420D01*
X60960137Y-51707799D01*
X61210278Y-51631919D01*
X61440808Y-51508698D01*
X61642870Y-51342870D01*
X61808698Y-51140808D01*
X61931919Y-50910278D01*
X61970000Y-50784743D01*
X62008081Y-50910278D01*
X62131302Y-51140808D01*
X62297131Y-51342870D01*
X62499193Y-51508698D01*
X62729723Y-51631919D01*
X62979864Y-51707799D01*
X63240000Y-51733420D01*
X63500137Y-51707799D01*
X63750278Y-51631919D01*
X63980808Y-51508698D01*
X64182870Y-51342870D01*
X64348698Y-51140808D01*
X64471919Y-50910278D01*
X64510000Y-50784743D01*
X64548081Y-50910278D01*
X64671302Y-51140808D01*
X64837131Y-51342870D01*
X65039193Y-51508698D01*
X65269723Y-51631919D01*
X65519864Y-51707799D01*
X65780000Y-51733420D01*
X66040137Y-51707799D01*
X66290278Y-51631919D01*
X66520808Y-51508698D01*
X66722870Y-51342870D01*
X66888698Y-51140808D01*
X67011919Y-50910278D01*
X67050000Y-50784743D01*
X67088081Y-50910278D01*
X67211302Y-51140808D01*
X67377131Y-51342870D01*
X67579193Y-51508698D01*
X67809723Y-51631919D01*
X68059864Y-51707799D01*
X68320000Y-51733420D01*
X68580137Y-51707799D01*
X68830278Y-51631919D01*
X69060808Y-51508698D01*
X69262870Y-51342870D01*
X69428698Y-51140808D01*
X69551919Y-50910278D01*
X69590000Y-50784743D01*
X69628081Y-50910278D01*
X69751302Y-51140808D01*
X69917131Y-51342870D01*
X70119193Y-51508698D01*
X70349723Y-51631919D01*
X70599864Y-51707799D01*
X70860000Y-51733420D01*
X71120137Y-51707799D01*
X71370278Y-51631919D01*
X71600808Y-51508698D01*
X71802870Y-51342870D01*
X71968698Y-51140808D01*
X72091919Y-50910278D01*
X72130000Y-50784743D01*
X72168081Y-50910278D01*
X72291302Y-51140808D01*
X72457131Y-51342870D01*
X72659193Y-51508698D01*
X72889723Y-51631919D01*
X73139864Y-51707799D01*
X73400000Y-51733420D01*
X73660137Y-51707799D01*
X73910278Y-51631919D01*
X74140808Y-51508698D01*
X74342870Y-51342870D01*
X74508698Y-51140808D01*
X74631919Y-50910278D01*
X74670000Y-50784743D01*
X74708081Y-50910278D01*
X74831302Y-51140808D01*
X74997131Y-51342870D01*
X75199193Y-51508698D01*
X75429723Y-51631919D01*
X75679864Y-51707799D01*
X75940000Y-51733420D01*
X76200137Y-51707799D01*
X76450278Y-51631919D01*
X76680808Y-51508698D01*
X76882870Y-51342870D01*
X77048698Y-51140808D01*
X77171919Y-50910278D01*
X77210000Y-50784743D01*
X77248081Y-50910278D01*
X77371302Y-51140808D01*
X77537131Y-51342870D01*
X77739193Y-51508698D01*
X77969723Y-51631919D01*
X78219864Y-51707799D01*
X78480000Y-51733420D01*
X78740137Y-51707799D01*
X78990278Y-51631919D01*
X79220808Y-51508698D01*
X79422870Y-51342870D01*
X79588698Y-51140808D01*
X79711919Y-50910278D01*
X79750000Y-50784743D01*
X79788081Y-50910278D01*
X79911302Y-51140808D01*
X80077131Y-51342870D01*
X80279193Y-51508698D01*
X80509723Y-51631919D01*
X80759864Y-51707799D01*
X81020000Y-51733420D01*
X81280137Y-51707799D01*
X81530278Y-51631919D01*
X81760808Y-51508698D01*
X81962870Y-51342870D01*
X82128698Y-51140808D01*
X82251919Y-50910278D01*
X82290000Y-50784743D01*
X82328081Y-50910278D01*
X82451302Y-51140808D01*
X82617131Y-51342870D01*
X82819193Y-51508698D01*
X83049723Y-51631919D01*
X83299864Y-51707799D01*
X83560000Y-51733420D01*
X83820137Y-51707799D01*
X84070278Y-51631919D01*
X84119760Y-51605471D01*
X84635872Y-52121583D01*
X84655509Y-52145511D01*
X84658530Y-52147990D01*
X54473281Y-52147990D01*
X53828047Y-51502757D01*
X54022870Y-51342870D01*
X54188698Y-51140808D01*
X54311919Y-50910278D01*
X54350000Y-50784743D01*
X54388081Y-50910278D01*
X54511302Y-51140808D01*
X54677131Y-51342870D01*
X54879193Y-51508698D01*
X55109723Y-51631919D01*
X55359864Y-51707799D01*
X55620000Y-51733420D01*
X55880137Y-51707799D01*
X56130278Y-51631919D01*
X56360808Y-51508698D01*
X56562870Y-51342870D01*
X56728698Y-51140808D01*
X56772369Y-51059105D01*
X56790446Y-51104751D01*
X56954252Y-51358396D01*
X57164394Y-51575210D01*
X57412796Y-51746862D01*
X57689913Y-51866755D01*
X57795260Y-51891036D01*
X58033000Y-51770378D01*
X58033000Y-50127000D01*
X58013000Y-50127000D01*
X58013000Y-49873000D01*
X58033000Y-49873000D01*
X58033000Y-48229622D01*
X57795260Y-48108964D01*
X57689913Y-48133245D01*
X57412796Y-48253138D01*
X57164394Y-48424790D01*
X56954252Y-48641604D01*
X56790446Y-48895249D01*
X56772369Y-48940895D01*
X56728698Y-48859192D01*
X56562870Y-48657130D01*
X56360807Y-48491302D01*
X56336812Y-48478477D01*
X58402779Y-46412511D01*
X60233689Y-46412511D01*
X59195662Y-47450539D01*
G36*
X132257170Y-49763882D02*
G01*
X132202400Y-49780496D01*
X132126882Y-49757588D01*
X132002400Y-49745328D01*
X131988150Y-49748400D01*
X131829400Y-49907150D01*
X131829400Y-50108347D01*
X131812898Y-50139220D01*
X131776588Y-50258918D01*
X131764328Y-50383400D01*
X131767400Y-51047650D01*
X131829400Y-51109650D01*
X131829400Y-51206400D01*
X132575400Y-51206400D01*
X132575400Y-51186400D01*
X132829400Y-51186400D01*
X132829400Y-51206400D01*
X132849400Y-51206400D01*
X132849400Y-51460400D01*
X132829400Y-51460400D01*
X132829400Y-51480400D01*
X132575400Y-51480400D01*
X132575400Y-51460400D01*
X131829400Y-51460400D01*
X131829400Y-51480400D01*
X131575400Y-51480400D01*
X131575400Y-51460400D01*
X131555400Y-51460400D01*
X131555400Y-51206400D01*
X131575400Y-51206400D01*
X131575400Y-49907150D01*
X131416650Y-49748400D01*
X131402400Y-49745328D01*
X131277918Y-49757588D01*
X131229400Y-49772306D01*
X131229400Y-48818280D01*
X131231949Y-48792399D01*
X131226078Y-48732790D01*
X132257170Y-49763882D01*
G37*
X132257170Y-49763882D02*
X132202400Y-49780496D01*
X132126882Y-49757588D01*
X132002400Y-49745328D01*
X131988150Y-49748400D01*
X131829400Y-49907150D01*
X131829400Y-50108347D01*
X131812898Y-50139220D01*
X131776588Y-50258918D01*
X131764328Y-50383400D01*
X131767400Y-51047650D01*
X131829400Y-51109650D01*
X131829400Y-51206400D01*
X132575400Y-51206400D01*
X132575400Y-51186400D01*
X132829400Y-51186400D01*
X132829400Y-51206400D01*
X132849400Y-51206400D01*
X132849400Y-51460400D01*
X132829400Y-51460400D01*
X132829400Y-51480400D01*
X132575400Y-51480400D01*
X132575400Y-51460400D01*
X131829400Y-51460400D01*
X131829400Y-51480400D01*
X131575400Y-51480400D01*
X131575400Y-51460400D01*
X131555400Y-51460400D01*
X131555400Y-51206400D01*
X131575400Y-51206400D01*
X131575400Y-49907150D01*
X131416650Y-49748400D01*
X131402400Y-49745328D01*
X131277918Y-49757588D01*
X131229400Y-49772306D01*
X131229400Y-48818280D01*
X131231949Y-48792399D01*
X131226078Y-48732790D01*
X132257170Y-49763882D01*
G36*
X115178421Y-48622866D02*
G01*
X115154499Y-48642498D01*
X115076147Y-48737971D01*
X115017924Y-48846896D01*
X114982072Y-48965086D01*
X114980648Y-48979549D01*
X114969966Y-49087999D01*
X114972999Y-49118793D01*
X114972999Y-49120289D01*
X113941468Y-50151821D01*
X113889877Y-50027269D01*
X113799372Y-49891819D01*
X113684181Y-49776628D01*
X113548731Y-49686123D01*
X113398227Y-49623782D01*
X113238452Y-49592000D01*
X113075548Y-49592000D01*
X112915773Y-49623782D01*
X112765269Y-49686123D01*
X112629819Y-49776628D01*
X112514628Y-49891819D01*
X112454037Y-49982500D01*
X100069212Y-49982500D01*
X98003711Y-47917000D01*
X115884286Y-47917000D01*
X115178421Y-48622866D01*
G37*
X115178421Y-48622866D02*
X115154499Y-48642498D01*
X115076147Y-48737971D01*
X115017924Y-48846896D01*
X114982072Y-48965086D01*
X114980648Y-48979549D01*
X114969966Y-49087999D01*
X114972999Y-49118793D01*
X114972999Y-49120289D01*
X113941468Y-50151821D01*
X113889877Y-50027269D01*
X113799372Y-49891819D01*
X113684181Y-49776628D01*
X113548731Y-49686123D01*
X113398227Y-49623782D01*
X113238452Y-49592000D01*
X113075548Y-49592000D01*
X112915773Y-49623782D01*
X112765269Y-49686123D01*
X112629819Y-49776628D01*
X112514628Y-49891819D01*
X112454037Y-49982500D01*
X100069212Y-49982500D01*
X98003711Y-47917000D01*
X115884286Y-47917000D01*
X115178421Y-48622866D01*
G36*
X146868000Y-46964334D02*
G01*
X143878400Y-46964334D01*
X143794693Y-46972578D01*
X143714204Y-46996995D01*
X143640024Y-47036645D01*
X143575005Y-47090005D01*
X143521645Y-47155024D01*
X143481995Y-47229204D01*
X143457578Y-47309693D01*
X143449334Y-47393400D01*
X143449334Y-49545042D01*
X142762457Y-48858166D01*
X142745950Y-48838052D01*
X142665704Y-48772196D01*
X142574152Y-48723261D01*
X142474812Y-48693126D01*
X142397383Y-48685500D01*
X142371502Y-48682951D01*
X142345621Y-48685500D01*
X135280877Y-48685500D01*
X135254999Y-48682951D01*
X135229121Y-48685500D01*
X135229119Y-48685500D01*
X135151690Y-48693126D01*
X135052350Y-48723261D01*
X134960798Y-48772196D01*
X134880552Y-48838052D01*
X134864049Y-48858161D01*
X134348066Y-49374145D01*
X134327952Y-49390652D01*
X134262096Y-49470898D01*
X134213162Y-49562450D01*
X134213161Y-49562451D01*
X134183026Y-49661791D01*
X134172851Y-49765100D01*
X134175400Y-49790981D01*
X134175400Y-49910407D01*
X134147901Y-49876899D01*
X134123978Y-49857266D01*
X129098711Y-44832000D01*
X146868000Y-44832000D01*
X146868000Y-46964334D01*
G37*
X146868000Y-46964334D02*
X143878400Y-46964334D01*
X143794693Y-46972578D01*
X143714204Y-46996995D01*
X143640024Y-47036645D01*
X143575005Y-47090005D01*
X143521645Y-47155024D01*
X143481995Y-47229204D01*
X143457578Y-47309693D01*
X143449334Y-47393400D01*
X143449334Y-49545042D01*
X142762457Y-48858166D01*
X142745950Y-48838052D01*
X142665704Y-48772196D01*
X142574152Y-48723261D01*
X142474812Y-48693126D01*
X142397383Y-48685500D01*
X142371502Y-48682951D01*
X142345621Y-48685500D01*
X135280877Y-48685500D01*
X135254999Y-48682951D01*
X135229121Y-48685500D01*
X135229119Y-48685500D01*
X135151690Y-48693126D01*
X135052350Y-48723261D01*
X134960798Y-48772196D01*
X134880552Y-48838052D01*
X134864049Y-48858161D01*
X134348066Y-49374145D01*
X134327952Y-49390652D01*
X134262096Y-49470898D01*
X134213162Y-49562450D01*
X134213161Y-49562451D01*
X134183026Y-49661791D01*
X134172851Y-49765100D01*
X134175400Y-49790981D01*
X134175400Y-49910407D01*
X134147901Y-49876899D01*
X134123978Y-49857266D01*
X129098711Y-44832000D01*
X146868000Y-44832000D01*
X146868000Y-46964334D01*
G36*
X67811416Y-46898673D02*
G01*
X67696176Y-46960271D01*
X67595167Y-47043167D01*
X67512271Y-47144176D01*
X67450673Y-47259416D01*
X67412742Y-47384459D01*
X67399934Y-47514500D01*
X67399934Y-47989500D01*
X67412742Y-48119541D01*
X67450673Y-48244584D01*
X67512271Y-48359824D01*
X67595167Y-48460833D01*
X67611349Y-48474114D01*
X67579192Y-48491302D01*
X67377130Y-48657130D01*
X67211302Y-48859193D01*
X67088081Y-49089723D01*
X67050000Y-49215258D01*
X67011919Y-49089722D01*
X66888698Y-48859192D01*
X66722870Y-48657130D01*
X66699915Y-48638291D01*
X66808584Y-48605327D01*
X66923824Y-48543729D01*
X67024833Y-48460833D01*
X67107729Y-48359824D01*
X67169327Y-48244584D01*
X67207258Y-48119541D01*
X67220066Y-47989500D01*
X67220066Y-47514500D01*
X67207258Y-47384459D01*
X67169327Y-47259416D01*
X67107729Y-47144176D01*
X67024833Y-47043167D01*
X66923824Y-46960271D01*
X66808584Y-46898673D01*
X66689406Y-46862521D01*
X67930594Y-46862521D01*
X67811416Y-46898673D01*
G37*
X67811416Y-46898673D02*
X67696176Y-46960271D01*
X67595167Y-47043167D01*
X67512271Y-47144176D01*
X67450673Y-47259416D01*
X67412742Y-47384459D01*
X67399934Y-47514500D01*
X67399934Y-47989500D01*
X67412742Y-48119541D01*
X67450673Y-48244584D01*
X67512271Y-48359824D01*
X67595167Y-48460833D01*
X67611349Y-48474114D01*
X67579192Y-48491302D01*
X67377130Y-48657130D01*
X67211302Y-48859193D01*
X67088081Y-49089723D01*
X67050000Y-49215258D01*
X67011919Y-49089722D01*
X66888698Y-48859192D01*
X66722870Y-48657130D01*
X66699915Y-48638291D01*
X66808584Y-48605327D01*
X66923824Y-48543729D01*
X67024833Y-48460833D01*
X67107729Y-48359824D01*
X67169327Y-48244584D01*
X67207258Y-48119541D01*
X67220066Y-47989500D01*
X67220066Y-47514500D01*
X67207258Y-47384459D01*
X67169327Y-47259416D01*
X67107729Y-47144176D01*
X67024833Y-47043167D01*
X66923824Y-46960271D01*
X66808584Y-46898673D01*
X66689406Y-46862521D01*
X67930594Y-46862521D01*
X67811416Y-46898673D01*
G36*
X64643000Y-47625000D02*
G01*
X64663000Y-47625000D01*
X64663000Y-47879000D01*
X64643000Y-47879000D01*
X64643000Y-48703250D01*
X64728837Y-48789087D01*
X64671302Y-48859193D01*
X64548081Y-49089723D01*
X64510000Y-49215258D01*
X64471919Y-49089722D01*
X64348698Y-48859192D01*
X64296573Y-48795677D01*
X64389000Y-48703250D01*
X64389000Y-47879000D01*
X64369000Y-47879000D01*
X64369000Y-47625000D01*
X64389000Y-47625000D01*
X64389000Y-47605000D01*
X64643000Y-47605000D01*
X64643000Y-47625000D01*
G37*
X64643000Y-47625000D02*
X64663000Y-47625000D01*
X64663000Y-47879000D01*
X64643000Y-47879000D01*
X64643000Y-48703250D01*
X64728837Y-48789087D01*
X64671302Y-48859193D01*
X64548081Y-49089723D01*
X64510000Y-49215258D01*
X64471919Y-49089722D01*
X64348698Y-48859192D01*
X64296573Y-48795677D01*
X64389000Y-48703250D01*
X64389000Y-47879000D01*
X64369000Y-47879000D01*
X64369000Y-47625000D01*
X64389000Y-47625000D01*
X64389000Y-47605000D01*
X64643000Y-47605000D01*
X64643000Y-47625000D01*
G36*
X74820520Y-47434190D02*
G01*
X74823072Y-47277000D01*
X74810812Y-47152518D01*
X74774502Y-47032820D01*
X74715537Y-46922506D01*
X74636185Y-46825815D01*
X74539494Y-46746463D01*
X74429180Y-46687498D01*
X74309482Y-46651188D01*
X74185000Y-46638928D01*
X73945750Y-46642000D01*
X73787000Y-46800750D01*
X73787000Y-47625000D01*
X73807000Y-47625000D01*
X73807000Y-47879000D01*
X73787000Y-47879000D01*
X73787000Y-47899000D01*
X73533000Y-47899000D01*
X73533000Y-47879000D01*
X73513000Y-47879000D01*
X73513000Y-47625000D01*
X73533000Y-47625000D01*
X73533000Y-46800750D01*
X73374250Y-46642000D01*
X73135000Y-46638928D01*
X73010518Y-46651188D01*
X72890820Y-46687498D01*
X72780506Y-46746463D01*
X72683815Y-46825815D01*
X72604463Y-46922506D01*
X72579260Y-46969656D01*
X72567824Y-46960271D01*
X72452584Y-46898673D01*
X72327541Y-46860742D01*
X72197500Y-46847934D01*
X71622500Y-46847934D01*
X71492459Y-46860742D01*
X71367416Y-46898673D01*
X71252176Y-46960271D01*
X71201815Y-47001601D01*
X71159537Y-46922506D01*
X71106657Y-46858071D01*
X71138905Y-46854895D01*
X71238245Y-46824760D01*
X71329797Y-46775825D01*
X71410043Y-46709969D01*
X71426550Y-46689855D01*
X71769406Y-46347000D01*
X75907710Y-46347000D01*
X74820520Y-47434190D01*
G37*
X74820520Y-47434190D02*
X74823072Y-47277000D01*
X74810812Y-47152518D01*
X74774502Y-47032820D01*
X74715537Y-46922506D01*
X74636185Y-46825815D01*
X74539494Y-46746463D01*
X74429180Y-46687498D01*
X74309482Y-46651188D01*
X74185000Y-46638928D01*
X73945750Y-46642000D01*
X73787000Y-46800750D01*
X73787000Y-47625000D01*
X73807000Y-47625000D01*
X73807000Y-47879000D01*
X73787000Y-47879000D01*
X73787000Y-47899000D01*
X73533000Y-47899000D01*
X73533000Y-47879000D01*
X73513000Y-47879000D01*
X73513000Y-47625000D01*
X73533000Y-47625000D01*
X73533000Y-46800750D01*
X73374250Y-46642000D01*
X73135000Y-46638928D01*
X73010518Y-46651188D01*
X72890820Y-46687498D01*
X72780506Y-46746463D01*
X72683815Y-46825815D01*
X72604463Y-46922506D01*
X72579260Y-46969656D01*
X72567824Y-46960271D01*
X72452584Y-46898673D01*
X72327541Y-46860742D01*
X72197500Y-46847934D01*
X71622500Y-46847934D01*
X71492459Y-46860742D01*
X71367416Y-46898673D01*
X71252176Y-46960271D01*
X71201815Y-47001601D01*
X71159537Y-46922506D01*
X71106657Y-46858071D01*
X71138905Y-46854895D01*
X71238245Y-46824760D01*
X71329797Y-46775825D01*
X71410043Y-46709969D01*
X71426550Y-46689855D01*
X71769406Y-46347000D01*
X75907710Y-46347000D01*
X74820520Y-47434190D01*
G36*
X61087000Y-47625000D02*
G01*
X61107000Y-47625000D01*
X61107000Y-47879000D01*
X61087000Y-47879000D01*
X61087000Y-47899000D01*
X60833000Y-47899000D01*
X60833000Y-47879000D01*
X60813000Y-47879000D01*
X60813000Y-47625000D01*
X60833000Y-47625000D01*
X60833000Y-47605000D01*
X61087000Y-47605000D01*
X61087000Y-47625000D01*
G37*
X61087000Y-47625000D02*
X61107000Y-47625000D01*
X61107000Y-47879000D01*
X61087000Y-47879000D01*
X61087000Y-47899000D01*
X60833000Y-47899000D01*
X60833000Y-47879000D01*
X60813000Y-47879000D01*
X60813000Y-47625000D01*
X60833000Y-47625000D01*
X60833000Y-47605000D01*
X61087000Y-47605000D01*
X61087000Y-47625000D01*
G36*
X70231000Y-47625000D02*
G01*
X70251000Y-47625000D01*
X70251000Y-47879000D01*
X70231000Y-47879000D01*
X70231000Y-47899000D01*
X69977000Y-47899000D01*
X69977000Y-47879000D01*
X69957000Y-47879000D01*
X69957000Y-47625000D01*
X69977000Y-47625000D01*
X69977000Y-47605000D01*
X70231000Y-47605000D01*
X70231000Y-47625000D01*
G37*
X70231000Y-47625000D02*
X70251000Y-47625000D01*
X70251000Y-47879000D01*
X70231000Y-47879000D01*
X70231000Y-47899000D01*
X69977000Y-47899000D01*
X69977000Y-47879000D01*
X69957000Y-47879000D01*
X69957000Y-47625000D01*
X69977000Y-47625000D01*
X69977000Y-47605000D01*
X70231000Y-47605000D01*
X70231000Y-47625000D01*
G36*
X63460463Y-46922506D02*
G01*
X63418185Y-47001601D01*
X63367824Y-46960271D01*
X63252584Y-46898673D01*
X63133406Y-46862521D01*
X63509691Y-46862521D01*
X63460463Y-46922506D01*
G37*
X63460463Y-46922506D02*
X63418185Y-47001601D01*
X63367824Y-46960271D01*
X63252584Y-46898673D01*
X63133406Y-46862521D01*
X63509691Y-46862521D01*
X63460463Y-46922506D01*
G36*
X65723416Y-46898673D02*
G01*
X65608176Y-46960271D01*
X65596740Y-46969656D01*
X65571537Y-46922506D01*
X65522309Y-46862521D01*
X65842594Y-46862521D01*
X65723416Y-46898673D01*
G37*
X65723416Y-46898673D02*
X65608176Y-46960271D01*
X65596740Y-46969656D01*
X65571537Y-46922506D01*
X65522309Y-46862521D01*
X65842594Y-46862521D01*
X65723416Y-46898673D01*
G36*
X69048463Y-46922506D02*
G01*
X69023260Y-46969656D01*
X69011824Y-46960271D01*
X68896584Y-46898673D01*
X68777406Y-46862521D01*
X69097691Y-46862521D01*
X69048463Y-46922506D01*
G37*
X69048463Y-46922506D02*
X69023260Y-46969656D01*
X69011824Y-46960271D01*
X68896584Y-46898673D01*
X68777406Y-46862521D01*
X69097691Y-46862521D01*
X69048463Y-46922506D01*
G36*
X137829400Y-51206400D02*
G01*
X138575400Y-51206400D01*
X138575400Y-51186400D01*
X138829400Y-51186400D01*
X138829400Y-51206400D01*
X139575400Y-51206400D01*
X139575400Y-51186400D01*
X139829400Y-51186400D01*
X139829400Y-51206400D01*
X140575400Y-51206400D01*
X140575400Y-51186400D01*
X140829400Y-51186400D01*
X140829400Y-51206400D01*
X140843000Y-51206400D01*
X140843000Y-51460400D01*
X140829400Y-51460400D01*
X140829400Y-51480400D01*
X140575400Y-51480400D01*
X140575400Y-51460400D01*
X139829400Y-51460400D01*
X139829400Y-51557150D01*
X139767400Y-51619150D01*
X139764328Y-52283400D01*
X139776588Y-52407882D01*
X139812898Y-52527580D01*
X139829400Y-52558453D01*
X139829400Y-52759650D01*
X139988150Y-52918400D01*
X140002400Y-52921472D01*
X140126882Y-52909212D01*
X140202400Y-52886304D01*
X140277918Y-52909212D01*
X140281976Y-52909612D01*
X138735334Y-54656745D01*
X138639495Y-54372627D01*
X138524389Y-54157275D01*
X138242602Y-54041003D01*
X137165605Y-55118000D01*
X137179748Y-55132143D01*
X137000143Y-55311748D01*
X136986000Y-55297605D01*
X136975104Y-55308501D01*
X136800351Y-55095759D01*
X136971858Y-54924253D01*
X136986000Y-54938395D01*
X138062997Y-53861398D01*
X137946725Y-53579611D01*
X137628140Y-53421743D01*
X137336583Y-53343023D01*
X137503803Y-53175803D01*
X137519597Y-53156557D01*
X137531333Y-53134601D01*
X137538560Y-53110776D01*
X137541000Y-53086000D01*
X137541000Y-52794050D01*
X137575400Y-52759650D01*
X137575400Y-52283400D01*
X137764328Y-52283400D01*
X137776588Y-52407882D01*
X137812898Y-52527580D01*
X137829400Y-52558453D01*
X137829400Y-52759650D01*
X137988150Y-52918400D01*
X138002400Y-52921472D01*
X138126882Y-52909212D01*
X138202400Y-52886304D01*
X138277918Y-52909212D01*
X138402400Y-52921472D01*
X138416650Y-52918400D01*
X138575400Y-52759650D01*
X138575400Y-52558453D01*
X138591902Y-52527580D01*
X138628212Y-52407882D01*
X138640472Y-52283400D01*
X138764328Y-52283400D01*
X138776588Y-52407882D01*
X138812898Y-52527580D01*
X138829400Y-52558453D01*
X138829400Y-52759650D01*
X138988150Y-52918400D01*
X139002400Y-52921472D01*
X139126882Y-52909212D01*
X139202400Y-52886304D01*
X139277918Y-52909212D01*
X139402400Y-52921472D01*
X139416650Y-52918400D01*
X139575400Y-52759650D01*
X139575400Y-52558453D01*
X139591902Y-52527580D01*
X139628212Y-52407882D01*
X139640472Y-52283400D01*
X139637400Y-51619150D01*
X139575400Y-51557150D01*
X139575400Y-51460400D01*
X138829400Y-51460400D01*
X138829400Y-51557150D01*
X138767400Y-51619150D01*
X138764328Y-52283400D01*
X138640472Y-52283400D01*
X138637400Y-51619150D01*
X138575400Y-51557150D01*
X138575400Y-51460400D01*
X137829400Y-51460400D01*
X137829400Y-51557150D01*
X137767400Y-51619150D01*
X137764328Y-52283400D01*
X137575400Y-52283400D01*
X137575400Y-51460400D01*
X137555400Y-51460400D01*
X137555400Y-51206400D01*
X137575400Y-51206400D01*
X137575400Y-51186400D01*
X137829400Y-51186400D01*
X137829400Y-51206400D01*
G37*
X137829400Y-51206400D02*
X138575400Y-51206400D01*
X138575400Y-51186400D01*
X138829400Y-51186400D01*
X138829400Y-51206400D01*
X139575400Y-51206400D01*
X139575400Y-51186400D01*
X139829400Y-51186400D01*
X139829400Y-51206400D01*
X140575400Y-51206400D01*
X140575400Y-51186400D01*
X140829400Y-51186400D01*
X140829400Y-51206400D01*
X140843000Y-51206400D01*
X140843000Y-51460400D01*
X140829400Y-51460400D01*
X140829400Y-51480400D01*
X140575400Y-51480400D01*
X140575400Y-51460400D01*
X139829400Y-51460400D01*
X139829400Y-51557150D01*
X139767400Y-51619150D01*
X139764328Y-52283400D01*
X139776588Y-52407882D01*
X139812898Y-52527580D01*
X139829400Y-52558453D01*
X139829400Y-52759650D01*
X139988150Y-52918400D01*
X140002400Y-52921472D01*
X140126882Y-52909212D01*
X140202400Y-52886304D01*
X140277918Y-52909212D01*
X140281976Y-52909612D01*
X138735334Y-54656745D01*
X138639495Y-54372627D01*
X138524389Y-54157275D01*
X138242602Y-54041003D01*
X137165605Y-55118000D01*
X137179748Y-55132143D01*
X137000143Y-55311748D01*
X136986000Y-55297605D01*
X136975104Y-55308501D01*
X136800351Y-55095759D01*
X136971858Y-54924253D01*
X136986000Y-54938395D01*
X138062997Y-53861398D01*
X137946725Y-53579611D01*
X137628140Y-53421743D01*
X137336583Y-53343023D01*
X137503803Y-53175803D01*
X137519597Y-53156557D01*
X137531333Y-53134601D01*
X137538560Y-53110776D01*
X137541000Y-53086000D01*
X137541000Y-52794050D01*
X137575400Y-52759650D01*
X137575400Y-52283400D01*
X137764328Y-52283400D01*
X137776588Y-52407882D01*
X137812898Y-52527580D01*
X137829400Y-52558453D01*
X137829400Y-52759650D01*
X137988150Y-52918400D01*
X138002400Y-52921472D01*
X138126882Y-52909212D01*
X138202400Y-52886304D01*
X138277918Y-52909212D01*
X138402400Y-52921472D01*
X138416650Y-52918400D01*
X138575400Y-52759650D01*
X138575400Y-52558453D01*
X138591902Y-52527580D01*
X138628212Y-52407882D01*
X138640472Y-52283400D01*
X138764328Y-52283400D01*
X138776588Y-52407882D01*
X138812898Y-52527580D01*
X138829400Y-52558453D01*
X138829400Y-52759650D01*
X138988150Y-52918400D01*
X139002400Y-52921472D01*
X139126882Y-52909212D01*
X139202400Y-52886304D01*
X139277918Y-52909212D01*
X139402400Y-52921472D01*
X139416650Y-52918400D01*
X139575400Y-52759650D01*
X139575400Y-52558453D01*
X139591902Y-52527580D01*
X139628212Y-52407882D01*
X139640472Y-52283400D01*
X139637400Y-51619150D01*
X139575400Y-51557150D01*
X139575400Y-51460400D01*
X138829400Y-51460400D01*
X138829400Y-51557150D01*
X138767400Y-51619150D01*
X138764328Y-52283400D01*
X138640472Y-52283400D01*
X138637400Y-51619150D01*
X138575400Y-51557150D01*
X138575400Y-51460400D01*
X137829400Y-51460400D01*
X137829400Y-51557150D01*
X137767400Y-51619150D01*
X137764328Y-52283400D01*
X137575400Y-52283400D01*
X137575400Y-51460400D01*
X137555400Y-51460400D01*
X137555400Y-51206400D01*
X137575400Y-51206400D01*
X137575400Y-51186400D01*
X137829400Y-51186400D01*
X137829400Y-51206400D01*
M02*
