%TF.GenerationSoftware,KiCad,Pcbnew,7.0.0-da2b9df05c~163~ubuntu22.04.1*%
%TF.CreationDate,2023-02-21T15:24:57+01:00*%
%TF.ProjectId,BaSe_PWR_V4_0,42615365-5f50-4575-925f-56345f302e6b,rev?*%
%TF.SameCoordinates,Original*%
%TF.FileFunction,Copper,L2,Bot*%
%TF.FilePolarity,Positive*%
%FSLAX46Y46*%
G04 Gerber Fmt 4.6, Leading zero omitted, Abs format (unit mm)*
G04 Created by KiCad (PCBNEW 7.0.0-da2b9df05c~163~ubuntu22.04.1) date 2023-02-21 15:24:57*
%MOMM*%
%LPD*%
G01*
G04 APERTURE LIST*
%TA.AperFunction,ComponentPad*%
%ADD10R,1.700000X1.700000*%
%TD*%
%TA.AperFunction,ComponentPad*%
%ADD11O,1.700000X1.700000*%
%TD*%
%TA.AperFunction,ViaPad*%
%ADD12C,0.800000*%
%TD*%
G04 APERTURE END LIST*
D10*
%TO.P,J3,1,Pin_1*%
%TO.N,/imotor*%
X119074999Y-49599999D03*
D11*
%TO.P,J3,2,Pin_2*%
%TO.N,GND*%
X116534999Y-49599999D03*
%TD*%
D10*
%TO.P,J1,1,Pin_1*%
%TO.N,GND*%
X98199999Y-37319999D03*
D11*
%TO.P,J1,2,Pin_2*%
%TO.N,Vdrive*%
X98199999Y-39859999D03*
%TO.P,J1,3,Pin_3*%
%TO.N,GND*%
X98199999Y-42399999D03*
%TO.P,J1,4,Pin_4*%
%TO.N,/in1_mcu*%
X98199999Y-44939999D03*
%TO.P,J1,5,Pin_5*%
%TO.N,/in2_mcu*%
X98199999Y-47479999D03*
%TO.P,J1,6,Pin_6*%
%TO.N,/imotor_prot*%
X98199999Y-50019999D03*
%TD*%
D10*
%TO.P,J2,1,Pin_1*%
%TO.N,Net-(J2-Pin_1)*%
X116399999Y-38599999D03*
D11*
%TO.P,J2,2,Pin_2*%
%TO.N,Net-(J2-Pin_2)*%
X118939999Y-38599999D03*
%TD*%
D12*
%TO.N,GND*%
X114200000Y-46200000D03*
X114200000Y-45000000D03*
X112000000Y-50200000D03*
X109200000Y-46400000D03*
X109200000Y-44400000D03*
X114800000Y-43200000D03*
X112400000Y-44400000D03*
X120200000Y-36000000D03*
X112000000Y-49000000D03*
X117000000Y-36000000D03*
X115400000Y-36000000D03*
X118600000Y-36000000D03*
X112400000Y-46400000D03*
X109200000Y-45400000D03*
X110800000Y-49000000D03*
X112400000Y-45400000D03*
%TD*%
%TA.AperFunction,Conductor*%
%TO.N,GND*%
G36*
X120937500Y-35217113D02*
G01*
X120982887Y-35262500D01*
X120999500Y-35324500D01*
X120999500Y-51875500D01*
X120982887Y-51937500D01*
X120937500Y-51982887D01*
X120875500Y-51999500D01*
X96324500Y-51999500D01*
X96262500Y-51982887D01*
X96217113Y-51937500D01*
X96200500Y-51875500D01*
X96200500Y-50020000D01*
X96844341Y-50020000D01*
X96864937Y-50255408D01*
X96866336Y-50260630D01*
X96866337Y-50260634D01*
X96924694Y-50478430D01*
X96924697Y-50478438D01*
X96926097Y-50483663D01*
X96928385Y-50488570D01*
X96928386Y-50488572D01*
X97023678Y-50692927D01*
X97023681Y-50692933D01*
X97025965Y-50697830D01*
X97029064Y-50702257D01*
X97029066Y-50702259D01*
X97158399Y-50886966D01*
X97158402Y-50886970D01*
X97161505Y-50891401D01*
X97328599Y-51058495D01*
X97522170Y-51194035D01*
X97736337Y-51293903D01*
X97964592Y-51355063D01*
X98200000Y-51375659D01*
X98435408Y-51355063D01*
X98663663Y-51293903D01*
X98877830Y-51194035D01*
X99071401Y-51058495D01*
X99238495Y-50891401D01*
X99374035Y-50697830D01*
X99473903Y-50483663D01*
X99535063Y-50255408D01*
X99555659Y-50020000D01*
X99541009Y-49852551D01*
X115207688Y-49852551D01*
X115208056Y-49863780D01*
X115260168Y-50058263D01*
X115263856Y-50068397D01*
X115359113Y-50272676D01*
X115364501Y-50282008D01*
X115493784Y-50466643D01*
X115500721Y-50474909D01*
X115660090Y-50634278D01*
X115668356Y-50641215D01*
X115852991Y-50770498D01*
X115862323Y-50775886D01*
X116066602Y-50871143D01*
X116076736Y-50874831D01*
X116271219Y-50926943D01*
X116282448Y-50927311D01*
X116285000Y-50916369D01*
X116785000Y-50916369D01*
X116787551Y-50927311D01*
X116798780Y-50926943D01*
X116993263Y-50874831D01*
X117003397Y-50871143D01*
X117207676Y-50775886D01*
X117217008Y-50770498D01*
X117401643Y-50641215D01*
X117409902Y-50634284D01*
X117528133Y-50516053D01*
X117580880Y-50484757D01*
X117642173Y-50482568D01*
X117697018Y-50510021D01*
X117731997Y-50560401D01*
X117781204Y-50692331D01*
X117867454Y-50807546D01*
X117982669Y-50893796D01*
X118117517Y-50944091D01*
X118177127Y-50950500D01*
X119972872Y-50950499D01*
X120032483Y-50944091D01*
X120167331Y-50893796D01*
X120282546Y-50807546D01*
X120368796Y-50692331D01*
X120419091Y-50557483D01*
X120425500Y-50497873D01*
X120425499Y-48702128D01*
X120419091Y-48642517D01*
X120368796Y-48507669D01*
X120282546Y-48392454D01*
X120227706Y-48351401D01*
X120174431Y-48311519D01*
X120174430Y-48311518D01*
X120167331Y-48306204D01*
X120032483Y-48255909D01*
X120024770Y-48255079D01*
X120024767Y-48255079D01*
X119976180Y-48249855D01*
X119976169Y-48249854D01*
X119972873Y-48249500D01*
X119969550Y-48249500D01*
X118180439Y-48249500D01*
X118180420Y-48249500D01*
X118177128Y-48249501D01*
X118173850Y-48249853D01*
X118173838Y-48249854D01*
X118125231Y-48255079D01*
X118125225Y-48255080D01*
X118117517Y-48255909D01*
X118110252Y-48258618D01*
X118110246Y-48258620D01*
X117990980Y-48303104D01*
X117990978Y-48303104D01*
X117982669Y-48306204D01*
X117975572Y-48311516D01*
X117975568Y-48311519D01*
X117874550Y-48387141D01*
X117874546Y-48387144D01*
X117867454Y-48392454D01*
X117862144Y-48399546D01*
X117862141Y-48399550D01*
X117786519Y-48500568D01*
X117786516Y-48500572D01*
X117781204Y-48507669D01*
X117778104Y-48515978D01*
X117778105Y-48515978D01*
X117731997Y-48639599D01*
X117697018Y-48689978D01*
X117642173Y-48717431D01*
X117580880Y-48715242D01*
X117528134Y-48683946D01*
X117409909Y-48565721D01*
X117401643Y-48558784D01*
X117217008Y-48429501D01*
X117207676Y-48424113D01*
X117003397Y-48328856D01*
X116993263Y-48325168D01*
X116798780Y-48273056D01*
X116787551Y-48272688D01*
X116785000Y-48283631D01*
X116785000Y-50916369D01*
X116285000Y-50916369D01*
X116285000Y-49866326D01*
X116281549Y-49853450D01*
X116268674Y-49850000D01*
X115218631Y-49850000D01*
X115207688Y-49852551D01*
X99541009Y-49852551D01*
X99535063Y-49784592D01*
X99473903Y-49556337D01*
X99376496Y-49347448D01*
X115207688Y-49347448D01*
X115218631Y-49350000D01*
X116268674Y-49350000D01*
X116281549Y-49346549D01*
X116285000Y-49333674D01*
X116285000Y-48283631D01*
X116282448Y-48272688D01*
X116271219Y-48273056D01*
X116076736Y-48325168D01*
X116066602Y-48328856D01*
X115862332Y-48424110D01*
X115852982Y-48429508D01*
X115668357Y-48558784D01*
X115660092Y-48565719D01*
X115500719Y-48725092D01*
X115493784Y-48733357D01*
X115364508Y-48917982D01*
X115359110Y-48927332D01*
X115263856Y-49131602D01*
X115260168Y-49141736D01*
X115208056Y-49336219D01*
X115207688Y-49347448D01*
X99376496Y-49347448D01*
X99374035Y-49342171D01*
X99238495Y-49148599D01*
X99071401Y-48981505D01*
X99066968Y-48978401D01*
X99066961Y-48978395D01*
X98885842Y-48851575D01*
X98846976Y-48807257D01*
X98832965Y-48750000D01*
X98846976Y-48692743D01*
X98885842Y-48648425D01*
X99066961Y-48521604D01*
X99066961Y-48521603D01*
X99071401Y-48518495D01*
X99238495Y-48351401D01*
X99374035Y-48157830D01*
X99473903Y-47943663D01*
X99535063Y-47715408D01*
X99555659Y-47480000D01*
X99535063Y-47244592D01*
X99473903Y-47016337D01*
X99374035Y-46802171D01*
X99238495Y-46608599D01*
X99071401Y-46441505D01*
X99066968Y-46438401D01*
X99066961Y-46438395D01*
X98885842Y-46311575D01*
X98846976Y-46267257D01*
X98832965Y-46210000D01*
X98846976Y-46152743D01*
X98885842Y-46108425D01*
X99066961Y-45981604D01*
X99066961Y-45981603D01*
X99071401Y-45978495D01*
X99238495Y-45811401D01*
X99374035Y-45617830D01*
X99473903Y-45403663D01*
X99535063Y-45175408D01*
X99555659Y-44940000D01*
X99535063Y-44704592D01*
X99473903Y-44476337D01*
X99374035Y-44262171D01*
X99238495Y-44068599D01*
X99071401Y-43901505D01*
X99066970Y-43898402D01*
X99066966Y-43898399D01*
X98885405Y-43771269D01*
X98846540Y-43726951D01*
X98832529Y-43669694D01*
X98846540Y-43612437D01*
X98885406Y-43568119D01*
X99066638Y-43441219D01*
X99074909Y-43434278D01*
X99234278Y-43274909D01*
X99241215Y-43266643D01*
X99370498Y-43082008D01*
X99375886Y-43072676D01*
X99471143Y-42868397D01*
X99474831Y-42858263D01*
X99526943Y-42663780D01*
X99527311Y-42652551D01*
X99516369Y-42650000D01*
X96883631Y-42650000D01*
X96872688Y-42652551D01*
X96873056Y-42663780D01*
X96925168Y-42858263D01*
X96928856Y-42868397D01*
X97024113Y-43072676D01*
X97029501Y-43082008D01*
X97158784Y-43266643D01*
X97165721Y-43274909D01*
X97325090Y-43434278D01*
X97333356Y-43441215D01*
X97514595Y-43568120D01*
X97553460Y-43612438D01*
X97567471Y-43669695D01*
X97553460Y-43726952D01*
X97514594Y-43771270D01*
X97333034Y-43898399D01*
X97333029Y-43898402D01*
X97328599Y-43901505D01*
X97324775Y-43905328D01*
X97324769Y-43905334D01*
X97165334Y-44064769D01*
X97165328Y-44064775D01*
X97161505Y-44068599D01*
X97158402Y-44073029D01*
X97158399Y-44073034D01*
X97029073Y-44257731D01*
X97029068Y-44257738D01*
X97025965Y-44262171D01*
X97023677Y-44267077D01*
X97023675Y-44267081D01*
X96928386Y-44471427D01*
X96928383Y-44471432D01*
X96926097Y-44476337D01*
X96924698Y-44481557D01*
X96924694Y-44481569D01*
X96866337Y-44699365D01*
X96866335Y-44699371D01*
X96864937Y-44704592D01*
X96844341Y-44940000D01*
X96864937Y-45175408D01*
X96866336Y-45180630D01*
X96866337Y-45180634D01*
X96924694Y-45398430D01*
X96924697Y-45398438D01*
X96926097Y-45403663D01*
X96928385Y-45408570D01*
X96928386Y-45408572D01*
X97023678Y-45612927D01*
X97023681Y-45612933D01*
X97025965Y-45617830D01*
X97029064Y-45622257D01*
X97029066Y-45622259D01*
X97158399Y-45806966D01*
X97158402Y-45806970D01*
X97161505Y-45811401D01*
X97328599Y-45978495D01*
X97333032Y-45981599D01*
X97333038Y-45981604D01*
X97514158Y-46108425D01*
X97553024Y-46152743D01*
X97567035Y-46210000D01*
X97553024Y-46267257D01*
X97514159Y-46311575D01*
X97333041Y-46438395D01*
X97328599Y-46441505D01*
X97324775Y-46445328D01*
X97324769Y-46445334D01*
X97165334Y-46604769D01*
X97165328Y-46604775D01*
X97161505Y-46608599D01*
X97158402Y-46613029D01*
X97158399Y-46613034D01*
X97029073Y-46797731D01*
X97029068Y-46797738D01*
X97025965Y-46802171D01*
X97023677Y-46807077D01*
X97023675Y-46807081D01*
X96928386Y-47011427D01*
X96928383Y-47011432D01*
X96926097Y-47016337D01*
X96924698Y-47021557D01*
X96924694Y-47021569D01*
X96866337Y-47239365D01*
X96866335Y-47239371D01*
X96864937Y-47244592D01*
X96844341Y-47480000D01*
X96864937Y-47715408D01*
X96866336Y-47720630D01*
X96866337Y-47720634D01*
X96924694Y-47938430D01*
X96924697Y-47938438D01*
X96926097Y-47943663D01*
X96928385Y-47948570D01*
X96928386Y-47948572D01*
X97023678Y-48152927D01*
X97023681Y-48152933D01*
X97025965Y-48157830D01*
X97029064Y-48162257D01*
X97029066Y-48162259D01*
X97158399Y-48346966D01*
X97158402Y-48346970D01*
X97161505Y-48351401D01*
X97328599Y-48518495D01*
X97333032Y-48521599D01*
X97333038Y-48521604D01*
X97514158Y-48648425D01*
X97553024Y-48692743D01*
X97567035Y-48750000D01*
X97553024Y-48807257D01*
X97514159Y-48851575D01*
X97333041Y-48978395D01*
X97328599Y-48981505D01*
X97324775Y-48985328D01*
X97324769Y-48985334D01*
X97165334Y-49144769D01*
X97165328Y-49144775D01*
X97161505Y-49148599D01*
X97158402Y-49153029D01*
X97158399Y-49153034D01*
X97029073Y-49337731D01*
X97029068Y-49337738D01*
X97025965Y-49342171D01*
X97023677Y-49347077D01*
X97023675Y-49347081D01*
X96928386Y-49551427D01*
X96928383Y-49551432D01*
X96926097Y-49556337D01*
X96924698Y-49561557D01*
X96924694Y-49561569D01*
X96866337Y-49779365D01*
X96866335Y-49779371D01*
X96864937Y-49784592D01*
X96864465Y-49789977D01*
X96864465Y-49789982D01*
X96858009Y-49863780D01*
X96844341Y-50020000D01*
X96200500Y-50020000D01*
X96200500Y-39860000D01*
X96844341Y-39860000D01*
X96844813Y-39865395D01*
X96861161Y-40052256D01*
X96864937Y-40095408D01*
X96866336Y-40100630D01*
X96866337Y-40100634D01*
X96924694Y-40318430D01*
X96924697Y-40318438D01*
X96926097Y-40323663D01*
X96928385Y-40328570D01*
X96928386Y-40328572D01*
X97023678Y-40532927D01*
X97023681Y-40532933D01*
X97025965Y-40537830D01*
X97029064Y-40542257D01*
X97029066Y-40542259D01*
X97158399Y-40726966D01*
X97158402Y-40726970D01*
X97161505Y-40731401D01*
X97328599Y-40898495D01*
X97333031Y-40901598D01*
X97333033Y-40901600D01*
X97514595Y-41028731D01*
X97553460Y-41073049D01*
X97567471Y-41130306D01*
X97553460Y-41187563D01*
X97514595Y-41231881D01*
X97333352Y-41358788D01*
X97325092Y-41365719D01*
X97165719Y-41525092D01*
X97158784Y-41533357D01*
X97029508Y-41717982D01*
X97024110Y-41727332D01*
X96928856Y-41931602D01*
X96925168Y-41941736D01*
X96873056Y-42136219D01*
X96872688Y-42147448D01*
X96883631Y-42150000D01*
X99516369Y-42150000D01*
X99527311Y-42147448D01*
X99526943Y-42136219D01*
X99474831Y-41941736D01*
X99471143Y-41931602D01*
X99375889Y-41727332D01*
X99370491Y-41717982D01*
X99241215Y-41533357D01*
X99234280Y-41525092D01*
X99074909Y-41365721D01*
X99066643Y-41358784D01*
X98885405Y-41231880D01*
X98846540Y-41187562D01*
X98832529Y-41130305D01*
X98846540Y-41073048D01*
X98885406Y-41028730D01*
X98909701Y-41011719D01*
X99071401Y-40898495D01*
X99238495Y-40731401D01*
X99374035Y-40537830D01*
X99473903Y-40323663D01*
X99535063Y-40095408D01*
X99555659Y-39860000D01*
X99535063Y-39624592D01*
X99486572Y-39443619D01*
X99475305Y-39401569D01*
X99475304Y-39401567D01*
X99473903Y-39396337D01*
X99413948Y-39267765D01*
X101745788Y-39267765D01*
X101746282Y-39272262D01*
X101746283Y-39272267D01*
X101774917Y-39532506D01*
X101774918Y-39532513D01*
X101775414Y-39537018D01*
X101776559Y-39541398D01*
X101776561Y-39541408D01*
X101802755Y-39641600D01*
X101843928Y-39799088D01*
X101845693Y-39803242D01*
X101845696Y-39803250D01*
X101948099Y-40044223D01*
X101949870Y-40048390D01*
X101952226Y-40052251D01*
X101952229Y-40052256D01*
X102088618Y-40275737D01*
X102090982Y-40279610D01*
X102264255Y-40487820D01*
X102267630Y-40490844D01*
X102267631Y-40490845D01*
X102372330Y-40584656D01*
X102465998Y-40668582D01*
X102691910Y-40818044D01*
X102937176Y-40933020D01*
X103196569Y-41011060D01*
X103464561Y-41050500D01*
X103665369Y-41050500D01*
X103667631Y-41050500D01*
X103870156Y-41035677D01*
X104134553Y-40976780D01*
X104387558Y-40880014D01*
X104623777Y-40747441D01*
X104838177Y-40581888D01*
X105026186Y-40386881D01*
X105183799Y-40166579D01*
X105307656Y-39925675D01*
X105395118Y-39669305D01*
X105427391Y-39494578D01*
X115049500Y-39494578D01*
X115049501Y-39497872D01*
X115049853Y-39501150D01*
X115049854Y-39501161D01*
X115055079Y-39549768D01*
X115055080Y-39549773D01*
X115055909Y-39557483D01*
X115058619Y-39564749D01*
X115058620Y-39564753D01*
X115078989Y-39619365D01*
X115106204Y-39692331D01*
X115111518Y-39699430D01*
X115111519Y-39699431D01*
X115167367Y-39774035D01*
X115192454Y-39807546D01*
X115307669Y-39893796D01*
X115442517Y-39944091D01*
X115502127Y-39950500D01*
X117297872Y-39950499D01*
X117357483Y-39944091D01*
X117492331Y-39893796D01*
X117607546Y-39807546D01*
X117693796Y-39692331D01*
X117742810Y-39560916D01*
X117777789Y-39510537D01*
X117832634Y-39483084D01*
X117893927Y-39485273D01*
X117946673Y-39516569D01*
X118068599Y-39638495D01*
X118073031Y-39641598D01*
X118073033Y-39641600D01*
X118217260Y-39742589D01*
X118262170Y-39774035D01*
X118476337Y-39873903D01*
X118704592Y-39935063D01*
X118940000Y-39955659D01*
X119175408Y-39935063D01*
X119403663Y-39873903D01*
X119617830Y-39774035D01*
X119811401Y-39638495D01*
X119978495Y-39471401D01*
X120114035Y-39277830D01*
X120213903Y-39063663D01*
X120275063Y-38835408D01*
X120295659Y-38600000D01*
X120275063Y-38364592D01*
X120213903Y-38136337D01*
X120114035Y-37922171D01*
X119978495Y-37728599D01*
X119811401Y-37561505D01*
X119806970Y-37558402D01*
X119806966Y-37558399D01*
X119622259Y-37429066D01*
X119622257Y-37429064D01*
X119617830Y-37425965D01*
X119612933Y-37423681D01*
X119612927Y-37423678D01*
X119408572Y-37328386D01*
X119408570Y-37328385D01*
X119403663Y-37326097D01*
X119398438Y-37324697D01*
X119398430Y-37324694D01*
X119180634Y-37266337D01*
X119180630Y-37266336D01*
X119175408Y-37264937D01*
X119170020Y-37264465D01*
X119170017Y-37264465D01*
X118945395Y-37244813D01*
X118940000Y-37244341D01*
X118934605Y-37244813D01*
X118709982Y-37264465D01*
X118709977Y-37264465D01*
X118704592Y-37264937D01*
X118699371Y-37266335D01*
X118699365Y-37266337D01*
X118481569Y-37324694D01*
X118481557Y-37324698D01*
X118476337Y-37326097D01*
X118471432Y-37328383D01*
X118471427Y-37328386D01*
X118267081Y-37423675D01*
X118267077Y-37423677D01*
X118262171Y-37425965D01*
X118257738Y-37429068D01*
X118257731Y-37429073D01*
X118073034Y-37558399D01*
X118073029Y-37558402D01*
X118068599Y-37561505D01*
X118064774Y-37565329D01*
X118064775Y-37565329D01*
X117946673Y-37683431D01*
X117893926Y-37714726D01*
X117832633Y-37716915D01*
X117777789Y-37689462D01*
X117742810Y-37639082D01*
X117720786Y-37580034D01*
X117693796Y-37507669D01*
X117607546Y-37392454D01*
X117550387Y-37349665D01*
X117499431Y-37311519D01*
X117499430Y-37311518D01*
X117492331Y-37306204D01*
X117385442Y-37266337D01*
X117364752Y-37258620D01*
X117364750Y-37258619D01*
X117357483Y-37255909D01*
X117349770Y-37255079D01*
X117349767Y-37255079D01*
X117301180Y-37249855D01*
X117301169Y-37249854D01*
X117297873Y-37249500D01*
X117294550Y-37249500D01*
X115505439Y-37249500D01*
X115505420Y-37249500D01*
X115502128Y-37249501D01*
X115498850Y-37249853D01*
X115498838Y-37249854D01*
X115450231Y-37255079D01*
X115450225Y-37255080D01*
X115442517Y-37255909D01*
X115435252Y-37258618D01*
X115435246Y-37258620D01*
X115315980Y-37303104D01*
X115315978Y-37303104D01*
X115307669Y-37306204D01*
X115300572Y-37311516D01*
X115300568Y-37311519D01*
X115199550Y-37387141D01*
X115199546Y-37387144D01*
X115192454Y-37392454D01*
X115187144Y-37399546D01*
X115187141Y-37399550D01*
X115111519Y-37500568D01*
X115111516Y-37500572D01*
X115106204Y-37507669D01*
X115103104Y-37515978D01*
X115103104Y-37515980D01*
X115058620Y-37635247D01*
X115058619Y-37635250D01*
X115055909Y-37642517D01*
X115055079Y-37650227D01*
X115055079Y-37650232D01*
X115049855Y-37698819D01*
X115049854Y-37698831D01*
X115049500Y-37702127D01*
X115049500Y-37705448D01*
X115049500Y-37705449D01*
X115049500Y-39494560D01*
X115049500Y-39494578D01*
X105427391Y-39494578D01*
X105444319Y-39402933D01*
X105454212Y-39132235D01*
X105424586Y-38862982D01*
X105356072Y-38600912D01*
X105250130Y-38351610D01*
X105109018Y-38120390D01*
X104935745Y-37912180D01*
X104830759Y-37818112D01*
X104737382Y-37734446D01*
X104737378Y-37734442D01*
X104734002Y-37731418D01*
X104508090Y-37581956D01*
X104503996Y-37580036D01*
X104503991Y-37580034D01*
X104266929Y-37468904D01*
X104266925Y-37468902D01*
X104262824Y-37466980D01*
X104258477Y-37465672D01*
X104258474Y-37465671D01*
X104007772Y-37390246D01*
X104007771Y-37390245D01*
X104003431Y-37388940D01*
X103998957Y-37388281D01*
X103998950Y-37388280D01*
X103739913Y-37350158D01*
X103739907Y-37350157D01*
X103735439Y-37349500D01*
X103532369Y-37349500D01*
X103530120Y-37349664D01*
X103530109Y-37349665D01*
X103334363Y-37363992D01*
X103334359Y-37363992D01*
X103329844Y-37364323D01*
X103325426Y-37365307D01*
X103325420Y-37365308D01*
X103069877Y-37422232D01*
X103069861Y-37422236D01*
X103065447Y-37423220D01*
X103061216Y-37424838D01*
X103061210Y-37424840D01*
X102816673Y-37518367D01*
X102816663Y-37518371D01*
X102812442Y-37519986D01*
X102808494Y-37522201D01*
X102808489Y-37522204D01*
X102580176Y-37650340D01*
X102580171Y-37650343D01*
X102576223Y-37652559D01*
X102572639Y-37655325D01*
X102572635Y-37655329D01*
X102365407Y-37815343D01*
X102365394Y-37815354D01*
X102361823Y-37818112D01*
X102358685Y-37821366D01*
X102358678Y-37821373D01*
X102176958Y-38009857D01*
X102176952Y-38009864D01*
X102173814Y-38013119D01*
X102171189Y-38016787D01*
X102171179Y-38016800D01*
X102018834Y-38229740D01*
X102018830Y-38229745D01*
X102016201Y-38233421D01*
X102014132Y-38237444D01*
X102014129Y-38237450D01*
X101894416Y-38470293D01*
X101894411Y-38470304D01*
X101892344Y-38474325D01*
X101890884Y-38478602D01*
X101890879Y-38478616D01*
X101806348Y-38726395D01*
X101806344Y-38726407D01*
X101804882Y-38730695D01*
X101804057Y-38735159D01*
X101804057Y-38735161D01*
X101756504Y-38992606D01*
X101756502Y-38992619D01*
X101755681Y-38997067D01*
X101755515Y-39001593D01*
X101755515Y-39001599D01*
X101748737Y-39187081D01*
X101745788Y-39267765D01*
X99413948Y-39267765D01*
X99374035Y-39182171D01*
X99238495Y-38988599D01*
X99116180Y-38866284D01*
X99084885Y-38813539D01*
X99082696Y-38752246D01*
X99110149Y-38697401D01*
X99160529Y-38662422D01*
X99283777Y-38616452D01*
X99299189Y-38608037D01*
X99400092Y-38532501D01*
X99412501Y-38520092D01*
X99488037Y-38419189D01*
X99496452Y-38403777D01*
X99540888Y-38284641D01*
X99544426Y-38269667D01*
X99549646Y-38221114D01*
X99550000Y-38214518D01*
X99550000Y-37586326D01*
X99546549Y-37573450D01*
X99533674Y-37570000D01*
X96866326Y-37570000D01*
X96853450Y-37573450D01*
X96850000Y-37586326D01*
X96850000Y-38214518D01*
X96850353Y-38221114D01*
X96855573Y-38269667D01*
X96859111Y-38284641D01*
X96903547Y-38403777D01*
X96911962Y-38419189D01*
X96987498Y-38520092D01*
X96999907Y-38532501D01*
X97100810Y-38608037D01*
X97116220Y-38616451D01*
X97239471Y-38662422D01*
X97289850Y-38697401D01*
X97317303Y-38752246D01*
X97315114Y-38813538D01*
X97283819Y-38866284D01*
X97161505Y-38988599D01*
X97158402Y-38993029D01*
X97158399Y-38993034D01*
X97029073Y-39177731D01*
X97029068Y-39177738D01*
X97025965Y-39182171D01*
X97023677Y-39187077D01*
X97023675Y-39187081D01*
X96928386Y-39391427D01*
X96928383Y-39391432D01*
X96926097Y-39396337D01*
X96924698Y-39401557D01*
X96924694Y-39401569D01*
X96866337Y-39619365D01*
X96866335Y-39619371D01*
X96864937Y-39624592D01*
X96864465Y-39629977D01*
X96864465Y-39629982D01*
X96851862Y-39774035D01*
X96844341Y-39860000D01*
X96200500Y-39860000D01*
X96200500Y-37053674D01*
X96850000Y-37053674D01*
X96853450Y-37066549D01*
X96866326Y-37070000D01*
X97933674Y-37070000D01*
X97946549Y-37066549D01*
X97950000Y-37053674D01*
X98450000Y-37053674D01*
X98453450Y-37066549D01*
X98466326Y-37070000D01*
X99533674Y-37070000D01*
X99546549Y-37066549D01*
X99550000Y-37053674D01*
X99550000Y-36425482D01*
X99549646Y-36418885D01*
X99544426Y-36370332D01*
X99540888Y-36355358D01*
X99496452Y-36236222D01*
X99488037Y-36220810D01*
X99412501Y-36119907D01*
X99400092Y-36107498D01*
X99299189Y-36031962D01*
X99283777Y-36023547D01*
X99164641Y-35979111D01*
X99149667Y-35975573D01*
X99101114Y-35970353D01*
X99094518Y-35970000D01*
X98466326Y-35970000D01*
X98453450Y-35973450D01*
X98450000Y-35986326D01*
X98450000Y-37053674D01*
X97950000Y-37053674D01*
X97950000Y-35986326D01*
X97946549Y-35973450D01*
X97933674Y-35970000D01*
X97305482Y-35970000D01*
X97298885Y-35970353D01*
X97250332Y-35975573D01*
X97235358Y-35979111D01*
X97116222Y-36023547D01*
X97100810Y-36031962D01*
X96999907Y-36107498D01*
X96987498Y-36119907D01*
X96911962Y-36220810D01*
X96903547Y-36236222D01*
X96859111Y-36355358D01*
X96855573Y-36370332D01*
X96850353Y-36418885D01*
X96850000Y-36425482D01*
X96850000Y-37053674D01*
X96200500Y-37053674D01*
X96200500Y-35324500D01*
X96217113Y-35262500D01*
X96262500Y-35217113D01*
X96324500Y-35200500D01*
X120875500Y-35200500D01*
X120937500Y-35217113D01*
G37*
%TD.AperFunction*%
%TD*%
M02*
