M48
; DRILL file {KiCad 7.0.0-da2b9df05c~163~ubuntu22.04.1} date Di 21 Feb 2023 15:24:59 CET
; FORMAT={-:-/ absolute / inch / decimal}
; #@! TF.CreationDate,2023-02-21T15:24:59+01:00
; #@! TF.GenerationSoftware,Kicad,Pcbnew,7.0.0-da2b9df05c~163~ubuntu22.04.1
; #@! TF.FileFunction,Plated,1,2,PTH
FMAT,2
INCH
; #@! TA.AperFunction,Plated,PTH,ViaDrill
T1C0.0157
; #@! TA.AperFunction,Plated,PTH,ComponentDrill
T2C0.0394
%
G90
G05
T1
X4.2992Y-1.748
X4.2992Y-1.7874
X4.2992Y-1.8268
X4.3622Y-1.9291
X4.4094Y-1.9291
X4.4094Y-1.9764
X4.4252Y-1.748
X4.4252Y-1.7874
X4.4252Y-1.8268
X4.4961Y-1.7717
X4.4961Y-1.8189
X4.5197Y-1.7008
X4.5433Y-1.4173
X4.6063Y-1.4173
X4.6693Y-1.4173
X4.7323Y-1.4173
T2
X3.8661Y-1.4693
X3.8661Y-1.5693
X3.8661Y-1.6693
X3.8661Y-1.7693
X3.8661Y-1.8693
X3.8661Y-1.9693
X4.5827Y-1.5197
X4.588Y-1.9528
X4.6827Y-1.5197
X4.688Y-1.9528
T0
M30
