M48
; DRILL file {KiCad 5.1.5+dfsg1-2build2} date Mi 01 Jul 2020 21:45:03 CEST
; FORMAT={-:-/ absolute / metric / decimal}
; #@! TF.CreationDate,2020-07-01T21:45:03+02:00
; #@! TF.GenerationSoftware,Kicad,Pcbnew,5.1.5+dfsg1-2build2
; #@! TF.FileFunction,Plated,1,4,PTH
FMAT,2
METRIC
T1C0.400
T2C0.750
T3C0.950
T4C1.000
T5C3.000
%
G90
G05
T1
X66.9Y-133.0
X67.1Y-54.4
X67.1Y-56.225
X67.1Y-58.05
X67.1Y-59.875
X67.1Y-61.7
X68.1Y-69.7
X69.05Y-54.4
X69.1Y-97.3
X69.4Y-118.98
X69.56Y-106.35
X69.59Y-105.12
X69.6Y-69.7
X70.0Y-108.0
X70.0Y-109.8
X70.0Y-111.2
X70.1Y-97.33
X70.26Y-125.97
X70.82Y-105.12
X70.82Y-106.32
X71.0Y-54.4
X71.095Y-112.685
X71.1Y-69.7
X71.36Y-125.97
X71.94Y-93.317
X72.0Y-108.0
X72.0Y-109.9
X72.0Y-111.3
X72.15Y-105.09
X72.5Y-69.7
X72.5Y-125.96
X72.7Y-94.73
X72.72Y-95.92
X72.95Y-54.4
X73.51Y-125.97
X73.6Y-108.1
X73.6Y-109.8
X73.6Y-111.3
X73.68Y-106.4
X73.8Y-74.5
X74.1Y-69.7
X74.5Y-90.5
X74.5Y-93.8
X74.77Y-116.09
X74.9Y-54.4
X74.99Y-97.56
X75.13Y-106.37
X75.18Y-105.12
X75.4Y-108.1
X75.4Y-109.8
X75.4Y-111.3
X75.4Y-112.6
X75.5Y-69.7
X76.0Y-97.59
X76.2Y-90.5
X76.2Y-93.8
X76.44Y-105.12
X76.55Y-116.05
X76.6Y-41.03
X76.896Y-96.963
X78.46Y-41.03
X80.3Y-41.03
X80.9Y-69.3
X81.4Y-76.0
X81.4Y-77.3
X81.4Y-78.6
X81.81Y-112.75
X81.83Y-110.49
X81.83Y-111.55
X82.1Y-41.03
X82.511Y-98.748
X82.6Y-60.8
X82.6Y-62.0
X82.6Y-63.2
X82.86Y-101.5
X82.87Y-100.08
X82.91Y-111.52
X83.73Y-41.01
X83.8Y-64.0
X85.1Y-64.0
X87.2Y-126.3
X87.2Y-130.1
X87.2Y-131.4
X87.2Y-132.9
X87.6Y-46.1
X87.6Y-47.9
X87.6Y-49.54
X87.6Y-51.18
X87.6Y-52.82
X87.6Y-54.46
X87.6Y-56.1
X88.3Y-127.2
X88.3Y-129.1
X88.898Y-132.9
X88.9Y-125.0
X89.2Y-112.0
X89.2Y-113.7
X89.2Y-115.4
X89.2Y-117.1
X90.21Y-85.84
X90.23Y-84.8
X90.33Y-76.75
X90.33Y-77.76
X90.33Y-78.77
X90.33Y-79.78
X90.34Y-73.05
X90.34Y-74.19
X90.34Y-75.42
X90.48Y-107.33
X90.54Y-100.04
X90.596Y-132.9
X90.6Y-81.57
X91.43Y-82.17
X92.294Y-132.9
X92.54Y-82.17
X93.5Y-98.59
X93.54Y-84.6
X93.74Y-77.53
X93.97Y-73.01
X93.97Y-73.92
X93.991Y-132.9
X94.09Y-66.41
X94.09Y-96.9
X94.1Y-67.5
X94.51Y-118.12
X94.98Y-88.44
X94.99Y-89.43
X95.01Y-91.95
X95.02Y-90.94
X95.2Y-93.8
X95.689Y-132.93
X95.85Y-92.53
X95.88Y-106.39
X96.311Y-118.12
X96.47Y-84.49
X96.5Y-93.8
X97.387Y-132.93
X97.61Y-88.49
X97.63Y-89.4
X97.72Y-105.57
X98.112Y-118.12
X98.13Y-64.39
X98.13Y-65.33
X98.13Y-66.37
X98.88Y-60.95
X98.88Y-61.92
X98.88Y-62.99
X99.085Y-132.93
X99.35Y-88.94
X99.4Y-93.8
X99.913Y-118.12
X100.21Y-82.47
X100.22Y-83.49
X100.4Y-74.83
X100.4Y-75.72
X100.54Y-104.29
X100.55Y-105.24
X100.61Y-88.24
X100.7Y-93.8
X100.783Y-132.93
X101.5Y-103.92
X101.714Y-118.12
X102.22Y-56.49
X102.24Y-58.72
X102.25Y-54.53
X102.481Y-132.93
X102.66Y-80.41
X102.66Y-81.31
X102.71Y-103.94
X103.01Y-114.66
X103.05Y-111.41
X103.516Y-118.12
X103.92Y-103.95
X103.97Y-114.67
X103.98Y-111.44
X104.179Y-132.93
X104.29Y-77.23
X104.29Y-78.08
X104.29Y-78.94
X104.323Y-53.333
X104.345Y-109.51
X104.36Y-52.33
X104.44Y-63.35
X104.8Y-90.9
X104.85Y-104.28
X104.93Y-105.29
X105.317Y-118.12
X105.876Y-132.93
X106.03Y-80.79
X106.04Y-78.91
X106.05Y-77.18
X106.06Y-91.94
X106.23Y-103.5
X106.41Y-89.6
X106.625Y-111.42
X106.696Y-83.626
X107.118Y-118.12
X107.54Y-93.79
X107.574Y-132.93
X107.58Y-92.32
X107.67Y-90.32
X107.8Y-63.33
X108.05Y-61.6
X108.07Y-60.66
X108.58Y-52.7
X108.86Y-90.65
X108.919Y-118.12
X108.96Y-74.14
X109.272Y-132.93
X109.415Y-93.72
X109.79Y-79.37
X109.88Y-65.51
X109.88Y-66.87
X110.22Y-63.2
X110.25Y-60.66
X110.494Y-80.462
X110.69Y-121.467
X110.69Y-123.268
X110.69Y-125.069
X110.72Y-103.67
X110.72Y-105.471
X110.72Y-107.272
X110.72Y-109.073
X110.72Y-110.874
X110.72Y-112.676
X110.72Y-114.477
X110.72Y-116.278
X110.72Y-118.079
X110.72Y-119.88
X110.81Y-54.5
X110.84Y-52.67
X110.84Y-56.54
X110.97Y-132.93
X111.0Y-131.4
T2
X69.27Y-75.85
X69.27Y-77.85
X69.27Y-79.85
X69.27Y-81.85
X69.27Y-83.85
X69.27Y-85.85
X69.27Y-87.85
X69.27Y-89.85
X69.27Y-91.85
X76.99Y-76.32
X76.99Y-77.59
X76.99Y-78.86
X79.25Y-45.18
X79.25Y-47.18
X79.25Y-49.18
X79.25Y-51.18
X86.19Y-76.348
X86.19Y-77.618
X86.19Y-78.888
T3
X99.89Y-101.44
X102.39Y-101.44
X104.89Y-101.44
X107.39Y-101.44
T4
X69.332Y-58.866
X69.332Y-71.566
X71.872Y-58.866
X71.872Y-71.566
X74.412Y-58.866
X74.412Y-71.566
X76.952Y-58.866
X76.952Y-71.566
X79.492Y-58.866
X79.492Y-71.566
X82.032Y-58.866
X82.032Y-71.566
X84.572Y-58.866
X84.572Y-71.566
X87.112Y-58.866
X87.112Y-71.566
X73.96Y-81.82
X73.96Y-86.9
X79.04Y-81.82
X79.04Y-86.9
X81.58Y-81.82
X81.58Y-86.9
X84.12Y-81.82
X84.12Y-86.9
X86.66Y-81.82
X86.66Y-86.9
X84.582Y-92.456
X84.582Y-94.996
X84.582Y-97.536
X84.582Y-100.076
X84.582Y-102.616
X84.582Y-105.156
X84.582Y-107.696
X84.582Y-110.236
X84.582Y-112.776
X84.582Y-115.316
X84.582Y-117.856
X84.582Y-120.396
X84.582Y-122.936
X87.122Y-92.456
X87.122Y-94.996
X87.122Y-97.536
X87.122Y-100.076
X87.122Y-102.616
X87.122Y-105.156
X87.122Y-107.696
X87.122Y-110.236
X87.122Y-112.776
X87.122Y-115.316
X87.122Y-117.856
X87.122Y-120.396
X87.122Y-122.936
X82.62Y-128.26
X82.62Y-130.76
T5
X92.99Y-46.784
X97.79Y-43.984
X97.79Y-49.784
T0
M30
