G04 #@! TF.GenerationSoftware,KiCad,Pcbnew,5.1.5+dfsg1-2build2*
G04 #@! TF.CreationDate,2020-07-02T19:50:54+02:00*
G04 #@! TF.ProjectId,BaSe_PWR_V3_2,42615365-5f50-4575-925f-56335f322e6b,rev?*
G04 #@! TF.SameCoordinates,Original*
G04 #@! TF.FileFunction,Soldermask,Bot*
G04 #@! TF.FilePolarity,Negative*
%FSLAX46Y46*%
G04 Gerber Fmt 4.6, Leading zero omitted, Abs format (unit mm)*
G04 Created by KiCad (PCBNEW 5.1.5+dfsg1-2build2) date 2020-07-02 19:50:54*
%MOMM*%
%LPD*%
G04 APERTURE LIST*
%ADD10C,0.100000*%
%ADD11O,1.700000X1.700000*%
%ADD12R,1.700000X1.700000*%
%ADD13C,1.200000*%
%ADD14O,1.700000X1.950000*%
%ADD15C,4.400000*%
%ADD16R,8.540000X5.350000*%
%ADD17R,4.000000X0.890000*%
%ADD18R,1.100000X1.100000*%
%ADD19R,3.660000X2.085000*%
%ADD20R,3.150000X1.960000*%
%ADD21R,3.300000X2.500000*%
%ADD22R,1.800000X2.500000*%
%ADD23O,2.000000X1.700000*%
%ADD24R,0.850000X0.500000*%
%ADD25R,0.900000X0.800000*%
%ADD26O,1.750000X1.200000*%
%ADD27R,2.085000X3.660000*%
%ADD28C,2.000000*%
%ADD29R,1.500000X1.050000*%
%ADD30O,1.500000X1.050000*%
%ADD31C,2.200000*%
%ADD32R,0.500000X0.850000*%
G04 APERTURE END LIST*
D10*
G36*
X104600000Y-132330000D02*
G01*
X91300000Y-132330000D01*
X91300000Y-119030000D01*
X104600000Y-119030000D01*
X104600000Y-132330000D01*
G37*
G36*
X69330779Y-115191144D02*
G01*
X69353834Y-115194563D01*
X69376443Y-115200227D01*
X69398387Y-115208079D01*
X69419457Y-115218044D01*
X69439448Y-115230026D01*
X69458168Y-115243910D01*
X69475438Y-115259562D01*
X69491090Y-115276832D01*
X69504974Y-115295552D01*
X69516956Y-115315543D01*
X69526921Y-115336613D01*
X69534773Y-115358557D01*
X69540437Y-115381166D01*
X69543856Y-115404221D01*
X69545000Y-115427500D01*
X69545000Y-116002500D01*
X69543856Y-116025779D01*
X69540437Y-116048834D01*
X69534773Y-116071443D01*
X69526921Y-116093387D01*
X69516956Y-116114457D01*
X69504974Y-116134448D01*
X69491090Y-116153168D01*
X69475438Y-116170438D01*
X69458168Y-116186090D01*
X69439448Y-116199974D01*
X69419457Y-116211956D01*
X69398387Y-116221921D01*
X69376443Y-116229773D01*
X69353834Y-116235437D01*
X69330779Y-116238856D01*
X69307500Y-116240000D01*
X68832500Y-116240000D01*
X68809221Y-116238856D01*
X68786166Y-116235437D01*
X68763557Y-116229773D01*
X68741613Y-116221921D01*
X68720543Y-116211956D01*
X68700552Y-116199974D01*
X68681832Y-116186090D01*
X68664562Y-116170438D01*
X68648910Y-116153168D01*
X68635026Y-116134448D01*
X68623044Y-116114457D01*
X68613079Y-116093387D01*
X68605227Y-116071443D01*
X68599563Y-116048834D01*
X68596144Y-116025779D01*
X68595000Y-116002500D01*
X68595000Y-115427500D01*
X68596144Y-115404221D01*
X68599563Y-115381166D01*
X68605227Y-115358557D01*
X68613079Y-115336613D01*
X68623044Y-115315543D01*
X68635026Y-115295552D01*
X68648910Y-115276832D01*
X68664562Y-115259562D01*
X68681832Y-115243910D01*
X68700552Y-115230026D01*
X68720543Y-115218044D01*
X68741613Y-115208079D01*
X68763557Y-115200227D01*
X68786166Y-115194563D01*
X68809221Y-115191144D01*
X68832500Y-115190000D01*
X69307500Y-115190000D01*
X69330779Y-115191144D01*
G37*
G36*
X69330779Y-113441144D02*
G01*
X69353834Y-113444563D01*
X69376443Y-113450227D01*
X69398387Y-113458079D01*
X69419457Y-113468044D01*
X69439448Y-113480026D01*
X69458168Y-113493910D01*
X69475438Y-113509562D01*
X69491090Y-113526832D01*
X69504974Y-113545552D01*
X69516956Y-113565543D01*
X69526921Y-113586613D01*
X69534773Y-113608557D01*
X69540437Y-113631166D01*
X69543856Y-113654221D01*
X69545000Y-113677500D01*
X69545000Y-114252500D01*
X69543856Y-114275779D01*
X69540437Y-114298834D01*
X69534773Y-114321443D01*
X69526921Y-114343387D01*
X69516956Y-114364457D01*
X69504974Y-114384448D01*
X69491090Y-114403168D01*
X69475438Y-114420438D01*
X69458168Y-114436090D01*
X69439448Y-114449974D01*
X69419457Y-114461956D01*
X69398387Y-114471921D01*
X69376443Y-114479773D01*
X69353834Y-114485437D01*
X69330779Y-114488856D01*
X69307500Y-114490000D01*
X68832500Y-114490000D01*
X68809221Y-114488856D01*
X68786166Y-114485437D01*
X68763557Y-114479773D01*
X68741613Y-114471921D01*
X68720543Y-114461956D01*
X68700552Y-114449974D01*
X68681832Y-114436090D01*
X68664562Y-114420438D01*
X68648910Y-114403168D01*
X68635026Y-114384448D01*
X68623044Y-114364457D01*
X68613079Y-114343387D01*
X68605227Y-114321443D01*
X68599563Y-114298834D01*
X68596144Y-114275779D01*
X68595000Y-114252500D01*
X68595000Y-113677500D01*
X68596144Y-113654221D01*
X68599563Y-113631166D01*
X68605227Y-113608557D01*
X68613079Y-113586613D01*
X68623044Y-113565543D01*
X68635026Y-113545552D01*
X68648910Y-113526832D01*
X68664562Y-113509562D01*
X68681832Y-113493910D01*
X68700552Y-113480026D01*
X68720543Y-113468044D01*
X68741613Y-113458079D01*
X68763557Y-113450227D01*
X68786166Y-113444563D01*
X68809221Y-113441144D01*
X68832500Y-113440000D01*
X69307500Y-113440000D01*
X69330779Y-113441144D01*
G37*
D11*
X87122000Y-92456000D03*
X84582000Y-92456000D03*
X87122000Y-94996000D03*
X84582000Y-94996000D03*
X87122000Y-97536000D03*
X84582000Y-97536000D03*
X87122000Y-100076000D03*
X84582000Y-100076000D03*
X87122000Y-102616000D03*
X84582000Y-102616000D03*
X87122000Y-105156000D03*
X84582000Y-105156000D03*
X87122000Y-107696000D03*
X84582000Y-107696000D03*
X87122000Y-110236000D03*
X84582000Y-110236000D03*
X87122000Y-112776000D03*
X84582000Y-112776000D03*
X87122000Y-115316000D03*
X84582000Y-115316000D03*
X87122000Y-117856000D03*
X84582000Y-117856000D03*
X87122000Y-120396000D03*
X84582000Y-120396000D03*
X87122000Y-122936000D03*
D12*
X84582000Y-122936000D03*
D10*
G36*
X76809504Y-91311204D02*
G01*
X76833773Y-91314804D01*
X76857571Y-91320765D01*
X76880671Y-91329030D01*
X76902849Y-91339520D01*
X76923893Y-91352133D01*
X76943598Y-91366747D01*
X76961777Y-91383223D01*
X76978253Y-91401402D01*
X76992867Y-91421107D01*
X77005480Y-91442151D01*
X77015970Y-91464329D01*
X77024235Y-91487429D01*
X77030196Y-91511227D01*
X77033796Y-91535496D01*
X77035000Y-91560000D01*
X77035000Y-92660000D01*
X77033796Y-92684504D01*
X77030196Y-92708773D01*
X77024235Y-92732571D01*
X77015970Y-92755671D01*
X77005480Y-92777849D01*
X76992867Y-92798893D01*
X76978253Y-92818598D01*
X76961777Y-92836777D01*
X76943598Y-92853253D01*
X76923893Y-92867867D01*
X76902849Y-92880480D01*
X76880671Y-92890970D01*
X76857571Y-92899235D01*
X76833773Y-92905196D01*
X76809504Y-92908796D01*
X76785000Y-92910000D01*
X73960000Y-92910000D01*
X73935496Y-92908796D01*
X73911227Y-92905196D01*
X73887429Y-92899235D01*
X73864329Y-92890970D01*
X73842151Y-92880480D01*
X73821107Y-92867867D01*
X73801402Y-92853253D01*
X73783223Y-92836777D01*
X73766747Y-92818598D01*
X73752133Y-92798893D01*
X73739520Y-92777849D01*
X73729030Y-92755671D01*
X73720765Y-92732571D01*
X73714804Y-92708773D01*
X73711204Y-92684504D01*
X73710000Y-92660000D01*
X73710000Y-91560000D01*
X73711204Y-91535496D01*
X73714804Y-91511227D01*
X73720765Y-91487429D01*
X73729030Y-91464329D01*
X73739520Y-91442151D01*
X73752133Y-91421107D01*
X73766747Y-91401402D01*
X73783223Y-91383223D01*
X73801402Y-91366747D01*
X73821107Y-91352133D01*
X73842151Y-91339520D01*
X73864329Y-91329030D01*
X73887429Y-91320765D01*
X73911227Y-91314804D01*
X73935496Y-91311204D01*
X73960000Y-91310000D01*
X76785000Y-91310000D01*
X76809504Y-91311204D01*
G37*
G36*
X81884504Y-91311204D02*
G01*
X81908773Y-91314804D01*
X81932571Y-91320765D01*
X81955671Y-91329030D01*
X81977849Y-91339520D01*
X81998893Y-91352133D01*
X82018598Y-91366747D01*
X82036777Y-91383223D01*
X82053253Y-91401402D01*
X82067867Y-91421107D01*
X82080480Y-91442151D01*
X82090970Y-91464329D01*
X82099235Y-91487429D01*
X82105196Y-91511227D01*
X82108796Y-91535496D01*
X82110000Y-91560000D01*
X82110000Y-92660000D01*
X82108796Y-92684504D01*
X82105196Y-92708773D01*
X82099235Y-92732571D01*
X82090970Y-92755671D01*
X82080480Y-92777849D01*
X82067867Y-92798893D01*
X82053253Y-92818598D01*
X82036777Y-92836777D01*
X82018598Y-92853253D01*
X81998893Y-92867867D01*
X81977849Y-92880480D01*
X81955671Y-92890970D01*
X81932571Y-92899235D01*
X81908773Y-92905196D01*
X81884504Y-92908796D01*
X81860000Y-92910000D01*
X79035000Y-92910000D01*
X79010496Y-92908796D01*
X78986227Y-92905196D01*
X78962429Y-92899235D01*
X78939329Y-92890970D01*
X78917151Y-92880480D01*
X78896107Y-92867867D01*
X78876402Y-92853253D01*
X78858223Y-92836777D01*
X78841747Y-92818598D01*
X78827133Y-92798893D01*
X78814520Y-92777849D01*
X78804030Y-92755671D01*
X78795765Y-92732571D01*
X78789804Y-92708773D01*
X78786204Y-92684504D01*
X78785000Y-92660000D01*
X78785000Y-91560000D01*
X78786204Y-91535496D01*
X78789804Y-91511227D01*
X78795765Y-91487429D01*
X78804030Y-91464329D01*
X78814520Y-91442151D01*
X78827133Y-91421107D01*
X78841747Y-91401402D01*
X78858223Y-91383223D01*
X78876402Y-91366747D01*
X78896107Y-91352133D01*
X78917151Y-91339520D01*
X78939329Y-91329030D01*
X78962429Y-91320765D01*
X78986227Y-91314804D01*
X79010496Y-91311204D01*
X79035000Y-91310000D01*
X81860000Y-91310000D01*
X81884504Y-91311204D01*
G37*
D13*
X108990000Y-99440000D03*
D14*
X99890000Y-101440000D03*
X102390000Y-101440000D03*
X104890000Y-101440000D03*
D10*
G36*
X108014504Y-100466204D02*
G01*
X108038773Y-100469804D01*
X108062571Y-100475765D01*
X108085671Y-100484030D01*
X108107849Y-100494520D01*
X108128893Y-100507133D01*
X108148598Y-100521747D01*
X108166777Y-100538223D01*
X108183253Y-100556402D01*
X108197867Y-100576107D01*
X108210480Y-100597151D01*
X108220970Y-100619329D01*
X108229235Y-100642429D01*
X108235196Y-100666227D01*
X108238796Y-100690496D01*
X108240000Y-100715000D01*
X108240000Y-102165000D01*
X108238796Y-102189504D01*
X108235196Y-102213773D01*
X108229235Y-102237571D01*
X108220970Y-102260671D01*
X108210480Y-102282849D01*
X108197867Y-102303893D01*
X108183253Y-102323598D01*
X108166777Y-102341777D01*
X108148598Y-102358253D01*
X108128893Y-102372867D01*
X108107849Y-102385480D01*
X108085671Y-102395970D01*
X108062571Y-102404235D01*
X108038773Y-102410196D01*
X108014504Y-102413796D01*
X107990000Y-102415000D01*
X106790000Y-102415000D01*
X106765496Y-102413796D01*
X106741227Y-102410196D01*
X106717429Y-102404235D01*
X106694329Y-102395970D01*
X106672151Y-102385480D01*
X106651107Y-102372867D01*
X106631402Y-102358253D01*
X106613223Y-102341777D01*
X106596747Y-102323598D01*
X106582133Y-102303893D01*
X106569520Y-102282849D01*
X106559030Y-102260671D01*
X106550765Y-102237571D01*
X106544804Y-102213773D01*
X106541204Y-102189504D01*
X106540000Y-102165000D01*
X106540000Y-100715000D01*
X106541204Y-100690496D01*
X106544804Y-100666227D01*
X106550765Y-100642429D01*
X106559030Y-100619329D01*
X106569520Y-100597151D01*
X106582133Y-100576107D01*
X106596747Y-100556402D01*
X106613223Y-100538223D01*
X106631402Y-100521747D01*
X106651107Y-100507133D01*
X106672151Y-100494520D01*
X106694329Y-100484030D01*
X106717429Y-100475765D01*
X106741227Y-100469804D01*
X106765496Y-100466204D01*
X106790000Y-100465000D01*
X107990000Y-100465000D01*
X108014504Y-100466204D01*
G37*
D15*
X92990000Y-46784000D03*
X97790000Y-43984000D03*
X97790000Y-49784000D03*
D16*
X72680000Y-101330000D03*
D17*
X79985000Y-97520000D03*
X79985000Y-98790000D03*
X79985000Y-100060000D03*
X79985000Y-101330000D03*
X79985000Y-102600000D03*
X79985000Y-103870000D03*
X79985000Y-105140000D03*
D10*
G36*
X102241027Y-70165542D02*
G01*
X102251948Y-70167162D01*
X102262657Y-70169844D01*
X102273052Y-70173564D01*
X102283032Y-70178284D01*
X102292502Y-70183960D01*
X102301369Y-70190536D01*
X102309550Y-70197950D01*
X102316964Y-70206131D01*
X102323540Y-70214998D01*
X102329216Y-70224468D01*
X102333936Y-70234448D01*
X102337656Y-70244843D01*
X102340338Y-70255552D01*
X102341958Y-70266473D01*
X102342500Y-70277500D01*
X102342500Y-70502500D01*
X102341958Y-70513527D01*
X102340338Y-70524448D01*
X102337656Y-70535157D01*
X102333936Y-70545552D01*
X102329216Y-70555532D01*
X102323540Y-70565002D01*
X102316964Y-70573869D01*
X102309550Y-70582050D01*
X102301369Y-70589464D01*
X102292502Y-70596040D01*
X102283032Y-70601716D01*
X102273052Y-70606436D01*
X102262657Y-70610156D01*
X102251948Y-70612838D01*
X102241027Y-70614458D01*
X102230000Y-70615000D01*
X100830000Y-70615000D01*
X100818973Y-70614458D01*
X100808052Y-70612838D01*
X100797343Y-70610156D01*
X100786948Y-70606436D01*
X100776968Y-70601716D01*
X100767498Y-70596040D01*
X100758631Y-70589464D01*
X100750450Y-70582050D01*
X100743036Y-70573869D01*
X100736460Y-70565002D01*
X100730784Y-70555532D01*
X100726064Y-70545552D01*
X100722344Y-70535157D01*
X100719662Y-70524448D01*
X100718042Y-70513527D01*
X100717500Y-70502500D01*
X100717500Y-70277500D01*
X100718042Y-70266473D01*
X100719662Y-70255552D01*
X100722344Y-70244843D01*
X100726064Y-70234448D01*
X100730784Y-70224468D01*
X100736460Y-70214998D01*
X100743036Y-70206131D01*
X100750450Y-70197950D01*
X100758631Y-70190536D01*
X100767498Y-70183960D01*
X100776968Y-70178284D01*
X100786948Y-70173564D01*
X100797343Y-70169844D01*
X100808052Y-70167162D01*
X100818973Y-70165542D01*
X100830000Y-70165000D01*
X102230000Y-70165000D01*
X102241027Y-70165542D01*
G37*
G36*
X102241027Y-69515542D02*
G01*
X102251948Y-69517162D01*
X102262657Y-69519844D01*
X102273052Y-69523564D01*
X102283032Y-69528284D01*
X102292502Y-69533960D01*
X102301369Y-69540536D01*
X102309550Y-69547950D01*
X102316964Y-69556131D01*
X102323540Y-69564998D01*
X102329216Y-69574468D01*
X102333936Y-69584448D01*
X102337656Y-69594843D01*
X102340338Y-69605552D01*
X102341958Y-69616473D01*
X102342500Y-69627500D01*
X102342500Y-69852500D01*
X102341958Y-69863527D01*
X102340338Y-69874448D01*
X102337656Y-69885157D01*
X102333936Y-69895552D01*
X102329216Y-69905532D01*
X102323540Y-69915002D01*
X102316964Y-69923869D01*
X102309550Y-69932050D01*
X102301369Y-69939464D01*
X102292502Y-69946040D01*
X102283032Y-69951716D01*
X102273052Y-69956436D01*
X102262657Y-69960156D01*
X102251948Y-69962838D01*
X102241027Y-69964458D01*
X102230000Y-69965000D01*
X100830000Y-69965000D01*
X100818973Y-69964458D01*
X100808052Y-69962838D01*
X100797343Y-69960156D01*
X100786948Y-69956436D01*
X100776968Y-69951716D01*
X100767498Y-69946040D01*
X100758631Y-69939464D01*
X100750450Y-69932050D01*
X100743036Y-69923869D01*
X100736460Y-69915002D01*
X100730784Y-69905532D01*
X100726064Y-69895552D01*
X100722344Y-69885157D01*
X100719662Y-69874448D01*
X100718042Y-69863527D01*
X100717500Y-69852500D01*
X100717500Y-69627500D01*
X100718042Y-69616473D01*
X100719662Y-69605552D01*
X100722344Y-69594843D01*
X100726064Y-69584448D01*
X100730784Y-69574468D01*
X100736460Y-69564998D01*
X100743036Y-69556131D01*
X100750450Y-69547950D01*
X100758631Y-69540536D01*
X100767498Y-69533960D01*
X100776968Y-69528284D01*
X100786948Y-69523564D01*
X100797343Y-69519844D01*
X100808052Y-69517162D01*
X100818973Y-69515542D01*
X100830000Y-69515000D01*
X102230000Y-69515000D01*
X102241027Y-69515542D01*
G37*
G36*
X102241027Y-68865542D02*
G01*
X102251948Y-68867162D01*
X102262657Y-68869844D01*
X102273052Y-68873564D01*
X102283032Y-68878284D01*
X102292502Y-68883960D01*
X102301369Y-68890536D01*
X102309550Y-68897950D01*
X102316964Y-68906131D01*
X102323540Y-68914998D01*
X102329216Y-68924468D01*
X102333936Y-68934448D01*
X102337656Y-68944843D01*
X102340338Y-68955552D01*
X102341958Y-68966473D01*
X102342500Y-68977500D01*
X102342500Y-69202500D01*
X102341958Y-69213527D01*
X102340338Y-69224448D01*
X102337656Y-69235157D01*
X102333936Y-69245552D01*
X102329216Y-69255532D01*
X102323540Y-69265002D01*
X102316964Y-69273869D01*
X102309550Y-69282050D01*
X102301369Y-69289464D01*
X102292502Y-69296040D01*
X102283032Y-69301716D01*
X102273052Y-69306436D01*
X102262657Y-69310156D01*
X102251948Y-69312838D01*
X102241027Y-69314458D01*
X102230000Y-69315000D01*
X100830000Y-69315000D01*
X100818973Y-69314458D01*
X100808052Y-69312838D01*
X100797343Y-69310156D01*
X100786948Y-69306436D01*
X100776968Y-69301716D01*
X100767498Y-69296040D01*
X100758631Y-69289464D01*
X100750450Y-69282050D01*
X100743036Y-69273869D01*
X100736460Y-69265002D01*
X100730784Y-69255532D01*
X100726064Y-69245552D01*
X100722344Y-69235157D01*
X100719662Y-69224448D01*
X100718042Y-69213527D01*
X100717500Y-69202500D01*
X100717500Y-68977500D01*
X100718042Y-68966473D01*
X100719662Y-68955552D01*
X100722344Y-68944843D01*
X100726064Y-68934448D01*
X100730784Y-68924468D01*
X100736460Y-68914998D01*
X100743036Y-68906131D01*
X100750450Y-68897950D01*
X100758631Y-68890536D01*
X100767498Y-68883960D01*
X100776968Y-68878284D01*
X100786948Y-68873564D01*
X100797343Y-68869844D01*
X100808052Y-68867162D01*
X100818973Y-68865542D01*
X100830000Y-68865000D01*
X102230000Y-68865000D01*
X102241027Y-68865542D01*
G37*
G36*
X102241027Y-68215542D02*
G01*
X102251948Y-68217162D01*
X102262657Y-68219844D01*
X102273052Y-68223564D01*
X102283032Y-68228284D01*
X102292502Y-68233960D01*
X102301369Y-68240536D01*
X102309550Y-68247950D01*
X102316964Y-68256131D01*
X102323540Y-68264998D01*
X102329216Y-68274468D01*
X102333936Y-68284448D01*
X102337656Y-68294843D01*
X102340338Y-68305552D01*
X102341958Y-68316473D01*
X102342500Y-68327500D01*
X102342500Y-68552500D01*
X102341958Y-68563527D01*
X102340338Y-68574448D01*
X102337656Y-68585157D01*
X102333936Y-68595552D01*
X102329216Y-68605532D01*
X102323540Y-68615002D01*
X102316964Y-68623869D01*
X102309550Y-68632050D01*
X102301369Y-68639464D01*
X102292502Y-68646040D01*
X102283032Y-68651716D01*
X102273052Y-68656436D01*
X102262657Y-68660156D01*
X102251948Y-68662838D01*
X102241027Y-68664458D01*
X102230000Y-68665000D01*
X100830000Y-68665000D01*
X100818973Y-68664458D01*
X100808052Y-68662838D01*
X100797343Y-68660156D01*
X100786948Y-68656436D01*
X100776968Y-68651716D01*
X100767498Y-68646040D01*
X100758631Y-68639464D01*
X100750450Y-68632050D01*
X100743036Y-68623869D01*
X100736460Y-68615002D01*
X100730784Y-68605532D01*
X100726064Y-68595552D01*
X100722344Y-68585157D01*
X100719662Y-68574448D01*
X100718042Y-68563527D01*
X100717500Y-68552500D01*
X100717500Y-68327500D01*
X100718042Y-68316473D01*
X100719662Y-68305552D01*
X100722344Y-68294843D01*
X100726064Y-68284448D01*
X100730784Y-68274468D01*
X100736460Y-68264998D01*
X100743036Y-68256131D01*
X100750450Y-68247950D01*
X100758631Y-68240536D01*
X100767498Y-68233960D01*
X100776968Y-68228284D01*
X100786948Y-68223564D01*
X100797343Y-68219844D01*
X100808052Y-68217162D01*
X100818973Y-68215542D01*
X100830000Y-68215000D01*
X102230000Y-68215000D01*
X102241027Y-68215542D01*
G37*
G36*
X106466027Y-68215542D02*
G01*
X106476948Y-68217162D01*
X106487657Y-68219844D01*
X106498052Y-68223564D01*
X106508032Y-68228284D01*
X106517502Y-68233960D01*
X106526369Y-68240536D01*
X106534550Y-68247950D01*
X106541964Y-68256131D01*
X106548540Y-68264998D01*
X106554216Y-68274468D01*
X106558936Y-68284448D01*
X106562656Y-68294843D01*
X106565338Y-68305552D01*
X106566958Y-68316473D01*
X106567500Y-68327500D01*
X106567500Y-68552500D01*
X106566958Y-68563527D01*
X106565338Y-68574448D01*
X106562656Y-68585157D01*
X106558936Y-68595552D01*
X106554216Y-68605532D01*
X106548540Y-68615002D01*
X106541964Y-68623869D01*
X106534550Y-68632050D01*
X106526369Y-68639464D01*
X106517502Y-68646040D01*
X106508032Y-68651716D01*
X106498052Y-68656436D01*
X106487657Y-68660156D01*
X106476948Y-68662838D01*
X106466027Y-68664458D01*
X106455000Y-68665000D01*
X105055000Y-68665000D01*
X105043973Y-68664458D01*
X105033052Y-68662838D01*
X105022343Y-68660156D01*
X105011948Y-68656436D01*
X105001968Y-68651716D01*
X104992498Y-68646040D01*
X104983631Y-68639464D01*
X104975450Y-68632050D01*
X104968036Y-68623869D01*
X104961460Y-68615002D01*
X104955784Y-68605532D01*
X104951064Y-68595552D01*
X104947344Y-68585157D01*
X104944662Y-68574448D01*
X104943042Y-68563527D01*
X104942500Y-68552500D01*
X104942500Y-68327500D01*
X104943042Y-68316473D01*
X104944662Y-68305552D01*
X104947344Y-68294843D01*
X104951064Y-68284448D01*
X104955784Y-68274468D01*
X104961460Y-68264998D01*
X104968036Y-68256131D01*
X104975450Y-68247950D01*
X104983631Y-68240536D01*
X104992498Y-68233960D01*
X105001968Y-68228284D01*
X105011948Y-68223564D01*
X105022343Y-68219844D01*
X105033052Y-68217162D01*
X105043973Y-68215542D01*
X105055000Y-68215000D01*
X106455000Y-68215000D01*
X106466027Y-68215542D01*
G37*
G36*
X106466027Y-68865542D02*
G01*
X106476948Y-68867162D01*
X106487657Y-68869844D01*
X106498052Y-68873564D01*
X106508032Y-68878284D01*
X106517502Y-68883960D01*
X106526369Y-68890536D01*
X106534550Y-68897950D01*
X106541964Y-68906131D01*
X106548540Y-68914998D01*
X106554216Y-68924468D01*
X106558936Y-68934448D01*
X106562656Y-68944843D01*
X106565338Y-68955552D01*
X106566958Y-68966473D01*
X106567500Y-68977500D01*
X106567500Y-69202500D01*
X106566958Y-69213527D01*
X106565338Y-69224448D01*
X106562656Y-69235157D01*
X106558936Y-69245552D01*
X106554216Y-69255532D01*
X106548540Y-69265002D01*
X106541964Y-69273869D01*
X106534550Y-69282050D01*
X106526369Y-69289464D01*
X106517502Y-69296040D01*
X106508032Y-69301716D01*
X106498052Y-69306436D01*
X106487657Y-69310156D01*
X106476948Y-69312838D01*
X106466027Y-69314458D01*
X106455000Y-69315000D01*
X105055000Y-69315000D01*
X105043973Y-69314458D01*
X105033052Y-69312838D01*
X105022343Y-69310156D01*
X105011948Y-69306436D01*
X105001968Y-69301716D01*
X104992498Y-69296040D01*
X104983631Y-69289464D01*
X104975450Y-69282050D01*
X104968036Y-69273869D01*
X104961460Y-69265002D01*
X104955784Y-69255532D01*
X104951064Y-69245552D01*
X104947344Y-69235157D01*
X104944662Y-69224448D01*
X104943042Y-69213527D01*
X104942500Y-69202500D01*
X104942500Y-68977500D01*
X104943042Y-68966473D01*
X104944662Y-68955552D01*
X104947344Y-68944843D01*
X104951064Y-68934448D01*
X104955784Y-68924468D01*
X104961460Y-68914998D01*
X104968036Y-68906131D01*
X104975450Y-68897950D01*
X104983631Y-68890536D01*
X104992498Y-68883960D01*
X105001968Y-68878284D01*
X105011948Y-68873564D01*
X105022343Y-68869844D01*
X105033052Y-68867162D01*
X105043973Y-68865542D01*
X105055000Y-68865000D01*
X106455000Y-68865000D01*
X106466027Y-68865542D01*
G37*
G36*
X106466027Y-69515542D02*
G01*
X106476948Y-69517162D01*
X106487657Y-69519844D01*
X106498052Y-69523564D01*
X106508032Y-69528284D01*
X106517502Y-69533960D01*
X106526369Y-69540536D01*
X106534550Y-69547950D01*
X106541964Y-69556131D01*
X106548540Y-69564998D01*
X106554216Y-69574468D01*
X106558936Y-69584448D01*
X106562656Y-69594843D01*
X106565338Y-69605552D01*
X106566958Y-69616473D01*
X106567500Y-69627500D01*
X106567500Y-69852500D01*
X106566958Y-69863527D01*
X106565338Y-69874448D01*
X106562656Y-69885157D01*
X106558936Y-69895552D01*
X106554216Y-69905532D01*
X106548540Y-69915002D01*
X106541964Y-69923869D01*
X106534550Y-69932050D01*
X106526369Y-69939464D01*
X106517502Y-69946040D01*
X106508032Y-69951716D01*
X106498052Y-69956436D01*
X106487657Y-69960156D01*
X106476948Y-69962838D01*
X106466027Y-69964458D01*
X106455000Y-69965000D01*
X105055000Y-69965000D01*
X105043973Y-69964458D01*
X105033052Y-69962838D01*
X105022343Y-69960156D01*
X105011948Y-69956436D01*
X105001968Y-69951716D01*
X104992498Y-69946040D01*
X104983631Y-69939464D01*
X104975450Y-69932050D01*
X104968036Y-69923869D01*
X104961460Y-69915002D01*
X104955784Y-69905532D01*
X104951064Y-69895552D01*
X104947344Y-69885157D01*
X104944662Y-69874448D01*
X104943042Y-69863527D01*
X104942500Y-69852500D01*
X104942500Y-69627500D01*
X104943042Y-69616473D01*
X104944662Y-69605552D01*
X104947344Y-69594843D01*
X104951064Y-69584448D01*
X104955784Y-69574468D01*
X104961460Y-69564998D01*
X104968036Y-69556131D01*
X104975450Y-69547950D01*
X104983631Y-69540536D01*
X104992498Y-69533960D01*
X105001968Y-69528284D01*
X105011948Y-69523564D01*
X105022343Y-69519844D01*
X105033052Y-69517162D01*
X105043973Y-69515542D01*
X105055000Y-69515000D01*
X106455000Y-69515000D01*
X106466027Y-69515542D01*
G37*
G36*
X106466027Y-70165542D02*
G01*
X106476948Y-70167162D01*
X106487657Y-70169844D01*
X106498052Y-70173564D01*
X106508032Y-70178284D01*
X106517502Y-70183960D01*
X106526369Y-70190536D01*
X106534550Y-70197950D01*
X106541964Y-70206131D01*
X106548540Y-70214998D01*
X106554216Y-70224468D01*
X106558936Y-70234448D01*
X106562656Y-70244843D01*
X106565338Y-70255552D01*
X106566958Y-70266473D01*
X106567500Y-70277500D01*
X106567500Y-70502500D01*
X106566958Y-70513527D01*
X106565338Y-70524448D01*
X106562656Y-70535157D01*
X106558936Y-70545552D01*
X106554216Y-70555532D01*
X106548540Y-70565002D01*
X106541964Y-70573869D01*
X106534550Y-70582050D01*
X106526369Y-70589464D01*
X106517502Y-70596040D01*
X106508032Y-70601716D01*
X106498052Y-70606436D01*
X106487657Y-70610156D01*
X106476948Y-70612838D01*
X106466027Y-70614458D01*
X106455000Y-70615000D01*
X105055000Y-70615000D01*
X105043973Y-70614458D01*
X105033052Y-70612838D01*
X105022343Y-70610156D01*
X105011948Y-70606436D01*
X105001968Y-70601716D01*
X104992498Y-70596040D01*
X104983631Y-70589464D01*
X104975450Y-70582050D01*
X104968036Y-70573869D01*
X104961460Y-70565002D01*
X104955784Y-70555532D01*
X104951064Y-70545552D01*
X104947344Y-70535157D01*
X104944662Y-70524448D01*
X104943042Y-70513527D01*
X104942500Y-70502500D01*
X104942500Y-70277500D01*
X104943042Y-70266473D01*
X104944662Y-70255552D01*
X104947344Y-70244843D01*
X104951064Y-70234448D01*
X104955784Y-70224468D01*
X104961460Y-70214998D01*
X104968036Y-70206131D01*
X104975450Y-70197950D01*
X104983631Y-70190536D01*
X104992498Y-70183960D01*
X105001968Y-70178284D01*
X105011948Y-70173564D01*
X105022343Y-70169844D01*
X105033052Y-70167162D01*
X105043973Y-70165542D01*
X105055000Y-70165000D01*
X106455000Y-70165000D01*
X106466027Y-70165542D01*
G37*
D18*
X88560000Y-83050000D03*
X88560000Y-85850000D03*
X75950000Y-82980000D03*
X75950000Y-85780000D03*
D19*
X71865000Y-130872500D03*
X71865000Y-128027500D03*
X76615000Y-130872500D03*
X76615000Y-128027500D03*
D20*
X91550000Y-65345000D03*
X91550000Y-70255000D03*
D21*
X96990000Y-68690000D03*
X96990000Y-75490000D03*
D22*
X105970000Y-61960000D03*
X105970000Y-65960000D03*
X102240000Y-61930000D03*
X102240000Y-65930000D03*
D10*
G36*
X80434505Y-127921204D02*
G01*
X80458773Y-127924804D01*
X80482572Y-127930765D01*
X80505671Y-127939030D01*
X80527850Y-127949520D01*
X80548893Y-127962132D01*
X80568599Y-127976747D01*
X80586777Y-127993223D01*
X80603253Y-128011401D01*
X80617868Y-128031107D01*
X80630480Y-128052150D01*
X80640970Y-128074329D01*
X80649235Y-128097428D01*
X80655196Y-128121227D01*
X80658796Y-128145495D01*
X80660000Y-128169999D01*
X80660000Y-128820001D01*
X80658796Y-128844505D01*
X80655196Y-128868773D01*
X80649235Y-128892572D01*
X80640970Y-128915671D01*
X80630480Y-128937850D01*
X80617868Y-128958893D01*
X80603253Y-128978599D01*
X80586777Y-128996777D01*
X80568599Y-129013253D01*
X80548893Y-129027868D01*
X80527850Y-129040480D01*
X80505671Y-129050970D01*
X80482572Y-129059235D01*
X80458773Y-129065196D01*
X80434505Y-129068796D01*
X80410001Y-129070000D01*
X79509999Y-129070000D01*
X79485495Y-129068796D01*
X79461227Y-129065196D01*
X79437428Y-129059235D01*
X79414329Y-129050970D01*
X79392150Y-129040480D01*
X79371107Y-129027868D01*
X79351401Y-129013253D01*
X79333223Y-128996777D01*
X79316747Y-128978599D01*
X79302132Y-128958893D01*
X79289520Y-128937850D01*
X79279030Y-128915671D01*
X79270765Y-128892572D01*
X79264804Y-128868773D01*
X79261204Y-128844505D01*
X79260000Y-128820001D01*
X79260000Y-128169999D01*
X79261204Y-128145495D01*
X79264804Y-128121227D01*
X79270765Y-128097428D01*
X79279030Y-128074329D01*
X79289520Y-128052150D01*
X79302132Y-128031107D01*
X79316747Y-128011401D01*
X79333223Y-127993223D01*
X79351401Y-127976747D01*
X79371107Y-127962132D01*
X79392150Y-127949520D01*
X79414329Y-127939030D01*
X79437428Y-127930765D01*
X79461227Y-127924804D01*
X79485495Y-127921204D01*
X79509999Y-127920000D01*
X80410001Y-127920000D01*
X80434505Y-127921204D01*
G37*
G36*
X80434505Y-129971204D02*
G01*
X80458773Y-129974804D01*
X80482572Y-129980765D01*
X80505671Y-129989030D01*
X80527850Y-129999520D01*
X80548893Y-130012132D01*
X80568599Y-130026747D01*
X80586777Y-130043223D01*
X80603253Y-130061401D01*
X80617868Y-130081107D01*
X80630480Y-130102150D01*
X80640970Y-130124329D01*
X80649235Y-130147428D01*
X80655196Y-130171227D01*
X80658796Y-130195495D01*
X80660000Y-130219999D01*
X80660000Y-130870001D01*
X80658796Y-130894505D01*
X80655196Y-130918773D01*
X80649235Y-130942572D01*
X80640970Y-130965671D01*
X80630480Y-130987850D01*
X80617868Y-131008893D01*
X80603253Y-131028599D01*
X80586777Y-131046777D01*
X80568599Y-131063253D01*
X80548893Y-131077868D01*
X80527850Y-131090480D01*
X80505671Y-131100970D01*
X80482572Y-131109235D01*
X80458773Y-131115196D01*
X80434505Y-131118796D01*
X80410001Y-131120000D01*
X79509999Y-131120000D01*
X79485495Y-131118796D01*
X79461227Y-131115196D01*
X79437428Y-131109235D01*
X79414329Y-131100970D01*
X79392150Y-131090480D01*
X79371107Y-131077868D01*
X79351401Y-131063253D01*
X79333223Y-131046777D01*
X79316747Y-131028599D01*
X79302132Y-131008893D01*
X79289520Y-130987850D01*
X79279030Y-130965671D01*
X79270765Y-130942572D01*
X79264804Y-130918773D01*
X79261204Y-130894505D01*
X79260000Y-130870001D01*
X79260000Y-130219999D01*
X79261204Y-130195495D01*
X79264804Y-130171227D01*
X79270765Y-130147428D01*
X79279030Y-130124329D01*
X79289520Y-130102150D01*
X79302132Y-130081107D01*
X79316747Y-130061401D01*
X79333223Y-130043223D01*
X79351401Y-130026747D01*
X79371107Y-130012132D01*
X79392150Y-129999520D01*
X79414329Y-129989030D01*
X79437428Y-129980765D01*
X79461227Y-129974804D01*
X79485495Y-129971204D01*
X79509999Y-129970000D01*
X80410001Y-129970000D01*
X80434505Y-129971204D01*
G37*
G36*
X69094505Y-127931204D02*
G01*
X69118773Y-127934804D01*
X69142572Y-127940765D01*
X69165671Y-127949030D01*
X69187850Y-127959520D01*
X69208893Y-127972132D01*
X69228599Y-127986747D01*
X69246777Y-128003223D01*
X69263253Y-128021401D01*
X69277868Y-128041107D01*
X69290480Y-128062150D01*
X69300970Y-128084329D01*
X69309235Y-128107428D01*
X69315196Y-128131227D01*
X69318796Y-128155495D01*
X69320000Y-128179999D01*
X69320000Y-128830001D01*
X69318796Y-128854505D01*
X69315196Y-128878773D01*
X69309235Y-128902572D01*
X69300970Y-128925671D01*
X69290480Y-128947850D01*
X69277868Y-128968893D01*
X69263253Y-128988599D01*
X69246777Y-129006777D01*
X69228599Y-129023253D01*
X69208893Y-129037868D01*
X69187850Y-129050480D01*
X69165671Y-129060970D01*
X69142572Y-129069235D01*
X69118773Y-129075196D01*
X69094505Y-129078796D01*
X69070001Y-129080000D01*
X68169999Y-129080000D01*
X68145495Y-129078796D01*
X68121227Y-129075196D01*
X68097428Y-129069235D01*
X68074329Y-129060970D01*
X68052150Y-129050480D01*
X68031107Y-129037868D01*
X68011401Y-129023253D01*
X67993223Y-129006777D01*
X67976747Y-128988599D01*
X67962132Y-128968893D01*
X67949520Y-128947850D01*
X67939030Y-128925671D01*
X67930765Y-128902572D01*
X67924804Y-128878773D01*
X67921204Y-128854505D01*
X67920000Y-128830001D01*
X67920000Y-128179999D01*
X67921204Y-128155495D01*
X67924804Y-128131227D01*
X67930765Y-128107428D01*
X67939030Y-128084329D01*
X67949520Y-128062150D01*
X67962132Y-128041107D01*
X67976747Y-128021401D01*
X67993223Y-128003223D01*
X68011401Y-127986747D01*
X68031107Y-127972132D01*
X68052150Y-127959520D01*
X68074329Y-127949030D01*
X68097428Y-127940765D01*
X68121227Y-127934804D01*
X68145495Y-127931204D01*
X68169999Y-127930000D01*
X69070001Y-127930000D01*
X69094505Y-127931204D01*
G37*
G36*
X69094505Y-129981204D02*
G01*
X69118773Y-129984804D01*
X69142572Y-129990765D01*
X69165671Y-129999030D01*
X69187850Y-130009520D01*
X69208893Y-130022132D01*
X69228599Y-130036747D01*
X69246777Y-130053223D01*
X69263253Y-130071401D01*
X69277868Y-130091107D01*
X69290480Y-130112150D01*
X69300970Y-130134329D01*
X69309235Y-130157428D01*
X69315196Y-130181227D01*
X69318796Y-130205495D01*
X69320000Y-130229999D01*
X69320000Y-130880001D01*
X69318796Y-130904505D01*
X69315196Y-130928773D01*
X69309235Y-130952572D01*
X69300970Y-130975671D01*
X69290480Y-130997850D01*
X69277868Y-131018893D01*
X69263253Y-131038599D01*
X69246777Y-131056777D01*
X69228599Y-131073253D01*
X69208893Y-131087868D01*
X69187850Y-131100480D01*
X69165671Y-131110970D01*
X69142572Y-131119235D01*
X69118773Y-131125196D01*
X69094505Y-131128796D01*
X69070001Y-131130000D01*
X68169999Y-131130000D01*
X68145495Y-131128796D01*
X68121227Y-131125196D01*
X68097428Y-131119235D01*
X68074329Y-131110970D01*
X68052150Y-131100480D01*
X68031107Y-131087868D01*
X68011401Y-131073253D01*
X67993223Y-131056777D01*
X67976747Y-131038599D01*
X67962132Y-131018893D01*
X67949520Y-130997850D01*
X67939030Y-130975671D01*
X67930765Y-130952572D01*
X67924804Y-130928773D01*
X67921204Y-130904505D01*
X67920000Y-130880001D01*
X67920000Y-130229999D01*
X67921204Y-130205495D01*
X67924804Y-130181227D01*
X67930765Y-130157428D01*
X67939030Y-130134329D01*
X67949520Y-130112150D01*
X67962132Y-130091107D01*
X67976747Y-130071401D01*
X67993223Y-130053223D01*
X68011401Y-130036747D01*
X68031107Y-130022132D01*
X68052150Y-130009520D01*
X68074329Y-129999030D01*
X68097428Y-129990765D01*
X68121227Y-129984804D01*
X68145495Y-129981204D01*
X68169999Y-129980000D01*
X69070001Y-129980000D01*
X69094505Y-129981204D01*
G37*
G36*
X107239504Y-74806204D02*
G01*
X107263773Y-74809804D01*
X107287571Y-74815765D01*
X107310671Y-74824030D01*
X107332849Y-74834520D01*
X107353893Y-74847133D01*
X107373598Y-74861747D01*
X107391777Y-74878223D01*
X107408253Y-74896402D01*
X107422867Y-74916107D01*
X107435480Y-74937151D01*
X107445970Y-74959329D01*
X107454235Y-74982429D01*
X107460196Y-75006227D01*
X107463796Y-75030496D01*
X107465000Y-75055000D01*
X107465000Y-75980000D01*
X107463796Y-76004504D01*
X107460196Y-76028773D01*
X107454235Y-76052571D01*
X107445970Y-76075671D01*
X107435480Y-76097849D01*
X107422867Y-76118893D01*
X107408253Y-76138598D01*
X107391777Y-76156777D01*
X107373598Y-76173253D01*
X107353893Y-76187867D01*
X107332849Y-76200480D01*
X107310671Y-76210970D01*
X107287571Y-76219235D01*
X107263773Y-76225196D01*
X107239504Y-76228796D01*
X107215000Y-76230000D01*
X105065000Y-76230000D01*
X105040496Y-76228796D01*
X105016227Y-76225196D01*
X104992429Y-76219235D01*
X104969329Y-76210970D01*
X104947151Y-76200480D01*
X104926107Y-76187867D01*
X104906402Y-76173253D01*
X104888223Y-76156777D01*
X104871747Y-76138598D01*
X104857133Y-76118893D01*
X104844520Y-76097849D01*
X104834030Y-76075671D01*
X104825765Y-76052571D01*
X104819804Y-76028773D01*
X104816204Y-76004504D01*
X104815000Y-75980000D01*
X104815000Y-75055000D01*
X104816204Y-75030496D01*
X104819804Y-75006227D01*
X104825765Y-74982429D01*
X104834030Y-74959329D01*
X104844520Y-74937151D01*
X104857133Y-74916107D01*
X104871747Y-74896402D01*
X104888223Y-74878223D01*
X104906402Y-74861747D01*
X104926107Y-74847133D01*
X104947151Y-74834520D01*
X104969329Y-74824030D01*
X104992429Y-74815765D01*
X105016227Y-74809804D01*
X105040496Y-74806204D01*
X105065000Y-74805000D01*
X107215000Y-74805000D01*
X107239504Y-74806204D01*
G37*
G36*
X107239504Y-71831204D02*
G01*
X107263773Y-71834804D01*
X107287571Y-71840765D01*
X107310671Y-71849030D01*
X107332849Y-71859520D01*
X107353893Y-71872133D01*
X107373598Y-71886747D01*
X107391777Y-71903223D01*
X107408253Y-71921402D01*
X107422867Y-71941107D01*
X107435480Y-71962151D01*
X107445970Y-71984329D01*
X107454235Y-72007429D01*
X107460196Y-72031227D01*
X107463796Y-72055496D01*
X107465000Y-72080000D01*
X107465000Y-73005000D01*
X107463796Y-73029504D01*
X107460196Y-73053773D01*
X107454235Y-73077571D01*
X107445970Y-73100671D01*
X107435480Y-73122849D01*
X107422867Y-73143893D01*
X107408253Y-73163598D01*
X107391777Y-73181777D01*
X107373598Y-73198253D01*
X107353893Y-73212867D01*
X107332849Y-73225480D01*
X107310671Y-73235970D01*
X107287571Y-73244235D01*
X107263773Y-73250196D01*
X107239504Y-73253796D01*
X107215000Y-73255000D01*
X105065000Y-73255000D01*
X105040496Y-73253796D01*
X105016227Y-73250196D01*
X104992429Y-73244235D01*
X104969329Y-73235970D01*
X104947151Y-73225480D01*
X104926107Y-73212867D01*
X104906402Y-73198253D01*
X104888223Y-73181777D01*
X104871747Y-73163598D01*
X104857133Y-73143893D01*
X104844520Y-73122849D01*
X104834030Y-73100671D01*
X104825765Y-73077571D01*
X104819804Y-73053773D01*
X104816204Y-73029504D01*
X104815000Y-73005000D01*
X104815000Y-72080000D01*
X104816204Y-72055496D01*
X104819804Y-72031227D01*
X104825765Y-72007429D01*
X104834030Y-71984329D01*
X104844520Y-71962151D01*
X104857133Y-71941107D01*
X104871747Y-71921402D01*
X104888223Y-71903223D01*
X104906402Y-71886747D01*
X104926107Y-71872133D01*
X104947151Y-71859520D01*
X104969329Y-71849030D01*
X104992429Y-71840765D01*
X105016227Y-71834804D01*
X105040496Y-71831204D01*
X105065000Y-71830000D01*
X107215000Y-71830000D01*
X107239504Y-71831204D01*
G37*
D23*
X82620000Y-130760000D03*
D10*
G36*
X83394504Y-127411204D02*
G01*
X83418773Y-127414804D01*
X83442571Y-127420765D01*
X83465671Y-127429030D01*
X83487849Y-127439520D01*
X83508893Y-127452133D01*
X83528598Y-127466747D01*
X83546777Y-127483223D01*
X83563253Y-127501402D01*
X83577867Y-127521107D01*
X83590480Y-127542151D01*
X83600970Y-127564329D01*
X83609235Y-127587429D01*
X83615196Y-127611227D01*
X83618796Y-127635496D01*
X83620000Y-127660000D01*
X83620000Y-128860000D01*
X83618796Y-128884504D01*
X83615196Y-128908773D01*
X83609235Y-128932571D01*
X83600970Y-128955671D01*
X83590480Y-128977849D01*
X83577867Y-128998893D01*
X83563253Y-129018598D01*
X83546777Y-129036777D01*
X83528598Y-129053253D01*
X83508893Y-129067867D01*
X83487849Y-129080480D01*
X83465671Y-129090970D01*
X83442571Y-129099235D01*
X83418773Y-129105196D01*
X83394504Y-129108796D01*
X83370000Y-129110000D01*
X81870000Y-129110000D01*
X81845496Y-129108796D01*
X81821227Y-129105196D01*
X81797429Y-129099235D01*
X81774329Y-129090970D01*
X81752151Y-129080480D01*
X81731107Y-129067867D01*
X81711402Y-129053253D01*
X81693223Y-129036777D01*
X81676747Y-129018598D01*
X81662133Y-128998893D01*
X81649520Y-128977849D01*
X81639030Y-128955671D01*
X81630765Y-128932571D01*
X81624804Y-128908773D01*
X81621204Y-128884504D01*
X81620000Y-128860000D01*
X81620000Y-127660000D01*
X81621204Y-127635496D01*
X81624804Y-127611227D01*
X81630765Y-127587429D01*
X81639030Y-127564329D01*
X81649520Y-127542151D01*
X81662133Y-127521107D01*
X81676747Y-127501402D01*
X81693223Y-127483223D01*
X81711402Y-127466747D01*
X81731107Y-127452133D01*
X81752151Y-127439520D01*
X81774329Y-127429030D01*
X81797429Y-127420765D01*
X81821227Y-127414804D01*
X81845496Y-127411204D01*
X81870000Y-127410000D01*
X83370000Y-127410000D01*
X83394504Y-127411204D01*
G37*
G36*
X69330779Y-116946144D02*
G01*
X69353834Y-116949563D01*
X69376443Y-116955227D01*
X69398387Y-116963079D01*
X69419457Y-116973044D01*
X69439448Y-116985026D01*
X69458168Y-116998910D01*
X69475438Y-117014562D01*
X69491090Y-117031832D01*
X69504974Y-117050552D01*
X69516956Y-117070543D01*
X69526921Y-117091613D01*
X69534773Y-117113557D01*
X69540437Y-117136166D01*
X69543856Y-117159221D01*
X69545000Y-117182500D01*
X69545000Y-117757500D01*
X69543856Y-117780779D01*
X69540437Y-117803834D01*
X69534773Y-117826443D01*
X69526921Y-117848387D01*
X69516956Y-117869457D01*
X69504974Y-117889448D01*
X69491090Y-117908168D01*
X69475438Y-117925438D01*
X69458168Y-117941090D01*
X69439448Y-117954974D01*
X69419457Y-117966956D01*
X69398387Y-117976921D01*
X69376443Y-117984773D01*
X69353834Y-117990437D01*
X69330779Y-117993856D01*
X69307500Y-117995000D01*
X68832500Y-117995000D01*
X68809221Y-117993856D01*
X68786166Y-117990437D01*
X68763557Y-117984773D01*
X68741613Y-117976921D01*
X68720543Y-117966956D01*
X68700552Y-117954974D01*
X68681832Y-117941090D01*
X68664562Y-117925438D01*
X68648910Y-117908168D01*
X68635026Y-117889448D01*
X68623044Y-117869457D01*
X68613079Y-117848387D01*
X68605227Y-117826443D01*
X68599563Y-117803834D01*
X68596144Y-117780779D01*
X68595000Y-117757500D01*
X68595000Y-117182500D01*
X68596144Y-117159221D01*
X68599563Y-117136166D01*
X68605227Y-117113557D01*
X68613079Y-117091613D01*
X68623044Y-117070543D01*
X68635026Y-117050552D01*
X68648910Y-117031832D01*
X68664562Y-117014562D01*
X68681832Y-116998910D01*
X68700552Y-116985026D01*
X68720543Y-116973044D01*
X68741613Y-116963079D01*
X68763557Y-116955227D01*
X68786166Y-116949563D01*
X68809221Y-116946144D01*
X68832500Y-116945000D01*
X69307500Y-116945000D01*
X69330779Y-116946144D01*
G37*
G36*
X69330779Y-115196144D02*
G01*
X69353834Y-115199563D01*
X69376443Y-115205227D01*
X69398387Y-115213079D01*
X69419457Y-115223044D01*
X69439448Y-115235026D01*
X69458168Y-115248910D01*
X69475438Y-115264562D01*
X69491090Y-115281832D01*
X69504974Y-115300552D01*
X69516956Y-115320543D01*
X69526921Y-115341613D01*
X69534773Y-115363557D01*
X69540437Y-115386166D01*
X69543856Y-115409221D01*
X69545000Y-115432500D01*
X69545000Y-116007500D01*
X69543856Y-116030779D01*
X69540437Y-116053834D01*
X69534773Y-116076443D01*
X69526921Y-116098387D01*
X69516956Y-116119457D01*
X69504974Y-116139448D01*
X69491090Y-116158168D01*
X69475438Y-116175438D01*
X69458168Y-116191090D01*
X69439448Y-116204974D01*
X69419457Y-116216956D01*
X69398387Y-116226921D01*
X69376443Y-116234773D01*
X69353834Y-116240437D01*
X69330779Y-116243856D01*
X69307500Y-116245000D01*
X68832500Y-116245000D01*
X68809221Y-116243856D01*
X68786166Y-116240437D01*
X68763557Y-116234773D01*
X68741613Y-116226921D01*
X68720543Y-116216956D01*
X68700552Y-116204974D01*
X68681832Y-116191090D01*
X68664562Y-116175438D01*
X68648910Y-116158168D01*
X68635026Y-116139448D01*
X68623044Y-116119457D01*
X68613079Y-116098387D01*
X68605227Y-116076443D01*
X68599563Y-116053834D01*
X68596144Y-116030779D01*
X68595000Y-116007500D01*
X68595000Y-115432500D01*
X68596144Y-115409221D01*
X68599563Y-115386166D01*
X68605227Y-115363557D01*
X68613079Y-115341613D01*
X68623044Y-115320543D01*
X68635026Y-115300552D01*
X68648910Y-115281832D01*
X68664562Y-115264562D01*
X68681832Y-115248910D01*
X68700552Y-115235026D01*
X68720543Y-115223044D01*
X68741613Y-115213079D01*
X68763557Y-115205227D01*
X68786166Y-115199563D01*
X68809221Y-115196144D01*
X68832500Y-115195000D01*
X69307500Y-115195000D01*
X69330779Y-115196144D01*
G37*
G36*
X73155779Y-113336144D02*
G01*
X73178834Y-113339563D01*
X73201443Y-113345227D01*
X73223387Y-113353079D01*
X73244457Y-113363044D01*
X73264448Y-113375026D01*
X73283168Y-113388910D01*
X73300438Y-113404562D01*
X73316090Y-113421832D01*
X73329974Y-113440552D01*
X73341956Y-113460543D01*
X73351921Y-113481613D01*
X73359773Y-113503557D01*
X73365437Y-113526166D01*
X73368856Y-113549221D01*
X73370000Y-113572500D01*
X73370000Y-114047500D01*
X73368856Y-114070779D01*
X73365437Y-114093834D01*
X73359773Y-114116443D01*
X73351921Y-114138387D01*
X73341956Y-114159457D01*
X73329974Y-114179448D01*
X73316090Y-114198168D01*
X73300438Y-114215438D01*
X73283168Y-114231090D01*
X73264448Y-114244974D01*
X73244457Y-114256956D01*
X73223387Y-114266921D01*
X73201443Y-114274773D01*
X73178834Y-114280437D01*
X73155779Y-114283856D01*
X73132500Y-114285000D01*
X72557500Y-114285000D01*
X72534221Y-114283856D01*
X72511166Y-114280437D01*
X72488557Y-114274773D01*
X72466613Y-114266921D01*
X72445543Y-114256956D01*
X72425552Y-114244974D01*
X72406832Y-114231090D01*
X72389562Y-114215438D01*
X72373910Y-114198168D01*
X72360026Y-114179448D01*
X72348044Y-114159457D01*
X72338079Y-114138387D01*
X72330227Y-114116443D01*
X72324563Y-114093834D01*
X72321144Y-114070779D01*
X72320000Y-114047500D01*
X72320000Y-113572500D01*
X72321144Y-113549221D01*
X72324563Y-113526166D01*
X72330227Y-113503557D01*
X72338079Y-113481613D01*
X72348044Y-113460543D01*
X72360026Y-113440552D01*
X72373910Y-113421832D01*
X72389562Y-113404562D01*
X72406832Y-113388910D01*
X72425552Y-113375026D01*
X72445543Y-113363044D01*
X72466613Y-113353079D01*
X72488557Y-113345227D01*
X72511166Y-113339563D01*
X72534221Y-113336144D01*
X72557500Y-113335000D01*
X73132500Y-113335000D01*
X73155779Y-113336144D01*
G37*
G36*
X71405779Y-113336144D02*
G01*
X71428834Y-113339563D01*
X71451443Y-113345227D01*
X71473387Y-113353079D01*
X71494457Y-113363044D01*
X71514448Y-113375026D01*
X71533168Y-113388910D01*
X71550438Y-113404562D01*
X71566090Y-113421832D01*
X71579974Y-113440552D01*
X71591956Y-113460543D01*
X71601921Y-113481613D01*
X71609773Y-113503557D01*
X71615437Y-113526166D01*
X71618856Y-113549221D01*
X71620000Y-113572500D01*
X71620000Y-114047500D01*
X71618856Y-114070779D01*
X71615437Y-114093834D01*
X71609773Y-114116443D01*
X71601921Y-114138387D01*
X71591956Y-114159457D01*
X71579974Y-114179448D01*
X71566090Y-114198168D01*
X71550438Y-114215438D01*
X71533168Y-114231090D01*
X71514448Y-114244974D01*
X71494457Y-114256956D01*
X71473387Y-114266921D01*
X71451443Y-114274773D01*
X71428834Y-114280437D01*
X71405779Y-114283856D01*
X71382500Y-114285000D01*
X70807500Y-114285000D01*
X70784221Y-114283856D01*
X70761166Y-114280437D01*
X70738557Y-114274773D01*
X70716613Y-114266921D01*
X70695543Y-114256956D01*
X70675552Y-114244974D01*
X70656832Y-114231090D01*
X70639562Y-114215438D01*
X70623910Y-114198168D01*
X70610026Y-114179448D01*
X70598044Y-114159457D01*
X70588079Y-114138387D01*
X70580227Y-114116443D01*
X70574563Y-114093834D01*
X70571144Y-114070779D01*
X70570000Y-114047500D01*
X70570000Y-113572500D01*
X70571144Y-113549221D01*
X70574563Y-113526166D01*
X70580227Y-113503557D01*
X70588079Y-113481613D01*
X70598044Y-113460543D01*
X70610026Y-113440552D01*
X70623910Y-113421832D01*
X70639562Y-113404562D01*
X70656832Y-113388910D01*
X70675552Y-113375026D01*
X70695543Y-113363044D01*
X70716613Y-113353079D01*
X70738557Y-113345227D01*
X70761166Y-113339563D01*
X70784221Y-113336144D01*
X70807500Y-113335000D01*
X71382500Y-113335000D01*
X71405779Y-113336144D01*
G37*
G36*
X80745000Y-118105000D02*
G01*
X79945000Y-118105000D01*
X79945000Y-118775000D01*
X80745000Y-118775000D01*
X80745000Y-119375000D01*
X79945000Y-119375000D01*
X79945000Y-120045000D01*
X80745000Y-120045000D01*
X80745000Y-120645000D01*
X79945000Y-120645000D01*
X79945000Y-121315000D01*
X80745000Y-121315000D01*
X80745000Y-121915000D01*
X76195000Y-121915000D01*
X76195000Y-117505000D01*
X80745000Y-117505000D01*
X80745000Y-118105000D01*
G37*
D24*
X74520000Y-117805000D03*
X74520000Y-119075000D03*
X74520000Y-120345000D03*
X74520000Y-121615000D03*
D25*
X72690000Y-116520000D03*
X70690000Y-115570000D03*
X70690000Y-117470000D03*
D26*
X79250000Y-51180000D03*
X79250000Y-49180000D03*
X79250000Y-47180000D03*
D10*
G36*
X79899505Y-44581204D02*
G01*
X79923773Y-44584804D01*
X79947572Y-44590765D01*
X79970671Y-44599030D01*
X79992850Y-44609520D01*
X80013893Y-44622132D01*
X80033599Y-44636747D01*
X80051777Y-44653223D01*
X80068253Y-44671401D01*
X80082868Y-44691107D01*
X80095480Y-44712150D01*
X80105970Y-44734329D01*
X80114235Y-44757428D01*
X80120196Y-44781227D01*
X80123796Y-44805495D01*
X80125000Y-44829999D01*
X80125000Y-45530001D01*
X80123796Y-45554505D01*
X80120196Y-45578773D01*
X80114235Y-45602572D01*
X80105970Y-45625671D01*
X80095480Y-45647850D01*
X80082868Y-45668893D01*
X80068253Y-45688599D01*
X80051777Y-45706777D01*
X80033599Y-45723253D01*
X80013893Y-45737868D01*
X79992850Y-45750480D01*
X79970671Y-45760970D01*
X79947572Y-45769235D01*
X79923773Y-45775196D01*
X79899505Y-45778796D01*
X79875001Y-45780000D01*
X78624999Y-45780000D01*
X78600495Y-45778796D01*
X78576227Y-45775196D01*
X78552428Y-45769235D01*
X78529329Y-45760970D01*
X78507150Y-45750480D01*
X78486107Y-45737868D01*
X78466401Y-45723253D01*
X78448223Y-45706777D01*
X78431747Y-45688599D01*
X78417132Y-45668893D01*
X78404520Y-45647850D01*
X78394030Y-45625671D01*
X78385765Y-45602572D01*
X78379804Y-45578773D01*
X78376204Y-45554505D01*
X78375000Y-45530001D01*
X78375000Y-44829999D01*
X78376204Y-44805495D01*
X78379804Y-44781227D01*
X78385765Y-44757428D01*
X78394030Y-44734329D01*
X78404520Y-44712150D01*
X78417132Y-44691107D01*
X78431747Y-44671401D01*
X78448223Y-44653223D01*
X78466401Y-44636747D01*
X78486107Y-44622132D01*
X78507150Y-44609520D01*
X78529329Y-44599030D01*
X78552428Y-44590765D01*
X78576227Y-44584804D01*
X78600495Y-44581204D01*
X78624999Y-44580000D01*
X79875001Y-44580000D01*
X79899505Y-44581204D01*
G37*
D27*
X97038500Y-61843000D03*
X94193500Y-61843000D03*
X97038500Y-57093000D03*
X94193500Y-57093000D03*
D28*
X86660000Y-81820000D03*
X86660000Y-86900000D03*
X84120000Y-86900000D03*
X84120000Y-81820000D03*
X79040000Y-86900000D03*
X73960000Y-86900000D03*
X79040000Y-81820000D03*
X73960000Y-81820000D03*
X81580000Y-86900000D03*
X81580000Y-81820000D03*
D26*
X69270000Y-91850000D03*
X69270000Y-89850000D03*
X69270000Y-87850000D03*
X69270000Y-85850000D03*
X69270000Y-83850000D03*
X69270000Y-81850000D03*
X69270000Y-79850000D03*
X69270000Y-77850000D03*
D10*
G36*
X69919505Y-75251204D02*
G01*
X69943773Y-75254804D01*
X69967572Y-75260765D01*
X69990671Y-75269030D01*
X70012850Y-75279520D01*
X70033893Y-75292132D01*
X70053599Y-75306747D01*
X70071777Y-75323223D01*
X70088253Y-75341401D01*
X70102868Y-75361107D01*
X70115480Y-75382150D01*
X70125970Y-75404329D01*
X70134235Y-75427428D01*
X70140196Y-75451227D01*
X70143796Y-75475495D01*
X70145000Y-75499999D01*
X70145000Y-76200001D01*
X70143796Y-76224505D01*
X70140196Y-76248773D01*
X70134235Y-76272572D01*
X70125970Y-76295671D01*
X70115480Y-76317850D01*
X70102868Y-76338893D01*
X70088253Y-76358599D01*
X70071777Y-76376777D01*
X70053599Y-76393253D01*
X70033893Y-76407868D01*
X70012850Y-76420480D01*
X69990671Y-76430970D01*
X69967572Y-76439235D01*
X69943773Y-76445196D01*
X69919505Y-76448796D01*
X69895001Y-76450000D01*
X68644999Y-76450000D01*
X68620495Y-76448796D01*
X68596227Y-76445196D01*
X68572428Y-76439235D01*
X68549329Y-76430970D01*
X68527150Y-76420480D01*
X68506107Y-76407868D01*
X68486401Y-76393253D01*
X68468223Y-76376777D01*
X68451747Y-76358599D01*
X68437132Y-76338893D01*
X68424520Y-76317850D01*
X68414030Y-76295671D01*
X68405765Y-76272572D01*
X68399804Y-76248773D01*
X68396204Y-76224505D01*
X68395000Y-76200001D01*
X68395000Y-75499999D01*
X68396204Y-75475495D01*
X68399804Y-75451227D01*
X68405765Y-75427428D01*
X68414030Y-75404329D01*
X68424520Y-75382150D01*
X68437132Y-75361107D01*
X68451747Y-75341401D01*
X68468223Y-75323223D01*
X68486401Y-75306747D01*
X68506107Y-75292132D01*
X68527150Y-75279520D01*
X68549329Y-75269030D01*
X68572428Y-75260765D01*
X68596227Y-75254804D01*
X68620495Y-75251204D01*
X68644999Y-75250000D01*
X69895001Y-75250000D01*
X69919505Y-75251204D01*
G37*
D29*
X86190000Y-78888000D03*
D30*
X86190000Y-76348000D03*
X86190000Y-77618000D03*
D10*
G36*
X83070779Y-77431144D02*
G01*
X83093834Y-77434563D01*
X83116443Y-77440227D01*
X83138387Y-77448079D01*
X83159457Y-77458044D01*
X83179448Y-77470026D01*
X83198168Y-77483910D01*
X83215438Y-77499562D01*
X83231090Y-77516832D01*
X83244974Y-77535552D01*
X83256956Y-77555543D01*
X83266921Y-77576613D01*
X83274773Y-77598557D01*
X83280437Y-77621166D01*
X83283856Y-77644221D01*
X83285000Y-77667500D01*
X83285000Y-78242500D01*
X83283856Y-78265779D01*
X83280437Y-78288834D01*
X83274773Y-78311443D01*
X83266921Y-78333387D01*
X83256956Y-78354457D01*
X83244974Y-78374448D01*
X83231090Y-78393168D01*
X83215438Y-78410438D01*
X83198168Y-78426090D01*
X83179448Y-78439974D01*
X83159457Y-78451956D01*
X83138387Y-78461921D01*
X83116443Y-78469773D01*
X83093834Y-78475437D01*
X83070779Y-78478856D01*
X83047500Y-78480000D01*
X82572500Y-78480000D01*
X82549221Y-78478856D01*
X82526166Y-78475437D01*
X82503557Y-78469773D01*
X82481613Y-78461921D01*
X82460543Y-78451956D01*
X82440552Y-78439974D01*
X82421832Y-78426090D01*
X82404562Y-78410438D01*
X82388910Y-78393168D01*
X82375026Y-78374448D01*
X82363044Y-78354457D01*
X82353079Y-78333387D01*
X82345227Y-78311443D01*
X82339563Y-78288834D01*
X82336144Y-78265779D01*
X82335000Y-78242500D01*
X82335000Y-77667500D01*
X82336144Y-77644221D01*
X82339563Y-77621166D01*
X82345227Y-77598557D01*
X82353079Y-77576613D01*
X82363044Y-77555543D01*
X82375026Y-77535552D01*
X82388910Y-77516832D01*
X82404562Y-77499562D01*
X82421832Y-77483910D01*
X82440552Y-77470026D01*
X82460543Y-77458044D01*
X82481613Y-77448079D01*
X82503557Y-77440227D01*
X82526166Y-77434563D01*
X82549221Y-77431144D01*
X82572500Y-77430000D01*
X83047500Y-77430000D01*
X83070779Y-77431144D01*
G37*
G36*
X83070779Y-75681144D02*
G01*
X83093834Y-75684563D01*
X83116443Y-75690227D01*
X83138387Y-75698079D01*
X83159457Y-75708044D01*
X83179448Y-75720026D01*
X83198168Y-75733910D01*
X83215438Y-75749562D01*
X83231090Y-75766832D01*
X83244974Y-75785552D01*
X83256956Y-75805543D01*
X83266921Y-75826613D01*
X83274773Y-75848557D01*
X83280437Y-75871166D01*
X83283856Y-75894221D01*
X83285000Y-75917500D01*
X83285000Y-76492500D01*
X83283856Y-76515779D01*
X83280437Y-76538834D01*
X83274773Y-76561443D01*
X83266921Y-76583387D01*
X83256956Y-76604457D01*
X83244974Y-76624448D01*
X83231090Y-76643168D01*
X83215438Y-76660438D01*
X83198168Y-76676090D01*
X83179448Y-76689974D01*
X83159457Y-76701956D01*
X83138387Y-76711921D01*
X83116443Y-76719773D01*
X83093834Y-76725437D01*
X83070779Y-76728856D01*
X83047500Y-76730000D01*
X82572500Y-76730000D01*
X82549221Y-76728856D01*
X82526166Y-76725437D01*
X82503557Y-76719773D01*
X82481613Y-76711921D01*
X82460543Y-76701956D01*
X82440552Y-76689974D01*
X82421832Y-76676090D01*
X82404562Y-76660438D01*
X82388910Y-76643168D01*
X82375026Y-76624448D01*
X82363044Y-76604457D01*
X82353079Y-76583387D01*
X82345227Y-76561443D01*
X82339563Y-76538834D01*
X82336144Y-76515779D01*
X82335000Y-76492500D01*
X82335000Y-75917500D01*
X82336144Y-75894221D01*
X82339563Y-75871166D01*
X82345227Y-75848557D01*
X82353079Y-75826613D01*
X82363044Y-75805543D01*
X82375026Y-75785552D01*
X82388910Y-75766832D01*
X82404562Y-75749562D01*
X82421832Y-75733910D01*
X82440552Y-75720026D01*
X82460543Y-75708044D01*
X82481613Y-75698079D01*
X82503557Y-75690227D01*
X82526166Y-75684563D01*
X82549221Y-75681144D01*
X82572500Y-75680000D01*
X83047500Y-75680000D01*
X83070779Y-75681144D01*
G37*
G36*
X84635779Y-77434144D02*
G01*
X84658834Y-77437563D01*
X84681443Y-77443227D01*
X84703387Y-77451079D01*
X84724457Y-77461044D01*
X84744448Y-77473026D01*
X84763168Y-77486910D01*
X84780438Y-77502562D01*
X84796090Y-77519832D01*
X84809974Y-77538552D01*
X84821956Y-77558543D01*
X84831921Y-77579613D01*
X84839773Y-77601557D01*
X84845437Y-77624166D01*
X84848856Y-77647221D01*
X84850000Y-77670500D01*
X84850000Y-78245500D01*
X84848856Y-78268779D01*
X84845437Y-78291834D01*
X84839773Y-78314443D01*
X84831921Y-78336387D01*
X84821956Y-78357457D01*
X84809974Y-78377448D01*
X84796090Y-78396168D01*
X84780438Y-78413438D01*
X84763168Y-78429090D01*
X84744448Y-78442974D01*
X84724457Y-78454956D01*
X84703387Y-78464921D01*
X84681443Y-78472773D01*
X84658834Y-78478437D01*
X84635779Y-78481856D01*
X84612500Y-78483000D01*
X84137500Y-78483000D01*
X84114221Y-78481856D01*
X84091166Y-78478437D01*
X84068557Y-78472773D01*
X84046613Y-78464921D01*
X84025543Y-78454956D01*
X84005552Y-78442974D01*
X83986832Y-78429090D01*
X83969562Y-78413438D01*
X83953910Y-78396168D01*
X83940026Y-78377448D01*
X83928044Y-78357457D01*
X83918079Y-78336387D01*
X83910227Y-78314443D01*
X83904563Y-78291834D01*
X83901144Y-78268779D01*
X83900000Y-78245500D01*
X83900000Y-77670500D01*
X83901144Y-77647221D01*
X83904563Y-77624166D01*
X83910227Y-77601557D01*
X83918079Y-77579613D01*
X83928044Y-77558543D01*
X83940026Y-77538552D01*
X83953910Y-77519832D01*
X83969562Y-77502562D01*
X83986832Y-77486910D01*
X84005552Y-77473026D01*
X84025543Y-77461044D01*
X84046613Y-77451079D01*
X84068557Y-77443227D01*
X84091166Y-77437563D01*
X84114221Y-77434144D01*
X84137500Y-77433000D01*
X84612500Y-77433000D01*
X84635779Y-77434144D01*
G37*
G36*
X84635779Y-75684144D02*
G01*
X84658834Y-75687563D01*
X84681443Y-75693227D01*
X84703387Y-75701079D01*
X84724457Y-75711044D01*
X84744448Y-75723026D01*
X84763168Y-75736910D01*
X84780438Y-75752562D01*
X84796090Y-75769832D01*
X84809974Y-75788552D01*
X84821956Y-75808543D01*
X84831921Y-75829613D01*
X84839773Y-75851557D01*
X84845437Y-75874166D01*
X84848856Y-75897221D01*
X84850000Y-75920500D01*
X84850000Y-76495500D01*
X84848856Y-76518779D01*
X84845437Y-76541834D01*
X84839773Y-76564443D01*
X84831921Y-76586387D01*
X84821956Y-76607457D01*
X84809974Y-76627448D01*
X84796090Y-76646168D01*
X84780438Y-76663438D01*
X84763168Y-76679090D01*
X84744448Y-76692974D01*
X84724457Y-76704956D01*
X84703387Y-76714921D01*
X84681443Y-76722773D01*
X84658834Y-76728437D01*
X84635779Y-76731856D01*
X84612500Y-76733000D01*
X84137500Y-76733000D01*
X84114221Y-76731856D01*
X84091166Y-76728437D01*
X84068557Y-76722773D01*
X84046613Y-76714921D01*
X84025543Y-76704956D01*
X84005552Y-76692974D01*
X83986832Y-76679090D01*
X83969562Y-76663438D01*
X83953910Y-76646168D01*
X83940026Y-76627448D01*
X83928044Y-76607457D01*
X83918079Y-76586387D01*
X83910227Y-76564443D01*
X83904563Y-76541834D01*
X83901144Y-76518779D01*
X83900000Y-76495500D01*
X83900000Y-75920500D01*
X83901144Y-75897221D01*
X83904563Y-75874166D01*
X83910227Y-75851557D01*
X83918079Y-75829613D01*
X83928044Y-75808543D01*
X83940026Y-75788552D01*
X83953910Y-75769832D01*
X83969562Y-75752562D01*
X83986832Y-75736910D01*
X84005552Y-75723026D01*
X84025543Y-75711044D01*
X84046613Y-75701079D01*
X84068557Y-75693227D01*
X84091166Y-75687563D01*
X84114221Y-75684144D01*
X84137500Y-75683000D01*
X84612500Y-75683000D01*
X84635779Y-75684144D01*
G37*
G36*
X103909504Y-74796204D02*
G01*
X103933773Y-74799804D01*
X103957571Y-74805765D01*
X103980671Y-74814030D01*
X104002849Y-74824520D01*
X104023893Y-74837133D01*
X104043598Y-74851747D01*
X104061777Y-74868223D01*
X104078253Y-74886402D01*
X104092867Y-74906107D01*
X104105480Y-74927151D01*
X104115970Y-74949329D01*
X104124235Y-74972429D01*
X104130196Y-74996227D01*
X104133796Y-75020496D01*
X104135000Y-75045000D01*
X104135000Y-75970000D01*
X104133796Y-75994504D01*
X104130196Y-76018773D01*
X104124235Y-76042571D01*
X104115970Y-76065671D01*
X104105480Y-76087849D01*
X104092867Y-76108893D01*
X104078253Y-76128598D01*
X104061777Y-76146777D01*
X104043598Y-76163253D01*
X104023893Y-76177867D01*
X104002849Y-76190480D01*
X103980671Y-76200970D01*
X103957571Y-76209235D01*
X103933773Y-76215196D01*
X103909504Y-76218796D01*
X103885000Y-76220000D01*
X101735000Y-76220000D01*
X101710496Y-76218796D01*
X101686227Y-76215196D01*
X101662429Y-76209235D01*
X101639329Y-76200970D01*
X101617151Y-76190480D01*
X101596107Y-76177867D01*
X101576402Y-76163253D01*
X101558223Y-76146777D01*
X101541747Y-76128598D01*
X101527133Y-76108893D01*
X101514520Y-76087849D01*
X101504030Y-76065671D01*
X101495765Y-76042571D01*
X101489804Y-76018773D01*
X101486204Y-75994504D01*
X101485000Y-75970000D01*
X101485000Y-75045000D01*
X101486204Y-75020496D01*
X101489804Y-74996227D01*
X101495765Y-74972429D01*
X101504030Y-74949329D01*
X101514520Y-74927151D01*
X101527133Y-74906107D01*
X101541747Y-74886402D01*
X101558223Y-74868223D01*
X101576402Y-74851747D01*
X101596107Y-74837133D01*
X101617151Y-74824520D01*
X101639329Y-74814030D01*
X101662429Y-74805765D01*
X101686227Y-74799804D01*
X101710496Y-74796204D01*
X101735000Y-74795000D01*
X103885000Y-74795000D01*
X103909504Y-74796204D01*
G37*
G36*
X103909504Y-71821204D02*
G01*
X103933773Y-71824804D01*
X103957571Y-71830765D01*
X103980671Y-71839030D01*
X104002849Y-71849520D01*
X104023893Y-71862133D01*
X104043598Y-71876747D01*
X104061777Y-71893223D01*
X104078253Y-71911402D01*
X104092867Y-71931107D01*
X104105480Y-71952151D01*
X104115970Y-71974329D01*
X104124235Y-71997429D01*
X104130196Y-72021227D01*
X104133796Y-72045496D01*
X104135000Y-72070000D01*
X104135000Y-72995000D01*
X104133796Y-73019504D01*
X104130196Y-73043773D01*
X104124235Y-73067571D01*
X104115970Y-73090671D01*
X104105480Y-73112849D01*
X104092867Y-73133893D01*
X104078253Y-73153598D01*
X104061777Y-73171777D01*
X104043598Y-73188253D01*
X104023893Y-73202867D01*
X104002849Y-73215480D01*
X103980671Y-73225970D01*
X103957571Y-73234235D01*
X103933773Y-73240196D01*
X103909504Y-73243796D01*
X103885000Y-73245000D01*
X101735000Y-73245000D01*
X101710496Y-73243796D01*
X101686227Y-73240196D01*
X101662429Y-73234235D01*
X101639329Y-73225970D01*
X101617151Y-73215480D01*
X101596107Y-73202867D01*
X101576402Y-73188253D01*
X101558223Y-73171777D01*
X101541747Y-73153598D01*
X101527133Y-73133893D01*
X101514520Y-73112849D01*
X101504030Y-73090671D01*
X101495765Y-73067571D01*
X101489804Y-73043773D01*
X101486204Y-73019504D01*
X101485000Y-72995000D01*
X101485000Y-72070000D01*
X101486204Y-72045496D01*
X101489804Y-72021227D01*
X101495765Y-71997429D01*
X101504030Y-71974329D01*
X101514520Y-71952151D01*
X101527133Y-71931107D01*
X101541747Y-71911402D01*
X101558223Y-71893223D01*
X101576402Y-71876747D01*
X101596107Y-71862133D01*
X101617151Y-71849520D01*
X101639329Y-71839030D01*
X101662429Y-71830765D01*
X101686227Y-71824804D01*
X101710496Y-71821204D01*
X101735000Y-71820000D01*
X103885000Y-71820000D01*
X103909504Y-71821204D01*
G37*
G36*
X77581504Y-110370204D02*
G01*
X77605773Y-110373804D01*
X77629571Y-110379765D01*
X77652671Y-110388030D01*
X77674849Y-110398520D01*
X77695893Y-110411133D01*
X77715598Y-110425747D01*
X77733777Y-110442223D01*
X77750253Y-110460402D01*
X77764867Y-110480107D01*
X77777480Y-110501151D01*
X77787970Y-110523329D01*
X77796235Y-110546429D01*
X77802196Y-110570227D01*
X77805796Y-110594496D01*
X77807000Y-110619000D01*
X77807000Y-112769000D01*
X77805796Y-112793504D01*
X77802196Y-112817773D01*
X77796235Y-112841571D01*
X77787970Y-112864671D01*
X77777480Y-112886849D01*
X77764867Y-112907893D01*
X77750253Y-112927598D01*
X77733777Y-112945777D01*
X77715598Y-112962253D01*
X77695893Y-112976867D01*
X77674849Y-112989480D01*
X77652671Y-112999970D01*
X77629571Y-113008235D01*
X77605773Y-113014196D01*
X77581504Y-113017796D01*
X77557000Y-113019000D01*
X76632000Y-113019000D01*
X76607496Y-113017796D01*
X76583227Y-113014196D01*
X76559429Y-113008235D01*
X76536329Y-112999970D01*
X76514151Y-112989480D01*
X76493107Y-112976867D01*
X76473402Y-112962253D01*
X76455223Y-112945777D01*
X76438747Y-112927598D01*
X76424133Y-112907893D01*
X76411520Y-112886849D01*
X76401030Y-112864671D01*
X76392765Y-112841571D01*
X76386804Y-112817773D01*
X76383204Y-112793504D01*
X76382000Y-112769000D01*
X76382000Y-110619000D01*
X76383204Y-110594496D01*
X76386804Y-110570227D01*
X76392765Y-110546429D01*
X76401030Y-110523329D01*
X76411520Y-110501151D01*
X76424133Y-110480107D01*
X76438747Y-110460402D01*
X76455223Y-110442223D01*
X76473402Y-110425747D01*
X76493107Y-110411133D01*
X76514151Y-110398520D01*
X76536329Y-110388030D01*
X76559429Y-110379765D01*
X76583227Y-110373804D01*
X76607496Y-110370204D01*
X76632000Y-110369000D01*
X77557000Y-110369000D01*
X77581504Y-110370204D01*
G37*
G36*
X80556504Y-110370204D02*
G01*
X80580773Y-110373804D01*
X80604571Y-110379765D01*
X80627671Y-110388030D01*
X80649849Y-110398520D01*
X80670893Y-110411133D01*
X80690598Y-110425747D01*
X80708777Y-110442223D01*
X80725253Y-110460402D01*
X80739867Y-110480107D01*
X80752480Y-110501151D01*
X80762970Y-110523329D01*
X80771235Y-110546429D01*
X80777196Y-110570227D01*
X80780796Y-110594496D01*
X80782000Y-110619000D01*
X80782000Y-112769000D01*
X80780796Y-112793504D01*
X80777196Y-112817773D01*
X80771235Y-112841571D01*
X80762970Y-112864671D01*
X80752480Y-112886849D01*
X80739867Y-112907893D01*
X80725253Y-112927598D01*
X80708777Y-112945777D01*
X80690598Y-112962253D01*
X80670893Y-112976867D01*
X80649849Y-112989480D01*
X80627671Y-112999970D01*
X80604571Y-113008235D01*
X80580773Y-113014196D01*
X80556504Y-113017796D01*
X80532000Y-113019000D01*
X79607000Y-113019000D01*
X79582496Y-113017796D01*
X79558227Y-113014196D01*
X79534429Y-113008235D01*
X79511329Y-112999970D01*
X79489151Y-112989480D01*
X79468107Y-112976867D01*
X79448402Y-112962253D01*
X79430223Y-112945777D01*
X79413747Y-112927598D01*
X79399133Y-112907893D01*
X79386520Y-112886849D01*
X79376030Y-112864671D01*
X79367765Y-112841571D01*
X79361804Y-112817773D01*
X79358204Y-112793504D01*
X79357000Y-112769000D01*
X79357000Y-110619000D01*
X79358204Y-110594496D01*
X79361804Y-110570227D01*
X79367765Y-110546429D01*
X79376030Y-110523329D01*
X79386520Y-110501151D01*
X79399133Y-110480107D01*
X79413747Y-110460402D01*
X79430223Y-110442223D01*
X79448402Y-110425747D01*
X79468107Y-110411133D01*
X79489151Y-110398520D01*
X79511329Y-110388030D01*
X79534429Y-110379765D01*
X79558227Y-110373804D01*
X79582496Y-110370204D01*
X79607000Y-110369000D01*
X80532000Y-110369000D01*
X80556504Y-110370204D01*
G37*
D31*
X109290000Y-128200000D03*
X109290000Y-43196646D03*
X86510000Y-128200000D03*
X86512102Y-43196646D03*
D10*
G36*
X108930779Y-67471144D02*
G01*
X108953834Y-67474563D01*
X108976443Y-67480227D01*
X108998387Y-67488079D01*
X109019457Y-67498044D01*
X109039448Y-67510026D01*
X109058168Y-67523910D01*
X109075438Y-67539562D01*
X109091090Y-67556832D01*
X109104974Y-67575552D01*
X109116956Y-67595543D01*
X109126921Y-67616613D01*
X109134773Y-67638557D01*
X109140437Y-67661166D01*
X109143856Y-67684221D01*
X109145000Y-67707500D01*
X109145000Y-68282500D01*
X109143856Y-68305779D01*
X109140437Y-68328834D01*
X109134773Y-68351443D01*
X109126921Y-68373387D01*
X109116956Y-68394457D01*
X109104974Y-68414448D01*
X109091090Y-68433168D01*
X109075438Y-68450438D01*
X109058168Y-68466090D01*
X109039448Y-68479974D01*
X109019457Y-68491956D01*
X108998387Y-68501921D01*
X108976443Y-68509773D01*
X108953834Y-68515437D01*
X108930779Y-68518856D01*
X108907500Y-68520000D01*
X108432500Y-68520000D01*
X108409221Y-68518856D01*
X108386166Y-68515437D01*
X108363557Y-68509773D01*
X108341613Y-68501921D01*
X108320543Y-68491956D01*
X108300552Y-68479974D01*
X108281832Y-68466090D01*
X108264562Y-68450438D01*
X108248910Y-68433168D01*
X108235026Y-68414448D01*
X108223044Y-68394457D01*
X108213079Y-68373387D01*
X108205227Y-68351443D01*
X108199563Y-68328834D01*
X108196144Y-68305779D01*
X108195000Y-68282500D01*
X108195000Y-67707500D01*
X108196144Y-67684221D01*
X108199563Y-67661166D01*
X108205227Y-67638557D01*
X108213079Y-67616613D01*
X108223044Y-67595543D01*
X108235026Y-67575552D01*
X108248910Y-67556832D01*
X108264562Y-67539562D01*
X108281832Y-67523910D01*
X108300552Y-67510026D01*
X108320543Y-67498044D01*
X108341613Y-67488079D01*
X108363557Y-67480227D01*
X108386166Y-67474563D01*
X108409221Y-67471144D01*
X108432500Y-67470000D01*
X108907500Y-67470000D01*
X108930779Y-67471144D01*
G37*
G36*
X108930779Y-65721144D02*
G01*
X108953834Y-65724563D01*
X108976443Y-65730227D01*
X108998387Y-65738079D01*
X109019457Y-65748044D01*
X109039448Y-65760026D01*
X109058168Y-65773910D01*
X109075438Y-65789562D01*
X109091090Y-65806832D01*
X109104974Y-65825552D01*
X109116956Y-65845543D01*
X109126921Y-65866613D01*
X109134773Y-65888557D01*
X109140437Y-65911166D01*
X109143856Y-65934221D01*
X109145000Y-65957500D01*
X109145000Y-66532500D01*
X109143856Y-66555779D01*
X109140437Y-66578834D01*
X109134773Y-66601443D01*
X109126921Y-66623387D01*
X109116956Y-66644457D01*
X109104974Y-66664448D01*
X109091090Y-66683168D01*
X109075438Y-66700438D01*
X109058168Y-66716090D01*
X109039448Y-66729974D01*
X109019457Y-66741956D01*
X108998387Y-66751921D01*
X108976443Y-66759773D01*
X108953834Y-66765437D01*
X108930779Y-66768856D01*
X108907500Y-66770000D01*
X108432500Y-66770000D01*
X108409221Y-66768856D01*
X108386166Y-66765437D01*
X108363557Y-66759773D01*
X108341613Y-66751921D01*
X108320543Y-66741956D01*
X108300552Y-66729974D01*
X108281832Y-66716090D01*
X108264562Y-66700438D01*
X108248910Y-66683168D01*
X108235026Y-66664448D01*
X108223044Y-66644457D01*
X108213079Y-66623387D01*
X108205227Y-66601443D01*
X108199563Y-66578834D01*
X108196144Y-66555779D01*
X108195000Y-66532500D01*
X108195000Y-65957500D01*
X108196144Y-65934221D01*
X108199563Y-65911166D01*
X108205227Y-65888557D01*
X108213079Y-65866613D01*
X108223044Y-65845543D01*
X108235026Y-65825552D01*
X108248910Y-65806832D01*
X108264562Y-65789562D01*
X108281832Y-65773910D01*
X108300552Y-65760026D01*
X108320543Y-65748044D01*
X108341613Y-65738079D01*
X108363557Y-65730227D01*
X108386166Y-65724563D01*
X108409221Y-65721144D01*
X108432500Y-65720000D01*
X108907500Y-65720000D01*
X108930779Y-65721144D01*
G37*
G36*
X78779779Y-115538144D02*
G01*
X78802834Y-115541563D01*
X78825443Y-115547227D01*
X78847387Y-115555079D01*
X78868457Y-115565044D01*
X78888448Y-115577026D01*
X78907168Y-115590910D01*
X78924438Y-115606562D01*
X78940090Y-115623832D01*
X78953974Y-115642552D01*
X78965956Y-115662543D01*
X78975921Y-115683613D01*
X78983773Y-115705557D01*
X78989437Y-115728166D01*
X78992856Y-115751221D01*
X78994000Y-115774500D01*
X78994000Y-116249500D01*
X78992856Y-116272779D01*
X78989437Y-116295834D01*
X78983773Y-116318443D01*
X78975921Y-116340387D01*
X78965956Y-116361457D01*
X78953974Y-116381448D01*
X78940090Y-116400168D01*
X78924438Y-116417438D01*
X78907168Y-116433090D01*
X78888448Y-116446974D01*
X78868457Y-116458956D01*
X78847387Y-116468921D01*
X78825443Y-116476773D01*
X78802834Y-116482437D01*
X78779779Y-116485856D01*
X78756500Y-116487000D01*
X78181500Y-116487000D01*
X78158221Y-116485856D01*
X78135166Y-116482437D01*
X78112557Y-116476773D01*
X78090613Y-116468921D01*
X78069543Y-116458956D01*
X78049552Y-116446974D01*
X78030832Y-116433090D01*
X78013562Y-116417438D01*
X77997910Y-116400168D01*
X77984026Y-116381448D01*
X77972044Y-116361457D01*
X77962079Y-116340387D01*
X77954227Y-116318443D01*
X77948563Y-116295834D01*
X77945144Y-116272779D01*
X77944000Y-116249500D01*
X77944000Y-115774500D01*
X77945144Y-115751221D01*
X77948563Y-115728166D01*
X77954227Y-115705557D01*
X77962079Y-115683613D01*
X77972044Y-115662543D01*
X77984026Y-115642552D01*
X77997910Y-115623832D01*
X78013562Y-115606562D01*
X78030832Y-115590910D01*
X78049552Y-115577026D01*
X78069543Y-115565044D01*
X78090613Y-115555079D01*
X78112557Y-115547227D01*
X78135166Y-115541563D01*
X78158221Y-115538144D01*
X78181500Y-115537000D01*
X78756500Y-115537000D01*
X78779779Y-115538144D01*
G37*
G36*
X80529779Y-115538144D02*
G01*
X80552834Y-115541563D01*
X80575443Y-115547227D01*
X80597387Y-115555079D01*
X80618457Y-115565044D01*
X80638448Y-115577026D01*
X80657168Y-115590910D01*
X80674438Y-115606562D01*
X80690090Y-115623832D01*
X80703974Y-115642552D01*
X80715956Y-115662543D01*
X80725921Y-115683613D01*
X80733773Y-115705557D01*
X80739437Y-115728166D01*
X80742856Y-115751221D01*
X80744000Y-115774500D01*
X80744000Y-116249500D01*
X80742856Y-116272779D01*
X80739437Y-116295834D01*
X80733773Y-116318443D01*
X80725921Y-116340387D01*
X80715956Y-116361457D01*
X80703974Y-116381448D01*
X80690090Y-116400168D01*
X80674438Y-116417438D01*
X80657168Y-116433090D01*
X80638448Y-116446974D01*
X80618457Y-116458956D01*
X80597387Y-116468921D01*
X80575443Y-116476773D01*
X80552834Y-116482437D01*
X80529779Y-116485856D01*
X80506500Y-116487000D01*
X79931500Y-116487000D01*
X79908221Y-116485856D01*
X79885166Y-116482437D01*
X79862557Y-116476773D01*
X79840613Y-116468921D01*
X79819543Y-116458956D01*
X79799552Y-116446974D01*
X79780832Y-116433090D01*
X79763562Y-116417438D01*
X79747910Y-116400168D01*
X79734026Y-116381448D01*
X79722044Y-116361457D01*
X79712079Y-116340387D01*
X79704227Y-116318443D01*
X79698563Y-116295834D01*
X79695144Y-116272779D01*
X79694000Y-116249500D01*
X79694000Y-115774500D01*
X79695144Y-115751221D01*
X79698563Y-115728166D01*
X79704227Y-115705557D01*
X79712079Y-115683613D01*
X79722044Y-115662543D01*
X79734026Y-115642552D01*
X79747910Y-115623832D01*
X79763562Y-115606562D01*
X79780832Y-115590910D01*
X79799552Y-115577026D01*
X79819543Y-115565044D01*
X79840613Y-115555079D01*
X79862557Y-115547227D01*
X79885166Y-115541563D01*
X79908221Y-115538144D01*
X79931500Y-115537000D01*
X80506500Y-115537000D01*
X80529779Y-115538144D01*
G37*
G36*
X75125779Y-113756144D02*
G01*
X75148834Y-113759563D01*
X75171443Y-113765227D01*
X75193387Y-113773079D01*
X75214457Y-113783044D01*
X75234448Y-113795026D01*
X75253168Y-113808910D01*
X75270438Y-113824562D01*
X75286090Y-113841832D01*
X75299974Y-113860552D01*
X75311956Y-113880543D01*
X75321921Y-113901613D01*
X75329773Y-113923557D01*
X75335437Y-113946166D01*
X75338856Y-113969221D01*
X75340000Y-113992500D01*
X75340000Y-114467500D01*
X75338856Y-114490779D01*
X75335437Y-114513834D01*
X75329773Y-114536443D01*
X75321921Y-114558387D01*
X75311956Y-114579457D01*
X75299974Y-114599448D01*
X75286090Y-114618168D01*
X75270438Y-114635438D01*
X75253168Y-114651090D01*
X75234448Y-114664974D01*
X75214457Y-114676956D01*
X75193387Y-114686921D01*
X75171443Y-114694773D01*
X75148834Y-114700437D01*
X75125779Y-114703856D01*
X75102500Y-114705000D01*
X74527500Y-114705000D01*
X74504221Y-114703856D01*
X74481166Y-114700437D01*
X74458557Y-114694773D01*
X74436613Y-114686921D01*
X74415543Y-114676956D01*
X74395552Y-114664974D01*
X74376832Y-114651090D01*
X74359562Y-114635438D01*
X74343910Y-114618168D01*
X74330026Y-114599448D01*
X74318044Y-114579457D01*
X74308079Y-114558387D01*
X74300227Y-114536443D01*
X74294563Y-114513834D01*
X74291144Y-114490779D01*
X74290000Y-114467500D01*
X74290000Y-113992500D01*
X74291144Y-113969221D01*
X74294563Y-113946166D01*
X74300227Y-113923557D01*
X74308079Y-113901613D01*
X74318044Y-113880543D01*
X74330026Y-113860552D01*
X74343910Y-113841832D01*
X74359562Y-113824562D01*
X74376832Y-113808910D01*
X74395552Y-113795026D01*
X74415543Y-113783044D01*
X74436613Y-113773079D01*
X74458557Y-113765227D01*
X74481166Y-113759563D01*
X74504221Y-113756144D01*
X74527500Y-113755000D01*
X75102500Y-113755000D01*
X75125779Y-113756144D01*
G37*
G36*
X76875779Y-113756144D02*
G01*
X76898834Y-113759563D01*
X76921443Y-113765227D01*
X76943387Y-113773079D01*
X76964457Y-113783044D01*
X76984448Y-113795026D01*
X77003168Y-113808910D01*
X77020438Y-113824562D01*
X77036090Y-113841832D01*
X77049974Y-113860552D01*
X77061956Y-113880543D01*
X77071921Y-113901613D01*
X77079773Y-113923557D01*
X77085437Y-113946166D01*
X77088856Y-113969221D01*
X77090000Y-113992500D01*
X77090000Y-114467500D01*
X77088856Y-114490779D01*
X77085437Y-114513834D01*
X77079773Y-114536443D01*
X77071921Y-114558387D01*
X77061956Y-114579457D01*
X77049974Y-114599448D01*
X77036090Y-114618168D01*
X77020438Y-114635438D01*
X77003168Y-114651090D01*
X76984448Y-114664974D01*
X76964457Y-114676956D01*
X76943387Y-114686921D01*
X76921443Y-114694773D01*
X76898834Y-114700437D01*
X76875779Y-114703856D01*
X76852500Y-114705000D01*
X76277500Y-114705000D01*
X76254221Y-114703856D01*
X76231166Y-114700437D01*
X76208557Y-114694773D01*
X76186613Y-114686921D01*
X76165543Y-114676956D01*
X76145552Y-114664974D01*
X76126832Y-114651090D01*
X76109562Y-114635438D01*
X76093910Y-114618168D01*
X76080026Y-114599448D01*
X76068044Y-114579457D01*
X76058079Y-114558387D01*
X76050227Y-114536443D01*
X76044563Y-114513834D01*
X76041144Y-114490779D01*
X76040000Y-114467500D01*
X76040000Y-113992500D01*
X76041144Y-113969221D01*
X76044563Y-113946166D01*
X76050227Y-113923557D01*
X76058079Y-113901613D01*
X76068044Y-113880543D01*
X76080026Y-113860552D01*
X76093910Y-113841832D01*
X76109562Y-113824562D01*
X76126832Y-113808910D01*
X76145552Y-113795026D01*
X76165543Y-113783044D01*
X76186613Y-113773079D01*
X76208557Y-113765227D01*
X76231166Y-113759563D01*
X76254221Y-113756144D01*
X76277500Y-113755000D01*
X76852500Y-113755000D01*
X76875779Y-113756144D01*
G37*
G36*
X78779779Y-113760144D02*
G01*
X78802834Y-113763563D01*
X78825443Y-113769227D01*
X78847387Y-113777079D01*
X78868457Y-113787044D01*
X78888448Y-113799026D01*
X78907168Y-113812910D01*
X78924438Y-113828562D01*
X78940090Y-113845832D01*
X78953974Y-113864552D01*
X78965956Y-113884543D01*
X78975921Y-113905613D01*
X78983773Y-113927557D01*
X78989437Y-113950166D01*
X78992856Y-113973221D01*
X78994000Y-113996500D01*
X78994000Y-114471500D01*
X78992856Y-114494779D01*
X78989437Y-114517834D01*
X78983773Y-114540443D01*
X78975921Y-114562387D01*
X78965956Y-114583457D01*
X78953974Y-114603448D01*
X78940090Y-114622168D01*
X78924438Y-114639438D01*
X78907168Y-114655090D01*
X78888448Y-114668974D01*
X78868457Y-114680956D01*
X78847387Y-114690921D01*
X78825443Y-114698773D01*
X78802834Y-114704437D01*
X78779779Y-114707856D01*
X78756500Y-114709000D01*
X78181500Y-114709000D01*
X78158221Y-114707856D01*
X78135166Y-114704437D01*
X78112557Y-114698773D01*
X78090613Y-114690921D01*
X78069543Y-114680956D01*
X78049552Y-114668974D01*
X78030832Y-114655090D01*
X78013562Y-114639438D01*
X77997910Y-114622168D01*
X77984026Y-114603448D01*
X77972044Y-114583457D01*
X77962079Y-114562387D01*
X77954227Y-114540443D01*
X77948563Y-114517834D01*
X77945144Y-114494779D01*
X77944000Y-114471500D01*
X77944000Y-113996500D01*
X77945144Y-113973221D01*
X77948563Y-113950166D01*
X77954227Y-113927557D01*
X77962079Y-113905613D01*
X77972044Y-113884543D01*
X77984026Y-113864552D01*
X77997910Y-113845832D01*
X78013562Y-113828562D01*
X78030832Y-113812910D01*
X78049552Y-113799026D01*
X78069543Y-113787044D01*
X78090613Y-113777079D01*
X78112557Y-113769227D01*
X78135166Y-113763563D01*
X78158221Y-113760144D01*
X78181500Y-113759000D01*
X78756500Y-113759000D01*
X78779779Y-113760144D01*
G37*
G36*
X80529779Y-113760144D02*
G01*
X80552834Y-113763563D01*
X80575443Y-113769227D01*
X80597387Y-113777079D01*
X80618457Y-113787044D01*
X80638448Y-113799026D01*
X80657168Y-113812910D01*
X80674438Y-113828562D01*
X80690090Y-113845832D01*
X80703974Y-113864552D01*
X80715956Y-113884543D01*
X80725921Y-113905613D01*
X80733773Y-113927557D01*
X80739437Y-113950166D01*
X80742856Y-113973221D01*
X80744000Y-113996500D01*
X80744000Y-114471500D01*
X80742856Y-114494779D01*
X80739437Y-114517834D01*
X80733773Y-114540443D01*
X80725921Y-114562387D01*
X80715956Y-114583457D01*
X80703974Y-114603448D01*
X80690090Y-114622168D01*
X80674438Y-114639438D01*
X80657168Y-114655090D01*
X80638448Y-114668974D01*
X80618457Y-114680956D01*
X80597387Y-114690921D01*
X80575443Y-114698773D01*
X80552834Y-114704437D01*
X80529779Y-114707856D01*
X80506500Y-114709000D01*
X79931500Y-114709000D01*
X79908221Y-114707856D01*
X79885166Y-114704437D01*
X79862557Y-114698773D01*
X79840613Y-114690921D01*
X79819543Y-114680956D01*
X79799552Y-114668974D01*
X79780832Y-114655090D01*
X79763562Y-114639438D01*
X79747910Y-114622168D01*
X79734026Y-114603448D01*
X79722044Y-114583457D01*
X79712079Y-114562387D01*
X79704227Y-114540443D01*
X79698563Y-114517834D01*
X79695144Y-114494779D01*
X79694000Y-114471500D01*
X79694000Y-113996500D01*
X79695144Y-113973221D01*
X79698563Y-113950166D01*
X79704227Y-113927557D01*
X79712079Y-113905613D01*
X79722044Y-113884543D01*
X79734026Y-113864552D01*
X79747910Y-113845832D01*
X79763562Y-113828562D01*
X79780832Y-113812910D01*
X79799552Y-113799026D01*
X79819543Y-113787044D01*
X79840613Y-113777079D01*
X79862557Y-113769227D01*
X79885166Y-113763563D01*
X79908221Y-113760144D01*
X79931500Y-113759000D01*
X80506500Y-113759000D01*
X80529779Y-113760144D01*
G37*
G36*
X82750779Y-108741144D02*
G01*
X82773834Y-108744563D01*
X82796443Y-108750227D01*
X82818387Y-108758079D01*
X82839457Y-108768044D01*
X82859448Y-108780026D01*
X82878168Y-108793910D01*
X82895438Y-108809562D01*
X82911090Y-108826832D01*
X82924974Y-108845552D01*
X82936956Y-108865543D01*
X82946921Y-108886613D01*
X82954773Y-108908557D01*
X82960437Y-108931166D01*
X82963856Y-108954221D01*
X82965000Y-108977500D01*
X82965000Y-109552500D01*
X82963856Y-109575779D01*
X82960437Y-109598834D01*
X82954773Y-109621443D01*
X82946921Y-109643387D01*
X82936956Y-109664457D01*
X82924974Y-109684448D01*
X82911090Y-109703168D01*
X82895438Y-109720438D01*
X82878168Y-109736090D01*
X82859448Y-109749974D01*
X82839457Y-109761956D01*
X82818387Y-109771921D01*
X82796443Y-109779773D01*
X82773834Y-109785437D01*
X82750779Y-109788856D01*
X82727500Y-109790000D01*
X82252500Y-109790000D01*
X82229221Y-109788856D01*
X82206166Y-109785437D01*
X82183557Y-109779773D01*
X82161613Y-109771921D01*
X82140543Y-109761956D01*
X82120552Y-109749974D01*
X82101832Y-109736090D01*
X82084562Y-109720438D01*
X82068910Y-109703168D01*
X82055026Y-109684448D01*
X82043044Y-109664457D01*
X82033079Y-109643387D01*
X82025227Y-109621443D01*
X82019563Y-109598834D01*
X82016144Y-109575779D01*
X82015000Y-109552500D01*
X82015000Y-108977500D01*
X82016144Y-108954221D01*
X82019563Y-108931166D01*
X82025227Y-108908557D01*
X82033079Y-108886613D01*
X82043044Y-108865543D01*
X82055026Y-108845552D01*
X82068910Y-108826832D01*
X82084562Y-108809562D01*
X82101832Y-108793910D01*
X82120552Y-108780026D01*
X82140543Y-108768044D01*
X82161613Y-108758079D01*
X82183557Y-108750227D01*
X82206166Y-108744563D01*
X82229221Y-108741144D01*
X82252500Y-108740000D01*
X82727500Y-108740000D01*
X82750779Y-108741144D01*
G37*
G36*
X82750779Y-106991144D02*
G01*
X82773834Y-106994563D01*
X82796443Y-107000227D01*
X82818387Y-107008079D01*
X82839457Y-107018044D01*
X82859448Y-107030026D01*
X82878168Y-107043910D01*
X82895438Y-107059562D01*
X82911090Y-107076832D01*
X82924974Y-107095552D01*
X82936956Y-107115543D01*
X82946921Y-107136613D01*
X82954773Y-107158557D01*
X82960437Y-107181166D01*
X82963856Y-107204221D01*
X82965000Y-107227500D01*
X82965000Y-107802500D01*
X82963856Y-107825779D01*
X82960437Y-107848834D01*
X82954773Y-107871443D01*
X82946921Y-107893387D01*
X82936956Y-107914457D01*
X82924974Y-107934448D01*
X82911090Y-107953168D01*
X82895438Y-107970438D01*
X82878168Y-107986090D01*
X82859448Y-107999974D01*
X82839457Y-108011956D01*
X82818387Y-108021921D01*
X82796443Y-108029773D01*
X82773834Y-108035437D01*
X82750779Y-108038856D01*
X82727500Y-108040000D01*
X82252500Y-108040000D01*
X82229221Y-108038856D01*
X82206166Y-108035437D01*
X82183557Y-108029773D01*
X82161613Y-108021921D01*
X82140543Y-108011956D01*
X82120552Y-107999974D01*
X82101832Y-107986090D01*
X82084562Y-107970438D01*
X82068910Y-107953168D01*
X82055026Y-107934448D01*
X82043044Y-107914457D01*
X82033079Y-107893387D01*
X82025227Y-107871443D01*
X82019563Y-107848834D01*
X82016144Y-107825779D01*
X82015000Y-107802500D01*
X82015000Y-107227500D01*
X82016144Y-107204221D01*
X82019563Y-107181166D01*
X82025227Y-107158557D01*
X82033079Y-107136613D01*
X82043044Y-107115543D01*
X82055026Y-107095552D01*
X82068910Y-107076832D01*
X82084562Y-107059562D01*
X82101832Y-107043910D01*
X82120552Y-107030026D01*
X82140543Y-107018044D01*
X82161613Y-107008079D01*
X82183557Y-107000227D01*
X82206166Y-106994563D01*
X82229221Y-106991144D01*
X82252500Y-106990000D01*
X82727500Y-106990000D01*
X82750779Y-106991144D01*
G37*
G36*
X84830779Y-88936144D02*
G01*
X84853834Y-88939563D01*
X84876443Y-88945227D01*
X84898387Y-88953079D01*
X84919457Y-88963044D01*
X84939448Y-88975026D01*
X84958168Y-88988910D01*
X84975438Y-89004562D01*
X84991090Y-89021832D01*
X85004974Y-89040552D01*
X85016956Y-89060543D01*
X85026921Y-89081613D01*
X85034773Y-89103557D01*
X85040437Y-89126166D01*
X85043856Y-89149221D01*
X85045000Y-89172500D01*
X85045000Y-89647500D01*
X85043856Y-89670779D01*
X85040437Y-89693834D01*
X85034773Y-89716443D01*
X85026921Y-89738387D01*
X85016956Y-89759457D01*
X85004974Y-89779448D01*
X84991090Y-89798168D01*
X84975438Y-89815438D01*
X84958168Y-89831090D01*
X84939448Y-89844974D01*
X84919457Y-89856956D01*
X84898387Y-89866921D01*
X84876443Y-89874773D01*
X84853834Y-89880437D01*
X84830779Y-89883856D01*
X84807500Y-89885000D01*
X84232500Y-89885000D01*
X84209221Y-89883856D01*
X84186166Y-89880437D01*
X84163557Y-89874773D01*
X84141613Y-89866921D01*
X84120543Y-89856956D01*
X84100552Y-89844974D01*
X84081832Y-89831090D01*
X84064562Y-89815438D01*
X84048910Y-89798168D01*
X84035026Y-89779448D01*
X84023044Y-89759457D01*
X84013079Y-89738387D01*
X84005227Y-89716443D01*
X83999563Y-89693834D01*
X83996144Y-89670779D01*
X83995000Y-89647500D01*
X83995000Y-89172500D01*
X83996144Y-89149221D01*
X83999563Y-89126166D01*
X84005227Y-89103557D01*
X84013079Y-89081613D01*
X84023044Y-89060543D01*
X84035026Y-89040552D01*
X84048910Y-89021832D01*
X84064562Y-89004562D01*
X84081832Y-88988910D01*
X84100552Y-88975026D01*
X84120543Y-88963044D01*
X84141613Y-88953079D01*
X84163557Y-88945227D01*
X84186166Y-88939563D01*
X84209221Y-88936144D01*
X84232500Y-88935000D01*
X84807500Y-88935000D01*
X84830779Y-88936144D01*
G37*
G36*
X83080779Y-88936144D02*
G01*
X83103834Y-88939563D01*
X83126443Y-88945227D01*
X83148387Y-88953079D01*
X83169457Y-88963044D01*
X83189448Y-88975026D01*
X83208168Y-88988910D01*
X83225438Y-89004562D01*
X83241090Y-89021832D01*
X83254974Y-89040552D01*
X83266956Y-89060543D01*
X83276921Y-89081613D01*
X83284773Y-89103557D01*
X83290437Y-89126166D01*
X83293856Y-89149221D01*
X83295000Y-89172500D01*
X83295000Y-89647500D01*
X83293856Y-89670779D01*
X83290437Y-89693834D01*
X83284773Y-89716443D01*
X83276921Y-89738387D01*
X83266956Y-89759457D01*
X83254974Y-89779448D01*
X83241090Y-89798168D01*
X83225438Y-89815438D01*
X83208168Y-89831090D01*
X83189448Y-89844974D01*
X83169457Y-89856956D01*
X83148387Y-89866921D01*
X83126443Y-89874773D01*
X83103834Y-89880437D01*
X83080779Y-89883856D01*
X83057500Y-89885000D01*
X82482500Y-89885000D01*
X82459221Y-89883856D01*
X82436166Y-89880437D01*
X82413557Y-89874773D01*
X82391613Y-89866921D01*
X82370543Y-89856956D01*
X82350552Y-89844974D01*
X82331832Y-89831090D01*
X82314562Y-89815438D01*
X82298910Y-89798168D01*
X82285026Y-89779448D01*
X82273044Y-89759457D01*
X82263079Y-89738387D01*
X82255227Y-89716443D01*
X82249563Y-89693834D01*
X82246144Y-89670779D01*
X82245000Y-89647500D01*
X82245000Y-89172500D01*
X82246144Y-89149221D01*
X82249563Y-89126166D01*
X82255227Y-89103557D01*
X82263079Y-89081613D01*
X82273044Y-89060543D01*
X82285026Y-89040552D01*
X82298910Y-89021832D01*
X82314562Y-89004562D01*
X82331832Y-88988910D01*
X82350552Y-88975026D01*
X82370543Y-88963044D01*
X82391613Y-88953079D01*
X82413557Y-88945227D01*
X82436166Y-88939563D01*
X82459221Y-88936144D01*
X82482500Y-88935000D01*
X83057500Y-88935000D01*
X83080779Y-88936144D01*
G37*
G36*
X94940505Y-53181204D02*
G01*
X94964773Y-53184804D01*
X94988572Y-53190765D01*
X95011671Y-53199030D01*
X95033850Y-53209520D01*
X95054893Y-53222132D01*
X95074599Y-53236747D01*
X95092777Y-53253223D01*
X95109253Y-53271401D01*
X95123868Y-53291107D01*
X95136480Y-53312150D01*
X95146970Y-53334329D01*
X95155235Y-53357428D01*
X95161196Y-53381227D01*
X95164796Y-53405495D01*
X95166000Y-53429999D01*
X95166000Y-54330001D01*
X95164796Y-54354505D01*
X95161196Y-54378773D01*
X95155235Y-54402572D01*
X95146970Y-54425671D01*
X95136480Y-54447850D01*
X95123868Y-54468893D01*
X95109253Y-54488599D01*
X95092777Y-54506777D01*
X95074599Y-54523253D01*
X95054893Y-54537868D01*
X95033850Y-54550480D01*
X95011671Y-54560970D01*
X94988572Y-54569235D01*
X94964773Y-54575196D01*
X94940505Y-54578796D01*
X94916001Y-54580000D01*
X94265999Y-54580000D01*
X94241495Y-54578796D01*
X94217227Y-54575196D01*
X94193428Y-54569235D01*
X94170329Y-54560970D01*
X94148150Y-54550480D01*
X94127107Y-54537868D01*
X94107401Y-54523253D01*
X94089223Y-54506777D01*
X94072747Y-54488599D01*
X94058132Y-54468893D01*
X94045520Y-54447850D01*
X94035030Y-54425671D01*
X94026765Y-54402572D01*
X94020804Y-54378773D01*
X94017204Y-54354505D01*
X94016000Y-54330001D01*
X94016000Y-53429999D01*
X94017204Y-53405495D01*
X94020804Y-53381227D01*
X94026765Y-53357428D01*
X94035030Y-53334329D01*
X94045520Y-53312150D01*
X94058132Y-53291107D01*
X94072747Y-53271401D01*
X94089223Y-53253223D01*
X94107401Y-53236747D01*
X94127107Y-53222132D01*
X94148150Y-53209520D01*
X94170329Y-53199030D01*
X94193428Y-53190765D01*
X94217227Y-53184804D01*
X94241495Y-53181204D01*
X94265999Y-53180000D01*
X94916001Y-53180000D01*
X94940505Y-53181204D01*
G37*
G36*
X96990505Y-53181204D02*
G01*
X97014773Y-53184804D01*
X97038572Y-53190765D01*
X97061671Y-53199030D01*
X97083850Y-53209520D01*
X97104893Y-53222132D01*
X97124599Y-53236747D01*
X97142777Y-53253223D01*
X97159253Y-53271401D01*
X97173868Y-53291107D01*
X97186480Y-53312150D01*
X97196970Y-53334329D01*
X97205235Y-53357428D01*
X97211196Y-53381227D01*
X97214796Y-53405495D01*
X97216000Y-53429999D01*
X97216000Y-54330001D01*
X97214796Y-54354505D01*
X97211196Y-54378773D01*
X97205235Y-54402572D01*
X97196970Y-54425671D01*
X97186480Y-54447850D01*
X97173868Y-54468893D01*
X97159253Y-54488599D01*
X97142777Y-54506777D01*
X97124599Y-54523253D01*
X97104893Y-54537868D01*
X97083850Y-54550480D01*
X97061671Y-54560970D01*
X97038572Y-54569235D01*
X97014773Y-54575196D01*
X96990505Y-54578796D01*
X96966001Y-54580000D01*
X96315999Y-54580000D01*
X96291495Y-54578796D01*
X96267227Y-54575196D01*
X96243428Y-54569235D01*
X96220329Y-54560970D01*
X96198150Y-54550480D01*
X96177107Y-54537868D01*
X96157401Y-54523253D01*
X96139223Y-54506777D01*
X96122747Y-54488599D01*
X96108132Y-54468893D01*
X96095520Y-54447850D01*
X96085030Y-54425671D01*
X96076765Y-54402572D01*
X96070804Y-54378773D01*
X96067204Y-54354505D01*
X96066000Y-54330001D01*
X96066000Y-53429999D01*
X96067204Y-53405495D01*
X96070804Y-53381227D01*
X96076765Y-53357428D01*
X96085030Y-53334329D01*
X96095520Y-53312150D01*
X96108132Y-53291107D01*
X96122747Y-53271401D01*
X96139223Y-53253223D01*
X96157401Y-53236747D01*
X96177107Y-53222132D01*
X96198150Y-53209520D01*
X96220329Y-53199030D01*
X96243428Y-53190765D01*
X96267227Y-53184804D01*
X96291495Y-53181204D01*
X96315999Y-53180000D01*
X96966001Y-53180000D01*
X96990505Y-53181204D01*
G37*
G36*
X97244505Y-64357204D02*
G01*
X97268773Y-64360804D01*
X97292572Y-64366765D01*
X97315671Y-64375030D01*
X97337850Y-64385520D01*
X97358893Y-64398132D01*
X97378599Y-64412747D01*
X97396777Y-64429223D01*
X97413253Y-64447401D01*
X97427868Y-64467107D01*
X97440480Y-64488150D01*
X97450970Y-64510329D01*
X97459235Y-64533428D01*
X97465196Y-64557227D01*
X97468796Y-64581495D01*
X97470000Y-64605999D01*
X97470000Y-65506001D01*
X97468796Y-65530505D01*
X97465196Y-65554773D01*
X97459235Y-65578572D01*
X97450970Y-65601671D01*
X97440480Y-65623850D01*
X97427868Y-65644893D01*
X97413253Y-65664599D01*
X97396777Y-65682777D01*
X97378599Y-65699253D01*
X97358893Y-65713868D01*
X97337850Y-65726480D01*
X97315671Y-65736970D01*
X97292572Y-65745235D01*
X97268773Y-65751196D01*
X97244505Y-65754796D01*
X97220001Y-65756000D01*
X96569999Y-65756000D01*
X96545495Y-65754796D01*
X96521227Y-65751196D01*
X96497428Y-65745235D01*
X96474329Y-65736970D01*
X96452150Y-65726480D01*
X96431107Y-65713868D01*
X96411401Y-65699253D01*
X96393223Y-65682777D01*
X96376747Y-65664599D01*
X96362132Y-65644893D01*
X96349520Y-65623850D01*
X96339030Y-65601671D01*
X96330765Y-65578572D01*
X96324804Y-65554773D01*
X96321204Y-65530505D01*
X96320000Y-65506001D01*
X96320000Y-64605999D01*
X96321204Y-64581495D01*
X96324804Y-64557227D01*
X96330765Y-64533428D01*
X96339030Y-64510329D01*
X96349520Y-64488150D01*
X96362132Y-64467107D01*
X96376747Y-64447401D01*
X96393223Y-64429223D01*
X96411401Y-64412747D01*
X96431107Y-64398132D01*
X96452150Y-64385520D01*
X96474329Y-64375030D01*
X96497428Y-64366765D01*
X96521227Y-64360804D01*
X96545495Y-64357204D01*
X96569999Y-64356000D01*
X97220001Y-64356000D01*
X97244505Y-64357204D01*
G37*
G36*
X95194505Y-64357204D02*
G01*
X95218773Y-64360804D01*
X95242572Y-64366765D01*
X95265671Y-64375030D01*
X95287850Y-64385520D01*
X95308893Y-64398132D01*
X95328599Y-64412747D01*
X95346777Y-64429223D01*
X95363253Y-64447401D01*
X95377868Y-64467107D01*
X95390480Y-64488150D01*
X95400970Y-64510329D01*
X95409235Y-64533428D01*
X95415196Y-64557227D01*
X95418796Y-64581495D01*
X95420000Y-64605999D01*
X95420000Y-65506001D01*
X95418796Y-65530505D01*
X95415196Y-65554773D01*
X95409235Y-65578572D01*
X95400970Y-65601671D01*
X95390480Y-65623850D01*
X95377868Y-65644893D01*
X95363253Y-65664599D01*
X95346777Y-65682777D01*
X95328599Y-65699253D01*
X95308893Y-65713868D01*
X95287850Y-65726480D01*
X95265671Y-65736970D01*
X95242572Y-65745235D01*
X95218773Y-65751196D01*
X95194505Y-65754796D01*
X95170001Y-65756000D01*
X94519999Y-65756000D01*
X94495495Y-65754796D01*
X94471227Y-65751196D01*
X94447428Y-65745235D01*
X94424329Y-65736970D01*
X94402150Y-65726480D01*
X94381107Y-65713868D01*
X94361401Y-65699253D01*
X94343223Y-65682777D01*
X94326747Y-65664599D01*
X94312132Y-65644893D01*
X94299520Y-65623850D01*
X94289030Y-65601671D01*
X94280765Y-65578572D01*
X94274804Y-65554773D01*
X94271204Y-65530505D01*
X94270000Y-65506001D01*
X94270000Y-64605999D01*
X94271204Y-64581495D01*
X94274804Y-64557227D01*
X94280765Y-64533428D01*
X94289030Y-64510329D01*
X94299520Y-64488150D01*
X94312132Y-64467107D01*
X94326747Y-64447401D01*
X94343223Y-64429223D01*
X94361401Y-64412747D01*
X94381107Y-64398132D01*
X94402150Y-64385520D01*
X94424329Y-64375030D01*
X94447428Y-64366765D01*
X94471227Y-64360804D01*
X94495495Y-64357204D01*
X94519999Y-64356000D01*
X95170001Y-64356000D01*
X95194505Y-64357204D01*
G37*
G36*
X77545004Y-107068204D02*
G01*
X77569273Y-107071804D01*
X77593071Y-107077765D01*
X77616171Y-107086030D01*
X77638349Y-107096520D01*
X77659393Y-107109133D01*
X77679098Y-107123747D01*
X77697277Y-107140223D01*
X77713753Y-107158402D01*
X77728367Y-107178107D01*
X77740980Y-107199151D01*
X77751470Y-107221329D01*
X77759735Y-107244429D01*
X77765696Y-107268227D01*
X77769296Y-107292496D01*
X77770500Y-107317000D01*
X77770500Y-109467000D01*
X77769296Y-109491504D01*
X77765696Y-109515773D01*
X77759735Y-109539571D01*
X77751470Y-109562671D01*
X77740980Y-109584849D01*
X77728367Y-109605893D01*
X77713753Y-109625598D01*
X77697277Y-109643777D01*
X77679098Y-109660253D01*
X77659393Y-109674867D01*
X77638349Y-109687480D01*
X77616171Y-109697970D01*
X77593071Y-109706235D01*
X77569273Y-109712196D01*
X77545004Y-109715796D01*
X77520500Y-109717000D01*
X76595500Y-109717000D01*
X76570996Y-109715796D01*
X76546727Y-109712196D01*
X76522929Y-109706235D01*
X76499829Y-109697970D01*
X76477651Y-109687480D01*
X76456607Y-109674867D01*
X76436902Y-109660253D01*
X76418723Y-109643777D01*
X76402247Y-109625598D01*
X76387633Y-109605893D01*
X76375020Y-109584849D01*
X76364530Y-109562671D01*
X76356265Y-109539571D01*
X76350304Y-109515773D01*
X76346704Y-109491504D01*
X76345500Y-109467000D01*
X76345500Y-107317000D01*
X76346704Y-107292496D01*
X76350304Y-107268227D01*
X76356265Y-107244429D01*
X76364530Y-107221329D01*
X76375020Y-107199151D01*
X76387633Y-107178107D01*
X76402247Y-107158402D01*
X76418723Y-107140223D01*
X76436902Y-107123747D01*
X76456607Y-107109133D01*
X76477651Y-107096520D01*
X76499829Y-107086030D01*
X76522929Y-107077765D01*
X76546727Y-107071804D01*
X76570996Y-107068204D01*
X76595500Y-107067000D01*
X77520500Y-107067000D01*
X77545004Y-107068204D01*
G37*
G36*
X80520004Y-107068204D02*
G01*
X80544273Y-107071804D01*
X80568071Y-107077765D01*
X80591171Y-107086030D01*
X80613349Y-107096520D01*
X80634393Y-107109133D01*
X80654098Y-107123747D01*
X80672277Y-107140223D01*
X80688753Y-107158402D01*
X80703367Y-107178107D01*
X80715980Y-107199151D01*
X80726470Y-107221329D01*
X80734735Y-107244429D01*
X80740696Y-107268227D01*
X80744296Y-107292496D01*
X80745500Y-107317000D01*
X80745500Y-109467000D01*
X80744296Y-109491504D01*
X80740696Y-109515773D01*
X80734735Y-109539571D01*
X80726470Y-109562671D01*
X80715980Y-109584849D01*
X80703367Y-109605893D01*
X80688753Y-109625598D01*
X80672277Y-109643777D01*
X80654098Y-109660253D01*
X80634393Y-109674867D01*
X80613349Y-109687480D01*
X80591171Y-109697970D01*
X80568071Y-109706235D01*
X80544273Y-109712196D01*
X80520004Y-109715796D01*
X80495500Y-109717000D01*
X79570500Y-109717000D01*
X79545996Y-109715796D01*
X79521727Y-109712196D01*
X79497929Y-109706235D01*
X79474829Y-109697970D01*
X79452651Y-109687480D01*
X79431607Y-109674867D01*
X79411902Y-109660253D01*
X79393723Y-109643777D01*
X79377247Y-109625598D01*
X79362633Y-109605893D01*
X79350020Y-109584849D01*
X79339530Y-109562671D01*
X79331265Y-109539571D01*
X79325304Y-109515773D01*
X79321704Y-109491504D01*
X79320500Y-109467000D01*
X79320500Y-107317000D01*
X79321704Y-107292496D01*
X79325304Y-107268227D01*
X79331265Y-107244429D01*
X79339530Y-107221329D01*
X79350020Y-107199151D01*
X79362633Y-107178107D01*
X79377247Y-107158402D01*
X79393723Y-107140223D01*
X79411902Y-107123747D01*
X79431607Y-107109133D01*
X79452651Y-107096520D01*
X79474829Y-107086030D01*
X79497929Y-107077765D01*
X79521727Y-107071804D01*
X79545996Y-107068204D01*
X79570500Y-107067000D01*
X80495500Y-107067000D01*
X80520004Y-107068204D01*
G37*
D29*
X76990000Y-78860000D03*
D30*
X76990000Y-76320000D03*
X76990000Y-77590000D03*
D10*
G36*
X98795000Y-77475000D02*
G01*
X98795000Y-76675000D01*
X98125000Y-76675000D01*
X98125000Y-77475000D01*
X97525000Y-77475000D01*
X97525000Y-76675000D01*
X96855000Y-76675000D01*
X96855000Y-77475000D01*
X96255000Y-77475000D01*
X96255000Y-76675000D01*
X95585000Y-76675000D01*
X95585000Y-77475000D01*
X94985000Y-77475000D01*
X94985000Y-72925000D01*
X99395000Y-72925000D01*
X99395000Y-77475000D01*
X98795000Y-77475000D01*
G37*
D32*
X99095000Y-71250000D03*
X97825000Y-71250000D03*
X96555000Y-71250000D03*
X95285000Y-71250000D03*
D10*
G36*
X108930779Y-70981144D02*
G01*
X108953834Y-70984563D01*
X108976443Y-70990227D01*
X108998387Y-70998079D01*
X109019457Y-71008044D01*
X109039448Y-71020026D01*
X109058168Y-71033910D01*
X109075438Y-71049562D01*
X109091090Y-71066832D01*
X109104974Y-71085552D01*
X109116956Y-71105543D01*
X109126921Y-71126613D01*
X109134773Y-71148557D01*
X109140437Y-71171166D01*
X109143856Y-71194221D01*
X109145000Y-71217500D01*
X109145000Y-71792500D01*
X109143856Y-71815779D01*
X109140437Y-71838834D01*
X109134773Y-71861443D01*
X109126921Y-71883387D01*
X109116956Y-71904457D01*
X109104974Y-71924448D01*
X109091090Y-71943168D01*
X109075438Y-71960438D01*
X109058168Y-71976090D01*
X109039448Y-71989974D01*
X109019457Y-72001956D01*
X108998387Y-72011921D01*
X108976443Y-72019773D01*
X108953834Y-72025437D01*
X108930779Y-72028856D01*
X108907500Y-72030000D01*
X108432500Y-72030000D01*
X108409221Y-72028856D01*
X108386166Y-72025437D01*
X108363557Y-72019773D01*
X108341613Y-72011921D01*
X108320543Y-72001956D01*
X108300552Y-71989974D01*
X108281832Y-71976090D01*
X108264562Y-71960438D01*
X108248910Y-71943168D01*
X108235026Y-71924448D01*
X108223044Y-71904457D01*
X108213079Y-71883387D01*
X108205227Y-71861443D01*
X108199563Y-71838834D01*
X108196144Y-71815779D01*
X108195000Y-71792500D01*
X108195000Y-71217500D01*
X108196144Y-71194221D01*
X108199563Y-71171166D01*
X108205227Y-71148557D01*
X108213079Y-71126613D01*
X108223044Y-71105543D01*
X108235026Y-71085552D01*
X108248910Y-71066832D01*
X108264562Y-71049562D01*
X108281832Y-71033910D01*
X108300552Y-71020026D01*
X108320543Y-71008044D01*
X108341613Y-70998079D01*
X108363557Y-70990227D01*
X108386166Y-70984563D01*
X108409221Y-70981144D01*
X108432500Y-70980000D01*
X108907500Y-70980000D01*
X108930779Y-70981144D01*
G37*
G36*
X108930779Y-69231144D02*
G01*
X108953834Y-69234563D01*
X108976443Y-69240227D01*
X108998387Y-69248079D01*
X109019457Y-69258044D01*
X109039448Y-69270026D01*
X109058168Y-69283910D01*
X109075438Y-69299562D01*
X109091090Y-69316832D01*
X109104974Y-69335552D01*
X109116956Y-69355543D01*
X109126921Y-69376613D01*
X109134773Y-69398557D01*
X109140437Y-69421166D01*
X109143856Y-69444221D01*
X109145000Y-69467500D01*
X109145000Y-70042500D01*
X109143856Y-70065779D01*
X109140437Y-70088834D01*
X109134773Y-70111443D01*
X109126921Y-70133387D01*
X109116956Y-70154457D01*
X109104974Y-70174448D01*
X109091090Y-70193168D01*
X109075438Y-70210438D01*
X109058168Y-70226090D01*
X109039448Y-70239974D01*
X109019457Y-70251956D01*
X108998387Y-70261921D01*
X108976443Y-70269773D01*
X108953834Y-70275437D01*
X108930779Y-70278856D01*
X108907500Y-70280000D01*
X108432500Y-70280000D01*
X108409221Y-70278856D01*
X108386166Y-70275437D01*
X108363557Y-70269773D01*
X108341613Y-70261921D01*
X108320543Y-70251956D01*
X108300552Y-70239974D01*
X108281832Y-70226090D01*
X108264562Y-70210438D01*
X108248910Y-70193168D01*
X108235026Y-70174448D01*
X108223044Y-70154457D01*
X108213079Y-70133387D01*
X108205227Y-70111443D01*
X108199563Y-70088834D01*
X108196144Y-70065779D01*
X108195000Y-70042500D01*
X108195000Y-69467500D01*
X108196144Y-69444221D01*
X108199563Y-69421166D01*
X108205227Y-69398557D01*
X108213079Y-69376613D01*
X108223044Y-69355543D01*
X108235026Y-69335552D01*
X108248910Y-69316832D01*
X108264562Y-69299562D01*
X108281832Y-69283910D01*
X108300552Y-69270026D01*
X108320543Y-69258044D01*
X108341613Y-69248079D01*
X108363557Y-69240227D01*
X108386166Y-69234563D01*
X108409221Y-69231144D01*
X108432500Y-69230000D01*
X108907500Y-69230000D01*
X108930779Y-69231144D01*
G37*
G36*
X73948779Y-77179144D02*
G01*
X73971834Y-77182563D01*
X73994443Y-77188227D01*
X74016387Y-77196079D01*
X74037457Y-77206044D01*
X74057448Y-77218026D01*
X74076168Y-77231910D01*
X74093438Y-77247562D01*
X74109090Y-77264832D01*
X74122974Y-77283552D01*
X74134956Y-77303543D01*
X74144921Y-77324613D01*
X74152773Y-77346557D01*
X74158437Y-77369166D01*
X74161856Y-77392221D01*
X74163000Y-77415500D01*
X74163000Y-77990500D01*
X74161856Y-78013779D01*
X74158437Y-78036834D01*
X74152773Y-78059443D01*
X74144921Y-78081387D01*
X74134956Y-78102457D01*
X74122974Y-78122448D01*
X74109090Y-78141168D01*
X74093438Y-78158438D01*
X74076168Y-78174090D01*
X74057448Y-78187974D01*
X74037457Y-78199956D01*
X74016387Y-78209921D01*
X73994443Y-78217773D01*
X73971834Y-78223437D01*
X73948779Y-78226856D01*
X73925500Y-78228000D01*
X73450500Y-78228000D01*
X73427221Y-78226856D01*
X73404166Y-78223437D01*
X73381557Y-78217773D01*
X73359613Y-78209921D01*
X73338543Y-78199956D01*
X73318552Y-78187974D01*
X73299832Y-78174090D01*
X73282562Y-78158438D01*
X73266910Y-78141168D01*
X73253026Y-78122448D01*
X73241044Y-78102457D01*
X73231079Y-78081387D01*
X73223227Y-78059443D01*
X73217563Y-78036834D01*
X73214144Y-78013779D01*
X73213000Y-77990500D01*
X73213000Y-77415500D01*
X73214144Y-77392221D01*
X73217563Y-77369166D01*
X73223227Y-77346557D01*
X73231079Y-77324613D01*
X73241044Y-77303543D01*
X73253026Y-77283552D01*
X73266910Y-77264832D01*
X73282562Y-77247562D01*
X73299832Y-77231910D01*
X73318552Y-77218026D01*
X73338543Y-77206044D01*
X73359613Y-77196079D01*
X73381557Y-77188227D01*
X73404166Y-77182563D01*
X73427221Y-77179144D01*
X73450500Y-77178000D01*
X73925500Y-77178000D01*
X73948779Y-77179144D01*
G37*
G36*
X73948779Y-75429144D02*
G01*
X73971834Y-75432563D01*
X73994443Y-75438227D01*
X74016387Y-75446079D01*
X74037457Y-75456044D01*
X74057448Y-75468026D01*
X74076168Y-75481910D01*
X74093438Y-75497562D01*
X74109090Y-75514832D01*
X74122974Y-75533552D01*
X74134956Y-75553543D01*
X74144921Y-75574613D01*
X74152773Y-75596557D01*
X74158437Y-75619166D01*
X74161856Y-75642221D01*
X74163000Y-75665500D01*
X74163000Y-76240500D01*
X74161856Y-76263779D01*
X74158437Y-76286834D01*
X74152773Y-76309443D01*
X74144921Y-76331387D01*
X74134956Y-76352457D01*
X74122974Y-76372448D01*
X74109090Y-76391168D01*
X74093438Y-76408438D01*
X74076168Y-76424090D01*
X74057448Y-76437974D01*
X74037457Y-76449956D01*
X74016387Y-76459921D01*
X73994443Y-76467773D01*
X73971834Y-76473437D01*
X73948779Y-76476856D01*
X73925500Y-76478000D01*
X73450500Y-76478000D01*
X73427221Y-76476856D01*
X73404166Y-76473437D01*
X73381557Y-76467773D01*
X73359613Y-76459921D01*
X73338543Y-76449956D01*
X73318552Y-76437974D01*
X73299832Y-76424090D01*
X73282562Y-76408438D01*
X73266910Y-76391168D01*
X73253026Y-76372448D01*
X73241044Y-76352457D01*
X73231079Y-76331387D01*
X73223227Y-76309443D01*
X73217563Y-76286834D01*
X73214144Y-76263779D01*
X73213000Y-76240500D01*
X73213000Y-75665500D01*
X73214144Y-75642221D01*
X73217563Y-75619166D01*
X73223227Y-75596557D01*
X73231079Y-75574613D01*
X73241044Y-75553543D01*
X73253026Y-75533552D01*
X73266910Y-75514832D01*
X73282562Y-75497562D01*
X73299832Y-75481910D01*
X73318552Y-75468026D01*
X73338543Y-75456044D01*
X73359613Y-75446079D01*
X73381557Y-75438227D01*
X73404166Y-75432563D01*
X73427221Y-75429144D01*
X73450500Y-75428000D01*
X73925500Y-75428000D01*
X73948779Y-75429144D01*
G37*
G36*
X75472779Y-77179144D02*
G01*
X75495834Y-77182563D01*
X75518443Y-77188227D01*
X75540387Y-77196079D01*
X75561457Y-77206044D01*
X75581448Y-77218026D01*
X75600168Y-77231910D01*
X75617438Y-77247562D01*
X75633090Y-77264832D01*
X75646974Y-77283552D01*
X75658956Y-77303543D01*
X75668921Y-77324613D01*
X75676773Y-77346557D01*
X75682437Y-77369166D01*
X75685856Y-77392221D01*
X75687000Y-77415500D01*
X75687000Y-77990500D01*
X75685856Y-78013779D01*
X75682437Y-78036834D01*
X75676773Y-78059443D01*
X75668921Y-78081387D01*
X75658956Y-78102457D01*
X75646974Y-78122448D01*
X75633090Y-78141168D01*
X75617438Y-78158438D01*
X75600168Y-78174090D01*
X75581448Y-78187974D01*
X75561457Y-78199956D01*
X75540387Y-78209921D01*
X75518443Y-78217773D01*
X75495834Y-78223437D01*
X75472779Y-78226856D01*
X75449500Y-78228000D01*
X74974500Y-78228000D01*
X74951221Y-78226856D01*
X74928166Y-78223437D01*
X74905557Y-78217773D01*
X74883613Y-78209921D01*
X74862543Y-78199956D01*
X74842552Y-78187974D01*
X74823832Y-78174090D01*
X74806562Y-78158438D01*
X74790910Y-78141168D01*
X74777026Y-78122448D01*
X74765044Y-78102457D01*
X74755079Y-78081387D01*
X74747227Y-78059443D01*
X74741563Y-78036834D01*
X74738144Y-78013779D01*
X74737000Y-77990500D01*
X74737000Y-77415500D01*
X74738144Y-77392221D01*
X74741563Y-77369166D01*
X74747227Y-77346557D01*
X74755079Y-77324613D01*
X74765044Y-77303543D01*
X74777026Y-77283552D01*
X74790910Y-77264832D01*
X74806562Y-77247562D01*
X74823832Y-77231910D01*
X74842552Y-77218026D01*
X74862543Y-77206044D01*
X74883613Y-77196079D01*
X74905557Y-77188227D01*
X74928166Y-77182563D01*
X74951221Y-77179144D01*
X74974500Y-77178000D01*
X75449500Y-77178000D01*
X75472779Y-77179144D01*
G37*
G36*
X75472779Y-75429144D02*
G01*
X75495834Y-75432563D01*
X75518443Y-75438227D01*
X75540387Y-75446079D01*
X75561457Y-75456044D01*
X75581448Y-75468026D01*
X75600168Y-75481910D01*
X75617438Y-75497562D01*
X75633090Y-75514832D01*
X75646974Y-75533552D01*
X75658956Y-75553543D01*
X75668921Y-75574613D01*
X75676773Y-75596557D01*
X75682437Y-75619166D01*
X75685856Y-75642221D01*
X75687000Y-75665500D01*
X75687000Y-76240500D01*
X75685856Y-76263779D01*
X75682437Y-76286834D01*
X75676773Y-76309443D01*
X75668921Y-76331387D01*
X75658956Y-76352457D01*
X75646974Y-76372448D01*
X75633090Y-76391168D01*
X75617438Y-76408438D01*
X75600168Y-76424090D01*
X75581448Y-76437974D01*
X75561457Y-76449956D01*
X75540387Y-76459921D01*
X75518443Y-76467773D01*
X75495834Y-76473437D01*
X75472779Y-76476856D01*
X75449500Y-76478000D01*
X74974500Y-76478000D01*
X74951221Y-76476856D01*
X74928166Y-76473437D01*
X74905557Y-76467773D01*
X74883613Y-76459921D01*
X74862543Y-76449956D01*
X74842552Y-76437974D01*
X74823832Y-76424090D01*
X74806562Y-76408438D01*
X74790910Y-76391168D01*
X74777026Y-76372448D01*
X74765044Y-76352457D01*
X74755079Y-76331387D01*
X74747227Y-76309443D01*
X74741563Y-76286834D01*
X74738144Y-76263779D01*
X74737000Y-76240500D01*
X74737000Y-75665500D01*
X74738144Y-75642221D01*
X74741563Y-75619166D01*
X74747227Y-75596557D01*
X74755079Y-75574613D01*
X74765044Y-75553543D01*
X74777026Y-75533552D01*
X74790910Y-75514832D01*
X74806562Y-75497562D01*
X74823832Y-75481910D01*
X74842552Y-75468026D01*
X74862543Y-75456044D01*
X74883613Y-75446079D01*
X74905557Y-75438227D01*
X74928166Y-75432563D01*
X74951221Y-75429144D01*
X74974500Y-75428000D01*
X75449500Y-75428000D01*
X75472779Y-75429144D01*
G37*
D28*
X84572000Y-58866000D03*
X87112000Y-58866000D03*
X69332000Y-58866000D03*
X82032000Y-58866000D03*
X76952000Y-58866000D03*
X74412000Y-58866000D03*
X71872000Y-58866000D03*
X79492000Y-58866000D03*
X69332000Y-71566000D03*
X71872000Y-71566000D03*
X74412000Y-71566000D03*
X87112000Y-71566000D03*
X84572000Y-71566000D03*
X76952000Y-71566000D03*
X79492000Y-71566000D03*
X82032000Y-71566000D03*
M02*
