G04 #@! TF.GenerationSoftware,KiCad,Pcbnew,5.1.5+dfsg1-2build2*
G04 #@! TF.CreationDate,2020-07-02T19:50:54+02:00*
G04 #@! TF.ProjectId,BaSe_PWR_V3_2,42615365-5f50-4575-925f-56335f322e6b,rev?*
G04 #@! TF.SameCoordinates,Original*
G04 #@! TF.FileFunction,Copper,L3,Inr*
G04 #@! TF.FilePolarity,Positive*
%FSLAX46Y46*%
G04 Gerber Fmt 4.6, Leading zero omitted, Abs format (unit mm)*
G04 Created by KiCad (PCBNEW 5.1.5+dfsg1-2build2) date 2020-07-02 19:50:54*
%MOMM*%
%LPD*%
G04 APERTURE LIST*
%ADD10O,1.700000X1.700000*%
%ADD11R,1.700000X1.700000*%
%ADD12O,1.700000X1.950000*%
%ADD13C,0.100000*%
%ADD14C,4.400000*%
%ADD15O,2.000000X1.700000*%
%ADD16O,1.750000X1.200000*%
%ADD17C,2.000000*%
%ADD18R,1.500000X1.050000*%
%ADD19O,1.500000X1.050000*%
%ADD20C,0.800000*%
%ADD21C,0.254000*%
G04 APERTURE END LIST*
D10*
X87122000Y-92456000D03*
X84582000Y-92456000D03*
X87122000Y-94996000D03*
X84582000Y-94996000D03*
X87122000Y-97536000D03*
X84582000Y-97536000D03*
X87122000Y-100076000D03*
X84582000Y-100076000D03*
X87122000Y-102616000D03*
X84582000Y-102616000D03*
X87122000Y-105156000D03*
X84582000Y-105156000D03*
X87122000Y-107696000D03*
X84582000Y-107696000D03*
X87122000Y-110236000D03*
X84582000Y-110236000D03*
X87122000Y-112776000D03*
X84582000Y-112776000D03*
X87122000Y-115316000D03*
X84582000Y-115316000D03*
X87122000Y-117856000D03*
X84582000Y-117856000D03*
X87122000Y-120396000D03*
X84582000Y-120396000D03*
X87122000Y-122936000D03*
D11*
X84582000Y-122936000D03*
D12*
X99890000Y-101440000D03*
X102390000Y-101440000D03*
X104890000Y-101440000D03*
G04 #@! TA.AperFunction,ViaPad*
D13*
G36*
X108014504Y-100466204D02*
G01*
X108038773Y-100469804D01*
X108062571Y-100475765D01*
X108085671Y-100484030D01*
X108107849Y-100494520D01*
X108128893Y-100507133D01*
X108148598Y-100521747D01*
X108166777Y-100538223D01*
X108183253Y-100556402D01*
X108197867Y-100576107D01*
X108210480Y-100597151D01*
X108220970Y-100619329D01*
X108229235Y-100642429D01*
X108235196Y-100666227D01*
X108238796Y-100690496D01*
X108240000Y-100715000D01*
X108240000Y-102165000D01*
X108238796Y-102189504D01*
X108235196Y-102213773D01*
X108229235Y-102237571D01*
X108220970Y-102260671D01*
X108210480Y-102282849D01*
X108197867Y-102303893D01*
X108183253Y-102323598D01*
X108166777Y-102341777D01*
X108148598Y-102358253D01*
X108128893Y-102372867D01*
X108107849Y-102385480D01*
X108085671Y-102395970D01*
X108062571Y-102404235D01*
X108038773Y-102410196D01*
X108014504Y-102413796D01*
X107990000Y-102415000D01*
X106790000Y-102415000D01*
X106765496Y-102413796D01*
X106741227Y-102410196D01*
X106717429Y-102404235D01*
X106694329Y-102395970D01*
X106672151Y-102385480D01*
X106651107Y-102372867D01*
X106631402Y-102358253D01*
X106613223Y-102341777D01*
X106596747Y-102323598D01*
X106582133Y-102303893D01*
X106569520Y-102282849D01*
X106559030Y-102260671D01*
X106550765Y-102237571D01*
X106544804Y-102213773D01*
X106541204Y-102189504D01*
X106540000Y-102165000D01*
X106540000Y-100715000D01*
X106541204Y-100690496D01*
X106544804Y-100666227D01*
X106550765Y-100642429D01*
X106559030Y-100619329D01*
X106569520Y-100597151D01*
X106582133Y-100576107D01*
X106596747Y-100556402D01*
X106613223Y-100538223D01*
X106631402Y-100521747D01*
X106651107Y-100507133D01*
X106672151Y-100494520D01*
X106694329Y-100484030D01*
X106717429Y-100475765D01*
X106741227Y-100469804D01*
X106765496Y-100466204D01*
X106790000Y-100465000D01*
X107990000Y-100465000D01*
X108014504Y-100466204D01*
G37*
G04 #@! TD.AperFunction*
D14*
X92990000Y-46784000D03*
X97790000Y-43984000D03*
X97790000Y-49784000D03*
D15*
X82620000Y-130760000D03*
G04 #@! TA.AperFunction,ViaPad*
D13*
G36*
X83394504Y-127411204D02*
G01*
X83418773Y-127414804D01*
X83442571Y-127420765D01*
X83465671Y-127429030D01*
X83487849Y-127439520D01*
X83508893Y-127452133D01*
X83528598Y-127466747D01*
X83546777Y-127483223D01*
X83563253Y-127501402D01*
X83577867Y-127521107D01*
X83590480Y-127542151D01*
X83600970Y-127564329D01*
X83609235Y-127587429D01*
X83615196Y-127611227D01*
X83618796Y-127635496D01*
X83620000Y-127660000D01*
X83620000Y-128860000D01*
X83618796Y-128884504D01*
X83615196Y-128908773D01*
X83609235Y-128932571D01*
X83600970Y-128955671D01*
X83590480Y-128977849D01*
X83577867Y-128998893D01*
X83563253Y-129018598D01*
X83546777Y-129036777D01*
X83528598Y-129053253D01*
X83508893Y-129067867D01*
X83487849Y-129080480D01*
X83465671Y-129090970D01*
X83442571Y-129099235D01*
X83418773Y-129105196D01*
X83394504Y-129108796D01*
X83370000Y-129110000D01*
X81870000Y-129110000D01*
X81845496Y-129108796D01*
X81821227Y-129105196D01*
X81797429Y-129099235D01*
X81774329Y-129090970D01*
X81752151Y-129080480D01*
X81731107Y-129067867D01*
X81711402Y-129053253D01*
X81693223Y-129036777D01*
X81676747Y-129018598D01*
X81662133Y-128998893D01*
X81649520Y-128977849D01*
X81639030Y-128955671D01*
X81630765Y-128932571D01*
X81624804Y-128908773D01*
X81621204Y-128884504D01*
X81620000Y-128860000D01*
X81620000Y-127660000D01*
X81621204Y-127635496D01*
X81624804Y-127611227D01*
X81630765Y-127587429D01*
X81639030Y-127564329D01*
X81649520Y-127542151D01*
X81662133Y-127521107D01*
X81676747Y-127501402D01*
X81693223Y-127483223D01*
X81711402Y-127466747D01*
X81731107Y-127452133D01*
X81752151Y-127439520D01*
X81774329Y-127429030D01*
X81797429Y-127420765D01*
X81821227Y-127414804D01*
X81845496Y-127411204D01*
X81870000Y-127410000D01*
X83370000Y-127410000D01*
X83394504Y-127411204D01*
G37*
G04 #@! TD.AperFunction*
D16*
X79250000Y-51180000D03*
X79250000Y-49180000D03*
X79250000Y-47180000D03*
G04 #@! TA.AperFunction,ViaPad*
D13*
G36*
X79899505Y-44581204D02*
G01*
X79923773Y-44584804D01*
X79947572Y-44590765D01*
X79970671Y-44599030D01*
X79992850Y-44609520D01*
X80013893Y-44622132D01*
X80033599Y-44636747D01*
X80051777Y-44653223D01*
X80068253Y-44671401D01*
X80082868Y-44691107D01*
X80095480Y-44712150D01*
X80105970Y-44734329D01*
X80114235Y-44757428D01*
X80120196Y-44781227D01*
X80123796Y-44805495D01*
X80125000Y-44829999D01*
X80125000Y-45530001D01*
X80123796Y-45554505D01*
X80120196Y-45578773D01*
X80114235Y-45602572D01*
X80105970Y-45625671D01*
X80095480Y-45647850D01*
X80082868Y-45668893D01*
X80068253Y-45688599D01*
X80051777Y-45706777D01*
X80033599Y-45723253D01*
X80013893Y-45737868D01*
X79992850Y-45750480D01*
X79970671Y-45760970D01*
X79947572Y-45769235D01*
X79923773Y-45775196D01*
X79899505Y-45778796D01*
X79875001Y-45780000D01*
X78624999Y-45780000D01*
X78600495Y-45778796D01*
X78576227Y-45775196D01*
X78552428Y-45769235D01*
X78529329Y-45760970D01*
X78507150Y-45750480D01*
X78486107Y-45737868D01*
X78466401Y-45723253D01*
X78448223Y-45706777D01*
X78431747Y-45688599D01*
X78417132Y-45668893D01*
X78404520Y-45647850D01*
X78394030Y-45625671D01*
X78385765Y-45602572D01*
X78379804Y-45578773D01*
X78376204Y-45554505D01*
X78375000Y-45530001D01*
X78375000Y-44829999D01*
X78376204Y-44805495D01*
X78379804Y-44781227D01*
X78385765Y-44757428D01*
X78394030Y-44734329D01*
X78404520Y-44712150D01*
X78417132Y-44691107D01*
X78431747Y-44671401D01*
X78448223Y-44653223D01*
X78466401Y-44636747D01*
X78486107Y-44622132D01*
X78507150Y-44609520D01*
X78529329Y-44599030D01*
X78552428Y-44590765D01*
X78576227Y-44584804D01*
X78600495Y-44581204D01*
X78624999Y-44580000D01*
X79875001Y-44580000D01*
X79899505Y-44581204D01*
G37*
G04 #@! TD.AperFunction*
D17*
X86660000Y-81820000D03*
X86660000Y-86900000D03*
X84120000Y-86900000D03*
X84120000Y-81820000D03*
X79040000Y-86900000D03*
X73960000Y-86900000D03*
X79040000Y-81820000D03*
X73960000Y-81820000D03*
X81580000Y-86900000D03*
X81580000Y-81820000D03*
D16*
X69270000Y-91850000D03*
X69270000Y-89850000D03*
X69270000Y-87850000D03*
X69270000Y-85850000D03*
X69270000Y-83850000D03*
X69270000Y-81850000D03*
X69270000Y-79850000D03*
X69270000Y-77850000D03*
G04 #@! TA.AperFunction,ViaPad*
D13*
G36*
X69919505Y-75251204D02*
G01*
X69943773Y-75254804D01*
X69967572Y-75260765D01*
X69990671Y-75269030D01*
X70012850Y-75279520D01*
X70033893Y-75292132D01*
X70053599Y-75306747D01*
X70071777Y-75323223D01*
X70088253Y-75341401D01*
X70102868Y-75361107D01*
X70115480Y-75382150D01*
X70125970Y-75404329D01*
X70134235Y-75427428D01*
X70140196Y-75451227D01*
X70143796Y-75475495D01*
X70145000Y-75499999D01*
X70145000Y-76200001D01*
X70143796Y-76224505D01*
X70140196Y-76248773D01*
X70134235Y-76272572D01*
X70125970Y-76295671D01*
X70115480Y-76317850D01*
X70102868Y-76338893D01*
X70088253Y-76358599D01*
X70071777Y-76376777D01*
X70053599Y-76393253D01*
X70033893Y-76407868D01*
X70012850Y-76420480D01*
X69990671Y-76430970D01*
X69967572Y-76439235D01*
X69943773Y-76445196D01*
X69919505Y-76448796D01*
X69895001Y-76450000D01*
X68644999Y-76450000D01*
X68620495Y-76448796D01*
X68596227Y-76445196D01*
X68572428Y-76439235D01*
X68549329Y-76430970D01*
X68527150Y-76420480D01*
X68506107Y-76407868D01*
X68486401Y-76393253D01*
X68468223Y-76376777D01*
X68451747Y-76358599D01*
X68437132Y-76338893D01*
X68424520Y-76317850D01*
X68414030Y-76295671D01*
X68405765Y-76272572D01*
X68399804Y-76248773D01*
X68396204Y-76224505D01*
X68395000Y-76200001D01*
X68395000Y-75499999D01*
X68396204Y-75475495D01*
X68399804Y-75451227D01*
X68405765Y-75427428D01*
X68414030Y-75404329D01*
X68424520Y-75382150D01*
X68437132Y-75361107D01*
X68451747Y-75341401D01*
X68468223Y-75323223D01*
X68486401Y-75306747D01*
X68506107Y-75292132D01*
X68527150Y-75279520D01*
X68549329Y-75269030D01*
X68572428Y-75260765D01*
X68596227Y-75254804D01*
X68620495Y-75251204D01*
X68644999Y-75250000D01*
X69895001Y-75250000D01*
X69919505Y-75251204D01*
G37*
G04 #@! TD.AperFunction*
D18*
X86190000Y-78888000D03*
D19*
X86190000Y-76348000D03*
X86190000Y-77618000D03*
D18*
X76990000Y-78860000D03*
D19*
X76990000Y-76320000D03*
X76990000Y-77590000D03*
D17*
X84572000Y-58866000D03*
X87112000Y-58866000D03*
X69332000Y-58866000D03*
X82032000Y-58866000D03*
X76952000Y-58866000D03*
X74412000Y-58866000D03*
X71872000Y-58866000D03*
X79492000Y-58866000D03*
X69332000Y-71566000D03*
X71872000Y-71566000D03*
X74412000Y-71566000D03*
X87112000Y-71566000D03*
X84572000Y-71566000D03*
X76952000Y-71566000D03*
X79492000Y-71566000D03*
X82032000Y-71566000D03*
D20*
X96311111Y-118120000D03*
X105316666Y-118120000D03*
X101714444Y-118120000D03*
X94510000Y-118120000D03*
X107117777Y-118120000D03*
X99913333Y-118120000D03*
X98112222Y-118120000D03*
X103515555Y-118120000D03*
X108918888Y-118120000D03*
X110720000Y-118078889D03*
X110720000Y-109073334D03*
X110720000Y-112675556D03*
X110720000Y-119880000D03*
X110720000Y-107272223D03*
X110720000Y-114476667D03*
X110720000Y-116277778D03*
X110720000Y-110874445D03*
X110720000Y-105471112D03*
X110720000Y-103670000D03*
X110690000Y-125068889D03*
X110690000Y-123267778D03*
X110690000Y-121466667D03*
X104440000Y-63350000D03*
X107800000Y-63330000D03*
X98130000Y-64390000D03*
X98130000Y-65330000D03*
X98130000Y-66370000D03*
X94100000Y-67500000D03*
X94090000Y-66410000D03*
X104930000Y-105290000D03*
X104850000Y-104280000D03*
X103920000Y-103950000D03*
X102710000Y-103940000D03*
X100210000Y-82470000D03*
X100220000Y-83490000D03*
X102660000Y-80410000D03*
X102660000Y-81310000D03*
X90600000Y-81570000D03*
X91430000Y-82170000D03*
X92540000Y-82170000D03*
X94990000Y-89430000D03*
X94980000Y-88440000D03*
X97630000Y-89400000D03*
X97610000Y-88490000D03*
X100400000Y-74830000D03*
X100400000Y-75720000D03*
X70260000Y-125970000D03*
X71360000Y-125970000D03*
X72500000Y-125960000D03*
X73510000Y-125970000D03*
X76550000Y-116050000D03*
X74770000Y-116090000D03*
X90540000Y-100040000D03*
X82860000Y-101500000D03*
X76440000Y-105120000D03*
X75180000Y-105120000D03*
X72150000Y-105090000D03*
X70820000Y-105120000D03*
X69590000Y-105120000D03*
X75130000Y-106370000D03*
X73680000Y-106400000D03*
X70820000Y-106320000D03*
X69560000Y-106350000D03*
X69100000Y-97300000D03*
X70100000Y-97330000D03*
X74990000Y-97560000D03*
X76000000Y-97590000D03*
X90480000Y-107330000D03*
X108960000Y-74140000D03*
X80900000Y-69300000D03*
X76600000Y-41030000D03*
X78460000Y-41030000D03*
X80300000Y-41030000D03*
X82100000Y-41030000D03*
X83730000Y-41010000D03*
X102250000Y-54530000D03*
X102220000Y-56490000D03*
X102240000Y-58720000D03*
X110840000Y-52670000D03*
X108580000Y-52700000D03*
X110810000Y-54500000D03*
X110840000Y-56540000D03*
X110250000Y-60660000D03*
X110220000Y-63200000D03*
X106040000Y-78910000D03*
X106030000Y-80790000D03*
X96470000Y-84490000D03*
X93540000Y-84600000D03*
X95689285Y-132930000D03*
X97387142Y-132930000D03*
X99084999Y-132930000D03*
X100782856Y-132930000D03*
X102480713Y-132930000D03*
X104178570Y-132930000D03*
X105876427Y-132930000D03*
X107574284Y-132930000D03*
X109272141Y-132930000D03*
X110970000Y-132930000D03*
X75400000Y-112600000D03*
X75400000Y-111300000D03*
X75400000Y-109800000D03*
X75400000Y-108100000D03*
X73600000Y-108100000D03*
X73600000Y-109800000D03*
X73600000Y-111300000D03*
X72000000Y-111300000D03*
X72000000Y-109900000D03*
X72000000Y-108000000D03*
X70000000Y-108000000D03*
X70000000Y-109800000D03*
X70000000Y-111200000D03*
X74500000Y-90500000D03*
X76200000Y-90500000D03*
X74500000Y-93800000D03*
X76200000Y-93800000D03*
X87600000Y-46100000D03*
X87600000Y-47900000D03*
X87600000Y-49540000D03*
X87600000Y-51180000D03*
X87600000Y-54460000D03*
X87600000Y-56100000D03*
X87600000Y-52820000D03*
X74900000Y-54400000D03*
X72950000Y-54400000D03*
X71000000Y-54400000D03*
X69050000Y-54400000D03*
X67100000Y-54400000D03*
X67100000Y-56225000D03*
X67100000Y-58050000D03*
X67100000Y-59875000D03*
X67100000Y-61700000D03*
X82600000Y-60800000D03*
X82600000Y-62000000D03*
X82600000Y-63200000D03*
X83800000Y-64000000D03*
X85100000Y-64000000D03*
X89200000Y-112000000D03*
X89200000Y-113700000D03*
X89200000Y-115400000D03*
X89200000Y-117100000D03*
X93991428Y-132900000D03*
X92293571Y-132900000D03*
X90595714Y-132900000D03*
X88897857Y-132900000D03*
X87200000Y-132900000D03*
X111000000Y-131400000D03*
X66900000Y-133000000D03*
X104800000Y-90900000D03*
X100700000Y-93800000D03*
X99400000Y-93800000D03*
X96500000Y-93800000D03*
X95200000Y-93800000D03*
X81400000Y-76000000D03*
X81400000Y-77300000D03*
X81400000Y-78600000D03*
X73800000Y-74500000D03*
X75500000Y-69700000D03*
X74100000Y-69700000D03*
X72500000Y-69700000D03*
X71100000Y-69700000D03*
X69600000Y-69700000D03*
X68100000Y-69700000D03*
X87200000Y-131400000D03*
X87200000Y-130100000D03*
X87200000Y-126300000D03*
X88300000Y-127200000D03*
X88300000Y-129100000D03*
X90230000Y-84800000D03*
X90210000Y-85840000D03*
X98880000Y-62990000D03*
X98880000Y-61920000D03*
X98880000Y-60950000D03*
X90330000Y-76750000D03*
X90330000Y-77760000D03*
X93740000Y-77530000D03*
X90330000Y-78770000D03*
X90330000Y-79780000D03*
X71095000Y-112685000D03*
X108050000Y-61600000D03*
X108070000Y-60660000D03*
X81830000Y-110490000D03*
X81830000Y-111550000D03*
X81810000Y-112750000D03*
X82910000Y-111520000D03*
X72700000Y-94730000D03*
X72720000Y-95920000D03*
X104323000Y-53333000D03*
X100610000Y-88240000D03*
X94090000Y-96900000D03*
X104360000Y-52330000D03*
X99350000Y-88940000D03*
X93500000Y-98590000D03*
X71939990Y-93317407D03*
X104344979Y-109510000D03*
X106410000Y-89600000D03*
X107540000Y-93790000D03*
X76896052Y-96963255D03*
X103970000Y-114670000D03*
X103980000Y-111440000D03*
X103050000Y-111410000D03*
X103010000Y-114660000D03*
X101500000Y-103920000D03*
X100540000Y-104290000D03*
X100550000Y-105240000D03*
X104290000Y-78940000D03*
X104290000Y-78080000D03*
X104290000Y-77230000D03*
X95020000Y-90940000D03*
X95010000Y-91950000D03*
X95850000Y-92530000D03*
X106696468Y-83626468D03*
X106050000Y-77180000D03*
X95880000Y-106390000D03*
X88900000Y-125000000D03*
X69400010Y-118980000D03*
X82870000Y-100080000D03*
X82511371Y-98747964D03*
X109880000Y-65510000D03*
X110494283Y-80462184D03*
X107670000Y-90320000D03*
X106060000Y-91940000D03*
X109880000Y-66870000D03*
X109790000Y-79370000D03*
X108860000Y-90650000D03*
X107580000Y-92320000D03*
X90340000Y-74190000D03*
X90340000Y-73050000D03*
X93970000Y-73010000D03*
X90340000Y-75420000D03*
X93970000Y-73920000D03*
X106625000Y-111420000D03*
X97720000Y-105570000D03*
X109415010Y-93720000D03*
X106230000Y-103500000D03*
D21*
G36*
X88425714Y-57889190D02*
G01*
X88381987Y-57823748D01*
X88154252Y-57596013D01*
X87886463Y-57417082D01*
X87588912Y-57293832D01*
X87273033Y-57231000D01*
X86950967Y-57231000D01*
X86635088Y-57293832D01*
X86337537Y-57417082D01*
X86069748Y-57596013D01*
X85842013Y-57823748D01*
X85769280Y-57932600D01*
X85707413Y-57910192D01*
X84751605Y-58866000D01*
X85707413Y-59821808D01*
X85769280Y-59799400D01*
X85842013Y-59908252D01*
X86069748Y-60135987D01*
X86337537Y-60314918D01*
X86635088Y-60438168D01*
X86950967Y-60501000D01*
X87273033Y-60501000D01*
X87588912Y-60438168D01*
X87886463Y-60314918D01*
X88154252Y-60135987D01*
X88381987Y-59908252D01*
X88422012Y-59848350D01*
X88421834Y-59942559D01*
X88424228Y-59967340D01*
X88431410Y-59991178D01*
X88443104Y-60013157D01*
X88458862Y-60032432D01*
X88478077Y-60048262D01*
X88500012Y-60060040D01*
X88523822Y-60067312D01*
X88549482Y-60069797D01*
X98421967Y-60019448D01*
X98389744Y-60032795D01*
X98220226Y-60146063D01*
X98076063Y-60290226D01*
X97962795Y-60459744D01*
X97884774Y-60648102D01*
X97845000Y-60848061D01*
X97845000Y-61051939D01*
X97884774Y-61251898D01*
X97960618Y-61435000D01*
X97884774Y-61618102D01*
X97845000Y-61818061D01*
X97845000Y-62021939D01*
X97884774Y-62221898D01*
X97962795Y-62410256D01*
X97992692Y-62455000D01*
X97962795Y-62499744D01*
X97884774Y-62688102D01*
X97845000Y-62888061D01*
X97845000Y-63091939D01*
X97884774Y-63291898D01*
X97962795Y-63480256D01*
X98076063Y-63649774D01*
X98220226Y-63793937D01*
X98389744Y-63907205D01*
X98578102Y-63985226D01*
X98778061Y-64025000D01*
X98981939Y-64025000D01*
X99181898Y-63985226D01*
X99370256Y-63907205D01*
X99539774Y-63793937D01*
X99683937Y-63649774D01*
X99797205Y-63480256D01*
X99875226Y-63291898D01*
X99915000Y-63091939D01*
X99915000Y-62888061D01*
X99875226Y-62688102D01*
X99797205Y-62499744D01*
X99767308Y-62455000D01*
X99797205Y-62410256D01*
X99875226Y-62221898D01*
X99915000Y-62021939D01*
X99915000Y-61818061D01*
X99875226Y-61618102D01*
X99825503Y-61498061D01*
X107015000Y-61498061D01*
X107015000Y-61701939D01*
X107054774Y-61901898D01*
X107132795Y-62090256D01*
X107246063Y-62259774D01*
X107390226Y-62403937D01*
X107559744Y-62517205D01*
X107748102Y-62595226D01*
X107948061Y-62635000D01*
X108151939Y-62635000D01*
X108351898Y-62595226D01*
X108540256Y-62517205D01*
X108709774Y-62403937D01*
X108853937Y-62259774D01*
X108967205Y-62090256D01*
X109045226Y-61901898D01*
X109085000Y-61701939D01*
X109085000Y-61498061D01*
X109045226Y-61298102D01*
X108985218Y-61153230D01*
X108987205Y-61150256D01*
X109065226Y-60961898D01*
X109105000Y-60761939D01*
X109105000Y-60558061D01*
X109065226Y-60358102D01*
X108987205Y-60169744D01*
X108873937Y-60000226D01*
X108729774Y-59856063D01*
X108560256Y-59742795D01*
X108371898Y-59664774D01*
X108171939Y-59625000D01*
X107968061Y-59625000D01*
X107768102Y-59664774D01*
X107579744Y-59742795D01*
X107410226Y-59856063D01*
X107266063Y-60000226D01*
X107152795Y-60169744D01*
X107074774Y-60358102D01*
X107035000Y-60558061D01*
X107035000Y-60761939D01*
X107074774Y-60961898D01*
X107134782Y-61106770D01*
X107132795Y-61109744D01*
X107054774Y-61298102D01*
X107015000Y-61498061D01*
X99825503Y-61498061D01*
X99799382Y-61435000D01*
X99875226Y-61251898D01*
X99915000Y-61051939D01*
X99915000Y-60848061D01*
X99875226Y-60648102D01*
X99797205Y-60459744D01*
X99683937Y-60290226D01*
X99539774Y-60146063D01*
X99370256Y-60032795D01*
X99326891Y-60014833D01*
X101427011Y-60004122D01*
X101451774Y-60001556D01*
X101475562Y-59994207D01*
X101497458Y-59982359D01*
X101516622Y-59966467D01*
X101532318Y-59947142D01*
X101543942Y-59925126D01*
X101551047Y-59901265D01*
X101553363Y-59876912D01*
X101543452Y-53952702D01*
X103336930Y-52168082D01*
X103325000Y-52228061D01*
X103325000Y-52431939D01*
X103364774Y-52631898D01*
X103434386Y-52799955D01*
X103405795Y-52842744D01*
X103327774Y-53031102D01*
X103288000Y-53231061D01*
X103288000Y-53434939D01*
X103327774Y-53634898D01*
X103405795Y-53823256D01*
X103519063Y-53992774D01*
X103663226Y-54136937D01*
X103832744Y-54250205D01*
X104021102Y-54328226D01*
X104221061Y-54368000D01*
X104424939Y-54368000D01*
X104624898Y-54328226D01*
X104813256Y-54250205D01*
X104982774Y-54136937D01*
X105126937Y-53992774D01*
X105240205Y-53823256D01*
X105318226Y-53634898D01*
X105358000Y-53434939D01*
X105358000Y-53231061D01*
X105318226Y-53031102D01*
X105248614Y-52863045D01*
X105277205Y-52820256D01*
X105355226Y-52631898D01*
X105395000Y-52431939D01*
X105395000Y-52228061D01*
X105355226Y-52028102D01*
X105324836Y-51954734D01*
X111256263Y-51958237D01*
X111259230Y-79763420D01*
X111154057Y-79658247D01*
X110984539Y-79544979D01*
X110823722Y-79478366D01*
X110825000Y-79471939D01*
X110825000Y-79268061D01*
X110785226Y-79068102D01*
X110707205Y-78879744D01*
X110593937Y-78710226D01*
X110449774Y-78566063D01*
X110280256Y-78452795D01*
X110091898Y-78374774D01*
X109891939Y-78335000D01*
X109688061Y-78335000D01*
X109488102Y-78374774D01*
X109299744Y-78452795D01*
X109130226Y-78566063D01*
X108986063Y-78710226D01*
X108872795Y-78879744D01*
X108794774Y-79068102D01*
X108755000Y-79268061D01*
X108755000Y-79471939D01*
X108794774Y-79671898D01*
X108872795Y-79860256D01*
X108986063Y-80029774D01*
X109130226Y-80173937D01*
X109299744Y-80287205D01*
X109460561Y-80353818D01*
X109459283Y-80360245D01*
X109459283Y-80564123D01*
X109499057Y-80764082D01*
X109577078Y-80952440D01*
X109690346Y-81121958D01*
X109834509Y-81266121D01*
X110004027Y-81379389D01*
X110192385Y-81457410D01*
X110392344Y-81497184D01*
X110596222Y-81497184D01*
X110796181Y-81457410D01*
X110984539Y-81379389D01*
X111154057Y-81266121D01*
X111259379Y-81160799D01*
X111264927Y-133163149D01*
X86953363Y-133168439D01*
X86953363Y-129880800D01*
X87016081Y-129868325D01*
X87331831Y-129737537D01*
X87615998Y-129547663D01*
X87857663Y-129305998D01*
X88047537Y-129021831D01*
X88178325Y-128706081D01*
X88245000Y-128370883D01*
X88245000Y-128029117D01*
X107555000Y-128029117D01*
X107555000Y-128370883D01*
X107621675Y-128706081D01*
X107752463Y-129021831D01*
X107942337Y-129305998D01*
X108184002Y-129547663D01*
X108468169Y-129737537D01*
X108783919Y-129868325D01*
X109119117Y-129935000D01*
X109460883Y-129935000D01*
X109796081Y-129868325D01*
X110111831Y-129737537D01*
X110395998Y-129547663D01*
X110637663Y-129305998D01*
X110827537Y-129021831D01*
X110958325Y-128706081D01*
X111025000Y-128370883D01*
X111025000Y-128029117D01*
X110958325Y-127693919D01*
X110827537Y-127378169D01*
X110637663Y-127094002D01*
X110395998Y-126852337D01*
X110111831Y-126662463D01*
X109796081Y-126531675D01*
X109460883Y-126465000D01*
X109119117Y-126465000D01*
X108783919Y-126531675D01*
X108468169Y-126662463D01*
X108184002Y-126852337D01*
X107942337Y-127094002D01*
X107752463Y-127378169D01*
X107621675Y-127693919D01*
X107555000Y-128029117D01*
X88245000Y-128029117D01*
X88178325Y-127693919D01*
X88047537Y-127378169D01*
X87857663Y-127094002D01*
X87615998Y-126852337D01*
X87331831Y-126662463D01*
X87016081Y-126531675D01*
X86953363Y-126519200D01*
X86953363Y-125481656D01*
X86950923Y-125456880D01*
X86943696Y-125433055D01*
X86931960Y-125411099D01*
X86916166Y-125391853D01*
X86896920Y-125376059D01*
X86874964Y-125364323D01*
X86851139Y-125357096D01*
X86826266Y-125354656D01*
X73726266Y-125364656D01*
X73701491Y-125367115D01*
X73677673Y-125374360D01*
X73655725Y-125386113D01*
X73636492Y-125401922D01*
X73620713Y-125421179D01*
X73608993Y-125443145D01*
X73601784Y-125466975D01*
X73599364Y-125492192D01*
X73631785Y-133171338D01*
X66675000Y-133172852D01*
X66675000Y-124898061D01*
X87865000Y-124898061D01*
X87865000Y-125101939D01*
X87904774Y-125301898D01*
X87982795Y-125490256D01*
X88096063Y-125659774D01*
X88240226Y-125803937D01*
X88409744Y-125917205D01*
X88598102Y-125995226D01*
X88798061Y-126035000D01*
X89001939Y-126035000D01*
X89201898Y-125995226D01*
X89390256Y-125917205D01*
X89559774Y-125803937D01*
X89703937Y-125659774D01*
X89817205Y-125490256D01*
X89895226Y-125301898D01*
X89935000Y-125101939D01*
X89935000Y-124898061D01*
X89895226Y-124698102D01*
X89817205Y-124509744D01*
X89703937Y-124340226D01*
X89559774Y-124196063D01*
X89390256Y-124082795D01*
X89201898Y-124004774D01*
X89001939Y-123965000D01*
X88798061Y-123965000D01*
X88598102Y-124004774D01*
X88409744Y-124082795D01*
X88240226Y-124196063D01*
X88096063Y-124340226D01*
X87982795Y-124509744D01*
X87904774Y-124698102D01*
X87865000Y-124898061D01*
X66675000Y-124898061D01*
X66675000Y-118878061D01*
X68365010Y-118878061D01*
X68365010Y-119081939D01*
X68404784Y-119281898D01*
X68482805Y-119470256D01*
X68596073Y-119639774D01*
X68740236Y-119783937D01*
X68909754Y-119897205D01*
X69098112Y-119975226D01*
X69298071Y-120015000D01*
X69501949Y-120015000D01*
X69701908Y-119975226D01*
X69890266Y-119897205D01*
X70059784Y-119783937D01*
X70203947Y-119639774D01*
X70317215Y-119470256D01*
X70395236Y-119281898D01*
X70435010Y-119081939D01*
X70435010Y-118878061D01*
X70395236Y-118678102D01*
X70317215Y-118489744D01*
X70203947Y-118320226D01*
X70059784Y-118176063D01*
X69890266Y-118062795D01*
X69701908Y-117984774D01*
X69501949Y-117945000D01*
X69298071Y-117945000D01*
X69098112Y-117984774D01*
X68909754Y-118062795D01*
X68740236Y-118176063D01*
X68596073Y-118320226D01*
X68482805Y-118489744D01*
X68404784Y-118678102D01*
X68365010Y-118878061D01*
X66675000Y-118878061D01*
X66675000Y-112583061D01*
X70060000Y-112583061D01*
X70060000Y-112786939D01*
X70099774Y-112986898D01*
X70177795Y-113175256D01*
X70291063Y-113344774D01*
X70435226Y-113488937D01*
X70604744Y-113602205D01*
X70793102Y-113680226D01*
X70993061Y-113720000D01*
X71196939Y-113720000D01*
X71396898Y-113680226D01*
X71585256Y-113602205D01*
X71754774Y-113488937D01*
X71898937Y-113344774D01*
X72012205Y-113175256D01*
X72090226Y-112986898D01*
X72130000Y-112786939D01*
X72130000Y-112648061D01*
X80775000Y-112648061D01*
X80775000Y-112851939D01*
X80814774Y-113051898D01*
X80892795Y-113240256D01*
X81006063Y-113409774D01*
X81150226Y-113553937D01*
X81319744Y-113667205D01*
X81508102Y-113745226D01*
X81708061Y-113785000D01*
X81911939Y-113785000D01*
X82111898Y-113745226D01*
X82300256Y-113667205D01*
X82469774Y-113553937D01*
X82613937Y-113409774D01*
X82727205Y-113240256D01*
X82805226Y-113051898D01*
X82845000Y-112851939D01*
X82845000Y-112648061D01*
X82826489Y-112555000D01*
X83011939Y-112555000D01*
X83193210Y-112518943D01*
X83261845Y-112649000D01*
X84455000Y-112649000D01*
X84455000Y-112629000D01*
X84709000Y-112629000D01*
X84709000Y-112649000D01*
X84729000Y-112649000D01*
X84729000Y-112903000D01*
X84709000Y-112903000D01*
X84709000Y-112923000D01*
X84455000Y-112923000D01*
X84455000Y-112903000D01*
X83261845Y-112903000D01*
X83140524Y-113132890D01*
X83185175Y-113280099D01*
X83310359Y-113542920D01*
X83484412Y-113776269D01*
X83700645Y-113971178D01*
X83817534Y-114040805D01*
X83635368Y-114162525D01*
X83428525Y-114369368D01*
X83266010Y-114612589D01*
X83154068Y-114882842D01*
X83097000Y-115169740D01*
X83097000Y-115462260D01*
X83154068Y-115749158D01*
X83266010Y-116019411D01*
X83428525Y-116262632D01*
X83635368Y-116469475D01*
X83809760Y-116586000D01*
X83635368Y-116702525D01*
X83428525Y-116909368D01*
X83266010Y-117152589D01*
X83154068Y-117422842D01*
X83097000Y-117709740D01*
X83097000Y-118002260D01*
X83154068Y-118289158D01*
X83266010Y-118559411D01*
X83428525Y-118802632D01*
X83635368Y-119009475D01*
X83809760Y-119126000D01*
X83635368Y-119242525D01*
X83428525Y-119449368D01*
X83266010Y-119692589D01*
X83154068Y-119962842D01*
X83097000Y-120249740D01*
X83097000Y-120542260D01*
X83154068Y-120829158D01*
X83266010Y-121099411D01*
X83428525Y-121342632D01*
X83560380Y-121474487D01*
X83487820Y-121496498D01*
X83377506Y-121555463D01*
X83280815Y-121634815D01*
X83201463Y-121731506D01*
X83142498Y-121841820D01*
X83106188Y-121961518D01*
X83093928Y-122086000D01*
X83093928Y-123786000D01*
X83106188Y-123910482D01*
X83142498Y-124030180D01*
X83201463Y-124140494D01*
X83280815Y-124237185D01*
X83377506Y-124316537D01*
X83487820Y-124375502D01*
X83607518Y-124411812D01*
X83732000Y-124424072D01*
X85432000Y-124424072D01*
X85556482Y-124411812D01*
X85676180Y-124375502D01*
X85786494Y-124316537D01*
X85883185Y-124237185D01*
X85962537Y-124140494D01*
X86021502Y-124030180D01*
X86043513Y-123957620D01*
X86175368Y-124089475D01*
X86418589Y-124251990D01*
X86688842Y-124363932D01*
X86975740Y-124421000D01*
X87268260Y-124421000D01*
X87555158Y-124363932D01*
X87825411Y-124251990D01*
X88068632Y-124089475D01*
X88275475Y-123882632D01*
X88437990Y-123639411D01*
X88549932Y-123369158D01*
X88607000Y-123082260D01*
X88607000Y-122789740D01*
X88549932Y-122502842D01*
X88437990Y-122232589D01*
X88275475Y-121989368D01*
X88068632Y-121782525D01*
X87894240Y-121666000D01*
X88068632Y-121549475D01*
X88275475Y-121342632D01*
X88437990Y-121099411D01*
X88549932Y-120829158D01*
X88607000Y-120542260D01*
X88607000Y-120249740D01*
X88549932Y-119962842D01*
X88437990Y-119692589D01*
X88275475Y-119449368D01*
X88068632Y-119242525D01*
X87886466Y-119120805D01*
X88003355Y-119051178D01*
X88219588Y-118856269D01*
X88393641Y-118622920D01*
X88518825Y-118360099D01*
X88563476Y-118212890D01*
X88442155Y-117983000D01*
X87249000Y-117983000D01*
X87249000Y-118003000D01*
X86995000Y-118003000D01*
X86995000Y-117983000D01*
X86975000Y-117983000D01*
X86975000Y-117729000D01*
X86995000Y-117729000D01*
X86995000Y-117709000D01*
X87249000Y-117709000D01*
X87249000Y-117729000D01*
X88442155Y-117729000D01*
X88563476Y-117499110D01*
X88518825Y-117351901D01*
X88393641Y-117089080D01*
X88219588Y-116855731D01*
X88003355Y-116660822D01*
X87886466Y-116591195D01*
X88068632Y-116469475D01*
X88275475Y-116262632D01*
X88437990Y-116019411D01*
X88549932Y-115749158D01*
X88607000Y-115462260D01*
X88607000Y-115169740D01*
X88549932Y-114882842D01*
X88437990Y-114612589D01*
X88401556Y-114558061D01*
X101975000Y-114558061D01*
X101975000Y-114761939D01*
X102014774Y-114961898D01*
X102092795Y-115150256D01*
X102206063Y-115319774D01*
X102350226Y-115463937D01*
X102519744Y-115577205D01*
X102708102Y-115655226D01*
X102908061Y-115695000D01*
X103111939Y-115695000D01*
X103311898Y-115655226D01*
X103478355Y-115586277D01*
X103479744Y-115587205D01*
X103668102Y-115665226D01*
X103868061Y-115705000D01*
X104071939Y-115705000D01*
X104271898Y-115665226D01*
X104460256Y-115587205D01*
X104629774Y-115473937D01*
X104773937Y-115329774D01*
X104887205Y-115160256D01*
X104965226Y-114971898D01*
X105005000Y-114771939D01*
X105005000Y-114568061D01*
X104965226Y-114368102D01*
X104887205Y-114179744D01*
X104773937Y-114010226D01*
X104629774Y-113866063D01*
X104460256Y-113752795D01*
X104271898Y-113674774D01*
X104071939Y-113635000D01*
X103868061Y-113635000D01*
X103668102Y-113674774D01*
X103501645Y-113743723D01*
X103500256Y-113742795D01*
X103311898Y-113664774D01*
X103111939Y-113625000D01*
X102908061Y-113625000D01*
X102708102Y-113664774D01*
X102519744Y-113742795D01*
X102350226Y-113856063D01*
X102206063Y-114000226D01*
X102092795Y-114169744D01*
X102014774Y-114358102D01*
X101975000Y-114558061D01*
X88401556Y-114558061D01*
X88275475Y-114369368D01*
X88068632Y-114162525D01*
X87894240Y-114046000D01*
X88068632Y-113929475D01*
X88275475Y-113722632D01*
X88437990Y-113479411D01*
X88549932Y-113209158D01*
X88607000Y-112922260D01*
X88607000Y-112629740D01*
X88549932Y-112342842D01*
X88437990Y-112072589D01*
X88275475Y-111829368D01*
X88068632Y-111622525D01*
X87894240Y-111506000D01*
X88068632Y-111389475D01*
X88150046Y-111308061D01*
X102015000Y-111308061D01*
X102015000Y-111511939D01*
X102054774Y-111711898D01*
X102132795Y-111900256D01*
X102246063Y-112069774D01*
X102390226Y-112213937D01*
X102559744Y-112327205D01*
X102748102Y-112405226D01*
X102948061Y-112445000D01*
X103151939Y-112445000D01*
X103351898Y-112405226D01*
X103481358Y-112351602D01*
X103489744Y-112357205D01*
X103678102Y-112435226D01*
X103878061Y-112475000D01*
X104081939Y-112475000D01*
X104281898Y-112435226D01*
X104470256Y-112357205D01*
X104639774Y-112243937D01*
X104783937Y-112099774D01*
X104897205Y-111930256D01*
X104975226Y-111741898D01*
X105015000Y-111541939D01*
X105015000Y-111338061D01*
X105011022Y-111318061D01*
X105590000Y-111318061D01*
X105590000Y-111521939D01*
X105629774Y-111721898D01*
X105707795Y-111910256D01*
X105821063Y-112079774D01*
X105965226Y-112223937D01*
X106134744Y-112337205D01*
X106323102Y-112415226D01*
X106523061Y-112455000D01*
X106726939Y-112455000D01*
X106926898Y-112415226D01*
X107115256Y-112337205D01*
X107284774Y-112223937D01*
X107428937Y-112079774D01*
X107542205Y-111910256D01*
X107620226Y-111721898D01*
X107660000Y-111521939D01*
X107660000Y-111318061D01*
X107620226Y-111118102D01*
X107542205Y-110929744D01*
X107428937Y-110760226D01*
X107284774Y-110616063D01*
X107115256Y-110502795D01*
X106926898Y-110424774D01*
X106726939Y-110385000D01*
X106523061Y-110385000D01*
X106323102Y-110424774D01*
X106134744Y-110502795D01*
X105965226Y-110616063D01*
X105821063Y-110760226D01*
X105707795Y-110929744D01*
X105629774Y-111118102D01*
X105590000Y-111318061D01*
X105011022Y-111318061D01*
X104975226Y-111138102D01*
X104897205Y-110949744D01*
X104783937Y-110780226D01*
X104639774Y-110636063D01*
X104490511Y-110536329D01*
X104646877Y-110505226D01*
X104835235Y-110427205D01*
X105004753Y-110313937D01*
X105148916Y-110169774D01*
X105262184Y-110000256D01*
X105340205Y-109811898D01*
X105379979Y-109611939D01*
X105379979Y-109408061D01*
X105340205Y-109208102D01*
X105262184Y-109019744D01*
X105148916Y-108850226D01*
X105004753Y-108706063D01*
X104835235Y-108592795D01*
X104646877Y-108514774D01*
X104446918Y-108475000D01*
X104243040Y-108475000D01*
X104043081Y-108514774D01*
X103854723Y-108592795D01*
X103685205Y-108706063D01*
X103541042Y-108850226D01*
X103427774Y-109019744D01*
X103349753Y-109208102D01*
X103309979Y-109408061D01*
X103309979Y-109611939D01*
X103349753Y-109811898D01*
X103427774Y-110000256D01*
X103541042Y-110169774D01*
X103685205Y-110313937D01*
X103834468Y-110413671D01*
X103678102Y-110444774D01*
X103548642Y-110498398D01*
X103540256Y-110492795D01*
X103351898Y-110414774D01*
X103151939Y-110375000D01*
X102948061Y-110375000D01*
X102748102Y-110414774D01*
X102559744Y-110492795D01*
X102390226Y-110606063D01*
X102246063Y-110750226D01*
X102132795Y-110919744D01*
X102054774Y-111108102D01*
X102015000Y-111308061D01*
X88150046Y-111308061D01*
X88275475Y-111182632D01*
X88437990Y-110939411D01*
X88549932Y-110669158D01*
X88607000Y-110382260D01*
X88607000Y-110089740D01*
X88549932Y-109802842D01*
X88437990Y-109532589D01*
X88275475Y-109289368D01*
X88068632Y-109082525D01*
X87886466Y-108960805D01*
X88003355Y-108891178D01*
X88219588Y-108696269D01*
X88393641Y-108462920D01*
X88518825Y-108200099D01*
X88563476Y-108052890D01*
X88442155Y-107823000D01*
X87249000Y-107823000D01*
X87249000Y-107843000D01*
X86995000Y-107843000D01*
X86995000Y-107823000D01*
X86975000Y-107823000D01*
X86975000Y-107569000D01*
X86995000Y-107569000D01*
X86995000Y-107549000D01*
X87249000Y-107549000D01*
X87249000Y-107569000D01*
X88442155Y-107569000D01*
X88563476Y-107339110D01*
X88518825Y-107191901D01*
X88393641Y-106929080D01*
X88219588Y-106695731D01*
X88003355Y-106500822D01*
X87886466Y-106431195D01*
X88068632Y-106309475D01*
X88090046Y-106288061D01*
X94845000Y-106288061D01*
X94845000Y-106491939D01*
X94884774Y-106691898D01*
X94962795Y-106880256D01*
X95076063Y-107049774D01*
X95220226Y-107193937D01*
X95389744Y-107307205D01*
X95578102Y-107385226D01*
X95778061Y-107425000D01*
X95981939Y-107425000D01*
X96181898Y-107385226D01*
X96370256Y-107307205D01*
X96539774Y-107193937D01*
X96683937Y-107049774D01*
X96797205Y-106880256D01*
X96875226Y-106691898D01*
X96915000Y-106491939D01*
X96915000Y-106288061D01*
X96898041Y-106202802D01*
X96916063Y-106229774D01*
X97060226Y-106373937D01*
X97229744Y-106487205D01*
X97418102Y-106565226D01*
X97618061Y-106605000D01*
X97821939Y-106605000D01*
X98021898Y-106565226D01*
X98210256Y-106487205D01*
X98379774Y-106373937D01*
X98523937Y-106229774D01*
X98637205Y-106060256D01*
X98715226Y-105871898D01*
X98755000Y-105671939D01*
X98755000Y-105468061D01*
X98715226Y-105268102D01*
X98637205Y-105079744D01*
X98523937Y-104910226D01*
X98379774Y-104766063D01*
X98210256Y-104652795D01*
X98021898Y-104574774D01*
X97821939Y-104535000D01*
X97618061Y-104535000D01*
X97418102Y-104574774D01*
X97229744Y-104652795D01*
X97060226Y-104766063D01*
X96916063Y-104910226D01*
X96802795Y-105079744D01*
X96724774Y-105268102D01*
X96685000Y-105468061D01*
X96685000Y-105671939D01*
X96701959Y-105757198D01*
X96683937Y-105730226D01*
X96539774Y-105586063D01*
X96370256Y-105472795D01*
X96181898Y-105394774D01*
X95981939Y-105355000D01*
X95778061Y-105355000D01*
X95578102Y-105394774D01*
X95389744Y-105472795D01*
X95220226Y-105586063D01*
X95076063Y-105730226D01*
X94962795Y-105899744D01*
X94884774Y-106088102D01*
X94845000Y-106288061D01*
X88090046Y-106288061D01*
X88275475Y-106102632D01*
X88437990Y-105859411D01*
X88549932Y-105589158D01*
X88607000Y-105302260D01*
X88607000Y-105009740D01*
X88549932Y-104722842D01*
X88437990Y-104452589D01*
X88275475Y-104209368D01*
X88254168Y-104188061D01*
X99505000Y-104188061D01*
X99505000Y-104391939D01*
X99544774Y-104591898D01*
X99621476Y-104777071D01*
X99554774Y-104938102D01*
X99515000Y-105138061D01*
X99515000Y-105341939D01*
X99554774Y-105541898D01*
X99632795Y-105730256D01*
X99746063Y-105899774D01*
X99890226Y-106043937D01*
X100059744Y-106157205D01*
X100248102Y-106235226D01*
X100448061Y-106275000D01*
X100651939Y-106275000D01*
X100851898Y-106235226D01*
X101040256Y-106157205D01*
X101209774Y-106043937D01*
X101353937Y-105899774D01*
X101467205Y-105730256D01*
X101545226Y-105541898D01*
X101585000Y-105341939D01*
X101585000Y-105138061D01*
X101548587Y-104955000D01*
X101601939Y-104955000D01*
X101801898Y-104915226D01*
X101990256Y-104837205D01*
X102159774Y-104723937D01*
X102303937Y-104579774D01*
X102417205Y-104410256D01*
X102495226Y-104221898D01*
X102535000Y-104021939D01*
X102535000Y-103818061D01*
X102495226Y-103618102D01*
X102417205Y-103429744D01*
X102303937Y-103260226D01*
X102159774Y-103116063D01*
X101990256Y-103002795D01*
X101924994Y-102975762D01*
X102098889Y-103028513D01*
X102390000Y-103057185D01*
X102681110Y-103028513D01*
X102961033Y-102943599D01*
X103219013Y-102805706D01*
X103445134Y-102620134D01*
X103630706Y-102394014D01*
X103640000Y-102376626D01*
X103649294Y-102394013D01*
X103834866Y-102620134D01*
X104060986Y-102805706D01*
X104318966Y-102943599D01*
X104598889Y-103028513D01*
X104890000Y-103057185D01*
X105181110Y-103028513D01*
X105330542Y-102983183D01*
X105312795Y-103009744D01*
X105234774Y-103198102D01*
X105195000Y-103398061D01*
X105195000Y-103601939D01*
X105234774Y-103801898D01*
X105312795Y-103990256D01*
X105426063Y-104159774D01*
X105570226Y-104303937D01*
X105739744Y-104417205D01*
X105928102Y-104495226D01*
X106128061Y-104535000D01*
X106331939Y-104535000D01*
X106531898Y-104495226D01*
X106720256Y-104417205D01*
X106889774Y-104303937D01*
X107033937Y-104159774D01*
X107147205Y-103990256D01*
X107225226Y-103801898D01*
X107265000Y-103601939D01*
X107265000Y-103398061D01*
X107225226Y-103198102D01*
X107165152Y-103053072D01*
X107990000Y-103053072D01*
X108163254Y-103036008D01*
X108329850Y-102985472D01*
X108483386Y-102903405D01*
X108617962Y-102792962D01*
X108728405Y-102658386D01*
X108810472Y-102504850D01*
X108861008Y-102338254D01*
X108878072Y-102165000D01*
X108878072Y-100715000D01*
X108874132Y-100675000D01*
X109111637Y-100675000D01*
X109350236Y-100627540D01*
X109574992Y-100534443D01*
X109777267Y-100399287D01*
X109949287Y-100227267D01*
X110084443Y-100024992D01*
X110177540Y-99800236D01*
X110225000Y-99561637D01*
X110225000Y-99318363D01*
X110177540Y-99079764D01*
X110084443Y-98855008D01*
X109949287Y-98652733D01*
X109777267Y-98480713D01*
X109574992Y-98345557D01*
X109350236Y-98252460D01*
X109111637Y-98205000D01*
X108868363Y-98205000D01*
X108629764Y-98252460D01*
X108405008Y-98345557D01*
X108202733Y-98480713D01*
X108030713Y-98652733D01*
X107895557Y-98855008D01*
X107802460Y-99079764D01*
X107755000Y-99318363D01*
X107755000Y-99561637D01*
X107802460Y-99800236D01*
X107813516Y-99826928D01*
X106790000Y-99826928D01*
X106616746Y-99843992D01*
X106450150Y-99894528D01*
X106296614Y-99976595D01*
X106162038Y-100087038D01*
X106051595Y-100221614D01*
X105997223Y-100323337D01*
X105945134Y-100259866D01*
X105719014Y-100074294D01*
X105461034Y-99936401D01*
X105181111Y-99851487D01*
X104890000Y-99822815D01*
X104598890Y-99851487D01*
X104318967Y-99936401D01*
X104060987Y-100074294D01*
X103834866Y-100259866D01*
X103649294Y-100485986D01*
X103640000Y-100503374D01*
X103630706Y-100485986D01*
X103445134Y-100259866D01*
X103219014Y-100074294D01*
X102961034Y-99936401D01*
X102681111Y-99851487D01*
X102390000Y-99822815D01*
X102098890Y-99851487D01*
X101818967Y-99936401D01*
X101560987Y-100074294D01*
X101334866Y-100259866D01*
X101149294Y-100485986D01*
X101135538Y-100511722D01*
X100979049Y-100305571D01*
X100761193Y-100112504D01*
X100509858Y-99965648D01*
X100246890Y-99873524D01*
X100017000Y-99994845D01*
X100017000Y-101313000D01*
X100037000Y-101313000D01*
X100037000Y-101567000D01*
X100017000Y-101567000D01*
X100017000Y-102885155D01*
X100246890Y-103006476D01*
X100509858Y-102914352D01*
X100761193Y-102767496D01*
X100979049Y-102574429D01*
X101135538Y-102368278D01*
X101149294Y-102394013D01*
X101334866Y-102620134D01*
X101560986Y-102805706D01*
X101772989Y-102919024D01*
X101601939Y-102885000D01*
X101398061Y-102885000D01*
X101198102Y-102924774D01*
X101009744Y-103002795D01*
X100840226Y-103116063D01*
X100696063Y-103260226D01*
X100692796Y-103265116D01*
X100641939Y-103255000D01*
X100438061Y-103255000D01*
X100238102Y-103294774D01*
X100049744Y-103372795D01*
X99880226Y-103486063D01*
X99736063Y-103630226D01*
X99622795Y-103799744D01*
X99544774Y-103988102D01*
X99505000Y-104188061D01*
X88254168Y-104188061D01*
X88068632Y-104002525D01*
X87894240Y-103886000D01*
X88068632Y-103769475D01*
X88275475Y-103562632D01*
X88437990Y-103319411D01*
X88549932Y-103049158D01*
X88607000Y-102762260D01*
X88607000Y-102469740D01*
X88549932Y-102182842D01*
X88437990Y-101912589D01*
X88362271Y-101799267D01*
X98423680Y-101799267D01*
X98497558Y-102080830D01*
X98624947Y-102342570D01*
X98800951Y-102574429D01*
X99018807Y-102767496D01*
X99270142Y-102914352D01*
X99533110Y-103006476D01*
X99763000Y-102885155D01*
X99763000Y-101567000D01*
X98563835Y-101567000D01*
X98423680Y-101799267D01*
X88362271Y-101799267D01*
X88275475Y-101669368D01*
X88068632Y-101462525D01*
X87886466Y-101340805D01*
X88003355Y-101271178D01*
X88214635Y-101080733D01*
X98423680Y-101080733D01*
X98563835Y-101313000D01*
X99763000Y-101313000D01*
X99763000Y-99994845D01*
X99533110Y-99873524D01*
X99270142Y-99965648D01*
X99018807Y-100112504D01*
X98800951Y-100305571D01*
X98624947Y-100537430D01*
X98497558Y-100799170D01*
X98423680Y-101080733D01*
X88214635Y-101080733D01*
X88219588Y-101076269D01*
X88393641Y-100842920D01*
X88518825Y-100580099D01*
X88563476Y-100432890D01*
X88442155Y-100203000D01*
X87249000Y-100203000D01*
X87249000Y-100223000D01*
X86995000Y-100223000D01*
X86995000Y-100203000D01*
X86975000Y-100203000D01*
X86975000Y-99949000D01*
X86995000Y-99949000D01*
X86995000Y-99929000D01*
X87249000Y-99929000D01*
X87249000Y-99949000D01*
X88442155Y-99949000D01*
X88563476Y-99719110D01*
X88518825Y-99571901D01*
X88393641Y-99309080D01*
X88219588Y-99075731D01*
X88003355Y-98880822D01*
X87886466Y-98811195D01*
X88068632Y-98689475D01*
X88270046Y-98488061D01*
X92465000Y-98488061D01*
X92465000Y-98691939D01*
X92504774Y-98891898D01*
X92582795Y-99080256D01*
X92696063Y-99249774D01*
X92840226Y-99393937D01*
X93009744Y-99507205D01*
X93198102Y-99585226D01*
X93398061Y-99625000D01*
X93601939Y-99625000D01*
X93801898Y-99585226D01*
X93990256Y-99507205D01*
X94159774Y-99393937D01*
X94303937Y-99249774D01*
X94417205Y-99080256D01*
X94495226Y-98891898D01*
X94535000Y-98691939D01*
X94535000Y-98488061D01*
X94495226Y-98288102D01*
X94417205Y-98099744D01*
X94303937Y-97930226D01*
X94289337Y-97915626D01*
X94391898Y-97895226D01*
X94580256Y-97817205D01*
X94749774Y-97703937D01*
X94893937Y-97559774D01*
X95007205Y-97390256D01*
X95085226Y-97201898D01*
X95125000Y-97001939D01*
X95125000Y-96798061D01*
X95085226Y-96598102D01*
X95007205Y-96409744D01*
X94893937Y-96240226D01*
X94749774Y-96096063D01*
X94580256Y-95982795D01*
X94391898Y-95904774D01*
X94191939Y-95865000D01*
X93988061Y-95865000D01*
X93788102Y-95904774D01*
X93599744Y-95982795D01*
X93430226Y-96096063D01*
X93286063Y-96240226D01*
X93172795Y-96409744D01*
X93094774Y-96598102D01*
X93055000Y-96798061D01*
X93055000Y-97001939D01*
X93094774Y-97201898D01*
X93172795Y-97390256D01*
X93286063Y-97559774D01*
X93300663Y-97574374D01*
X93198102Y-97594774D01*
X93009744Y-97672795D01*
X92840226Y-97786063D01*
X92696063Y-97930226D01*
X92582795Y-98099744D01*
X92504774Y-98288102D01*
X92465000Y-98488061D01*
X88270046Y-98488061D01*
X88275475Y-98482632D01*
X88437990Y-98239411D01*
X88549932Y-97969158D01*
X88607000Y-97682260D01*
X88607000Y-97389740D01*
X88549932Y-97102842D01*
X88437990Y-96832589D01*
X88275475Y-96589368D01*
X88068632Y-96382525D01*
X87894240Y-96266000D01*
X88068632Y-96149475D01*
X88275475Y-95942632D01*
X88437990Y-95699411D01*
X88549932Y-95429158D01*
X88607000Y-95142260D01*
X88607000Y-94849740D01*
X88549932Y-94562842D01*
X88437990Y-94292589D01*
X88275475Y-94049368D01*
X88068632Y-93842525D01*
X87894240Y-93726000D01*
X88068632Y-93609475D01*
X88275475Y-93402632D01*
X88437990Y-93159411D01*
X88549932Y-92889158D01*
X88607000Y-92602260D01*
X88607000Y-92309740D01*
X88549932Y-92022842D01*
X88477536Y-91848061D01*
X93975000Y-91848061D01*
X93975000Y-92051939D01*
X94014774Y-92251898D01*
X94092795Y-92440256D01*
X94206063Y-92609774D01*
X94350226Y-92753937D01*
X94519744Y-92867205D01*
X94708102Y-92945226D01*
X94908061Y-92985000D01*
X94918191Y-92985000D01*
X94932795Y-93020256D01*
X95046063Y-93189774D01*
X95190226Y-93333937D01*
X95359744Y-93447205D01*
X95548102Y-93525226D01*
X95748061Y-93565000D01*
X95951939Y-93565000D01*
X96151898Y-93525226D01*
X96340256Y-93447205D01*
X96509774Y-93333937D01*
X96653937Y-93189774D01*
X96767205Y-93020256D01*
X96845226Y-92831898D01*
X96885000Y-92631939D01*
X96885000Y-92428061D01*
X96845226Y-92228102D01*
X96767205Y-92039744D01*
X96653937Y-91870226D01*
X96621772Y-91838061D01*
X105025000Y-91838061D01*
X105025000Y-92041939D01*
X105064774Y-92241898D01*
X105142795Y-92430256D01*
X105256063Y-92599774D01*
X105400226Y-92743937D01*
X105569744Y-92857205D01*
X105758102Y-92935226D01*
X105958061Y-92975000D01*
X106161939Y-92975000D01*
X106361898Y-92935226D01*
X106550256Y-92857205D01*
X106653631Y-92788132D01*
X106662795Y-92810256D01*
X106776063Y-92979774D01*
X106831289Y-93035000D01*
X106736063Y-93130226D01*
X106622795Y-93299744D01*
X106544774Y-93488102D01*
X106505000Y-93688061D01*
X106505000Y-93891939D01*
X106544774Y-94091898D01*
X106622795Y-94280256D01*
X106736063Y-94449774D01*
X106880226Y-94593937D01*
X107049744Y-94707205D01*
X107238102Y-94785226D01*
X107438061Y-94825000D01*
X107641939Y-94825000D01*
X107841898Y-94785226D01*
X108030256Y-94707205D01*
X108199774Y-94593937D01*
X108343937Y-94449774D01*
X108457205Y-94280256D01*
X108492003Y-94196248D01*
X108497805Y-94210256D01*
X108611073Y-94379774D01*
X108755236Y-94523937D01*
X108924754Y-94637205D01*
X109113112Y-94715226D01*
X109313071Y-94755000D01*
X109516949Y-94755000D01*
X109716908Y-94715226D01*
X109905266Y-94637205D01*
X110074784Y-94523937D01*
X110218947Y-94379774D01*
X110332215Y-94210256D01*
X110410236Y-94021898D01*
X110450010Y-93821939D01*
X110450010Y-93618061D01*
X110410236Y-93418102D01*
X110332215Y-93229744D01*
X110218947Y-93060226D01*
X110074784Y-92916063D01*
X109905266Y-92802795D01*
X109716908Y-92724774D01*
X109516949Y-92685000D01*
X109313071Y-92685000D01*
X109113112Y-92724774D01*
X108924754Y-92802795D01*
X108755236Y-92916063D01*
X108611073Y-93060226D01*
X108497805Y-93229744D01*
X108463007Y-93313752D01*
X108457205Y-93299744D01*
X108343937Y-93130226D01*
X108288711Y-93075000D01*
X108383937Y-92979774D01*
X108497205Y-92810256D01*
X108575226Y-92621898D01*
X108615000Y-92421939D01*
X108615000Y-92218061D01*
X108575226Y-92018102D01*
X108497205Y-91829744D01*
X108383937Y-91660226D01*
X108239774Y-91516063D01*
X108070256Y-91402795D01*
X107895523Y-91330418D01*
X107971898Y-91315226D01*
X108040671Y-91286739D01*
X108056063Y-91309774D01*
X108200226Y-91453937D01*
X108369744Y-91567205D01*
X108558102Y-91645226D01*
X108758061Y-91685000D01*
X108961939Y-91685000D01*
X109161898Y-91645226D01*
X109350256Y-91567205D01*
X109519774Y-91453937D01*
X109663937Y-91309774D01*
X109777205Y-91140256D01*
X109855226Y-90951898D01*
X109895000Y-90751939D01*
X109895000Y-90548061D01*
X109855226Y-90348102D01*
X109777205Y-90159744D01*
X109663937Y-89990226D01*
X109519774Y-89846063D01*
X109350256Y-89732795D01*
X109161898Y-89654774D01*
X108961939Y-89615000D01*
X108758061Y-89615000D01*
X108558102Y-89654774D01*
X108489329Y-89683261D01*
X108473937Y-89660226D01*
X108329774Y-89516063D01*
X108160256Y-89402795D01*
X107971898Y-89324774D01*
X107771939Y-89285000D01*
X107568061Y-89285000D01*
X107408917Y-89316656D01*
X107405226Y-89298102D01*
X107327205Y-89109744D01*
X107213937Y-88940226D01*
X107069774Y-88796063D01*
X106900256Y-88682795D01*
X106711898Y-88604774D01*
X106511939Y-88565000D01*
X106308061Y-88565000D01*
X106108102Y-88604774D01*
X105919744Y-88682795D01*
X105750226Y-88796063D01*
X105606063Y-88940226D01*
X105492795Y-89109744D01*
X105414774Y-89298102D01*
X105375000Y-89498061D01*
X105375000Y-89701939D01*
X105414774Y-89901898D01*
X105492795Y-90090256D01*
X105606063Y-90259774D01*
X105750226Y-90403937D01*
X105919744Y-90517205D01*
X106108102Y-90595226D01*
X106308061Y-90635000D01*
X106511939Y-90635000D01*
X106671083Y-90603344D01*
X106674774Y-90621898D01*
X106752795Y-90810256D01*
X106866063Y-90979774D01*
X107010226Y-91123937D01*
X107179744Y-91237205D01*
X107354477Y-91309582D01*
X107278102Y-91324774D01*
X107089744Y-91402795D01*
X106986369Y-91471868D01*
X106977205Y-91449744D01*
X106863937Y-91280226D01*
X106719774Y-91136063D01*
X106550256Y-91022795D01*
X106361898Y-90944774D01*
X106161939Y-90905000D01*
X105958061Y-90905000D01*
X105758102Y-90944774D01*
X105569744Y-91022795D01*
X105400226Y-91136063D01*
X105256063Y-91280226D01*
X105142795Y-91449744D01*
X105064774Y-91638102D01*
X105025000Y-91838061D01*
X96621772Y-91838061D01*
X96509774Y-91726063D01*
X96340256Y-91612795D01*
X96151898Y-91534774D01*
X95951939Y-91495000D01*
X95941809Y-91495000D01*
X95927205Y-91459744D01*
X95922353Y-91452483D01*
X95937205Y-91430256D01*
X96015226Y-91241898D01*
X96055000Y-91041939D01*
X96055000Y-90838061D01*
X96015226Y-90638102D01*
X95937205Y-90449744D01*
X95823937Y-90280226D01*
X95679774Y-90136063D01*
X95510256Y-90022795D01*
X95321898Y-89944774D01*
X95121939Y-89905000D01*
X94918061Y-89905000D01*
X94718102Y-89944774D01*
X94529744Y-90022795D01*
X94360226Y-90136063D01*
X94216063Y-90280226D01*
X94102795Y-90449744D01*
X94024774Y-90638102D01*
X93985000Y-90838061D01*
X93985000Y-91041939D01*
X94024774Y-91241898D01*
X94102795Y-91430256D01*
X94107647Y-91437517D01*
X94092795Y-91459744D01*
X94014774Y-91648102D01*
X93975000Y-91848061D01*
X88477536Y-91848061D01*
X88437990Y-91752589D01*
X88275475Y-91509368D01*
X88068632Y-91302525D01*
X87825411Y-91140010D01*
X87555158Y-91028068D01*
X87268260Y-90971000D01*
X86975740Y-90971000D01*
X86688842Y-91028068D01*
X86418589Y-91140010D01*
X86175368Y-91302525D01*
X85968525Y-91509368D01*
X85850900Y-91685406D01*
X85679588Y-91455731D01*
X85463355Y-91260822D01*
X85213252Y-91111843D01*
X84938891Y-91014519D01*
X84709000Y-91135186D01*
X84709000Y-92329000D01*
X84729000Y-92329000D01*
X84729000Y-92583000D01*
X84709000Y-92583000D01*
X84709000Y-92603000D01*
X84455000Y-92603000D01*
X84455000Y-92583000D01*
X83261845Y-92583000D01*
X83140524Y-92812890D01*
X83185175Y-92960099D01*
X83310359Y-93222920D01*
X83484412Y-93456269D01*
X83700645Y-93651178D01*
X83817534Y-93720805D01*
X83635368Y-93842525D01*
X83428525Y-94049368D01*
X83266010Y-94292589D01*
X83154068Y-94562842D01*
X83097000Y-94849740D01*
X83097000Y-95142260D01*
X83154068Y-95429158D01*
X83266010Y-95699411D01*
X83428525Y-95942632D01*
X83635368Y-96149475D01*
X83809760Y-96266000D01*
X83635368Y-96382525D01*
X83428525Y-96589368D01*
X83266010Y-96832589D01*
X83154068Y-97102842D01*
X83097000Y-97389740D01*
X83097000Y-97682260D01*
X83145685Y-97927015D01*
X83001627Y-97830759D01*
X82813269Y-97752738D01*
X82613310Y-97712964D01*
X82409432Y-97712964D01*
X82209473Y-97752738D01*
X82021115Y-97830759D01*
X81851597Y-97944027D01*
X81707434Y-98088190D01*
X81594166Y-98257708D01*
X81516145Y-98446066D01*
X81476371Y-98646025D01*
X81476371Y-98849903D01*
X81516145Y-99049862D01*
X81594166Y-99238220D01*
X81707434Y-99407738D01*
X81851597Y-99551901D01*
X81943135Y-99613065D01*
X81874774Y-99778102D01*
X81835000Y-99978061D01*
X81835000Y-100181939D01*
X81874774Y-100381898D01*
X81952795Y-100570256D01*
X82066063Y-100739774D01*
X82210226Y-100883937D01*
X82379744Y-100997205D01*
X82568102Y-101075226D01*
X82768061Y-101115000D01*
X82971939Y-101115000D01*
X83171898Y-101075226D01*
X83360256Y-100997205D01*
X83395708Y-100973517D01*
X83428525Y-101022632D01*
X83635368Y-101229475D01*
X83809760Y-101346000D01*
X83635368Y-101462525D01*
X83428525Y-101669368D01*
X83266010Y-101912589D01*
X83154068Y-102182842D01*
X83097000Y-102469740D01*
X83097000Y-102762260D01*
X83154068Y-103049158D01*
X83266010Y-103319411D01*
X83428525Y-103562632D01*
X83635368Y-103769475D01*
X83809760Y-103886000D01*
X83635368Y-104002525D01*
X83428525Y-104209368D01*
X83266010Y-104452589D01*
X83154068Y-104722842D01*
X83097000Y-105009740D01*
X83097000Y-105302260D01*
X83154068Y-105589158D01*
X83266010Y-105859411D01*
X83428525Y-106102632D01*
X83635368Y-106309475D01*
X83809760Y-106426000D01*
X83635368Y-106542525D01*
X83428525Y-106749368D01*
X83266010Y-106992589D01*
X83154068Y-107262842D01*
X83097000Y-107549740D01*
X83097000Y-107842260D01*
X83154068Y-108129158D01*
X83266010Y-108399411D01*
X83428525Y-108642632D01*
X83635368Y-108849475D01*
X83809760Y-108966000D01*
X83635368Y-109082525D01*
X83428525Y-109289368D01*
X83266010Y-109532589D01*
X83154068Y-109802842D01*
X83097000Y-110089740D01*
X83097000Y-110382260D01*
X83121782Y-110506849D01*
X83011939Y-110485000D01*
X82865000Y-110485000D01*
X82865000Y-110388061D01*
X82825226Y-110188102D01*
X82747205Y-109999744D01*
X82633937Y-109830226D01*
X82489774Y-109686063D01*
X82320256Y-109572795D01*
X82131898Y-109494774D01*
X81931939Y-109455000D01*
X81728061Y-109455000D01*
X81528102Y-109494774D01*
X81339744Y-109572795D01*
X81170226Y-109686063D01*
X81026063Y-109830226D01*
X80912795Y-109999744D01*
X80834774Y-110188102D01*
X80795000Y-110388061D01*
X80795000Y-110591939D01*
X80834774Y-110791898D01*
X80912795Y-110980256D01*
X80939351Y-111020000D01*
X80912795Y-111059744D01*
X80834774Y-111248102D01*
X80795000Y-111448061D01*
X80795000Y-111651939D01*
X80834774Y-111851898D01*
X80912795Y-112040256D01*
X80976123Y-112135034D01*
X80892795Y-112259744D01*
X80814774Y-112448102D01*
X80775000Y-112648061D01*
X72130000Y-112648061D01*
X72130000Y-112583061D01*
X72090226Y-112383102D01*
X72012205Y-112194744D01*
X71898937Y-112025226D01*
X71754774Y-111881063D01*
X71585256Y-111767795D01*
X71396898Y-111689774D01*
X71196939Y-111650000D01*
X70993061Y-111650000D01*
X70793102Y-111689774D01*
X70604744Y-111767795D01*
X70435226Y-111881063D01*
X70291063Y-112025226D01*
X70177795Y-112194744D01*
X70099774Y-112383102D01*
X70060000Y-112583061D01*
X66675000Y-112583061D01*
X66675000Y-103685000D01*
X71253647Y-103685000D01*
X71262718Y-103684107D01*
X71370928Y-103678459D01*
X71432312Y-103669189D01*
X71493827Y-103660776D01*
X71503115Y-103658497D01*
X71611117Y-103631194D01*
X71669513Y-103610185D01*
X71728242Y-103589977D01*
X71736911Y-103585937D01*
X71837551Y-103538177D01*
X71890781Y-103506209D01*
X71944443Y-103474993D01*
X71952162Y-103469346D01*
X72041609Y-103402947D01*
X72087588Y-103361274D01*
X72134189Y-103320208D01*
X72140664Y-103313169D01*
X72215511Y-103230661D01*
X72252531Y-103180836D01*
X72290257Y-103131516D01*
X72295242Y-103123354D01*
X72352638Y-103027880D01*
X72379301Y-102971761D01*
X72406705Y-102916099D01*
X72410010Y-102907124D01*
X72447768Y-102802320D01*
X72463011Y-102742136D01*
X72479093Y-102682168D01*
X72480592Y-102672722D01*
X72489867Y-102611485D01*
X72495085Y-102594283D01*
X72504997Y-102493647D01*
X72505000Y-99886354D01*
X72504107Y-99877284D01*
X72498459Y-99769071D01*
X72489186Y-99707667D01*
X72480776Y-99646174D01*
X72478497Y-99636885D01*
X72451194Y-99528884D01*
X72430185Y-99470489D01*
X72409977Y-99411758D01*
X72405937Y-99403089D01*
X72358177Y-99302449D01*
X72326209Y-99249219D01*
X72294992Y-99195557D01*
X72289346Y-99187837D01*
X72222947Y-99098391D01*
X72181242Y-99052377D01*
X72140208Y-99005812D01*
X72133169Y-98999336D01*
X72050661Y-98924489D01*
X72000804Y-98887445D01*
X71951516Y-98849743D01*
X71943354Y-98844758D01*
X71847880Y-98787362D01*
X71791761Y-98760699D01*
X71736099Y-98733295D01*
X71727124Y-98729990D01*
X71622320Y-98692232D01*
X71562126Y-98676987D01*
X71502167Y-98660907D01*
X71492721Y-98659408D01*
X71431530Y-98650140D01*
X71414369Y-98644932D01*
X71313735Y-98635007D01*
X66675000Y-98634410D01*
X66675000Y-93215468D01*
X70904990Y-93215468D01*
X70904990Y-93419346D01*
X70944764Y-93619305D01*
X71022785Y-93807663D01*
X71136053Y-93977181D01*
X71280216Y-94121344D01*
X71449734Y-94234612D01*
X71638092Y-94312633D01*
X71743887Y-94333677D01*
X71704774Y-94428102D01*
X71665000Y-94628061D01*
X71665000Y-94831939D01*
X71704774Y-95031898D01*
X71782795Y-95220256D01*
X71862783Y-95339966D01*
X71802795Y-95429744D01*
X71724774Y-95618102D01*
X71685000Y-95818061D01*
X71685000Y-96021939D01*
X71724774Y-96221898D01*
X71802795Y-96410256D01*
X71916063Y-96579774D01*
X72060226Y-96723937D01*
X72229744Y-96837205D01*
X72418102Y-96915226D01*
X72618061Y-96955000D01*
X72821939Y-96955000D01*
X73021898Y-96915226D01*
X73152047Y-96861316D01*
X75861052Y-96861316D01*
X75861052Y-97065194D01*
X75900826Y-97265153D01*
X75978847Y-97453511D01*
X76092115Y-97623029D01*
X76236278Y-97767192D01*
X76405796Y-97880460D01*
X76594154Y-97958481D01*
X76794113Y-97998255D01*
X76997991Y-97998255D01*
X77197950Y-97958481D01*
X77386308Y-97880460D01*
X77555826Y-97767192D01*
X77699989Y-97623029D01*
X77813257Y-97453511D01*
X77891278Y-97265153D01*
X77931052Y-97065194D01*
X77931052Y-96861316D01*
X77891278Y-96661357D01*
X77813257Y-96472999D01*
X77699989Y-96303481D01*
X77555826Y-96159318D01*
X77386308Y-96046050D01*
X77197950Y-95968029D01*
X76997991Y-95928255D01*
X76794113Y-95928255D01*
X76594154Y-95968029D01*
X76405796Y-96046050D01*
X76236278Y-96159318D01*
X76092115Y-96303481D01*
X75978847Y-96472999D01*
X75900826Y-96661357D01*
X75861052Y-96861316D01*
X73152047Y-96861316D01*
X73210256Y-96837205D01*
X73379774Y-96723937D01*
X73523937Y-96579774D01*
X73637205Y-96410256D01*
X73715226Y-96221898D01*
X73755000Y-96021939D01*
X73755000Y-95818061D01*
X73715226Y-95618102D01*
X73637205Y-95429744D01*
X73557217Y-95310034D01*
X73617205Y-95220256D01*
X73695226Y-95031898D01*
X73735000Y-94831939D01*
X73735000Y-94628061D01*
X73695226Y-94428102D01*
X73617205Y-94239744D01*
X73503937Y-94070226D01*
X73359774Y-93926063D01*
X73190256Y-93812795D01*
X73001898Y-93734774D01*
X72896103Y-93713730D01*
X72935216Y-93619305D01*
X72974990Y-93419346D01*
X72974990Y-93215468D01*
X72935216Y-93015509D01*
X72857195Y-92827151D01*
X72743927Y-92657633D01*
X72599764Y-92513470D01*
X72430246Y-92400202D01*
X72241888Y-92322181D01*
X72041929Y-92282407D01*
X71838051Y-92282407D01*
X71638092Y-92322181D01*
X71449734Y-92400202D01*
X71280216Y-92513470D01*
X71136053Y-92657633D01*
X71022785Y-92827151D01*
X70944764Y-93015509D01*
X70904990Y-93215468D01*
X66675000Y-93215468D01*
X66675000Y-87850000D01*
X67754025Y-87850000D01*
X67777870Y-88092102D01*
X67848489Y-88324901D01*
X67963167Y-88539449D01*
X68117498Y-88727502D01*
X68266762Y-88850000D01*
X68117498Y-88972498D01*
X67963167Y-89160551D01*
X67848489Y-89375099D01*
X67777870Y-89607898D01*
X67754025Y-89850000D01*
X67777870Y-90092102D01*
X67848489Y-90324901D01*
X67963167Y-90539449D01*
X68117498Y-90727502D01*
X68266762Y-90850000D01*
X68117498Y-90972498D01*
X67963167Y-91160551D01*
X67848489Y-91375099D01*
X67777870Y-91607898D01*
X67754025Y-91850000D01*
X67777870Y-92092102D01*
X67848489Y-92324901D01*
X67963167Y-92539449D01*
X68117498Y-92727502D01*
X68305551Y-92881833D01*
X68520099Y-92996511D01*
X68752898Y-93067130D01*
X68934335Y-93085000D01*
X69605665Y-93085000D01*
X69787102Y-93067130D01*
X70019901Y-92996511D01*
X70234449Y-92881833D01*
X70422502Y-92727502D01*
X70576833Y-92539449D01*
X70691511Y-92324901D01*
X70760004Y-92099110D01*
X83140524Y-92099110D01*
X83261845Y-92329000D01*
X84455000Y-92329000D01*
X84455000Y-91135186D01*
X84225109Y-91014519D01*
X83950748Y-91111843D01*
X83700645Y-91260822D01*
X83484412Y-91455731D01*
X83310359Y-91689080D01*
X83185175Y-91951901D01*
X83140524Y-92099110D01*
X70760004Y-92099110D01*
X70762130Y-92092102D01*
X70785975Y-91850000D01*
X70762130Y-91607898D01*
X70691511Y-91375099D01*
X70576833Y-91160551D01*
X70422502Y-90972498D01*
X70273238Y-90850000D01*
X70422502Y-90727502D01*
X70576833Y-90539449D01*
X70691511Y-90324901D01*
X70762130Y-90092102D01*
X70785975Y-89850000D01*
X70762130Y-89607898D01*
X70691511Y-89375099D01*
X70576833Y-89160551D01*
X70422502Y-88972498D01*
X70273238Y-88850000D01*
X70287785Y-88838061D01*
X98315000Y-88838061D01*
X98315000Y-89041939D01*
X98354774Y-89241898D01*
X98432795Y-89430256D01*
X98546063Y-89599774D01*
X98690226Y-89743937D01*
X98859744Y-89857205D01*
X99048102Y-89935226D01*
X99248061Y-89975000D01*
X99451939Y-89975000D01*
X99651898Y-89935226D01*
X99840256Y-89857205D01*
X100009774Y-89743937D01*
X100153937Y-89599774D01*
X100267205Y-89430256D01*
X100344953Y-89242556D01*
X100508061Y-89275000D01*
X100711939Y-89275000D01*
X100911898Y-89235226D01*
X101100256Y-89157205D01*
X101269774Y-89043937D01*
X101413937Y-88899774D01*
X101527205Y-88730256D01*
X101605226Y-88541898D01*
X101645000Y-88341939D01*
X101645000Y-88138061D01*
X101605226Y-87938102D01*
X101527205Y-87749744D01*
X101413937Y-87580226D01*
X101269774Y-87436063D01*
X101100256Y-87322795D01*
X100911898Y-87244774D01*
X100711939Y-87205000D01*
X100508061Y-87205000D01*
X100308102Y-87244774D01*
X100119744Y-87322795D01*
X99950226Y-87436063D01*
X99806063Y-87580226D01*
X99692795Y-87749744D01*
X99615047Y-87937444D01*
X99451939Y-87905000D01*
X99248061Y-87905000D01*
X99048102Y-87944774D01*
X98859744Y-88022795D01*
X98690226Y-88136063D01*
X98546063Y-88280226D01*
X98432795Y-88449744D01*
X98354774Y-88638102D01*
X98315000Y-88838061D01*
X70287785Y-88838061D01*
X70422502Y-88727502D01*
X70576833Y-88539449D01*
X70691511Y-88324901D01*
X70762130Y-88092102D01*
X70785975Y-87850000D01*
X70762130Y-87607898D01*
X70691511Y-87375099D01*
X70576833Y-87160551D01*
X70422502Y-86972498D01*
X70272652Y-86849519D01*
X70336725Y-86806307D01*
X70403488Y-86738967D01*
X72325000Y-86738967D01*
X72325000Y-87061033D01*
X72387832Y-87376912D01*
X72511082Y-87674463D01*
X72690013Y-87942252D01*
X72917748Y-88169987D01*
X73185537Y-88348918D01*
X73483088Y-88472168D01*
X73798967Y-88535000D01*
X74121033Y-88535000D01*
X74436912Y-88472168D01*
X74734463Y-88348918D01*
X75002252Y-88169987D01*
X75136826Y-88035413D01*
X78084192Y-88035413D01*
X78179956Y-88299814D01*
X78469571Y-88440704D01*
X78781108Y-88522384D01*
X79102595Y-88541718D01*
X79421675Y-88497961D01*
X79726088Y-88392795D01*
X79900044Y-88299814D01*
X79995808Y-88035413D01*
X79040000Y-87079605D01*
X78084192Y-88035413D01*
X75136826Y-88035413D01*
X75229987Y-87942252D01*
X75408918Y-87674463D01*
X75532168Y-87376912D01*
X75595000Y-87061033D01*
X75595000Y-86962595D01*
X77398282Y-86962595D01*
X77442039Y-87281675D01*
X77547205Y-87586088D01*
X77640186Y-87760044D01*
X77904587Y-87855808D01*
X78860395Y-86900000D01*
X79219605Y-86900000D01*
X80175413Y-87855808D01*
X80237280Y-87833400D01*
X80310013Y-87942252D01*
X80537748Y-88169987D01*
X80805537Y-88348918D01*
X81103088Y-88472168D01*
X81418967Y-88535000D01*
X81741033Y-88535000D01*
X82056912Y-88472168D01*
X82354463Y-88348918D01*
X82622252Y-88169987D01*
X82849987Y-87942252D01*
X82850000Y-87942233D01*
X82850013Y-87942252D01*
X83077748Y-88169987D01*
X83345537Y-88348918D01*
X83643088Y-88472168D01*
X83958967Y-88535000D01*
X84281033Y-88535000D01*
X84596912Y-88472168D01*
X84894463Y-88348918D01*
X85162252Y-88169987D01*
X85389987Y-87942252D01*
X85390000Y-87942233D01*
X85390013Y-87942252D01*
X85617748Y-88169987D01*
X85885537Y-88348918D01*
X86183088Y-88472168D01*
X86498967Y-88535000D01*
X86821033Y-88535000D01*
X87136912Y-88472168D01*
X87434463Y-88348918D01*
X87702252Y-88169987D01*
X87929987Y-87942252D01*
X88108918Y-87674463D01*
X88232168Y-87376912D01*
X88295000Y-87061033D01*
X88295000Y-86738967D01*
X88232168Y-86423088D01*
X88108918Y-86125537D01*
X87929987Y-85857748D01*
X87810300Y-85738061D01*
X89175000Y-85738061D01*
X89175000Y-85941939D01*
X89214774Y-86141898D01*
X89292795Y-86330256D01*
X89406063Y-86499774D01*
X89550226Y-86643937D01*
X89719744Y-86757205D01*
X89908102Y-86835226D01*
X90108061Y-86875000D01*
X90311939Y-86875000D01*
X90511898Y-86835226D01*
X90700256Y-86757205D01*
X90869774Y-86643937D01*
X91013937Y-86499774D01*
X91127205Y-86330256D01*
X91205226Y-86141898D01*
X91245000Y-85941939D01*
X91245000Y-85738061D01*
X91205226Y-85538102D01*
X91127205Y-85349744D01*
X91117331Y-85334966D01*
X91147205Y-85290256D01*
X91225226Y-85101898D01*
X91265000Y-84901939D01*
X91265000Y-84698061D01*
X91225226Y-84498102D01*
X91147205Y-84309744D01*
X91033937Y-84140226D01*
X90889774Y-83996063D01*
X90720256Y-83882795D01*
X90531898Y-83804774D01*
X90331939Y-83765000D01*
X90128061Y-83765000D01*
X89928102Y-83804774D01*
X89739744Y-83882795D01*
X89570226Y-83996063D01*
X89426063Y-84140226D01*
X89312795Y-84309744D01*
X89234774Y-84498102D01*
X89195000Y-84698061D01*
X89195000Y-84901939D01*
X89234774Y-85101898D01*
X89312795Y-85290256D01*
X89322669Y-85305034D01*
X89292795Y-85349744D01*
X89214774Y-85538102D01*
X89175000Y-85738061D01*
X87810300Y-85738061D01*
X87702252Y-85630013D01*
X87434463Y-85451082D01*
X87136912Y-85327832D01*
X86821033Y-85265000D01*
X86498967Y-85265000D01*
X86183088Y-85327832D01*
X85885537Y-85451082D01*
X85617748Y-85630013D01*
X85390013Y-85857748D01*
X85390000Y-85857767D01*
X85389987Y-85857748D01*
X85162252Y-85630013D01*
X84894463Y-85451082D01*
X84596912Y-85327832D01*
X84281033Y-85265000D01*
X83958967Y-85265000D01*
X83643088Y-85327832D01*
X83345537Y-85451082D01*
X83077748Y-85630013D01*
X82850013Y-85857748D01*
X82850000Y-85857767D01*
X82849987Y-85857748D01*
X82622252Y-85630013D01*
X82354463Y-85451082D01*
X82056912Y-85327832D01*
X81741033Y-85265000D01*
X81418967Y-85265000D01*
X81103088Y-85327832D01*
X80805537Y-85451082D01*
X80537748Y-85630013D01*
X80310013Y-85857748D01*
X80237280Y-85966600D01*
X80175413Y-85944192D01*
X79219605Y-86900000D01*
X78860395Y-86900000D01*
X77904587Y-85944192D01*
X77640186Y-86039956D01*
X77499296Y-86329571D01*
X77417616Y-86641108D01*
X77398282Y-86962595D01*
X75595000Y-86962595D01*
X75595000Y-86738967D01*
X75532168Y-86423088D01*
X75408918Y-86125537D01*
X75229987Y-85857748D01*
X75136826Y-85764587D01*
X78084192Y-85764587D01*
X79040000Y-86720395D01*
X79995808Y-85764587D01*
X79900044Y-85500186D01*
X79610429Y-85359296D01*
X79298892Y-85277616D01*
X78977405Y-85258282D01*
X78658325Y-85302039D01*
X78353912Y-85407205D01*
X78179956Y-85500186D01*
X78084192Y-85764587D01*
X75136826Y-85764587D01*
X75002252Y-85630013D01*
X74734463Y-85451082D01*
X74436912Y-85327832D01*
X74121033Y-85265000D01*
X73798967Y-85265000D01*
X73483088Y-85327832D01*
X73185537Y-85451082D01*
X72917748Y-85630013D01*
X72690013Y-85857748D01*
X72511082Y-86125537D01*
X72387832Y-86423088D01*
X72325000Y-86738967D01*
X70403488Y-86738967D01*
X70508078Y-86633474D01*
X70642421Y-86430533D01*
X70734591Y-86205282D01*
X70738462Y-86167609D01*
X70613731Y-85977000D01*
X69397000Y-85977000D01*
X69397000Y-85997000D01*
X69143000Y-85997000D01*
X69143000Y-85977000D01*
X67926269Y-85977000D01*
X67801538Y-86167609D01*
X67805409Y-86205282D01*
X67897579Y-86430533D01*
X68031922Y-86633474D01*
X68203275Y-86806307D01*
X68267348Y-86849519D01*
X68117498Y-86972498D01*
X67963167Y-87160551D01*
X67848489Y-87375099D01*
X67777870Y-87607898D01*
X67754025Y-87850000D01*
X66675000Y-87850000D01*
X66675000Y-84167609D01*
X67801538Y-84167609D01*
X67805409Y-84205282D01*
X67897579Y-84430533D01*
X68031922Y-84633474D01*
X68203275Y-84806307D01*
X68268061Y-84850000D01*
X68203275Y-84893693D01*
X68031922Y-85066526D01*
X67897579Y-85269467D01*
X67805409Y-85494718D01*
X67801538Y-85532391D01*
X67926269Y-85723000D01*
X69143000Y-85723000D01*
X69143000Y-83977000D01*
X69397000Y-83977000D01*
X69397000Y-85723000D01*
X70613731Y-85723000D01*
X70738462Y-85532391D01*
X70734591Y-85494718D01*
X70642421Y-85269467D01*
X70508078Y-85066526D01*
X70336725Y-84893693D01*
X70271939Y-84850000D01*
X70336725Y-84806307D01*
X70508078Y-84633474D01*
X70642421Y-84430533D01*
X70734591Y-84205282D01*
X70738462Y-84167609D01*
X70613731Y-83977000D01*
X69397000Y-83977000D01*
X69143000Y-83977000D01*
X67926269Y-83977000D01*
X67801538Y-84167609D01*
X66675000Y-84167609D01*
X66675000Y-82167609D01*
X67801538Y-82167609D01*
X67805409Y-82205282D01*
X67897579Y-82430533D01*
X68031922Y-82633474D01*
X68203275Y-82806307D01*
X68268061Y-82850000D01*
X68203275Y-82893693D01*
X68031922Y-83066526D01*
X67897579Y-83269467D01*
X67805409Y-83494718D01*
X67801538Y-83532391D01*
X67926269Y-83723000D01*
X69143000Y-83723000D01*
X69143000Y-81977000D01*
X69397000Y-81977000D01*
X69397000Y-83723000D01*
X70613731Y-83723000D01*
X70738462Y-83532391D01*
X70737655Y-83524529D01*
X105661468Y-83524529D01*
X105661468Y-83728407D01*
X105701242Y-83928366D01*
X105779263Y-84116724D01*
X105892531Y-84286242D01*
X106036694Y-84430405D01*
X106206212Y-84543673D01*
X106394570Y-84621694D01*
X106594529Y-84661468D01*
X106798407Y-84661468D01*
X106998366Y-84621694D01*
X107186724Y-84543673D01*
X107356242Y-84430405D01*
X107500405Y-84286242D01*
X107613673Y-84116724D01*
X107691694Y-83928366D01*
X107731468Y-83728407D01*
X107731468Y-83524529D01*
X107691694Y-83324570D01*
X107613673Y-83136212D01*
X107500405Y-82966694D01*
X107356242Y-82822531D01*
X107186724Y-82709263D01*
X106998366Y-82631242D01*
X106798407Y-82591468D01*
X106594529Y-82591468D01*
X106394570Y-82631242D01*
X106206212Y-82709263D01*
X106036694Y-82822531D01*
X105892531Y-82966694D01*
X105779263Y-83136212D01*
X105701242Y-83324570D01*
X105661468Y-83524529D01*
X70737655Y-83524529D01*
X70734591Y-83494718D01*
X70642421Y-83269467D01*
X70508078Y-83066526D01*
X70336725Y-82893693D01*
X70271939Y-82850000D01*
X70336725Y-82806307D01*
X70508078Y-82633474D01*
X70642421Y-82430533D01*
X70734591Y-82205282D01*
X70738462Y-82167609D01*
X70613731Y-81977000D01*
X69397000Y-81977000D01*
X69143000Y-81977000D01*
X67926269Y-81977000D01*
X67801538Y-82167609D01*
X66675000Y-82167609D01*
X66675000Y-77850000D01*
X67754025Y-77850000D01*
X67777870Y-78092102D01*
X67848489Y-78324901D01*
X67963167Y-78539449D01*
X68117498Y-78727502D01*
X68266762Y-78850000D01*
X68117498Y-78972498D01*
X67963167Y-79160551D01*
X67848489Y-79375099D01*
X67777870Y-79607898D01*
X67754025Y-79850000D01*
X67777870Y-80092102D01*
X67848489Y-80324901D01*
X67963167Y-80539449D01*
X68117498Y-80727502D01*
X68267348Y-80850481D01*
X68203275Y-80893693D01*
X68031922Y-81066526D01*
X67897579Y-81269467D01*
X67805409Y-81494718D01*
X67801538Y-81532391D01*
X67926269Y-81723000D01*
X69143000Y-81723000D01*
X69143000Y-81703000D01*
X69397000Y-81703000D01*
X69397000Y-81723000D01*
X70613731Y-81723000D01*
X70655633Y-81658967D01*
X72325000Y-81658967D01*
X72325000Y-81981033D01*
X72387832Y-82296912D01*
X72511082Y-82594463D01*
X72690013Y-82862252D01*
X72917748Y-83089987D01*
X73185537Y-83268918D01*
X73483088Y-83392168D01*
X73798967Y-83455000D01*
X74121033Y-83455000D01*
X74436912Y-83392168D01*
X74734463Y-83268918D01*
X75002252Y-83089987D01*
X75136826Y-82955413D01*
X78084192Y-82955413D01*
X78179956Y-83219814D01*
X78469571Y-83360704D01*
X78781108Y-83442384D01*
X79102595Y-83461718D01*
X79421675Y-83417961D01*
X79726088Y-83312795D01*
X79900044Y-83219814D01*
X79995808Y-82955413D01*
X79040000Y-81999605D01*
X78084192Y-82955413D01*
X75136826Y-82955413D01*
X75229987Y-82862252D01*
X75408918Y-82594463D01*
X75532168Y-82296912D01*
X75595000Y-81981033D01*
X75595000Y-81882595D01*
X77398282Y-81882595D01*
X77442039Y-82201675D01*
X77547205Y-82506088D01*
X77640186Y-82680044D01*
X77904587Y-82775808D01*
X78860395Y-81820000D01*
X79219605Y-81820000D01*
X80175413Y-82775808D01*
X80237280Y-82753400D01*
X80310013Y-82862252D01*
X80537748Y-83089987D01*
X80805537Y-83268918D01*
X81103088Y-83392168D01*
X81418967Y-83455000D01*
X81741033Y-83455000D01*
X82056912Y-83392168D01*
X82354463Y-83268918D01*
X82622252Y-83089987D01*
X82849987Y-82862252D01*
X82850000Y-82862233D01*
X82850013Y-82862252D01*
X83077748Y-83089987D01*
X83345537Y-83268918D01*
X83643088Y-83392168D01*
X83958967Y-83455000D01*
X84281033Y-83455000D01*
X84596912Y-83392168D01*
X84894463Y-83268918D01*
X85162252Y-83089987D01*
X85389987Y-82862252D01*
X85390000Y-82862233D01*
X85390013Y-82862252D01*
X85617748Y-83089987D01*
X85885537Y-83268918D01*
X86183088Y-83392168D01*
X86498967Y-83455000D01*
X86821033Y-83455000D01*
X87136912Y-83392168D01*
X87434463Y-83268918D01*
X87702252Y-83089987D01*
X87929987Y-82862252D01*
X88108918Y-82594463D01*
X88232168Y-82296912D01*
X88295000Y-81981033D01*
X88295000Y-81658967D01*
X88232168Y-81343088D01*
X88108918Y-81045537D01*
X87929987Y-80777748D01*
X87702252Y-80550013D01*
X87434463Y-80371082D01*
X87136912Y-80247832D01*
X86821033Y-80185000D01*
X86498967Y-80185000D01*
X86183088Y-80247832D01*
X85885537Y-80371082D01*
X85617748Y-80550013D01*
X85390013Y-80777748D01*
X85390000Y-80777767D01*
X85389987Y-80777748D01*
X85162252Y-80550013D01*
X84894463Y-80371082D01*
X84596912Y-80247832D01*
X84281033Y-80185000D01*
X83958967Y-80185000D01*
X83643088Y-80247832D01*
X83345537Y-80371082D01*
X83077748Y-80550013D01*
X82850013Y-80777748D01*
X82850000Y-80777767D01*
X82849987Y-80777748D01*
X82622252Y-80550013D01*
X82354463Y-80371082D01*
X82056912Y-80247832D01*
X81741033Y-80185000D01*
X81418967Y-80185000D01*
X81103088Y-80247832D01*
X80805537Y-80371082D01*
X80537748Y-80550013D01*
X80310013Y-80777748D01*
X80237280Y-80886600D01*
X80175413Y-80864192D01*
X79219605Y-81820000D01*
X78860395Y-81820000D01*
X77904587Y-80864192D01*
X77640186Y-80959956D01*
X77499296Y-81249571D01*
X77417616Y-81561108D01*
X77398282Y-81882595D01*
X75595000Y-81882595D01*
X75595000Y-81658967D01*
X75532168Y-81343088D01*
X75408918Y-81045537D01*
X75229987Y-80777748D01*
X75136826Y-80684587D01*
X78084192Y-80684587D01*
X79040000Y-81640395D01*
X79995808Y-80684587D01*
X79900044Y-80420186D01*
X79610429Y-80279296D01*
X79298892Y-80197616D01*
X78977405Y-80178282D01*
X78658325Y-80222039D01*
X78353912Y-80327205D01*
X78179956Y-80420186D01*
X78084192Y-80684587D01*
X75136826Y-80684587D01*
X75002252Y-80550013D01*
X74734463Y-80371082D01*
X74436912Y-80247832D01*
X74121033Y-80185000D01*
X73798967Y-80185000D01*
X73483088Y-80247832D01*
X73185537Y-80371082D01*
X72917748Y-80550013D01*
X72690013Y-80777748D01*
X72511082Y-81045537D01*
X72387832Y-81343088D01*
X72325000Y-81658967D01*
X70655633Y-81658967D01*
X70738462Y-81532391D01*
X70734591Y-81494718D01*
X70642421Y-81269467D01*
X70508078Y-81066526D01*
X70336725Y-80893693D01*
X70272652Y-80850481D01*
X70422502Y-80727502D01*
X70576833Y-80539449D01*
X70691511Y-80324901D01*
X70762130Y-80092102D01*
X70785975Y-79850000D01*
X70762130Y-79607898D01*
X70691511Y-79375099D01*
X70576833Y-79160551D01*
X70422502Y-78972498D01*
X70273238Y-78850000D01*
X70422502Y-78727502D01*
X70576833Y-78539449D01*
X70691511Y-78324901D01*
X70762130Y-78092102D01*
X70785975Y-77850000D01*
X70762130Y-77607898D01*
X70756701Y-77590000D01*
X75599388Y-77590000D01*
X75621785Y-77817400D01*
X75685093Y-78026098D01*
X75650498Y-78090820D01*
X75614188Y-78210518D01*
X75601928Y-78335000D01*
X75601928Y-79385000D01*
X75614188Y-79509482D01*
X75650498Y-79629180D01*
X75709463Y-79739494D01*
X75788815Y-79836185D01*
X75885506Y-79915537D01*
X75995820Y-79974502D01*
X76115518Y-80010812D01*
X76240000Y-80023072D01*
X77740000Y-80023072D01*
X77864482Y-80010812D01*
X77984180Y-79974502D01*
X78094494Y-79915537D01*
X78191185Y-79836185D01*
X78270537Y-79739494D01*
X78329502Y-79629180D01*
X78365812Y-79509482D01*
X78378072Y-79385000D01*
X78378072Y-78335000D01*
X78365812Y-78210518D01*
X78329502Y-78090820D01*
X78294907Y-78026098D01*
X78358215Y-77817400D01*
X78377854Y-77618000D01*
X84799388Y-77618000D01*
X84821785Y-77845400D01*
X84885093Y-78054098D01*
X84850498Y-78118820D01*
X84814188Y-78238518D01*
X84801928Y-78363000D01*
X84801928Y-79413000D01*
X84814188Y-79537482D01*
X84850498Y-79657180D01*
X84909463Y-79767494D01*
X84988815Y-79864185D01*
X85085506Y-79943537D01*
X85195820Y-80002502D01*
X85315518Y-80038812D01*
X85440000Y-80051072D01*
X86940000Y-80051072D01*
X87064482Y-80038812D01*
X87184180Y-80002502D01*
X87294494Y-79943537D01*
X87391185Y-79864185D01*
X87470537Y-79767494D01*
X87529502Y-79657180D01*
X87565812Y-79537482D01*
X87578072Y-79413000D01*
X87578072Y-78363000D01*
X87565812Y-78238518D01*
X87529502Y-78118820D01*
X87494907Y-78054098D01*
X87558215Y-77845400D01*
X87580612Y-77618000D01*
X87558215Y-77390600D01*
X87491885Y-77171940D01*
X87391071Y-76983331D01*
X87432275Y-76924882D01*
X87525272Y-76715337D01*
X87533964Y-76653810D01*
X87529920Y-76648061D01*
X89295000Y-76648061D01*
X89295000Y-76851939D01*
X89334774Y-77051898D01*
X89412795Y-77240256D01*
X89422647Y-77255000D01*
X89412795Y-77269744D01*
X89334774Y-77458102D01*
X89295000Y-77658061D01*
X89295000Y-77861939D01*
X89334774Y-78061898D01*
X89412795Y-78250256D01*
X89422647Y-78265000D01*
X89412795Y-78279744D01*
X89334774Y-78468102D01*
X89295000Y-78668061D01*
X89295000Y-78871939D01*
X89334774Y-79071898D01*
X89412795Y-79260256D01*
X89422647Y-79275000D01*
X89412795Y-79289744D01*
X89334774Y-79478102D01*
X89295000Y-79678061D01*
X89295000Y-79881939D01*
X89334774Y-80081898D01*
X89412795Y-80270256D01*
X89526063Y-80439774D01*
X89670226Y-80583937D01*
X89839744Y-80697205D01*
X90028102Y-80775226D01*
X90228061Y-80815000D01*
X90431939Y-80815000D01*
X90631898Y-80775226D01*
X90820256Y-80697205D01*
X90989774Y-80583937D01*
X91133937Y-80439774D01*
X91247205Y-80270256D01*
X91325226Y-80081898D01*
X91365000Y-79881939D01*
X91365000Y-79678061D01*
X91325226Y-79478102D01*
X91247205Y-79289744D01*
X91237353Y-79275000D01*
X91247205Y-79260256D01*
X91325226Y-79071898D01*
X91365000Y-78871939D01*
X91365000Y-78668061D01*
X91325226Y-78468102D01*
X91247205Y-78279744D01*
X91237353Y-78265000D01*
X91247205Y-78250256D01*
X91325226Y-78061898D01*
X91365000Y-77861939D01*
X91365000Y-77658061D01*
X91325226Y-77458102D01*
X91312783Y-77428061D01*
X92705000Y-77428061D01*
X92705000Y-77631939D01*
X92744774Y-77831898D01*
X92822795Y-78020256D01*
X92936063Y-78189774D01*
X93080226Y-78333937D01*
X93249744Y-78447205D01*
X93438102Y-78525226D01*
X93638061Y-78565000D01*
X93841939Y-78565000D01*
X94041898Y-78525226D01*
X94230256Y-78447205D01*
X94399774Y-78333937D01*
X94543937Y-78189774D01*
X94657205Y-78020256D01*
X94735226Y-77831898D01*
X94775000Y-77631939D01*
X94775000Y-77428061D01*
X94735226Y-77228102D01*
X94693788Y-77128061D01*
X103255000Y-77128061D01*
X103255000Y-77331939D01*
X103294774Y-77531898D01*
X103345765Y-77655000D01*
X103294774Y-77778102D01*
X103255000Y-77978061D01*
X103255000Y-78181939D01*
X103294774Y-78381898D01*
X103347836Y-78510000D01*
X103294774Y-78638102D01*
X103255000Y-78838061D01*
X103255000Y-79041939D01*
X103294774Y-79241898D01*
X103372795Y-79430256D01*
X103486063Y-79599774D01*
X103630226Y-79743937D01*
X103799744Y-79857205D01*
X103988102Y-79935226D01*
X104188061Y-79975000D01*
X104391939Y-79975000D01*
X104591898Y-79935226D01*
X104780256Y-79857205D01*
X104949774Y-79743937D01*
X105093937Y-79599774D01*
X105207205Y-79430256D01*
X105285226Y-79241898D01*
X105325000Y-79041939D01*
X105325000Y-78838061D01*
X105285226Y-78638102D01*
X105232164Y-78510000D01*
X105285226Y-78381898D01*
X105325000Y-78181939D01*
X105325000Y-77978061D01*
X105310263Y-77903974D01*
X105390226Y-77983937D01*
X105559744Y-78097205D01*
X105748102Y-78175226D01*
X105948061Y-78215000D01*
X106151939Y-78215000D01*
X106351898Y-78175226D01*
X106540256Y-78097205D01*
X106709774Y-77983937D01*
X106853937Y-77839774D01*
X106967205Y-77670256D01*
X107045226Y-77481898D01*
X107085000Y-77281939D01*
X107085000Y-77078061D01*
X107045226Y-76878102D01*
X106967205Y-76689744D01*
X106853937Y-76520226D01*
X106709774Y-76376063D01*
X106540256Y-76262795D01*
X106351898Y-76184774D01*
X106151939Y-76145000D01*
X105948061Y-76145000D01*
X105748102Y-76184774D01*
X105559744Y-76262795D01*
X105390226Y-76376063D01*
X105246063Y-76520226D01*
X105153296Y-76659063D01*
X105093937Y-76570226D01*
X104949774Y-76426063D01*
X104780256Y-76312795D01*
X104591898Y-76234774D01*
X104391939Y-76195000D01*
X104188061Y-76195000D01*
X103988102Y-76234774D01*
X103799744Y-76312795D01*
X103630226Y-76426063D01*
X103486063Y-76570226D01*
X103372795Y-76739744D01*
X103294774Y-76928102D01*
X103255000Y-77128061D01*
X94693788Y-77128061D01*
X94657205Y-77039744D01*
X94543937Y-76870226D01*
X94399774Y-76726063D01*
X94230256Y-76612795D01*
X94041898Y-76534774D01*
X93841939Y-76495000D01*
X93638061Y-76495000D01*
X93438102Y-76534774D01*
X93249744Y-76612795D01*
X93080226Y-76726063D01*
X92936063Y-76870226D01*
X92822795Y-77039744D01*
X92744774Y-77228102D01*
X92705000Y-77428061D01*
X91312783Y-77428061D01*
X91247205Y-77269744D01*
X91237353Y-77255000D01*
X91247205Y-77240256D01*
X91325226Y-77051898D01*
X91365000Y-76851939D01*
X91365000Y-76648061D01*
X91325226Y-76448102D01*
X91247205Y-76259744D01*
X91133937Y-76090226D01*
X91133711Y-76090000D01*
X91143937Y-76079774D01*
X91257205Y-75910256D01*
X91335226Y-75721898D01*
X91375000Y-75521939D01*
X91375000Y-75318061D01*
X91335226Y-75118102D01*
X91257205Y-74929744D01*
X91173854Y-74805000D01*
X91257205Y-74680256D01*
X91335226Y-74491898D01*
X91375000Y-74291939D01*
X91375000Y-74088061D01*
X91335226Y-73888102D01*
X91257205Y-73699744D01*
X91203922Y-73620000D01*
X91257205Y-73540256D01*
X91335226Y-73351898D01*
X91375000Y-73151939D01*
X91375000Y-72948061D01*
X91367044Y-72908061D01*
X92935000Y-72908061D01*
X92935000Y-73111939D01*
X92974774Y-73311898D01*
X93038191Y-73465000D01*
X92974774Y-73618102D01*
X92935000Y-73818061D01*
X92935000Y-74021939D01*
X92974774Y-74221898D01*
X93052795Y-74410256D01*
X93166063Y-74579774D01*
X93310226Y-74723937D01*
X93479744Y-74837205D01*
X93668102Y-74915226D01*
X93868061Y-74955000D01*
X94071939Y-74955000D01*
X94271898Y-74915226D01*
X94460256Y-74837205D01*
X94629774Y-74723937D01*
X94773937Y-74579774D01*
X94887205Y-74410256D01*
X94965226Y-74221898D01*
X95005000Y-74021939D01*
X95005000Y-73818061D01*
X94965226Y-73618102D01*
X94901809Y-73465000D01*
X94965226Y-73311898D01*
X95005000Y-73111939D01*
X95005000Y-72908061D01*
X94965226Y-72708102D01*
X94887205Y-72519744D01*
X94773937Y-72350226D01*
X94629774Y-72206063D01*
X94460256Y-72092795D01*
X94271898Y-72014774D01*
X94071939Y-71975000D01*
X93868061Y-71975000D01*
X93668102Y-72014774D01*
X93479744Y-72092795D01*
X93310226Y-72206063D01*
X93166063Y-72350226D01*
X93052795Y-72519744D01*
X92974774Y-72708102D01*
X92935000Y-72908061D01*
X91367044Y-72908061D01*
X91335226Y-72748102D01*
X91257205Y-72559744D01*
X91143937Y-72390226D01*
X90999774Y-72246063D01*
X90830256Y-72132795D01*
X90641898Y-72054774D01*
X90441939Y-72015000D01*
X90238061Y-72015000D01*
X90038102Y-72054774D01*
X89849744Y-72132795D01*
X89680226Y-72246063D01*
X89536063Y-72390226D01*
X89422795Y-72559744D01*
X89344774Y-72748102D01*
X89305000Y-72948061D01*
X89305000Y-73151939D01*
X89344774Y-73351898D01*
X89422795Y-73540256D01*
X89476078Y-73620000D01*
X89422795Y-73699744D01*
X89344774Y-73888102D01*
X89305000Y-74088061D01*
X89305000Y-74291939D01*
X89344774Y-74491898D01*
X89422795Y-74680256D01*
X89506146Y-74805000D01*
X89422795Y-74929744D01*
X89344774Y-75118102D01*
X89305000Y-75318061D01*
X89305000Y-75521939D01*
X89344774Y-75721898D01*
X89422795Y-75910256D01*
X89536063Y-76079774D01*
X89536289Y-76080000D01*
X89526063Y-76090226D01*
X89412795Y-76259744D01*
X89334774Y-76448102D01*
X89295000Y-76648061D01*
X87529920Y-76648061D01*
X87408163Y-76475000D01*
X86643109Y-76475000D01*
X86642400Y-76474785D01*
X86471979Y-76458000D01*
X85908021Y-76458000D01*
X85737600Y-76474785D01*
X85736891Y-76475000D01*
X84971837Y-76475000D01*
X84846036Y-76653810D01*
X84854728Y-76715337D01*
X84947725Y-76924882D01*
X84988929Y-76983331D01*
X84888115Y-77171940D01*
X84821785Y-77390600D01*
X84799388Y-77618000D01*
X78377854Y-77618000D01*
X78380612Y-77590000D01*
X78358215Y-77362600D01*
X78291885Y-77143940D01*
X78191071Y-76955331D01*
X78232275Y-76896882D01*
X78325272Y-76687337D01*
X78333964Y-76625810D01*
X78208163Y-76447000D01*
X77443109Y-76447000D01*
X77442400Y-76446785D01*
X77271979Y-76430000D01*
X76708021Y-76430000D01*
X76537600Y-76446785D01*
X76536891Y-76447000D01*
X75771837Y-76447000D01*
X75646036Y-76625810D01*
X75654728Y-76687337D01*
X75747725Y-76896882D01*
X75788929Y-76955331D01*
X75688115Y-77143940D01*
X75621785Y-77362600D01*
X75599388Y-77590000D01*
X70756701Y-77590000D01*
X70691511Y-77375099D01*
X70576833Y-77160551D01*
X70450564Y-77006691D01*
X70499494Y-76980537D01*
X70596185Y-76901185D01*
X70675537Y-76804494D01*
X70734502Y-76694180D01*
X70770812Y-76574482D01*
X70783072Y-76450000D01*
X70780000Y-76135750D01*
X70658440Y-76014190D01*
X75646036Y-76014190D01*
X75771837Y-76193000D01*
X76863000Y-76193000D01*
X76863000Y-75313402D01*
X77117000Y-75313402D01*
X77117000Y-76193000D01*
X78208163Y-76193000D01*
X78314264Y-76042190D01*
X84846036Y-76042190D01*
X84971837Y-76221000D01*
X86063000Y-76221000D01*
X86063000Y-75341402D01*
X86317000Y-75341402D01*
X86317000Y-76221000D01*
X87408163Y-76221000D01*
X87533964Y-76042190D01*
X87525272Y-75980663D01*
X87432275Y-75771118D01*
X87300184Y-75583742D01*
X87134076Y-75425736D01*
X86940334Y-75303172D01*
X86726404Y-75220761D01*
X86500507Y-75181669D01*
X86317000Y-75341402D01*
X86063000Y-75341402D01*
X85879493Y-75181669D01*
X85653596Y-75220761D01*
X85439666Y-75303172D01*
X85245924Y-75425736D01*
X85079816Y-75583742D01*
X84947725Y-75771118D01*
X84854728Y-75980663D01*
X84846036Y-76042190D01*
X78314264Y-76042190D01*
X78333964Y-76014190D01*
X78325272Y-75952663D01*
X78232275Y-75743118D01*
X78100184Y-75555742D01*
X77934076Y-75397736D01*
X77740334Y-75275172D01*
X77526404Y-75192761D01*
X77300507Y-75153669D01*
X77117000Y-75313402D01*
X76863000Y-75313402D01*
X76679493Y-75153669D01*
X76453596Y-75192761D01*
X76239666Y-75275172D01*
X76045924Y-75397736D01*
X75879816Y-75555742D01*
X75747725Y-75743118D01*
X75654728Y-75952663D01*
X75646036Y-76014190D01*
X70658440Y-76014190D01*
X70621250Y-75977000D01*
X69397000Y-75977000D01*
X69397000Y-75997000D01*
X69143000Y-75997000D01*
X69143000Y-75977000D01*
X67918750Y-75977000D01*
X67760000Y-76135750D01*
X67756928Y-76450000D01*
X67769188Y-76574482D01*
X67805498Y-76694180D01*
X67864463Y-76804494D01*
X67943815Y-76901185D01*
X68040506Y-76980537D01*
X68089436Y-77006691D01*
X67963167Y-77160551D01*
X67848489Y-77375099D01*
X67777870Y-77607898D01*
X67754025Y-77850000D01*
X66675000Y-77850000D01*
X66675000Y-75250000D01*
X67756928Y-75250000D01*
X67760000Y-75564250D01*
X67918750Y-75723000D01*
X69143000Y-75723000D01*
X69143000Y-74773750D01*
X69397000Y-74773750D01*
X69397000Y-75723000D01*
X70621250Y-75723000D01*
X70780000Y-75564250D01*
X70783072Y-75250000D01*
X70770812Y-75125518D01*
X70734502Y-75005820D01*
X70675537Y-74895506D01*
X70596185Y-74798815D01*
X70499494Y-74719463D01*
X70389180Y-74660498D01*
X70269482Y-74624188D01*
X70145000Y-74611928D01*
X69555750Y-74615000D01*
X69397000Y-74773750D01*
X69143000Y-74773750D01*
X68984250Y-74615000D01*
X68395000Y-74611928D01*
X68270518Y-74624188D01*
X68150820Y-74660498D01*
X68040506Y-74719463D01*
X67943815Y-74798815D01*
X67864463Y-74895506D01*
X67805498Y-75005820D01*
X67769188Y-75125518D01*
X67756928Y-75250000D01*
X66675000Y-75250000D01*
X66675000Y-71404967D01*
X67697000Y-71404967D01*
X67697000Y-71727033D01*
X67759832Y-72042912D01*
X67883082Y-72340463D01*
X68062013Y-72608252D01*
X68289748Y-72835987D01*
X68557537Y-73014918D01*
X68855088Y-73138168D01*
X69170967Y-73201000D01*
X69493033Y-73201000D01*
X69808912Y-73138168D01*
X70106463Y-73014918D01*
X70374252Y-72835987D01*
X70601987Y-72608252D01*
X70602000Y-72608233D01*
X70602013Y-72608252D01*
X70829748Y-72835987D01*
X71097537Y-73014918D01*
X71395088Y-73138168D01*
X71710967Y-73201000D01*
X72033033Y-73201000D01*
X72348912Y-73138168D01*
X72646463Y-73014918D01*
X72914252Y-72835987D01*
X73141987Y-72608252D01*
X73142000Y-72608233D01*
X73142013Y-72608252D01*
X73369748Y-72835987D01*
X73637537Y-73014918D01*
X73935088Y-73138168D01*
X74250967Y-73201000D01*
X74573033Y-73201000D01*
X74888912Y-73138168D01*
X75186463Y-73014918D01*
X75454252Y-72835987D01*
X75681987Y-72608252D01*
X75682000Y-72608233D01*
X75682013Y-72608252D01*
X75909748Y-72835987D01*
X76177537Y-73014918D01*
X76475088Y-73138168D01*
X76790967Y-73201000D01*
X77113033Y-73201000D01*
X77428912Y-73138168D01*
X77726463Y-73014918D01*
X77994252Y-72835987D01*
X78221987Y-72608252D01*
X78222000Y-72608233D01*
X78222013Y-72608252D01*
X78449748Y-72835987D01*
X78717537Y-73014918D01*
X79015088Y-73138168D01*
X79330967Y-73201000D01*
X79653033Y-73201000D01*
X79968912Y-73138168D01*
X80266463Y-73014918D01*
X80534252Y-72835987D01*
X80761987Y-72608252D01*
X80762000Y-72608233D01*
X80762013Y-72608252D01*
X80989748Y-72835987D01*
X81257537Y-73014918D01*
X81555088Y-73138168D01*
X81870967Y-73201000D01*
X82193033Y-73201000D01*
X82508912Y-73138168D01*
X82806463Y-73014918D01*
X83074252Y-72835987D01*
X83301987Y-72608252D01*
X83302000Y-72608233D01*
X83302013Y-72608252D01*
X83529748Y-72835987D01*
X83797537Y-73014918D01*
X84095088Y-73138168D01*
X84410967Y-73201000D01*
X84733033Y-73201000D01*
X85048912Y-73138168D01*
X85346463Y-73014918D01*
X85614252Y-72835987D01*
X85841987Y-72608252D01*
X85842000Y-72608233D01*
X85842013Y-72608252D01*
X86069748Y-72835987D01*
X86337537Y-73014918D01*
X86635088Y-73138168D01*
X86950967Y-73201000D01*
X87273033Y-73201000D01*
X87588912Y-73138168D01*
X87886463Y-73014918D01*
X88154252Y-72835987D01*
X88381987Y-72608252D01*
X88560918Y-72340463D01*
X88684168Y-72042912D01*
X88747000Y-71727033D01*
X88747000Y-71404967D01*
X88684168Y-71089088D01*
X88560918Y-70791537D01*
X88381987Y-70523748D01*
X88154252Y-70296013D01*
X87886463Y-70117082D01*
X87588912Y-69993832D01*
X87273033Y-69931000D01*
X86950967Y-69931000D01*
X86635088Y-69993832D01*
X86337537Y-70117082D01*
X86069748Y-70296013D01*
X85842013Y-70523748D01*
X85842000Y-70523767D01*
X85841987Y-70523748D01*
X85614252Y-70296013D01*
X85346463Y-70117082D01*
X85048912Y-69993832D01*
X84733033Y-69931000D01*
X84410967Y-69931000D01*
X84095088Y-69993832D01*
X83797537Y-70117082D01*
X83529748Y-70296013D01*
X83302013Y-70523748D01*
X83302000Y-70523767D01*
X83301987Y-70523748D01*
X83074252Y-70296013D01*
X82806463Y-70117082D01*
X82508912Y-69993832D01*
X82193033Y-69931000D01*
X81870967Y-69931000D01*
X81555088Y-69993832D01*
X81257537Y-70117082D01*
X80989748Y-70296013D01*
X80762013Y-70523748D01*
X80762000Y-70523767D01*
X80761987Y-70523748D01*
X80534252Y-70296013D01*
X80266463Y-70117082D01*
X79968912Y-69993832D01*
X79653033Y-69931000D01*
X79330967Y-69931000D01*
X79015088Y-69993832D01*
X78717537Y-70117082D01*
X78449748Y-70296013D01*
X78222013Y-70523748D01*
X78222000Y-70523767D01*
X78221987Y-70523748D01*
X77994252Y-70296013D01*
X77726463Y-70117082D01*
X77428912Y-69993832D01*
X77113033Y-69931000D01*
X76790967Y-69931000D01*
X76475088Y-69993832D01*
X76177537Y-70117082D01*
X75909748Y-70296013D01*
X75682013Y-70523748D01*
X75682000Y-70523767D01*
X75681987Y-70523748D01*
X75454252Y-70296013D01*
X75186463Y-70117082D01*
X74888912Y-69993832D01*
X74573033Y-69931000D01*
X74250967Y-69931000D01*
X73935088Y-69993832D01*
X73637537Y-70117082D01*
X73369748Y-70296013D01*
X73142013Y-70523748D01*
X73142000Y-70523767D01*
X73141987Y-70523748D01*
X72914252Y-70296013D01*
X72646463Y-70117082D01*
X72348912Y-69993832D01*
X72033033Y-69931000D01*
X71710967Y-69931000D01*
X71395088Y-69993832D01*
X71097537Y-70117082D01*
X70829748Y-70296013D01*
X70602013Y-70523748D01*
X70602000Y-70523767D01*
X70601987Y-70523748D01*
X70374252Y-70296013D01*
X70106463Y-70117082D01*
X69808912Y-69993832D01*
X69493033Y-69931000D01*
X69170967Y-69931000D01*
X68855088Y-69993832D01*
X68557537Y-70117082D01*
X68289748Y-70296013D01*
X68062013Y-70523748D01*
X67883082Y-70791537D01*
X67759832Y-71089088D01*
X67697000Y-71404967D01*
X66675000Y-71404967D01*
X66675000Y-65408061D01*
X108845000Y-65408061D01*
X108845000Y-65611939D01*
X108884774Y-65811898D01*
X108962795Y-66000256D01*
X109076063Y-66169774D01*
X109096289Y-66190000D01*
X109076063Y-66210226D01*
X108962795Y-66379744D01*
X108884774Y-66568102D01*
X108845000Y-66768061D01*
X108845000Y-66971939D01*
X108884774Y-67171898D01*
X108962795Y-67360256D01*
X109076063Y-67529774D01*
X109220226Y-67673937D01*
X109389744Y-67787205D01*
X109578102Y-67865226D01*
X109778061Y-67905000D01*
X109981939Y-67905000D01*
X110181898Y-67865226D01*
X110370256Y-67787205D01*
X110539774Y-67673937D01*
X110683937Y-67529774D01*
X110797205Y-67360256D01*
X110875226Y-67171898D01*
X110915000Y-66971939D01*
X110915000Y-66768061D01*
X110875226Y-66568102D01*
X110797205Y-66379744D01*
X110683937Y-66210226D01*
X110663711Y-66190000D01*
X110683937Y-66169774D01*
X110797205Y-66000256D01*
X110875226Y-65811898D01*
X110915000Y-65611939D01*
X110915000Y-65408061D01*
X110875226Y-65208102D01*
X110797205Y-65019744D01*
X110683937Y-64850226D01*
X110539774Y-64706063D01*
X110370256Y-64592795D01*
X110181898Y-64514774D01*
X109981939Y-64475000D01*
X109778061Y-64475000D01*
X109578102Y-64514774D01*
X109389744Y-64592795D01*
X109220226Y-64706063D01*
X109076063Y-64850226D01*
X108962795Y-65019744D01*
X108884774Y-65208102D01*
X108845000Y-65408061D01*
X66675000Y-65408061D01*
X66675000Y-60001413D01*
X68376192Y-60001413D01*
X68471956Y-60265814D01*
X68761571Y-60406704D01*
X69073108Y-60488384D01*
X69394595Y-60507718D01*
X69713675Y-60463961D01*
X70018088Y-60358795D01*
X70192044Y-60265814D01*
X70287808Y-60001413D01*
X69332000Y-59045605D01*
X68376192Y-60001413D01*
X66675000Y-60001413D01*
X66675000Y-58928595D01*
X67690282Y-58928595D01*
X67734039Y-59247675D01*
X67839205Y-59552088D01*
X67932186Y-59726044D01*
X68196587Y-59821808D01*
X69152395Y-58866000D01*
X69511605Y-58866000D01*
X70467413Y-59821808D01*
X70529280Y-59799400D01*
X70602013Y-59908252D01*
X70829748Y-60135987D01*
X71097537Y-60314918D01*
X71395088Y-60438168D01*
X71710967Y-60501000D01*
X72033033Y-60501000D01*
X72348912Y-60438168D01*
X72646463Y-60314918D01*
X72914252Y-60135987D01*
X73141987Y-59908252D01*
X73142000Y-59908233D01*
X73142013Y-59908252D01*
X73369748Y-60135987D01*
X73637537Y-60314918D01*
X73935088Y-60438168D01*
X74250967Y-60501000D01*
X74573033Y-60501000D01*
X74888912Y-60438168D01*
X75186463Y-60314918D01*
X75454252Y-60135987D01*
X75681987Y-59908252D01*
X75682000Y-59908233D01*
X75682013Y-59908252D01*
X75909748Y-60135987D01*
X76177537Y-60314918D01*
X76475088Y-60438168D01*
X76790967Y-60501000D01*
X77113033Y-60501000D01*
X77428912Y-60438168D01*
X77726463Y-60314918D01*
X77994252Y-60135987D01*
X78221987Y-59908252D01*
X78222000Y-59908233D01*
X78222013Y-59908252D01*
X78449748Y-60135987D01*
X78717537Y-60314918D01*
X79015088Y-60438168D01*
X79330967Y-60501000D01*
X79653033Y-60501000D01*
X79968912Y-60438168D01*
X80266463Y-60314918D01*
X80534252Y-60135987D01*
X80761987Y-59908252D01*
X80762000Y-59908233D01*
X80762013Y-59908252D01*
X80989748Y-60135987D01*
X81257537Y-60314918D01*
X81555088Y-60438168D01*
X81870967Y-60501000D01*
X82193033Y-60501000D01*
X82508912Y-60438168D01*
X82806463Y-60314918D01*
X83074252Y-60135987D01*
X83208826Y-60001413D01*
X83616192Y-60001413D01*
X83711956Y-60265814D01*
X84001571Y-60406704D01*
X84313108Y-60488384D01*
X84634595Y-60507718D01*
X84953675Y-60463961D01*
X85258088Y-60358795D01*
X85432044Y-60265814D01*
X85527808Y-60001413D01*
X84572000Y-59045605D01*
X83616192Y-60001413D01*
X83208826Y-60001413D01*
X83301987Y-59908252D01*
X83374720Y-59799400D01*
X83436587Y-59821808D01*
X84392395Y-58866000D01*
X83436587Y-57910192D01*
X83374720Y-57932600D01*
X83301987Y-57823748D01*
X83208826Y-57730587D01*
X83616192Y-57730587D01*
X84572000Y-58686395D01*
X85527808Y-57730587D01*
X85432044Y-57466186D01*
X85142429Y-57325296D01*
X84830892Y-57243616D01*
X84509405Y-57224282D01*
X84190325Y-57268039D01*
X83885912Y-57373205D01*
X83711956Y-57466186D01*
X83616192Y-57730587D01*
X83208826Y-57730587D01*
X83074252Y-57596013D01*
X82806463Y-57417082D01*
X82508912Y-57293832D01*
X82193033Y-57231000D01*
X81870967Y-57231000D01*
X81555088Y-57293832D01*
X81257537Y-57417082D01*
X80989748Y-57596013D01*
X80762013Y-57823748D01*
X80762000Y-57823767D01*
X80761987Y-57823748D01*
X80534252Y-57596013D01*
X80266463Y-57417082D01*
X79968912Y-57293832D01*
X79653033Y-57231000D01*
X79330967Y-57231000D01*
X79015088Y-57293832D01*
X78717537Y-57417082D01*
X78449748Y-57596013D01*
X78222013Y-57823748D01*
X78222000Y-57823767D01*
X78221987Y-57823748D01*
X77994252Y-57596013D01*
X77726463Y-57417082D01*
X77428912Y-57293832D01*
X77113033Y-57231000D01*
X76790967Y-57231000D01*
X76475088Y-57293832D01*
X76177537Y-57417082D01*
X75909748Y-57596013D01*
X75682013Y-57823748D01*
X75682000Y-57823767D01*
X75681987Y-57823748D01*
X75454252Y-57596013D01*
X75186463Y-57417082D01*
X74888912Y-57293832D01*
X74573033Y-57231000D01*
X74250967Y-57231000D01*
X73935088Y-57293832D01*
X73637537Y-57417082D01*
X73369748Y-57596013D01*
X73142013Y-57823748D01*
X73142000Y-57823767D01*
X73141987Y-57823748D01*
X72914252Y-57596013D01*
X72646463Y-57417082D01*
X72348912Y-57293832D01*
X72033033Y-57231000D01*
X71710967Y-57231000D01*
X71395088Y-57293832D01*
X71097537Y-57417082D01*
X70829748Y-57596013D01*
X70602013Y-57823748D01*
X70529280Y-57932600D01*
X70467413Y-57910192D01*
X69511605Y-58866000D01*
X69152395Y-58866000D01*
X68196587Y-57910192D01*
X67932186Y-58005956D01*
X67791296Y-58295571D01*
X67709616Y-58607108D01*
X67690282Y-58928595D01*
X66675000Y-58928595D01*
X66675000Y-57730587D01*
X68376192Y-57730587D01*
X69332000Y-58686395D01*
X70287808Y-57730587D01*
X70192044Y-57466186D01*
X69902429Y-57325296D01*
X69590892Y-57243616D01*
X69269405Y-57224282D01*
X68950325Y-57268039D01*
X68645912Y-57373205D01*
X68471956Y-57466186D01*
X68376192Y-57730587D01*
X66675000Y-57730587D01*
X66675000Y-54025000D01*
X75658353Y-54025000D01*
X75692000Y-54028314D01*
X75826283Y-54015088D01*
X75955406Y-53975919D01*
X76074407Y-53912312D01*
X76178711Y-53826711D01*
X76264312Y-53722407D01*
X76327919Y-53603406D01*
X76367088Y-53474283D01*
X76377000Y-53373647D01*
X76380314Y-53340000D01*
X76377000Y-53306353D01*
X76377000Y-47180000D01*
X77734025Y-47180000D01*
X77757870Y-47422102D01*
X77828489Y-47654901D01*
X77943167Y-47869449D01*
X78097498Y-48057502D01*
X78246762Y-48180000D01*
X78097498Y-48302498D01*
X77943167Y-48490551D01*
X77828489Y-48705099D01*
X77757870Y-48937898D01*
X77734025Y-49180000D01*
X77757870Y-49422102D01*
X77828489Y-49654901D01*
X77943167Y-49869449D01*
X78097498Y-50057502D01*
X78246762Y-50180000D01*
X78097498Y-50302498D01*
X77943167Y-50490551D01*
X77828489Y-50705099D01*
X77757870Y-50937898D01*
X77734025Y-51180000D01*
X77757870Y-51422102D01*
X77828489Y-51654901D01*
X77943167Y-51869449D01*
X78097498Y-52057502D01*
X78285551Y-52211833D01*
X78500099Y-52326511D01*
X78732898Y-52397130D01*
X78914335Y-52415000D01*
X79585665Y-52415000D01*
X79767102Y-52397130D01*
X79999901Y-52326511D01*
X80214449Y-52211833D01*
X80402502Y-52057502D01*
X80556833Y-51869449D01*
X80671511Y-51654901D01*
X80742130Y-51422102D01*
X80765975Y-51180000D01*
X80742130Y-50937898D01*
X80671511Y-50705099D01*
X80556833Y-50490551D01*
X80402502Y-50302498D01*
X80253238Y-50180000D01*
X80402502Y-50057502D01*
X80556833Y-49869449D01*
X80671511Y-49654901D01*
X80742130Y-49422102D01*
X80765975Y-49180000D01*
X80742130Y-48937898D01*
X80671511Y-48705099D01*
X80556833Y-48490551D01*
X80402502Y-48302498D01*
X80253238Y-48180000D01*
X80402502Y-48057502D01*
X80556833Y-47869449D01*
X80671511Y-47654901D01*
X80742130Y-47422102D01*
X80765975Y-47180000D01*
X80742130Y-46937898D01*
X80671511Y-46705099D01*
X80556833Y-46490551D01*
X80402502Y-46302498D01*
X80363889Y-46270809D01*
X80368387Y-46268405D01*
X80502962Y-46157962D01*
X80613405Y-46023387D01*
X80695472Y-45869851D01*
X80746008Y-45703255D01*
X80763072Y-45530001D01*
X80763072Y-44829999D01*
X80746008Y-44656745D01*
X80695472Y-44490149D01*
X80613405Y-44336613D01*
X80502962Y-44202038D01*
X80368387Y-44091595D01*
X80214851Y-44009528D01*
X80048255Y-43958992D01*
X79875001Y-43941928D01*
X78624999Y-43941928D01*
X78451745Y-43958992D01*
X78285149Y-44009528D01*
X78131613Y-44091595D01*
X77997038Y-44202038D01*
X77886595Y-44336613D01*
X77804528Y-44490149D01*
X77753992Y-44656745D01*
X77736928Y-44829999D01*
X77736928Y-45530001D01*
X77753992Y-45703255D01*
X77804528Y-45869851D01*
X77886595Y-46023387D01*
X77997038Y-46157962D01*
X78131613Y-46268405D01*
X78136111Y-46270809D01*
X78097498Y-46302498D01*
X77943167Y-46490551D01*
X77828489Y-46705099D01*
X77757870Y-46937898D01*
X77734025Y-47180000D01*
X76377000Y-47180000D01*
X76377000Y-43025763D01*
X84777102Y-43025763D01*
X84777102Y-43367529D01*
X84843777Y-43702727D01*
X84974565Y-44018477D01*
X85164439Y-44302644D01*
X85406104Y-44544309D01*
X85690271Y-44734183D01*
X86006021Y-44864971D01*
X86341219Y-44931646D01*
X86682985Y-44931646D01*
X87018183Y-44864971D01*
X87333933Y-44734183D01*
X87618100Y-44544309D01*
X87859765Y-44302644D01*
X88049639Y-44018477D01*
X88180427Y-43702727D01*
X88247102Y-43367529D01*
X88247102Y-43025763D01*
X88180427Y-42690565D01*
X88049639Y-42374815D01*
X87859765Y-42090648D01*
X87618100Y-41848983D01*
X87333933Y-41659109D01*
X87018183Y-41528321D01*
X86682985Y-41461646D01*
X86341219Y-41461646D01*
X86006021Y-41528321D01*
X85690271Y-41659109D01*
X85406104Y-41848983D01*
X85164439Y-42090648D01*
X84974565Y-42374815D01*
X84843777Y-42690565D01*
X84777102Y-43025763D01*
X76377000Y-43025763D01*
X76377000Y-40816961D01*
X88457975Y-40816295D01*
X88425714Y-57889190D01*
G37*
X88425714Y-57889190D02*
X88381987Y-57823748D01*
X88154252Y-57596013D01*
X87886463Y-57417082D01*
X87588912Y-57293832D01*
X87273033Y-57231000D01*
X86950967Y-57231000D01*
X86635088Y-57293832D01*
X86337537Y-57417082D01*
X86069748Y-57596013D01*
X85842013Y-57823748D01*
X85769280Y-57932600D01*
X85707413Y-57910192D01*
X84751605Y-58866000D01*
X85707413Y-59821808D01*
X85769280Y-59799400D01*
X85842013Y-59908252D01*
X86069748Y-60135987D01*
X86337537Y-60314918D01*
X86635088Y-60438168D01*
X86950967Y-60501000D01*
X87273033Y-60501000D01*
X87588912Y-60438168D01*
X87886463Y-60314918D01*
X88154252Y-60135987D01*
X88381987Y-59908252D01*
X88422012Y-59848350D01*
X88421834Y-59942559D01*
X88424228Y-59967340D01*
X88431410Y-59991178D01*
X88443104Y-60013157D01*
X88458862Y-60032432D01*
X88478077Y-60048262D01*
X88500012Y-60060040D01*
X88523822Y-60067312D01*
X88549482Y-60069797D01*
X98421967Y-60019448D01*
X98389744Y-60032795D01*
X98220226Y-60146063D01*
X98076063Y-60290226D01*
X97962795Y-60459744D01*
X97884774Y-60648102D01*
X97845000Y-60848061D01*
X97845000Y-61051939D01*
X97884774Y-61251898D01*
X97960618Y-61435000D01*
X97884774Y-61618102D01*
X97845000Y-61818061D01*
X97845000Y-62021939D01*
X97884774Y-62221898D01*
X97962795Y-62410256D01*
X97992692Y-62455000D01*
X97962795Y-62499744D01*
X97884774Y-62688102D01*
X97845000Y-62888061D01*
X97845000Y-63091939D01*
X97884774Y-63291898D01*
X97962795Y-63480256D01*
X98076063Y-63649774D01*
X98220226Y-63793937D01*
X98389744Y-63907205D01*
X98578102Y-63985226D01*
X98778061Y-64025000D01*
X98981939Y-64025000D01*
X99181898Y-63985226D01*
X99370256Y-63907205D01*
X99539774Y-63793937D01*
X99683937Y-63649774D01*
X99797205Y-63480256D01*
X99875226Y-63291898D01*
X99915000Y-63091939D01*
X99915000Y-62888061D01*
X99875226Y-62688102D01*
X99797205Y-62499744D01*
X99767308Y-62455000D01*
X99797205Y-62410256D01*
X99875226Y-62221898D01*
X99915000Y-62021939D01*
X99915000Y-61818061D01*
X99875226Y-61618102D01*
X99825503Y-61498061D01*
X107015000Y-61498061D01*
X107015000Y-61701939D01*
X107054774Y-61901898D01*
X107132795Y-62090256D01*
X107246063Y-62259774D01*
X107390226Y-62403937D01*
X107559744Y-62517205D01*
X107748102Y-62595226D01*
X107948061Y-62635000D01*
X108151939Y-62635000D01*
X108351898Y-62595226D01*
X108540256Y-62517205D01*
X108709774Y-62403937D01*
X108853937Y-62259774D01*
X108967205Y-62090256D01*
X109045226Y-61901898D01*
X109085000Y-61701939D01*
X109085000Y-61498061D01*
X109045226Y-61298102D01*
X108985218Y-61153230D01*
X108987205Y-61150256D01*
X109065226Y-60961898D01*
X109105000Y-60761939D01*
X109105000Y-60558061D01*
X109065226Y-60358102D01*
X108987205Y-60169744D01*
X108873937Y-60000226D01*
X108729774Y-59856063D01*
X108560256Y-59742795D01*
X108371898Y-59664774D01*
X108171939Y-59625000D01*
X107968061Y-59625000D01*
X107768102Y-59664774D01*
X107579744Y-59742795D01*
X107410226Y-59856063D01*
X107266063Y-60000226D01*
X107152795Y-60169744D01*
X107074774Y-60358102D01*
X107035000Y-60558061D01*
X107035000Y-60761939D01*
X107074774Y-60961898D01*
X107134782Y-61106770D01*
X107132795Y-61109744D01*
X107054774Y-61298102D01*
X107015000Y-61498061D01*
X99825503Y-61498061D01*
X99799382Y-61435000D01*
X99875226Y-61251898D01*
X99915000Y-61051939D01*
X99915000Y-60848061D01*
X99875226Y-60648102D01*
X99797205Y-60459744D01*
X99683937Y-60290226D01*
X99539774Y-60146063D01*
X99370256Y-60032795D01*
X99326891Y-60014833D01*
X101427011Y-60004122D01*
X101451774Y-60001556D01*
X101475562Y-59994207D01*
X101497458Y-59982359D01*
X101516622Y-59966467D01*
X101532318Y-59947142D01*
X101543942Y-59925126D01*
X101551047Y-59901265D01*
X101553363Y-59876912D01*
X101543452Y-53952702D01*
X103336930Y-52168082D01*
X103325000Y-52228061D01*
X103325000Y-52431939D01*
X103364774Y-52631898D01*
X103434386Y-52799955D01*
X103405795Y-52842744D01*
X103327774Y-53031102D01*
X103288000Y-53231061D01*
X103288000Y-53434939D01*
X103327774Y-53634898D01*
X103405795Y-53823256D01*
X103519063Y-53992774D01*
X103663226Y-54136937D01*
X103832744Y-54250205D01*
X104021102Y-54328226D01*
X104221061Y-54368000D01*
X104424939Y-54368000D01*
X104624898Y-54328226D01*
X104813256Y-54250205D01*
X104982774Y-54136937D01*
X105126937Y-53992774D01*
X105240205Y-53823256D01*
X105318226Y-53634898D01*
X105358000Y-53434939D01*
X105358000Y-53231061D01*
X105318226Y-53031102D01*
X105248614Y-52863045D01*
X105277205Y-52820256D01*
X105355226Y-52631898D01*
X105395000Y-52431939D01*
X105395000Y-52228061D01*
X105355226Y-52028102D01*
X105324836Y-51954734D01*
X111256263Y-51958237D01*
X111259230Y-79763420D01*
X111154057Y-79658247D01*
X110984539Y-79544979D01*
X110823722Y-79478366D01*
X110825000Y-79471939D01*
X110825000Y-79268061D01*
X110785226Y-79068102D01*
X110707205Y-78879744D01*
X110593937Y-78710226D01*
X110449774Y-78566063D01*
X110280256Y-78452795D01*
X110091898Y-78374774D01*
X109891939Y-78335000D01*
X109688061Y-78335000D01*
X109488102Y-78374774D01*
X109299744Y-78452795D01*
X109130226Y-78566063D01*
X108986063Y-78710226D01*
X108872795Y-78879744D01*
X108794774Y-79068102D01*
X108755000Y-79268061D01*
X108755000Y-79471939D01*
X108794774Y-79671898D01*
X108872795Y-79860256D01*
X108986063Y-80029774D01*
X109130226Y-80173937D01*
X109299744Y-80287205D01*
X109460561Y-80353818D01*
X109459283Y-80360245D01*
X109459283Y-80564123D01*
X109499057Y-80764082D01*
X109577078Y-80952440D01*
X109690346Y-81121958D01*
X109834509Y-81266121D01*
X110004027Y-81379389D01*
X110192385Y-81457410D01*
X110392344Y-81497184D01*
X110596222Y-81497184D01*
X110796181Y-81457410D01*
X110984539Y-81379389D01*
X111154057Y-81266121D01*
X111259379Y-81160799D01*
X111264927Y-133163149D01*
X86953363Y-133168439D01*
X86953363Y-129880800D01*
X87016081Y-129868325D01*
X87331831Y-129737537D01*
X87615998Y-129547663D01*
X87857663Y-129305998D01*
X88047537Y-129021831D01*
X88178325Y-128706081D01*
X88245000Y-128370883D01*
X88245000Y-128029117D01*
X107555000Y-128029117D01*
X107555000Y-128370883D01*
X107621675Y-128706081D01*
X107752463Y-129021831D01*
X107942337Y-129305998D01*
X108184002Y-129547663D01*
X108468169Y-129737537D01*
X108783919Y-129868325D01*
X109119117Y-129935000D01*
X109460883Y-129935000D01*
X109796081Y-129868325D01*
X110111831Y-129737537D01*
X110395998Y-129547663D01*
X110637663Y-129305998D01*
X110827537Y-129021831D01*
X110958325Y-128706081D01*
X111025000Y-128370883D01*
X111025000Y-128029117D01*
X110958325Y-127693919D01*
X110827537Y-127378169D01*
X110637663Y-127094002D01*
X110395998Y-126852337D01*
X110111831Y-126662463D01*
X109796081Y-126531675D01*
X109460883Y-126465000D01*
X109119117Y-126465000D01*
X108783919Y-126531675D01*
X108468169Y-126662463D01*
X108184002Y-126852337D01*
X107942337Y-127094002D01*
X107752463Y-127378169D01*
X107621675Y-127693919D01*
X107555000Y-128029117D01*
X88245000Y-128029117D01*
X88178325Y-127693919D01*
X88047537Y-127378169D01*
X87857663Y-127094002D01*
X87615998Y-126852337D01*
X87331831Y-126662463D01*
X87016081Y-126531675D01*
X86953363Y-126519200D01*
X86953363Y-125481656D01*
X86950923Y-125456880D01*
X86943696Y-125433055D01*
X86931960Y-125411099D01*
X86916166Y-125391853D01*
X86896920Y-125376059D01*
X86874964Y-125364323D01*
X86851139Y-125357096D01*
X86826266Y-125354656D01*
X73726266Y-125364656D01*
X73701491Y-125367115D01*
X73677673Y-125374360D01*
X73655725Y-125386113D01*
X73636492Y-125401922D01*
X73620713Y-125421179D01*
X73608993Y-125443145D01*
X73601784Y-125466975D01*
X73599364Y-125492192D01*
X73631785Y-133171338D01*
X66675000Y-133172852D01*
X66675000Y-124898061D01*
X87865000Y-124898061D01*
X87865000Y-125101939D01*
X87904774Y-125301898D01*
X87982795Y-125490256D01*
X88096063Y-125659774D01*
X88240226Y-125803937D01*
X88409744Y-125917205D01*
X88598102Y-125995226D01*
X88798061Y-126035000D01*
X89001939Y-126035000D01*
X89201898Y-125995226D01*
X89390256Y-125917205D01*
X89559774Y-125803937D01*
X89703937Y-125659774D01*
X89817205Y-125490256D01*
X89895226Y-125301898D01*
X89935000Y-125101939D01*
X89935000Y-124898061D01*
X89895226Y-124698102D01*
X89817205Y-124509744D01*
X89703937Y-124340226D01*
X89559774Y-124196063D01*
X89390256Y-124082795D01*
X89201898Y-124004774D01*
X89001939Y-123965000D01*
X88798061Y-123965000D01*
X88598102Y-124004774D01*
X88409744Y-124082795D01*
X88240226Y-124196063D01*
X88096063Y-124340226D01*
X87982795Y-124509744D01*
X87904774Y-124698102D01*
X87865000Y-124898061D01*
X66675000Y-124898061D01*
X66675000Y-118878061D01*
X68365010Y-118878061D01*
X68365010Y-119081939D01*
X68404784Y-119281898D01*
X68482805Y-119470256D01*
X68596073Y-119639774D01*
X68740236Y-119783937D01*
X68909754Y-119897205D01*
X69098112Y-119975226D01*
X69298071Y-120015000D01*
X69501949Y-120015000D01*
X69701908Y-119975226D01*
X69890266Y-119897205D01*
X70059784Y-119783937D01*
X70203947Y-119639774D01*
X70317215Y-119470256D01*
X70395236Y-119281898D01*
X70435010Y-119081939D01*
X70435010Y-118878061D01*
X70395236Y-118678102D01*
X70317215Y-118489744D01*
X70203947Y-118320226D01*
X70059784Y-118176063D01*
X69890266Y-118062795D01*
X69701908Y-117984774D01*
X69501949Y-117945000D01*
X69298071Y-117945000D01*
X69098112Y-117984774D01*
X68909754Y-118062795D01*
X68740236Y-118176063D01*
X68596073Y-118320226D01*
X68482805Y-118489744D01*
X68404784Y-118678102D01*
X68365010Y-118878061D01*
X66675000Y-118878061D01*
X66675000Y-112583061D01*
X70060000Y-112583061D01*
X70060000Y-112786939D01*
X70099774Y-112986898D01*
X70177795Y-113175256D01*
X70291063Y-113344774D01*
X70435226Y-113488937D01*
X70604744Y-113602205D01*
X70793102Y-113680226D01*
X70993061Y-113720000D01*
X71196939Y-113720000D01*
X71396898Y-113680226D01*
X71585256Y-113602205D01*
X71754774Y-113488937D01*
X71898937Y-113344774D01*
X72012205Y-113175256D01*
X72090226Y-112986898D01*
X72130000Y-112786939D01*
X72130000Y-112648061D01*
X80775000Y-112648061D01*
X80775000Y-112851939D01*
X80814774Y-113051898D01*
X80892795Y-113240256D01*
X81006063Y-113409774D01*
X81150226Y-113553937D01*
X81319744Y-113667205D01*
X81508102Y-113745226D01*
X81708061Y-113785000D01*
X81911939Y-113785000D01*
X82111898Y-113745226D01*
X82300256Y-113667205D01*
X82469774Y-113553937D01*
X82613937Y-113409774D01*
X82727205Y-113240256D01*
X82805226Y-113051898D01*
X82845000Y-112851939D01*
X82845000Y-112648061D01*
X82826489Y-112555000D01*
X83011939Y-112555000D01*
X83193210Y-112518943D01*
X83261845Y-112649000D01*
X84455000Y-112649000D01*
X84455000Y-112629000D01*
X84709000Y-112629000D01*
X84709000Y-112649000D01*
X84729000Y-112649000D01*
X84729000Y-112903000D01*
X84709000Y-112903000D01*
X84709000Y-112923000D01*
X84455000Y-112923000D01*
X84455000Y-112903000D01*
X83261845Y-112903000D01*
X83140524Y-113132890D01*
X83185175Y-113280099D01*
X83310359Y-113542920D01*
X83484412Y-113776269D01*
X83700645Y-113971178D01*
X83817534Y-114040805D01*
X83635368Y-114162525D01*
X83428525Y-114369368D01*
X83266010Y-114612589D01*
X83154068Y-114882842D01*
X83097000Y-115169740D01*
X83097000Y-115462260D01*
X83154068Y-115749158D01*
X83266010Y-116019411D01*
X83428525Y-116262632D01*
X83635368Y-116469475D01*
X83809760Y-116586000D01*
X83635368Y-116702525D01*
X83428525Y-116909368D01*
X83266010Y-117152589D01*
X83154068Y-117422842D01*
X83097000Y-117709740D01*
X83097000Y-118002260D01*
X83154068Y-118289158D01*
X83266010Y-118559411D01*
X83428525Y-118802632D01*
X83635368Y-119009475D01*
X83809760Y-119126000D01*
X83635368Y-119242525D01*
X83428525Y-119449368D01*
X83266010Y-119692589D01*
X83154068Y-119962842D01*
X83097000Y-120249740D01*
X83097000Y-120542260D01*
X83154068Y-120829158D01*
X83266010Y-121099411D01*
X83428525Y-121342632D01*
X83560380Y-121474487D01*
X83487820Y-121496498D01*
X83377506Y-121555463D01*
X83280815Y-121634815D01*
X83201463Y-121731506D01*
X83142498Y-121841820D01*
X83106188Y-121961518D01*
X83093928Y-122086000D01*
X83093928Y-123786000D01*
X83106188Y-123910482D01*
X83142498Y-124030180D01*
X83201463Y-124140494D01*
X83280815Y-124237185D01*
X83377506Y-124316537D01*
X83487820Y-124375502D01*
X83607518Y-124411812D01*
X83732000Y-124424072D01*
X85432000Y-124424072D01*
X85556482Y-124411812D01*
X85676180Y-124375502D01*
X85786494Y-124316537D01*
X85883185Y-124237185D01*
X85962537Y-124140494D01*
X86021502Y-124030180D01*
X86043513Y-123957620D01*
X86175368Y-124089475D01*
X86418589Y-124251990D01*
X86688842Y-124363932D01*
X86975740Y-124421000D01*
X87268260Y-124421000D01*
X87555158Y-124363932D01*
X87825411Y-124251990D01*
X88068632Y-124089475D01*
X88275475Y-123882632D01*
X88437990Y-123639411D01*
X88549932Y-123369158D01*
X88607000Y-123082260D01*
X88607000Y-122789740D01*
X88549932Y-122502842D01*
X88437990Y-122232589D01*
X88275475Y-121989368D01*
X88068632Y-121782525D01*
X87894240Y-121666000D01*
X88068632Y-121549475D01*
X88275475Y-121342632D01*
X88437990Y-121099411D01*
X88549932Y-120829158D01*
X88607000Y-120542260D01*
X88607000Y-120249740D01*
X88549932Y-119962842D01*
X88437990Y-119692589D01*
X88275475Y-119449368D01*
X88068632Y-119242525D01*
X87886466Y-119120805D01*
X88003355Y-119051178D01*
X88219588Y-118856269D01*
X88393641Y-118622920D01*
X88518825Y-118360099D01*
X88563476Y-118212890D01*
X88442155Y-117983000D01*
X87249000Y-117983000D01*
X87249000Y-118003000D01*
X86995000Y-118003000D01*
X86995000Y-117983000D01*
X86975000Y-117983000D01*
X86975000Y-117729000D01*
X86995000Y-117729000D01*
X86995000Y-117709000D01*
X87249000Y-117709000D01*
X87249000Y-117729000D01*
X88442155Y-117729000D01*
X88563476Y-117499110D01*
X88518825Y-117351901D01*
X88393641Y-117089080D01*
X88219588Y-116855731D01*
X88003355Y-116660822D01*
X87886466Y-116591195D01*
X88068632Y-116469475D01*
X88275475Y-116262632D01*
X88437990Y-116019411D01*
X88549932Y-115749158D01*
X88607000Y-115462260D01*
X88607000Y-115169740D01*
X88549932Y-114882842D01*
X88437990Y-114612589D01*
X88401556Y-114558061D01*
X101975000Y-114558061D01*
X101975000Y-114761939D01*
X102014774Y-114961898D01*
X102092795Y-115150256D01*
X102206063Y-115319774D01*
X102350226Y-115463937D01*
X102519744Y-115577205D01*
X102708102Y-115655226D01*
X102908061Y-115695000D01*
X103111939Y-115695000D01*
X103311898Y-115655226D01*
X103478355Y-115586277D01*
X103479744Y-115587205D01*
X103668102Y-115665226D01*
X103868061Y-115705000D01*
X104071939Y-115705000D01*
X104271898Y-115665226D01*
X104460256Y-115587205D01*
X104629774Y-115473937D01*
X104773937Y-115329774D01*
X104887205Y-115160256D01*
X104965226Y-114971898D01*
X105005000Y-114771939D01*
X105005000Y-114568061D01*
X104965226Y-114368102D01*
X104887205Y-114179744D01*
X104773937Y-114010226D01*
X104629774Y-113866063D01*
X104460256Y-113752795D01*
X104271898Y-113674774D01*
X104071939Y-113635000D01*
X103868061Y-113635000D01*
X103668102Y-113674774D01*
X103501645Y-113743723D01*
X103500256Y-113742795D01*
X103311898Y-113664774D01*
X103111939Y-113625000D01*
X102908061Y-113625000D01*
X102708102Y-113664774D01*
X102519744Y-113742795D01*
X102350226Y-113856063D01*
X102206063Y-114000226D01*
X102092795Y-114169744D01*
X102014774Y-114358102D01*
X101975000Y-114558061D01*
X88401556Y-114558061D01*
X88275475Y-114369368D01*
X88068632Y-114162525D01*
X87894240Y-114046000D01*
X88068632Y-113929475D01*
X88275475Y-113722632D01*
X88437990Y-113479411D01*
X88549932Y-113209158D01*
X88607000Y-112922260D01*
X88607000Y-112629740D01*
X88549932Y-112342842D01*
X88437990Y-112072589D01*
X88275475Y-111829368D01*
X88068632Y-111622525D01*
X87894240Y-111506000D01*
X88068632Y-111389475D01*
X88150046Y-111308061D01*
X102015000Y-111308061D01*
X102015000Y-111511939D01*
X102054774Y-111711898D01*
X102132795Y-111900256D01*
X102246063Y-112069774D01*
X102390226Y-112213937D01*
X102559744Y-112327205D01*
X102748102Y-112405226D01*
X102948061Y-112445000D01*
X103151939Y-112445000D01*
X103351898Y-112405226D01*
X103481358Y-112351602D01*
X103489744Y-112357205D01*
X103678102Y-112435226D01*
X103878061Y-112475000D01*
X104081939Y-112475000D01*
X104281898Y-112435226D01*
X104470256Y-112357205D01*
X104639774Y-112243937D01*
X104783937Y-112099774D01*
X104897205Y-111930256D01*
X104975226Y-111741898D01*
X105015000Y-111541939D01*
X105015000Y-111338061D01*
X105011022Y-111318061D01*
X105590000Y-111318061D01*
X105590000Y-111521939D01*
X105629774Y-111721898D01*
X105707795Y-111910256D01*
X105821063Y-112079774D01*
X105965226Y-112223937D01*
X106134744Y-112337205D01*
X106323102Y-112415226D01*
X106523061Y-112455000D01*
X106726939Y-112455000D01*
X106926898Y-112415226D01*
X107115256Y-112337205D01*
X107284774Y-112223937D01*
X107428937Y-112079774D01*
X107542205Y-111910256D01*
X107620226Y-111721898D01*
X107660000Y-111521939D01*
X107660000Y-111318061D01*
X107620226Y-111118102D01*
X107542205Y-110929744D01*
X107428937Y-110760226D01*
X107284774Y-110616063D01*
X107115256Y-110502795D01*
X106926898Y-110424774D01*
X106726939Y-110385000D01*
X106523061Y-110385000D01*
X106323102Y-110424774D01*
X106134744Y-110502795D01*
X105965226Y-110616063D01*
X105821063Y-110760226D01*
X105707795Y-110929744D01*
X105629774Y-111118102D01*
X105590000Y-111318061D01*
X105011022Y-111318061D01*
X104975226Y-111138102D01*
X104897205Y-110949744D01*
X104783937Y-110780226D01*
X104639774Y-110636063D01*
X104490511Y-110536329D01*
X104646877Y-110505226D01*
X104835235Y-110427205D01*
X105004753Y-110313937D01*
X105148916Y-110169774D01*
X105262184Y-110000256D01*
X105340205Y-109811898D01*
X105379979Y-109611939D01*
X105379979Y-109408061D01*
X105340205Y-109208102D01*
X105262184Y-109019744D01*
X105148916Y-108850226D01*
X105004753Y-108706063D01*
X104835235Y-108592795D01*
X104646877Y-108514774D01*
X104446918Y-108475000D01*
X104243040Y-108475000D01*
X104043081Y-108514774D01*
X103854723Y-108592795D01*
X103685205Y-108706063D01*
X103541042Y-108850226D01*
X103427774Y-109019744D01*
X103349753Y-109208102D01*
X103309979Y-109408061D01*
X103309979Y-109611939D01*
X103349753Y-109811898D01*
X103427774Y-110000256D01*
X103541042Y-110169774D01*
X103685205Y-110313937D01*
X103834468Y-110413671D01*
X103678102Y-110444774D01*
X103548642Y-110498398D01*
X103540256Y-110492795D01*
X103351898Y-110414774D01*
X103151939Y-110375000D01*
X102948061Y-110375000D01*
X102748102Y-110414774D01*
X102559744Y-110492795D01*
X102390226Y-110606063D01*
X102246063Y-110750226D01*
X102132795Y-110919744D01*
X102054774Y-111108102D01*
X102015000Y-111308061D01*
X88150046Y-111308061D01*
X88275475Y-111182632D01*
X88437990Y-110939411D01*
X88549932Y-110669158D01*
X88607000Y-110382260D01*
X88607000Y-110089740D01*
X88549932Y-109802842D01*
X88437990Y-109532589D01*
X88275475Y-109289368D01*
X88068632Y-109082525D01*
X87886466Y-108960805D01*
X88003355Y-108891178D01*
X88219588Y-108696269D01*
X88393641Y-108462920D01*
X88518825Y-108200099D01*
X88563476Y-108052890D01*
X88442155Y-107823000D01*
X87249000Y-107823000D01*
X87249000Y-107843000D01*
X86995000Y-107843000D01*
X86995000Y-107823000D01*
X86975000Y-107823000D01*
X86975000Y-107569000D01*
X86995000Y-107569000D01*
X86995000Y-107549000D01*
X87249000Y-107549000D01*
X87249000Y-107569000D01*
X88442155Y-107569000D01*
X88563476Y-107339110D01*
X88518825Y-107191901D01*
X88393641Y-106929080D01*
X88219588Y-106695731D01*
X88003355Y-106500822D01*
X87886466Y-106431195D01*
X88068632Y-106309475D01*
X88090046Y-106288061D01*
X94845000Y-106288061D01*
X94845000Y-106491939D01*
X94884774Y-106691898D01*
X94962795Y-106880256D01*
X95076063Y-107049774D01*
X95220226Y-107193937D01*
X95389744Y-107307205D01*
X95578102Y-107385226D01*
X95778061Y-107425000D01*
X95981939Y-107425000D01*
X96181898Y-107385226D01*
X96370256Y-107307205D01*
X96539774Y-107193937D01*
X96683937Y-107049774D01*
X96797205Y-106880256D01*
X96875226Y-106691898D01*
X96915000Y-106491939D01*
X96915000Y-106288061D01*
X96898041Y-106202802D01*
X96916063Y-106229774D01*
X97060226Y-106373937D01*
X97229744Y-106487205D01*
X97418102Y-106565226D01*
X97618061Y-106605000D01*
X97821939Y-106605000D01*
X98021898Y-106565226D01*
X98210256Y-106487205D01*
X98379774Y-106373937D01*
X98523937Y-106229774D01*
X98637205Y-106060256D01*
X98715226Y-105871898D01*
X98755000Y-105671939D01*
X98755000Y-105468061D01*
X98715226Y-105268102D01*
X98637205Y-105079744D01*
X98523937Y-104910226D01*
X98379774Y-104766063D01*
X98210256Y-104652795D01*
X98021898Y-104574774D01*
X97821939Y-104535000D01*
X97618061Y-104535000D01*
X97418102Y-104574774D01*
X97229744Y-104652795D01*
X97060226Y-104766063D01*
X96916063Y-104910226D01*
X96802795Y-105079744D01*
X96724774Y-105268102D01*
X96685000Y-105468061D01*
X96685000Y-105671939D01*
X96701959Y-105757198D01*
X96683937Y-105730226D01*
X96539774Y-105586063D01*
X96370256Y-105472795D01*
X96181898Y-105394774D01*
X95981939Y-105355000D01*
X95778061Y-105355000D01*
X95578102Y-105394774D01*
X95389744Y-105472795D01*
X95220226Y-105586063D01*
X95076063Y-105730226D01*
X94962795Y-105899744D01*
X94884774Y-106088102D01*
X94845000Y-106288061D01*
X88090046Y-106288061D01*
X88275475Y-106102632D01*
X88437990Y-105859411D01*
X88549932Y-105589158D01*
X88607000Y-105302260D01*
X88607000Y-105009740D01*
X88549932Y-104722842D01*
X88437990Y-104452589D01*
X88275475Y-104209368D01*
X88254168Y-104188061D01*
X99505000Y-104188061D01*
X99505000Y-104391939D01*
X99544774Y-104591898D01*
X99621476Y-104777071D01*
X99554774Y-104938102D01*
X99515000Y-105138061D01*
X99515000Y-105341939D01*
X99554774Y-105541898D01*
X99632795Y-105730256D01*
X99746063Y-105899774D01*
X99890226Y-106043937D01*
X100059744Y-106157205D01*
X100248102Y-106235226D01*
X100448061Y-106275000D01*
X100651939Y-106275000D01*
X100851898Y-106235226D01*
X101040256Y-106157205D01*
X101209774Y-106043937D01*
X101353937Y-105899774D01*
X101467205Y-105730256D01*
X101545226Y-105541898D01*
X101585000Y-105341939D01*
X101585000Y-105138061D01*
X101548587Y-104955000D01*
X101601939Y-104955000D01*
X101801898Y-104915226D01*
X101990256Y-104837205D01*
X102159774Y-104723937D01*
X102303937Y-104579774D01*
X102417205Y-104410256D01*
X102495226Y-104221898D01*
X102535000Y-104021939D01*
X102535000Y-103818061D01*
X102495226Y-103618102D01*
X102417205Y-103429744D01*
X102303937Y-103260226D01*
X102159774Y-103116063D01*
X101990256Y-103002795D01*
X101924994Y-102975762D01*
X102098889Y-103028513D01*
X102390000Y-103057185D01*
X102681110Y-103028513D01*
X102961033Y-102943599D01*
X103219013Y-102805706D01*
X103445134Y-102620134D01*
X103630706Y-102394014D01*
X103640000Y-102376626D01*
X103649294Y-102394013D01*
X103834866Y-102620134D01*
X104060986Y-102805706D01*
X104318966Y-102943599D01*
X104598889Y-103028513D01*
X104890000Y-103057185D01*
X105181110Y-103028513D01*
X105330542Y-102983183D01*
X105312795Y-103009744D01*
X105234774Y-103198102D01*
X105195000Y-103398061D01*
X105195000Y-103601939D01*
X105234774Y-103801898D01*
X105312795Y-103990256D01*
X105426063Y-104159774D01*
X105570226Y-104303937D01*
X105739744Y-104417205D01*
X105928102Y-104495226D01*
X106128061Y-104535000D01*
X106331939Y-104535000D01*
X106531898Y-104495226D01*
X106720256Y-104417205D01*
X106889774Y-104303937D01*
X107033937Y-104159774D01*
X107147205Y-103990256D01*
X107225226Y-103801898D01*
X107265000Y-103601939D01*
X107265000Y-103398061D01*
X107225226Y-103198102D01*
X107165152Y-103053072D01*
X107990000Y-103053072D01*
X108163254Y-103036008D01*
X108329850Y-102985472D01*
X108483386Y-102903405D01*
X108617962Y-102792962D01*
X108728405Y-102658386D01*
X108810472Y-102504850D01*
X108861008Y-102338254D01*
X108878072Y-102165000D01*
X108878072Y-100715000D01*
X108874132Y-100675000D01*
X109111637Y-100675000D01*
X109350236Y-100627540D01*
X109574992Y-100534443D01*
X109777267Y-100399287D01*
X109949287Y-100227267D01*
X110084443Y-100024992D01*
X110177540Y-99800236D01*
X110225000Y-99561637D01*
X110225000Y-99318363D01*
X110177540Y-99079764D01*
X110084443Y-98855008D01*
X109949287Y-98652733D01*
X109777267Y-98480713D01*
X109574992Y-98345557D01*
X109350236Y-98252460D01*
X109111637Y-98205000D01*
X108868363Y-98205000D01*
X108629764Y-98252460D01*
X108405008Y-98345557D01*
X108202733Y-98480713D01*
X108030713Y-98652733D01*
X107895557Y-98855008D01*
X107802460Y-99079764D01*
X107755000Y-99318363D01*
X107755000Y-99561637D01*
X107802460Y-99800236D01*
X107813516Y-99826928D01*
X106790000Y-99826928D01*
X106616746Y-99843992D01*
X106450150Y-99894528D01*
X106296614Y-99976595D01*
X106162038Y-100087038D01*
X106051595Y-100221614D01*
X105997223Y-100323337D01*
X105945134Y-100259866D01*
X105719014Y-100074294D01*
X105461034Y-99936401D01*
X105181111Y-99851487D01*
X104890000Y-99822815D01*
X104598890Y-99851487D01*
X104318967Y-99936401D01*
X104060987Y-100074294D01*
X103834866Y-100259866D01*
X103649294Y-100485986D01*
X103640000Y-100503374D01*
X103630706Y-100485986D01*
X103445134Y-100259866D01*
X103219014Y-100074294D01*
X102961034Y-99936401D01*
X102681111Y-99851487D01*
X102390000Y-99822815D01*
X102098890Y-99851487D01*
X101818967Y-99936401D01*
X101560987Y-100074294D01*
X101334866Y-100259866D01*
X101149294Y-100485986D01*
X101135538Y-100511722D01*
X100979049Y-100305571D01*
X100761193Y-100112504D01*
X100509858Y-99965648D01*
X100246890Y-99873524D01*
X100017000Y-99994845D01*
X100017000Y-101313000D01*
X100037000Y-101313000D01*
X100037000Y-101567000D01*
X100017000Y-101567000D01*
X100017000Y-102885155D01*
X100246890Y-103006476D01*
X100509858Y-102914352D01*
X100761193Y-102767496D01*
X100979049Y-102574429D01*
X101135538Y-102368278D01*
X101149294Y-102394013D01*
X101334866Y-102620134D01*
X101560986Y-102805706D01*
X101772989Y-102919024D01*
X101601939Y-102885000D01*
X101398061Y-102885000D01*
X101198102Y-102924774D01*
X101009744Y-103002795D01*
X100840226Y-103116063D01*
X100696063Y-103260226D01*
X100692796Y-103265116D01*
X100641939Y-103255000D01*
X100438061Y-103255000D01*
X100238102Y-103294774D01*
X100049744Y-103372795D01*
X99880226Y-103486063D01*
X99736063Y-103630226D01*
X99622795Y-103799744D01*
X99544774Y-103988102D01*
X99505000Y-104188061D01*
X88254168Y-104188061D01*
X88068632Y-104002525D01*
X87894240Y-103886000D01*
X88068632Y-103769475D01*
X88275475Y-103562632D01*
X88437990Y-103319411D01*
X88549932Y-103049158D01*
X88607000Y-102762260D01*
X88607000Y-102469740D01*
X88549932Y-102182842D01*
X88437990Y-101912589D01*
X88362271Y-101799267D01*
X98423680Y-101799267D01*
X98497558Y-102080830D01*
X98624947Y-102342570D01*
X98800951Y-102574429D01*
X99018807Y-102767496D01*
X99270142Y-102914352D01*
X99533110Y-103006476D01*
X99763000Y-102885155D01*
X99763000Y-101567000D01*
X98563835Y-101567000D01*
X98423680Y-101799267D01*
X88362271Y-101799267D01*
X88275475Y-101669368D01*
X88068632Y-101462525D01*
X87886466Y-101340805D01*
X88003355Y-101271178D01*
X88214635Y-101080733D01*
X98423680Y-101080733D01*
X98563835Y-101313000D01*
X99763000Y-101313000D01*
X99763000Y-99994845D01*
X99533110Y-99873524D01*
X99270142Y-99965648D01*
X99018807Y-100112504D01*
X98800951Y-100305571D01*
X98624947Y-100537430D01*
X98497558Y-100799170D01*
X98423680Y-101080733D01*
X88214635Y-101080733D01*
X88219588Y-101076269D01*
X88393641Y-100842920D01*
X88518825Y-100580099D01*
X88563476Y-100432890D01*
X88442155Y-100203000D01*
X87249000Y-100203000D01*
X87249000Y-100223000D01*
X86995000Y-100223000D01*
X86995000Y-100203000D01*
X86975000Y-100203000D01*
X86975000Y-99949000D01*
X86995000Y-99949000D01*
X86995000Y-99929000D01*
X87249000Y-99929000D01*
X87249000Y-99949000D01*
X88442155Y-99949000D01*
X88563476Y-99719110D01*
X88518825Y-99571901D01*
X88393641Y-99309080D01*
X88219588Y-99075731D01*
X88003355Y-98880822D01*
X87886466Y-98811195D01*
X88068632Y-98689475D01*
X88270046Y-98488061D01*
X92465000Y-98488061D01*
X92465000Y-98691939D01*
X92504774Y-98891898D01*
X92582795Y-99080256D01*
X92696063Y-99249774D01*
X92840226Y-99393937D01*
X93009744Y-99507205D01*
X93198102Y-99585226D01*
X93398061Y-99625000D01*
X93601939Y-99625000D01*
X93801898Y-99585226D01*
X93990256Y-99507205D01*
X94159774Y-99393937D01*
X94303937Y-99249774D01*
X94417205Y-99080256D01*
X94495226Y-98891898D01*
X94535000Y-98691939D01*
X94535000Y-98488061D01*
X94495226Y-98288102D01*
X94417205Y-98099744D01*
X94303937Y-97930226D01*
X94289337Y-97915626D01*
X94391898Y-97895226D01*
X94580256Y-97817205D01*
X94749774Y-97703937D01*
X94893937Y-97559774D01*
X95007205Y-97390256D01*
X95085226Y-97201898D01*
X95125000Y-97001939D01*
X95125000Y-96798061D01*
X95085226Y-96598102D01*
X95007205Y-96409744D01*
X94893937Y-96240226D01*
X94749774Y-96096063D01*
X94580256Y-95982795D01*
X94391898Y-95904774D01*
X94191939Y-95865000D01*
X93988061Y-95865000D01*
X93788102Y-95904774D01*
X93599744Y-95982795D01*
X93430226Y-96096063D01*
X93286063Y-96240226D01*
X93172795Y-96409744D01*
X93094774Y-96598102D01*
X93055000Y-96798061D01*
X93055000Y-97001939D01*
X93094774Y-97201898D01*
X93172795Y-97390256D01*
X93286063Y-97559774D01*
X93300663Y-97574374D01*
X93198102Y-97594774D01*
X93009744Y-97672795D01*
X92840226Y-97786063D01*
X92696063Y-97930226D01*
X92582795Y-98099744D01*
X92504774Y-98288102D01*
X92465000Y-98488061D01*
X88270046Y-98488061D01*
X88275475Y-98482632D01*
X88437990Y-98239411D01*
X88549932Y-97969158D01*
X88607000Y-97682260D01*
X88607000Y-97389740D01*
X88549932Y-97102842D01*
X88437990Y-96832589D01*
X88275475Y-96589368D01*
X88068632Y-96382525D01*
X87894240Y-96266000D01*
X88068632Y-96149475D01*
X88275475Y-95942632D01*
X88437990Y-95699411D01*
X88549932Y-95429158D01*
X88607000Y-95142260D01*
X88607000Y-94849740D01*
X88549932Y-94562842D01*
X88437990Y-94292589D01*
X88275475Y-94049368D01*
X88068632Y-93842525D01*
X87894240Y-93726000D01*
X88068632Y-93609475D01*
X88275475Y-93402632D01*
X88437990Y-93159411D01*
X88549932Y-92889158D01*
X88607000Y-92602260D01*
X88607000Y-92309740D01*
X88549932Y-92022842D01*
X88477536Y-91848061D01*
X93975000Y-91848061D01*
X93975000Y-92051939D01*
X94014774Y-92251898D01*
X94092795Y-92440256D01*
X94206063Y-92609774D01*
X94350226Y-92753937D01*
X94519744Y-92867205D01*
X94708102Y-92945226D01*
X94908061Y-92985000D01*
X94918191Y-92985000D01*
X94932795Y-93020256D01*
X95046063Y-93189774D01*
X95190226Y-93333937D01*
X95359744Y-93447205D01*
X95548102Y-93525226D01*
X95748061Y-93565000D01*
X95951939Y-93565000D01*
X96151898Y-93525226D01*
X96340256Y-93447205D01*
X96509774Y-93333937D01*
X96653937Y-93189774D01*
X96767205Y-93020256D01*
X96845226Y-92831898D01*
X96885000Y-92631939D01*
X96885000Y-92428061D01*
X96845226Y-92228102D01*
X96767205Y-92039744D01*
X96653937Y-91870226D01*
X96621772Y-91838061D01*
X105025000Y-91838061D01*
X105025000Y-92041939D01*
X105064774Y-92241898D01*
X105142795Y-92430256D01*
X105256063Y-92599774D01*
X105400226Y-92743937D01*
X105569744Y-92857205D01*
X105758102Y-92935226D01*
X105958061Y-92975000D01*
X106161939Y-92975000D01*
X106361898Y-92935226D01*
X106550256Y-92857205D01*
X106653631Y-92788132D01*
X106662795Y-92810256D01*
X106776063Y-92979774D01*
X106831289Y-93035000D01*
X106736063Y-93130226D01*
X106622795Y-93299744D01*
X106544774Y-93488102D01*
X106505000Y-93688061D01*
X106505000Y-93891939D01*
X106544774Y-94091898D01*
X106622795Y-94280256D01*
X106736063Y-94449774D01*
X106880226Y-94593937D01*
X107049744Y-94707205D01*
X107238102Y-94785226D01*
X107438061Y-94825000D01*
X107641939Y-94825000D01*
X107841898Y-94785226D01*
X108030256Y-94707205D01*
X108199774Y-94593937D01*
X108343937Y-94449774D01*
X108457205Y-94280256D01*
X108492003Y-94196248D01*
X108497805Y-94210256D01*
X108611073Y-94379774D01*
X108755236Y-94523937D01*
X108924754Y-94637205D01*
X109113112Y-94715226D01*
X109313071Y-94755000D01*
X109516949Y-94755000D01*
X109716908Y-94715226D01*
X109905266Y-94637205D01*
X110074784Y-94523937D01*
X110218947Y-94379774D01*
X110332215Y-94210256D01*
X110410236Y-94021898D01*
X110450010Y-93821939D01*
X110450010Y-93618061D01*
X110410236Y-93418102D01*
X110332215Y-93229744D01*
X110218947Y-93060226D01*
X110074784Y-92916063D01*
X109905266Y-92802795D01*
X109716908Y-92724774D01*
X109516949Y-92685000D01*
X109313071Y-92685000D01*
X109113112Y-92724774D01*
X108924754Y-92802795D01*
X108755236Y-92916063D01*
X108611073Y-93060226D01*
X108497805Y-93229744D01*
X108463007Y-93313752D01*
X108457205Y-93299744D01*
X108343937Y-93130226D01*
X108288711Y-93075000D01*
X108383937Y-92979774D01*
X108497205Y-92810256D01*
X108575226Y-92621898D01*
X108615000Y-92421939D01*
X108615000Y-92218061D01*
X108575226Y-92018102D01*
X108497205Y-91829744D01*
X108383937Y-91660226D01*
X108239774Y-91516063D01*
X108070256Y-91402795D01*
X107895523Y-91330418D01*
X107971898Y-91315226D01*
X108040671Y-91286739D01*
X108056063Y-91309774D01*
X108200226Y-91453937D01*
X108369744Y-91567205D01*
X108558102Y-91645226D01*
X108758061Y-91685000D01*
X108961939Y-91685000D01*
X109161898Y-91645226D01*
X109350256Y-91567205D01*
X109519774Y-91453937D01*
X109663937Y-91309774D01*
X109777205Y-91140256D01*
X109855226Y-90951898D01*
X109895000Y-90751939D01*
X109895000Y-90548061D01*
X109855226Y-90348102D01*
X109777205Y-90159744D01*
X109663937Y-89990226D01*
X109519774Y-89846063D01*
X109350256Y-89732795D01*
X109161898Y-89654774D01*
X108961939Y-89615000D01*
X108758061Y-89615000D01*
X108558102Y-89654774D01*
X108489329Y-89683261D01*
X108473937Y-89660226D01*
X108329774Y-89516063D01*
X108160256Y-89402795D01*
X107971898Y-89324774D01*
X107771939Y-89285000D01*
X107568061Y-89285000D01*
X107408917Y-89316656D01*
X107405226Y-89298102D01*
X107327205Y-89109744D01*
X107213937Y-88940226D01*
X107069774Y-88796063D01*
X106900256Y-88682795D01*
X106711898Y-88604774D01*
X106511939Y-88565000D01*
X106308061Y-88565000D01*
X106108102Y-88604774D01*
X105919744Y-88682795D01*
X105750226Y-88796063D01*
X105606063Y-88940226D01*
X105492795Y-89109744D01*
X105414774Y-89298102D01*
X105375000Y-89498061D01*
X105375000Y-89701939D01*
X105414774Y-89901898D01*
X105492795Y-90090256D01*
X105606063Y-90259774D01*
X105750226Y-90403937D01*
X105919744Y-90517205D01*
X106108102Y-90595226D01*
X106308061Y-90635000D01*
X106511939Y-90635000D01*
X106671083Y-90603344D01*
X106674774Y-90621898D01*
X106752795Y-90810256D01*
X106866063Y-90979774D01*
X107010226Y-91123937D01*
X107179744Y-91237205D01*
X107354477Y-91309582D01*
X107278102Y-91324774D01*
X107089744Y-91402795D01*
X106986369Y-91471868D01*
X106977205Y-91449744D01*
X106863937Y-91280226D01*
X106719774Y-91136063D01*
X106550256Y-91022795D01*
X106361898Y-90944774D01*
X106161939Y-90905000D01*
X105958061Y-90905000D01*
X105758102Y-90944774D01*
X105569744Y-91022795D01*
X105400226Y-91136063D01*
X105256063Y-91280226D01*
X105142795Y-91449744D01*
X105064774Y-91638102D01*
X105025000Y-91838061D01*
X96621772Y-91838061D01*
X96509774Y-91726063D01*
X96340256Y-91612795D01*
X96151898Y-91534774D01*
X95951939Y-91495000D01*
X95941809Y-91495000D01*
X95927205Y-91459744D01*
X95922353Y-91452483D01*
X95937205Y-91430256D01*
X96015226Y-91241898D01*
X96055000Y-91041939D01*
X96055000Y-90838061D01*
X96015226Y-90638102D01*
X95937205Y-90449744D01*
X95823937Y-90280226D01*
X95679774Y-90136063D01*
X95510256Y-90022795D01*
X95321898Y-89944774D01*
X95121939Y-89905000D01*
X94918061Y-89905000D01*
X94718102Y-89944774D01*
X94529744Y-90022795D01*
X94360226Y-90136063D01*
X94216063Y-90280226D01*
X94102795Y-90449744D01*
X94024774Y-90638102D01*
X93985000Y-90838061D01*
X93985000Y-91041939D01*
X94024774Y-91241898D01*
X94102795Y-91430256D01*
X94107647Y-91437517D01*
X94092795Y-91459744D01*
X94014774Y-91648102D01*
X93975000Y-91848061D01*
X88477536Y-91848061D01*
X88437990Y-91752589D01*
X88275475Y-91509368D01*
X88068632Y-91302525D01*
X87825411Y-91140010D01*
X87555158Y-91028068D01*
X87268260Y-90971000D01*
X86975740Y-90971000D01*
X86688842Y-91028068D01*
X86418589Y-91140010D01*
X86175368Y-91302525D01*
X85968525Y-91509368D01*
X85850900Y-91685406D01*
X85679588Y-91455731D01*
X85463355Y-91260822D01*
X85213252Y-91111843D01*
X84938891Y-91014519D01*
X84709000Y-91135186D01*
X84709000Y-92329000D01*
X84729000Y-92329000D01*
X84729000Y-92583000D01*
X84709000Y-92583000D01*
X84709000Y-92603000D01*
X84455000Y-92603000D01*
X84455000Y-92583000D01*
X83261845Y-92583000D01*
X83140524Y-92812890D01*
X83185175Y-92960099D01*
X83310359Y-93222920D01*
X83484412Y-93456269D01*
X83700645Y-93651178D01*
X83817534Y-93720805D01*
X83635368Y-93842525D01*
X83428525Y-94049368D01*
X83266010Y-94292589D01*
X83154068Y-94562842D01*
X83097000Y-94849740D01*
X83097000Y-95142260D01*
X83154068Y-95429158D01*
X83266010Y-95699411D01*
X83428525Y-95942632D01*
X83635368Y-96149475D01*
X83809760Y-96266000D01*
X83635368Y-96382525D01*
X83428525Y-96589368D01*
X83266010Y-96832589D01*
X83154068Y-97102842D01*
X83097000Y-97389740D01*
X83097000Y-97682260D01*
X83145685Y-97927015D01*
X83001627Y-97830759D01*
X82813269Y-97752738D01*
X82613310Y-97712964D01*
X82409432Y-97712964D01*
X82209473Y-97752738D01*
X82021115Y-97830759D01*
X81851597Y-97944027D01*
X81707434Y-98088190D01*
X81594166Y-98257708D01*
X81516145Y-98446066D01*
X81476371Y-98646025D01*
X81476371Y-98849903D01*
X81516145Y-99049862D01*
X81594166Y-99238220D01*
X81707434Y-99407738D01*
X81851597Y-99551901D01*
X81943135Y-99613065D01*
X81874774Y-99778102D01*
X81835000Y-99978061D01*
X81835000Y-100181939D01*
X81874774Y-100381898D01*
X81952795Y-100570256D01*
X82066063Y-100739774D01*
X82210226Y-100883937D01*
X82379744Y-100997205D01*
X82568102Y-101075226D01*
X82768061Y-101115000D01*
X82971939Y-101115000D01*
X83171898Y-101075226D01*
X83360256Y-100997205D01*
X83395708Y-100973517D01*
X83428525Y-101022632D01*
X83635368Y-101229475D01*
X83809760Y-101346000D01*
X83635368Y-101462525D01*
X83428525Y-101669368D01*
X83266010Y-101912589D01*
X83154068Y-102182842D01*
X83097000Y-102469740D01*
X83097000Y-102762260D01*
X83154068Y-103049158D01*
X83266010Y-103319411D01*
X83428525Y-103562632D01*
X83635368Y-103769475D01*
X83809760Y-103886000D01*
X83635368Y-104002525D01*
X83428525Y-104209368D01*
X83266010Y-104452589D01*
X83154068Y-104722842D01*
X83097000Y-105009740D01*
X83097000Y-105302260D01*
X83154068Y-105589158D01*
X83266010Y-105859411D01*
X83428525Y-106102632D01*
X83635368Y-106309475D01*
X83809760Y-106426000D01*
X83635368Y-106542525D01*
X83428525Y-106749368D01*
X83266010Y-106992589D01*
X83154068Y-107262842D01*
X83097000Y-107549740D01*
X83097000Y-107842260D01*
X83154068Y-108129158D01*
X83266010Y-108399411D01*
X83428525Y-108642632D01*
X83635368Y-108849475D01*
X83809760Y-108966000D01*
X83635368Y-109082525D01*
X83428525Y-109289368D01*
X83266010Y-109532589D01*
X83154068Y-109802842D01*
X83097000Y-110089740D01*
X83097000Y-110382260D01*
X83121782Y-110506849D01*
X83011939Y-110485000D01*
X82865000Y-110485000D01*
X82865000Y-110388061D01*
X82825226Y-110188102D01*
X82747205Y-109999744D01*
X82633937Y-109830226D01*
X82489774Y-109686063D01*
X82320256Y-109572795D01*
X82131898Y-109494774D01*
X81931939Y-109455000D01*
X81728061Y-109455000D01*
X81528102Y-109494774D01*
X81339744Y-109572795D01*
X81170226Y-109686063D01*
X81026063Y-109830226D01*
X80912795Y-109999744D01*
X80834774Y-110188102D01*
X80795000Y-110388061D01*
X80795000Y-110591939D01*
X80834774Y-110791898D01*
X80912795Y-110980256D01*
X80939351Y-111020000D01*
X80912795Y-111059744D01*
X80834774Y-111248102D01*
X80795000Y-111448061D01*
X80795000Y-111651939D01*
X80834774Y-111851898D01*
X80912795Y-112040256D01*
X80976123Y-112135034D01*
X80892795Y-112259744D01*
X80814774Y-112448102D01*
X80775000Y-112648061D01*
X72130000Y-112648061D01*
X72130000Y-112583061D01*
X72090226Y-112383102D01*
X72012205Y-112194744D01*
X71898937Y-112025226D01*
X71754774Y-111881063D01*
X71585256Y-111767795D01*
X71396898Y-111689774D01*
X71196939Y-111650000D01*
X70993061Y-111650000D01*
X70793102Y-111689774D01*
X70604744Y-111767795D01*
X70435226Y-111881063D01*
X70291063Y-112025226D01*
X70177795Y-112194744D01*
X70099774Y-112383102D01*
X70060000Y-112583061D01*
X66675000Y-112583061D01*
X66675000Y-103685000D01*
X71253647Y-103685000D01*
X71262718Y-103684107D01*
X71370928Y-103678459D01*
X71432312Y-103669189D01*
X71493827Y-103660776D01*
X71503115Y-103658497D01*
X71611117Y-103631194D01*
X71669513Y-103610185D01*
X71728242Y-103589977D01*
X71736911Y-103585937D01*
X71837551Y-103538177D01*
X71890781Y-103506209D01*
X71944443Y-103474993D01*
X71952162Y-103469346D01*
X72041609Y-103402947D01*
X72087588Y-103361274D01*
X72134189Y-103320208D01*
X72140664Y-103313169D01*
X72215511Y-103230661D01*
X72252531Y-103180836D01*
X72290257Y-103131516D01*
X72295242Y-103123354D01*
X72352638Y-103027880D01*
X72379301Y-102971761D01*
X72406705Y-102916099D01*
X72410010Y-102907124D01*
X72447768Y-102802320D01*
X72463011Y-102742136D01*
X72479093Y-102682168D01*
X72480592Y-102672722D01*
X72489867Y-102611485D01*
X72495085Y-102594283D01*
X72504997Y-102493647D01*
X72505000Y-99886354D01*
X72504107Y-99877284D01*
X72498459Y-99769071D01*
X72489186Y-99707667D01*
X72480776Y-99646174D01*
X72478497Y-99636885D01*
X72451194Y-99528884D01*
X72430185Y-99470489D01*
X72409977Y-99411758D01*
X72405937Y-99403089D01*
X72358177Y-99302449D01*
X72326209Y-99249219D01*
X72294992Y-99195557D01*
X72289346Y-99187837D01*
X72222947Y-99098391D01*
X72181242Y-99052377D01*
X72140208Y-99005812D01*
X72133169Y-98999336D01*
X72050661Y-98924489D01*
X72000804Y-98887445D01*
X71951516Y-98849743D01*
X71943354Y-98844758D01*
X71847880Y-98787362D01*
X71791761Y-98760699D01*
X71736099Y-98733295D01*
X71727124Y-98729990D01*
X71622320Y-98692232D01*
X71562126Y-98676987D01*
X71502167Y-98660907D01*
X71492721Y-98659408D01*
X71431530Y-98650140D01*
X71414369Y-98644932D01*
X71313735Y-98635007D01*
X66675000Y-98634410D01*
X66675000Y-93215468D01*
X70904990Y-93215468D01*
X70904990Y-93419346D01*
X70944764Y-93619305D01*
X71022785Y-93807663D01*
X71136053Y-93977181D01*
X71280216Y-94121344D01*
X71449734Y-94234612D01*
X71638092Y-94312633D01*
X71743887Y-94333677D01*
X71704774Y-94428102D01*
X71665000Y-94628061D01*
X71665000Y-94831939D01*
X71704774Y-95031898D01*
X71782795Y-95220256D01*
X71862783Y-95339966D01*
X71802795Y-95429744D01*
X71724774Y-95618102D01*
X71685000Y-95818061D01*
X71685000Y-96021939D01*
X71724774Y-96221898D01*
X71802795Y-96410256D01*
X71916063Y-96579774D01*
X72060226Y-96723937D01*
X72229744Y-96837205D01*
X72418102Y-96915226D01*
X72618061Y-96955000D01*
X72821939Y-96955000D01*
X73021898Y-96915226D01*
X73152047Y-96861316D01*
X75861052Y-96861316D01*
X75861052Y-97065194D01*
X75900826Y-97265153D01*
X75978847Y-97453511D01*
X76092115Y-97623029D01*
X76236278Y-97767192D01*
X76405796Y-97880460D01*
X76594154Y-97958481D01*
X76794113Y-97998255D01*
X76997991Y-97998255D01*
X77197950Y-97958481D01*
X77386308Y-97880460D01*
X77555826Y-97767192D01*
X77699989Y-97623029D01*
X77813257Y-97453511D01*
X77891278Y-97265153D01*
X77931052Y-97065194D01*
X77931052Y-96861316D01*
X77891278Y-96661357D01*
X77813257Y-96472999D01*
X77699989Y-96303481D01*
X77555826Y-96159318D01*
X77386308Y-96046050D01*
X77197950Y-95968029D01*
X76997991Y-95928255D01*
X76794113Y-95928255D01*
X76594154Y-95968029D01*
X76405796Y-96046050D01*
X76236278Y-96159318D01*
X76092115Y-96303481D01*
X75978847Y-96472999D01*
X75900826Y-96661357D01*
X75861052Y-96861316D01*
X73152047Y-96861316D01*
X73210256Y-96837205D01*
X73379774Y-96723937D01*
X73523937Y-96579774D01*
X73637205Y-96410256D01*
X73715226Y-96221898D01*
X73755000Y-96021939D01*
X73755000Y-95818061D01*
X73715226Y-95618102D01*
X73637205Y-95429744D01*
X73557217Y-95310034D01*
X73617205Y-95220256D01*
X73695226Y-95031898D01*
X73735000Y-94831939D01*
X73735000Y-94628061D01*
X73695226Y-94428102D01*
X73617205Y-94239744D01*
X73503937Y-94070226D01*
X73359774Y-93926063D01*
X73190256Y-93812795D01*
X73001898Y-93734774D01*
X72896103Y-93713730D01*
X72935216Y-93619305D01*
X72974990Y-93419346D01*
X72974990Y-93215468D01*
X72935216Y-93015509D01*
X72857195Y-92827151D01*
X72743927Y-92657633D01*
X72599764Y-92513470D01*
X72430246Y-92400202D01*
X72241888Y-92322181D01*
X72041929Y-92282407D01*
X71838051Y-92282407D01*
X71638092Y-92322181D01*
X71449734Y-92400202D01*
X71280216Y-92513470D01*
X71136053Y-92657633D01*
X71022785Y-92827151D01*
X70944764Y-93015509D01*
X70904990Y-93215468D01*
X66675000Y-93215468D01*
X66675000Y-87850000D01*
X67754025Y-87850000D01*
X67777870Y-88092102D01*
X67848489Y-88324901D01*
X67963167Y-88539449D01*
X68117498Y-88727502D01*
X68266762Y-88850000D01*
X68117498Y-88972498D01*
X67963167Y-89160551D01*
X67848489Y-89375099D01*
X67777870Y-89607898D01*
X67754025Y-89850000D01*
X67777870Y-90092102D01*
X67848489Y-90324901D01*
X67963167Y-90539449D01*
X68117498Y-90727502D01*
X68266762Y-90850000D01*
X68117498Y-90972498D01*
X67963167Y-91160551D01*
X67848489Y-91375099D01*
X67777870Y-91607898D01*
X67754025Y-91850000D01*
X67777870Y-92092102D01*
X67848489Y-92324901D01*
X67963167Y-92539449D01*
X68117498Y-92727502D01*
X68305551Y-92881833D01*
X68520099Y-92996511D01*
X68752898Y-93067130D01*
X68934335Y-93085000D01*
X69605665Y-93085000D01*
X69787102Y-93067130D01*
X70019901Y-92996511D01*
X70234449Y-92881833D01*
X70422502Y-92727502D01*
X70576833Y-92539449D01*
X70691511Y-92324901D01*
X70760004Y-92099110D01*
X83140524Y-92099110D01*
X83261845Y-92329000D01*
X84455000Y-92329000D01*
X84455000Y-91135186D01*
X84225109Y-91014519D01*
X83950748Y-91111843D01*
X83700645Y-91260822D01*
X83484412Y-91455731D01*
X83310359Y-91689080D01*
X83185175Y-91951901D01*
X83140524Y-92099110D01*
X70760004Y-92099110D01*
X70762130Y-92092102D01*
X70785975Y-91850000D01*
X70762130Y-91607898D01*
X70691511Y-91375099D01*
X70576833Y-91160551D01*
X70422502Y-90972498D01*
X70273238Y-90850000D01*
X70422502Y-90727502D01*
X70576833Y-90539449D01*
X70691511Y-90324901D01*
X70762130Y-90092102D01*
X70785975Y-89850000D01*
X70762130Y-89607898D01*
X70691511Y-89375099D01*
X70576833Y-89160551D01*
X70422502Y-88972498D01*
X70273238Y-88850000D01*
X70287785Y-88838061D01*
X98315000Y-88838061D01*
X98315000Y-89041939D01*
X98354774Y-89241898D01*
X98432795Y-89430256D01*
X98546063Y-89599774D01*
X98690226Y-89743937D01*
X98859744Y-89857205D01*
X99048102Y-89935226D01*
X99248061Y-89975000D01*
X99451939Y-89975000D01*
X99651898Y-89935226D01*
X99840256Y-89857205D01*
X100009774Y-89743937D01*
X100153937Y-89599774D01*
X100267205Y-89430256D01*
X100344953Y-89242556D01*
X100508061Y-89275000D01*
X100711939Y-89275000D01*
X100911898Y-89235226D01*
X101100256Y-89157205D01*
X101269774Y-89043937D01*
X101413937Y-88899774D01*
X101527205Y-88730256D01*
X101605226Y-88541898D01*
X101645000Y-88341939D01*
X101645000Y-88138061D01*
X101605226Y-87938102D01*
X101527205Y-87749744D01*
X101413937Y-87580226D01*
X101269774Y-87436063D01*
X101100256Y-87322795D01*
X100911898Y-87244774D01*
X100711939Y-87205000D01*
X100508061Y-87205000D01*
X100308102Y-87244774D01*
X100119744Y-87322795D01*
X99950226Y-87436063D01*
X99806063Y-87580226D01*
X99692795Y-87749744D01*
X99615047Y-87937444D01*
X99451939Y-87905000D01*
X99248061Y-87905000D01*
X99048102Y-87944774D01*
X98859744Y-88022795D01*
X98690226Y-88136063D01*
X98546063Y-88280226D01*
X98432795Y-88449744D01*
X98354774Y-88638102D01*
X98315000Y-88838061D01*
X70287785Y-88838061D01*
X70422502Y-88727502D01*
X70576833Y-88539449D01*
X70691511Y-88324901D01*
X70762130Y-88092102D01*
X70785975Y-87850000D01*
X70762130Y-87607898D01*
X70691511Y-87375099D01*
X70576833Y-87160551D01*
X70422502Y-86972498D01*
X70272652Y-86849519D01*
X70336725Y-86806307D01*
X70403488Y-86738967D01*
X72325000Y-86738967D01*
X72325000Y-87061033D01*
X72387832Y-87376912D01*
X72511082Y-87674463D01*
X72690013Y-87942252D01*
X72917748Y-88169987D01*
X73185537Y-88348918D01*
X73483088Y-88472168D01*
X73798967Y-88535000D01*
X74121033Y-88535000D01*
X74436912Y-88472168D01*
X74734463Y-88348918D01*
X75002252Y-88169987D01*
X75136826Y-88035413D01*
X78084192Y-88035413D01*
X78179956Y-88299814D01*
X78469571Y-88440704D01*
X78781108Y-88522384D01*
X79102595Y-88541718D01*
X79421675Y-88497961D01*
X79726088Y-88392795D01*
X79900044Y-88299814D01*
X79995808Y-88035413D01*
X79040000Y-87079605D01*
X78084192Y-88035413D01*
X75136826Y-88035413D01*
X75229987Y-87942252D01*
X75408918Y-87674463D01*
X75532168Y-87376912D01*
X75595000Y-87061033D01*
X75595000Y-86962595D01*
X77398282Y-86962595D01*
X77442039Y-87281675D01*
X77547205Y-87586088D01*
X77640186Y-87760044D01*
X77904587Y-87855808D01*
X78860395Y-86900000D01*
X79219605Y-86900000D01*
X80175413Y-87855808D01*
X80237280Y-87833400D01*
X80310013Y-87942252D01*
X80537748Y-88169987D01*
X80805537Y-88348918D01*
X81103088Y-88472168D01*
X81418967Y-88535000D01*
X81741033Y-88535000D01*
X82056912Y-88472168D01*
X82354463Y-88348918D01*
X82622252Y-88169987D01*
X82849987Y-87942252D01*
X82850000Y-87942233D01*
X82850013Y-87942252D01*
X83077748Y-88169987D01*
X83345537Y-88348918D01*
X83643088Y-88472168D01*
X83958967Y-88535000D01*
X84281033Y-88535000D01*
X84596912Y-88472168D01*
X84894463Y-88348918D01*
X85162252Y-88169987D01*
X85389987Y-87942252D01*
X85390000Y-87942233D01*
X85390013Y-87942252D01*
X85617748Y-88169987D01*
X85885537Y-88348918D01*
X86183088Y-88472168D01*
X86498967Y-88535000D01*
X86821033Y-88535000D01*
X87136912Y-88472168D01*
X87434463Y-88348918D01*
X87702252Y-88169987D01*
X87929987Y-87942252D01*
X88108918Y-87674463D01*
X88232168Y-87376912D01*
X88295000Y-87061033D01*
X88295000Y-86738967D01*
X88232168Y-86423088D01*
X88108918Y-86125537D01*
X87929987Y-85857748D01*
X87810300Y-85738061D01*
X89175000Y-85738061D01*
X89175000Y-85941939D01*
X89214774Y-86141898D01*
X89292795Y-86330256D01*
X89406063Y-86499774D01*
X89550226Y-86643937D01*
X89719744Y-86757205D01*
X89908102Y-86835226D01*
X90108061Y-86875000D01*
X90311939Y-86875000D01*
X90511898Y-86835226D01*
X90700256Y-86757205D01*
X90869774Y-86643937D01*
X91013937Y-86499774D01*
X91127205Y-86330256D01*
X91205226Y-86141898D01*
X91245000Y-85941939D01*
X91245000Y-85738061D01*
X91205226Y-85538102D01*
X91127205Y-85349744D01*
X91117331Y-85334966D01*
X91147205Y-85290256D01*
X91225226Y-85101898D01*
X91265000Y-84901939D01*
X91265000Y-84698061D01*
X91225226Y-84498102D01*
X91147205Y-84309744D01*
X91033937Y-84140226D01*
X90889774Y-83996063D01*
X90720256Y-83882795D01*
X90531898Y-83804774D01*
X90331939Y-83765000D01*
X90128061Y-83765000D01*
X89928102Y-83804774D01*
X89739744Y-83882795D01*
X89570226Y-83996063D01*
X89426063Y-84140226D01*
X89312795Y-84309744D01*
X89234774Y-84498102D01*
X89195000Y-84698061D01*
X89195000Y-84901939D01*
X89234774Y-85101898D01*
X89312795Y-85290256D01*
X89322669Y-85305034D01*
X89292795Y-85349744D01*
X89214774Y-85538102D01*
X89175000Y-85738061D01*
X87810300Y-85738061D01*
X87702252Y-85630013D01*
X87434463Y-85451082D01*
X87136912Y-85327832D01*
X86821033Y-85265000D01*
X86498967Y-85265000D01*
X86183088Y-85327832D01*
X85885537Y-85451082D01*
X85617748Y-85630013D01*
X85390013Y-85857748D01*
X85390000Y-85857767D01*
X85389987Y-85857748D01*
X85162252Y-85630013D01*
X84894463Y-85451082D01*
X84596912Y-85327832D01*
X84281033Y-85265000D01*
X83958967Y-85265000D01*
X83643088Y-85327832D01*
X83345537Y-85451082D01*
X83077748Y-85630013D01*
X82850013Y-85857748D01*
X82850000Y-85857767D01*
X82849987Y-85857748D01*
X82622252Y-85630013D01*
X82354463Y-85451082D01*
X82056912Y-85327832D01*
X81741033Y-85265000D01*
X81418967Y-85265000D01*
X81103088Y-85327832D01*
X80805537Y-85451082D01*
X80537748Y-85630013D01*
X80310013Y-85857748D01*
X80237280Y-85966600D01*
X80175413Y-85944192D01*
X79219605Y-86900000D01*
X78860395Y-86900000D01*
X77904587Y-85944192D01*
X77640186Y-86039956D01*
X77499296Y-86329571D01*
X77417616Y-86641108D01*
X77398282Y-86962595D01*
X75595000Y-86962595D01*
X75595000Y-86738967D01*
X75532168Y-86423088D01*
X75408918Y-86125537D01*
X75229987Y-85857748D01*
X75136826Y-85764587D01*
X78084192Y-85764587D01*
X79040000Y-86720395D01*
X79995808Y-85764587D01*
X79900044Y-85500186D01*
X79610429Y-85359296D01*
X79298892Y-85277616D01*
X78977405Y-85258282D01*
X78658325Y-85302039D01*
X78353912Y-85407205D01*
X78179956Y-85500186D01*
X78084192Y-85764587D01*
X75136826Y-85764587D01*
X75002252Y-85630013D01*
X74734463Y-85451082D01*
X74436912Y-85327832D01*
X74121033Y-85265000D01*
X73798967Y-85265000D01*
X73483088Y-85327832D01*
X73185537Y-85451082D01*
X72917748Y-85630013D01*
X72690013Y-85857748D01*
X72511082Y-86125537D01*
X72387832Y-86423088D01*
X72325000Y-86738967D01*
X70403488Y-86738967D01*
X70508078Y-86633474D01*
X70642421Y-86430533D01*
X70734591Y-86205282D01*
X70738462Y-86167609D01*
X70613731Y-85977000D01*
X69397000Y-85977000D01*
X69397000Y-85997000D01*
X69143000Y-85997000D01*
X69143000Y-85977000D01*
X67926269Y-85977000D01*
X67801538Y-86167609D01*
X67805409Y-86205282D01*
X67897579Y-86430533D01*
X68031922Y-86633474D01*
X68203275Y-86806307D01*
X68267348Y-86849519D01*
X68117498Y-86972498D01*
X67963167Y-87160551D01*
X67848489Y-87375099D01*
X67777870Y-87607898D01*
X67754025Y-87850000D01*
X66675000Y-87850000D01*
X66675000Y-84167609D01*
X67801538Y-84167609D01*
X67805409Y-84205282D01*
X67897579Y-84430533D01*
X68031922Y-84633474D01*
X68203275Y-84806307D01*
X68268061Y-84850000D01*
X68203275Y-84893693D01*
X68031922Y-85066526D01*
X67897579Y-85269467D01*
X67805409Y-85494718D01*
X67801538Y-85532391D01*
X67926269Y-85723000D01*
X69143000Y-85723000D01*
X69143000Y-83977000D01*
X69397000Y-83977000D01*
X69397000Y-85723000D01*
X70613731Y-85723000D01*
X70738462Y-85532391D01*
X70734591Y-85494718D01*
X70642421Y-85269467D01*
X70508078Y-85066526D01*
X70336725Y-84893693D01*
X70271939Y-84850000D01*
X70336725Y-84806307D01*
X70508078Y-84633474D01*
X70642421Y-84430533D01*
X70734591Y-84205282D01*
X70738462Y-84167609D01*
X70613731Y-83977000D01*
X69397000Y-83977000D01*
X69143000Y-83977000D01*
X67926269Y-83977000D01*
X67801538Y-84167609D01*
X66675000Y-84167609D01*
X66675000Y-82167609D01*
X67801538Y-82167609D01*
X67805409Y-82205282D01*
X67897579Y-82430533D01*
X68031922Y-82633474D01*
X68203275Y-82806307D01*
X68268061Y-82850000D01*
X68203275Y-82893693D01*
X68031922Y-83066526D01*
X67897579Y-83269467D01*
X67805409Y-83494718D01*
X67801538Y-83532391D01*
X67926269Y-83723000D01*
X69143000Y-83723000D01*
X69143000Y-81977000D01*
X69397000Y-81977000D01*
X69397000Y-83723000D01*
X70613731Y-83723000D01*
X70738462Y-83532391D01*
X70737655Y-83524529D01*
X105661468Y-83524529D01*
X105661468Y-83728407D01*
X105701242Y-83928366D01*
X105779263Y-84116724D01*
X105892531Y-84286242D01*
X106036694Y-84430405D01*
X106206212Y-84543673D01*
X106394570Y-84621694D01*
X106594529Y-84661468D01*
X106798407Y-84661468D01*
X106998366Y-84621694D01*
X107186724Y-84543673D01*
X107356242Y-84430405D01*
X107500405Y-84286242D01*
X107613673Y-84116724D01*
X107691694Y-83928366D01*
X107731468Y-83728407D01*
X107731468Y-83524529D01*
X107691694Y-83324570D01*
X107613673Y-83136212D01*
X107500405Y-82966694D01*
X107356242Y-82822531D01*
X107186724Y-82709263D01*
X106998366Y-82631242D01*
X106798407Y-82591468D01*
X106594529Y-82591468D01*
X106394570Y-82631242D01*
X106206212Y-82709263D01*
X106036694Y-82822531D01*
X105892531Y-82966694D01*
X105779263Y-83136212D01*
X105701242Y-83324570D01*
X105661468Y-83524529D01*
X70737655Y-83524529D01*
X70734591Y-83494718D01*
X70642421Y-83269467D01*
X70508078Y-83066526D01*
X70336725Y-82893693D01*
X70271939Y-82850000D01*
X70336725Y-82806307D01*
X70508078Y-82633474D01*
X70642421Y-82430533D01*
X70734591Y-82205282D01*
X70738462Y-82167609D01*
X70613731Y-81977000D01*
X69397000Y-81977000D01*
X69143000Y-81977000D01*
X67926269Y-81977000D01*
X67801538Y-82167609D01*
X66675000Y-82167609D01*
X66675000Y-77850000D01*
X67754025Y-77850000D01*
X67777870Y-78092102D01*
X67848489Y-78324901D01*
X67963167Y-78539449D01*
X68117498Y-78727502D01*
X68266762Y-78850000D01*
X68117498Y-78972498D01*
X67963167Y-79160551D01*
X67848489Y-79375099D01*
X67777870Y-79607898D01*
X67754025Y-79850000D01*
X67777870Y-80092102D01*
X67848489Y-80324901D01*
X67963167Y-80539449D01*
X68117498Y-80727502D01*
X68267348Y-80850481D01*
X68203275Y-80893693D01*
X68031922Y-81066526D01*
X67897579Y-81269467D01*
X67805409Y-81494718D01*
X67801538Y-81532391D01*
X67926269Y-81723000D01*
X69143000Y-81723000D01*
X69143000Y-81703000D01*
X69397000Y-81703000D01*
X69397000Y-81723000D01*
X70613731Y-81723000D01*
X70655633Y-81658967D01*
X72325000Y-81658967D01*
X72325000Y-81981033D01*
X72387832Y-82296912D01*
X72511082Y-82594463D01*
X72690013Y-82862252D01*
X72917748Y-83089987D01*
X73185537Y-83268918D01*
X73483088Y-83392168D01*
X73798967Y-83455000D01*
X74121033Y-83455000D01*
X74436912Y-83392168D01*
X74734463Y-83268918D01*
X75002252Y-83089987D01*
X75136826Y-82955413D01*
X78084192Y-82955413D01*
X78179956Y-83219814D01*
X78469571Y-83360704D01*
X78781108Y-83442384D01*
X79102595Y-83461718D01*
X79421675Y-83417961D01*
X79726088Y-83312795D01*
X79900044Y-83219814D01*
X79995808Y-82955413D01*
X79040000Y-81999605D01*
X78084192Y-82955413D01*
X75136826Y-82955413D01*
X75229987Y-82862252D01*
X75408918Y-82594463D01*
X75532168Y-82296912D01*
X75595000Y-81981033D01*
X75595000Y-81882595D01*
X77398282Y-81882595D01*
X77442039Y-82201675D01*
X77547205Y-82506088D01*
X77640186Y-82680044D01*
X77904587Y-82775808D01*
X78860395Y-81820000D01*
X79219605Y-81820000D01*
X80175413Y-82775808D01*
X80237280Y-82753400D01*
X80310013Y-82862252D01*
X80537748Y-83089987D01*
X80805537Y-83268918D01*
X81103088Y-83392168D01*
X81418967Y-83455000D01*
X81741033Y-83455000D01*
X82056912Y-83392168D01*
X82354463Y-83268918D01*
X82622252Y-83089987D01*
X82849987Y-82862252D01*
X82850000Y-82862233D01*
X82850013Y-82862252D01*
X83077748Y-83089987D01*
X83345537Y-83268918D01*
X83643088Y-83392168D01*
X83958967Y-83455000D01*
X84281033Y-83455000D01*
X84596912Y-83392168D01*
X84894463Y-83268918D01*
X85162252Y-83089987D01*
X85389987Y-82862252D01*
X85390000Y-82862233D01*
X85390013Y-82862252D01*
X85617748Y-83089987D01*
X85885537Y-83268918D01*
X86183088Y-83392168D01*
X86498967Y-83455000D01*
X86821033Y-83455000D01*
X87136912Y-83392168D01*
X87434463Y-83268918D01*
X87702252Y-83089987D01*
X87929987Y-82862252D01*
X88108918Y-82594463D01*
X88232168Y-82296912D01*
X88295000Y-81981033D01*
X88295000Y-81658967D01*
X88232168Y-81343088D01*
X88108918Y-81045537D01*
X87929987Y-80777748D01*
X87702252Y-80550013D01*
X87434463Y-80371082D01*
X87136912Y-80247832D01*
X86821033Y-80185000D01*
X86498967Y-80185000D01*
X86183088Y-80247832D01*
X85885537Y-80371082D01*
X85617748Y-80550013D01*
X85390013Y-80777748D01*
X85390000Y-80777767D01*
X85389987Y-80777748D01*
X85162252Y-80550013D01*
X84894463Y-80371082D01*
X84596912Y-80247832D01*
X84281033Y-80185000D01*
X83958967Y-80185000D01*
X83643088Y-80247832D01*
X83345537Y-80371082D01*
X83077748Y-80550013D01*
X82850013Y-80777748D01*
X82850000Y-80777767D01*
X82849987Y-80777748D01*
X82622252Y-80550013D01*
X82354463Y-80371082D01*
X82056912Y-80247832D01*
X81741033Y-80185000D01*
X81418967Y-80185000D01*
X81103088Y-80247832D01*
X80805537Y-80371082D01*
X80537748Y-80550013D01*
X80310013Y-80777748D01*
X80237280Y-80886600D01*
X80175413Y-80864192D01*
X79219605Y-81820000D01*
X78860395Y-81820000D01*
X77904587Y-80864192D01*
X77640186Y-80959956D01*
X77499296Y-81249571D01*
X77417616Y-81561108D01*
X77398282Y-81882595D01*
X75595000Y-81882595D01*
X75595000Y-81658967D01*
X75532168Y-81343088D01*
X75408918Y-81045537D01*
X75229987Y-80777748D01*
X75136826Y-80684587D01*
X78084192Y-80684587D01*
X79040000Y-81640395D01*
X79995808Y-80684587D01*
X79900044Y-80420186D01*
X79610429Y-80279296D01*
X79298892Y-80197616D01*
X78977405Y-80178282D01*
X78658325Y-80222039D01*
X78353912Y-80327205D01*
X78179956Y-80420186D01*
X78084192Y-80684587D01*
X75136826Y-80684587D01*
X75002252Y-80550013D01*
X74734463Y-80371082D01*
X74436912Y-80247832D01*
X74121033Y-80185000D01*
X73798967Y-80185000D01*
X73483088Y-80247832D01*
X73185537Y-80371082D01*
X72917748Y-80550013D01*
X72690013Y-80777748D01*
X72511082Y-81045537D01*
X72387832Y-81343088D01*
X72325000Y-81658967D01*
X70655633Y-81658967D01*
X70738462Y-81532391D01*
X70734591Y-81494718D01*
X70642421Y-81269467D01*
X70508078Y-81066526D01*
X70336725Y-80893693D01*
X70272652Y-80850481D01*
X70422502Y-80727502D01*
X70576833Y-80539449D01*
X70691511Y-80324901D01*
X70762130Y-80092102D01*
X70785975Y-79850000D01*
X70762130Y-79607898D01*
X70691511Y-79375099D01*
X70576833Y-79160551D01*
X70422502Y-78972498D01*
X70273238Y-78850000D01*
X70422502Y-78727502D01*
X70576833Y-78539449D01*
X70691511Y-78324901D01*
X70762130Y-78092102D01*
X70785975Y-77850000D01*
X70762130Y-77607898D01*
X70756701Y-77590000D01*
X75599388Y-77590000D01*
X75621785Y-77817400D01*
X75685093Y-78026098D01*
X75650498Y-78090820D01*
X75614188Y-78210518D01*
X75601928Y-78335000D01*
X75601928Y-79385000D01*
X75614188Y-79509482D01*
X75650498Y-79629180D01*
X75709463Y-79739494D01*
X75788815Y-79836185D01*
X75885506Y-79915537D01*
X75995820Y-79974502D01*
X76115518Y-80010812D01*
X76240000Y-80023072D01*
X77740000Y-80023072D01*
X77864482Y-80010812D01*
X77984180Y-79974502D01*
X78094494Y-79915537D01*
X78191185Y-79836185D01*
X78270537Y-79739494D01*
X78329502Y-79629180D01*
X78365812Y-79509482D01*
X78378072Y-79385000D01*
X78378072Y-78335000D01*
X78365812Y-78210518D01*
X78329502Y-78090820D01*
X78294907Y-78026098D01*
X78358215Y-77817400D01*
X78377854Y-77618000D01*
X84799388Y-77618000D01*
X84821785Y-77845400D01*
X84885093Y-78054098D01*
X84850498Y-78118820D01*
X84814188Y-78238518D01*
X84801928Y-78363000D01*
X84801928Y-79413000D01*
X84814188Y-79537482D01*
X84850498Y-79657180D01*
X84909463Y-79767494D01*
X84988815Y-79864185D01*
X85085506Y-79943537D01*
X85195820Y-80002502D01*
X85315518Y-80038812D01*
X85440000Y-80051072D01*
X86940000Y-80051072D01*
X87064482Y-80038812D01*
X87184180Y-80002502D01*
X87294494Y-79943537D01*
X87391185Y-79864185D01*
X87470537Y-79767494D01*
X87529502Y-79657180D01*
X87565812Y-79537482D01*
X87578072Y-79413000D01*
X87578072Y-78363000D01*
X87565812Y-78238518D01*
X87529502Y-78118820D01*
X87494907Y-78054098D01*
X87558215Y-77845400D01*
X87580612Y-77618000D01*
X87558215Y-77390600D01*
X87491885Y-77171940D01*
X87391071Y-76983331D01*
X87432275Y-76924882D01*
X87525272Y-76715337D01*
X87533964Y-76653810D01*
X87529920Y-76648061D01*
X89295000Y-76648061D01*
X89295000Y-76851939D01*
X89334774Y-77051898D01*
X89412795Y-77240256D01*
X89422647Y-77255000D01*
X89412795Y-77269744D01*
X89334774Y-77458102D01*
X89295000Y-77658061D01*
X89295000Y-77861939D01*
X89334774Y-78061898D01*
X89412795Y-78250256D01*
X89422647Y-78265000D01*
X89412795Y-78279744D01*
X89334774Y-78468102D01*
X89295000Y-78668061D01*
X89295000Y-78871939D01*
X89334774Y-79071898D01*
X89412795Y-79260256D01*
X89422647Y-79275000D01*
X89412795Y-79289744D01*
X89334774Y-79478102D01*
X89295000Y-79678061D01*
X89295000Y-79881939D01*
X89334774Y-80081898D01*
X89412795Y-80270256D01*
X89526063Y-80439774D01*
X89670226Y-80583937D01*
X89839744Y-80697205D01*
X90028102Y-80775226D01*
X90228061Y-80815000D01*
X90431939Y-80815000D01*
X90631898Y-80775226D01*
X90820256Y-80697205D01*
X90989774Y-80583937D01*
X91133937Y-80439774D01*
X91247205Y-80270256D01*
X91325226Y-80081898D01*
X91365000Y-79881939D01*
X91365000Y-79678061D01*
X91325226Y-79478102D01*
X91247205Y-79289744D01*
X91237353Y-79275000D01*
X91247205Y-79260256D01*
X91325226Y-79071898D01*
X91365000Y-78871939D01*
X91365000Y-78668061D01*
X91325226Y-78468102D01*
X91247205Y-78279744D01*
X91237353Y-78265000D01*
X91247205Y-78250256D01*
X91325226Y-78061898D01*
X91365000Y-77861939D01*
X91365000Y-77658061D01*
X91325226Y-77458102D01*
X91312783Y-77428061D01*
X92705000Y-77428061D01*
X92705000Y-77631939D01*
X92744774Y-77831898D01*
X92822795Y-78020256D01*
X92936063Y-78189774D01*
X93080226Y-78333937D01*
X93249744Y-78447205D01*
X93438102Y-78525226D01*
X93638061Y-78565000D01*
X93841939Y-78565000D01*
X94041898Y-78525226D01*
X94230256Y-78447205D01*
X94399774Y-78333937D01*
X94543937Y-78189774D01*
X94657205Y-78020256D01*
X94735226Y-77831898D01*
X94775000Y-77631939D01*
X94775000Y-77428061D01*
X94735226Y-77228102D01*
X94693788Y-77128061D01*
X103255000Y-77128061D01*
X103255000Y-77331939D01*
X103294774Y-77531898D01*
X103345765Y-77655000D01*
X103294774Y-77778102D01*
X103255000Y-77978061D01*
X103255000Y-78181939D01*
X103294774Y-78381898D01*
X103347836Y-78510000D01*
X103294774Y-78638102D01*
X103255000Y-78838061D01*
X103255000Y-79041939D01*
X103294774Y-79241898D01*
X103372795Y-79430256D01*
X103486063Y-79599774D01*
X103630226Y-79743937D01*
X103799744Y-79857205D01*
X103988102Y-79935226D01*
X104188061Y-79975000D01*
X104391939Y-79975000D01*
X104591898Y-79935226D01*
X104780256Y-79857205D01*
X104949774Y-79743937D01*
X105093937Y-79599774D01*
X105207205Y-79430256D01*
X105285226Y-79241898D01*
X105325000Y-79041939D01*
X105325000Y-78838061D01*
X105285226Y-78638102D01*
X105232164Y-78510000D01*
X105285226Y-78381898D01*
X105325000Y-78181939D01*
X105325000Y-77978061D01*
X105310263Y-77903974D01*
X105390226Y-77983937D01*
X105559744Y-78097205D01*
X105748102Y-78175226D01*
X105948061Y-78215000D01*
X106151939Y-78215000D01*
X106351898Y-78175226D01*
X106540256Y-78097205D01*
X106709774Y-77983937D01*
X106853937Y-77839774D01*
X106967205Y-77670256D01*
X107045226Y-77481898D01*
X107085000Y-77281939D01*
X107085000Y-77078061D01*
X107045226Y-76878102D01*
X106967205Y-76689744D01*
X106853937Y-76520226D01*
X106709774Y-76376063D01*
X106540256Y-76262795D01*
X106351898Y-76184774D01*
X106151939Y-76145000D01*
X105948061Y-76145000D01*
X105748102Y-76184774D01*
X105559744Y-76262795D01*
X105390226Y-76376063D01*
X105246063Y-76520226D01*
X105153296Y-76659063D01*
X105093937Y-76570226D01*
X104949774Y-76426063D01*
X104780256Y-76312795D01*
X104591898Y-76234774D01*
X104391939Y-76195000D01*
X104188061Y-76195000D01*
X103988102Y-76234774D01*
X103799744Y-76312795D01*
X103630226Y-76426063D01*
X103486063Y-76570226D01*
X103372795Y-76739744D01*
X103294774Y-76928102D01*
X103255000Y-77128061D01*
X94693788Y-77128061D01*
X94657205Y-77039744D01*
X94543937Y-76870226D01*
X94399774Y-76726063D01*
X94230256Y-76612795D01*
X94041898Y-76534774D01*
X93841939Y-76495000D01*
X93638061Y-76495000D01*
X93438102Y-76534774D01*
X93249744Y-76612795D01*
X93080226Y-76726063D01*
X92936063Y-76870226D01*
X92822795Y-77039744D01*
X92744774Y-77228102D01*
X92705000Y-77428061D01*
X91312783Y-77428061D01*
X91247205Y-77269744D01*
X91237353Y-77255000D01*
X91247205Y-77240256D01*
X91325226Y-77051898D01*
X91365000Y-76851939D01*
X91365000Y-76648061D01*
X91325226Y-76448102D01*
X91247205Y-76259744D01*
X91133937Y-76090226D01*
X91133711Y-76090000D01*
X91143937Y-76079774D01*
X91257205Y-75910256D01*
X91335226Y-75721898D01*
X91375000Y-75521939D01*
X91375000Y-75318061D01*
X91335226Y-75118102D01*
X91257205Y-74929744D01*
X91173854Y-74805000D01*
X91257205Y-74680256D01*
X91335226Y-74491898D01*
X91375000Y-74291939D01*
X91375000Y-74088061D01*
X91335226Y-73888102D01*
X91257205Y-73699744D01*
X91203922Y-73620000D01*
X91257205Y-73540256D01*
X91335226Y-73351898D01*
X91375000Y-73151939D01*
X91375000Y-72948061D01*
X91367044Y-72908061D01*
X92935000Y-72908061D01*
X92935000Y-73111939D01*
X92974774Y-73311898D01*
X93038191Y-73465000D01*
X92974774Y-73618102D01*
X92935000Y-73818061D01*
X92935000Y-74021939D01*
X92974774Y-74221898D01*
X93052795Y-74410256D01*
X93166063Y-74579774D01*
X93310226Y-74723937D01*
X93479744Y-74837205D01*
X93668102Y-74915226D01*
X93868061Y-74955000D01*
X94071939Y-74955000D01*
X94271898Y-74915226D01*
X94460256Y-74837205D01*
X94629774Y-74723937D01*
X94773937Y-74579774D01*
X94887205Y-74410256D01*
X94965226Y-74221898D01*
X95005000Y-74021939D01*
X95005000Y-73818061D01*
X94965226Y-73618102D01*
X94901809Y-73465000D01*
X94965226Y-73311898D01*
X95005000Y-73111939D01*
X95005000Y-72908061D01*
X94965226Y-72708102D01*
X94887205Y-72519744D01*
X94773937Y-72350226D01*
X94629774Y-72206063D01*
X94460256Y-72092795D01*
X94271898Y-72014774D01*
X94071939Y-71975000D01*
X93868061Y-71975000D01*
X93668102Y-72014774D01*
X93479744Y-72092795D01*
X93310226Y-72206063D01*
X93166063Y-72350226D01*
X93052795Y-72519744D01*
X92974774Y-72708102D01*
X92935000Y-72908061D01*
X91367044Y-72908061D01*
X91335226Y-72748102D01*
X91257205Y-72559744D01*
X91143937Y-72390226D01*
X90999774Y-72246063D01*
X90830256Y-72132795D01*
X90641898Y-72054774D01*
X90441939Y-72015000D01*
X90238061Y-72015000D01*
X90038102Y-72054774D01*
X89849744Y-72132795D01*
X89680226Y-72246063D01*
X89536063Y-72390226D01*
X89422795Y-72559744D01*
X89344774Y-72748102D01*
X89305000Y-72948061D01*
X89305000Y-73151939D01*
X89344774Y-73351898D01*
X89422795Y-73540256D01*
X89476078Y-73620000D01*
X89422795Y-73699744D01*
X89344774Y-73888102D01*
X89305000Y-74088061D01*
X89305000Y-74291939D01*
X89344774Y-74491898D01*
X89422795Y-74680256D01*
X89506146Y-74805000D01*
X89422795Y-74929744D01*
X89344774Y-75118102D01*
X89305000Y-75318061D01*
X89305000Y-75521939D01*
X89344774Y-75721898D01*
X89422795Y-75910256D01*
X89536063Y-76079774D01*
X89536289Y-76080000D01*
X89526063Y-76090226D01*
X89412795Y-76259744D01*
X89334774Y-76448102D01*
X89295000Y-76648061D01*
X87529920Y-76648061D01*
X87408163Y-76475000D01*
X86643109Y-76475000D01*
X86642400Y-76474785D01*
X86471979Y-76458000D01*
X85908021Y-76458000D01*
X85737600Y-76474785D01*
X85736891Y-76475000D01*
X84971837Y-76475000D01*
X84846036Y-76653810D01*
X84854728Y-76715337D01*
X84947725Y-76924882D01*
X84988929Y-76983331D01*
X84888115Y-77171940D01*
X84821785Y-77390600D01*
X84799388Y-77618000D01*
X78377854Y-77618000D01*
X78380612Y-77590000D01*
X78358215Y-77362600D01*
X78291885Y-77143940D01*
X78191071Y-76955331D01*
X78232275Y-76896882D01*
X78325272Y-76687337D01*
X78333964Y-76625810D01*
X78208163Y-76447000D01*
X77443109Y-76447000D01*
X77442400Y-76446785D01*
X77271979Y-76430000D01*
X76708021Y-76430000D01*
X76537600Y-76446785D01*
X76536891Y-76447000D01*
X75771837Y-76447000D01*
X75646036Y-76625810D01*
X75654728Y-76687337D01*
X75747725Y-76896882D01*
X75788929Y-76955331D01*
X75688115Y-77143940D01*
X75621785Y-77362600D01*
X75599388Y-77590000D01*
X70756701Y-77590000D01*
X70691511Y-77375099D01*
X70576833Y-77160551D01*
X70450564Y-77006691D01*
X70499494Y-76980537D01*
X70596185Y-76901185D01*
X70675537Y-76804494D01*
X70734502Y-76694180D01*
X70770812Y-76574482D01*
X70783072Y-76450000D01*
X70780000Y-76135750D01*
X70658440Y-76014190D01*
X75646036Y-76014190D01*
X75771837Y-76193000D01*
X76863000Y-76193000D01*
X76863000Y-75313402D01*
X77117000Y-75313402D01*
X77117000Y-76193000D01*
X78208163Y-76193000D01*
X78314264Y-76042190D01*
X84846036Y-76042190D01*
X84971837Y-76221000D01*
X86063000Y-76221000D01*
X86063000Y-75341402D01*
X86317000Y-75341402D01*
X86317000Y-76221000D01*
X87408163Y-76221000D01*
X87533964Y-76042190D01*
X87525272Y-75980663D01*
X87432275Y-75771118D01*
X87300184Y-75583742D01*
X87134076Y-75425736D01*
X86940334Y-75303172D01*
X86726404Y-75220761D01*
X86500507Y-75181669D01*
X86317000Y-75341402D01*
X86063000Y-75341402D01*
X85879493Y-75181669D01*
X85653596Y-75220761D01*
X85439666Y-75303172D01*
X85245924Y-75425736D01*
X85079816Y-75583742D01*
X84947725Y-75771118D01*
X84854728Y-75980663D01*
X84846036Y-76042190D01*
X78314264Y-76042190D01*
X78333964Y-76014190D01*
X78325272Y-75952663D01*
X78232275Y-75743118D01*
X78100184Y-75555742D01*
X77934076Y-75397736D01*
X77740334Y-75275172D01*
X77526404Y-75192761D01*
X77300507Y-75153669D01*
X77117000Y-75313402D01*
X76863000Y-75313402D01*
X76679493Y-75153669D01*
X76453596Y-75192761D01*
X76239666Y-75275172D01*
X76045924Y-75397736D01*
X75879816Y-75555742D01*
X75747725Y-75743118D01*
X75654728Y-75952663D01*
X75646036Y-76014190D01*
X70658440Y-76014190D01*
X70621250Y-75977000D01*
X69397000Y-75977000D01*
X69397000Y-75997000D01*
X69143000Y-75997000D01*
X69143000Y-75977000D01*
X67918750Y-75977000D01*
X67760000Y-76135750D01*
X67756928Y-76450000D01*
X67769188Y-76574482D01*
X67805498Y-76694180D01*
X67864463Y-76804494D01*
X67943815Y-76901185D01*
X68040506Y-76980537D01*
X68089436Y-77006691D01*
X67963167Y-77160551D01*
X67848489Y-77375099D01*
X67777870Y-77607898D01*
X67754025Y-77850000D01*
X66675000Y-77850000D01*
X66675000Y-75250000D01*
X67756928Y-75250000D01*
X67760000Y-75564250D01*
X67918750Y-75723000D01*
X69143000Y-75723000D01*
X69143000Y-74773750D01*
X69397000Y-74773750D01*
X69397000Y-75723000D01*
X70621250Y-75723000D01*
X70780000Y-75564250D01*
X70783072Y-75250000D01*
X70770812Y-75125518D01*
X70734502Y-75005820D01*
X70675537Y-74895506D01*
X70596185Y-74798815D01*
X70499494Y-74719463D01*
X70389180Y-74660498D01*
X70269482Y-74624188D01*
X70145000Y-74611928D01*
X69555750Y-74615000D01*
X69397000Y-74773750D01*
X69143000Y-74773750D01*
X68984250Y-74615000D01*
X68395000Y-74611928D01*
X68270518Y-74624188D01*
X68150820Y-74660498D01*
X68040506Y-74719463D01*
X67943815Y-74798815D01*
X67864463Y-74895506D01*
X67805498Y-75005820D01*
X67769188Y-75125518D01*
X67756928Y-75250000D01*
X66675000Y-75250000D01*
X66675000Y-71404967D01*
X67697000Y-71404967D01*
X67697000Y-71727033D01*
X67759832Y-72042912D01*
X67883082Y-72340463D01*
X68062013Y-72608252D01*
X68289748Y-72835987D01*
X68557537Y-73014918D01*
X68855088Y-73138168D01*
X69170967Y-73201000D01*
X69493033Y-73201000D01*
X69808912Y-73138168D01*
X70106463Y-73014918D01*
X70374252Y-72835987D01*
X70601987Y-72608252D01*
X70602000Y-72608233D01*
X70602013Y-72608252D01*
X70829748Y-72835987D01*
X71097537Y-73014918D01*
X71395088Y-73138168D01*
X71710967Y-73201000D01*
X72033033Y-73201000D01*
X72348912Y-73138168D01*
X72646463Y-73014918D01*
X72914252Y-72835987D01*
X73141987Y-72608252D01*
X73142000Y-72608233D01*
X73142013Y-72608252D01*
X73369748Y-72835987D01*
X73637537Y-73014918D01*
X73935088Y-73138168D01*
X74250967Y-73201000D01*
X74573033Y-73201000D01*
X74888912Y-73138168D01*
X75186463Y-73014918D01*
X75454252Y-72835987D01*
X75681987Y-72608252D01*
X75682000Y-72608233D01*
X75682013Y-72608252D01*
X75909748Y-72835987D01*
X76177537Y-73014918D01*
X76475088Y-73138168D01*
X76790967Y-73201000D01*
X77113033Y-73201000D01*
X77428912Y-73138168D01*
X77726463Y-73014918D01*
X77994252Y-72835987D01*
X78221987Y-72608252D01*
X78222000Y-72608233D01*
X78222013Y-72608252D01*
X78449748Y-72835987D01*
X78717537Y-73014918D01*
X79015088Y-73138168D01*
X79330967Y-73201000D01*
X79653033Y-73201000D01*
X79968912Y-73138168D01*
X80266463Y-73014918D01*
X80534252Y-72835987D01*
X80761987Y-72608252D01*
X80762000Y-72608233D01*
X80762013Y-72608252D01*
X80989748Y-72835987D01*
X81257537Y-73014918D01*
X81555088Y-73138168D01*
X81870967Y-73201000D01*
X82193033Y-73201000D01*
X82508912Y-73138168D01*
X82806463Y-73014918D01*
X83074252Y-72835987D01*
X83301987Y-72608252D01*
X83302000Y-72608233D01*
X83302013Y-72608252D01*
X83529748Y-72835987D01*
X83797537Y-73014918D01*
X84095088Y-73138168D01*
X84410967Y-73201000D01*
X84733033Y-73201000D01*
X85048912Y-73138168D01*
X85346463Y-73014918D01*
X85614252Y-72835987D01*
X85841987Y-72608252D01*
X85842000Y-72608233D01*
X85842013Y-72608252D01*
X86069748Y-72835987D01*
X86337537Y-73014918D01*
X86635088Y-73138168D01*
X86950967Y-73201000D01*
X87273033Y-73201000D01*
X87588912Y-73138168D01*
X87886463Y-73014918D01*
X88154252Y-72835987D01*
X88381987Y-72608252D01*
X88560918Y-72340463D01*
X88684168Y-72042912D01*
X88747000Y-71727033D01*
X88747000Y-71404967D01*
X88684168Y-71089088D01*
X88560918Y-70791537D01*
X88381987Y-70523748D01*
X88154252Y-70296013D01*
X87886463Y-70117082D01*
X87588912Y-69993832D01*
X87273033Y-69931000D01*
X86950967Y-69931000D01*
X86635088Y-69993832D01*
X86337537Y-70117082D01*
X86069748Y-70296013D01*
X85842013Y-70523748D01*
X85842000Y-70523767D01*
X85841987Y-70523748D01*
X85614252Y-70296013D01*
X85346463Y-70117082D01*
X85048912Y-69993832D01*
X84733033Y-69931000D01*
X84410967Y-69931000D01*
X84095088Y-69993832D01*
X83797537Y-70117082D01*
X83529748Y-70296013D01*
X83302013Y-70523748D01*
X83302000Y-70523767D01*
X83301987Y-70523748D01*
X83074252Y-70296013D01*
X82806463Y-70117082D01*
X82508912Y-69993832D01*
X82193033Y-69931000D01*
X81870967Y-69931000D01*
X81555088Y-69993832D01*
X81257537Y-70117082D01*
X80989748Y-70296013D01*
X80762013Y-70523748D01*
X80762000Y-70523767D01*
X80761987Y-70523748D01*
X80534252Y-70296013D01*
X80266463Y-70117082D01*
X79968912Y-69993832D01*
X79653033Y-69931000D01*
X79330967Y-69931000D01*
X79015088Y-69993832D01*
X78717537Y-70117082D01*
X78449748Y-70296013D01*
X78222013Y-70523748D01*
X78222000Y-70523767D01*
X78221987Y-70523748D01*
X77994252Y-70296013D01*
X77726463Y-70117082D01*
X77428912Y-69993832D01*
X77113033Y-69931000D01*
X76790967Y-69931000D01*
X76475088Y-69993832D01*
X76177537Y-70117082D01*
X75909748Y-70296013D01*
X75682013Y-70523748D01*
X75682000Y-70523767D01*
X75681987Y-70523748D01*
X75454252Y-70296013D01*
X75186463Y-70117082D01*
X74888912Y-69993832D01*
X74573033Y-69931000D01*
X74250967Y-69931000D01*
X73935088Y-69993832D01*
X73637537Y-70117082D01*
X73369748Y-70296013D01*
X73142013Y-70523748D01*
X73142000Y-70523767D01*
X73141987Y-70523748D01*
X72914252Y-70296013D01*
X72646463Y-70117082D01*
X72348912Y-69993832D01*
X72033033Y-69931000D01*
X71710967Y-69931000D01*
X71395088Y-69993832D01*
X71097537Y-70117082D01*
X70829748Y-70296013D01*
X70602013Y-70523748D01*
X70602000Y-70523767D01*
X70601987Y-70523748D01*
X70374252Y-70296013D01*
X70106463Y-70117082D01*
X69808912Y-69993832D01*
X69493033Y-69931000D01*
X69170967Y-69931000D01*
X68855088Y-69993832D01*
X68557537Y-70117082D01*
X68289748Y-70296013D01*
X68062013Y-70523748D01*
X67883082Y-70791537D01*
X67759832Y-71089088D01*
X67697000Y-71404967D01*
X66675000Y-71404967D01*
X66675000Y-65408061D01*
X108845000Y-65408061D01*
X108845000Y-65611939D01*
X108884774Y-65811898D01*
X108962795Y-66000256D01*
X109076063Y-66169774D01*
X109096289Y-66190000D01*
X109076063Y-66210226D01*
X108962795Y-66379744D01*
X108884774Y-66568102D01*
X108845000Y-66768061D01*
X108845000Y-66971939D01*
X108884774Y-67171898D01*
X108962795Y-67360256D01*
X109076063Y-67529774D01*
X109220226Y-67673937D01*
X109389744Y-67787205D01*
X109578102Y-67865226D01*
X109778061Y-67905000D01*
X109981939Y-67905000D01*
X110181898Y-67865226D01*
X110370256Y-67787205D01*
X110539774Y-67673937D01*
X110683937Y-67529774D01*
X110797205Y-67360256D01*
X110875226Y-67171898D01*
X110915000Y-66971939D01*
X110915000Y-66768061D01*
X110875226Y-66568102D01*
X110797205Y-66379744D01*
X110683937Y-66210226D01*
X110663711Y-66190000D01*
X110683937Y-66169774D01*
X110797205Y-66000256D01*
X110875226Y-65811898D01*
X110915000Y-65611939D01*
X110915000Y-65408061D01*
X110875226Y-65208102D01*
X110797205Y-65019744D01*
X110683937Y-64850226D01*
X110539774Y-64706063D01*
X110370256Y-64592795D01*
X110181898Y-64514774D01*
X109981939Y-64475000D01*
X109778061Y-64475000D01*
X109578102Y-64514774D01*
X109389744Y-64592795D01*
X109220226Y-64706063D01*
X109076063Y-64850226D01*
X108962795Y-65019744D01*
X108884774Y-65208102D01*
X108845000Y-65408061D01*
X66675000Y-65408061D01*
X66675000Y-60001413D01*
X68376192Y-60001413D01*
X68471956Y-60265814D01*
X68761571Y-60406704D01*
X69073108Y-60488384D01*
X69394595Y-60507718D01*
X69713675Y-60463961D01*
X70018088Y-60358795D01*
X70192044Y-60265814D01*
X70287808Y-60001413D01*
X69332000Y-59045605D01*
X68376192Y-60001413D01*
X66675000Y-60001413D01*
X66675000Y-58928595D01*
X67690282Y-58928595D01*
X67734039Y-59247675D01*
X67839205Y-59552088D01*
X67932186Y-59726044D01*
X68196587Y-59821808D01*
X69152395Y-58866000D01*
X69511605Y-58866000D01*
X70467413Y-59821808D01*
X70529280Y-59799400D01*
X70602013Y-59908252D01*
X70829748Y-60135987D01*
X71097537Y-60314918D01*
X71395088Y-60438168D01*
X71710967Y-60501000D01*
X72033033Y-60501000D01*
X72348912Y-60438168D01*
X72646463Y-60314918D01*
X72914252Y-60135987D01*
X73141987Y-59908252D01*
X73142000Y-59908233D01*
X73142013Y-59908252D01*
X73369748Y-60135987D01*
X73637537Y-60314918D01*
X73935088Y-60438168D01*
X74250967Y-60501000D01*
X74573033Y-60501000D01*
X74888912Y-60438168D01*
X75186463Y-60314918D01*
X75454252Y-60135987D01*
X75681987Y-59908252D01*
X75682000Y-59908233D01*
X75682013Y-59908252D01*
X75909748Y-60135987D01*
X76177537Y-60314918D01*
X76475088Y-60438168D01*
X76790967Y-60501000D01*
X77113033Y-60501000D01*
X77428912Y-60438168D01*
X77726463Y-60314918D01*
X77994252Y-60135987D01*
X78221987Y-59908252D01*
X78222000Y-59908233D01*
X78222013Y-59908252D01*
X78449748Y-60135987D01*
X78717537Y-60314918D01*
X79015088Y-60438168D01*
X79330967Y-60501000D01*
X79653033Y-60501000D01*
X79968912Y-60438168D01*
X80266463Y-60314918D01*
X80534252Y-60135987D01*
X80761987Y-59908252D01*
X80762000Y-59908233D01*
X80762013Y-59908252D01*
X80989748Y-60135987D01*
X81257537Y-60314918D01*
X81555088Y-60438168D01*
X81870967Y-60501000D01*
X82193033Y-60501000D01*
X82508912Y-60438168D01*
X82806463Y-60314918D01*
X83074252Y-60135987D01*
X83208826Y-60001413D01*
X83616192Y-60001413D01*
X83711956Y-60265814D01*
X84001571Y-60406704D01*
X84313108Y-60488384D01*
X84634595Y-60507718D01*
X84953675Y-60463961D01*
X85258088Y-60358795D01*
X85432044Y-60265814D01*
X85527808Y-60001413D01*
X84572000Y-59045605D01*
X83616192Y-60001413D01*
X83208826Y-60001413D01*
X83301987Y-59908252D01*
X83374720Y-59799400D01*
X83436587Y-59821808D01*
X84392395Y-58866000D01*
X83436587Y-57910192D01*
X83374720Y-57932600D01*
X83301987Y-57823748D01*
X83208826Y-57730587D01*
X83616192Y-57730587D01*
X84572000Y-58686395D01*
X85527808Y-57730587D01*
X85432044Y-57466186D01*
X85142429Y-57325296D01*
X84830892Y-57243616D01*
X84509405Y-57224282D01*
X84190325Y-57268039D01*
X83885912Y-57373205D01*
X83711956Y-57466186D01*
X83616192Y-57730587D01*
X83208826Y-57730587D01*
X83074252Y-57596013D01*
X82806463Y-57417082D01*
X82508912Y-57293832D01*
X82193033Y-57231000D01*
X81870967Y-57231000D01*
X81555088Y-57293832D01*
X81257537Y-57417082D01*
X80989748Y-57596013D01*
X80762013Y-57823748D01*
X80762000Y-57823767D01*
X80761987Y-57823748D01*
X80534252Y-57596013D01*
X80266463Y-57417082D01*
X79968912Y-57293832D01*
X79653033Y-57231000D01*
X79330967Y-57231000D01*
X79015088Y-57293832D01*
X78717537Y-57417082D01*
X78449748Y-57596013D01*
X78222013Y-57823748D01*
X78222000Y-57823767D01*
X78221987Y-57823748D01*
X77994252Y-57596013D01*
X77726463Y-57417082D01*
X77428912Y-57293832D01*
X77113033Y-57231000D01*
X76790967Y-57231000D01*
X76475088Y-57293832D01*
X76177537Y-57417082D01*
X75909748Y-57596013D01*
X75682013Y-57823748D01*
X75682000Y-57823767D01*
X75681987Y-57823748D01*
X75454252Y-57596013D01*
X75186463Y-57417082D01*
X74888912Y-57293832D01*
X74573033Y-57231000D01*
X74250967Y-57231000D01*
X73935088Y-57293832D01*
X73637537Y-57417082D01*
X73369748Y-57596013D01*
X73142013Y-57823748D01*
X73142000Y-57823767D01*
X73141987Y-57823748D01*
X72914252Y-57596013D01*
X72646463Y-57417082D01*
X72348912Y-57293832D01*
X72033033Y-57231000D01*
X71710967Y-57231000D01*
X71395088Y-57293832D01*
X71097537Y-57417082D01*
X70829748Y-57596013D01*
X70602013Y-57823748D01*
X70529280Y-57932600D01*
X70467413Y-57910192D01*
X69511605Y-58866000D01*
X69152395Y-58866000D01*
X68196587Y-57910192D01*
X67932186Y-58005956D01*
X67791296Y-58295571D01*
X67709616Y-58607108D01*
X67690282Y-58928595D01*
X66675000Y-58928595D01*
X66675000Y-57730587D01*
X68376192Y-57730587D01*
X69332000Y-58686395D01*
X70287808Y-57730587D01*
X70192044Y-57466186D01*
X69902429Y-57325296D01*
X69590892Y-57243616D01*
X69269405Y-57224282D01*
X68950325Y-57268039D01*
X68645912Y-57373205D01*
X68471956Y-57466186D01*
X68376192Y-57730587D01*
X66675000Y-57730587D01*
X66675000Y-54025000D01*
X75658353Y-54025000D01*
X75692000Y-54028314D01*
X75826283Y-54015088D01*
X75955406Y-53975919D01*
X76074407Y-53912312D01*
X76178711Y-53826711D01*
X76264312Y-53722407D01*
X76327919Y-53603406D01*
X76367088Y-53474283D01*
X76377000Y-53373647D01*
X76380314Y-53340000D01*
X76377000Y-53306353D01*
X76377000Y-47180000D01*
X77734025Y-47180000D01*
X77757870Y-47422102D01*
X77828489Y-47654901D01*
X77943167Y-47869449D01*
X78097498Y-48057502D01*
X78246762Y-48180000D01*
X78097498Y-48302498D01*
X77943167Y-48490551D01*
X77828489Y-48705099D01*
X77757870Y-48937898D01*
X77734025Y-49180000D01*
X77757870Y-49422102D01*
X77828489Y-49654901D01*
X77943167Y-49869449D01*
X78097498Y-50057502D01*
X78246762Y-50180000D01*
X78097498Y-50302498D01*
X77943167Y-50490551D01*
X77828489Y-50705099D01*
X77757870Y-50937898D01*
X77734025Y-51180000D01*
X77757870Y-51422102D01*
X77828489Y-51654901D01*
X77943167Y-51869449D01*
X78097498Y-52057502D01*
X78285551Y-52211833D01*
X78500099Y-52326511D01*
X78732898Y-52397130D01*
X78914335Y-52415000D01*
X79585665Y-52415000D01*
X79767102Y-52397130D01*
X79999901Y-52326511D01*
X80214449Y-52211833D01*
X80402502Y-52057502D01*
X80556833Y-51869449D01*
X80671511Y-51654901D01*
X80742130Y-51422102D01*
X80765975Y-51180000D01*
X80742130Y-50937898D01*
X80671511Y-50705099D01*
X80556833Y-50490551D01*
X80402502Y-50302498D01*
X80253238Y-50180000D01*
X80402502Y-50057502D01*
X80556833Y-49869449D01*
X80671511Y-49654901D01*
X80742130Y-49422102D01*
X80765975Y-49180000D01*
X80742130Y-48937898D01*
X80671511Y-48705099D01*
X80556833Y-48490551D01*
X80402502Y-48302498D01*
X80253238Y-48180000D01*
X80402502Y-48057502D01*
X80556833Y-47869449D01*
X80671511Y-47654901D01*
X80742130Y-47422102D01*
X80765975Y-47180000D01*
X80742130Y-46937898D01*
X80671511Y-46705099D01*
X80556833Y-46490551D01*
X80402502Y-46302498D01*
X80363889Y-46270809D01*
X80368387Y-46268405D01*
X80502962Y-46157962D01*
X80613405Y-46023387D01*
X80695472Y-45869851D01*
X80746008Y-45703255D01*
X80763072Y-45530001D01*
X80763072Y-44829999D01*
X80746008Y-44656745D01*
X80695472Y-44490149D01*
X80613405Y-44336613D01*
X80502962Y-44202038D01*
X80368387Y-44091595D01*
X80214851Y-44009528D01*
X80048255Y-43958992D01*
X79875001Y-43941928D01*
X78624999Y-43941928D01*
X78451745Y-43958992D01*
X78285149Y-44009528D01*
X78131613Y-44091595D01*
X77997038Y-44202038D01*
X77886595Y-44336613D01*
X77804528Y-44490149D01*
X77753992Y-44656745D01*
X77736928Y-44829999D01*
X77736928Y-45530001D01*
X77753992Y-45703255D01*
X77804528Y-45869851D01*
X77886595Y-46023387D01*
X77997038Y-46157962D01*
X78131613Y-46268405D01*
X78136111Y-46270809D01*
X78097498Y-46302498D01*
X77943167Y-46490551D01*
X77828489Y-46705099D01*
X77757870Y-46937898D01*
X77734025Y-47180000D01*
X76377000Y-47180000D01*
X76377000Y-43025763D01*
X84777102Y-43025763D01*
X84777102Y-43367529D01*
X84843777Y-43702727D01*
X84974565Y-44018477D01*
X85164439Y-44302644D01*
X85406104Y-44544309D01*
X85690271Y-44734183D01*
X86006021Y-44864971D01*
X86341219Y-44931646D01*
X86682985Y-44931646D01*
X87018183Y-44864971D01*
X87333933Y-44734183D01*
X87618100Y-44544309D01*
X87859765Y-44302644D01*
X88049639Y-44018477D01*
X88180427Y-43702727D01*
X88247102Y-43367529D01*
X88247102Y-43025763D01*
X88180427Y-42690565D01*
X88049639Y-42374815D01*
X87859765Y-42090648D01*
X87618100Y-41848983D01*
X87333933Y-41659109D01*
X87018183Y-41528321D01*
X86682985Y-41461646D01*
X86341219Y-41461646D01*
X86006021Y-41528321D01*
X85690271Y-41659109D01*
X85406104Y-41848983D01*
X85164439Y-42090648D01*
X84974565Y-42374815D01*
X84843777Y-42690565D01*
X84777102Y-43025763D01*
X76377000Y-43025763D01*
X76377000Y-40816961D01*
X88457975Y-40816295D01*
X88425714Y-57889190D01*
M02*
