G04 #@! TF.GenerationSoftware,KiCad,Pcbnew,5.1.5+dfsg1-2build2*
G04 #@! TF.CreationDate,2020-07-01T22:02:56+02:00*
G04 #@! TF.ProjectId,BaSe_SATA_Adapter_HDD_V1_1,42615365-5f53-4415-9441-5f4164617074,rev?*
G04 #@! TF.SameCoordinates,Original*
G04 #@! TF.FileFunction,Copper,L2,Bot*
G04 #@! TF.FilePolarity,Positive*
%FSLAX46Y46*%
G04 Gerber Fmt 4.6, Leading zero omitted, Abs format (unit mm)*
G04 Created by KiCad (PCBNEW 5.1.5+dfsg1-2build2) date 2020-07-01 22:02:56*
%MOMM*%
%LPD*%
G04 APERTURE LIST*
%ADD10O,1.700000X1.700000*%
%ADD11R,1.700000X1.700000*%
%ADD12C,0.800000*%
%ADD13C,0.254000*%
G04 APERTURE END LIST*
D10*
X135890000Y-50800000D03*
X135890000Y-48260000D03*
X133350000Y-50800000D03*
X133350000Y-48260000D03*
X130810000Y-50800000D03*
X130810000Y-48260000D03*
X128270000Y-50800000D03*
X128270000Y-48260000D03*
X125730000Y-50800000D03*
X125730000Y-48260000D03*
X123190000Y-50800000D03*
X123190000Y-48260000D03*
X120650000Y-50800000D03*
D11*
X120650000Y-48260000D03*
D10*
X138430000Y-50800000D03*
D11*
X138430000Y-48260000D03*
D12*
X148150000Y-42305000D03*
X148150000Y-48170000D03*
X148150000Y-44260000D03*
X148150000Y-46215000D03*
X148150000Y-40350000D03*
X106230587Y-39970000D03*
X146180000Y-39970000D03*
X143326464Y-39970000D03*
X120498232Y-39970000D03*
X103377058Y-39970000D03*
X123351761Y-39970000D03*
X117644703Y-39970000D03*
X137619406Y-39970000D03*
X109084116Y-39970000D03*
X140472935Y-39970000D03*
X134765877Y-39970000D03*
X131912348Y-39970000D03*
X126205290Y-39970000D03*
X111937645Y-39970000D03*
X97670000Y-39970000D03*
X114791174Y-39970000D03*
X129058819Y-39970000D03*
X100523529Y-39970000D03*
X125673950Y-42151000D03*
X125090000Y-46470000D03*
X131520000Y-46580000D03*
X127276375Y-42151000D03*
X128878800Y-42151000D03*
X130481225Y-42151000D03*
X132083650Y-42151000D03*
X133686075Y-42151000D03*
X135288500Y-42151000D03*
X135699500Y-46418500D03*
X136461500Y-45593000D03*
X136461500Y-42989500D03*
X136461500Y-44196000D03*
X126295000Y-43373000D03*
X126295000Y-44579500D03*
X126055000Y-45682500D03*
X103240000Y-42151000D03*
X104842425Y-42151000D03*
X106444850Y-42151000D03*
X108047275Y-42151000D03*
X109649700Y-42151000D03*
X111252125Y-42151000D03*
X112854550Y-42151000D03*
X114456975Y-42151000D03*
X116059400Y-42151000D03*
X117661825Y-42151000D03*
X119264250Y-42151000D03*
X120866675Y-42151000D03*
X122469100Y-42151000D03*
X124071525Y-42151000D03*
X89740000Y-40220000D03*
X89740000Y-42175000D03*
X89740000Y-44130000D03*
X89740000Y-46085000D03*
X89740000Y-48040000D03*
X148120000Y-50040000D03*
X148120000Y-52280000D03*
X97670000Y-52850000D03*
X100523529Y-52850000D03*
X103377058Y-52850000D03*
X109084116Y-52850000D03*
X111937645Y-52850000D03*
X114791174Y-52850000D03*
X106230587Y-52850000D03*
X117644703Y-52850000D03*
X120498232Y-52850000D03*
X123351761Y-52850000D03*
X126205290Y-52850000D03*
X129058819Y-52850000D03*
X131912348Y-52850000D03*
X134765877Y-52850000D03*
X137619406Y-52850000D03*
X140472935Y-52850000D03*
X143326464Y-52850000D03*
X146180000Y-52850000D03*
X94810000Y-39920000D03*
X91850000Y-39960000D03*
X91970000Y-48690000D03*
X95080000Y-48600000D03*
X98260000Y-48650000D03*
X101720000Y-48650000D03*
X102840000Y-50900000D03*
X112250000Y-48560000D03*
X110220000Y-48580000D03*
X116450000Y-46200000D03*
X140910000Y-45970000D03*
X142590000Y-45940000D03*
X144230000Y-47990000D03*
X144260000Y-50700000D03*
D13*
G36*
X149200001Y-53315000D02*
G01*
X88925000Y-53315000D01*
X88925000Y-47410000D01*
X119161928Y-47410000D01*
X119161928Y-49110000D01*
X119174188Y-49234482D01*
X119210498Y-49354180D01*
X119269463Y-49464494D01*
X119348815Y-49561185D01*
X119445506Y-49640537D01*
X119555820Y-49699502D01*
X119628380Y-49721513D01*
X119496525Y-49853368D01*
X119334010Y-50096589D01*
X119222068Y-50366842D01*
X119165000Y-50653740D01*
X119165000Y-50946260D01*
X119222068Y-51233158D01*
X119334010Y-51503411D01*
X119496525Y-51746632D01*
X119703368Y-51953475D01*
X119946589Y-52115990D01*
X120216842Y-52227932D01*
X120503740Y-52285000D01*
X120796260Y-52285000D01*
X121083158Y-52227932D01*
X121353411Y-52115990D01*
X121596632Y-51953475D01*
X121803475Y-51746632D01*
X121920000Y-51572240D01*
X122036525Y-51746632D01*
X122243368Y-51953475D01*
X122486589Y-52115990D01*
X122756842Y-52227932D01*
X123043740Y-52285000D01*
X123336260Y-52285000D01*
X123623158Y-52227932D01*
X123893411Y-52115990D01*
X124136632Y-51953475D01*
X124343475Y-51746632D01*
X124465195Y-51564466D01*
X124534822Y-51681355D01*
X124729731Y-51897588D01*
X124963080Y-52071641D01*
X125225901Y-52196825D01*
X125373110Y-52241476D01*
X125603000Y-52120155D01*
X125603000Y-50927000D01*
X125857000Y-50927000D01*
X125857000Y-52120155D01*
X126086890Y-52241476D01*
X126234099Y-52196825D01*
X126496920Y-52071641D01*
X126730269Y-51897588D01*
X126925178Y-51681355D01*
X127000000Y-51555745D01*
X127074822Y-51681355D01*
X127269731Y-51897588D01*
X127503080Y-52071641D01*
X127765901Y-52196825D01*
X127913110Y-52241476D01*
X128143000Y-52120155D01*
X128143000Y-50927000D01*
X128397000Y-50927000D01*
X128397000Y-52120155D01*
X128626890Y-52241476D01*
X128774099Y-52196825D01*
X129036920Y-52071641D01*
X129270269Y-51897588D01*
X129465178Y-51681355D01*
X129540000Y-51555745D01*
X129614822Y-51681355D01*
X129809731Y-51897588D01*
X130043080Y-52071641D01*
X130305901Y-52196825D01*
X130453110Y-52241476D01*
X130683000Y-52120155D01*
X130683000Y-50927000D01*
X130937000Y-50927000D01*
X130937000Y-52120155D01*
X131166890Y-52241476D01*
X131314099Y-52196825D01*
X131576920Y-52071641D01*
X131810269Y-51897588D01*
X132005178Y-51681355D01*
X132080000Y-51555745D01*
X132154822Y-51681355D01*
X132349731Y-51897588D01*
X132583080Y-52071641D01*
X132845901Y-52196825D01*
X132993110Y-52241476D01*
X133223000Y-52120155D01*
X133223000Y-50927000D01*
X133477000Y-50927000D01*
X133477000Y-52120155D01*
X133706890Y-52241476D01*
X133854099Y-52196825D01*
X134116920Y-52071641D01*
X134350269Y-51897588D01*
X134545178Y-51681355D01*
X134620000Y-51555745D01*
X134694822Y-51681355D01*
X134889731Y-51897588D01*
X135123080Y-52071641D01*
X135385901Y-52196825D01*
X135533110Y-52241476D01*
X135763000Y-52120155D01*
X135763000Y-50927000D01*
X136017000Y-50927000D01*
X136017000Y-52120155D01*
X136246890Y-52241476D01*
X136394099Y-52196825D01*
X136656920Y-52071641D01*
X136890269Y-51897588D01*
X137085178Y-51681355D01*
X137160000Y-51555745D01*
X137234822Y-51681355D01*
X137429731Y-51897588D01*
X137663080Y-52071641D01*
X137925901Y-52196825D01*
X138073110Y-52241476D01*
X138303000Y-52120155D01*
X138303000Y-50927000D01*
X138557000Y-50927000D01*
X138557000Y-52120155D01*
X138786890Y-52241476D01*
X138934099Y-52196825D01*
X139196920Y-52071641D01*
X139430269Y-51897588D01*
X139625178Y-51681355D01*
X139774157Y-51431252D01*
X139871481Y-51156891D01*
X139750814Y-50927000D01*
X138557000Y-50927000D01*
X138303000Y-50927000D01*
X136017000Y-50927000D01*
X135763000Y-50927000D01*
X133477000Y-50927000D01*
X133223000Y-50927000D01*
X130937000Y-50927000D01*
X130683000Y-50927000D01*
X128397000Y-50927000D01*
X128143000Y-50927000D01*
X125857000Y-50927000D01*
X125603000Y-50927000D01*
X125583000Y-50927000D01*
X125583000Y-50673000D01*
X125603000Y-50673000D01*
X125603000Y-50653000D01*
X125857000Y-50653000D01*
X125857000Y-50673000D01*
X128143000Y-50673000D01*
X128143000Y-50653000D01*
X128397000Y-50653000D01*
X128397000Y-50673000D01*
X130683000Y-50673000D01*
X130683000Y-48387000D01*
X130663000Y-48387000D01*
X130663000Y-48133000D01*
X130683000Y-48133000D01*
X130683000Y-46939845D01*
X130937000Y-46939845D01*
X130937000Y-48133000D01*
X130957000Y-48133000D01*
X130957000Y-48387000D01*
X130937000Y-48387000D01*
X130937000Y-50673000D01*
X133223000Y-50673000D01*
X133223000Y-50653000D01*
X133477000Y-50653000D01*
X133477000Y-50673000D01*
X135763000Y-50673000D01*
X135763000Y-50653000D01*
X136017000Y-50653000D01*
X136017000Y-50673000D01*
X138303000Y-50673000D01*
X138303000Y-48387000D01*
X138557000Y-48387000D01*
X138557000Y-50673000D01*
X139750814Y-50673000D01*
X139871481Y-50443109D01*
X139774157Y-50168748D01*
X139625178Y-49918645D01*
X139448374Y-49722498D01*
X139524180Y-49699502D01*
X139634494Y-49640537D01*
X139731185Y-49561185D01*
X139810537Y-49464494D01*
X139869502Y-49354180D01*
X139905812Y-49234482D01*
X139918072Y-49110000D01*
X139915000Y-48545750D01*
X139756250Y-48387000D01*
X138557000Y-48387000D01*
X138303000Y-48387000D01*
X138283000Y-48387000D01*
X138283000Y-48133000D01*
X138303000Y-48133000D01*
X138303000Y-46933750D01*
X138557000Y-46933750D01*
X138557000Y-48133000D01*
X139756250Y-48133000D01*
X139915000Y-47974250D01*
X139918072Y-47410000D01*
X139905812Y-47285518D01*
X139869502Y-47165820D01*
X139810537Y-47055506D01*
X139731185Y-46958815D01*
X139634494Y-46879463D01*
X139524180Y-46820498D01*
X139404482Y-46784188D01*
X139280000Y-46771928D01*
X138715750Y-46775000D01*
X138557000Y-46933750D01*
X138303000Y-46933750D01*
X138144250Y-46775000D01*
X137580000Y-46771928D01*
X137455518Y-46784188D01*
X137335820Y-46820498D01*
X137225506Y-46879463D01*
X137128815Y-46958815D01*
X137049463Y-47055506D01*
X136990498Y-47165820D01*
X136968487Y-47238380D01*
X136836632Y-47106525D01*
X136593411Y-46944010D01*
X136323158Y-46832068D01*
X136036260Y-46775000D01*
X135743740Y-46775000D01*
X135456842Y-46832068D01*
X135186589Y-46944010D01*
X134943368Y-47106525D01*
X134736525Y-47313368D01*
X134620000Y-47487760D01*
X134503475Y-47313368D01*
X134296632Y-47106525D01*
X134053411Y-46944010D01*
X133783158Y-46832068D01*
X133496260Y-46775000D01*
X133203740Y-46775000D01*
X132916842Y-46832068D01*
X132646589Y-46944010D01*
X132403368Y-47106525D01*
X132196525Y-47313368D01*
X132074805Y-47495534D01*
X132005178Y-47378645D01*
X131810269Y-47162412D01*
X131576920Y-46988359D01*
X131314099Y-46863175D01*
X131166890Y-46818524D01*
X130937000Y-46939845D01*
X130683000Y-46939845D01*
X130453110Y-46818524D01*
X130305901Y-46863175D01*
X130043080Y-46988359D01*
X129809731Y-47162412D01*
X129614822Y-47378645D01*
X129545195Y-47495534D01*
X129423475Y-47313368D01*
X129216632Y-47106525D01*
X128973411Y-46944010D01*
X128703158Y-46832068D01*
X128416260Y-46775000D01*
X128123740Y-46775000D01*
X127836842Y-46832068D01*
X127566589Y-46944010D01*
X127323368Y-47106525D01*
X127116525Y-47313368D01*
X127000000Y-47487760D01*
X126883475Y-47313368D01*
X126676632Y-47106525D01*
X126433411Y-46944010D01*
X126163158Y-46832068D01*
X125876260Y-46775000D01*
X125583740Y-46775000D01*
X125296842Y-46832068D01*
X125026589Y-46944010D01*
X124783368Y-47106525D01*
X124576525Y-47313368D01*
X124454805Y-47495534D01*
X124385178Y-47378645D01*
X124190269Y-47162412D01*
X123956920Y-46988359D01*
X123694099Y-46863175D01*
X123546890Y-46818524D01*
X123317000Y-46939845D01*
X123317000Y-48133000D01*
X123337000Y-48133000D01*
X123337000Y-48387000D01*
X123317000Y-48387000D01*
X123317000Y-48407000D01*
X123063000Y-48407000D01*
X123063000Y-48387000D01*
X123043000Y-48387000D01*
X123043000Y-48133000D01*
X123063000Y-48133000D01*
X123063000Y-46939845D01*
X122833110Y-46818524D01*
X122685901Y-46863175D01*
X122423080Y-46988359D01*
X122189731Y-47162412D01*
X122113966Y-47246466D01*
X122089502Y-47165820D01*
X122030537Y-47055506D01*
X121951185Y-46958815D01*
X121854494Y-46879463D01*
X121744180Y-46820498D01*
X121624482Y-46784188D01*
X121500000Y-46771928D01*
X119800000Y-46771928D01*
X119675518Y-46784188D01*
X119555820Y-46820498D01*
X119445506Y-46879463D01*
X119348815Y-46958815D01*
X119269463Y-47055506D01*
X119210498Y-47165820D01*
X119174188Y-47285518D01*
X119161928Y-47410000D01*
X88925000Y-47410000D01*
X88925000Y-42991881D01*
X92530000Y-42991881D01*
X92530000Y-43368119D01*
X92603400Y-43737127D01*
X92747380Y-44084724D01*
X92956406Y-44397554D01*
X93222446Y-44663594D01*
X93535276Y-44872620D01*
X93882873Y-45016600D01*
X94251881Y-45090000D01*
X94628119Y-45090000D01*
X94997127Y-45016600D01*
X95344724Y-44872620D01*
X95657554Y-44663594D01*
X95923594Y-44397554D01*
X96132620Y-44084724D01*
X96276600Y-43737127D01*
X96350000Y-43368119D01*
X96350000Y-43053439D01*
X99280000Y-43053439D01*
X99280000Y-43306561D01*
X99329381Y-43554821D01*
X99426247Y-43788676D01*
X99566875Y-43999140D01*
X99745860Y-44178125D01*
X99956324Y-44318753D01*
X100190179Y-44415619D01*
X100438439Y-44465000D01*
X100691561Y-44465000D01*
X100939821Y-44415619D01*
X101173676Y-44318753D01*
X101384140Y-44178125D01*
X101563125Y-43999140D01*
X101703753Y-43788676D01*
X101800619Y-43554821D01*
X101850000Y-43306561D01*
X101850000Y-43053439D01*
X137030000Y-43053439D01*
X137030000Y-43306561D01*
X137079381Y-43554821D01*
X137176247Y-43788676D01*
X137316875Y-43999140D01*
X137495860Y-44178125D01*
X137706324Y-44318753D01*
X137940179Y-44415619D01*
X138188439Y-44465000D01*
X138441561Y-44465000D01*
X138689821Y-44415619D01*
X138923676Y-44318753D01*
X139134140Y-44178125D01*
X139313125Y-43999140D01*
X139453753Y-43788676D01*
X139550619Y-43554821D01*
X139600000Y-43306561D01*
X139600000Y-43053439D01*
X139587756Y-42991881D01*
X142530000Y-42991881D01*
X142530000Y-43368119D01*
X142603400Y-43737127D01*
X142747380Y-44084724D01*
X142956406Y-44397554D01*
X143222446Y-44663594D01*
X143535276Y-44872620D01*
X143882873Y-45016600D01*
X144251881Y-45090000D01*
X144628119Y-45090000D01*
X144997127Y-45016600D01*
X145344724Y-44872620D01*
X145657554Y-44663594D01*
X145923594Y-44397554D01*
X146132620Y-44084724D01*
X146276600Y-43737127D01*
X146350000Y-43368119D01*
X146350000Y-42991881D01*
X146276600Y-42622873D01*
X146132620Y-42275276D01*
X145923594Y-41962446D01*
X145657554Y-41696406D01*
X145344724Y-41487380D01*
X144997127Y-41343400D01*
X144628119Y-41270000D01*
X144251881Y-41270000D01*
X143882873Y-41343400D01*
X143535276Y-41487380D01*
X143222446Y-41696406D01*
X142956406Y-41962446D01*
X142747380Y-42275276D01*
X142603400Y-42622873D01*
X142530000Y-42991881D01*
X139587756Y-42991881D01*
X139550619Y-42805179D01*
X139453753Y-42571324D01*
X139313125Y-42360860D01*
X139134140Y-42181875D01*
X138923676Y-42041247D01*
X138689821Y-41944381D01*
X138441561Y-41895000D01*
X138188439Y-41895000D01*
X137940179Y-41944381D01*
X137706324Y-42041247D01*
X137495860Y-42181875D01*
X137316875Y-42360860D01*
X137176247Y-42571324D01*
X137079381Y-42805179D01*
X137030000Y-43053439D01*
X101850000Y-43053439D01*
X101800619Y-42805179D01*
X101703753Y-42571324D01*
X101563125Y-42360860D01*
X101384140Y-42181875D01*
X101173676Y-42041247D01*
X100939821Y-41944381D01*
X100691561Y-41895000D01*
X100438439Y-41895000D01*
X100190179Y-41944381D01*
X99956324Y-42041247D01*
X99745860Y-42181875D01*
X99566875Y-42360860D01*
X99426247Y-42571324D01*
X99329381Y-42805179D01*
X99280000Y-43053439D01*
X96350000Y-43053439D01*
X96350000Y-42991881D01*
X96276600Y-42622873D01*
X96132620Y-42275276D01*
X95923594Y-41962446D01*
X95657554Y-41696406D01*
X95344724Y-41487380D01*
X94997127Y-41343400D01*
X94628119Y-41270000D01*
X94251881Y-41270000D01*
X93882873Y-41343400D01*
X93535276Y-41487380D01*
X93222446Y-41696406D01*
X92956406Y-41962446D01*
X92747380Y-42275276D01*
X92603400Y-42622873D01*
X92530000Y-42991881D01*
X88925000Y-42991881D01*
X88925000Y-39395000D01*
X149200000Y-39395000D01*
X149200001Y-53315000D01*
G37*
X149200001Y-53315000D02*
X88925000Y-53315000D01*
X88925000Y-47410000D01*
X119161928Y-47410000D01*
X119161928Y-49110000D01*
X119174188Y-49234482D01*
X119210498Y-49354180D01*
X119269463Y-49464494D01*
X119348815Y-49561185D01*
X119445506Y-49640537D01*
X119555820Y-49699502D01*
X119628380Y-49721513D01*
X119496525Y-49853368D01*
X119334010Y-50096589D01*
X119222068Y-50366842D01*
X119165000Y-50653740D01*
X119165000Y-50946260D01*
X119222068Y-51233158D01*
X119334010Y-51503411D01*
X119496525Y-51746632D01*
X119703368Y-51953475D01*
X119946589Y-52115990D01*
X120216842Y-52227932D01*
X120503740Y-52285000D01*
X120796260Y-52285000D01*
X121083158Y-52227932D01*
X121353411Y-52115990D01*
X121596632Y-51953475D01*
X121803475Y-51746632D01*
X121920000Y-51572240D01*
X122036525Y-51746632D01*
X122243368Y-51953475D01*
X122486589Y-52115990D01*
X122756842Y-52227932D01*
X123043740Y-52285000D01*
X123336260Y-52285000D01*
X123623158Y-52227932D01*
X123893411Y-52115990D01*
X124136632Y-51953475D01*
X124343475Y-51746632D01*
X124465195Y-51564466D01*
X124534822Y-51681355D01*
X124729731Y-51897588D01*
X124963080Y-52071641D01*
X125225901Y-52196825D01*
X125373110Y-52241476D01*
X125603000Y-52120155D01*
X125603000Y-50927000D01*
X125857000Y-50927000D01*
X125857000Y-52120155D01*
X126086890Y-52241476D01*
X126234099Y-52196825D01*
X126496920Y-52071641D01*
X126730269Y-51897588D01*
X126925178Y-51681355D01*
X127000000Y-51555745D01*
X127074822Y-51681355D01*
X127269731Y-51897588D01*
X127503080Y-52071641D01*
X127765901Y-52196825D01*
X127913110Y-52241476D01*
X128143000Y-52120155D01*
X128143000Y-50927000D01*
X128397000Y-50927000D01*
X128397000Y-52120155D01*
X128626890Y-52241476D01*
X128774099Y-52196825D01*
X129036920Y-52071641D01*
X129270269Y-51897588D01*
X129465178Y-51681355D01*
X129540000Y-51555745D01*
X129614822Y-51681355D01*
X129809731Y-51897588D01*
X130043080Y-52071641D01*
X130305901Y-52196825D01*
X130453110Y-52241476D01*
X130683000Y-52120155D01*
X130683000Y-50927000D01*
X130937000Y-50927000D01*
X130937000Y-52120155D01*
X131166890Y-52241476D01*
X131314099Y-52196825D01*
X131576920Y-52071641D01*
X131810269Y-51897588D01*
X132005178Y-51681355D01*
X132080000Y-51555745D01*
X132154822Y-51681355D01*
X132349731Y-51897588D01*
X132583080Y-52071641D01*
X132845901Y-52196825D01*
X132993110Y-52241476D01*
X133223000Y-52120155D01*
X133223000Y-50927000D01*
X133477000Y-50927000D01*
X133477000Y-52120155D01*
X133706890Y-52241476D01*
X133854099Y-52196825D01*
X134116920Y-52071641D01*
X134350269Y-51897588D01*
X134545178Y-51681355D01*
X134620000Y-51555745D01*
X134694822Y-51681355D01*
X134889731Y-51897588D01*
X135123080Y-52071641D01*
X135385901Y-52196825D01*
X135533110Y-52241476D01*
X135763000Y-52120155D01*
X135763000Y-50927000D01*
X136017000Y-50927000D01*
X136017000Y-52120155D01*
X136246890Y-52241476D01*
X136394099Y-52196825D01*
X136656920Y-52071641D01*
X136890269Y-51897588D01*
X137085178Y-51681355D01*
X137160000Y-51555745D01*
X137234822Y-51681355D01*
X137429731Y-51897588D01*
X137663080Y-52071641D01*
X137925901Y-52196825D01*
X138073110Y-52241476D01*
X138303000Y-52120155D01*
X138303000Y-50927000D01*
X138557000Y-50927000D01*
X138557000Y-52120155D01*
X138786890Y-52241476D01*
X138934099Y-52196825D01*
X139196920Y-52071641D01*
X139430269Y-51897588D01*
X139625178Y-51681355D01*
X139774157Y-51431252D01*
X139871481Y-51156891D01*
X139750814Y-50927000D01*
X138557000Y-50927000D01*
X138303000Y-50927000D01*
X136017000Y-50927000D01*
X135763000Y-50927000D01*
X133477000Y-50927000D01*
X133223000Y-50927000D01*
X130937000Y-50927000D01*
X130683000Y-50927000D01*
X128397000Y-50927000D01*
X128143000Y-50927000D01*
X125857000Y-50927000D01*
X125603000Y-50927000D01*
X125583000Y-50927000D01*
X125583000Y-50673000D01*
X125603000Y-50673000D01*
X125603000Y-50653000D01*
X125857000Y-50653000D01*
X125857000Y-50673000D01*
X128143000Y-50673000D01*
X128143000Y-50653000D01*
X128397000Y-50653000D01*
X128397000Y-50673000D01*
X130683000Y-50673000D01*
X130683000Y-48387000D01*
X130663000Y-48387000D01*
X130663000Y-48133000D01*
X130683000Y-48133000D01*
X130683000Y-46939845D01*
X130937000Y-46939845D01*
X130937000Y-48133000D01*
X130957000Y-48133000D01*
X130957000Y-48387000D01*
X130937000Y-48387000D01*
X130937000Y-50673000D01*
X133223000Y-50673000D01*
X133223000Y-50653000D01*
X133477000Y-50653000D01*
X133477000Y-50673000D01*
X135763000Y-50673000D01*
X135763000Y-50653000D01*
X136017000Y-50653000D01*
X136017000Y-50673000D01*
X138303000Y-50673000D01*
X138303000Y-48387000D01*
X138557000Y-48387000D01*
X138557000Y-50673000D01*
X139750814Y-50673000D01*
X139871481Y-50443109D01*
X139774157Y-50168748D01*
X139625178Y-49918645D01*
X139448374Y-49722498D01*
X139524180Y-49699502D01*
X139634494Y-49640537D01*
X139731185Y-49561185D01*
X139810537Y-49464494D01*
X139869502Y-49354180D01*
X139905812Y-49234482D01*
X139918072Y-49110000D01*
X139915000Y-48545750D01*
X139756250Y-48387000D01*
X138557000Y-48387000D01*
X138303000Y-48387000D01*
X138283000Y-48387000D01*
X138283000Y-48133000D01*
X138303000Y-48133000D01*
X138303000Y-46933750D01*
X138557000Y-46933750D01*
X138557000Y-48133000D01*
X139756250Y-48133000D01*
X139915000Y-47974250D01*
X139918072Y-47410000D01*
X139905812Y-47285518D01*
X139869502Y-47165820D01*
X139810537Y-47055506D01*
X139731185Y-46958815D01*
X139634494Y-46879463D01*
X139524180Y-46820498D01*
X139404482Y-46784188D01*
X139280000Y-46771928D01*
X138715750Y-46775000D01*
X138557000Y-46933750D01*
X138303000Y-46933750D01*
X138144250Y-46775000D01*
X137580000Y-46771928D01*
X137455518Y-46784188D01*
X137335820Y-46820498D01*
X137225506Y-46879463D01*
X137128815Y-46958815D01*
X137049463Y-47055506D01*
X136990498Y-47165820D01*
X136968487Y-47238380D01*
X136836632Y-47106525D01*
X136593411Y-46944010D01*
X136323158Y-46832068D01*
X136036260Y-46775000D01*
X135743740Y-46775000D01*
X135456842Y-46832068D01*
X135186589Y-46944010D01*
X134943368Y-47106525D01*
X134736525Y-47313368D01*
X134620000Y-47487760D01*
X134503475Y-47313368D01*
X134296632Y-47106525D01*
X134053411Y-46944010D01*
X133783158Y-46832068D01*
X133496260Y-46775000D01*
X133203740Y-46775000D01*
X132916842Y-46832068D01*
X132646589Y-46944010D01*
X132403368Y-47106525D01*
X132196525Y-47313368D01*
X132074805Y-47495534D01*
X132005178Y-47378645D01*
X131810269Y-47162412D01*
X131576920Y-46988359D01*
X131314099Y-46863175D01*
X131166890Y-46818524D01*
X130937000Y-46939845D01*
X130683000Y-46939845D01*
X130453110Y-46818524D01*
X130305901Y-46863175D01*
X130043080Y-46988359D01*
X129809731Y-47162412D01*
X129614822Y-47378645D01*
X129545195Y-47495534D01*
X129423475Y-47313368D01*
X129216632Y-47106525D01*
X128973411Y-46944010D01*
X128703158Y-46832068D01*
X128416260Y-46775000D01*
X128123740Y-46775000D01*
X127836842Y-46832068D01*
X127566589Y-46944010D01*
X127323368Y-47106525D01*
X127116525Y-47313368D01*
X127000000Y-47487760D01*
X126883475Y-47313368D01*
X126676632Y-47106525D01*
X126433411Y-46944010D01*
X126163158Y-46832068D01*
X125876260Y-46775000D01*
X125583740Y-46775000D01*
X125296842Y-46832068D01*
X125026589Y-46944010D01*
X124783368Y-47106525D01*
X124576525Y-47313368D01*
X124454805Y-47495534D01*
X124385178Y-47378645D01*
X124190269Y-47162412D01*
X123956920Y-46988359D01*
X123694099Y-46863175D01*
X123546890Y-46818524D01*
X123317000Y-46939845D01*
X123317000Y-48133000D01*
X123337000Y-48133000D01*
X123337000Y-48387000D01*
X123317000Y-48387000D01*
X123317000Y-48407000D01*
X123063000Y-48407000D01*
X123063000Y-48387000D01*
X123043000Y-48387000D01*
X123043000Y-48133000D01*
X123063000Y-48133000D01*
X123063000Y-46939845D01*
X122833110Y-46818524D01*
X122685901Y-46863175D01*
X122423080Y-46988359D01*
X122189731Y-47162412D01*
X122113966Y-47246466D01*
X122089502Y-47165820D01*
X122030537Y-47055506D01*
X121951185Y-46958815D01*
X121854494Y-46879463D01*
X121744180Y-46820498D01*
X121624482Y-46784188D01*
X121500000Y-46771928D01*
X119800000Y-46771928D01*
X119675518Y-46784188D01*
X119555820Y-46820498D01*
X119445506Y-46879463D01*
X119348815Y-46958815D01*
X119269463Y-47055506D01*
X119210498Y-47165820D01*
X119174188Y-47285518D01*
X119161928Y-47410000D01*
X88925000Y-47410000D01*
X88925000Y-42991881D01*
X92530000Y-42991881D01*
X92530000Y-43368119D01*
X92603400Y-43737127D01*
X92747380Y-44084724D01*
X92956406Y-44397554D01*
X93222446Y-44663594D01*
X93535276Y-44872620D01*
X93882873Y-45016600D01*
X94251881Y-45090000D01*
X94628119Y-45090000D01*
X94997127Y-45016600D01*
X95344724Y-44872620D01*
X95657554Y-44663594D01*
X95923594Y-44397554D01*
X96132620Y-44084724D01*
X96276600Y-43737127D01*
X96350000Y-43368119D01*
X96350000Y-43053439D01*
X99280000Y-43053439D01*
X99280000Y-43306561D01*
X99329381Y-43554821D01*
X99426247Y-43788676D01*
X99566875Y-43999140D01*
X99745860Y-44178125D01*
X99956324Y-44318753D01*
X100190179Y-44415619D01*
X100438439Y-44465000D01*
X100691561Y-44465000D01*
X100939821Y-44415619D01*
X101173676Y-44318753D01*
X101384140Y-44178125D01*
X101563125Y-43999140D01*
X101703753Y-43788676D01*
X101800619Y-43554821D01*
X101850000Y-43306561D01*
X101850000Y-43053439D01*
X137030000Y-43053439D01*
X137030000Y-43306561D01*
X137079381Y-43554821D01*
X137176247Y-43788676D01*
X137316875Y-43999140D01*
X137495860Y-44178125D01*
X137706324Y-44318753D01*
X137940179Y-44415619D01*
X138188439Y-44465000D01*
X138441561Y-44465000D01*
X138689821Y-44415619D01*
X138923676Y-44318753D01*
X139134140Y-44178125D01*
X139313125Y-43999140D01*
X139453753Y-43788676D01*
X139550619Y-43554821D01*
X139600000Y-43306561D01*
X139600000Y-43053439D01*
X139587756Y-42991881D01*
X142530000Y-42991881D01*
X142530000Y-43368119D01*
X142603400Y-43737127D01*
X142747380Y-44084724D01*
X142956406Y-44397554D01*
X143222446Y-44663594D01*
X143535276Y-44872620D01*
X143882873Y-45016600D01*
X144251881Y-45090000D01*
X144628119Y-45090000D01*
X144997127Y-45016600D01*
X145344724Y-44872620D01*
X145657554Y-44663594D01*
X145923594Y-44397554D01*
X146132620Y-44084724D01*
X146276600Y-43737127D01*
X146350000Y-43368119D01*
X146350000Y-42991881D01*
X146276600Y-42622873D01*
X146132620Y-42275276D01*
X145923594Y-41962446D01*
X145657554Y-41696406D01*
X145344724Y-41487380D01*
X144997127Y-41343400D01*
X144628119Y-41270000D01*
X144251881Y-41270000D01*
X143882873Y-41343400D01*
X143535276Y-41487380D01*
X143222446Y-41696406D01*
X142956406Y-41962446D01*
X142747380Y-42275276D01*
X142603400Y-42622873D01*
X142530000Y-42991881D01*
X139587756Y-42991881D01*
X139550619Y-42805179D01*
X139453753Y-42571324D01*
X139313125Y-42360860D01*
X139134140Y-42181875D01*
X138923676Y-42041247D01*
X138689821Y-41944381D01*
X138441561Y-41895000D01*
X138188439Y-41895000D01*
X137940179Y-41944381D01*
X137706324Y-42041247D01*
X137495860Y-42181875D01*
X137316875Y-42360860D01*
X137176247Y-42571324D01*
X137079381Y-42805179D01*
X137030000Y-43053439D01*
X101850000Y-43053439D01*
X101800619Y-42805179D01*
X101703753Y-42571324D01*
X101563125Y-42360860D01*
X101384140Y-42181875D01*
X101173676Y-42041247D01*
X100939821Y-41944381D01*
X100691561Y-41895000D01*
X100438439Y-41895000D01*
X100190179Y-41944381D01*
X99956324Y-42041247D01*
X99745860Y-42181875D01*
X99566875Y-42360860D01*
X99426247Y-42571324D01*
X99329381Y-42805179D01*
X99280000Y-43053439D01*
X96350000Y-43053439D01*
X96350000Y-42991881D01*
X96276600Y-42622873D01*
X96132620Y-42275276D01*
X95923594Y-41962446D01*
X95657554Y-41696406D01*
X95344724Y-41487380D01*
X94997127Y-41343400D01*
X94628119Y-41270000D01*
X94251881Y-41270000D01*
X93882873Y-41343400D01*
X93535276Y-41487380D01*
X93222446Y-41696406D01*
X92956406Y-41962446D01*
X92747380Y-42275276D01*
X92603400Y-42622873D01*
X92530000Y-42991881D01*
X88925000Y-42991881D01*
X88925000Y-39395000D01*
X149200000Y-39395000D01*
X149200001Y-53315000D01*
M02*
