M48
; DRILL file {KiCad 5.1.5+dfsg1-2build2} date Mi 01 Jul 2020 22:02:59 CEST
; FORMAT={-:-/ absolute / metric / decimal}
; #@! TF.CreationDate,2020-07-01T22:02:59+02:00
; #@! TF.GenerationSoftware,Kicad,Pcbnew,5.1.5+dfsg1-2build2
; #@! TF.FileFunction,Plated,1,2,PTH
FMAT,2
METRIC
T1C0.400
T2C1.000
%
G90
G05
T1
X89.74Y-40.22
X89.74Y-42.175
X89.74Y-44.13
X89.74Y-46.085
X89.74Y-48.04
X91.85Y-39.96
X91.97Y-48.69
X94.81Y-39.92
X95.08Y-48.6
X97.67Y-39.97
X97.67Y-52.85
X98.26Y-48.65
X100.524Y-39.97
X100.524Y-52.85
X101.72Y-48.65
X102.84Y-50.9
X103.24Y-42.151
X103.377Y-39.97
X103.377Y-52.85
X104.842Y-42.151
X106.231Y-39.97
X106.231Y-52.85
X106.445Y-42.151
X108.047Y-42.151
X109.084Y-39.97
X109.084Y-52.85
X109.65Y-42.151
X110.22Y-48.58
X111.252Y-42.151
X111.938Y-39.97
X111.938Y-52.85
X112.25Y-48.56
X112.855Y-42.151
X114.457Y-42.151
X114.791Y-39.97
X114.791Y-52.85
X116.059Y-42.151
X116.45Y-46.2
X117.645Y-39.97
X117.645Y-52.85
X117.662Y-42.151
X119.264Y-42.151
X120.498Y-39.97
X120.498Y-52.85
X120.867Y-42.151
X122.469Y-42.151
X123.352Y-39.97
X123.352Y-52.85
X124.072Y-42.151
X125.09Y-46.47
X125.674Y-42.151
X126.055Y-45.682
X126.205Y-39.97
X126.205Y-52.85
X126.295Y-43.373
X126.295Y-44.579
X127.276Y-42.151
X128.879Y-42.151
X129.059Y-39.97
X129.059Y-52.85
X130.481Y-42.151
X131.52Y-46.58
X131.912Y-39.97
X131.912Y-52.85
X132.084Y-42.151
X133.686Y-42.151
X134.766Y-39.97
X134.766Y-52.85
X135.288Y-42.151
X135.7Y-46.418
X136.462Y-42.989
X136.462Y-44.196
X136.462Y-45.593
X137.619Y-39.97
X137.619Y-52.85
X140.473Y-39.97
X140.473Y-52.85
X140.91Y-45.97
X142.59Y-45.94
X143.326Y-39.97
X143.326Y-52.85
X144.23Y-47.99
X144.26Y-50.7
X146.18Y-39.97
X146.18Y-52.85
X148.12Y-50.04
X148.12Y-52.28
X148.15Y-40.35
X148.15Y-42.305
X148.15Y-44.26
X148.15Y-46.215
X148.15Y-48.17
T2
X120.65Y-48.26
X120.65Y-50.8
X123.19Y-48.26
X123.19Y-50.8
X125.73Y-48.26
X125.73Y-50.8
X128.27Y-48.26
X128.27Y-50.8
X130.81Y-48.26
X130.81Y-50.8
X133.35Y-48.26
X133.35Y-50.8
X135.89Y-48.26
X135.89Y-50.8
X138.43Y-48.26
X138.43Y-50.8
T0
M30
